<svg version="1.1" xmlns="http://www.w3.org/2000/svg" xmlns:xlink="http://www.w3.org/1999/xlink" width="939" height="535"><defs><clipPath id="ZlkLoEIHvzeR"><path fill="none" stroke="none" d=" M 0 0 L 939 0 L 939 535 L 0 535 L 0 0 Z"/></clipPath></defs><g transform="scale(1,1)" clip-path="url(#ZlkLoEIHvzeR)"><g><rect fill="rgb(255,255,255)" stroke="none" x="0" y="0" width="939" height="535" fill-opacity="1"/><path fill="rgb(255,0,0)" stroke="none" paint-order="stroke fill markers" fill-rule="evenodd" d=" M 227.45538451640803 134.6912365091402 L 227.45538451640803 171.78324978272687 L 301.6394110635813 171.78324978272687 L 301.6394110635813 208.8752630563135 L 561.2835039786878 208.8752630563135 L 561.2835039786878 245.96727632990016 L 635.4675305258611 245.96727632990016 L 635.4675305258611 134.6912365091402 Z" fill-opacity="0.0196078431372549"/><path fill="none" stroke="rgb(153,51,0)" paint-order="fill stroke markers" d=" M 227.45538451640803 134.6912365091402 L 227.45538451640803 283.05928960348683" stroke-opacity="0.6980392156862745" stroke-linecap="round" stroke-linejoin="round" stroke-miterlimit="10" stroke-width="2.5"/><g transform="scale(27,27)"><g transform="translate(5.814814814814815,8.329626962962962) scale(2,2)"><g transform="translate(0,0)"><path fill="rgb(153,51,0)" stroke="none" paint-order="stroke fill markers" d=" M 0.926 -0.606 L 0.793 -0.073 Q 0.788 -0.055 0.788 -0.049 Q 0.788 -0.032 0.835 -0.031 L 0.836 -0.031 L 0.853 -0.031 Q 0.879 -0.031 0.881 -0.02 Q 0.881 0 0.862 0 L 0.738 -0.003 L 0.737 -0.003 L 0.614 0 L 0.613 0 Q 0.598 0 0.598 -0.012 Q 0.598 -0.029 0.614 -0.031 L 0.626 -0.031 Q 0.6910000000000001 -0.031 0.704 -0.045 Q 0.71 -0.052000000000000005 0.716 -0.073 Q 0.716 -0.074 0.717 -0.078 L 0.86 -0.651 L 0.859 -0.651 L 0.455 -0.018000000000000002 Q 0.443 -0.001 0.433 0 Q 0.422 0 0.418 -0.023 L 0.332 -0.643 L 0.331 -0.643 L 0.195 -0.098 Q 0.191 -0.083 0.191 -0.075 Q 0.191 -0.038 0.23900000000000002 -0.032 Q 0.248 -0.031 0.259 -0.031 Q 0.277 -0.031 0.277 -0.02 Q 0.277 0 0.259 0 L 0.159 -0.003 L 0.156 -0.003 L 0.057 0 L 0.056 0 Q 0.042 0 0.042 -0.012 Q 0.042 -0.031 0.06 -0.031 Q 0.139 -0.034 0.16 -0.081 Q 0.164 -0.091 0.168 -0.106 L 0.295 -0.615 Q 0.299 -0.631 0.299 -0.634 Q 0.299 -0.646 0.28300000000000003 -0.649 L 0.28200000000000003 -0.649 L 0.28200000000000003 -0.649 Q 0.28 -0.65 0.277 -0.65 Q 0.253 -0.652 0.234 -0.652 Q 0.20800000000000002 -0.652 0.20600000000000002 -0.66 Q 0.20500000000000002 -0.662 0.20500000000000002 -0.664 Q 0.20500000000000002 -0.681 0.222 -0.683 L 0.222 -0.683 L 0.23500000000000001 -0.683 L 0.372 -0.683 Q 0.395 -0.683 0.399 -0.678 L 0.399 -0.677 Q 0.401 -0.673 0.403 -0.66 L 0.481 -0.094 L 0.846 -0.664 Q 0.857 -0.681 0.866 -0.682 Q 0.87 -0.683 0.885 -0.683 L 1.0170000000000001 -0.683 Q 1.042 -0.683 1.044 -0.672 Q 1.044 -0.655 1.03 -0.653 Q 1.025 -0.652 1.012 -0.652 Q 0.9490000000000001 -0.652 0.937 -0.636 L 0.936 -0.635 L 0.936 -0.634 Q 0.931 -0.627 0.926 -0.606 Z"/></g></g></g><path fill="none" stroke="rgb(153,51,0)" paint-order="fill stroke markers" d=" M 227.45538451640803 283.05928960348683 L 635.4675305258611 283.05928960348683" stroke-opacity="0.6980392156862745" stroke-linecap="round" stroke-linejoin="round" stroke-miterlimit="10" stroke-width="2.5"/><path fill="none" stroke="rgb(153,51,0)" paint-order="fill stroke markers" d=" M 635.4675305258611 283.05928960348683 L 635.4675305258611 134.6912365091402" stroke-opacity="0.6980392156862745" stroke-linecap="round" stroke-linejoin="round" stroke-miterlimit="10" stroke-width="2.5"/><path fill="none" stroke="rgb(153,51,0)" paint-order="fill stroke markers" d=" M 635.4675305258611 134.6912365091402 L 227.45538451640803 134.6912365091402" stroke-opacity="0.6980392156862745" stroke-linecap="round" stroke-linejoin="round" stroke-miterlimit="10" stroke-width="2.5"/><g transform="scale(27,27)"><g transform="translate(14.555555555555555,4.366664) scale(2,2)"><g transform="translate(0,0)"><path fill="rgb(153,51,0)" stroke="none" paint-order="stroke fill markers" d=" M 0.756 -0.578 L 0.616 -0.021 Q 0.611 -0.002 0.606 -0.001 L 0.605 0 L 0.6 0 Q 0.59 0 0.584 -0.012 Q 0.583 -0.015 0.581 -0.019 L 0.332 -0.608 L 0.323 -0.626 L 0.191 -0.098 Q 0.187 -0.083 0.187 -0.075 Q 0.187 -0.041 0.23 -0.033 Q 0.24 -0.031 0.253 -0.031 Q 0.273 -0.031 0.273 -0.02 Q 0.273 0 0.255 0 L 0.155 -0.003 L 0.152 -0.003 L 0.053 0 L 0.052000000000000005 0 Q 0.039 0 0.039 -0.011 Q 0.039 -0.031 0.056 -0.031 Q 0.135 -0.034 0.156 -0.081 Q 0.16 -0.091 0.164 -0.106 L 0.298 -0.643 Q 0.298 -0.652 0.23 -0.652 Q 0.20400000000000001 -0.652 0.202 -0.663 Q 0.202 -0.681 0.217 -0.683 L 0.231 -0.683 L 0.365 -0.683 Q 0.386 -0.683 0.391 -0.676 Q 0.393 -0.673 0.397 -0.664 L 0.618 -0.14200000000000002 L 0.73 -0.587 Q 0.733 -0.596 0.733 -0.608 Q 0.733 -0.651 0.665 -0.652 Q 0.647 -0.652 0.647 -0.663 Q 0.647 -0.683 0.665 -0.683 L 0.766 -0.68 L 0.767 -0.68 L 0.867 -0.683 L 0.868 -0.683 Q 0.881 -0.683 0.881 -0.672 Q 0.881 -0.652 0.864 -0.652 Q 0.786 -0.649 0.764 -0.603 L 0.764 -0.603 Q 0.76 -0.593 0.756 -0.578 Z"/></g></g></g><path fill="none" stroke="rgb(255,0,0)" paint-order="fill stroke markers" d=" M 227.45538451640803 171.78324978272687 L 301.6394110635813 171.78324978272687" stroke-opacity="1" stroke-linecap="round" stroke-linejoin="round" stroke-miterlimit="10" stroke-width="3.5"/><path fill="none" stroke="rgb(255,0,0)" paint-order="fill stroke markers" d=" M 301.6394110635813 208.8752630563135 L 561.2835039786878 208.8752630563135" stroke-opacity="1" stroke-linecap="round" stroke-linejoin="round" stroke-miterlimit="10" stroke-width="3.5"/><path fill="none" stroke="rgb(255,0,0)" paint-order="fill stroke markers" d=" M 561.2835039786878 245.96727632990016 L 635.4675305258611 245.96727632990016" stroke-opacity="1" stroke-linecap="round" stroke-linejoin="round" stroke-miterlimit="10" stroke-width="3.5"/><path fill="none" stroke="rgb(255,0,0)" paint-order="fill stroke markers" d=" M 301.6394110635813 171.78324978272687 L 301.6394110635813 208.8752630563135" stroke-opacity="1" stroke-linecap="round" stroke-linejoin="round" stroke-miterlimit="10" stroke-width="3.5"/><path fill="none" stroke="rgb(255,0,0)" paint-order="fill stroke markers" d=" M 561.2835039786878 208.8752630563135 L 561.2835039786878 245.96727632990016" stroke-opacity="1" stroke-linecap="round" stroke-linejoin="round" stroke-miterlimit="10" stroke-width="3.5"/><path fill="none" stroke="rgb(255,0,0)" paint-order="fill stroke markers" d=" M 227.45538451640803 134.6912365091402 L 227.45538451640803 171.78324978272687" stroke-opacity="1" stroke-linecap="round" stroke-linejoin="round" stroke-miterlimit="10" stroke-width="3.5"/><path fill="none" stroke="rgb(255,0,0)" paint-order="fill stroke markers" d=" M 227.45538451640803 134.6912365091402 L 227.45538451640803 171.78324978272687" stroke-opacity="0.6980392156862745" stroke-linecap="round" stroke-linejoin="round" stroke-miterlimit="10" stroke-width="2.5"/><path fill="none" stroke="rgb(255,0,0)" paint-order="fill stroke markers" d=" M 227.45538451640803 171.78324978272687 L 301.6394110635813 171.78324978272687" stroke-opacity="0.6980392156862745" stroke-linecap="round" stroke-linejoin="round" stroke-miterlimit="10" stroke-width="2.5"/><path fill="none" stroke="rgb(255,0,0)" paint-order="fill stroke markers" d=" M 301.6394110635813 171.78324978272687 L 301.6394110635813 208.8752630563135" stroke-opacity="0.6980392156862745" stroke-linecap="round" stroke-linejoin="round" stroke-miterlimit="10" stroke-width="2.5"/><path fill="none" stroke="rgb(255,0,0)" paint-order="fill stroke markers" d=" M 301.6394110635813 208.8752630563135 L 561.2835039786878 208.8752630563135" stroke-opacity="0.6980392156862745" stroke-linecap="round" stroke-linejoin="round" stroke-miterlimit="10" stroke-width="2.5"/><path fill="none" stroke="rgb(255,0,0)" paint-order="fill stroke markers" d=" M 561.2835039786878 208.8752630563135 L 561.2835039786878 245.96727632990016" stroke-opacity="0.6980392156862745" stroke-linecap="round" stroke-linejoin="round" stroke-miterlimit="10" stroke-width="2.5"/><path fill="none" stroke="rgb(255,0,0)" paint-order="fill stroke markers" d=" M 561.2835039786878 245.96727632990016 L 635.4675305258611 245.96727632990016" stroke-opacity="0.6980392156862745" stroke-linecap="round" stroke-linejoin="round" stroke-miterlimit="10" stroke-width="2.5"/><path fill="none" stroke="rgb(255,0,0)" paint-order="fill stroke markers" d=" M 635.4675305258611 245.96727632990016 L 635.4675305258611 134.6912365091402" stroke-opacity="0.6980392156862745" stroke-linecap="round" stroke-linejoin="round" stroke-miterlimit="10" stroke-width="2.5"/><path fill="none" stroke="rgb(255,0,0)" paint-order="fill stroke markers" d=" M 635.4675305258611 134.6912365091402 L 227.45538451640803 134.6912365091402" stroke-opacity="0.6980392156862745" stroke-linecap="round" stroke-linejoin="round" stroke-miterlimit="10" stroke-width="2.5"/><g transform="scale(27,27)"><g transform="translate(14.444444444444445,9.992591703703704) scale(2,2)"><g transform="translate(0,0)"><path fill="rgb(0,0,0)" stroke="none" paint-order="stroke fill markers" d=" M 0.46 -0.32 Q 0.46 -0.17400000000000002 0.423 -0.094 Q 0.364 0.018000000000000002 0.249 0.022 Q 0.158 0.022 0.10300000000000001 -0.05 Q 0.092 -0.063 0.084 -0.079 Q 0.039 -0.162 0.039 -0.32 Q 0.039 -0.467 0.076 -0.547 Q 0.126 -0.659 0.23800000000000002 -0.666 L 0.25 -0.666 Q 0.339 -0.666 0.395 -0.595 L 0.395 -0.594 Q 0.40900000000000003 -0.5760000000000001 0.42 -0.554 Q 0.46 -0.46900000000000003 0.46 -0.32 M 0.249 0 L 0.249 0 Q 0.312 0 0.34600000000000003 -0.061 Q 0.36 -0.088 0.366 -0.125 Q 0.377 -0.189 0.377 -0.332 Q 0.377 -0.47100000000000003 0.367 -0.527 Q 0.34900000000000003 -0.622 0.275 -0.641 Q 0.262 -0.644 0.249 -0.644 Q 0.179 -0.644 0.147 -0.5740000000000001 Q 0.136 -0.55 0.13 -0.516 Q 0.122 -0.462 0.122 -0.332 Q 0.122 -0.181 0.133 -0.121 Q 0.151 -0.025 0.221 -0.004 Q 0.23500000000000001 0 0.249 0 Z"/></g></g></g><text fill="rgb(0,0,0)" stroke="none" font-family="geogebra-serif, serif" font-size="24px" font-style="normal" font-weight="bold" text-decoration="normal" x="253" y="355" text-anchor="start" dominant-baseline="alphabetic" fill-opacity="1">Matrices </text><g transform="scale(27,27)"><g transform="translate(13.148148148148149,13.005484848148148)"><path fill="rgb(0,0,0)" stroke="none" paint-order="stroke fill markers" d=" M 0.645 -0.682 L 0.739 -0.067 Q 0.741 -0.054 0.7435 -0.051500000000000004 Q 0.746 -0.049 0.755 -0.048 Q 0.769 -0.047 0.794 -0.047 Q 0.81 -0.047 0.8165 -0.0465 Q 0.8230000000000001 -0.046 0.8285 -0.042 Q 0.834 -0.038 0.834 -0.029 Q 0.834 -0.016 0.8280000000000001 -0.009000000000000001 Q 0.8220000000000001 -0.002 0.8175 -0.001 Q 0.8130000000000001 0 0.806 0 Q 0.794 0 0.771 -0.001 Q 0.748 -0.002 0.736 -0.002 Q 0.724 -0.002 0.7010000000000001 -0.0025 Q 0.678 -0.003 0.667 -0.003 Q 0.65 -0.003 0.592 -0.0015 Q 0.534 0 0.518 0 Q 0.496 0 0.496 -0.018000000000000002 Q 0.496 -0.032 0.502 -0.0385 Q 0.508 -0.045 0.514 -0.046 Q 0.52 -0.047 0.533 -0.047 Q 0.5740000000000001 -0.047 0.598 -0.052000000000000005 L 0.5750000000000001 -0.198 L 0.305 -0.198 L 0.213 -0.058 Q 0.23500000000000001 -0.047 0.271 -0.047 Q 0.297 -0.047 0.297 -0.029 Q 0.297 0 0.27 0 Q 0.252 0 0.215 -0.0015 Q 0.178 -0.003 0.159 -0.003 Q 0.14300000000000002 -0.003 0.111 -0.0015 Q 0.079 0 0.064 0 Q 0.056 0 0.0505 -0.0055 Q 0.045 -0.011 0.045 -0.018000000000000002 Q 0.045 -0.031 0.051000000000000004 -0.038 Q 0.057 -0.045 0.062 -0.046 Q 0.067 -0.047 0.077 -0.047 Q 0.111 -0.047 0.132 -0.0535 Q 0.153 -0.06 0.1595 -0.0665 Q 0.166 -0.073 0.17400000000000002 -0.085 L 0.5670000000000001 -0.686 Q 0.577 -0.7020000000000001 0.5855 -0.7065 Q 0.594 -0.711 0.611 -0.711 Q 0.63 -0.711 0.636 -0.706 Q 0.642 -0.7010000000000001 0.645 -0.682 M 0.524 -0.533 L 0.336 -0.245 L 0.5680000000000001 -0.245 L 0.524 -0.533 Z"/></g><g transform="translate(14.01758814814815,13.005484848148148)"><path fill="rgb(0,0,0)" stroke="none" paint-order="stroke fill markers" d=" M 0.214 -0.021 Q 0.191 0 0.159 0 Q 0.123 0 0.10200000000000001 -0.023 Q 0.081 -0.046 0.081 -0.078 Q 0.081 -0.111 0.10250000000000001 -0.1335 Q 0.124 -0.156 0.158 -0.156 Q 0.199 -0.156 0.2245 -0.1205 Q 0.25 -0.085 0.25 -0.031 Q 0.25 0.031 0.222 0.08650000000000001 Q 0.194 0.14200000000000002 0.167 0.168 Q 0.14 0.194 0.13 0.194 Q 0.124 0.194 0.11750000000000001 0.187 Q 0.111 0.18 0.111 0.17500000000000002 Q 0.111 0.169 0.126 0.156 Q 0.166 0.122 0.189 0.075 Q 0.212 0.028 0.214 -0.021 Z"/></g><g transform="translate(14.503698314814816,13.005484848148148)"><path fill="rgb(0,0,0)" stroke="none" paint-order="stroke fill markers" d=" M 0.645 -0.682 L 0.739 -0.067 Q 0.741 -0.054 0.7435 -0.051500000000000004 Q 0.746 -0.049 0.755 -0.048 Q 0.769 -0.047 0.794 -0.047 Q 0.81 -0.047 0.8165 -0.0465 Q 0.8230000000000001 -0.046 0.8285 -0.042 Q 0.834 -0.038 0.834 -0.029 Q 0.834 -0.016 0.8280000000000001 -0.009000000000000001 Q 0.8220000000000001 -0.002 0.8175 -0.001 Q 0.8130000000000001 0 0.806 0 Q 0.794 0 0.771 -0.001 Q 0.748 -0.002 0.736 -0.002 Q 0.724 -0.002 0.7010000000000001 -0.0025 Q 0.678 -0.003 0.667 -0.003 Q 0.65 -0.003 0.592 -0.0015 Q 0.534 0 0.518 0 Q 0.496 0 0.496 -0.018000000000000002 Q 0.496 -0.032 0.502 -0.0385 Q 0.508 -0.045 0.514 -0.046 Q 0.52 -0.047 0.533 -0.047 Q 0.5740000000000001 -0.047 0.598 -0.052000000000000005 L 0.5750000000000001 -0.198 L 0.305 -0.198 L 0.213 -0.058 Q 0.23500000000000001 -0.047 0.271 -0.047 Q 0.297 -0.047 0.297 -0.029 Q 0.297 0 0.27 0 Q 0.252 0 0.215 -0.0015 Q 0.178 -0.003 0.159 -0.003 Q 0.14300000000000002 -0.003 0.111 -0.0015 Q 0.079 0 0.064 0 Q 0.056 0 0.0505 -0.0055 Q 0.045 -0.011 0.045 -0.018000000000000002 Q 0.045 -0.031 0.051000000000000004 -0.038 Q 0.057 -0.045 0.062 -0.046 Q 0.067 -0.047 0.077 -0.047 Q 0.111 -0.047 0.132 -0.0535 Q 0.153 -0.06 0.1595 -0.0665 Q 0.166 -0.073 0.17400000000000002 -0.085 L 0.5670000000000001 -0.686 Q 0.577 -0.7020000000000001 0.5855 -0.7065 Q 0.594 -0.711 0.611 -0.711 Q 0.63 -0.711 0.636 -0.706 Q 0.642 -0.7010000000000001 0.645 -0.682 M 0.524 -0.533 L 0.336 -0.245 L 0.5680000000000001 -0.245 L 0.524 -0.533 Z"/></g><g transform="translate(15.373138314814817,12.592592848148149) scale(0.7,0.7)"><path fill="rgb(0,0,0)" stroke="none" paint-order="stroke fill markers" d=" M 0.252 -0.397 L 0.179 -0.108 Q 0.17300000000000001 -0.082 0.17300000000000001 -0.065 Q 0.17300000000000001 -0.052000000000000005 0.17500000000000002 -0.044 Q 0.177 -0.036000000000000004 0.1815 -0.0325 Q 0.186 -0.029 0.189 -0.0285 Q 0.192 -0.028 0.197 -0.028 Q 0.23 -0.028 0.267 -0.057 Q 0.304 -0.08600000000000001 0.33 -0.146 Q 0.335 -0.157 0.3385 -0.1595 Q 0.342 -0.162 0.355 -0.162 Q 0.379 -0.162 0.379 -0.148 Q 0.379 -0.14 0.366 -0.116 Q 0.353 -0.092 0.3305 -0.0635 Q 0.308 -0.035 0.2705 -0.0135 Q 0.233 0.008 0.192 0.008 Q 0.14100000000000001 0.008 0.10350000000000001 -0.018000000000000002 Q 0.066 -0.044 0.066 -0.09 Q 0.066 -0.106 0.083 -0.169 L 0.14 -0.397 L 0.059000000000000004 -0.397 Q 0.047 -0.397 0.0415 -0.3975 Q 0.036000000000000004 -0.398 0.0305 -0.4025 Q 0.025 -0.40700000000000003 0.025 -0.41500000000000004 Q 0.025 -0.429 0.031 -0.4355 Q 0.037 -0.442 0.043000000000000003 -0.443 Q 0.049 -0.444 0.062 -0.444 L 0.152 -0.444 L 0.17200000000000001 -0.526 Q 0.19 -0.598 0.195 -0.608 Q 0.215 -0.643 0.253 -0.643 Q 0.271 -0.643 0.28550000000000003 -0.632 Q 0.3 -0.621 0.3 -0.599 Q 0.3 -0.589 0.296 -0.5730000000000001 L 0.264 -0.444 L 0.34400000000000003 -0.444 Q 0.377 -0.444 0.377 -0.426 Q 0.377 -0.40800000000000003 0.368 -0.402 Q 0.363 -0.397 0.341 -0.397 L 0.252 -0.397 Z"/></g><g transform="translate(15.682280848331482,13.005484848148148)"><path fill="rgb(0,0,0)" stroke="none" paint-order="stroke fill markers" d=" M 0.214 -0.021 Q 0.191 0 0.159 0 Q 0.123 0 0.10200000000000001 -0.023 Q 0.081 -0.046 0.081 -0.078 Q 0.081 -0.111 0.10250000000000001 -0.1335 Q 0.124 -0.156 0.158 -0.156 Q 0.199 -0.156 0.2245 -0.1205 Q 0.25 -0.085 0.25 -0.031 Q 0.25 0.031 0.222 0.08650000000000001 Q 0.194 0.14200000000000002 0.167 0.168 Q 0.14 0.194 0.13 0.194 Q 0.124 0.194 0.11750000000000001 0.187 Q 0.111 0.18 0.111 0.17500000000000002 Q 0.111 0.169 0.126 0.156 Q 0.166 0.122 0.189 0.075 Q 0.212 0.028 0.214 -0.021 Z"/></g><g transform="translate(16.16839101499815,13.005484848148148)"><path fill="rgb(0,0,0)" stroke="none" paint-order="stroke fill markers" d=" M 0.645 -0.682 L 0.739 -0.067 Q 0.741 -0.054 0.7435 -0.051500000000000004 Q 0.746 -0.049 0.755 -0.048 Q 0.769 -0.047 0.794 -0.047 Q 0.81 -0.047 0.8165 -0.0465 Q 0.8230000000000001 -0.046 0.8285 -0.042 Q 0.834 -0.038 0.834 -0.029 Q 0.834 -0.016 0.8280000000000001 -0.009000000000000001 Q 0.8220000000000001 -0.002 0.8175 -0.001 Q 0.8130000000000001 0 0.806 0 Q 0.794 0 0.771 -0.001 Q 0.748 -0.002 0.736 -0.002 Q 0.724 -0.002 0.7010000000000001 -0.0025 Q 0.678 -0.003 0.667 -0.003 Q 0.65 -0.003 0.592 -0.0015 Q 0.534 0 0.518 0 Q 0.496 0 0.496 -0.018000000000000002 Q 0.496 -0.032 0.502 -0.0385 Q 0.508 -0.045 0.514 -0.046 Q 0.52 -0.047 0.533 -0.047 Q 0.5740000000000001 -0.047 0.598 -0.052000000000000005 L 0.5750000000000001 -0.198 L 0.305 -0.198 L 0.213 -0.058 Q 0.23500000000000001 -0.047 0.271 -0.047 Q 0.297 -0.047 0.297 -0.029 Q 0.297 0 0.27 0 Q 0.252 0 0.215 -0.0015 Q 0.178 -0.003 0.159 -0.003 Q 0.14300000000000002 -0.003 0.111 -0.0015 Q 0.079 0 0.064 0 Q 0.056 0 0.0505 -0.0055 Q 0.045 -0.011 0.045 -0.018000000000000002 Q 0.045 -0.031 0.051000000000000004 -0.038 Q 0.057 -0.045 0.062 -0.046 Q 0.067 -0.047 0.077 -0.047 Q 0.111 -0.047 0.132 -0.0535 Q 0.153 -0.06 0.1595 -0.0665 Q 0.166 -0.073 0.17400000000000002 -0.085 L 0.5670000000000001 -0.686 Q 0.577 -0.7020000000000001 0.5855 -0.7065 Q 0.594 -0.711 0.611 -0.711 Q 0.63 -0.711 0.636 -0.706 Q 0.642 -0.7010000000000001 0.645 -0.682 M 0.524 -0.533 L 0.336 -0.245 L 0.5680000000000001 -0.245 L 0.524 -0.533 Z"/></g><g transform="translate(17.03783101499815,12.592592848148149) scale(0.7,0.7)"><path fill="rgb(0,0,0)" stroke="none" paint-order="stroke fill markers" d=" M 0.252 -0.397 L 0.179 -0.108 Q 0.17300000000000001 -0.082 0.17300000000000001 -0.065 Q 0.17300000000000001 -0.052000000000000005 0.17500000000000002 -0.044 Q 0.177 -0.036000000000000004 0.1815 -0.0325 Q 0.186 -0.029 0.189 -0.0285 Q 0.192 -0.028 0.197 -0.028 Q 0.23 -0.028 0.267 -0.057 Q 0.304 -0.08600000000000001 0.33 -0.146 Q 0.335 -0.157 0.3385 -0.1595 Q 0.342 -0.162 0.355 -0.162 Q 0.379 -0.162 0.379 -0.148 Q 0.379 -0.14 0.366 -0.116 Q 0.353 -0.092 0.3305 -0.0635 Q 0.308 -0.035 0.2705 -0.0135 Q 0.233 0.008 0.192 0.008 Q 0.14100000000000001 0.008 0.10350000000000001 -0.018000000000000002 Q 0.066 -0.044 0.066 -0.09 Q 0.066 -0.106 0.083 -0.169 L 0.14 -0.397 L 0.059000000000000004 -0.397 Q 0.047 -0.397 0.0415 -0.3975 Q 0.036000000000000004 -0.398 0.0305 -0.4025 Q 0.025 -0.40700000000000003 0.025 -0.41500000000000004 Q 0.025 -0.429 0.031 -0.4355 Q 0.037 -0.442 0.043000000000000003 -0.443 Q 0.049 -0.444 0.062 -0.444 L 0.152 -0.444 L 0.17200000000000001 -0.526 Q 0.19 -0.598 0.195 -0.608 Q 0.215 -0.643 0.253 -0.643 Q 0.271 -0.643 0.28550000000000003 -0.632 Q 0.3 -0.621 0.3 -0.599 Q 0.3 -0.589 0.296 -0.5730000000000001 L 0.264 -0.444 L 0.34400000000000003 -0.444 Q 0.377 -0.444 0.377 -0.426 Q 0.377 -0.40800000000000003 0.368 -0.402 Q 0.363 -0.397 0.341 -0.397 L 0.252 -0.397 Z"/></g><g transform="translate(17.346973548514818,13.005484848148148)"><path fill="rgb(0,0,0)" stroke="none" paint-order="stroke fill markers" d=" M 0.645 -0.682 L 0.739 -0.067 Q 0.741 -0.054 0.7435 -0.051500000000000004 Q 0.746 -0.049 0.755 -0.048 Q 0.769 -0.047 0.794 -0.047 Q 0.81 -0.047 0.8165 -0.0465 Q 0.8230000000000001 -0.046 0.8285 -0.042 Q 0.834 -0.038 0.834 -0.029 Q 0.834 -0.016 0.8280000000000001 -0.009000000000000001 Q 0.8220000000000001 -0.002 0.8175 -0.001 Q 0.8130000000000001 0 0.806 0 Q 0.794 0 0.771 -0.001 Q 0.748 -0.002 0.736 -0.002 Q 0.724 -0.002 0.7010000000000001 -0.0025 Q 0.678 -0.003 0.667 -0.003 Q 0.65 -0.003 0.592 -0.0015 Q 0.534 0 0.518 0 Q 0.496 0 0.496 -0.018000000000000002 Q 0.496 -0.032 0.502 -0.0385 Q 0.508 -0.045 0.514 -0.046 Q 0.52 -0.047 0.533 -0.047 Q 0.5740000000000001 -0.047 0.598 -0.052000000000000005 L 0.5750000000000001 -0.198 L 0.305 -0.198 L 0.213 -0.058 Q 0.23500000000000001 -0.047 0.271 -0.047 Q 0.297 -0.047 0.297 -0.029 Q 0.297 0 0.27 0 Q 0.252 0 0.215 -0.0015 Q 0.178 -0.003 0.159 -0.003 Q 0.14300000000000002 -0.003 0.111 -0.0015 Q 0.079 0 0.064 0 Q 0.056 0 0.0505 -0.0055 Q 0.045 -0.011 0.045 -0.018000000000000002 Q 0.045 -0.031 0.051000000000000004 -0.038 Q 0.057 -0.045 0.062 -0.046 Q 0.067 -0.047 0.077 -0.047 Q 0.111 -0.047 0.132 -0.0535 Q 0.153 -0.06 0.1595 -0.0665 Q 0.166 -0.073 0.17400000000000002 -0.085 L 0.5670000000000001 -0.686 Q 0.577 -0.7020000000000001 0.5855 -0.7065 Q 0.594 -0.711 0.611 -0.711 Q 0.63 -0.711 0.636 -0.706 Q 0.642 -0.7010000000000001 0.645 -0.682 M 0.524 -0.533 L 0.336 -0.245 L 0.5680000000000001 -0.245 L 0.524 -0.533 Z"/></g></g><text fill="rgb(0,0,0)" stroke="none" font-family="geogebra-serif, serif" font-size="24px" font-style="normal" font-weight="bold" text-decoration="normal" x="497" y="355" text-anchor="start" dominant-baseline="alphabetic" fill-opacity="1"> and </text><g transform="scale(27,27)"><g transform="translate(20.48148148148148,13.116595959259259)"><path fill="rgb(0,0,0)" stroke="none" paint-order="stroke fill markers" d=" M 0.645 -0.682 L 0.739 -0.067 Q 0.741 -0.054 0.7435 -0.051500000000000004 Q 0.746 -0.049 0.755 -0.048 Q 0.769 -0.047 0.794 -0.047 Q 0.81 -0.047 0.8165 -0.0465 Q 0.8230000000000001 -0.046 0.8285 -0.042 Q 0.834 -0.038 0.834 -0.029 Q 0.834 -0.016 0.8280000000000001 -0.009000000000000001 Q 0.8220000000000001 -0.002 0.8175 -0.001 Q 0.8130000000000001 0 0.806 0 Q 0.794 0 0.771 -0.001 Q 0.748 -0.002 0.736 -0.002 Q 0.724 -0.002 0.7010000000000001 -0.0025 Q 0.678 -0.003 0.667 -0.003 Q 0.65 -0.003 0.592 -0.0015 Q 0.534 0 0.518 0 Q 0.496 0 0.496 -0.018000000000000002 Q 0.496 -0.032 0.502 -0.0385 Q 0.508 -0.045 0.514 -0.046 Q 0.52 -0.047 0.533 -0.047 Q 0.5740000000000001 -0.047 0.598 -0.052000000000000005 L 0.5750000000000001 -0.198 L 0.305 -0.198 L 0.213 -0.058 Q 0.23500000000000001 -0.047 0.271 -0.047 Q 0.297 -0.047 0.297 -0.029 Q 0.297 0 0.27 0 Q 0.252 0 0.215 -0.0015 Q 0.178 -0.003 0.159 -0.003 Q 0.14300000000000002 -0.003 0.111 -0.0015 Q 0.079 0 0.064 0 Q 0.056 0 0.0505 -0.0055 Q 0.045 -0.011 0.045 -0.018000000000000002 Q 0.045 -0.031 0.051000000000000004 -0.038 Q 0.057 -0.045 0.062 -0.046 Q 0.067 -0.047 0.077 -0.047 Q 0.111 -0.047 0.132 -0.0535 Q 0.153 -0.06 0.1595 -0.0665 Q 0.166 -0.073 0.17400000000000002 -0.085 L 0.5670000000000001 -0.686 Q 0.577 -0.7020000000000001 0.5855 -0.7065 Q 0.594 -0.711 0.611 -0.711 Q 0.63 -0.711 0.636 -0.706 Q 0.642 -0.7010000000000001 0.645 -0.682 M 0.524 -0.533 L 0.336 -0.245 L 0.5680000000000001 -0.245 L 0.524 -0.533 Z"/></g><g transform="translate(21.350921481481482,13.116595959259259)"><path fill="rgb(0,0,0)" stroke="none" paint-order="stroke fill markers" d=" M 0.645 -0.682 L 0.739 -0.067 Q 0.741 -0.054 0.7435 -0.051500000000000004 Q 0.746 -0.049 0.755 -0.048 Q 0.769 -0.047 0.794 -0.047 Q 0.81 -0.047 0.8165 -0.0465 Q 0.8230000000000001 -0.046 0.8285 -0.042 Q 0.834 -0.038 0.834 -0.029 Q 0.834 -0.016 0.8280000000000001 -0.009000000000000001 Q 0.8220000000000001 -0.002 0.8175 -0.001 Q 0.8130000000000001 0 0.806 0 Q 0.794 0 0.771 -0.001 Q 0.748 -0.002 0.736 -0.002 Q 0.724 -0.002 0.7010000000000001 -0.0025 Q 0.678 -0.003 0.667 -0.003 Q 0.65 -0.003 0.592 -0.0015 Q 0.534 0 0.518 0 Q 0.496 0 0.496 -0.018000000000000002 Q 0.496 -0.032 0.502 -0.0385 Q 0.508 -0.045 0.514 -0.046 Q 0.52 -0.047 0.533 -0.047 Q 0.5740000000000001 -0.047 0.598 -0.052000000000000005 L 0.5750000000000001 -0.198 L 0.305 -0.198 L 0.213 -0.058 Q 0.23500000000000001 -0.047 0.271 -0.047 Q 0.297 -0.047 0.297 -0.029 Q 0.297 0 0.27 0 Q 0.252 0 0.215 -0.0015 Q 0.178 -0.003 0.159 -0.003 Q 0.14300000000000002 -0.003 0.111 -0.0015 Q 0.079 0 0.064 0 Q 0.056 0 0.0505 -0.0055 Q 0.045 -0.011 0.045 -0.018000000000000002 Q 0.045 -0.031 0.051000000000000004 -0.038 Q 0.057 -0.045 0.062 -0.046 Q 0.067 -0.047 0.077 -0.047 Q 0.111 -0.047 0.132 -0.0535 Q 0.153 -0.06 0.1595 -0.0665 Q 0.166 -0.073 0.17400000000000002 -0.085 L 0.5670000000000001 -0.686 Q 0.577 -0.7020000000000001 0.5855 -0.7065 Q 0.594 -0.711 0.611 -0.711 Q 0.63 -0.711 0.636 -0.706 Q 0.642 -0.7010000000000001 0.645 -0.682 M 0.524 -0.533 L 0.336 -0.245 L 0.5680000000000001 -0.245 L 0.524 -0.533 Z"/></g><g transform="translate(22.220361481481483,12.70370395925926) scale(0.7,0.7)"><path fill="rgb(0,0,0)" stroke="none" paint-order="stroke fill markers" d=" M 0.252 -0.397 L 0.179 -0.108 Q 0.17300000000000001 -0.082 0.17300000000000001 -0.065 Q 0.17300000000000001 -0.052000000000000005 0.17500000000000002 -0.044 Q 0.177 -0.036000000000000004 0.1815 -0.0325 Q 0.186 -0.029 0.189 -0.0285 Q 0.192 -0.028 0.197 -0.028 Q 0.23 -0.028 0.267 -0.057 Q 0.304 -0.08600000000000001 0.33 -0.146 Q 0.335 -0.157 0.3385 -0.1595 Q 0.342 -0.162 0.355 -0.162 Q 0.379 -0.162 0.379 -0.148 Q 0.379 -0.14 0.366 -0.116 Q 0.353 -0.092 0.3305 -0.0635 Q 0.308 -0.035 0.2705 -0.0135 Q 0.233 0.008 0.192 0.008 Q 0.14100000000000001 0.008 0.10350000000000001 -0.018000000000000002 Q 0.066 -0.044 0.066 -0.09 Q 0.066 -0.106 0.083 -0.169 L 0.14 -0.397 L 0.059000000000000004 -0.397 Q 0.047 -0.397 0.0415 -0.3975 Q 0.036000000000000004 -0.398 0.0305 -0.4025 Q 0.025 -0.40700000000000003 0.025 -0.41500000000000004 Q 0.025 -0.429 0.031 -0.4355 Q 0.037 -0.442 0.043000000000000003 -0.443 Q 0.049 -0.444 0.062 -0.444 L 0.152 -0.444 L 0.17200000000000001 -0.526 Q 0.19 -0.598 0.195 -0.608 Q 0.215 -0.643 0.253 -0.643 Q 0.271 -0.643 0.28550000000000003 -0.632 Q 0.3 -0.621 0.3 -0.599 Q 0.3 -0.589 0.296 -0.5730000000000001 L 0.264 -0.444 L 0.34400000000000003 -0.444 Q 0.377 -0.444 0.377 -0.426 Q 0.377 -0.40800000000000003 0.368 -0.402 Q 0.363 -0.397 0.341 -0.397 L 0.252 -0.397 Z"/></g></g><g transform="scale(27,27)"/><text fill="rgb(0,0,0)" stroke="none" font-family="geogebra-serif, serif" font-size="24px" font-style="normal" font-weight="bold" text-decoration="normal" x="317" y="393" text-anchor="start" dominant-baseline="alphabetic" fill-opacity="1"> have the same rank</text></g></g></svg>