<svg version="1.1" xmlns="http://www.w3.org/2000/svg" xmlns:xlink="http://www.w3.org/1999/xlink" width="939" height="535"><defs><clipPath id="atpvpdQeTMky"><path fill="none" stroke="none" d=" M 0 0 L 939 0 L 939 535 L 0 535 L 0 0 Z"/></clipPath></defs><g transform="scale(1,1)" clip-path="url(#atpvpdQeTMky)"><g><rect fill="rgb(255,255,255)" stroke="none" x="0" y="0" width="939" height="535" fill-opacity="1"/><path fill="rgb(255,0,0)" stroke="none" paint-order="stroke fill markers" fill-rule="evenodd" d=" M 227.45538451640803 134.6912365091402 L 227.45538451640803 171.78324978272687 L 301.6394110635813 171.78324978272687 L 301.6394110635813 208.8752630563135 L 561.2835039786878 208.8752630563135 L 561.2835039786878 245.96727632990016 L 635.4675305258611 245.96727632990016 L 635.4675305258611 134.6912365091402 Z" fill-opacity="0.0196078431372549"/><path fill="none" stroke="rgb(153,51,0)" paint-order="fill stroke markers" d=" M 227.45538451640803 134.6912365091402 L 227.45538451640803 283.05928960348683" stroke-opacity="0.6980392156862745" stroke-linecap="round" stroke-linejoin="round" stroke-miterlimit="10" stroke-width="2.5"/><g transform="scale(27,27)"><g transform="translate(5.814814814814815,8.329626962962962) scale(2,2)"><g transform="translate(0,0)"><path fill="rgb(153,51,0)" stroke="none" paint-order="stroke fill markers" d=" M 0.926 -0.606 L 0.793 -0.073 Q 0.788 -0.055 0.788 -0.049 Q 0.788 -0.032 0.835 -0.031 L 0.836 -0.031 L 0.853 -0.031 Q 0.879 -0.031 0.881 -0.02 Q 0.881 0 0.862 0 L 0.738 -0.003 L 0.737 -0.003 L 0.614 0 L 0.613 0 Q 0.598 0 0.598 -0.012 Q 0.598 -0.029 0.614 -0.031 L 0.626 -0.031 Q 0.6910000000000001 -0.031 0.704 -0.045 Q 0.71 -0.052000000000000005 0.716 -0.073 Q 0.716 -0.074 0.717 -0.078 L 0.86 -0.651 L 0.859 -0.651 L 0.455 -0.018000000000000002 Q 0.443 -0.001 0.433 0 Q 0.422 0 0.418 -0.023 L 0.332 -0.643 L 0.331 -0.643 L 0.195 -0.098 Q 0.191 -0.083 0.191 -0.075 Q 0.191 -0.038 0.23900000000000002 -0.032 Q 0.248 -0.031 0.259 -0.031 Q 0.277 -0.031 0.277 -0.02 Q 0.277 0 0.259 0 L 0.159 -0.003 L 0.156 -0.003 L 0.057 0 L 0.056 0 Q 0.042 0 0.042 -0.012 Q 0.042 -0.031 0.06 -0.031 Q 0.139 -0.034 0.16 -0.081 Q 0.164 -0.091 0.168 -0.106 L 0.295 -0.615 Q 0.299 -0.631 0.299 -0.634 Q 0.299 -0.646 0.28300000000000003 -0.649 L 0.28200000000000003 -0.649 L 0.28200000000000003 -0.649 Q 0.28 -0.65 0.277 -0.65 Q 0.253 -0.652 0.234 -0.652 Q 0.20800000000000002 -0.652 0.20600000000000002 -0.66 Q 0.20500000000000002 -0.662 0.20500000000000002 -0.664 Q 0.20500000000000002 -0.681 0.222 -0.683 L 0.222 -0.683 L 0.23500000000000001 -0.683 L 0.372 -0.683 Q 0.395 -0.683 0.399 -0.678 L 0.399 -0.677 Q 0.401 -0.673 0.403 -0.66 L 0.481 -0.094 L 0.846 -0.664 Q 0.857 -0.681 0.866 -0.682 Q 0.87 -0.683 0.885 -0.683 L 1.0170000000000001 -0.683 Q 1.042 -0.683 1.044 -0.672 Q 1.044 -0.655 1.03 -0.653 Q 1.025 -0.652 1.012 -0.652 Q 0.9490000000000001 -0.652 0.937 -0.636 L 0.936 -0.635 L 0.936 -0.634 Q 0.931 -0.627 0.926 -0.606 Z"/></g></g></g><path fill="none" stroke="rgb(153,51,0)" paint-order="fill stroke markers" d=" M 227.45538451640803 283.05928960348683 L 635.4675305258611 283.05928960348683" stroke-opacity="0.6980392156862745" stroke-linecap="round" stroke-linejoin="round" stroke-miterlimit="10" stroke-width="2.5"/><path fill="none" stroke="rgb(153,51,0)" paint-order="fill stroke markers" d=" M 635.4675305258611 283.05928960348683 L 635.4675305258611 134.6912365091402" stroke-opacity="0.6980392156862745" stroke-linecap="round" stroke-linejoin="round" stroke-miterlimit="10" stroke-width="2.5"/><path fill="none" stroke="rgb(153,51,0)" paint-order="fill stroke markers" d=" M 635.4675305258611 134.6912365091402 L 227.45538451640803 134.6912365091402" stroke-opacity="0.6980392156862745" stroke-linecap="round" stroke-linejoin="round" stroke-miterlimit="10" stroke-width="2.5"/><g transform="scale(27,27)"><g transform="translate(14.555555555555555,4.366664) scale(2,2)"><g transform="translate(0,0)"><path fill="rgb(153,51,0)" stroke="none" paint-order="stroke fill markers" d=" M 0.756 -0.578 L 0.616 -0.021 Q 0.611 -0.002 0.606 -0.001 L 0.605 0 L 0.6 0 Q 0.59 0 0.584 -0.012 Q 0.583 -0.015 0.581 -0.019 L 0.332 -0.608 L 0.323 -0.626 L 0.191 -0.098 Q 0.187 -0.083 0.187 -0.075 Q 0.187 -0.041 0.23 -0.033 Q 0.24 -0.031 0.253 -0.031 Q 0.273 -0.031 0.273 -0.02 Q 0.273 0 0.255 0 L 0.155 -0.003 L 0.152 -0.003 L 0.053 0 L 0.052000000000000005 0 Q 0.039 0 0.039 -0.011 Q 0.039 -0.031 0.056 -0.031 Q 0.135 -0.034 0.156 -0.081 Q 0.16 -0.091 0.164 -0.106 L 0.298 -0.643 Q 0.298 -0.652 0.23 -0.652 Q 0.20400000000000001 -0.652 0.202 -0.663 Q 0.202 -0.681 0.217 -0.683 L 0.231 -0.683 L 0.365 -0.683 Q 0.386 -0.683 0.391 -0.676 Q 0.393 -0.673 0.397 -0.664 L 0.618 -0.14200000000000002 L 0.73 -0.587 Q 0.733 -0.596 0.733 -0.608 Q 0.733 -0.651 0.665 -0.652 Q 0.647 -0.652 0.647 -0.663 Q 0.647 -0.683 0.665 -0.683 L 0.766 -0.68 L 0.767 -0.68 L 0.867 -0.683 L 0.868 -0.683 Q 0.881 -0.683 0.881 -0.672 Q 0.881 -0.652 0.864 -0.652 Q 0.786 -0.649 0.764 -0.603 L 0.764 -0.603 Q 0.76 -0.593 0.756 -0.578 Z"/></g></g></g><path fill="none" stroke="rgb(255,0,0)" paint-order="fill stroke markers" d=" M 227.45538451640803 171.78324978272687 L 301.6394110635813 171.78324978272687" stroke-opacity="1" stroke-linecap="round" stroke-linejoin="round" stroke-miterlimit="10" stroke-width="3.5"/><path fill="none" stroke="rgb(255,0,0)" paint-order="fill stroke markers" d=" M 301.6394110635813 208.8752630563135 L 561.2835039786878 208.8752630563135" stroke-opacity="1" stroke-linecap="round" stroke-linejoin="round" stroke-miterlimit="10" stroke-width="3.5"/><path fill="none" stroke="rgb(255,0,0)" paint-order="fill stroke markers" d=" M 561.2835039786878 245.96727632990016 L 635.4675305258611 245.96727632990016" stroke-opacity="1" stroke-linecap="round" stroke-linejoin="round" stroke-miterlimit="10" stroke-width="3.5"/><path fill="none" stroke="rgb(255,0,0)" paint-order="fill stroke markers" d=" M 301.6394110635813 171.78324978272687 L 301.6394110635813 208.8752630563135" stroke-opacity="1" stroke-linecap="round" stroke-linejoin="round" stroke-miterlimit="10" stroke-width="3.5"/><path fill="none" stroke="rgb(255,0,0)" paint-order="fill stroke markers" d=" M 561.2835039786878 208.8752630563135 L 561.2835039786878 245.96727632990016" stroke-opacity="1" stroke-linecap="round" stroke-linejoin="round" stroke-miterlimit="10" stroke-width="3.5"/><path fill="none" stroke="rgb(255,0,0)" paint-order="fill stroke markers" d=" M 227.45538451640803 134.6912365091402 L 227.45538451640803 171.78324978272687" stroke-opacity="1" stroke-linecap="round" stroke-linejoin="round" stroke-miterlimit="10" stroke-width="3.5"/><path fill="none" stroke="rgb(255,0,0)" paint-order="fill stroke markers" d=" M 227.45538451640803 134.6912365091402 L 227.45538451640803 171.78324978272687" stroke-opacity="0.6980392156862745" stroke-linecap="round" stroke-linejoin="round" stroke-miterlimit="10" stroke-width="2.5"/><path fill="none" stroke="rgb(255,0,0)" paint-order="fill stroke markers" d=" M 227.45538451640803 171.78324978272687 L 301.6394110635813 171.78324978272687" stroke-opacity="0.6980392156862745" stroke-linecap="round" stroke-linejoin="round" stroke-miterlimit="10" stroke-width="2.5"/><path fill="none" stroke="rgb(255,0,0)" paint-order="fill stroke markers" d=" M 301.6394110635813 171.78324978272687 L 301.6394110635813 208.8752630563135" stroke-opacity="0.6980392156862745" stroke-linecap="round" stroke-linejoin="round" stroke-miterlimit="10" stroke-width="2.5"/><path fill="none" stroke="rgb(255,0,0)" paint-order="fill stroke markers" d=" M 301.6394110635813 208.8752630563135 L 561.2835039786878 208.8752630563135" stroke-opacity="0.6980392156862745" stroke-linecap="round" stroke-linejoin="round" stroke-miterlimit="10" stroke-width="2.5"/><path fill="none" stroke="rgb(255,0,0)" paint-order="fill stroke markers" d=" M 561.2835039786878 208.8752630563135 L 561.2835039786878 245.96727632990016" stroke-opacity="0.6980392156862745" stroke-linecap="round" stroke-linejoin="round" stroke-miterlimit="10" stroke-width="2.5"/><path fill="none" stroke="rgb(255,0,0)" paint-order="fill stroke markers" d=" M 561.2835039786878 245.96727632990016 L 635.4675305258611 245.96727632990016" stroke-opacity="0.6980392156862745" stroke-linecap="round" stroke-linejoin="round" stroke-miterlimit="10" stroke-width="2.5"/><path fill="none" stroke="rgb(255,0,0)" paint-order="fill stroke markers" d=" M 635.4675305258611 245.96727632990016 L 635.4675305258611 134.6912365091402" stroke-opacity="0.6980392156862745" stroke-linecap="round" stroke-linejoin="round" stroke-miterlimit="10" stroke-width="2.5"/><path fill="none" stroke="rgb(255,0,0)" paint-order="fill stroke markers" d=" M 635.4675305258611 134.6912365091402 L 227.45538451640803 134.6912365091402" stroke-opacity="0.6980392156862745" stroke-linecap="round" stroke-linejoin="round" stroke-miterlimit="10" stroke-width="2.5"/><g transform="scale(27,27)"><g transform="translate(14.444444444444445,9.992591703703704) scale(2,2)"><g transform="translate(0,0)"><path fill="rgb(0,0,0)" stroke="none" paint-order="stroke fill markers" d=" M 0.46 -0.32 Q 0.46 -0.17400000000000002 0.423 -0.094 Q 0.364 0.018000000000000002 0.249 0.022 Q 0.158 0.022 0.10300000000000001 -0.05 Q 0.092 -0.063 0.084 -0.079 Q 0.039 -0.162 0.039 -0.32 Q 0.039 -0.467 0.076 -0.547 Q 0.126 -0.659 0.23800000000000002 -0.666 L 0.25 -0.666 Q 0.339 -0.666 0.395 -0.595 L 0.395 -0.594 Q 0.40900000000000003 -0.5760000000000001 0.42 -0.554 Q 0.46 -0.46900000000000003 0.46 -0.32 M 0.249 0 L 0.249 0 Q 0.312 0 0.34600000000000003 -0.061 Q 0.36 -0.088 0.366 -0.125 Q 0.377 -0.189 0.377 -0.332 Q 0.377 -0.47100000000000003 0.367 -0.527 Q 0.34900000000000003 -0.622 0.275 -0.641 Q 0.262 -0.644 0.249 -0.644 Q 0.179 -0.644 0.147 -0.5740000000000001 Q 0.136 -0.55 0.13 -0.516 Q 0.122 -0.462 0.122 -0.332 Q 0.122 -0.181 0.133 -0.121 Q 0.151 -0.025 0.221 -0.004 Q 0.23500000000000001 0 0.249 0 Z"/></g></g></g><g transform="scale(27,27)"><g transform="translate(8.444444444444445,12.894373737037036)"><path fill="rgb(0,0,0)" stroke="none" paint-order="stroke fill markers" d=" M 1.1 -0.635 L 0.9540000000000001 -0.049 Q 0.996 -0.047 1.0150000000000001 -0.047 Q 1.032 -0.047 1.039 -0.0465 Q 1.046 -0.046 1.051 -0.042 Q 1.056 -0.038 1.056 -0.029 Q 1.056 -0.014 1.049 -0.007 Q 1.044 0 1.028 0 Q 1.0170000000000001 0 0.993 -0.001 Q 0.969 -0.002 0.9570000000000001 -0.002 Q 0.9440000000000001 -0.002 0.9185 -0.0025 Q 0.893 -0.003 0.88 -0.003 Q 0.869 -0.003 0.8455 -0.0025 Q 0.8220000000000001 -0.002 0.81 -0.002 Q 0.798 -0.002 0.7735 -0.001 Q 0.749 0 0.737 0 Q 0.715 0 0.715 -0.018000000000000002 Q 0.715 -0.038 0.727 -0.045 Q 0.731 -0.047 0.759 -0.047 Q 0.795 -0.047 0.812 -0.048 Q 0.8250000000000001 -0.049 0.8285 -0.052000000000000005 Q 0.8320000000000001 -0.055 0.835 -0.067 L 0.977 -0.637 L 0.976 -0.638 L 0.544 -0.023 Q 0.527 0 0.508 0 Q 0.498 0 0.492 -0.005 Q 0.486 -0.01 0.4845 -0.015 Q 0.483 -0.02 0.481 -0.03 L 0.36 -0.624 L 0.359 -0.624 L 0.218 -0.057 Q 0.242 -0.047 0.28800000000000003 -0.047 Q 0.318 -0.047 0.318 -0.029 Q 0.318 0 0.291 0 Q 0.278 0 0.234 -0.0015 Q 0.19 -0.003 0.177 -0.003 Q 0.158 -0.003 0.121 -0.0015 Q 0.084 0 0.066 0 Q 0.056 0 0.051000000000000004 -0.006 Q 0.046 -0.012 0.046 -0.018000000000000002 Q 0.046 -0.032 0.052000000000000005 -0.0385 Q 0.058 -0.045 0.064 -0.046 Q 0.07 -0.047 0.082 -0.047 Q 0.115 -0.047 0.139 -0.053 Q 0.157 -0.057 0.161 -0.0605 Q 0.165 -0.064 0.169 -0.079 L 0.309 -0.637 Q 0.267 -0.639 0.248 -0.639 Q 0.23 -0.639 0.223 -0.6395000000000001 Q 0.216 -0.64 0.211 -0.644 Q 0.20600000000000002 -0.648 0.20600000000000002 -0.657 Q 0.20600000000000002 -0.671 0.212 -0.6775 Q 0.218 -0.684 0.224 -0.685 Q 0.23 -0.686 0.243 -0.686 L 0.431 -0.686 Q 0.452 -0.686 0.4595 -0.682 Q 0.467 -0.678 0.47100000000000003 -0.658 L 0.578 -0.129 L 0.9530000000000001 -0.661 Q 0.964 -0.678 0.9725 -0.682 Q 0.981 -0.686 1.004 -0.686 L 1.182 -0.686 Q 1.194 -0.686 1.1995 -0.6855 Q 1.205 -0.685 1.2105000000000001 -0.6805 Q 1.216 -0.676 1.216 -0.668 Q 1.216 -0.648 1.207 -0.6435 Q 1.198 -0.639 1.168 -0.639 Q 1.122 -0.639 1.1 -0.635 Z"/></g><g transform="translate(9.700690444444444,12.894373737037036)"><path fill="rgb(0,0,0)" stroke="none" paint-order="stroke fill markers" d=" M 0.515 -0.317 L 0.492 -0.228 Q 0.487 -0.20600000000000002 0.47000000000000003 -0.138 Q 0.456 -0.082 0.456 -0.065 Q 0.456 -0.028 0.47900000000000004 -0.028 Q 0.522 -0.028 0.547 -0.128 Q 0.554 -0.156 0.555 -0.157 Q 0.56 -0.162 0.5750000000000001 -0.162 Q 0.599 -0.162 0.599 -0.148 Q 0.599 -0.14 0.588 -0.1075 Q 0.577 -0.075 0.561 -0.049 Q 0.528 0.008 0.47400000000000003 0.008 Q 0.397 0.008 0.359 -0.046 Q 0.301 0.008 0.22 0.008 Q 0.148 0.008 0.0965 -0.032 Q 0.045 -0.07200000000000001 0.045 -0.157 Q 0.045 -0.268 0.1245 -0.36 Q 0.20400000000000001 -0.452 0.327 -0.452 Q 0.394 -0.452 0.433 -0.41000000000000003 Q 0.453 -0.435 0.484 -0.435 Q 0.502 -0.435 0.5165 -0.424 Q 0.531 -0.41300000000000003 0.531 -0.391 Q 0.531 -0.384 0.515 -0.317 M 0.34900000000000003 -0.093 L 0.41000000000000003 -0.34400000000000003 L 0.41200000000000003 -0.358 Q 0.41200000000000003 -0.372 0.3895 -0.394 Q 0.367 -0.41600000000000004 0.329 -0.41600000000000004 Q 0.25 -0.41600000000000004 0.20800000000000002 -0.318 Q 0.194 -0.28400000000000003 0.176 -0.212 Q 0.158 -0.14 0.158 -0.10400000000000001 Q 0.158 -0.028 0.225 -0.028 Q 0.259 -0.028 0.292 -0.0465 Q 0.325 -0.065 0.34900000000000003 -0.093 Z"/></g><g transform="translate(10.333558444444444,12.894373737037036)"><path fill="rgb(0,0,0)" stroke="none" paint-order="stroke fill markers" d=" M 0.252 -0.397 L 0.179 -0.108 Q 0.17300000000000001 -0.082 0.17300000000000001 -0.065 Q 0.17300000000000001 -0.052000000000000005 0.17500000000000002 -0.044 Q 0.177 -0.036000000000000004 0.1815 -0.0325 Q 0.186 -0.029 0.189 -0.0285 Q 0.192 -0.028 0.197 -0.028 Q 0.23 -0.028 0.267 -0.057 Q 0.304 -0.08600000000000001 0.33 -0.146 Q 0.335 -0.157 0.3385 -0.1595 Q 0.342 -0.162 0.355 -0.162 Q 0.379 -0.162 0.379 -0.148 Q 0.379 -0.14 0.366 -0.116 Q 0.353 -0.092 0.3305 -0.0635 Q 0.308 -0.035 0.2705 -0.0135 Q 0.233 0.008 0.192 0.008 Q 0.14100000000000001 0.008 0.10350000000000001 -0.018000000000000002 Q 0.066 -0.044 0.066 -0.09 Q 0.066 -0.106 0.083 -0.169 L 0.14 -0.397 L 0.059000000000000004 -0.397 Q 0.047 -0.397 0.0415 -0.3975 Q 0.036000000000000004 -0.398 0.0305 -0.4025 Q 0.025 -0.40700000000000003 0.025 -0.41500000000000004 Q 0.025 -0.429 0.031 -0.4355 Q 0.037 -0.442 0.043000000000000003 -0.443 Q 0.049 -0.444 0.062 -0.444 L 0.152 -0.444 L 0.17200000000000001 -0.526 Q 0.19 -0.598 0.195 -0.608 Q 0.215 -0.643 0.253 -0.643 Q 0.271 -0.643 0.28550000000000003 -0.632 Q 0.3 -0.621 0.3 -0.599 Q 0.3 -0.589 0.296 -0.5730000000000001 L 0.264 -0.444 L 0.34400000000000003 -0.444 Q 0.377 -0.444 0.377 -0.426 Q 0.377 -0.40800000000000003 0.368 -0.402 Q 0.363 -0.397 0.341 -0.397 L 0.252 -0.397 Z"/></g><g transform="translate(10.748834444444444,12.894373737037036)"><path fill="rgb(0,0,0)" stroke="none" paint-order="stroke fill markers" d=" M 0.444 -0.402 Q 0.43 -0.41600000000000004 0.405 -0.41600000000000004 Q 0.341 -0.41600000000000004 0.295 -0.358 Q 0.28300000000000003 -0.34400000000000003 0.278 -0.326 Q 0.277 -0.322 0.243 -0.185 Q 0.209 -0.048 0.20800000000000002 -0.045 Q 0.201 -0.017 0.181 -0.0045000000000000005 Q 0.161 0.008 0.14200000000000002 0.008 Q 0.12 0.008 0.1075 -0.0055 Q 0.095 -0.019 0.095 -0.036000000000000004 L 0.113 -0.114 Q 0.124 -0.155 0.133 -0.196 Q 0.136 -0.20800000000000002 0.147 -0.2515 Q 0.158 -0.295 0.161 -0.304 Q 0.17500000000000002 -0.364 0.17500000000000002 -0.38 Q 0.17500000000000002 -0.41600000000000004 0.152 -0.41600000000000004 Q 0.109 -0.41600000000000004 0.084 -0.316 Q 0.077 -0.28800000000000003 0.076 -0.28700000000000003 Q 0.07100000000000001 -0.28200000000000003 0.056 -0.28200000000000003 Q 0.032 -0.28200000000000003 0.032 -0.296 Q 0.032 -0.304 0.043000000000000003 -0.337 Q 0.054 -0.37 0.07 -0.395 Q 0.105 -0.452 0.157 -0.452 Q 0.19 -0.452 0.224 -0.4375 Q 0.258 -0.423 0.274 -0.392 Q 0.33 -0.452 0.40700000000000003 -0.452 Q 0.452 -0.452 0.47850000000000004 -0.4265 Q 0.505 -0.401 0.505 -0.365 Q 0.505 -0.329 0.483 -0.3075 Q 0.461 -0.28600000000000003 0.433 -0.28600000000000003 Q 0.41000000000000003 -0.28600000000000003 0.3965 -0.3 Q 0.383 -0.314 0.383 -0.332 Q 0.383 -0.341 0.386 -0.3525 Q 0.389 -0.364 0.404 -0.3805 Q 0.419 -0.397 0.444 -0.402 Z"/></g><g transform="translate(11.309482444444445,12.894373737037036)"><path fill="rgb(0,0,0)" stroke="none" paint-order="stroke fill markers" d=" M 0.334 -0.646 Q 0.334 -0.62 0.312 -0.5985 Q 0.29 -0.577 0.263 -0.577 Q 0.242 -0.577 0.228 -0.5905 Q 0.214 -0.604 0.214 -0.625 Q 0.214 -0.651 0.23550000000000001 -0.6725 Q 0.257 -0.6940000000000001 0.28500000000000003 -0.6940000000000001 Q 0.306 -0.6940000000000001 0.32 -0.68 Q 0.334 -0.666 0.334 -0.646 M 0.359 -0.148 Q 0.359 -0.132 0.343 -0.0975 Q 0.327 -0.063 0.289 -0.0275 Q 0.251 0.008 0.20400000000000001 0.008 Q 0.157 0.008 0.1235 -0.0175 Q 0.09 -0.043000000000000003 0.09 -0.082 Q 0.09 -0.095 0.098 -0.116 L 0.165 -0.289 Q 0.198 -0.372 0.198 -0.394 Q 0.198 -0.41600000000000004 0.182 -0.41600000000000004 Q 0.168 -0.41600000000000004 0.1525 -0.40850000000000003 Q 0.137 -0.401 0.115 -0.372 Q 0.093 -0.343 0.079 -0.295 Q 0.075 -0.28200000000000003 0.056 -0.28200000000000003 Q 0.032 -0.28200000000000003 0.032 -0.296 Q 0.032 -0.312 0.048 -0.34650000000000003 Q 0.064 -0.381 0.10200000000000001 -0.4165 Q 0.14 -0.452 0.187 -0.452 Q 0.234 -0.452 0.2675 -0.4265 Q 0.301 -0.401 0.301 -0.362 Q 0.301 -0.34900000000000003 0.293 -0.328 L 0.226 -0.155 Q 0.193 -0.07200000000000001 0.193 -0.05 Q 0.193 -0.028 0.209 -0.028 Q 0.223 -0.028 0.23850000000000002 -0.035500000000000004 Q 0.254 -0.043000000000000003 0.276 -0.07200000000000001 Q 0.298 -0.101 0.312 -0.149 Q 0.316 -0.162 0.335 -0.162 Q 0.359 -0.162 0.359 -0.148 Z"/></g><g transform="translate(11.714278444444444,12.894373737037036)"><path fill="rgb(0,0,0)" stroke="none" paint-order="stroke fill markers" d=" M 0.431 -0.396 Q 0.404 -0.41600000000000004 0.36 -0.41600000000000004 Q 0.268 -0.41600000000000004 0.217 -0.33 Q 0.196 -0.294 0.1785 -0.223 Q 0.161 -0.152 0.161 -0.121 Q 0.161 -0.028 0.26 -0.028 Q 0.396 -0.028 0.47100000000000003 -0.107 Q 0.481 -0.11800000000000001 0.486 -0.11800000000000001 Q 0.493 -0.11800000000000001 0.502 -0.108 Q 0.511 -0.098 0.511 -0.092 Q 0.511 -0.081 0.482 -0.0565 Q 0.453 -0.032 0.41300000000000003 -0.016 Q 0.35000000000000003 0.008 0.258 0.008 Q 0.149 0.008 0.0975 -0.041 Q 0.046 -0.09 0.046 -0.165 Q 0.046 -0.273 0.132 -0.3625 Q 0.218 -0.452 0.359 -0.452 Q 0.424 -0.452 0.4615 -0.426 Q 0.499 -0.4 0.499 -0.359 Q 0.499 -0.328 0.47850000000000004 -0.305 Q 0.458 -0.28200000000000003 0.427 -0.28200000000000003 Q 0.4 -0.28200000000000003 0.3885 -0.297 Q 0.377 -0.312 0.377 -0.328 Q 0.377 -0.334 0.3785 -0.3435 Q 0.38 -0.353 0.3935 -0.371 Q 0.40700000000000003 -0.389 0.431 -0.396 Z"/></g><g transform="translate(12.227701444444444,12.894373737037036)"><path fill="rgb(0,0,0)" stroke="none" paint-order="stroke fill markers" d=" M 0.222 -0.218 L 0.178 -0.218 Q 0.163 -0.162 0.163 -0.125 Q 0.163 -0.028 0.261 -0.028 Q 0.396 -0.028 0.47100000000000003 -0.107 Q 0.481 -0.11800000000000001 0.486 -0.11800000000000001 Q 0.493 -0.11800000000000001 0.502 -0.108 Q 0.511 -0.098 0.511 -0.092 Q 0.511 -0.081 0.482 -0.0565 Q 0.453 -0.032 0.41300000000000003 -0.016 Q 0.35000000000000003 0.008 0.258 0.008 Q 0.159 0.008 0.10400000000000001 -0.039 Q 0.049 -0.08600000000000001 0.049 -0.17200000000000001 Q 0.049 -0.29 0.1365 -0.371 Q 0.224 -0.452 0.358 -0.452 Q 0.42 -0.452 0.4575 -0.4255 Q 0.495 -0.399 0.495 -0.356 Q 0.495 -0.272 0.396 -0.23800000000000002 Q 0.336 -0.218 0.222 -0.218 M 0.187 -0.254 Q 0.216 -0.254 0.232 -0.254 Q 0.248 -0.254 0.278 -0.256 Q 0.308 -0.258 0.326 -0.2615 Q 0.34400000000000003 -0.265 0.367 -0.2725 Q 0.39 -0.28 0.403 -0.2905 Q 0.41600000000000004 -0.301 0.4255 -0.3175 Q 0.435 -0.334 0.435 -0.355 Q 0.435 -0.386 0.41200000000000003 -0.401 Q 0.389 -0.41600000000000004 0.358 -0.41600000000000004 Q 0.292 -0.41600000000000004 0.246 -0.37 Q 0.20600000000000002 -0.333 0.187 -0.254 Z"/></g><g transform="translate(12.781310444444443,12.894373737037036)"><path fill="rgb(0,0,0)" stroke="none" paint-order="stroke fill markers" d=" M 0.41400000000000003 -0.394 Q 0.384 -0.41600000000000004 0.331 -0.41600000000000004 Q 0.292 -0.41600000000000004 0.2665 -0.405 Q 0.241 -0.394 0.2325 -0.3775 Q 0.224 -0.361 0.2215 -0.353 Q 0.219 -0.34500000000000003 0.219 -0.339 Q 0.219 -0.321 0.233 -0.3105 Q 0.247 -0.3 0.2625 -0.2955 Q 0.278 -0.291 0.313 -0.28500000000000003 Q 0.385 -0.273 0.417 -0.245 Q 0.457 -0.21 0.457 -0.164 Q 0.457 -0.159 0.4555 -0.1505 Q 0.454 -0.14200000000000002 0.4485 -0.11950000000000001 Q 0.443 -0.097 0.428 -0.077 Q 0.41300000000000003 -0.057 0.39 -0.0365 Q 0.367 -0.016 0.325 -0.004 Q 0.28300000000000003 0.008 0.229 0.008 Q 0.15 0.008 0.10350000000000001 -0.0175 Q 0.057 -0.043000000000000003 0.057 -0.091 Q 0.057 -0.126 0.079 -0.1475 Q 0.101 -0.169 0.129 -0.169 Q 0.148 -0.169 0.163 -0.158 Q 0.178 -0.147 0.178 -0.123 Q 0.178 -0.1 0.163 -0.0805 Q 0.148 -0.061 0.123 -0.054 Q 0.159 -0.028 0.231 -0.028 Q 0.28200000000000003 -0.028 0.316 -0.0415 Q 0.35000000000000003 -0.055 0.362 -0.075 Q 0.374 -0.095 0.377 -0.1055 Q 0.38 -0.116 0.38 -0.123 Q 0.38 -0.169 0.29 -0.184 Q 0.234 -0.195 0.2155 -0.2005 Q 0.197 -0.20600000000000002 0.177 -0.222 Q 0.14100000000000001 -0.251 0.14100000000000001 -0.298 Q 0.14100000000000001 -0.322 0.1565 -0.357 Q 0.17200000000000001 -0.392 0.202 -0.41500000000000004 Q 0.251 -0.452 0.333 -0.452 Q 0.4 -0.452 0.438 -0.428 Q 0.47600000000000003 -0.404 0.47600000000000003 -0.364 Q 0.47600000000000003 -0.331 0.4565 -0.3135 Q 0.437 -0.296 0.41500000000000004 -0.296 Q 0.398 -0.296 0.385 -0.307 Q 0.372 -0.318 0.372 -0.337 Q 0.372 -0.35100000000000003 0.382 -0.368 Q 0.392 -0.385 0.41400000000000003 -0.394 Z"/></g><g transform="translate(13.645894444444444,12.894373737037036)"><path fill="rgb(0,0,0)" stroke="none" paint-order="stroke fill markers" d=" M 0.645 -0.682 L 0.739 -0.067 Q 0.741 -0.054 0.7435 -0.051500000000000004 Q 0.746 -0.049 0.755 -0.048 Q 0.769 -0.047 0.794 -0.047 Q 0.81 -0.047 0.8165 -0.0465 Q 0.8230000000000001 -0.046 0.8285 -0.042 Q 0.834 -0.038 0.834 -0.029 Q 0.834 -0.016 0.8280000000000001 -0.009000000000000001 Q 0.8220000000000001 -0.002 0.8175 -0.001 Q 0.8130000000000001 0 0.806 0 Q 0.794 0 0.771 -0.001 Q 0.748 -0.002 0.736 -0.002 Q 0.724 -0.002 0.7010000000000001 -0.0025 Q 0.678 -0.003 0.667 -0.003 Q 0.65 -0.003 0.592 -0.0015 Q 0.534 0 0.518 0 Q 0.496 0 0.496 -0.018000000000000002 Q 0.496 -0.032 0.502 -0.0385 Q 0.508 -0.045 0.514 -0.046 Q 0.52 -0.047 0.533 -0.047 Q 0.5740000000000001 -0.047 0.598 -0.052000000000000005 L 0.5750000000000001 -0.198 L 0.305 -0.198 L 0.213 -0.058 Q 0.23500000000000001 -0.047 0.271 -0.047 Q 0.297 -0.047 0.297 -0.029 Q 0.297 0 0.27 0 Q 0.252 0 0.215 -0.0015 Q 0.178 -0.003 0.159 -0.003 Q 0.14300000000000002 -0.003 0.111 -0.0015 Q 0.079 0 0.064 0 Q 0.056 0 0.0505 -0.0055 Q 0.045 -0.011 0.045 -0.018000000000000002 Q 0.045 -0.031 0.051000000000000004 -0.038 Q 0.057 -0.045 0.062 -0.046 Q 0.067 -0.047 0.077 -0.047 Q 0.111 -0.047 0.132 -0.0535 Q 0.153 -0.06 0.1595 -0.0665 Q 0.166 -0.073 0.17400000000000002 -0.085 L 0.5670000000000001 -0.686 Q 0.577 -0.7020000000000001 0.5855 -0.7065 Q 0.594 -0.711 0.611 -0.711 Q 0.63 -0.711 0.636 -0.706 Q 0.642 -0.7010000000000001 0.645 -0.682 M 0.524 -0.533 L 0.336 -0.245 L 0.5680000000000001 -0.245 L 0.524 -0.533 Z"/></g><g transform="translate(14.515334444444445,12.894373737037036)"><path fill="rgb(0,0,0)" stroke="none" paint-order="stroke fill markers" d=" M 0.214 -0.021 Q 0.191 0 0.159 0 Q 0.123 0 0.10200000000000001 -0.023 Q 0.081 -0.046 0.081 -0.078 Q 0.081 -0.111 0.10250000000000001 -0.1335 Q 0.124 -0.156 0.158 -0.156 Q 0.199 -0.156 0.2245 -0.1205 Q 0.25 -0.085 0.25 -0.031 Q 0.25 0.031 0.222 0.08650000000000001 Q 0.194 0.14200000000000002 0.167 0.168 Q 0.14 0.194 0.13 0.194 Q 0.124 0.194 0.11750000000000001 0.187 Q 0.111 0.18 0.111 0.17500000000000002 Q 0.111 0.169 0.126 0.156 Q 0.166 0.122 0.189 0.075 Q 0.212 0.028 0.214 -0.021 Z"/></g><g transform="translate(15.001444611111111,12.894373737037036)"><path fill="rgb(0,0,0)" stroke="none" paint-order="stroke fill markers" d=" M 0.645 -0.682 L 0.739 -0.067 Q 0.741 -0.054 0.7435 -0.051500000000000004 Q 0.746 -0.049 0.755 -0.048 Q 0.769 -0.047 0.794 -0.047 Q 0.81 -0.047 0.8165 -0.0465 Q 0.8230000000000001 -0.046 0.8285 -0.042 Q 0.834 -0.038 0.834 -0.029 Q 0.834 -0.016 0.8280000000000001 -0.009000000000000001 Q 0.8220000000000001 -0.002 0.8175 -0.001 Q 0.8130000000000001 0 0.806 0 Q 0.794 0 0.771 -0.001 Q 0.748 -0.002 0.736 -0.002 Q 0.724 -0.002 0.7010000000000001 -0.0025 Q 0.678 -0.003 0.667 -0.003 Q 0.65 -0.003 0.592 -0.0015 Q 0.534 0 0.518 0 Q 0.496 0 0.496 -0.018000000000000002 Q 0.496 -0.032 0.502 -0.0385 Q 0.508 -0.045 0.514 -0.046 Q 0.52 -0.047 0.533 -0.047 Q 0.5740000000000001 -0.047 0.598 -0.052000000000000005 L 0.5750000000000001 -0.198 L 0.305 -0.198 L 0.213 -0.058 Q 0.23500000000000001 -0.047 0.271 -0.047 Q 0.297 -0.047 0.297 -0.029 Q 0.297 0 0.27 0 Q 0.252 0 0.215 -0.0015 Q 0.178 -0.003 0.159 -0.003 Q 0.14300000000000002 -0.003 0.111 -0.0015 Q 0.079 0 0.064 0 Q 0.056 0 0.0505 -0.0055 Q 0.045 -0.011 0.045 -0.018000000000000002 Q 0.045 -0.031 0.051000000000000004 -0.038 Q 0.057 -0.045 0.062 -0.046 Q 0.067 -0.047 0.077 -0.047 Q 0.111 -0.047 0.132 -0.0535 Q 0.153 -0.06 0.1595 -0.0665 Q 0.166 -0.073 0.17400000000000002 -0.085 L 0.5670000000000001 -0.686 Q 0.577 -0.7020000000000001 0.5855 -0.7065 Q 0.594 -0.711 0.611 -0.711 Q 0.63 -0.711 0.636 -0.706 Q 0.642 -0.7010000000000001 0.645 -0.682 M 0.524 -0.533 L 0.336 -0.245 L 0.5680000000000001 -0.245 L 0.524 -0.533 Z"/></g><g transform="translate(15.870884611111112,12.481481737037036) scale(0.7,0.7)"><path fill="rgb(0,0,0)" stroke="none" paint-order="stroke fill markers" d=" M 0.252 -0.397 L 0.179 -0.108 Q 0.17300000000000001 -0.082 0.17300000000000001 -0.065 Q 0.17300000000000001 -0.052000000000000005 0.17500000000000002 -0.044 Q 0.177 -0.036000000000000004 0.1815 -0.0325 Q 0.186 -0.029 0.189 -0.0285 Q 0.192 -0.028 0.197 -0.028 Q 0.23 -0.028 0.267 -0.057 Q 0.304 -0.08600000000000001 0.33 -0.146 Q 0.335 -0.157 0.3385 -0.1595 Q 0.342 -0.162 0.355 -0.162 Q 0.379 -0.162 0.379 -0.148 Q 0.379 -0.14 0.366 -0.116 Q 0.353 -0.092 0.3305 -0.0635 Q 0.308 -0.035 0.2705 -0.0135 Q 0.233 0.008 0.192 0.008 Q 0.14100000000000001 0.008 0.10350000000000001 -0.018000000000000002 Q 0.066 -0.044 0.066 -0.09 Q 0.066 -0.106 0.083 -0.169 L 0.14 -0.397 L 0.059000000000000004 -0.397 Q 0.047 -0.397 0.0415 -0.3975 Q 0.036000000000000004 -0.398 0.0305 -0.4025 Q 0.025 -0.40700000000000003 0.025 -0.41500000000000004 Q 0.025 -0.429 0.031 -0.4355 Q 0.037 -0.442 0.043000000000000003 -0.443 Q 0.049 -0.444 0.062 -0.444 L 0.152 -0.444 L 0.17200000000000001 -0.526 Q 0.19 -0.598 0.195 -0.608 Q 0.215 -0.643 0.253 -0.643 Q 0.271 -0.643 0.28550000000000003 -0.632 Q 0.3 -0.621 0.3 -0.599 Q 0.3 -0.589 0.296 -0.5730000000000001 L 0.264 -0.444 L 0.34400000000000003 -0.444 Q 0.377 -0.444 0.377 -0.426 Q 0.377 -0.40800000000000003 0.368 -0.402 Q 0.363 -0.397 0.341 -0.397 L 0.252 -0.397 Z"/></g><g transform="translate(16.18002714462778,12.894373737037036)"><path fill="rgb(0,0,0)" stroke="none" paint-order="stroke fill markers" d=" M 0.214 -0.021 Q 0.191 0 0.159 0 Q 0.123 0 0.10200000000000001 -0.023 Q 0.081 -0.046 0.081 -0.078 Q 0.081 -0.111 0.10250000000000001 -0.1335 Q 0.124 -0.156 0.158 -0.156 Q 0.199 -0.156 0.2245 -0.1205 Q 0.25 -0.085 0.25 -0.031 Q 0.25 0.031 0.222 0.08650000000000001 Q 0.194 0.14200000000000002 0.167 0.168 Q 0.14 0.194 0.13 0.194 Q 0.124 0.194 0.11750000000000001 0.187 Q 0.111 0.18 0.111 0.17500000000000002 Q 0.111 0.169 0.126 0.156 Q 0.166 0.122 0.189 0.075 Q 0.212 0.028 0.214 -0.021 Z"/></g><g transform="translate(16.666137311294445,12.894373737037036)"><path fill="rgb(0,0,0)" stroke="none" paint-order="stroke fill markers" d=" M 0.645 -0.682 L 0.739 -0.067 Q 0.741 -0.054 0.7435 -0.051500000000000004 Q 0.746 -0.049 0.755 -0.048 Q 0.769 -0.047 0.794 -0.047 Q 0.81 -0.047 0.8165 -0.0465 Q 0.8230000000000001 -0.046 0.8285 -0.042 Q 0.834 -0.038 0.834 -0.029 Q 0.834 -0.016 0.8280000000000001 -0.009000000000000001 Q 0.8220000000000001 -0.002 0.8175 -0.001 Q 0.8130000000000001 0 0.806 0 Q 0.794 0 0.771 -0.001 Q 0.748 -0.002 0.736 -0.002 Q 0.724 -0.002 0.7010000000000001 -0.0025 Q 0.678 -0.003 0.667 -0.003 Q 0.65 -0.003 0.592 -0.0015 Q 0.534 0 0.518 0 Q 0.496 0 0.496 -0.018000000000000002 Q 0.496 -0.032 0.502 -0.0385 Q 0.508 -0.045 0.514 -0.046 Q 0.52 -0.047 0.533 -0.047 Q 0.5740000000000001 -0.047 0.598 -0.052000000000000005 L 0.5750000000000001 -0.198 L 0.305 -0.198 L 0.213 -0.058 Q 0.23500000000000001 -0.047 0.271 -0.047 Q 0.297 -0.047 0.297 -0.029 Q 0.297 0 0.27 0 Q 0.252 0 0.215 -0.0015 Q 0.178 -0.003 0.159 -0.003 Q 0.14300000000000002 -0.003 0.111 -0.0015 Q 0.079 0 0.064 0 Q 0.056 0 0.0505 -0.0055 Q 0.045 -0.011 0.045 -0.018000000000000002 Q 0.045 -0.031 0.051000000000000004 -0.038 Q 0.057 -0.045 0.062 -0.046 Q 0.067 -0.047 0.077 -0.047 Q 0.111 -0.047 0.132 -0.0535 Q 0.153 -0.06 0.1595 -0.0665 Q 0.166 -0.073 0.17400000000000002 -0.085 L 0.5670000000000001 -0.686 Q 0.577 -0.7020000000000001 0.5855 -0.7065 Q 0.594 -0.711 0.611 -0.711 Q 0.63 -0.711 0.636 -0.706 Q 0.642 -0.7010000000000001 0.645 -0.682 M 0.524 -0.533 L 0.336 -0.245 L 0.5680000000000001 -0.245 L 0.524 -0.533 Z"/></g><g transform="translate(17.535577311294446,12.481481737037036) scale(0.7,0.7)"><path fill="rgb(0,0,0)" stroke="none" paint-order="stroke fill markers" d=" M 0.252 -0.397 L 0.179 -0.108 Q 0.17300000000000001 -0.082 0.17300000000000001 -0.065 Q 0.17300000000000001 -0.052000000000000005 0.17500000000000002 -0.044 Q 0.177 -0.036000000000000004 0.1815 -0.0325 Q 0.186 -0.029 0.189 -0.0285 Q 0.192 -0.028 0.197 -0.028 Q 0.23 -0.028 0.267 -0.057 Q 0.304 -0.08600000000000001 0.33 -0.146 Q 0.335 -0.157 0.3385 -0.1595 Q 0.342 -0.162 0.355 -0.162 Q 0.379 -0.162 0.379 -0.148 Q 0.379 -0.14 0.366 -0.116 Q 0.353 -0.092 0.3305 -0.0635 Q 0.308 -0.035 0.2705 -0.0135 Q 0.233 0.008 0.192 0.008 Q 0.14100000000000001 0.008 0.10350000000000001 -0.018000000000000002 Q 0.066 -0.044 0.066 -0.09 Q 0.066 -0.106 0.083 -0.169 L 0.14 -0.397 L 0.059000000000000004 -0.397 Q 0.047 -0.397 0.0415 -0.3975 Q 0.036000000000000004 -0.398 0.0305 -0.4025 Q 0.025 -0.40700000000000003 0.025 -0.41500000000000004 Q 0.025 -0.429 0.031 -0.4355 Q 0.037 -0.442 0.043000000000000003 -0.443 Q 0.049 -0.444 0.062 -0.444 L 0.152 -0.444 L 0.17200000000000001 -0.526 Q 0.19 -0.598 0.195 -0.608 Q 0.215 -0.643 0.253 -0.643 Q 0.271 -0.643 0.28550000000000003 -0.632 Q 0.3 -0.621 0.3 -0.599 Q 0.3 -0.589 0.296 -0.5730000000000001 L 0.264 -0.444 L 0.34400000000000003 -0.444 Q 0.377 -0.444 0.377 -0.426 Q 0.377 -0.40800000000000003 0.368 -0.402 Q 0.363 -0.397 0.341 -0.397 L 0.252 -0.397 Z"/></g><g transform="translate(17.844719844811113,12.894373737037036)"><path fill="rgb(0,0,0)" stroke="none" paint-order="stroke fill markers" d=" M 0.645 -0.682 L 0.739 -0.067 Q 0.741 -0.054 0.7435 -0.051500000000000004 Q 0.746 -0.049 0.755 -0.048 Q 0.769 -0.047 0.794 -0.047 Q 0.81 -0.047 0.8165 -0.0465 Q 0.8230000000000001 -0.046 0.8285 -0.042 Q 0.834 -0.038 0.834 -0.029 Q 0.834 -0.016 0.8280000000000001 -0.009000000000000001 Q 0.8220000000000001 -0.002 0.8175 -0.001 Q 0.8130000000000001 0 0.806 0 Q 0.794 0 0.771 -0.001 Q 0.748 -0.002 0.736 -0.002 Q 0.724 -0.002 0.7010000000000001 -0.0025 Q 0.678 -0.003 0.667 -0.003 Q 0.65 -0.003 0.592 -0.0015 Q 0.534 0 0.518 0 Q 0.496 0 0.496 -0.018000000000000002 Q 0.496 -0.032 0.502 -0.0385 Q 0.508 -0.045 0.514 -0.046 Q 0.52 -0.047 0.533 -0.047 Q 0.5740000000000001 -0.047 0.598 -0.052000000000000005 L 0.5750000000000001 -0.198 L 0.305 -0.198 L 0.213 -0.058 Q 0.23500000000000001 -0.047 0.271 -0.047 Q 0.297 -0.047 0.297 -0.029 Q 0.297 0 0.27 0 Q 0.252 0 0.215 -0.0015 Q 0.178 -0.003 0.159 -0.003 Q 0.14300000000000002 -0.003 0.111 -0.0015 Q 0.079 0 0.064 0 Q 0.056 0 0.0505 -0.0055 Q 0.045 -0.011 0.045 -0.018000000000000002 Q 0.045 -0.031 0.051000000000000004 -0.038 Q 0.057 -0.045 0.062 -0.046 Q 0.067 -0.047 0.077 -0.047 Q 0.111 -0.047 0.132 -0.0535 Q 0.153 -0.06 0.1595 -0.0665 Q 0.166 -0.073 0.17400000000000002 -0.085 L 0.5670000000000001 -0.686 Q 0.577 -0.7020000000000001 0.5855 -0.7065 Q 0.594 -0.711 0.611 -0.711 Q 0.63 -0.711 0.636 -0.706 Q 0.642 -0.7010000000000001 0.645 -0.682 M 0.524 -0.533 L 0.336 -0.245 L 0.5680000000000001 -0.245 L 0.524 -0.533 Z"/></g><g transform="translate(19.047493844811115,12.894373737037036)"><path fill="rgb(0,0,0)" stroke="none" paint-order="stroke fill markers" d=" M 0.515 -0.317 L 0.492 -0.228 Q 0.487 -0.20600000000000002 0.47000000000000003 -0.138 Q 0.456 -0.082 0.456 -0.065 Q 0.456 -0.028 0.47900000000000004 -0.028 Q 0.522 -0.028 0.547 -0.128 Q 0.554 -0.156 0.555 -0.157 Q 0.56 -0.162 0.5750000000000001 -0.162 Q 0.599 -0.162 0.599 -0.148 Q 0.599 -0.14 0.588 -0.1075 Q 0.577 -0.075 0.561 -0.049 Q 0.528 0.008 0.47400000000000003 0.008 Q 0.397 0.008 0.359 -0.046 Q 0.301 0.008 0.22 0.008 Q 0.148 0.008 0.0965 -0.032 Q 0.045 -0.07200000000000001 0.045 -0.157 Q 0.045 -0.268 0.1245 -0.36 Q 0.20400000000000001 -0.452 0.327 -0.452 Q 0.394 -0.452 0.433 -0.41000000000000003 Q 0.453 -0.435 0.484 -0.435 Q 0.502 -0.435 0.5165 -0.424 Q 0.531 -0.41300000000000003 0.531 -0.391 Q 0.531 -0.384 0.515 -0.317 M 0.34900000000000003 -0.093 L 0.41000000000000003 -0.34400000000000003 L 0.41200000000000003 -0.358 Q 0.41200000000000003 -0.372 0.3895 -0.394 Q 0.367 -0.41600000000000004 0.329 -0.41600000000000004 Q 0.25 -0.41600000000000004 0.20800000000000002 -0.318 Q 0.194 -0.28400000000000003 0.176 -0.212 Q 0.158 -0.14 0.158 -0.10400000000000001 Q 0.158 -0.028 0.225 -0.028 Q 0.259 -0.028 0.292 -0.0465 Q 0.325 -0.065 0.34900000000000003 -0.093 Z"/></g><g transform="translate(19.680361844811113,12.894373737037036)"><path fill="rgb(0,0,0)" stroke="none" paint-order="stroke fill markers" d=" M 0.28 -0.376 Q 0.35100000000000003 -0.452 0.445 -0.452 Q 0.509 -0.452 0.5515 -0.4255 Q 0.594 -0.399 0.594 -0.336 Q 0.594 -0.281 0.532 -0.122 Q 0.512 -0.07200000000000001 0.512 -0.049 Q 0.512 -0.039 0.515 -0.034 Q 0.518 -0.029 0.521 -0.0285 Q 0.524 -0.028 0.529 -0.028 Q 0.538 -0.028 0.548 -0.032 Q 0.558 -0.036000000000000004 0.5735 -0.0465 Q 0.589 -0.057 0.6045 -0.0835 Q 0.62 -0.11 0.632 -0.149 Q 0.636 -0.162 0.655 -0.162 Q 0.679 -0.162 0.679 -0.148 Q 0.679 -0.138 0.669 -0.1145 Q 0.659 -0.091 0.641 -0.0625 Q 0.623 -0.034 0.5915 -0.013000000000000001 Q 0.56 0.008 0.523 0.008 Q 0.47800000000000004 0.008 0.444 -0.0165 Q 0.41000000000000003 -0.041 0.41000000000000003 -0.082 Q 0.41000000000000003 -0.099 0.424 -0.133 Q 0.487 -0.299 0.487 -0.357 Q 0.487 -0.41600000000000004 0.437 -0.41600000000000004 Q 0.384 -0.41600000000000004 0.334 -0.377 Q 0.312 -0.359 0.2925 -0.3325 Q 0.273 -0.306 0.272 -0.299 Q 0.271 -0.297 0.257 -0.241 Q 0.243 -0.185 0.241 -0.18 Q 0.227 -0.12 0.213 -0.068 Q 0.209 -0.053 0.20550000000000002 -0.043000000000000003 Q 0.202 -0.033 0.1945 -0.0195 Q 0.187 -0.006 0.17350000000000002 0.001 Q 0.16 0.008 0.14200000000000002 0.008 Q 0.12 0.008 0.1075 -0.0055 Q 0.095 -0.019 0.095 -0.036000000000000004 Q 0.095 -0.039 0.10300000000000001 -0.076 L 0.139 -0.216 Q 0.14400000000000002 -0.23800000000000002 0.161 -0.306 Q 0.17500000000000002 -0.362 0.17500000000000002 -0.379 Q 0.17500000000000002 -0.41600000000000004 0.152 -0.41600000000000004 Q 0.11 -0.41600000000000004 0.084 -0.316 Q 0.077 -0.28800000000000003 0.076 -0.28700000000000003 Q 0.07100000000000001 -0.28200000000000003 0.056 -0.28200000000000003 Q 0.032 -0.28200000000000003 0.032 -0.296 Q 0.032 -0.304 0.043000000000000003 -0.3365 Q 0.054 -0.369 0.07 -0.395 Q 0.105 -0.452 0.157 -0.452 Q 0.2 -0.452 0.23500000000000001 -0.432 Q 0.27 -0.41200000000000003 0.28 -0.376 Z"/></g><g transform="translate(20.393322844811113,12.894373737037036)"><path fill="rgb(0,0,0)" stroke="none" paint-order="stroke fill markers" d=" M 0.6 -0.659 L 0.462 -0.108 Q 0.456 -0.08700000000000001 0.456 -0.065 Q 0.456 -0.028 0.47900000000000004 -0.028 Q 0.522 -0.028 0.547 -0.128 Q 0.554 -0.156 0.555 -0.157 Q 0.56 -0.162 0.5750000000000001 -0.162 Q 0.599 -0.162 0.599 -0.148 Q 0.599 -0.14 0.588 -0.1075 Q 0.577 -0.075 0.561 -0.049 Q 0.528 0.008 0.47400000000000003 0.008 Q 0.397 0.008 0.359 -0.046 Q 0.301 0.008 0.22 0.008 Q 0.148 0.008 0.0965 -0.032 Q 0.045 -0.07200000000000001 0.045 -0.157 Q 0.045 -0.268 0.1245 -0.36 Q 0.20400000000000001 -0.452 0.327 -0.452 Q 0.389 -0.452 0.428 -0.41600000000000004 L 0.482 -0.637 Q 0.46900000000000003 -0.639 0.44 -0.639 Q 0.41400000000000003 -0.639 0.41400000000000003 -0.657 Q 0.41400000000000003 -0.67 0.42 -0.677 Q 0.426 -0.684 0.431 -0.685 Q 0.436 -0.686 0.446 -0.687 L 0.5750000000000001 -0.6930000000000001 Q 0.577 -0.6940000000000001 0.582 -0.6940000000000001 Q 0.604 -0.6940000000000001 0.604 -0.676 Q 0.604 -0.673 0.6 -0.659 M 0.34900000000000003 -0.093 L 0.41000000000000003 -0.34400000000000003 L 0.41200000000000003 -0.358 Q 0.41200000000000003 -0.372 0.3895 -0.394 Q 0.367 -0.41600000000000004 0.329 -0.41600000000000004 Q 0.25 -0.41600000000000004 0.20800000000000002 -0.318 Q 0.194 -0.28400000000000003 0.176 -0.212 Q 0.158 -0.14 0.158 -0.10400000000000001 Q 0.158 -0.028 0.225 -0.028 Q 0.259 -0.028 0.292 -0.0465 Q 0.325 -0.065 0.34900000000000003 -0.093 Z"/></g><g transform="translate(21.336376844811113,12.894373737037036)"><path fill="rgb(0,0,0)" stroke="none" paint-order="stroke fill markers" d=" M 0.645 -0.682 L 0.739 -0.067 Q 0.741 -0.054 0.7435 -0.051500000000000004 Q 0.746 -0.049 0.755 -0.048 Q 0.769 -0.047 0.794 -0.047 Q 0.81 -0.047 0.8165 -0.0465 Q 0.8230000000000001 -0.046 0.8285 -0.042 Q 0.834 -0.038 0.834 -0.029 Q 0.834 -0.016 0.8280000000000001 -0.009000000000000001 Q 0.8220000000000001 -0.002 0.8175 -0.001 Q 0.8130000000000001 0 0.806 0 Q 0.794 0 0.771 -0.001 Q 0.748 -0.002 0.736 -0.002 Q 0.724 -0.002 0.7010000000000001 -0.0025 Q 0.678 -0.003 0.667 -0.003 Q 0.65 -0.003 0.592 -0.0015 Q 0.534 0 0.518 0 Q 0.496 0 0.496 -0.018000000000000002 Q 0.496 -0.032 0.502 -0.0385 Q 0.508 -0.045 0.514 -0.046 Q 0.52 -0.047 0.533 -0.047 Q 0.5740000000000001 -0.047 0.598 -0.052000000000000005 L 0.5750000000000001 -0.198 L 0.305 -0.198 L 0.213 -0.058 Q 0.23500000000000001 -0.047 0.271 -0.047 Q 0.297 -0.047 0.297 -0.029 Q 0.297 0 0.27 0 Q 0.252 0 0.215 -0.0015 Q 0.178 -0.003 0.159 -0.003 Q 0.14300000000000002 -0.003 0.111 -0.0015 Q 0.079 0 0.064 0 Q 0.056 0 0.0505 -0.0055 Q 0.045 -0.011 0.045 -0.018000000000000002 Q 0.045 -0.031 0.051000000000000004 -0.038 Q 0.057 -0.045 0.062 -0.046 Q 0.067 -0.047 0.077 -0.047 Q 0.111 -0.047 0.132 -0.0535 Q 0.153 -0.06 0.1595 -0.0665 Q 0.166 -0.073 0.17400000000000002 -0.085 L 0.5670000000000001 -0.686 Q 0.577 -0.7020000000000001 0.5855 -0.7065 Q 0.594 -0.711 0.611 -0.711 Q 0.63 -0.711 0.636 -0.706 Q 0.642 -0.7010000000000001 0.645 -0.682 M 0.524 -0.533 L 0.336 -0.245 L 0.5680000000000001 -0.245 L 0.524 -0.533 Z"/></g><g transform="translate(22.205816844811114,12.894373737037036)"><path fill="rgb(0,0,0)" stroke="none" paint-order="stroke fill markers" d=" M 0.645 -0.682 L 0.739 -0.067 Q 0.741 -0.054 0.7435 -0.051500000000000004 Q 0.746 -0.049 0.755 -0.048 Q 0.769 -0.047 0.794 -0.047 Q 0.81 -0.047 0.8165 -0.0465 Q 0.8230000000000001 -0.046 0.8285 -0.042 Q 0.834 -0.038 0.834 -0.029 Q 0.834 -0.016 0.8280000000000001 -0.009000000000000001 Q 0.8220000000000001 -0.002 0.8175 -0.001 Q 0.8130000000000001 0 0.806 0 Q 0.794 0 0.771 -0.001 Q 0.748 -0.002 0.736 -0.002 Q 0.724 -0.002 0.7010000000000001 -0.0025 Q 0.678 -0.003 0.667 -0.003 Q 0.65 -0.003 0.592 -0.0015 Q 0.534 0 0.518 0 Q 0.496 0 0.496 -0.018000000000000002 Q 0.496 -0.032 0.502 -0.0385 Q 0.508 -0.045 0.514 -0.046 Q 0.52 -0.047 0.533 -0.047 Q 0.5740000000000001 -0.047 0.598 -0.052000000000000005 L 0.5750000000000001 -0.198 L 0.305 -0.198 L 0.213 -0.058 Q 0.23500000000000001 -0.047 0.271 -0.047 Q 0.297 -0.047 0.297 -0.029 Q 0.297 0 0.27 0 Q 0.252 0 0.215 -0.0015 Q 0.178 -0.003 0.159 -0.003 Q 0.14300000000000002 -0.003 0.111 -0.0015 Q 0.079 0 0.064 0 Q 0.056 0 0.0505 -0.0055 Q 0.045 -0.011 0.045 -0.018000000000000002 Q 0.045 -0.031 0.051000000000000004 -0.038 Q 0.057 -0.045 0.062 -0.046 Q 0.067 -0.047 0.077 -0.047 Q 0.111 -0.047 0.132 -0.0535 Q 0.153 -0.06 0.1595 -0.0665 Q 0.166 -0.073 0.17400000000000002 -0.085 L 0.5670000000000001 -0.686 Q 0.577 -0.7020000000000001 0.5855 -0.7065 Q 0.594 -0.711 0.611 -0.711 Q 0.63 -0.711 0.636 -0.706 Q 0.642 -0.7010000000000001 0.645 -0.682 M 0.524 -0.533 L 0.336 -0.245 L 0.5680000000000001 -0.245 L 0.524 -0.533 Z"/></g><g transform="translate(23.075256844811115,12.481481737037036) scale(0.7,0.7)"><path fill="rgb(0,0,0)" stroke="none" paint-order="stroke fill markers" d=" M 0.252 -0.397 L 0.179 -0.108 Q 0.17300000000000001 -0.082 0.17300000000000001 -0.065 Q 0.17300000000000001 -0.052000000000000005 0.17500000000000002 -0.044 Q 0.177 -0.036000000000000004 0.1815 -0.0325 Q 0.186 -0.029 0.189 -0.0285 Q 0.192 -0.028 0.197 -0.028 Q 0.23 -0.028 0.267 -0.057 Q 0.304 -0.08600000000000001 0.33 -0.146 Q 0.335 -0.157 0.3385 -0.1595 Q 0.342 -0.162 0.355 -0.162 Q 0.379 -0.162 0.379 -0.148 Q 0.379 -0.14 0.366 -0.116 Q 0.353 -0.092 0.3305 -0.0635 Q 0.308 -0.035 0.2705 -0.0135 Q 0.233 0.008 0.192 0.008 Q 0.14100000000000001 0.008 0.10350000000000001 -0.018000000000000002 Q 0.066 -0.044 0.066 -0.09 Q 0.066 -0.106 0.083 -0.169 L 0.14 -0.397 L 0.059000000000000004 -0.397 Q 0.047 -0.397 0.0415 -0.3975 Q 0.036000000000000004 -0.398 0.0305 -0.4025 Q 0.025 -0.40700000000000003 0.025 -0.41500000000000004 Q 0.025 -0.429 0.031 -0.4355 Q 0.037 -0.442 0.043000000000000003 -0.443 Q 0.049 -0.444 0.062 -0.444 L 0.152 -0.444 L 0.17200000000000001 -0.526 Q 0.19 -0.598 0.195 -0.608 Q 0.215 -0.643 0.253 -0.643 Q 0.271 -0.643 0.28550000000000003 -0.632 Q 0.3 -0.621 0.3 -0.599 Q 0.3 -0.589 0.296 -0.5730000000000001 L 0.264 -0.444 L 0.34400000000000003 -0.444 Q 0.377 -0.444 0.377 -0.426 Q 0.377 -0.40800000000000003 0.368 -0.402 Q 0.363 -0.397 0.341 -0.397 L 0.252 -0.397 Z"/></g></g><g transform="scale(27,27)"><g transform="translate(10.74074074074074,14.509259814814815)"><path fill="rgb(0,0,0)" stroke="none" paint-order="stroke fill markers" d=" M 0.316 -0.659 L 0.249 -0.39 Q 0.317 -0.452 0.4 -0.452 Q 0.464 -0.452 0.5065000000000001 -0.4255 Q 0.549 -0.399 0.549 -0.336 Q 0.549 -0.28200000000000003 0.484 -0.114 Q 0.467 -0.069 0.467 -0.049 Q 0.467 -0.039 0.47000000000000003 -0.034 Q 0.47300000000000003 -0.029 0.47600000000000003 -0.0285 Q 0.47900000000000004 -0.028 0.484 -0.028 Q 0.493 -0.028 0.503 -0.032 Q 0.513 -0.036000000000000004 0.529 -0.0465 Q 0.545 -0.057 0.5605 -0.0835 Q 0.5760000000000001 -0.11 0.587 -0.149 Q 0.591 -0.162 0.61 -0.162 Q 0.634 -0.162 0.634 -0.148 Q 0.634 -0.138 0.624 -0.1145 Q 0.614 -0.091 0.596 -0.0625 Q 0.578 -0.034 0.5465 -0.013000000000000001 Q 0.515 0.008 0.47800000000000004 0.008 Q 0.433 0.008 0.399 -0.0165 Q 0.365 -0.041 0.365 -0.082 Q 0.365 -0.099 0.379 -0.133 Q 0.442 -0.295 0.442 -0.357 Q 0.442 -0.41600000000000004 0.392 -0.41600000000000004 Q 0.308 -0.41600000000000004 0.243 -0.326 Q 0.229 -0.307 0.223 -0.28500000000000003 L 0.163 -0.048 Q 0.149 0.008 0.098 0.008 Q 0.077 0.008 0.0635 -0.005 Q 0.05 -0.018000000000000002 0.05 -0.037 Q 0.05 -0.044 0.054 -0.06 L 0.198 -0.637 Q 0.185 -0.639 0.156 -0.639 Q 0.13 -0.639 0.13 -0.657 Q 0.13 -0.67 0.136 -0.677 Q 0.14200000000000002 -0.684 0.147 -0.685 Q 0.152 -0.686 0.162 -0.687 L 0.291 -0.6930000000000001 Q 0.293 -0.6940000000000001 0.298 -0.6940000000000001 Q 0.32 -0.6940000000000001 0.32 -0.676 Q 0.32 -0.673 0.316 -0.659 Z"/></g><g transform="translate(11.408330740740741,14.509259814814815)"><path fill="rgb(0,0,0)" stroke="none" paint-order="stroke fill markers" d=" M 0.515 -0.317 L 0.492 -0.228 Q 0.487 -0.20600000000000002 0.47000000000000003 -0.138 Q 0.456 -0.082 0.456 -0.065 Q 0.456 -0.028 0.47900000000000004 -0.028 Q 0.522 -0.028 0.547 -0.128 Q 0.554 -0.156 0.555 -0.157 Q 0.56 -0.162 0.5750000000000001 -0.162 Q 0.599 -0.162 0.599 -0.148 Q 0.599 -0.14 0.588 -0.1075 Q 0.577 -0.075 0.561 -0.049 Q 0.528 0.008 0.47400000000000003 0.008 Q 0.397 0.008 0.359 -0.046 Q 0.301 0.008 0.22 0.008 Q 0.148 0.008 0.0965 -0.032 Q 0.045 -0.07200000000000001 0.045 -0.157 Q 0.045 -0.268 0.1245 -0.36 Q 0.20400000000000001 -0.452 0.327 -0.452 Q 0.394 -0.452 0.433 -0.41000000000000003 Q 0.453 -0.435 0.484 -0.435 Q 0.502 -0.435 0.5165 -0.424 Q 0.531 -0.41300000000000003 0.531 -0.391 Q 0.531 -0.384 0.515 -0.317 M 0.34900000000000003 -0.093 L 0.41000000000000003 -0.34400000000000003 L 0.41200000000000003 -0.358 Q 0.41200000000000003 -0.372 0.3895 -0.394 Q 0.367 -0.41600000000000004 0.329 -0.41600000000000004 Q 0.25 -0.41600000000000004 0.20800000000000002 -0.318 Q 0.194 -0.28400000000000003 0.176 -0.212 Q 0.158 -0.14 0.158 -0.10400000000000001 Q 0.158 -0.028 0.225 -0.028 Q 0.259 -0.028 0.292 -0.0465 Q 0.325 -0.065 0.34900000000000003 -0.093 Z"/></g><g transform="translate(12.041198740740741,14.509259814814815)"><path fill="rgb(0,0,0)" stroke="none" paint-order="stroke fill markers" d=" M 0.541 -0.362 Q 0.541 -0.325 0.526 -0.267 Q 0.511 -0.209 0.4835 -0.1455 Q 0.456 -0.082 0.406 -0.037 Q 0.356 0.008 0.296 0.008 Q 0.123 0.008 0.123 -0.126 Q 0.123 -0.161 0.1355 -0.2025 Q 0.148 -0.244 0.184 -0.335 Q 0.199 -0.375 0.199 -0.395 Q 0.199 -0.405 0.196 -0.41000000000000003 Q 0.193 -0.41500000000000004 0.19 -0.41550000000000004 Q 0.187 -0.41600000000000004 0.182 -0.41600000000000004 Q 0.17300000000000001 -0.41600000000000004 0.1625 -0.41200000000000003 Q 0.152 -0.40800000000000003 0.1365 -0.3965 Q 0.121 -0.385 0.1055 -0.359 Q 0.09 -0.333 0.079 -0.295 Q 0.075 -0.28200000000000003 0.056 -0.28200000000000003 Q 0.032 -0.28200000000000003 0.032 -0.296 Q 0.032 -0.306 0.042 -0.3295 Q 0.052000000000000005 -0.353 0.07 -0.3815 Q 0.088 -0.41000000000000003 0.11950000000000001 -0.431 Q 0.151 -0.452 0.188 -0.452 Q 0.233 -0.452 0.267 -0.4275 Q 0.301 -0.403 0.301 -0.362 Q 0.301 -0.34400000000000003 0.29 -0.317 Q 0.23 -0.167 0.23 -0.106 Q 0.23 -0.028 0.302 -0.028 Q 0.342 -0.028 0.378 -0.062 Q 0.41400000000000003 -0.096 0.434 -0.14100000000000001 Q 0.454 -0.186 0.4655 -0.2215 Q 0.47700000000000004 -0.257 0.47700000000000004 -0.269 Q 0.47700000000000004 -0.302 0.427 -0.332 Q 0.397 -0.34900000000000003 0.397 -0.377 Q 0.397 -0.404 0.4205 -0.4285 Q 0.444 -0.453 0.47300000000000003 -0.453 Q 0.47800000000000004 -0.453 0.485 -0.451 Q 0.492 -0.449 0.5065000000000001 -0.442 Q 0.521 -0.435 0.531 -0.41400000000000003 Q 0.541 -0.393 0.541 -0.362 Z"/></g><g transform="translate(12.644900740740741,14.509259814814815)"><path fill="rgb(0,0,0)" stroke="none" paint-order="stroke fill markers" d=" M 0.222 -0.218 L 0.178 -0.218 Q 0.163 -0.162 0.163 -0.125 Q 0.163 -0.028 0.261 -0.028 Q 0.396 -0.028 0.47100000000000003 -0.107 Q 0.481 -0.11800000000000001 0.486 -0.11800000000000001 Q 0.493 -0.11800000000000001 0.502 -0.108 Q 0.511 -0.098 0.511 -0.092 Q 0.511 -0.081 0.482 -0.0565 Q 0.453 -0.032 0.41300000000000003 -0.016 Q 0.35000000000000003 0.008 0.258 0.008 Q 0.159 0.008 0.10400000000000001 -0.039 Q 0.049 -0.08600000000000001 0.049 -0.17200000000000001 Q 0.049 -0.29 0.1365 -0.371 Q 0.224 -0.452 0.358 -0.452 Q 0.42 -0.452 0.4575 -0.4255 Q 0.495 -0.399 0.495 -0.356 Q 0.495 -0.272 0.396 -0.23800000000000002 Q 0.336 -0.218 0.222 -0.218 M 0.187 -0.254 Q 0.216 -0.254 0.232 -0.254 Q 0.248 -0.254 0.278 -0.256 Q 0.308 -0.258 0.326 -0.2615 Q 0.34400000000000003 -0.265 0.367 -0.2725 Q 0.39 -0.28 0.403 -0.2905 Q 0.41600000000000004 -0.301 0.4255 -0.3175 Q 0.435 -0.334 0.435 -0.355 Q 0.435 -0.386 0.41200000000000003 -0.401 Q 0.389 -0.41600000000000004 0.358 -0.41600000000000004 Q 0.292 -0.41600000000000004 0.246 -0.37 Q 0.20600000000000002 -0.333 0.187 -0.254 Z"/></g><g transform="translate(13.531843740740742,14.509259814814815)"><path fill="rgb(0,0,0)" stroke="none" paint-order="stroke fill markers" d=" M 0.252 -0.397 L 0.179 -0.108 Q 0.17300000000000001 -0.082 0.17300000000000001 -0.065 Q 0.17300000000000001 -0.052000000000000005 0.17500000000000002 -0.044 Q 0.177 -0.036000000000000004 0.1815 -0.0325 Q 0.186 -0.029 0.189 -0.0285 Q 0.192 -0.028 0.197 -0.028 Q 0.23 -0.028 0.267 -0.057 Q 0.304 -0.08600000000000001 0.33 -0.146 Q 0.335 -0.157 0.3385 -0.1595 Q 0.342 -0.162 0.355 -0.162 Q 0.379 -0.162 0.379 -0.148 Q 0.379 -0.14 0.366 -0.116 Q 0.353 -0.092 0.3305 -0.0635 Q 0.308 -0.035 0.2705 -0.0135 Q 0.233 0.008 0.192 0.008 Q 0.14100000000000001 0.008 0.10350000000000001 -0.018000000000000002 Q 0.066 -0.044 0.066 -0.09 Q 0.066 -0.106 0.083 -0.169 L 0.14 -0.397 L 0.059000000000000004 -0.397 Q 0.047 -0.397 0.0415 -0.3975 Q 0.036000000000000004 -0.398 0.0305 -0.4025 Q 0.025 -0.40700000000000003 0.025 -0.41500000000000004 Q 0.025 -0.429 0.031 -0.4355 Q 0.037 -0.442 0.043000000000000003 -0.443 Q 0.049 -0.444 0.062 -0.444 L 0.152 -0.444 L 0.17200000000000001 -0.526 Q 0.19 -0.598 0.195 -0.608 Q 0.215 -0.643 0.253 -0.643 Q 0.271 -0.643 0.28550000000000003 -0.632 Q 0.3 -0.621 0.3 -0.599 Q 0.3 -0.589 0.296 -0.5730000000000001 L 0.264 -0.444 L 0.34400000000000003 -0.444 Q 0.377 -0.444 0.377 -0.426 Q 0.377 -0.40800000000000003 0.368 -0.402 Q 0.363 -0.397 0.341 -0.397 L 0.252 -0.397 Z"/></g><g transform="translate(13.947119740740742,14.509259814814815)"><path fill="rgb(0,0,0)" stroke="none" paint-order="stroke fill markers" d=" M 0.316 -0.659 L 0.249 -0.39 Q 0.317 -0.452 0.4 -0.452 Q 0.464 -0.452 0.5065000000000001 -0.4255 Q 0.549 -0.399 0.549 -0.336 Q 0.549 -0.28200000000000003 0.484 -0.114 Q 0.467 -0.069 0.467 -0.049 Q 0.467 -0.039 0.47000000000000003 -0.034 Q 0.47300000000000003 -0.029 0.47600000000000003 -0.0285 Q 0.47900000000000004 -0.028 0.484 -0.028 Q 0.493 -0.028 0.503 -0.032 Q 0.513 -0.036000000000000004 0.529 -0.0465 Q 0.545 -0.057 0.5605 -0.0835 Q 0.5760000000000001 -0.11 0.587 -0.149 Q 0.591 -0.162 0.61 -0.162 Q 0.634 -0.162 0.634 -0.148 Q 0.634 -0.138 0.624 -0.1145 Q 0.614 -0.091 0.596 -0.0625 Q 0.578 -0.034 0.5465 -0.013000000000000001 Q 0.515 0.008 0.47800000000000004 0.008 Q 0.433 0.008 0.399 -0.0165 Q 0.365 -0.041 0.365 -0.082 Q 0.365 -0.099 0.379 -0.133 Q 0.442 -0.295 0.442 -0.357 Q 0.442 -0.41600000000000004 0.392 -0.41600000000000004 Q 0.308 -0.41600000000000004 0.243 -0.326 Q 0.229 -0.307 0.223 -0.28500000000000003 L 0.163 -0.048 Q 0.149 0.008 0.098 0.008 Q 0.077 0.008 0.0635 -0.005 Q 0.05 -0.018000000000000002 0.05 -0.037 Q 0.05 -0.044 0.054 -0.06 L 0.198 -0.637 Q 0.185 -0.639 0.156 -0.639 Q 0.13 -0.639 0.13 -0.657 Q 0.13 -0.67 0.136 -0.677 Q 0.14200000000000002 -0.684 0.147 -0.685 Q 0.152 -0.686 0.162 -0.687 L 0.291 -0.6930000000000001 Q 0.293 -0.6940000000000001 0.298 -0.6940000000000001 Q 0.32 -0.6940000000000001 0.32 -0.676 Q 0.32 -0.673 0.316 -0.659 Z"/></g><g transform="translate(14.614709740740743,14.509259814814815)"><path fill="rgb(0,0,0)" stroke="none" paint-order="stroke fill markers" d=" M 0.222 -0.218 L 0.178 -0.218 Q 0.163 -0.162 0.163 -0.125 Q 0.163 -0.028 0.261 -0.028 Q 0.396 -0.028 0.47100000000000003 -0.107 Q 0.481 -0.11800000000000001 0.486 -0.11800000000000001 Q 0.493 -0.11800000000000001 0.502 -0.108 Q 0.511 -0.098 0.511 -0.092 Q 0.511 -0.081 0.482 -0.0565 Q 0.453 -0.032 0.41300000000000003 -0.016 Q 0.35000000000000003 0.008 0.258 0.008 Q 0.159 0.008 0.10400000000000001 -0.039 Q 0.049 -0.08600000000000001 0.049 -0.17200000000000001 Q 0.049 -0.29 0.1365 -0.371 Q 0.224 -0.452 0.358 -0.452 Q 0.42 -0.452 0.4575 -0.4255 Q 0.495 -0.399 0.495 -0.356 Q 0.495 -0.272 0.396 -0.23800000000000002 Q 0.336 -0.218 0.222 -0.218 M 0.187 -0.254 Q 0.216 -0.254 0.232 -0.254 Q 0.248 -0.254 0.278 -0.256 Q 0.308 -0.258 0.326 -0.2615 Q 0.34400000000000003 -0.265 0.367 -0.2725 Q 0.39 -0.28 0.403 -0.2905 Q 0.41600000000000004 -0.301 0.4255 -0.3175 Q 0.435 -0.334 0.435 -0.355 Q 0.435 -0.386 0.41200000000000003 -0.401 Q 0.389 -0.41600000000000004 0.358 -0.41600000000000004 Q 0.292 -0.41600000000000004 0.246 -0.37 Q 0.20600000000000002 -0.333 0.187 -0.254 Z"/></g><g transform="translate(15.501652740740743,14.509259814814815)"><path fill="rgb(0,0,0)" stroke="none" paint-order="stroke fill markers" d=" M 0.41400000000000003 -0.394 Q 0.384 -0.41600000000000004 0.331 -0.41600000000000004 Q 0.292 -0.41600000000000004 0.2665 -0.405 Q 0.241 -0.394 0.2325 -0.3775 Q 0.224 -0.361 0.2215 -0.353 Q 0.219 -0.34500000000000003 0.219 -0.339 Q 0.219 -0.321 0.233 -0.3105 Q 0.247 -0.3 0.2625 -0.2955 Q 0.278 -0.291 0.313 -0.28500000000000003 Q 0.385 -0.273 0.417 -0.245 Q 0.457 -0.21 0.457 -0.164 Q 0.457 -0.159 0.4555 -0.1505 Q 0.454 -0.14200000000000002 0.4485 -0.11950000000000001 Q 0.443 -0.097 0.428 -0.077 Q 0.41300000000000003 -0.057 0.39 -0.0365 Q 0.367 -0.016 0.325 -0.004 Q 0.28300000000000003 0.008 0.229 0.008 Q 0.15 0.008 0.10350000000000001 -0.0175 Q 0.057 -0.043000000000000003 0.057 -0.091 Q 0.057 -0.126 0.079 -0.1475 Q 0.101 -0.169 0.129 -0.169 Q 0.148 -0.169 0.163 -0.158 Q 0.178 -0.147 0.178 -0.123 Q 0.178 -0.1 0.163 -0.0805 Q 0.148 -0.061 0.123 -0.054 Q 0.159 -0.028 0.231 -0.028 Q 0.28200000000000003 -0.028 0.316 -0.0415 Q 0.35000000000000003 -0.055 0.362 -0.075 Q 0.374 -0.095 0.377 -0.1055 Q 0.38 -0.116 0.38 -0.123 Q 0.38 -0.169 0.29 -0.184 Q 0.234 -0.195 0.2155 -0.2005 Q 0.197 -0.20600000000000002 0.177 -0.222 Q 0.14100000000000001 -0.251 0.14100000000000001 -0.298 Q 0.14100000000000001 -0.322 0.1565 -0.357 Q 0.17200000000000001 -0.392 0.202 -0.41500000000000004 Q 0.251 -0.452 0.333 -0.452 Q 0.4 -0.452 0.438 -0.428 Q 0.47600000000000003 -0.404 0.47600000000000003 -0.364 Q 0.47600000000000003 -0.331 0.4565 -0.3135 Q 0.437 -0.296 0.41500000000000004 -0.296 Q 0.398 -0.296 0.385 -0.307 Q 0.372 -0.318 0.372 -0.337 Q 0.372 -0.35100000000000003 0.382 -0.368 Q 0.392 -0.385 0.41400000000000003 -0.394 Z"/></g><g transform="translate(16.032902740740745,14.509259814814815)"><path fill="rgb(0,0,0)" stroke="none" paint-order="stroke fill markers" d=" M 0.515 -0.317 L 0.492 -0.228 Q 0.487 -0.20600000000000002 0.47000000000000003 -0.138 Q 0.456 -0.082 0.456 -0.065 Q 0.456 -0.028 0.47900000000000004 -0.028 Q 0.522 -0.028 0.547 -0.128 Q 0.554 -0.156 0.555 -0.157 Q 0.56 -0.162 0.5750000000000001 -0.162 Q 0.599 -0.162 0.599 -0.148 Q 0.599 -0.14 0.588 -0.1075 Q 0.577 -0.075 0.561 -0.049 Q 0.528 0.008 0.47400000000000003 0.008 Q 0.397 0.008 0.359 -0.046 Q 0.301 0.008 0.22 0.008 Q 0.148 0.008 0.0965 -0.032 Q 0.045 -0.07200000000000001 0.045 -0.157 Q 0.045 -0.268 0.1245 -0.36 Q 0.20400000000000001 -0.452 0.327 -0.452 Q 0.394 -0.452 0.433 -0.41000000000000003 Q 0.453 -0.435 0.484 -0.435 Q 0.502 -0.435 0.5165 -0.424 Q 0.531 -0.41300000000000003 0.531 -0.391 Q 0.531 -0.384 0.515 -0.317 M 0.34900000000000003 -0.093 L 0.41000000000000003 -0.34400000000000003 L 0.41200000000000003 -0.358 Q 0.41200000000000003 -0.372 0.3895 -0.394 Q 0.367 -0.41600000000000004 0.329 -0.41600000000000004 Q 0.25 -0.41600000000000004 0.20800000000000002 -0.318 Q 0.194 -0.28400000000000003 0.176 -0.212 Q 0.158 -0.14 0.158 -0.10400000000000001 Q 0.158 -0.028 0.225 -0.028 Q 0.259 -0.028 0.292 -0.0465 Q 0.325 -0.065 0.34900000000000003 -0.093 Z"/></g><g transform="translate(16.665770740740744,14.509259814814815)"><path fill="rgb(0,0,0)" stroke="none" paint-order="stroke fill markers" d=" M 0.431 -0.11 L 0.47600000000000003 -0.29 Q 0.487 -0.331 0.487 -0.357 Q 0.487 -0.41600000000000004 0.437 -0.41600000000000004 Q 0.384 -0.41600000000000004 0.334 -0.377 Q 0.312 -0.359 0.2925 -0.3325 Q 0.273 -0.306 0.272 -0.299 Q 0.271 -0.297 0.257 -0.241 Q 0.243 -0.185 0.241 -0.18 Q 0.227 -0.12 0.213 -0.068 Q 0.209 -0.053 0.20550000000000002 -0.043000000000000003 Q 0.202 -0.033 0.1945 -0.0195 Q 0.187 -0.006 0.17350000000000002 0.001 Q 0.16 0.008 0.14200000000000002 0.008 Q 0.12 0.008 0.1075 -0.0055 Q 0.095 -0.019 0.095 -0.036000000000000004 Q 0.095 -0.039 0.10300000000000001 -0.076 L 0.139 -0.216 Q 0.14400000000000002 -0.23800000000000002 0.161 -0.306 Q 0.17500000000000002 -0.362 0.17500000000000002 -0.379 Q 0.17500000000000002 -0.41600000000000004 0.152 -0.41600000000000004 Q 0.11 -0.41600000000000004 0.084 -0.316 Q 0.077 -0.28800000000000003 0.076 -0.28700000000000003 Q 0.07100000000000001 -0.28200000000000003 0.056 -0.28200000000000003 Q 0.032 -0.28200000000000003 0.032 -0.296 Q 0.032 -0.304 0.043000000000000003 -0.3365 Q 0.054 -0.369 0.07 -0.395 Q 0.105 -0.452 0.157 -0.452 Q 0.2 -0.452 0.23500000000000001 -0.432 Q 0.27 -0.41200000000000003 0.28 -0.376 Q 0.35100000000000003 -0.452 0.445 -0.452 Q 0.506 -0.452 0.542 -0.431 Q 0.58 -0.41000000000000003 0.59 -0.366 Q 0.665 -0.452 0.764 -0.452 Q 0.8280000000000001 -0.452 0.8705 -0.4255 Q 0.913 -0.399 0.913 -0.336 Q 0.913 -0.281 0.851 -0.122 Q 0.8310000000000001 -0.07200000000000001 0.8310000000000001 -0.049 Q 0.8310000000000001 -0.039 0.834 -0.034 Q 0.837 -0.029 0.84 -0.0285 Q 0.843 -0.028 0.848 -0.028 Q 0.857 -0.028 0.867 -0.032 Q 0.877 -0.036000000000000004 0.8925000000000001 -0.0465 Q 0.908 -0.057 0.9235 -0.0835 Q 0.9390000000000001 -0.11 0.9510000000000001 -0.149 Q 0.9550000000000001 -0.162 0.974 -0.162 Q 0.998 -0.162 0.998 -0.148 Q 0.998 -0.138 0.988 -0.1145 Q 0.978 -0.091 0.96 -0.0625 Q 0.9420000000000001 -0.034 0.9105 -0.013000000000000001 Q 0.879 0.008 0.842 0.008 Q 0.797 0.008 0.763 -0.0165 Q 0.729 -0.041 0.729 -0.082 Q 0.729 -0.099 0.743 -0.133 Q 0.806 -0.299 0.806 -0.357 Q 0.806 -0.41600000000000004 0.756 -0.41600000000000004 Q 0.676 -0.41600000000000004 0.613 -0.334 Q 0.591 -0.304 0.587 -0.28600000000000003 Q 0.529 -0.048 0.524 -0.035 Q 0.505 0.008 0.461 0.008 Q 0.439 0.008 0.4265 -0.0055 Q 0.41400000000000003 -0.019 0.41400000000000003 -0.036000000000000004 Q 0.41400000000000003 -0.039 0.431 -0.11 Z"/></g><g transform="translate(17.698174740740743,14.509259814814815)"><path fill="rgb(0,0,0)" stroke="none" paint-order="stroke fill markers" d=" M 0.222 -0.218 L 0.178 -0.218 Q 0.163 -0.162 0.163 -0.125 Q 0.163 -0.028 0.261 -0.028 Q 0.396 -0.028 0.47100000000000003 -0.107 Q 0.481 -0.11800000000000001 0.486 -0.11800000000000001 Q 0.493 -0.11800000000000001 0.502 -0.108 Q 0.511 -0.098 0.511 -0.092 Q 0.511 -0.081 0.482 -0.0565 Q 0.453 -0.032 0.41300000000000003 -0.016 Q 0.35000000000000003 0.008 0.258 0.008 Q 0.159 0.008 0.10400000000000001 -0.039 Q 0.049 -0.08600000000000001 0.049 -0.17200000000000001 Q 0.049 -0.29 0.1365 -0.371 Q 0.224 -0.452 0.358 -0.452 Q 0.42 -0.452 0.4575 -0.4255 Q 0.495 -0.399 0.495 -0.356 Q 0.495 -0.272 0.396 -0.23800000000000002 Q 0.336 -0.218 0.222 -0.218 M 0.187 -0.254 Q 0.216 -0.254 0.232 -0.254 Q 0.248 -0.254 0.278 -0.256 Q 0.308 -0.258 0.326 -0.2615 Q 0.34400000000000003 -0.265 0.367 -0.2725 Q 0.39 -0.28 0.403 -0.2905 Q 0.41600000000000004 -0.301 0.4255 -0.3175 Q 0.435 -0.334 0.435 -0.355 Q 0.435 -0.386 0.41200000000000003 -0.401 Q 0.389 -0.41600000000000004 0.358 -0.41600000000000004 Q 0.292 -0.41600000000000004 0.246 -0.37 Q 0.20600000000000002 -0.333 0.187 -0.254 Z"/></g><g transform="translate(18.585117740740746,14.509259814814815)"><path fill="rgb(0,0,0)" stroke="none" paint-order="stroke fill markers" d=" M 0.444 -0.402 Q 0.43 -0.41600000000000004 0.405 -0.41600000000000004 Q 0.341 -0.41600000000000004 0.295 -0.358 Q 0.28300000000000003 -0.34400000000000003 0.278 -0.326 Q 0.277 -0.322 0.243 -0.185 Q 0.209 -0.048 0.20800000000000002 -0.045 Q 0.201 -0.017 0.181 -0.0045000000000000005 Q 0.161 0.008 0.14200000000000002 0.008 Q 0.12 0.008 0.1075 -0.0055 Q 0.095 -0.019 0.095 -0.036000000000000004 L 0.113 -0.114 Q 0.124 -0.155 0.133 -0.196 Q 0.136 -0.20800000000000002 0.147 -0.2515 Q 0.158 -0.295 0.161 -0.304 Q 0.17500000000000002 -0.364 0.17500000000000002 -0.38 Q 0.17500000000000002 -0.41600000000000004 0.152 -0.41600000000000004 Q 0.109 -0.41600000000000004 0.084 -0.316 Q 0.077 -0.28800000000000003 0.076 -0.28700000000000003 Q 0.07100000000000001 -0.28200000000000003 0.056 -0.28200000000000003 Q 0.032 -0.28200000000000003 0.032 -0.296 Q 0.032 -0.304 0.043000000000000003 -0.337 Q 0.054 -0.37 0.07 -0.395 Q 0.105 -0.452 0.157 -0.452 Q 0.19 -0.452 0.224 -0.4375 Q 0.258 -0.423 0.274 -0.392 Q 0.33 -0.452 0.40700000000000003 -0.452 Q 0.452 -0.452 0.47850000000000004 -0.4265 Q 0.505 -0.401 0.505 -0.365 Q 0.505 -0.329 0.483 -0.3075 Q 0.461 -0.28600000000000003 0.433 -0.28600000000000003 Q 0.41000000000000003 -0.28600000000000003 0.3965 -0.3 Q 0.383 -0.314 0.383 -0.332 Q 0.383 -0.341 0.386 -0.3525 Q 0.389 -0.364 0.404 -0.3805 Q 0.419 -0.397 0.444 -0.402 Z"/></g><g transform="translate(19.145765740740746,14.509259814814815)"><path fill="rgb(0,0,0)" stroke="none" paint-order="stroke fill markers" d=" M 0.515 -0.317 L 0.492 -0.228 Q 0.487 -0.20600000000000002 0.47000000000000003 -0.138 Q 0.456 -0.082 0.456 -0.065 Q 0.456 -0.028 0.47900000000000004 -0.028 Q 0.522 -0.028 0.547 -0.128 Q 0.554 -0.156 0.555 -0.157 Q 0.56 -0.162 0.5750000000000001 -0.162 Q 0.599 -0.162 0.599 -0.148 Q 0.599 -0.14 0.588 -0.1075 Q 0.577 -0.075 0.561 -0.049 Q 0.528 0.008 0.47400000000000003 0.008 Q 0.397 0.008 0.359 -0.046 Q 0.301 0.008 0.22 0.008 Q 0.148 0.008 0.0965 -0.032 Q 0.045 -0.07200000000000001 0.045 -0.157 Q 0.045 -0.268 0.1245 -0.36 Q 0.20400000000000001 -0.452 0.327 -0.452 Q 0.394 -0.452 0.433 -0.41000000000000003 Q 0.453 -0.435 0.484 -0.435 Q 0.502 -0.435 0.5165 -0.424 Q 0.531 -0.41300000000000003 0.531 -0.391 Q 0.531 -0.384 0.515 -0.317 M 0.34900000000000003 -0.093 L 0.41000000000000003 -0.34400000000000003 L 0.41200000000000003 -0.358 Q 0.41200000000000003 -0.372 0.3895 -0.394 Q 0.367 -0.41600000000000004 0.329 -0.41600000000000004 Q 0.25 -0.41600000000000004 0.20800000000000002 -0.318 Q 0.194 -0.28400000000000003 0.176 -0.212 Q 0.158 -0.14 0.158 -0.10400000000000001 Q 0.158 -0.028 0.225 -0.028 Q 0.259 -0.028 0.292 -0.0465 Q 0.325 -0.065 0.34900000000000003 -0.093 Z"/></g><g transform="translate(19.778633740740744,14.509259814814815)"><path fill="rgb(0,0,0)" stroke="none" paint-order="stroke fill markers" d=" M 0.28 -0.376 Q 0.35100000000000003 -0.452 0.445 -0.452 Q 0.509 -0.452 0.5515 -0.4255 Q 0.594 -0.399 0.594 -0.336 Q 0.594 -0.281 0.532 -0.122 Q 0.512 -0.07200000000000001 0.512 -0.049 Q 0.512 -0.039 0.515 -0.034 Q 0.518 -0.029 0.521 -0.0285 Q 0.524 -0.028 0.529 -0.028 Q 0.538 -0.028 0.548 -0.032 Q 0.558 -0.036000000000000004 0.5735 -0.0465 Q 0.589 -0.057 0.6045 -0.0835 Q 0.62 -0.11 0.632 -0.149 Q 0.636 -0.162 0.655 -0.162 Q 0.679 -0.162 0.679 -0.148 Q 0.679 -0.138 0.669 -0.1145 Q 0.659 -0.091 0.641 -0.0625 Q 0.623 -0.034 0.5915 -0.013000000000000001 Q 0.56 0.008 0.523 0.008 Q 0.47800000000000004 0.008 0.444 -0.0165 Q 0.41000000000000003 -0.041 0.41000000000000003 -0.082 Q 0.41000000000000003 -0.099 0.424 -0.133 Q 0.487 -0.299 0.487 -0.357 Q 0.487 -0.41600000000000004 0.437 -0.41600000000000004 Q 0.384 -0.41600000000000004 0.334 -0.377 Q 0.312 -0.359 0.2925 -0.3325 Q 0.273 -0.306 0.272 -0.299 Q 0.271 -0.297 0.257 -0.241 Q 0.243 -0.185 0.241 -0.18 Q 0.227 -0.12 0.213 -0.068 Q 0.209 -0.053 0.20550000000000002 -0.043000000000000003 Q 0.202 -0.033 0.1945 -0.0195 Q 0.187 -0.006 0.17350000000000002 0.001 Q 0.16 0.008 0.14200000000000002 0.008 Q 0.12 0.008 0.1075 -0.0055 Q 0.095 -0.019 0.095 -0.036000000000000004 Q 0.095 -0.039 0.10300000000000001 -0.076 L 0.139 -0.216 Q 0.14400000000000002 -0.23800000000000002 0.161 -0.306 Q 0.17500000000000002 -0.362 0.17500000000000002 -0.379 Q 0.17500000000000002 -0.41600000000000004 0.152 -0.41600000000000004 Q 0.11 -0.41600000000000004 0.084 -0.316 Q 0.077 -0.28800000000000003 0.076 -0.28700000000000003 Q 0.07100000000000001 -0.28200000000000003 0.056 -0.28200000000000003 Q 0.032 -0.28200000000000003 0.032 -0.296 Q 0.032 -0.304 0.043000000000000003 -0.3365 Q 0.054 -0.369 0.07 -0.395 Q 0.105 -0.452 0.157 -0.452 Q 0.2 -0.452 0.23500000000000001 -0.432 Q 0.27 -0.41200000000000003 0.28 -0.376 Z"/></g><g transform="translate(20.491594740740744,14.509259814814815)"><path fill="rgb(0,0,0)" stroke="none" paint-order="stroke fill markers" d=" M 0.316 -0.659 L 0.22 -0.273 Q 0.27 -0.301 0.316 -0.35100000000000003 Q 0.367 -0.4 0.40800000000000003 -0.426 Q 0.449 -0.452 0.491 -0.452 Q 0.524 -0.452 0.5455 -0.43 Q 0.5670000000000001 -0.40800000000000003 0.5670000000000001 -0.37 Q 0.5670000000000001 -0.324 0.5425 -0.305 Q 0.518 -0.28600000000000003 0.495 -0.28600000000000003 Q 0.47200000000000003 -0.28600000000000003 0.4585 -0.3 Q 0.445 -0.314 0.445 -0.332 Q 0.445 -0.355 0.4625 -0.377 Q 0.48 -0.399 0.514 -0.404 Q 0.514 -0.406 0.507 -0.41100000000000003 Q 0.5 -0.41600000000000004 0.488 -0.41600000000000004 Q 0.428 -0.41600000000000004 0.339 -0.328 Q 0.28700000000000003 -0.278 0.25 -0.252 Q 0.28400000000000003 -0.249 0.3085 -0.244 Q 0.333 -0.23900000000000002 0.362 -0.228 Q 0.391 -0.217 0.40700000000000003 -0.1955 Q 0.423 -0.17400000000000002 0.423 -0.14400000000000002 Q 0.423 -0.13 0.42 -0.11900000000000001 Q 0.41200000000000003 -0.088 0.41200000000000003 -0.067 Q 0.41200000000000003 -0.028 0.438 -0.028 Q 0.49 -0.028 0.521 -0.14200000000000002 Q 0.525 -0.156 0.529 -0.159 Q 0.533 -0.162 0.546 -0.162 Q 0.5700000000000001 -0.162 0.5700000000000001 -0.148 Q 0.5700000000000001 -0.14200000000000002 0.562 -0.11950000000000001 Q 0.554 -0.097 0.5395 -0.0675 Q 0.525 -0.038 0.496 -0.015 Q 0.467 0.008 0.433 0.008 Q 0.381 0.008 0.343 -0.02 Q 0.305 -0.048 0.305 -0.095 Q 0.305 -0.106 0.308 -0.11900000000000001 Q 0.311 -0.13 0.311 -0.14 Q 0.311 -0.161 0.298 -0.1765 Q 0.28500000000000003 -0.192 0.2645 -0.2 Q 0.244 -0.20800000000000002 0.2305 -0.211 Q 0.217 -0.214 0.20500000000000002 -0.215 Q 0.16 -0.035 0.159 -0.032 Q 0.14100000000000001 0.008 0.098 0.008 Q 0.077 0.008 0.0635 -0.005 Q 0.05 -0.018000000000000002 0.05 -0.037 Q 0.05 -0.044 0.054 -0.06 L 0.198 -0.637 Q 0.185 -0.639 0.156 -0.639 Q 0.13 -0.639 0.13 -0.657 Q 0.13 -0.67 0.136 -0.677 Q 0.14200000000000002 -0.684 0.147 -0.685 Q 0.152 -0.686 0.162 -0.687 L 0.291 -0.6930000000000001 Q 0.293 -0.6940000000000001 0.298 -0.6940000000000001 Q 0.32 -0.6940000000000001 0.32 -0.676 Q 0.32 -0.673 0.316 -0.659 Z"/></g></g></g></g></svg>