<svg version="1.1" xmlns="http://www.w3.org/2000/svg" xmlns:xlink="http://www.w3.org/1999/xlink" width="939" height="455"><defs><clipPath id="trlaAwlxqOQh"><path fill="none" stroke="none" d=" M 0 0 L 939 0 L 939 455 L 0 455 L 0 0 Z"/></clipPath></defs><g transform="scale(1,1)" clip-path="url(#trlaAwlxqOQh)"><g><rect fill="rgb(255,255,255)" stroke="none" x="0" y="0" width="939" height="455" fill-opacity="1"/><path fill="none" stroke="rgb(0,0,0)" paint-order="fill stroke markers" d=" M 121.02982318630302 102.5021121379679 L 121.02982318630302 202.85322903430946" stroke-opacity="0.6980392156862745" stroke-linecap="round" stroke-linejoin="round" stroke-miterlimit="10" stroke-width="2.5"/><path fill="none" stroke="rgb(0,0,0)" paint-order="fill stroke markers" d=" M 221.38094008264466 202.85322903430946 L 121.02982318630302 202.85322903430946" stroke-opacity="0.6980392156862745" stroke-linecap="round" stroke-linejoin="round" stroke-miterlimit="10" stroke-width="2.5"/><path fill="none" stroke="rgb(0,0,0)" paint-order="fill stroke markers" d=" M 254.83131238142522 202.85322903430946 L 321.7320569789863 269.7539736318705" stroke-opacity="0.6980392156862745" stroke-linecap="round" stroke-linejoin="round" stroke-miterlimit="10" stroke-width="2.5"/><path fill="none" stroke="rgb(0,0,0)" paint-order="fill stroke markers" d=" M 321.7320569789863 135.95248443674842 L 254.83131238142522 202.85322903430946" stroke-opacity="0.6980392156862745" stroke-linecap="round" stroke-linejoin="round" stroke-miterlimit="10" stroke-width="2.5"/><path fill="none" stroke="rgb(0,0,0)" paint-order="fill stroke markers" d=" M 455.53354617410855 135.95248443674842 L 522.4342907716696 202.85322903430946" stroke-opacity="0.6980392156862745" stroke-linecap="round" stroke-linejoin="round" stroke-miterlimit="10" stroke-width="2.5"/><path fill="none" stroke="rgb(0,0,0)" paint-order="fill stroke markers" d=" M 589.3350353692307 135.95248443674842 L 522.4342907716696 202.85322903430946" stroke-opacity="0.6980392156862745" stroke-linecap="round" stroke-linejoin="round" stroke-miterlimit="10" stroke-width="2.5"/><path fill="none" stroke="rgb(0,0,255)" paint-order="fill stroke markers" d=" M 306.34488572154726 151.33965569418746 L 353.6126033057851 194.42139368895585" stroke-opacity="0.6980392156862745" stroke-linejoin="round" stroke-miterlimit="10" stroke-width="2.5" stroke-dasharray="2.5,3"/><path fill="none" stroke="rgb(0,0,0)" paint-order="fill stroke markers" d=" M 698.9311661615093 100.72121431678082 L 698.9311661615093 201.0723312131224" stroke-opacity="0.6980392156862745" stroke-linecap="round" stroke-linejoin="round" stroke-miterlimit="10" stroke-width="2.5"/><path fill="none" stroke="rgb(0,0,0)" paint-order="fill stroke markers" d=" M 698.9311661615093 201.0723312131224 L 790.0372691619141 202.85322903430946" stroke-opacity="0.6980392156862745" stroke-linecap="round" stroke-linejoin="round" stroke-miterlimit="10" stroke-width="2.5"/><path fill="none" stroke="rgb(0,0,255)" paint-order="fill stroke markers" d=" M 306.34488572154726 151.33965569418746 L 454.2552561267993 151.63967672949224" stroke-opacity="0.6980392156862745" stroke-linecap="round" stroke-linejoin="round" stroke-miterlimit="10" stroke-width="2.5"/><path fill="rgb(0,0,255)" stroke="none" paint-order="stroke fill markers" fill-rule="evenodd" d=" M 471.2552211545354 151.67415941717528 L 454.2466354548785 155.88966798642625 L 454.26387679872005 147.38968547255823 Z" fill-opacity="0.6980392156862745"/><path fill="none" stroke="rgb(102,153,0)" paint-order="fill stroke markers" d=" M 201.64522042636415 126.92088391607768 L 338.0762688130758 187.52050167917548" stroke-opacity="0.6980392156862745" stroke-linecap="round" stroke-linejoin="round" stroke-miterlimit="10" stroke-width="2.5"/><path fill="rgb(102,153,0)" stroke="none" paint-order="stroke fill markers" fill-rule="evenodd" d=" M 353.6126033057851 194.42139368895585 L 336.3510458106307 191.4045853023528 L 339.8014918155209 183.63641805599815 Z" fill-opacity="0.6980392156862745"/><path fill="none" stroke="rgb(204,0,0)" paint-order="fill stroke markers" d=" M 471.2552211545354 151.67415941717528 L 681.9603200833754 139.31829240189433" stroke-opacity="0.6980392156862745" stroke-linecap="round" stroke-linejoin="round" stroke-miterlimit="10" stroke-width="2.5"/><path fill="rgb(204,0,0)" stroke="none" paint-order="stroke fill markers" fill-rule="evenodd" d=" M 698.9311661615093 138.323112321563 L 682.2091151034583 143.56100392142778 L 681.7115250632926 135.07558088236087 Z" fill-opacity="0.6980392156862745"/><g transform="scale(27,27)"><g transform="translate(3.888888888888889,3.4166666666666665)"><path fill="rgb(0,0,0)" stroke="none" paint-order="stroke fill markers" d=" M 0.612 -0.365 Q 0.637 -0.365 0.657 -0.355 Q 0.676 -0.362 0.6960000000000001 -0.373 Q 0.754 -0.403 0.795 -0.46 Q 0.835 -0.517 0.835 -0.5660000000000001 Q 0.835 -0.605 0.811 -0.632 Q 0.7010000000000001 -0.547 0.589 -0.365 L 0.612 -0.365 M 0.494 -0.343 Q 0.494 -0.34700000000000003 0.499 -0.355 Q 0.502 -0.358 0.506 -0.358 Q 0.649 -0.548 0.791 -0.65 Q 0.731 -0.6940000000000001 0.608 -0.6940000000000001 Q 0.499 -0.6940000000000001 0.385 -0.634 Q 0.27 -0.5740000000000001 0.20700000000000002 -0.485 Q 0.152 -0.406 0.152 -0.354 L 0.153 -0.342 Q 0.16 -0.28800000000000003 0.226 -0.28800000000000003 Q 0.255 -0.28800000000000003 0.292 -0.317 Q 0.322 -0.34 0.357 -0.39 Q 0.364 -0.4 0.3955 -0.4375 Q 0.427 -0.47500000000000003 0.446 -0.504 Q 0.465 -0.533 0.465 -0.552 L 0.465 -0.558 Q 0.465 -0.5630000000000001 0.47000000000000003 -0.5650000000000001 L 0.486 -0.5710000000000001 Q 0.493 -0.5710000000000001 0.495 -0.5640000000000001 L 0.496 -0.553 Q 0.496 -0.529 0.4805 -0.495 Q 0.465 -0.461 0.452 -0.441 Q 0.439 -0.421 0.41000000000000003 -0.38 Q 0.376 -0.332 0.322 -0.3 Q 0.267 -0.266 0.222 -0.266 Q 0.182 -0.266 0.157 -0.28500000000000003 Q 0.132 -0.304 0.127 -0.337 Q 0.126 -0.343 0.126 -0.354 Q 0.126 -0.417 0.182 -0.495 Q 0.247 -0.586 0.373 -0.652 Q 0.499 -0.717 0.612 -0.717 Q 0.745 -0.717 0.8190000000000001 -0.67 Q 0.8280000000000001 -0.676 0.8445 -0.686 Q 0.861 -0.6960000000000001 0.866 -0.6990000000000001 Q 0.867 -0.7000000000000001 0.869 -0.7000000000000001 Q 0.876 -0.7000000000000001 0.878 -0.6940000000000001 L 0.88 -0.683 Q 0.88 -0.68 0.876 -0.677 L 0.84 -0.654 L 0.854 -0.64 Q 0.887 -0.604 0.887 -0.557 Q 0.887 -0.506 0.847 -0.45 Q 0.807 -0.395 0.724 -0.354 Q 0.712 -0.34900000000000003 0.68 -0.337 Q 0.686 -0.329 0.6900000000000001 -0.315 Q 0.6920000000000001 -0.309 0.6920000000000001 -0.296 Q 0.6920000000000001 -0.253 0.658 -0.20500000000000002 L 0.583 -0.1 Q 0.556 -0.06 0.556 -0.033 Q 0.556 -0.031 0.5565 -0.029 Q 0.557 -0.027 0.557 -0.026000000000000002 Q 0.558 -0.016 0.5660000000000001 -0.008 Q 0.5760000000000001 -0.006 0.597 -0.006 Q 0.618 -0.006 0.644 -0.021 Q 0.662 -0.033 0.672 -0.042 Q 0.724 -0.084 0.766 -0.145 Q 0.769 -0.148 0.773 -0.148 L 0.784 -0.148 Q 0.788 -0.148 0.789 -0.147 Q 0.793 -0.14300000000000002 0.793 -0.14 Q 0.793 -0.139 0.791 -0.135 Q 0.747 -0.075 0.6910000000000001 -0.032 Q 0.672 -0.017 0.653 -0.006 Q 0.618 0.017 0.593 0.017 Q 0.5750000000000001 0.017 0.559 0.008 Q 0.52 0 0.502 -0.023 Q 0.482 -0.045 0.482 -0.068 Q 0.482 -0.09 0.497 -0.11 L 0.578 -0.223 Q 0.624 -0.28600000000000003 0.629 -0.311 Q 0.63 -0.315 0.63 -0.322 Q 0.596 -0.315 0.562 -0.315 L 0.488 -0.20500000000000002 Q 0.426 -0.117 0.324 -0.053 Q 0.222 0.011 0.137 0.011 Q 0.078 0.011 0.038 -0.0085 Q -0.002 -0.028 -0.002 -0.064 Q -0.002 -0.09 0.022 -0.124 Q 0.042 -0.153 0.08 -0.153 Q 0.113 -0.153 0.113 -0.11900000000000001 Q 0.113 -0.105 0.0955 -0.093 Q 0.078 -0.081 0.058 -0.081 Q 0.042 -0.081 0.033 -0.089 Q 0.028 -0.076 0.028 -0.067 Q 0.028 -0.04 0.059000000000000004 -0.025500000000000002 Q 0.09 -0.011 0.14100000000000001 -0.011 Q 0.2 -0.011 0.271 -0.07050000000000001 Q 0.342 -0.13 0.403 -0.215 L 0.494 -0.343 M 0.608 -0.342 L 0.5750000000000001 -0.342 Q 0.5740000000000001 -0.341 0.5720000000000001 -0.337 Q 0.596 -0.339 0.611 -0.342 L 0.608 -0.342 Z"/></g><g transform="translate(4.801478888888889,3.4166666666666665)"><path fill="rgb(0,0,0)" stroke="none" paint-order="stroke fill markers" d=" M 0.331 0.24 L 0.331 0.24 Q 0.331 0.25 0.321 0.25 Q 0.309 0.25 0.268 0.209 Q 0.20600000000000002 0.147 0.165 0.062 Q 0.099 -0.074 0.099 -0.25 Q 0.099 -0.419 0.162 -0.555 Q 0.214 -0.666 0.294 -0.733 Q 0.315 -0.75 0.321 -0.75 Q 0.331 -0.75 0.331 -0.74 Q 0.331 -0.735 0.318 -0.723 Q 0.157 -0.559 0.157 -0.25 Q 0.157 0.058 0.314 0.218 Q 0.331 0.23500000000000001 0.331 0.24 Z"/></g><g transform="translate(5.190368888888889,3.4166666666666665)"><path fill="rgb(0,0,0)" stroke="none" paint-order="stroke fill markers" d=" M 0.179 -0.115 L 0.527 -0.6990000000000001 Q 0.537 -0.715 0.553 -0.716 Q 0.5680000000000001 -0.716 0.5700000000000001 -0.706 Q 0.5710000000000001 -0.7030000000000001 0.5720000000000001 -0.6920000000000001 L 0.633 -0.067 Q 0.636 -0.042 0.645 -0.037 L 0.646 -0.037 L 0.646 -0.037 L 0.646 -0.037 L 0.646 -0.037 L 0.646 -0.036000000000000004 Q 0.658 -0.031 0.6980000000000001 -0.031 Q 0.72 -0.031 0.721 -0.02 Q 0.721 0 0.7030000000000001 0 L 0.591 -0.003 L 0.59 -0.003 L 0.466 0 L 0.465 0 Q 0.451 0 0.451 -0.011 Q 0.459 -0.03 0.47500000000000003 -0.031 Q 0.547 -0.031 0.547 -0.064 Q 0.547 -0.063 0.531 -0.231 L 0.28 -0.231 L 0.20400000000000001 -0.10300000000000001 Q 0.19 -0.078 0.19 -0.066 Q 0.19 -0.035 0.23700000000000002 -0.031 Q 0.253 -0.031 0.253 -0.019 Q 0.253 0 0.234 0 L 0.138 -0.003 L 0.134 -0.003 L 0.05 0 L 0.048 0 Q 0.035 0 0.035 -0.011 Q 0.035 -0.029 0.05 -0.03 L 0.05 -0.031 L 0.056 -0.031 Q 0.11900000000000001 -0.035 0.159 -0.085 Q 0.169 -0.098 0.179 -0.115 M 0.299 -0.262 L 0.528 -0.262 L 0.496 -0.592 L 0.299 -0.262 Z"/></g><g transform="translate(5.940370888888889,3.4166666666666665)"><path fill="rgb(0,0,0)" stroke="none" paint-order="stroke fill markers" d=" M 0.289 -0.25 L 0.289 -0.25 Q 0.289 -0.081 0.226 0.055 Q 0.17400000000000002 0.166 0.094 0.233 Q 0.073 0.25 0.067 0.25 Q 0.057 0.25 0.057 0.24 Q 0.057 0.23500000000000001 0.07 0.223 Q 0.231 0.059000000000000004 0.231 -0.25 Q 0.231 -0.555 0.081 -0.712 L 0.076 -0.717 Q 0.057 -0.735 0.057 -0.74 Q 0.057 -0.75 0.067 -0.75 Q 0.079 -0.75 0.12 -0.709 Q 0.182 -0.647 0.223 -0.562 Q 0.289 -0.426 0.289 -0.25 Z"/></g></g><g transform="scale(27,27)"><g transform="translate(11.481481481481481,4.675925925925926)"><path fill="rgb(0,0,0)" stroke="none" paint-order="stroke fill markers" d=" M 0.612 -0.365 Q 0.637 -0.365 0.657 -0.355 Q 0.676 -0.362 0.6960000000000001 -0.373 Q 0.754 -0.403 0.795 -0.46 Q 0.835 -0.517 0.835 -0.5660000000000001 Q 0.835 -0.605 0.811 -0.632 Q 0.7010000000000001 -0.547 0.589 -0.365 L 0.612 -0.365 M 0.494 -0.343 Q 0.494 -0.34700000000000003 0.499 -0.355 Q 0.502 -0.358 0.506 -0.358 Q 0.649 -0.548 0.791 -0.65 Q 0.731 -0.6940000000000001 0.608 -0.6940000000000001 Q 0.499 -0.6940000000000001 0.385 -0.634 Q 0.27 -0.5740000000000001 0.20700000000000002 -0.485 Q 0.152 -0.406 0.152 -0.354 L 0.153 -0.342 Q 0.16 -0.28800000000000003 0.226 -0.28800000000000003 Q 0.255 -0.28800000000000003 0.292 -0.317 Q 0.322 -0.34 0.357 -0.39 Q 0.364 -0.4 0.3955 -0.4375 Q 0.427 -0.47500000000000003 0.446 -0.504 Q 0.465 -0.533 0.465 -0.552 L 0.465 -0.558 Q 0.465 -0.5630000000000001 0.47000000000000003 -0.5650000000000001 L 0.486 -0.5710000000000001 Q 0.493 -0.5710000000000001 0.495 -0.5640000000000001 L 0.496 -0.553 Q 0.496 -0.529 0.4805 -0.495 Q 0.465 -0.461 0.452 -0.441 Q 0.439 -0.421 0.41000000000000003 -0.38 Q 0.376 -0.332 0.322 -0.3 Q 0.267 -0.266 0.222 -0.266 Q 0.182 -0.266 0.157 -0.28500000000000003 Q 0.132 -0.304 0.127 -0.337 Q 0.126 -0.343 0.126 -0.354 Q 0.126 -0.417 0.182 -0.495 Q 0.247 -0.586 0.373 -0.652 Q 0.499 -0.717 0.612 -0.717 Q 0.745 -0.717 0.8190000000000001 -0.67 Q 0.8280000000000001 -0.676 0.8445 -0.686 Q 0.861 -0.6960000000000001 0.866 -0.6990000000000001 Q 0.867 -0.7000000000000001 0.869 -0.7000000000000001 Q 0.876 -0.7000000000000001 0.878 -0.6940000000000001 L 0.88 -0.683 Q 0.88 -0.68 0.876 -0.677 L 0.84 -0.654 L 0.854 -0.64 Q 0.887 -0.604 0.887 -0.557 Q 0.887 -0.506 0.847 -0.45 Q 0.807 -0.395 0.724 -0.354 Q 0.712 -0.34900000000000003 0.68 -0.337 Q 0.686 -0.329 0.6900000000000001 -0.315 Q 0.6920000000000001 -0.309 0.6920000000000001 -0.296 Q 0.6920000000000001 -0.253 0.658 -0.20500000000000002 L 0.583 -0.1 Q 0.556 -0.06 0.556 -0.033 Q 0.556 -0.031 0.5565 -0.029 Q 0.557 -0.027 0.557 -0.026000000000000002 Q 0.558 -0.016 0.5660000000000001 -0.008 Q 0.5760000000000001 -0.006 0.597 -0.006 Q 0.618 -0.006 0.644 -0.021 Q 0.662 -0.033 0.672 -0.042 Q 0.724 -0.084 0.766 -0.145 Q 0.769 -0.148 0.773 -0.148 L 0.784 -0.148 Q 0.788 -0.148 0.789 -0.147 Q 0.793 -0.14300000000000002 0.793 -0.14 Q 0.793 -0.139 0.791 -0.135 Q 0.747 -0.075 0.6910000000000001 -0.032 Q 0.672 -0.017 0.653 -0.006 Q 0.618 0.017 0.593 0.017 Q 0.5750000000000001 0.017 0.559 0.008 Q 0.52 0 0.502 -0.023 Q 0.482 -0.045 0.482 -0.068 Q 0.482 -0.09 0.497 -0.11 L 0.578 -0.223 Q 0.624 -0.28600000000000003 0.629 -0.311 Q 0.63 -0.315 0.63 -0.322 Q 0.596 -0.315 0.562 -0.315 L 0.488 -0.20500000000000002 Q 0.426 -0.117 0.324 -0.053 Q 0.222 0.011 0.137 0.011 Q 0.078 0.011 0.038 -0.0085 Q -0.002 -0.028 -0.002 -0.064 Q -0.002 -0.09 0.022 -0.124 Q 0.042 -0.153 0.08 -0.153 Q 0.113 -0.153 0.113 -0.11900000000000001 Q 0.113 -0.105 0.0955 -0.093 Q 0.078 -0.081 0.058 -0.081 Q 0.042 -0.081 0.033 -0.089 Q 0.028 -0.076 0.028 -0.067 Q 0.028 -0.04 0.059000000000000004 -0.025500000000000002 Q 0.09 -0.011 0.14100000000000001 -0.011 Q 0.2 -0.011 0.271 -0.07050000000000001 Q 0.342 -0.13 0.403 -0.215 L 0.494 -0.343 M 0.608 -0.342 L 0.5750000000000001 -0.342 Q 0.5740000000000001 -0.341 0.5720000000000001 -0.337 Q 0.596 -0.339 0.611 -0.342 L 0.608 -0.342 Z"/></g><g transform="translate(12.39407148148148,4.675925925925926)"><path fill="rgb(0,0,0)" stroke="none" paint-order="stroke fill markers" d=" M 0.331 0.24 L 0.331 0.24 Q 0.331 0.25 0.321 0.25 Q 0.309 0.25 0.268 0.209 Q 0.20600000000000002 0.147 0.165 0.062 Q 0.099 -0.074 0.099 -0.25 Q 0.099 -0.419 0.162 -0.555 Q 0.214 -0.666 0.294 -0.733 Q 0.315 -0.75 0.321 -0.75 Q 0.331 -0.75 0.331 -0.74 Q 0.331 -0.735 0.318 -0.723 Q 0.157 -0.559 0.157 -0.25 Q 0.157 0.058 0.314 0.218 Q 0.331 0.23500000000000001 0.331 0.24 Z"/></g><g transform="translate(12.78296148148148,4.675925925925926)"><path fill="rgb(0,0,0)" stroke="none" paint-order="stroke fill markers" d=" M 0.179 -0.115 L 0.527 -0.6990000000000001 Q 0.537 -0.715 0.553 -0.716 Q 0.5680000000000001 -0.716 0.5700000000000001 -0.706 Q 0.5710000000000001 -0.7030000000000001 0.5720000000000001 -0.6920000000000001 L 0.633 -0.067 Q 0.636 -0.042 0.645 -0.037 L 0.646 -0.037 L 0.646 -0.037 L 0.646 -0.037 L 0.646 -0.037 L 0.646 -0.036000000000000004 Q 0.658 -0.031 0.6980000000000001 -0.031 Q 0.72 -0.031 0.721 -0.02 Q 0.721 0 0.7030000000000001 0 L 0.591 -0.003 L 0.59 -0.003 L 0.466 0 L 0.465 0 Q 0.451 0 0.451 -0.011 Q 0.459 -0.03 0.47500000000000003 -0.031 Q 0.547 -0.031 0.547 -0.064 Q 0.547 -0.063 0.531 -0.231 L 0.28 -0.231 L 0.20400000000000001 -0.10300000000000001 Q 0.19 -0.078 0.19 -0.066 Q 0.19 -0.035 0.23700000000000002 -0.031 Q 0.253 -0.031 0.253 -0.019 Q 0.253 0 0.234 0 L 0.138 -0.003 L 0.134 -0.003 L 0.05 0 L 0.048 0 Q 0.035 0 0.035 -0.011 Q 0.035 -0.029 0.05 -0.03 L 0.05 -0.031 L 0.056 -0.031 Q 0.11900000000000001 -0.035 0.159 -0.085 Q 0.169 -0.098 0.179 -0.115 M 0.299 -0.262 L 0.528 -0.262 L 0.496 -0.592 L 0.299 -0.262 Z"/></g><g transform="translate(13.532963481481481,4.675925925925926)"><path fill="rgb(0,0,0)" stroke="none" paint-order="stroke fill markers" d=" M 0.289 -0.25 L 0.289 -0.25 Q 0.289 -0.081 0.226 0.055 Q 0.17400000000000002 0.166 0.094 0.233 Q 0.073 0.25 0.067 0.25 Q 0.057 0.25 0.057 0.24 Q 0.057 0.23500000000000001 0.07 0.223 Q 0.231 0.059000000000000004 0.231 -0.25 Q 0.231 -0.555 0.081 -0.712 L 0.076 -0.717 Q 0.057 -0.735 0.057 -0.74 Q 0.057 -0.75 0.067 -0.75 Q 0.079 -0.75 0.12 -0.709 Q 0.182 -0.647 0.223 -0.562 Q 0.289 -0.426 0.289 -0.25 Z"/></g></g><g transform="scale(27,27)"><g transform="translate(16,4.601851851851851)"><path fill="rgb(0,0,0)" stroke="none" paint-order="stroke fill markers" d=" M 0.34500000000000003 -0.088 Q 0.34800000000000003 -0.085 0.34800000000000003 -0.081 Q 0.34800000000000003 -0.08 0.34600000000000003 -0.076 L 0.343 -0.073 L 0.336 -0.07100000000000001 Q 0.335 -0.07 0.332 -0.07 Q 0.33 -0.07 0.329 -0.07100000000000001 Q 0.304 -0.08600000000000001 0.304 -0.117 Q 0.304 -0.148 0.331 -0.188 Q 0.359 -0.229 0.405 -0.261 Q 0.449 -0.291 0.483 -0.291 Q 0.561 -0.291 0.5760000000000001 -0.233 Q 0.579 -0.222 0.579 -0.211 Q 0.579 -0.162 0.536 -0.1 Q 0.502 -0.051000000000000004 0.437 -0.016 Q 0.373 0.019 0.317 0.019 Q 0.254 0.019 0.2165 -0.011 Q 0.179 -0.041 0.17400000000000002 -0.094 Q 0.17300000000000001 -0.101 0.17300000000000001 -0.116 Q 0.17300000000000001 -0.219 0.266 -0.35000000000000003 L 0.245 -0.35000000000000003 Q 0.108 -0.35000000000000003 0.052000000000000005 -0.41200000000000003 Q 0.026000000000000002 -0.441 0.026000000000000002 -0.48 Q 0.026000000000000002 -0.521 0.057 -0.5650000000000001 Q 0.089 -0.611 0.16 -0.644 Q 0.23 -0.676 0.298 -0.676 Q 0.306 -0.676 0.306 -0.668 Q 0.306 -0.667 0.301 -0.657 Q 0.298 -0.654 0.294 -0.654 Q 0.241 -0.654 0.188 -0.626 Q 0.14 -0.599 0.109 -0.555 Q 0.077 -0.508 0.077 -0.46900000000000003 Q 0.077 -0.442 0.09 -0.426 Q 0.13 -0.372 0.249 -0.372 Q 0.271 -0.372 0.28200000000000003 -0.373 Q 0.382 -0.509 0.511 -0.608 Q 0.649 -0.714 0.74 -0.714 Q 0.802 -0.714 0.811 -0.664 Q 0.812 -0.66 0.812 -0.651 Q 0.812 -0.608 0.774 -0.556 Q 0.714 -0.47000000000000003 0.559 -0.41000000000000003 Q 0.464 -0.373 0.364 -0.358 Q 0.242 -0.188 0.23500000000000001 -0.097 L 0.23500000000000001 -0.08600000000000001 Q 0.23500000000000001 -0.048 0.2565 -0.025500000000000002 Q 0.278 -0.003 0.321 -0.003 Q 0.362 -0.003 0.40800000000000003 -0.033 Q 0.448 -0.059000000000000004 0.484 -0.11 Q 0.534 -0.18 0.534 -0.223 L 0.534 -0.227 Q 0.532 -0.269 0.47900000000000004 -0.269 Q 0.454 -0.269 0.419 -0.244 Q 0.384 -0.219 0.356 -0.179 Q 0.332 -0.145 0.332 -0.11800000000000001 Q 0.332 -0.099 0.34500000000000003 -0.088 M 0.34600000000000003 -0.076 L 0.34700000000000003 -0.085 L 0.34700000000000003 -0.084 Q 0.34800000000000003 -0.083 0.34800000000000003 -0.081 Q 0.34800000000000003 -0.078 0.34600000000000003 -0.076 M 0.736 -0.6920000000000001 Q 0.674 -0.6920000000000001 0.562 -0.592 Q 0.47800000000000004 -0.517 0.381 -0.383 Q 0.461 -0.395 0.548 -0.428 Q 0.6930000000000001 -0.484 0.75 -0.5650000000000001 Q 0.786 -0.617 0.786 -0.649 L 0.785 -0.658 Q 0.78 -0.6920000000000001 0.736 -0.6920000000000001 Z"/></g><g transform="translate(16.835092,4.601851851851851)"><path fill="rgb(0,0,0)" stroke="none" paint-order="stroke fill markers" d=" M 0.331 0.24 L 0.331 0.24 Q 0.331 0.25 0.321 0.25 Q 0.309 0.25 0.268 0.209 Q 0.20600000000000002 0.147 0.165 0.062 Q 0.099 -0.074 0.099 -0.25 Q 0.099 -0.419 0.162 -0.555 Q 0.214 -0.666 0.294 -0.733 Q 0.315 -0.75 0.321 -0.75 Q 0.331 -0.75 0.331 -0.74 Q 0.331 -0.735 0.318 -0.723 Q 0.157 -0.559 0.157 -0.25 Q 0.157 0.058 0.314 0.218 Q 0.331 0.23500000000000001 0.331 0.24 Z"/></g><g transform="translate(17.223982,4.601851851851851)"><path fill="rgb(0,0,0)" stroke="none" paint-order="stroke fill markers" d=" M 0.179 -0.115 L 0.527 -0.6990000000000001 Q 0.537 -0.715 0.553 -0.716 Q 0.5680000000000001 -0.716 0.5700000000000001 -0.706 Q 0.5710000000000001 -0.7030000000000001 0.5720000000000001 -0.6920000000000001 L 0.633 -0.067 Q 0.636 -0.042 0.645 -0.037 L 0.646 -0.037 L 0.646 -0.037 L 0.646 -0.037 L 0.646 -0.037 L 0.646 -0.036000000000000004 Q 0.658 -0.031 0.6980000000000001 -0.031 Q 0.72 -0.031 0.721 -0.02 Q 0.721 0 0.7030000000000001 0 L 0.591 -0.003 L 0.59 -0.003 L 0.466 0 L 0.465 0 Q 0.451 0 0.451 -0.011 Q 0.459 -0.03 0.47500000000000003 -0.031 Q 0.547 -0.031 0.547 -0.064 Q 0.547 -0.063 0.531 -0.231 L 0.28 -0.231 L 0.20400000000000001 -0.10300000000000001 Q 0.19 -0.078 0.19 -0.066 Q 0.19 -0.035 0.23700000000000002 -0.031 Q 0.253 -0.031 0.253 -0.019 Q 0.253 0 0.234 0 L 0.138 -0.003 L 0.134 -0.003 L 0.05 0 L 0.048 0 Q 0.035 0 0.035 -0.011 Q 0.035 -0.029 0.05 -0.03 L 0.05 -0.031 L 0.056 -0.031 Q 0.11900000000000001 -0.035 0.159 -0.085 Q 0.169 -0.098 0.179 -0.115 M 0.299 -0.262 L 0.528 -0.262 L 0.496 -0.592 L 0.299 -0.262 Z"/></g><g transform="translate(17.973983999999998,4.601851851851851)"><path fill="rgb(0,0,0)" stroke="none" paint-order="stroke fill markers" d=" M 0.289 -0.25 L 0.289 -0.25 Q 0.289 -0.081 0.226 0.055 Q 0.17400000000000002 0.166 0.094 0.233 Q 0.073 0.25 0.067 0.25 Q 0.057 0.25 0.057 0.24 Q 0.057 0.23500000000000001 0.07 0.223 Q 0.231 0.059000000000000004 0.231 -0.25 Q 0.231 -0.555 0.081 -0.712 L 0.076 -0.717 Q 0.057 -0.735 0.057 -0.74 Q 0.057 -0.75 0.067 -0.75 Q 0.079 -0.75 0.12 -0.709 Q 0.182 -0.647 0.223 -0.562 Q 0.289 -0.426 0.289 -0.25 Z"/></g></g><g transform="scale(27,27)"><g transform="translate(20.85185185185185,4.621225777777777)"><path fill="rgb(0,0,0)" stroke="none" paint-order="stroke fill markers" d=" M 0.789 -0.7000000000000001 L 0.8 -0.7000000000000001 Q 0.808 -0.7000000000000001 0.808 -0.6920000000000001 Q 0.808 -0.6890000000000001 0.807 -0.6880000000000001 Q 0.764 -0.624 0.764 -0.495 Q 0.764 -0.457 0.768 -0.40650000000000003 Q 0.772 -0.356 0.772 -0.35000000000000003 L 0.772 -0.334 Q 0.772 -0.28 0.755 -0.217 Q 0.8280000000000001 -0.337 0.914 -0.46 Q 0.979 -0.552 1.046 -0.6185 Q 1.113 -0.685 1.195 -0.719 L 1.199 -0.719 Q 1.206 -0.719 1.206 -0.712 L 1.203 -0.6880000000000001 Q 1.203 -0.684 1.198 -0.681 Q 1.062 -0.625 0.9380000000000001 -0.45 Q 0.777 -0.221 0.665 0.004 Q 0.662 0.008 0.657 0.008 L 0.646 0.008 Q 0.644 0.008 0.643 0.007 Q 0.638 0.005 0.638 0 Q 0.638 -0.003 0.639 -0.004 Q 0.6900000000000001 -0.101 0.6900000000000001 -0.214 Q 0.6900000000000001 -0.241 0.687 -0.2895 Q 0.684 -0.338 0.683 -0.35000000000000003 L 0.687 -0.461 L 0.6910000000000001 -0.483 Q 0.6950000000000001 -0.505 0.7020000000000001 -0.535 L 0.466 -0.20500000000000002 Q 0.397 -0.111 0.316 -0.0445 Q 0.23500000000000001 0.022 0.165 0.022 Q 0.108 0.022 0.07050000000000001 0.0015 Q 0.033 -0.019 0.033 -0.057 Q 0.033 -0.08600000000000001 0.059000000000000004 -0.124 Q 0.079 -0.153 0.116 -0.153 Q 0.149 -0.153 0.149 -0.11900000000000001 Q 0.149 -0.105 0.1305 -0.0925 Q 0.112 -0.08 0.092 -0.08 Q 0.07200000000000001 -0.08 0.063 -0.095 Q 0.054 -0.076 0.054 -0.061 Q 0.054 -0.031 0.0855 -0.0155 Q 0.117 0 0.169 0 Q 0.231 0 0.3045 -0.0625 Q 0.378 -0.125 0.442 -0.215 L 0.782 -0.6970000000000001 Q 0.785 -0.7000000000000001 0.789 -0.7000000000000001 Z"/></g><g transform="translate(22.10585535185185,4.621225777777777)"><path fill="rgb(0,0,0)" stroke="none" paint-order="stroke fill markers" d=" M 0.331 0.24 L 0.331 0.24 Q 0.331 0.25 0.321 0.25 Q 0.309 0.25 0.268 0.209 Q 0.20600000000000002 0.147 0.165 0.062 Q 0.099 -0.074 0.099 -0.25 Q 0.099 -0.419 0.162 -0.555 Q 0.214 -0.666 0.294 -0.733 Q 0.315 -0.75 0.321 -0.75 Q 0.331 -0.75 0.331 -0.74 Q 0.331 -0.735 0.318 -0.723 Q 0.157 -0.559 0.157 -0.25 Q 0.157 0.058 0.314 0.218 Q 0.331 0.23500000000000001 0.331 0.24 Z"/></g><g transform="translate(22.49474535185185,4.621225777777777)"><path fill="rgb(0,0,0)" stroke="none" paint-order="stroke fill markers" d=" M 0.179 -0.115 L 0.527 -0.6990000000000001 Q 0.537 -0.715 0.553 -0.716 Q 0.5680000000000001 -0.716 0.5700000000000001 -0.706 Q 0.5710000000000001 -0.7030000000000001 0.5720000000000001 -0.6920000000000001 L 0.633 -0.067 Q 0.636 -0.042 0.645 -0.037 L 0.646 -0.037 L 0.646 -0.037 L 0.646 -0.037 L 0.646 -0.037 L 0.646 -0.036000000000000004 Q 0.658 -0.031 0.6980000000000001 -0.031 Q 0.72 -0.031 0.721 -0.02 Q 0.721 0 0.7030000000000001 0 L 0.591 -0.003 L 0.59 -0.003 L 0.466 0 L 0.465 0 Q 0.451 0 0.451 -0.011 Q 0.459 -0.03 0.47500000000000003 -0.031 Q 0.547 -0.031 0.547 -0.064 Q 0.547 -0.063 0.531 -0.231 L 0.28 -0.231 L 0.20400000000000001 -0.10300000000000001 Q 0.19 -0.078 0.19 -0.066 Q 0.19 -0.035 0.23700000000000002 -0.031 Q 0.253 -0.031 0.253 -0.019 Q 0.253 0 0.234 0 L 0.138 -0.003 L 0.134 -0.003 L 0.05 0 L 0.048 0 Q 0.035 0 0.035 -0.011 Q 0.035 -0.029 0.05 -0.03 L 0.05 -0.031 L 0.056 -0.031 Q 0.11900000000000001 -0.035 0.159 -0.085 Q 0.169 -0.098 0.179 -0.115 M 0.299 -0.262 L 0.528 -0.262 L 0.496 -0.592 L 0.299 -0.262 Z"/></g><g transform="translate(23.24474735185185,4.208333777777777) scale(0.7,0.7)"><path fill="rgb(0,0,0)" stroke="none" paint-order="stroke fill markers" d=" M 0.20600000000000002 -0.4 L 0.132 -0.105 Q 0.126 -0.08 0.126 -0.057 Q 0.126 -0.011 0.157 -0.011 Q 0.223 -0.011 0.273 -0.108 L 0.28700000000000003 -0.139 Q 0.293 -0.152 0.302 -0.153 Q 0.314 -0.153 0.314 -0.14300000000000002 Q 0.314 -0.13 0.28800000000000003 -0.08600000000000001 Q 0.23 0.011 0.155 0.011 Q 0.097 0.011 0.073 -0.037 Q 0.063 -0.057 0.063 -0.081 Q 0.063 -0.1 0.124 -0.34 L 0.139 -0.4 L 0.051000000000000004 -0.4 Q 0.026000000000000002 -0.4 0.024 -0.40800000000000003 L 0.023 -0.40800000000000003 L 0.023 -0.41200000000000003 Q 0.023 -0.429 0.039 -0.431 L 0.053 -0.431 L 0.147 -0.431 L 0.186 -0.59 Q 0.195 -0.625 0.226 -0.626 Q 0.252 -0.626 0.255 -0.599 Q 0.255 -0.593 0.214 -0.431 L 0.302 -0.431 Q 0.328 -0.431 0.33 -0.42 Q 0.33 -0.402 0.314 -0.4 L 0.313 -0.4 L 0.3 -0.4 L 0.20600000000000002 -0.4 Z"/></g><g transform="translate(23.515975785368518,4.621225777777777)"><path fill="rgb(0,0,0)" stroke="none" paint-order="stroke fill markers" d=" M 0.289 -0.25 L 0.289 -0.25 Q 0.289 -0.081 0.226 0.055 Q 0.17400000000000002 0.166 0.094 0.233 Q 0.073 0.25 0.067 0.25 Q 0.057 0.25 0.057 0.24 Q 0.057 0.23500000000000001 0.07 0.223 Q 0.231 0.059000000000000004 0.231 -0.25 Q 0.231 -0.555 0.081 -0.712 L 0.076 -0.717 Q 0.057 -0.735 0.057 -0.74 Q 0.057 -0.75 0.067 -0.75 Q 0.079 -0.75 0.12 -0.709 Q 0.182 -0.647 0.223 -0.562 Q 0.289 -0.426 0.289 -0.25 Z"/></g></g><text fill="rgb(102,153,0)" stroke="none" font-family="geogebra-serif, serif" font-size="24px" font-style="normal" font-weight="bold" text-decoration="normal" x="179" y="131" text-anchor="start" dominant-baseline="alphabetic" fill-opacity="1">x</text><g transform="scale(27,27)"><g transform="translate(7.222222222222222,12.713830668518519)"><path fill="rgb(102,153,0)" stroke="none" paint-order="stroke fill markers" d=" M 0.334 -0.302 L 0.3 -0.165 Q 0.28300000000000003 -0.097 0.28300000000000003 -0.077 Q 0.28300000000000003 -0.025 0.32 -0.014 Q 0.328 -0.011 0.338 -0.011 Q 0.388 -0.011 0.429 -0.061 Q 0.456 -0.093 0.47100000000000003 -0.14200000000000002 Q 0.47400000000000003 -0.153 0.484 -0.153 Q 0.496 -0.153 0.496 -0.14300000000000002 Q 0.496 -0.11800000000000001 0.465 -0.07100000000000001 Q 0.41100000000000003 0.011 0.336 0.011 Q 0.268 0.011 0.23700000000000002 -0.046 Q 0.231 -0.055 0.228 -0.065 Q 0.20400000000000001 -0.017 0.162 0.002 Q 0.14300000000000002 0.011 0.123 0.011 Q 0.063 0.011 0.039 -0.024 Q 0.029 -0.037 0.029 -0.055 Q 0.029 -0.092 0.061 -0.107 Q 0.07200000000000001 -0.113 0.084 -0.113 Q 0.114 -0.113 0.12 -0.088 Q 0.121 -0.083 0.121 -0.078 Q 0.121 -0.044 0.08700000000000001 -0.028 Q 0.081 -0.025 0.074 -0.024 Q 0.095 -0.011 0.124 -0.011 Q 0.177 -0.011 0.20800000000000002 -0.082 Q 0.214 -0.097 0.219 -0.115 Q 0.273 -0.319 0.273 -0.353 Q 0.267 -0.41500000000000004 0.219 -0.42 Q 0.167 -0.42 0.124 -0.367 L 0.124 -0.366 Q 0.124 -0.365 0.123 -0.365 Q 0.108 -0.34500000000000003 0.096 -0.319 Q 0.091 -0.307 0.08700000000000001 -0.295 L 0.085 -0.289 Q 0.083 -0.278 0.07200000000000001 -0.278 Q 0.06 -0.278 0.06 -0.28800000000000003 Q 0.06 -0.313 0.092 -0.36 Q 0.146 -0.442 0.221 -0.442 Q 0.298 -0.442 0.329 -0.366 Q 0.361 -0.428 0.41400000000000003 -0.44 Q 0.424 -0.442 0.434 -0.442 Q 0.493 -0.442 0.517 -0.40900000000000003 Q 0.527 -0.395 0.527 -0.376 Q 0.527 -0.335 0.49 -0.321 Q 0.481 -0.318 0.47300000000000003 -0.318 Q 0.442 -0.318 0.436 -0.34500000000000003 Q 0.435 -0.34900000000000003 0.435 -0.353 Q 0.435 -0.383 0.464 -0.4 Q 0.47300000000000003 -0.405 0.483 -0.40700000000000003 Q 0.462 -0.42 0.433 -0.42 Q 0.365 -0.42 0.337 -0.314 Q 0.335 -0.308 0.334 -0.302 Z"/></g><g transform="translate(8.400695327777779,12.21907314074074) scale(0.7,0.7)"><path fill="rgb(102,153,0)" stroke="none" paint-order="stroke fill markers" d=" M 0.628 -0.5690000000000001 L 0.268 0.004 Q 0.252 0.021 0.24 0.022 Q 0.226 0.022 0.222 0.01 Q 0.221 0.006 0.22 -0.001 L 0.14100000000000001 -0.618 Q 0.138 -0.641 0.127 -0.646 Q 0.116 -0.652 0.081 -0.652 Q 0.058 -0.652 0.056 -0.664 Q 0.056 -0.683 0.075 -0.683 L 0.128 -0.681 L 0.129 -0.681 L 0.182 -0.68 L 0.184 -0.68 L 0.307 -0.683 L 0.308 -0.683 Q 0.322 -0.683 0.322 -0.672 Q 0.314 -0.653 0.297 -0.652 Q 0.233 -0.652 0.228 -0.622 L 0.296 -0.093 L 0.603 -0.581 L 0.616 -0.609 Q 0.618 -0.615 0.618 -0.619 Q 0.618 -0.649 0.5720000000000001 -0.652 Q 0.556 -0.652 0.556 -0.664 Q 0.556 -0.683 0.5750000000000001 -0.683 L 0.673 -0.68 L 0.674 -0.68 L 0.754 -0.683 L 0.756 -0.683 Q 0.769 -0.683 0.769 -0.671 Q 0.769 -0.653 0.756 -0.652 Q 0.704 -0.649 0.674 -0.624 Q 0.663 -0.615 0.652 -0.602 Q 0.64 -0.588 0.628 -0.5690000000000001 Z"/></g><g transform="translate(8.182640277777779,12.697059585185185)" fill="rgb(102,153,0)"><path fill="" stroke="none" paint-order="stroke fill markers" d=" M 0.089 -0.23 Q 0.059 -0.235 0.056 -0.25 Q 0.056 -0.27 0.089 -0.27 L 0.9007799555555553 -0.27 Q 0.8327799555555554 -0.32 0.7987799555555554 -0.399 L 0.7977799555555554 -0.4 Q 0.7927799555555554 -0.413 0.7927799555555554 -0.416 Q 0.7927799555555554 -0.428 0.8077799555555554 -0.428 Q 0.8187799555555554 -0.428 0.8247799555555554 -0.414 Q 0.8687799555555553 -0.315 0.9607799555555554 -0.268 L 0.9617799555555554 -0.268 L 0.9627799555555554 -0.267 L 0.9637799555555554 -0.267 Q 0.9707799555555554 -0.263 0.9777799555555554 -0.26 Q 0.9817799555555553 -0.26 0.9847799555555553 -0.25 Q 0.9847799555555553 -0.243 0.9757799555555554 -0.238 Q 0.9737799555555554 -0.238 0.9707799555555554 -0.236 Q 0.8717799555555553 -0.189 0.8257799555555554 -0.086 L 0.8257799555555554 -0.086 Q 0.8247799555555554 -0.085 0.8237799555555554 -0.082 Q 0.8187799555555554 -0.072 0.8077799555555554 -0.072 Q 0.7927799555555554 -0.072 0.7927799555555554 -0.084 Q 0.7927799555555554 -0.099 0.8217799555555554 -0.144 Q 0.8547799555555554 -0.196 0.9007799555555553 -0.23 L 0.9007799555555553 -0.23 Z"/><g transform="translate(-8.182640277777779,-12.697059585185185)"><g transform="translate(9.635072333333333,12.713830668518519)"><path fill="" stroke="none" paint-order="stroke fill markers" d=" M 0.4 -0.668 L 0.41600000000000004 -0.653 Q 0.363 -0.595 0.34400000000000003 -0.584 Q 0.328 -0.5750000000000001 0.308 -0.5750000000000001 Q 0.28500000000000003 -0.5750000000000001 0.246 -0.598 Q 0.20400000000000001 -0.623 0.181 -0.623 Q 0.14 -0.623 0.10200000000000001 -0.579 L 0.099 -0.5750000000000001 L 0.083 -0.59 Q 0.136 -0.648 0.155 -0.659 Q 0.171 -0.668 0.191 -0.668 Q 0.214 -0.668 0.253 -0.645 Q 0.296 -0.62 0.318 -0.62 Q 0.359 -0.62 0.397 -0.664 L 0.4 -0.668 Z"/></g><g transform="translate(9.571530333333333,12.713830668518519)"><path fill="rgb(102,153,0)" stroke="none" paint-order="stroke fill markers" d=" M 0.334 -0.302 L 0.3 -0.165 Q 0.28300000000000003 -0.097 0.28300000000000003 -0.077 Q 0.28300000000000003 -0.025 0.32 -0.014 Q 0.328 -0.011 0.338 -0.011 Q 0.388 -0.011 0.429 -0.061 Q 0.456 -0.093 0.47100000000000003 -0.14200000000000002 Q 0.47400000000000003 -0.153 0.484 -0.153 Q 0.496 -0.153 0.496 -0.14300000000000002 Q 0.496 -0.11800000000000001 0.465 -0.07100000000000001 Q 0.41100000000000003 0.011 0.336 0.011 Q 0.268 0.011 0.23700000000000002 -0.046 Q 0.231 -0.055 0.228 -0.065 Q 0.20400000000000001 -0.017 0.162 0.002 Q 0.14300000000000002 0.011 0.123 0.011 Q 0.063 0.011 0.039 -0.024 Q 0.029 -0.037 0.029 -0.055 Q 0.029 -0.092 0.061 -0.107 Q 0.07200000000000001 -0.113 0.084 -0.113 Q 0.114 -0.113 0.12 -0.088 Q 0.121 -0.083 0.121 -0.078 Q 0.121 -0.044 0.08700000000000001 -0.028 Q 0.081 -0.025 0.074 -0.024 Q 0.095 -0.011 0.124 -0.011 Q 0.177 -0.011 0.20800000000000002 -0.082 Q 0.214 -0.097 0.219 -0.115 Q 0.273 -0.319 0.273 -0.353 Q 0.267 -0.41500000000000004 0.219 -0.42 Q 0.167 -0.42 0.124 -0.367 L 0.124 -0.366 Q 0.124 -0.365 0.123 -0.365 Q 0.108 -0.34500000000000003 0.096 -0.319 Q 0.091 -0.307 0.08700000000000001 -0.295 L 0.085 -0.289 Q 0.083 -0.278 0.07200000000000001 -0.278 Q 0.06 -0.278 0.06 -0.28800000000000003 Q 0.06 -0.313 0.092 -0.36 Q 0.146 -0.442 0.221 -0.442 Q 0.298 -0.442 0.329 -0.366 Q 0.361 -0.428 0.41400000000000003 -0.44 Q 0.424 -0.442 0.434 -0.442 Q 0.493 -0.442 0.517 -0.40900000000000003 Q 0.527 -0.395 0.527 -0.376 Q 0.527 -0.335 0.49 -0.321 Q 0.481 -0.318 0.47300000000000003 -0.318 Q 0.442 -0.318 0.436 -0.34500000000000003 Q 0.435 -0.34900000000000003 0.435 -0.353 Q 0.435 -0.383 0.464 -0.4 Q 0.47300000000000003 -0.405 0.483 -0.40700000000000003 Q 0.462 -0.42 0.433 -0.42 Q 0.365 -0.42 0.337 -0.314 Q 0.335 -0.308 0.334 -0.302 Z"/></g></g></g></g><g transform="scale(27,27)"><g transform="translate(14.063542,12.565682520370371)"><path fill="rgb(0,0,255)" stroke="none" paint-order="stroke fill markers" d=" M 0.4 -0.668 L 0.41600000000000004 -0.653 Q 0.363 -0.595 0.34400000000000003 -0.584 Q 0.328 -0.5750000000000001 0.308 -0.5750000000000001 Q 0.28500000000000003 -0.5750000000000001 0.246 -0.598 Q 0.20400000000000001 -0.623 0.181 -0.623 Q 0.14 -0.623 0.10200000000000001 -0.579 L 0.099 -0.5750000000000001 L 0.083 -0.59 Q 0.136 -0.648 0.155 -0.659 Q 0.171 -0.668 0.191 -0.668 Q 0.214 -0.668 0.253 -0.645 Q 0.296 -0.62 0.318 -0.62 Q 0.359 -0.62 0.397 -0.664 L 0.4 -0.668 Z"/></g><g transform="translate(14,12.565682520370371)"><path fill="rgb(0,0,255)" stroke="none" paint-order="stroke fill markers" d=" M 0.334 -0.302 L 0.3 -0.165 Q 0.28300000000000003 -0.097 0.28300000000000003 -0.077 Q 0.28300000000000003 -0.025 0.32 -0.014 Q 0.328 -0.011 0.338 -0.011 Q 0.388 -0.011 0.429 -0.061 Q 0.456 -0.093 0.47100000000000003 -0.14200000000000002 Q 0.47400000000000003 -0.153 0.484 -0.153 Q 0.496 -0.153 0.496 -0.14300000000000002 Q 0.496 -0.11800000000000001 0.465 -0.07100000000000001 Q 0.41100000000000003 0.011 0.336 0.011 Q 0.268 0.011 0.23700000000000002 -0.046 Q 0.231 -0.055 0.228 -0.065 Q 0.20400000000000001 -0.017 0.162 0.002 Q 0.14300000000000002 0.011 0.123 0.011 Q 0.063 0.011 0.039 -0.024 Q 0.029 -0.037 0.029 -0.055 Q 0.029 -0.092 0.061 -0.107 Q 0.07200000000000001 -0.113 0.084 -0.113 Q 0.114 -0.113 0.12 -0.088 Q 0.121 -0.083 0.121 -0.078 Q 0.121 -0.044 0.08700000000000001 -0.028 Q 0.081 -0.025 0.074 -0.024 Q 0.095 -0.011 0.124 -0.011 Q 0.177 -0.011 0.20800000000000002 -0.082 Q 0.214 -0.097 0.219 -0.115 Q 0.273 -0.319 0.273 -0.353 Q 0.267 -0.41500000000000004 0.219 -0.42 Q 0.167 -0.42 0.124 -0.367 L 0.124 -0.366 Q 0.124 -0.365 0.123 -0.365 Q 0.108 -0.34500000000000003 0.096 -0.319 Q 0.091 -0.307 0.08700000000000001 -0.295 L 0.085 -0.289 Q 0.083 -0.278 0.07200000000000001 -0.278 Q 0.06 -0.278 0.06 -0.28800000000000003 Q 0.06 -0.313 0.092 -0.36 Q 0.146 -0.442 0.221 -0.442 Q 0.298 -0.442 0.329 -0.366 Q 0.361 -0.428 0.41400000000000003 -0.44 Q 0.424 -0.442 0.434 -0.442 Q 0.493 -0.442 0.517 -0.40900000000000003 Q 0.527 -0.395 0.527 -0.376 Q 0.527 -0.335 0.49 -0.321 Q 0.481 -0.318 0.47300000000000003 -0.318 Q 0.442 -0.318 0.436 -0.34500000000000003 Q 0.435 -0.34900000000000003 0.435 -0.353 Q 0.435 -0.383 0.464 -0.4 Q 0.47300000000000003 -0.405 0.483 -0.40700000000000003 Q 0.462 -0.42 0.433 -0.42 Q 0.365 -0.42 0.337 -0.314 Q 0.335 -0.308 0.334 -0.302 Z"/></g><g transform="translate(14.571528,12.715682520370372) scale(0.7,0.7)"><path fill="rgb(0,0,255)" stroke="none" paint-order="stroke fill markers" d=" M 0.088 -0.059000000000000004 L 0.088 -0.059000000000000004 L 0.146 -0.29 Q 0.162 -0.354 0.162 -0.374 Q 0.162 -0.42 0.131 -0.42 Q 0.09 -0.42 0.064 -0.325 Q 0.061 -0.314 0.058 -0.301 Q 0.047 -0.279 0.041 -0.278 Q 0.029 -0.278 0.029 -0.28800000000000003 Q 0.029 -0.304 0.047 -0.355 Q 0.054 -0.373 0.06 -0.385 Q 0.084 -0.434 0.12 -0.441 Q 0.127 -0.442 0.134 -0.442 Q 0.19 -0.442 0.215 -0.394 Q 0.221 -0.383 0.224 -0.37 Q 0.225 -0.368 0.225 -0.365 Q 0.28300000000000003 -0.437 0.353 -0.442 Q 0.40900000000000003 -0.442 0.429 -0.403 Q 0.436 -0.391 0.436 -0.377 Q 0.436 -0.338 0.403 -0.323 Q 0.392 -0.318 0.381 -0.318 Q 0.35000000000000003 -0.318 0.34400000000000003 -0.34500000000000003 Q 0.343 -0.34900000000000003 0.343 -0.353 Q 0.343 -0.386 0.377 -0.402 L 0.378 -0.403 Q 0.386 -0.406 0.395 -0.40800000000000003 L 0.375 -0.417 Q 0.362 -0.419 0.353 -0.42 Q 0.311 -0.42 0.273 -0.387 Q 0.242 -0.359 0.22 -0.313 Q 0.218 -0.308 0.217 -0.305 L 0.185 -0.17500000000000002 L 0.145 -0.017 Q 0.136 0.009000000000000001 0.108 0.011 Q 0.083 0.006 0.079 -0.016 Q 0.079 -0.014 0.088 -0.059000000000000004 Z"/></g><g transform="translate(15.542896605555557,12.070924992592593) scale(0.7,0.7)"><path fill="rgb(0,0,255)" stroke="none" paint-order="stroke fill markers" d=" M 0.372 -0.326 L 0.121 -0.042 L 0.397 -0.042 Q 0.523 -0.042 0.5710000000000001 -0.077 Q 0.616 -0.109 0.633 -0.187 Q 0.637 -0.209 0.64 -0.23600000000000002 L 0.665 -0.23600000000000002 L 0.637 0 L 0.082 0 Q 0.059000000000000004 0 0.057 -0.011 Q 0.057 -0.016 0.067 -0.027 L 0.305 -0.298 L 0.056 -0.66 Q 0.056 -0.679 0.063 -0.682 Q 0.065 -0.683 0.07 -0.683 L 0.07100000000000001 -0.683 L 0.082 -0.683 L 0.637 -0.683 L 0.665 -0.458 L 0.64 -0.458 Q 0.625 -0.5750000000000001 0.5760000000000001 -0.614 L 0.5760000000000001 -0.614 L 0.5750000000000001 -0.615 L 0.5750000000000001 -0.615 L 0.5740000000000001 -0.615 L 0.5730000000000001 -0.616 L 0.5730000000000001 -0.616 Q 0.525 -0.652 0.4 -0.652 L 0.169 -0.652 L 0.374 -0.356 Q 0.381 -0.34700000000000003 0.381 -0.342 Q 0.381 -0.336 0.372 -0.326 Z"/></g><g transform="translate(15.295675005555557,12.548911437037038)" fill="rgb(0,0,255)"><path fill="" stroke="none" paint-order="stroke fill markers" d=" M 0.089 -0.23 Q 0.059 -0.235 0.056 -0.25 Q 0.056 -0.27 0.089 -0.27 L 0.858 -0.27 Q 0.79 -0.32 0.756 -0.399 L 0.755 -0.4 Q 0.75 -0.413 0.75 -0.416 Q 0.75 -0.428 0.765 -0.428 Q 0.776 -0.428 0.782 -0.414 Q 0.826 -0.315 0.918 -0.268 L 0.919 -0.268 L 0.92 -0.267 L 0.921 -0.267 Q 0.928 -0.263 0.935 -0.26 Q 0.939 -0.26 0.942 -0.25 Q 0.942 -0.243 0.933 -0.238 Q 0.931 -0.238 0.928 -0.236 Q 0.829 -0.189 0.783 -0.086 L 0.783 -0.086 Q 0.782 -0.085 0.781 -0.082 Q 0.776 -0.072 0.765 -0.072 Q 0.75 -0.072 0.75 -0.084 Q 0.75 -0.099 0.779 -0.144 Q 0.812 -0.196 0.858 -0.23 L 0.858 -0.23 Z"/><g transform="translate(-15.295675005555557,-12.548911437037038)"><g transform="translate(16.753201561111112,12.565682520370371)"><path fill="" stroke="none" paint-order="stroke fill markers" d=" M 0.4 -0.668 L 0.41600000000000004 -0.653 Q 0.363 -0.595 0.34400000000000003 -0.584 Q 0.328 -0.5750000000000001 0.308 -0.5750000000000001 Q 0.28500000000000003 -0.5750000000000001 0.246 -0.598 Q 0.20400000000000001 -0.623 0.181 -0.623 Q 0.14 -0.623 0.10200000000000001 -0.579 L 0.099 -0.5750000000000001 L 0.083 -0.59 Q 0.136 -0.648 0.155 -0.659 Q 0.171 -0.668 0.191 -0.668 Q 0.214 -0.668 0.253 -0.645 Q 0.296 -0.62 0.318 -0.62 Q 0.359 -0.62 0.397 -0.664 L 0.4 -0.668 Z"/></g><g transform="translate(16.684565061111112,12.565682520370371)"><path fill="rgb(0,0,255)" stroke="none" paint-order="stroke fill markers" d=" M 0.486 -0.381 L 0.39 0.001 Q 0.366 0.099 0.28300000000000003 0.16 Q 0.222 0.20500000000000002 0.156 0.20500000000000002 Q 0.089 0.20500000000000002 0.061 0.159 Q 0.05 0.14 0.05 0.11800000000000001 Q 0.05 0.067 0.091 0.055 Q 0.099 0.053 0.106 0.053 Q 0.138 0.053 0.14200000000000002 0.081 Q 0.14300000000000002 0.084 0.14300000000000002 0.088 Q 0.14300000000000002 0.111 0.123 0.129 Q 0.109 0.14100000000000001 0.08 0.14100000000000001 Q 0.098 0.183 0.156 0.183 Q 0.218 0.183 0.266 0.12 Q 0.305 0.068 0.328 -0.021 Q 0.329 -0.025 0.331 -0.034 Q 0.28600000000000003 0.011 0.23 0.011 Q 0.15 0.011 0.121 -0.048 Q 0.108 -0.074 0.108 -0.108 Q 0.108 -0.163 0.161 -0.305 Q 0.163 -0.311 0.166 -0.318 Q 0.183 -0.364 0.183 -0.388 Q 0.183 -0.42 0.158 -0.42 Q 0.10300000000000001 -0.42 0.068 -0.329 L 0.068 -0.328 Q 0.062 -0.313 0.057 -0.296 Q 0.046 -0.279 0.041 -0.278 Q 0.029 -0.278 0.029 -0.28800000000000003 Q 0.029 -0.306 0.05 -0.35100000000000003 Q 0.094 -0.442 0.161 -0.442 Q 0.214 -0.442 0.23500000000000001 -0.397 Q 0.243 -0.38 0.243 -0.36 Q 0.243 -0.339 0.223 -0.28800000000000003 Q 0.17200000000000001 -0.156 0.17200000000000001 -0.092 Q 0.17200000000000001 -0.011 0.234 -0.011 Q 0.292 -0.011 0.335 -0.073 Q 0.34500000000000003 -0.088 0.34700000000000003 -0.096 L 0.392 -0.276 Q 0.399 -0.309 0.41200000000000003 -0.356 Q 0.422 -0.399 0.426 -0.41000000000000003 Q 0.439 -0.431 0.461 -0.431 Q 0.486 -0.426 0.49 -0.404 Q 0.49 -0.395 0.486 -0.381 Z"/></g></g></g></g><g transform="scale(27,27)"><g transform="translate(6.296296296296297,9.00925925925926)"><path fill="rgb(0,0,0)" stroke="none" paint-order="stroke fill markers" d=" M 0.789 -0.7000000000000001 L 0.8 -0.7000000000000001 Q 0.808 -0.7000000000000001 0.808 -0.6920000000000001 Q 0.808 -0.6890000000000001 0.807 -0.6880000000000001 Q 0.764 -0.624 0.764 -0.495 Q 0.764 -0.457 0.768 -0.40650000000000003 Q 0.772 -0.356 0.772 -0.35000000000000003 L 0.772 -0.334 Q 0.772 -0.28 0.755 -0.217 Q 0.8280000000000001 -0.337 0.914 -0.46 Q 0.979 -0.552 1.046 -0.6185 Q 1.113 -0.685 1.195 -0.719 L 1.199 -0.719 Q 1.206 -0.719 1.206 -0.712 L 1.203 -0.6880000000000001 Q 1.203 -0.684 1.198 -0.681 Q 1.062 -0.625 0.9380000000000001 -0.45 Q 0.777 -0.221 0.665 0.004 Q 0.662 0.008 0.657 0.008 L 0.646 0.008 Q 0.644 0.008 0.643 0.007 Q 0.638 0.005 0.638 0 Q 0.638 -0.003 0.639 -0.004 Q 0.6900000000000001 -0.101 0.6900000000000001 -0.214 Q 0.6900000000000001 -0.241 0.687 -0.2895 Q 0.684 -0.338 0.683 -0.35000000000000003 L 0.687 -0.461 L 0.6910000000000001 -0.483 Q 0.6950000000000001 -0.505 0.7020000000000001 -0.535 L 0.466 -0.20500000000000002 Q 0.397 -0.111 0.316 -0.0445 Q 0.23500000000000001 0.022 0.165 0.022 Q 0.108 0.022 0.07050000000000001 0.0015 Q 0.033 -0.019 0.033 -0.057 Q 0.033 -0.08600000000000001 0.059000000000000004 -0.124 Q 0.079 -0.153 0.116 -0.153 Q 0.149 -0.153 0.149 -0.11900000000000001 Q 0.149 -0.105 0.1305 -0.0925 Q 0.112 -0.08 0.092 -0.08 Q 0.07200000000000001 -0.08 0.063 -0.095 Q 0.054 -0.076 0.054 -0.061 Q 0.054 -0.031 0.0855 -0.0155 Q 0.117 0 0.169 0 Q 0.231 0 0.3045 -0.0625 Q 0.378 -0.125 0.442 -0.215 L 0.782 -0.6970000000000001 Q 0.785 -0.7000000000000001 0.789 -0.7000000000000001 Z"/></g><g transform="translate(7.550299796296297,9.00925925925926)"><path fill="rgb(0,0,0)" stroke="none" paint-order="stroke fill markers" d=" M 0.331 0.24 L 0.331 0.24 Q 0.331 0.25 0.321 0.25 Q 0.309 0.25 0.268 0.209 Q 0.20600000000000002 0.147 0.165 0.062 Q 0.099 -0.074 0.099 -0.25 Q 0.099 -0.419 0.162 -0.555 Q 0.214 -0.666 0.294 -0.733 Q 0.315 -0.75 0.321 -0.75 Q 0.331 -0.75 0.331 -0.74 Q 0.331 -0.735 0.318 -0.723 Q 0.157 -0.559 0.157 -0.25 Q 0.157 0.058 0.314 0.218 Q 0.331 0.23500000000000001 0.331 0.24 Z"/></g><g transform="translate(7.939189796296297,9.00925925925926)"><path fill="rgb(0,0,0)" stroke="none" paint-order="stroke fill markers" d=" M 0.179 -0.115 L 0.527 -0.6990000000000001 Q 0.537 -0.715 0.553 -0.716 Q 0.5680000000000001 -0.716 0.5700000000000001 -0.706 Q 0.5710000000000001 -0.7030000000000001 0.5720000000000001 -0.6920000000000001 L 0.633 -0.067 Q 0.636 -0.042 0.645 -0.037 L 0.646 -0.037 L 0.646 -0.037 L 0.646 -0.037 L 0.646 -0.037 L 0.646 -0.036000000000000004 Q 0.658 -0.031 0.6980000000000001 -0.031 Q 0.72 -0.031 0.721 -0.02 Q 0.721 0 0.7030000000000001 0 L 0.591 -0.003 L 0.59 -0.003 L 0.466 0 L 0.465 0 Q 0.451 0 0.451 -0.011 Q 0.459 -0.03 0.47500000000000003 -0.031 Q 0.547 -0.031 0.547 -0.064 Q 0.547 -0.063 0.531 -0.231 L 0.28 -0.231 L 0.20400000000000001 -0.10300000000000001 Q 0.19 -0.078 0.19 -0.066 Q 0.19 -0.035 0.23700000000000002 -0.031 Q 0.253 -0.031 0.253 -0.019 Q 0.253 0 0.234 0 L 0.138 -0.003 L 0.134 -0.003 L 0.05 0 L 0.048 0 Q 0.035 0 0.035 -0.011 Q 0.035 -0.029 0.05 -0.03 L 0.05 -0.031 L 0.056 -0.031 Q 0.11900000000000001 -0.035 0.159 -0.085 Q 0.169 -0.098 0.179 -0.115 M 0.299 -0.262 L 0.528 -0.262 L 0.496 -0.592 L 0.299 -0.262 Z"/></g><g transform="translate(8.689191796296297,9.00925925925926)"><path fill="rgb(0,0,0)" stroke="none" paint-order="stroke fill markers" d=" M 0.289 -0.25 L 0.289 -0.25 Q 0.289 -0.081 0.226 0.055 Q 0.17400000000000002 0.166 0.094 0.233 Q 0.073 0.25 0.067 0.25 Q 0.057 0.25 0.057 0.24 Q 0.057 0.23500000000000001 0.07 0.223 Q 0.231 0.059000000000000004 0.231 -0.25 Q 0.231 -0.555 0.081 -0.712 L 0.076 -0.717 Q 0.057 -0.735 0.057 -0.74 Q 0.057 -0.75 0.067 -0.75 Q 0.079 -0.75 0.12 -0.709 Q 0.182 -0.647 0.223 -0.562 Q 0.289 -0.426 0.289 -0.25 Z"/></g></g><g transform="scale(27,27)"><g transform="translate(11.88888888888889,10.675925925925926)"><path fill="rgb(0,0,0)" stroke="none" paint-order="stroke fill markers" d=" M 0.789 -0.7000000000000001 L 0.8 -0.7000000000000001 Q 0.808 -0.7000000000000001 0.808 -0.6920000000000001 Q 0.808 -0.6890000000000001 0.807 -0.6880000000000001 Q 0.764 -0.624 0.764 -0.495 Q 0.764 -0.457 0.768 -0.40650000000000003 Q 0.772 -0.356 0.772 -0.35000000000000003 L 0.772 -0.334 Q 0.772 -0.28 0.755 -0.217 Q 0.8280000000000001 -0.337 0.914 -0.46 Q 0.979 -0.552 1.046 -0.6185 Q 1.113 -0.685 1.195 -0.719 L 1.199 -0.719 Q 1.206 -0.719 1.206 -0.712 L 1.203 -0.6880000000000001 Q 1.203 -0.684 1.198 -0.681 Q 1.062 -0.625 0.9380000000000001 -0.45 Q 0.777 -0.221 0.665 0.004 Q 0.662 0.008 0.657 0.008 L 0.646 0.008 Q 0.644 0.008 0.643 0.007 Q 0.638 0.005 0.638 0 Q 0.638 -0.003 0.639 -0.004 Q 0.6900000000000001 -0.101 0.6900000000000001 -0.214 Q 0.6900000000000001 -0.241 0.687 -0.2895 Q 0.684 -0.338 0.683 -0.35000000000000003 L 0.687 -0.461 L 0.6910000000000001 -0.483 Q 0.6950000000000001 -0.505 0.7020000000000001 -0.535 L 0.466 -0.20500000000000002 Q 0.397 -0.111 0.316 -0.0445 Q 0.23500000000000001 0.022 0.165 0.022 Q 0.108 0.022 0.07050000000000001 0.0015 Q 0.033 -0.019 0.033 -0.057 Q 0.033 -0.08600000000000001 0.059000000000000004 -0.124 Q 0.079 -0.153 0.116 -0.153 Q 0.149 -0.153 0.149 -0.11900000000000001 Q 0.149 -0.105 0.1305 -0.0925 Q 0.112 -0.08 0.092 -0.08 Q 0.07200000000000001 -0.08 0.063 -0.095 Q 0.054 -0.076 0.054 -0.061 Q 0.054 -0.031 0.0855 -0.0155 Q 0.117 0 0.169 0 Q 0.231 0 0.3045 -0.0625 Q 0.378 -0.125 0.442 -0.215 L 0.782 -0.6970000000000001 Q 0.785 -0.7000000000000001 0.789 -0.7000000000000001 Z"/></g><g transform="translate(13.142892388888889,10.675925925925926)"><path fill="rgb(0,0,0)" stroke="none" paint-order="stroke fill markers" d=" M 0.331 0.24 L 0.331 0.24 Q 0.331 0.25 0.321 0.25 Q 0.309 0.25 0.268 0.209 Q 0.20600000000000002 0.147 0.165 0.062 Q 0.099 -0.074 0.099 -0.25 Q 0.099 -0.419 0.162 -0.555 Q 0.214 -0.666 0.294 -0.733 Q 0.315 -0.75 0.321 -0.75 Q 0.331 -0.75 0.331 -0.74 Q 0.331 -0.735 0.318 -0.723 Q 0.157 -0.559 0.157 -0.25 Q 0.157 0.058 0.314 0.218 Q 0.331 0.23500000000000001 0.331 0.24 Z"/></g><g transform="translate(13.531782388888889,10.675925925925926)"><path fill="rgb(0,0,0)" stroke="none" paint-order="stroke fill markers" d=" M 0.179 -0.115 L 0.527 -0.6990000000000001 Q 0.537 -0.715 0.553 -0.716 Q 0.5680000000000001 -0.716 0.5700000000000001 -0.706 Q 0.5710000000000001 -0.7030000000000001 0.5720000000000001 -0.6920000000000001 L 0.633 -0.067 Q 0.636 -0.042 0.645 -0.037 L 0.646 -0.037 L 0.646 -0.037 L 0.646 -0.037 L 0.646 -0.037 L 0.646 -0.036000000000000004 Q 0.658 -0.031 0.6980000000000001 -0.031 Q 0.72 -0.031 0.721 -0.02 Q 0.721 0 0.7030000000000001 0 L 0.591 -0.003 L 0.59 -0.003 L 0.466 0 L 0.465 0 Q 0.451 0 0.451 -0.011 Q 0.459 -0.03 0.47500000000000003 -0.031 Q 0.547 -0.031 0.547 -0.064 Q 0.547 -0.063 0.531 -0.231 L 0.28 -0.231 L 0.20400000000000001 -0.10300000000000001 Q 0.19 -0.078 0.19 -0.066 Q 0.19 -0.035 0.23700000000000002 -0.031 Q 0.253 -0.031 0.253 -0.019 Q 0.253 0 0.234 0 L 0.138 -0.003 L 0.134 -0.003 L 0.05 0 L 0.048 0 Q 0.035 0 0.035 -0.011 Q 0.035 -0.029 0.05 -0.03 L 0.05 -0.031 L 0.056 -0.031 Q 0.11900000000000001 -0.035 0.159 -0.085 Q 0.169 -0.098 0.179 -0.115 M 0.299 -0.262 L 0.528 -0.262 L 0.496 -0.592 L 0.299 -0.262 Z"/></g><g transform="translate(14.28178438888889,10.675925925925926)"><path fill="rgb(0,0,0)" stroke="none" paint-order="stroke fill markers" d=" M 0.289 -0.25 L 0.289 -0.25 Q 0.289 -0.081 0.226 0.055 Q 0.17400000000000002 0.166 0.094 0.233 Q 0.073 0.25 0.067 0.25 Q 0.057 0.25 0.057 0.24 Q 0.057 0.23500000000000001 0.07 0.223 Q 0.231 0.059000000000000004 0.231 -0.25 Q 0.231 -0.555 0.081 -0.712 L 0.076 -0.717 Q 0.057 -0.735 0.057 -0.74 Q 0.057 -0.75 0.067 -0.75 Q 0.079 -0.75 0.12 -0.709 Q 0.182 -0.647 0.223 -0.562 Q 0.289 -0.426 0.289 -0.25 Z"/></g></g><g transform="scale(27,27)"><g transform="translate(24.88888888888889,2.861111111111111)"><path fill="rgb(0,0,0)" stroke="none" paint-order="stroke fill markers" d=" M 0.34500000000000003 -0.088 Q 0.34800000000000003 -0.085 0.34800000000000003 -0.081 Q 0.34800000000000003 -0.08 0.34600000000000003 -0.076 L 0.343 -0.073 L 0.336 -0.07100000000000001 Q 0.335 -0.07 0.332 -0.07 Q 0.33 -0.07 0.329 -0.07100000000000001 Q 0.304 -0.08600000000000001 0.304 -0.117 Q 0.304 -0.148 0.331 -0.188 Q 0.359 -0.229 0.405 -0.261 Q 0.449 -0.291 0.483 -0.291 Q 0.561 -0.291 0.5760000000000001 -0.233 Q 0.579 -0.222 0.579 -0.211 Q 0.579 -0.162 0.536 -0.1 Q 0.502 -0.051000000000000004 0.437 -0.016 Q 0.373 0.019 0.317 0.019 Q 0.254 0.019 0.2165 -0.011 Q 0.179 -0.041 0.17400000000000002 -0.094 Q 0.17300000000000001 -0.101 0.17300000000000001 -0.116 Q 0.17300000000000001 -0.219 0.266 -0.35000000000000003 L 0.245 -0.35000000000000003 Q 0.108 -0.35000000000000003 0.052000000000000005 -0.41200000000000003 Q 0.026000000000000002 -0.441 0.026000000000000002 -0.48 Q 0.026000000000000002 -0.521 0.057 -0.5650000000000001 Q 0.089 -0.611 0.16 -0.644 Q 0.23 -0.676 0.298 -0.676 Q 0.306 -0.676 0.306 -0.668 Q 0.306 -0.667 0.301 -0.657 Q 0.298 -0.654 0.294 -0.654 Q 0.241 -0.654 0.188 -0.626 Q 0.14 -0.599 0.109 -0.555 Q 0.077 -0.508 0.077 -0.46900000000000003 Q 0.077 -0.442 0.09 -0.426 Q 0.13 -0.372 0.249 -0.372 Q 0.271 -0.372 0.28200000000000003 -0.373 Q 0.382 -0.509 0.511 -0.608 Q 0.649 -0.714 0.74 -0.714 Q 0.802 -0.714 0.811 -0.664 Q 0.812 -0.66 0.812 -0.651 Q 0.812 -0.608 0.774 -0.556 Q 0.714 -0.47000000000000003 0.559 -0.41000000000000003 Q 0.464 -0.373 0.364 -0.358 Q 0.242 -0.188 0.23500000000000001 -0.097 L 0.23500000000000001 -0.08600000000000001 Q 0.23500000000000001 -0.048 0.2565 -0.025500000000000002 Q 0.278 -0.003 0.321 -0.003 Q 0.362 -0.003 0.40800000000000003 -0.033 Q 0.448 -0.059000000000000004 0.484 -0.11 Q 0.534 -0.18 0.534 -0.223 L 0.534 -0.227 Q 0.532 -0.269 0.47900000000000004 -0.269 Q 0.454 -0.269 0.419 -0.244 Q 0.384 -0.219 0.356 -0.179 Q 0.332 -0.145 0.332 -0.11800000000000001 Q 0.332 -0.099 0.34500000000000003 -0.088 M 0.34600000000000003 -0.076 L 0.34700000000000003 -0.085 L 0.34700000000000003 -0.084 Q 0.34800000000000003 -0.083 0.34800000000000003 -0.081 Q 0.34800000000000003 -0.078 0.34600000000000003 -0.076 M 0.736 -0.6920000000000001 Q 0.674 -0.6920000000000001 0.562 -0.592 Q 0.47800000000000004 -0.517 0.381 -0.383 Q 0.461 -0.395 0.548 -0.428 Q 0.6930000000000001 -0.484 0.75 -0.5650000000000001 Q 0.786 -0.617 0.786 -0.649 L 0.785 -0.658 Q 0.78 -0.6920000000000001 0.736 -0.6920000000000001 Z"/></g><g transform="translate(25.72398088888889,2.861111111111111)"><path fill="rgb(0,0,0)" stroke="none" paint-order="stroke fill markers" d=" M 0.331 0.24 L 0.331 0.24 Q 0.331 0.25 0.321 0.25 Q 0.309 0.25 0.268 0.209 Q 0.20600000000000002 0.147 0.165 0.062 Q 0.099 -0.074 0.099 -0.25 Q 0.099 -0.419 0.162 -0.555 Q 0.214 -0.666 0.294 -0.733 Q 0.315 -0.75 0.321 -0.75 Q 0.331 -0.75 0.331 -0.74 Q 0.331 -0.735 0.318 -0.723 Q 0.157 -0.559 0.157 -0.25 Q 0.157 0.058 0.314 0.218 Q 0.331 0.23500000000000001 0.331 0.24 Z"/></g><g transform="translate(26.11287088888889,2.861111111111111)"><path fill="rgb(0,0,0)" stroke="none" paint-order="stroke fill markers" d=" M 0.179 -0.115 L 0.527 -0.6990000000000001 Q 0.537 -0.715 0.553 -0.716 Q 0.5680000000000001 -0.716 0.5700000000000001 -0.706 Q 0.5710000000000001 -0.7030000000000001 0.5720000000000001 -0.6920000000000001 L 0.633 -0.067 Q 0.636 -0.042 0.645 -0.037 L 0.646 -0.037 L 0.646 -0.037 L 0.646 -0.037 L 0.646 -0.037 L 0.646 -0.036000000000000004 Q 0.658 -0.031 0.6980000000000001 -0.031 Q 0.72 -0.031 0.721 -0.02 Q 0.721 0 0.7030000000000001 0 L 0.591 -0.003 L 0.59 -0.003 L 0.466 0 L 0.465 0 Q 0.451 0 0.451 -0.011 Q 0.459 -0.03 0.47500000000000003 -0.031 Q 0.547 -0.031 0.547 -0.064 Q 0.547 -0.063 0.531 -0.231 L 0.28 -0.231 L 0.20400000000000001 -0.10300000000000001 Q 0.19 -0.078 0.19 -0.066 Q 0.19 -0.035 0.23700000000000002 -0.031 Q 0.253 -0.031 0.253 -0.019 Q 0.253 0 0.234 0 L 0.138 -0.003 L 0.134 -0.003 L 0.05 0 L 0.048 0 Q 0.035 0 0.035 -0.011 Q 0.035 -0.029 0.05 -0.03 L 0.05 -0.031 L 0.056 -0.031 Q 0.11900000000000001 -0.035 0.159 -0.085 Q 0.169 -0.098 0.179 -0.115 M 0.299 -0.262 L 0.528 -0.262 L 0.496 -0.592 L 0.299 -0.262 Z"/></g><g transform="translate(26.862872888888887,2.861111111111111)"><path fill="rgb(0,0,0)" stroke="none" paint-order="stroke fill markers" d=" M 0.289 -0.25 L 0.289 -0.25 Q 0.289 -0.081 0.226 0.055 Q 0.17400000000000002 0.166 0.094 0.233 Q 0.073 0.25 0.067 0.25 Q 0.057 0.25 0.057 0.24 Q 0.057 0.23500000000000001 0.07 0.223 Q 0.231 0.059000000000000004 0.231 -0.25 Q 0.231 -0.555 0.081 -0.712 L 0.076 -0.717 Q 0.057 -0.735 0.057 -0.74 Q 0.057 -0.75 0.067 -0.75 Q 0.079 -0.75 0.12 -0.709 Q 0.182 -0.647 0.223 -0.562 Q 0.289 -0.426 0.289 -0.25 Z"/></g></g><g transform="scale(27,27)"><g transform="translate(27.074074074074073,8.658262814814815)"><path fill="rgb(0,0,0)" stroke="none" paint-order="stroke fill markers" d=" M 0.789 -0.7000000000000001 L 0.8 -0.7000000000000001 Q 0.808 -0.7000000000000001 0.808 -0.6920000000000001 Q 0.808 -0.6890000000000001 0.807 -0.6880000000000001 Q 0.764 -0.624 0.764 -0.495 Q 0.764 -0.457 0.768 -0.40650000000000003 Q 0.772 -0.356 0.772 -0.35000000000000003 L 0.772 -0.334 Q 0.772 -0.28 0.755 -0.217 Q 0.8280000000000001 -0.337 0.914 -0.46 Q 0.979 -0.552 1.046 -0.6185 Q 1.113 -0.685 1.195 -0.719 L 1.199 -0.719 Q 1.206 -0.719 1.206 -0.712 L 1.203 -0.6880000000000001 Q 1.203 -0.684 1.198 -0.681 Q 1.062 -0.625 0.9380000000000001 -0.45 Q 0.777 -0.221 0.665 0.004 Q 0.662 0.008 0.657 0.008 L 0.646 0.008 Q 0.644 0.008 0.643 0.007 Q 0.638 0.005 0.638 0 Q 0.638 -0.003 0.639 -0.004 Q 0.6900000000000001 -0.101 0.6900000000000001 -0.214 Q 0.6900000000000001 -0.241 0.687 -0.2895 Q 0.684 -0.338 0.683 -0.35000000000000003 L 0.687 -0.461 L 0.6910000000000001 -0.483 Q 0.6950000000000001 -0.505 0.7020000000000001 -0.535 L 0.466 -0.20500000000000002 Q 0.397 -0.111 0.316 -0.0445 Q 0.23500000000000001 0.022 0.165 0.022 Q 0.108 0.022 0.07050000000000001 0.0015 Q 0.033 -0.019 0.033 -0.057 Q 0.033 -0.08600000000000001 0.059000000000000004 -0.124 Q 0.079 -0.153 0.116 -0.153 Q 0.149 -0.153 0.149 -0.11900000000000001 Q 0.149 -0.105 0.1305 -0.0925 Q 0.112 -0.08 0.092 -0.08 Q 0.07200000000000001 -0.08 0.063 -0.095 Q 0.054 -0.076 0.054 -0.061 Q 0.054 -0.031 0.0855 -0.0155 Q 0.117 0 0.169 0 Q 0.231 0 0.3045 -0.0625 Q 0.378 -0.125 0.442 -0.215 L 0.782 -0.6970000000000001 Q 0.785 -0.7000000000000001 0.789 -0.7000000000000001 Z"/></g><g transform="translate(28.328077574074072,8.658262814814815)"><path fill="rgb(0,0,0)" stroke="none" paint-order="stroke fill markers" d=" M 0.331 0.24 L 0.331 0.24 Q 0.331 0.25 0.321 0.25 Q 0.309 0.25 0.268 0.209 Q 0.20600000000000002 0.147 0.165 0.062 Q 0.099 -0.074 0.099 -0.25 Q 0.099 -0.419 0.162 -0.555 Q 0.214 -0.666 0.294 -0.733 Q 0.315 -0.75 0.321 -0.75 Q 0.331 -0.75 0.331 -0.74 Q 0.331 -0.735 0.318 -0.723 Q 0.157 -0.559 0.157 -0.25 Q 0.157 0.058 0.314 0.218 Q 0.331 0.23500000000000001 0.331 0.24 Z"/></g><g transform="translate(28.716967574074072,8.658262814814815)"><path fill="rgb(0,0,0)" stroke="none" paint-order="stroke fill markers" d=" M 0.179 -0.115 L 0.527 -0.6990000000000001 Q 0.537 -0.715 0.553 -0.716 Q 0.5680000000000001 -0.716 0.5700000000000001 -0.706 Q 0.5710000000000001 -0.7030000000000001 0.5720000000000001 -0.6920000000000001 L 0.633 -0.067 Q 0.636 -0.042 0.645 -0.037 L 0.646 -0.037 L 0.646 -0.037 L 0.646 -0.037 L 0.646 -0.037 L 0.646 -0.036000000000000004 Q 0.658 -0.031 0.6980000000000001 -0.031 Q 0.72 -0.031 0.721 -0.02 Q 0.721 0 0.7030000000000001 0 L 0.591 -0.003 L 0.59 -0.003 L 0.466 0 L 0.465 0 Q 0.451 0 0.451 -0.011 Q 0.459 -0.03 0.47500000000000003 -0.031 Q 0.547 -0.031 0.547 -0.064 Q 0.547 -0.063 0.531 -0.231 L 0.28 -0.231 L 0.20400000000000001 -0.10300000000000001 Q 0.19 -0.078 0.19 -0.066 Q 0.19 -0.035 0.23700000000000002 -0.031 Q 0.253 -0.031 0.253 -0.019 Q 0.253 0 0.234 0 L 0.138 -0.003 L 0.134 -0.003 L 0.05 0 L 0.048 0 Q 0.035 0 0.035 -0.011 Q 0.035 -0.029 0.05 -0.03 L 0.05 -0.031 L 0.056 -0.031 Q 0.11900000000000001 -0.035 0.159 -0.085 Q 0.169 -0.098 0.179 -0.115 M 0.299 -0.262 L 0.528 -0.262 L 0.496 -0.592 L 0.299 -0.262 Z"/></g><g transform="translate(29.46696957407407,8.245370814814816) scale(0.7,0.7)"><path fill="rgb(0,0,0)" stroke="none" paint-order="stroke fill markers" d=" M 0.20600000000000002 -0.4 L 0.132 -0.105 Q 0.126 -0.08 0.126 -0.057 Q 0.126 -0.011 0.157 -0.011 Q 0.223 -0.011 0.273 -0.108 L 0.28700000000000003 -0.139 Q 0.293 -0.152 0.302 -0.153 Q 0.314 -0.153 0.314 -0.14300000000000002 Q 0.314 -0.13 0.28800000000000003 -0.08600000000000001 Q 0.23 0.011 0.155 0.011 Q 0.097 0.011 0.073 -0.037 Q 0.063 -0.057 0.063 -0.081 Q 0.063 -0.1 0.124 -0.34 L 0.139 -0.4 L 0.051000000000000004 -0.4 Q 0.026000000000000002 -0.4 0.024 -0.40800000000000003 L 0.023 -0.40800000000000003 L 0.023 -0.41200000000000003 Q 0.023 -0.429 0.039 -0.431 L 0.053 -0.431 L 0.147 -0.431 L 0.186 -0.59 Q 0.195 -0.625 0.226 -0.626 Q 0.252 -0.626 0.255 -0.599 Q 0.255 -0.593 0.214 -0.431 L 0.302 -0.431 Q 0.328 -0.431 0.33 -0.42 Q 0.33 -0.402 0.314 -0.4 L 0.313 -0.4 L 0.3 -0.4 L 0.20600000000000002 -0.4 Z"/></g><g transform="translate(29.73819800759074,8.658262814814815)"><path fill="rgb(0,0,0)" stroke="none" paint-order="stroke fill markers" d=" M 0.289 -0.25 L 0.289 -0.25 Q 0.289 -0.081 0.226 0.055 Q 0.17400000000000002 0.166 0.094 0.233 Q 0.073 0.25 0.067 0.25 Q 0.057 0.25 0.057 0.24 Q 0.057 0.23500000000000001 0.07 0.223 Q 0.231 0.059000000000000004 0.231 -0.25 Q 0.231 -0.555 0.081 -0.712 L 0.076 -0.717 Q 0.057 -0.735 0.057 -0.74 Q 0.057 -0.75 0.067 -0.75 Q 0.079 -0.75 0.12 -0.709 Q 0.182 -0.647 0.223 -0.562 Q 0.289 -0.426 0.289 -0.25 Z"/></g></g><text fill="rgb(102,153,0)" stroke="none" font-family="geogebra-serif, serif" font-size="24px" font-style="normal" font-weight="bold" text-decoration="normal" x="712" y="142" text-anchor="start" dominant-baseline="alphabetic" fill-opacity="1">y</text><g transform="scale(27,27)"><g transform="translate(22.17974761111111,12.574840446296296)"><path fill="rgb(204,0,0)" stroke="none" paint-order="stroke fill markers" d=" M 0.4 -0.668 L 0.41600000000000004 -0.653 Q 0.363 -0.595 0.34400000000000003 -0.584 Q 0.328 -0.5750000000000001 0.308 -0.5750000000000001 Q 0.28500000000000003 -0.5750000000000001 0.246 -0.598 Q 0.20400000000000001 -0.623 0.181 -0.623 Q 0.14 -0.623 0.10200000000000001 -0.579 L 0.099 -0.5750000000000001 L 0.083 -0.59 Q 0.136 -0.648 0.155 -0.659 Q 0.171 -0.668 0.191 -0.668 Q 0.214 -0.668 0.253 -0.645 Q 0.296 -0.62 0.318 -0.62 Q 0.359 -0.62 0.397 -0.664 L 0.4 -0.668 Z"/></g><g transform="translate(22.11111111111111,12.574840446296296)"><path fill="rgb(204,0,0)" stroke="none" paint-order="stroke fill markers" d=" M 0.486 -0.381 L 0.39 0.001 Q 0.366 0.099 0.28300000000000003 0.16 Q 0.222 0.20500000000000002 0.156 0.20500000000000002 Q 0.089 0.20500000000000002 0.061 0.159 Q 0.05 0.14 0.05 0.11800000000000001 Q 0.05 0.067 0.091 0.055 Q 0.099 0.053 0.106 0.053 Q 0.138 0.053 0.14200000000000002 0.081 Q 0.14300000000000002 0.084 0.14300000000000002 0.088 Q 0.14300000000000002 0.111 0.123 0.129 Q 0.109 0.14100000000000001 0.08 0.14100000000000001 Q 0.098 0.183 0.156 0.183 Q 0.218 0.183 0.266 0.12 Q 0.305 0.068 0.328 -0.021 Q 0.329 -0.025 0.331 -0.034 Q 0.28600000000000003 0.011 0.23 0.011 Q 0.15 0.011 0.121 -0.048 Q 0.108 -0.074 0.108 -0.108 Q 0.108 -0.163 0.161 -0.305 Q 0.163 -0.311 0.166 -0.318 Q 0.183 -0.364 0.183 -0.388 Q 0.183 -0.42 0.158 -0.42 Q 0.10300000000000001 -0.42 0.068 -0.329 L 0.068 -0.328 Q 0.062 -0.313 0.057 -0.296 Q 0.046 -0.279 0.041 -0.278 Q 0.029 -0.278 0.029 -0.28800000000000003 Q 0.029 -0.306 0.05 -0.35100000000000003 Q 0.094 -0.442 0.161 -0.442 Q 0.214 -0.442 0.23500000000000001 -0.397 Q 0.243 -0.38 0.243 -0.36 Q 0.243 -0.339 0.223 -0.28800000000000003 Q 0.17200000000000001 -0.156 0.17200000000000001 -0.092 Q 0.17200000000000001 -0.011 0.234 -0.011 Q 0.292 -0.011 0.335 -0.073 Q 0.34500000000000003 -0.088 0.34700000000000003 -0.096 L 0.392 -0.276 Q 0.399 -0.309 0.41200000000000003 -0.356 Q 0.422 -0.399 0.426 -0.41000000000000003 Q 0.439 -0.431 0.461 -0.431 Q 0.486 -0.426 0.49 -0.404 Q 0.49 -0.395 0.486 -0.381 Z"/></g><g transform="translate(23.22060719444444,12.080082918518519) scale(0.7,0.7)"><path fill="rgb(204,0,0)" stroke="none" paint-order="stroke fill markers" d=" M 0.635 -0.578 L 0.546 -0.223 Q 0.519 -0.114 0.428 -0.041 Q 0.34900000000000003 0.022 0.263 0.022 Q 0.164 0.022 0.108 -0.047 Q 0.067 -0.097 0.067 -0.17 Q 0.067 -0.2 0.074 -0.228 L 0.135 -0.47500000000000003 L 0.157 -0.5630000000000001 Q 0.17400000000000002 -0.628 0.17400000000000002 -0.634 Q 0.17400000000000002 -0.646 0.158 -0.649 L 0.157 -0.649 L 0.156 -0.649 Q 0.153 -0.649 0.147 -0.65 Q 0.13 -0.652 0.109 -0.652 Q 0.083 -0.652 0.081 -0.663 Q 0.081 -0.683 0.1 -0.683 L 0.228 -0.68 L 0.229 -0.68 L 0.356 -0.683 L 0.357 -0.683 Q 0.371 -0.683 0.371 -0.672 Q 0.371 -0.655 0.357 -0.653 L 0.356 -0.653 L 0.356 -0.653 L 0.356 -0.653 L 0.355 -0.652 L 0.337 -0.652 Q 0.276 -0.652 0.264 -0.636 Q 0.259 -0.629 0.253 -0.606 L 0.156 -0.217 Q 0.145 -0.17300000000000001 0.145 -0.139 Q 0.145 -0.05 0.213 -0.02 Q 0.23800000000000002 -0.009000000000000001 0.267 -0.009000000000000001 Q 0.355 -0.009000000000000001 0.431 -0.082 Q 0.494 -0.14300000000000002 0.516 -0.23 L 0.606 -0.587 Q 0.609 -0.596 0.609 -0.608 Q 0.609 -0.651 0.541 -0.652 Q 0.523 -0.652 0.523 -0.663 Q 0.523 -0.683 0.541 -0.683 L 0.644 -0.68 L 0.645 -0.68 L 0.744 -0.683 L 0.747 -0.683 Q 0.76 -0.683 0.76 -0.672 Q 0.76 -0.652 0.743 -0.652 Q 0.664 -0.649 0.643 -0.604 Q 0.639 -0.593 0.635 -0.578 Z"/></g><g transform="translate(23.77486999444444,11.826058518518519) scale(0.5,0.5)"><path fill="rgb(204,0,0)" stroke="none" paint-order="stroke fill markers" d=" M 0.20600000000000002 -0.4 L 0.132 -0.105 Q 0.126 -0.08 0.126 -0.057 Q 0.126 -0.011 0.157 -0.011 Q 0.223 -0.011 0.273 -0.108 L 0.28700000000000003 -0.139 Q 0.293 -0.152 0.302 -0.153 Q 0.314 -0.153 0.314 -0.14300000000000002 Q 0.314 -0.13 0.28800000000000003 -0.08600000000000001 Q 0.23 0.011 0.155 0.011 Q 0.097 0.011 0.073 -0.037 Q 0.063 -0.057 0.063 -0.081 Q 0.063 -0.1 0.124 -0.34 L 0.139 -0.4 L 0.051000000000000004 -0.4 Q 0.026000000000000002 -0.4 0.024 -0.40800000000000003 L 0.023 -0.40800000000000003 L 0.023 -0.41200000000000003 Q 0.023 -0.429 0.039 -0.431 L 0.053 -0.431 L 0.147 -0.431 L 0.186 -0.59 Q 0.195 -0.625 0.226 -0.626 Q 0.252 -0.626 0.255 -0.599 Q 0.255 -0.593 0.214 -0.431 L 0.302 -0.431 Q 0.328 -0.431 0.33 -0.42 Q 0.33 -0.402 0.314 -0.4 L 0.313 -0.4 L 0.3 -0.4 L 0.20600000000000002 -0.4 Z"/></g><g transform="translate(23.026162166666662,12.558069362962964)" fill="rgb(204,0,0)"><path fill="" stroke="none" paint-order="stroke fill markers" d=" M 0.089 -0.23 Q 0.059 -0.235 0.056 -0.25 Q 0.056 -0.27 0.089 -0.27 L 1.0901586890722221 -0.27 Q 1.022158689072222 -0.32 0.9881586890722222 -0.399 L 0.9871586890722222 -0.4 Q 0.9821586890722221 -0.413 0.9821586890722221 -0.416 Q 0.9821586890722221 -0.428 0.9971586890722222 -0.428 Q 1.0081586890722223 -0.428 1.014158689072222 -0.414 Q 1.058158689072222 -0.315 1.1501586890722222 -0.268 L 1.151158689072222 -0.268 L 1.1521586890722222 -0.267 L 1.1531586890722223 -0.267 Q 1.1601586890722222 -0.263 1.167158689072222 -0.26 Q 1.171158689072222 -0.26 1.1741586890722222 -0.25 Q 1.1741586890722222 -0.243 1.1651586890722223 -0.238 Q 1.163158689072222 -0.238 1.1601586890722222 -0.236 Q 1.0611586890722222 -0.189 1.0151586890722222 -0.086 L 1.0151586890722222 -0.086 Q 1.014158689072222 -0.085 1.0131586890722222 -0.082 Q 1.0081586890722223 -0.072 0.9971586890722222 -0.072 Q 0.9821586890722221 -0.072 0.9821586890722221 -0.084 Q 0.9821586890722221 -0.099 1.0111586890722222 -0.144 Q 1.0441586890722223 -0.196 1.0901586890722221 -0.23 L 1.0901586890722221 -0.23 Z"/><g transform="translate(-23.026162166666662,-12.558069362962964)"><g transform="translate(24.55721091129444,12.574840446296296)"><path fill="" stroke="none" paint-order="stroke fill markers" d=" M 0.486 -0.381 L 0.39 0.001 Q 0.366 0.099 0.28300000000000003 0.16 Q 0.222 0.20500000000000002 0.156 0.20500000000000002 Q 0.089 0.20500000000000002 0.061 0.159 Q 0.05 0.14 0.05 0.11800000000000001 Q 0.05 0.067 0.091 0.055 Q 0.099 0.053 0.106 0.053 Q 0.138 0.053 0.14200000000000002 0.081 Q 0.14300000000000002 0.084 0.14300000000000002 0.088 Q 0.14300000000000002 0.111 0.123 0.129 Q 0.109 0.14100000000000001 0.08 0.14100000000000001 Q 0.098 0.183 0.156 0.183 Q 0.218 0.183 0.266 0.12 Q 0.305 0.068 0.328 -0.021 Q 0.329 -0.025 0.331 -0.034 Q 0.28600000000000003 0.011 0.23 0.011 Q 0.15 0.011 0.121 -0.048 Q 0.108 -0.074 0.108 -0.108 Q 0.108 -0.163 0.161 -0.305 Q 0.163 -0.311 0.166 -0.318 Q 0.183 -0.364 0.183 -0.388 Q 0.183 -0.42 0.158 -0.42 Q 0.10300000000000001 -0.42 0.068 -0.329 L 0.068 -0.328 Q 0.062 -0.313 0.057 -0.296 Q 0.046 -0.279 0.041 -0.278 Q 0.029 -0.278 0.029 -0.28800000000000003 Q 0.029 -0.306 0.05 -0.35100000000000003 Q 0.094 -0.442 0.161 -0.442 Q 0.214 -0.442 0.23500000000000001 -0.397 Q 0.243 -0.38 0.243 -0.36 Q 0.243 -0.339 0.223 -0.28800000000000003 Q 0.17200000000000001 -0.156 0.17200000000000001 -0.092 Q 0.17200000000000001 -0.011 0.234 -0.011 Q 0.292 -0.011 0.335 -0.073 Q 0.34500000000000003 -0.088 0.34700000000000003 -0.096 L 0.392 -0.276 Q 0.399 -0.309 0.41200000000000003 -0.356 Q 0.422 -0.399 0.426 -0.41000000000000003 Q 0.439 -0.431 0.461 -0.431 Q 0.486 -0.426 0.49 -0.404 Q 0.49 -0.395 0.486 -0.381 Z"/></g></g></g></g><text fill="rgb(0,0,0)" stroke="none" font-family="geogebra-sans-serif, sans-serif" font-size="24px" font-style="normal" font-weight="normal" text-decoration="normal" x="111" y="375" text-anchor="start" dominant-baseline="alphabetic" fill-opacity="1">x coordinate</text><text fill="rgb(0,0,0)" stroke="none" font-family="geogebra-sans-serif, sans-serif" font-size="24px" font-style="normal" font-weight="normal" text-decoration="normal" x="111" y="411" text-anchor="start" dominant-baseline="alphabetic" fill-opacity="1">&#160; &#160; system</text><text fill="rgb(0,0,0)" stroke="none" font-family="geogebra-sans-serif, sans-serif" font-size="24px" font-style="normal" font-weight="normal" text-decoration="normal" x="258" y="376" text-anchor="start" dominant-baseline="alphabetic" fill-opacity="1">V coordinate</text><text fill="rgb(0,0,0)" stroke="none" font-family="geogebra-sans-serif, sans-serif" font-size="24px" font-style="normal" font-weight="normal" text-decoration="normal" x="258" y="412" text-anchor="start" dominant-baseline="alphabetic" fill-opacity="1">&#160; &#160; system</text><text fill="rgb(0,0,0)" stroke="none" font-family="geogebra-sans-serif, sans-serif" font-size="24px" font-style="normal" font-weight="normal" text-decoration="normal" x="457" y="376" text-anchor="start" dominant-baseline="alphabetic" fill-opacity="1">U coordinate</text><text fill="rgb(0,0,0)" stroke="none" font-family="geogebra-sans-serif, sans-serif" font-size="24px" font-style="normal" font-weight="normal" text-decoration="normal" x="457" y="412" text-anchor="start" dominant-baseline="alphabetic" fill-opacity="1">&#160; &#160; system</text><text fill="rgb(0,0,0)" stroke="none" font-family="geogebra-sans-serif, sans-serif" font-size="24px" font-style="normal" font-weight="normal" text-decoration="normal" x="686" y="374" text-anchor="start" dominant-baseline="alphabetic" fill-opacity="1">y coordinate</text><text fill="rgb(0,0,0)" stroke="none" font-family="geogebra-sans-serif, sans-serif" font-size="24px" font-style="normal" font-weight="normal" text-decoration="normal" x="686" y="410" text-anchor="start" dominant-baseline="alphabetic" fill-opacity="1">&#160; &#160; system</text></g></g></svg>