<svg version="1.1" xmlns="http://www.w3.org/2000/svg" xmlns:xlink="http://www.w3.org/1999/xlink" width="598" height="506"><defs><clipPath id="FqLSrxFaAtTs"><path fill="none" stroke="none" d=" M 0 0 L 598 0 L 598 506 L 0 506 L 0 0 Z"/></clipPath></defs><g transform="scale(1,1)" clip-path="url(#FqLSrxFaAtTs)"><g><rect fill="rgb(255,255,255)" stroke="none" x="0" y="0" width="598" height="506" fill-opacity="1"/><path fill="none" stroke="rgb(0,0,0)" paint-order="fill stroke markers" d=" M 197.28739733516275 234.64854353856893 C 197.28739733516275 215.69048001090695 162.92228144738186 200.32193297495974 120.53076267777021 200.32193297495974 C 78.13924390815856 200.32193297495974 43.774128020377674 215.69048001090695 43.774128020377674 234.64854353856893 C 43.774128020377674 253.6066070662309 78.13924390815856 268.9751541021781 120.53076267777021 268.9751541021781 C 162.92228144738186 268.9751541021781 197.28739733516275 253.6066070662309 197.28739733516275 234.64854353856893 Z" stroke-opacity="0.6980392156862745" stroke-linecap="round" stroke-linejoin="round" stroke-miterlimit="10" stroke-width="2.5"/><path fill="none" stroke="rgb(0,0,0)" paint-order="fill stroke markers" d=" M 215.39900994657512 457.77151220202745 C 215.39900994657512 448.29248043819655 198.21645200268478 440.608206920223 177.02069261787906 440.608206920223 C 155.82493323307335 440.608206920223 138.642375289183 448.29248043819655 138.642375289183 457.77151220202745 C 138.642375289183 467.25054396585836 155.82493323307335 474.9348174838319 177.02069261787906 474.9348174838319 C 198.21645200268478 474.9348174838319 215.39900994657512 467.25054396585836 215.39900994657512 457.77151220202745 Z" stroke-opacity="0.6980392156862745" stroke-linecap="round" stroke-linejoin="round" stroke-miterlimit="10" stroke-width="2.5"/><path fill="none" stroke="rgb(0,0,0)" paint-order="fill stroke markers" d=" M 490.01189445544736 457.77151220202745 C 490.01189445544736 448.29248043819655 472.829336511557 440.608206920223 451.63357712675133 440.608206920223 C 430.43781774194565 440.608206920223 413.2552597980553 448.29248043819655 413.2552597980553 457.77151220202745 C 413.2552597980553 467.25054396585836 430.43781774194565 474.9348174838319 451.63357712675133 474.9348174838319 C 472.829336511557 474.9348174838319 490.01189445544736 467.25054396585836 490.01189445544736 457.77151220202745 Z" stroke-opacity="0.6980392156862745" stroke-linecap="round" stroke-linejoin="round" stroke-miterlimit="10" stroke-width="2.5"/><path fill="none" stroke="rgb(0,0,0)" paint-order="fill stroke markers" d=" M 558.1413481094312 234.6485435385689 C 558.1413481094312 215.690480010907 530.4353059256873 200.32193297495985 496.258170859443 200.32193297495985 C 462.0810357931987 200.32193297495985 434.37499360945486 215.690480010907 434.37499360945486 234.6485435385689 C 434.37499360945486 253.6066070662308 462.0810357931987 268.97515410217795 496.258170859443 268.97515410217795 C 530.4353059256873 268.97515410217795 558.1413481094312 253.6066070662308 558.1413481094312 234.6485435385689 Z" stroke-opacity="0.6980392156862745" stroke-linecap="round" stroke-linejoin="round" stroke-miterlimit="10" stroke-width="2.5"/><path fill="none" stroke="rgb(0,0,0)" paint-order="fill stroke markers" d=" M 421.8673340273006 63.01549072052393 C 421.8673340273006 45.90313958863443 373.71994685938 32.03083808050026 314.3271348723152 32.03083808050026 C 254.93432288525037 32.03083808050026 206.78693571732975 45.90313958863443 206.78693571732975 63.01549072052393 C 206.78693571732975 80.12784185241344 254.93432288525037 94.0001433605476 314.3271348723152 94.0001433605476 C 373.71994685938 94.0001433605476 421.8673340273006 80.12784185241344 421.8673340273006 63.01549072052393 Z" stroke-opacity="0.6980392156862745" stroke-linecap="round" stroke-linejoin="round" stroke-miterlimit="10" stroke-width="2.5"/><path fill="rgb(0,0,0)" stroke="none" paint-order="stroke fill markers" d=" M 313.9989217646848 92.7498968517329 C 313.7498030558426 92.7498968517329 313.4982409794588 92.82416230326554 313.2792312977031 92.97872996823072 L 170.5477939696603 193.7124729154202 L 170.54779396966026 193.7124729154202 L 168.817949084148 191.26142483917462 L 157.37929023989875 204.5361972984252 L 173.71917625976604 198.20606105520378 L 171.9893313742538 195.75501297895818 L 314.72076870229665 95.02127003176871 C 315.2848005663019 94.62320046933488 315.4193395942027 93.84326316170818 315.0212700317689 93.27923129770295 C 314.77776813430023 92.93420911545337 314.3913769286525 92.7498968517329 313.9989217646848 92.7498968517329 Z" fill-opacity="0.6980392156862745"/><g transform="scale(19,19)"><g transform="translate(9.02129035852,7.009789473684211)"><path fill="rgb(0,0,0)" stroke="none" paint-order="stroke fill markers" d=" M 0.463 -0.339 L 0.463 -0.339 L 0.464 -0.339 Q 0.491 -0.443 0.491 -0.51 Q 0.491 -0.637 0.40900000000000003 -0.678 Q 0.381 -0.6910000000000001 0.34800000000000003 -0.6910000000000001 Q 0.252 -0.6910000000000001 0.20400000000000001 -0.611 Q 0.25 -0.611 0.251 -0.5760000000000001 Q 0.251 -0.547 0.224 -0.531 Q 0.212 -0.523 0.197 -0.523 Q 0.163 -0.528 0.159 -0.558 Q 0.159 -0.589 0.189 -0.633 Q 0.246 -0.716 0.35000000000000003 -0.716 Q 0.457 -0.716 0.518 -0.628 L 0.519 -0.627 Q 0.5660000000000001 -0.558 0.5660000000000001 -0.457 Q 0.5660000000000001 -0.35000000000000003 0.513 -0.223 Q 0.438 -0.046 0.314 0.005 Q 0.271 0.022 0.224 0.022 Q 0.109 0.022 0.061 -0.074 Q 0.04 -0.115 0.04 -0.156 Q 0.04 -0.262 0.115 -0.34700000000000003 Q 0.122 -0.355 0.13 -0.363 Q 0.229 -0.454 0.334 -0.457 Q 0.418 -0.457 0.451 -0.379 Q 0.46 -0.36 0.463 -0.339 M 0.227 -0.006 L 0.227 -0.006 Q 0.334 -0.006 0.401 -0.14100000000000001 Q 0.442 -0.231 0.445 -0.303 Q 0.445 -0.392 0.388 -0.423 Q 0.365 -0.435 0.334 -0.435 Q 0.245 -0.435 0.183 -0.34600000000000003 Q 0.14300000000000002 -0.28700000000000003 0.121 -0.156 Q 0.117 -0.13 0.117 -0.11900000000000001 Q 0.117 -0.051000000000000004 0.164 -0.022 Q 0.189 -0.006 0.227 -0.006 Z"/></g><g transform="translate(9.60829035852,7.009789473684211)"><path fill="rgb(0,0,0)" stroke="none" paint-order="stroke fill markers" d=" M 0.28700000000000003 -0.683 L 0.209 -0.365 Q 0.271 -0.442 0.357 -0.442 Q 0.446 -0.442 0.467 -0.373 L 0.467 -0.372 Q 0.47200000000000003 -0.355 0.47200000000000003 -0.335 Q 0.47200000000000003 -0.279 0.41100000000000003 -0.115 Q 0.393 -0.07100000000000001 0.393 -0.044 Q 0.393 -0.011 0.417 -0.011 Q 0.47900000000000004 -0.011 0.515 -0.121 L 0.519 -0.135 Q 0.524 -0.151 0.529 -0.152 L 0.529 -0.153 L 0.534 -0.153 Q 0.546 -0.153 0.546 -0.14300000000000002 Q 0.546 -0.126 0.525 -0.08 Q 0.482 0.011 0.41500000000000004 0.011 Q 0.364 0.011 0.342 -0.032 Q 0.333 -0.05 0.333 -0.07100000000000001 Q 0.333 -0.089 0.34600000000000003 -0.126 Q 0.40800000000000003 -0.28400000000000003 0.40800000000000003 -0.35000000000000003 Q 0.40800000000000003 -0.42 0.354 -0.42 Q 0.306 -0.42 0.258 -0.385 Q 0.221 -0.356 0.193 -0.299 L 0.19 -0.293 Q 0.186 -0.269 0.179 -0.248 Q 0.17400000000000002 -0.225 0.162 -0.181 L 0.14 -0.091 L 0.121 -0.015 Q 0.114 0.006 0.09 0.01 Q 0.08700000000000001 0.011 0.084 0.011 Q 0.06 0.011 0.056 -0.01 Q 0.055 -0.014 0.055 -0.017 Q 0.055 -0.025 0.059000000000000004 -0.039 L 0.20400000000000001 -0.615 L 0.20700000000000002 -0.635 Q 0.20700000000000002 -0.646 0.193 -0.649 L 0.193 -0.649 Q 0.181 -0.652 0.157 -0.652 Q 0.135 -0.652 0.133 -0.664 Q 0.133 -0.681 0.152 -0.684 L 0.274 -0.6940000000000001 Q 0.28700000000000003 -0.6940000000000001 0.28700000000000003 -0.683 Z"/></g><rect fill="rgb(0,0,0)" stroke="none" x="9.01029035852" y="7.416297973684211" width="1.185" height="0.039999"/><g transform="translate(9.01029035852,8.37224847368421)"><path fill="rgb(0,0,0)" stroke="none" paint-order="stroke fill markers" d=" M 0.463 -0.339 L 0.463 -0.339 L 0.464 -0.339 Q 0.491 -0.443 0.491 -0.51 Q 0.491 -0.637 0.40900000000000003 -0.678 Q 0.381 -0.6910000000000001 0.34800000000000003 -0.6910000000000001 Q 0.252 -0.6910000000000001 0.20400000000000001 -0.611 Q 0.25 -0.611 0.251 -0.5760000000000001 Q 0.251 -0.547 0.224 -0.531 Q 0.212 -0.523 0.197 -0.523 Q 0.163 -0.528 0.159 -0.558 Q 0.159 -0.589 0.189 -0.633 Q 0.246 -0.716 0.35000000000000003 -0.716 Q 0.457 -0.716 0.518 -0.628 L 0.519 -0.627 Q 0.5660000000000001 -0.558 0.5660000000000001 -0.457 Q 0.5660000000000001 -0.35000000000000003 0.513 -0.223 Q 0.438 -0.046 0.314 0.005 Q 0.271 0.022 0.224 0.022 Q 0.109 0.022 0.061 -0.074 Q 0.04 -0.115 0.04 -0.156 Q 0.04 -0.262 0.115 -0.34700000000000003 Q 0.122 -0.355 0.13 -0.363 Q 0.229 -0.454 0.334 -0.457 Q 0.418 -0.457 0.451 -0.379 Q 0.46 -0.36 0.463 -0.339 M 0.227 -0.006 L 0.227 -0.006 Q 0.334 -0.006 0.401 -0.14100000000000001 Q 0.442 -0.231 0.445 -0.303 Q 0.445 -0.392 0.388 -0.423 Q 0.365 -0.435 0.334 -0.435 Q 0.245 -0.435 0.183 -0.34600000000000003 Q 0.14300000000000002 -0.28700000000000003 0.121 -0.156 Q 0.117 -0.13 0.117 -0.11900000000000001 Q 0.117 -0.051000000000000004 0.164 -0.022 Q 0.189 -0.006 0.227 -0.006 Z"/></g><g transform="translate(9.59729035852,8.37224847368421)"><path fill="rgb(0,0,0)" stroke="none" paint-order="stroke fill markers" d=" M 0.367 -0.4 L 0.367 -0.4 L 0.307 -0.083 Q 0.298 -0.021 0.271 0.059000000000000004 Q 0.261 0.088 0.251 0.108 Q 0.216 0.182 0.164 0.2 Q 0.151 0.20500000000000002 0.138 0.20500000000000002 Q 0.088 0.20500000000000002 0.064 0.171 Q 0.053 0.156 0.053 0.136 Q 0.053 0.096 0.08700000000000001 0.081 Q 0.097 0.076 0.108 0.076 Q 0.137 0.076 0.14400000000000002 0.101 Q 0.145 0.106 0.145 0.111 Q 0.145 0.145 0.115 0.159 Q 0.10400000000000001 0.164 0.09 0.165 Q 0.109 0.183 0.138 0.183 Q 0.182 0.183 0.20700000000000002 0.085 Q 0.212 0.062 0.219 0.025 L 0.225 -0.005 L 0.3 -0.4 L 0.234 -0.4 Q 0.209 -0.4 0.20700000000000002 -0.40800000000000003 L 0.20600000000000002 -0.40800000000000003 L 0.20600000000000002 -0.41200000000000003 Q 0.20600000000000002 -0.429 0.223 -0.431 L 0.223 -0.431 L 0.23600000000000002 -0.431 L 0.305 -0.431 Q 0.329 -0.556 0.338 -0.588 Q 0.368 -0.6880000000000001 0.444 -0.7030000000000001 Q 0.455 -0.705 0.465 -0.705 Q 0.517 -0.705 0.541 -0.671 L 0.541 -0.671 Q 0.552 -0.656 0.552 -0.636 Q 0.552 -0.596 0.518 -0.581 Q 0.508 -0.5760000000000001 0.497 -0.5760000000000001 Q 0.468 -0.5760000000000001 0.461 -0.601 Q 0.46 -0.606 0.46 -0.611 Q 0.46 -0.642 0.488 -0.657 Q 0.499 -0.664 0.514 -0.665 Q 0.495 -0.683 0.465 -0.683 Q 0.434 -0.683 0.418 -0.649 Q 0.41100000000000003 -0.635 0.394 -0.545 L 0.373 -0.431 L 0.456 -0.431 Q 0.481 -0.431 0.483 -0.42 Q 0.483 -0.402 0.467 -0.4 L 0.466 -0.4 L 0.453 -0.4 L 0.367 -0.4 Z"/></g><g transform="translate(10.535990073765147,7.686297473684211)"><path fill="rgb(0,0,0)" stroke="none" paint-order="stroke fill markers" d=" M 0.687 -0.327 L 0.09 -0.327 Q 0.058 -0.327 0.056 -0.34700000000000003 Q 0.056 -0.367 0.089 -0.367 L 0.6880000000000001 -0.367 Q 0.72 -0.367 0.721 -0.34700000000000003 Q 0.721 -0.327 0.687 -0.327 M 0.6880000000000001 -0.133 L 0.089 -0.133 Q 0.057 -0.133 0.056 -0.153 Q 0.056 -0.17300000000000001 0.09 -0.17300000000000001 L 0.687 -0.17300000000000001 Q 0.719 -0.17300000000000001 0.721 -0.153 Q 0.721 -0.133 0.6880000000000001 -0.133 Z"/></g><g transform="translate(11.591767851542926,7.686297473684211)"><path fill="rgb(0,0,0)" stroke="none" paint-order="stroke fill markers" d=" M 0.47100000000000003 -0.377 L 0.47100000000000003 -0.377 L 0.36 0.067 Q 0.34500000000000003 0.127 0.28200000000000003 0.168 Q 0.224 0.20500000000000002 0.148 0.20500000000000002 Q 0.025 0.20500000000000002 0.016 0.155 Q 0.015 0.15 0.015 0.14400000000000002 Q 0.015 0.10300000000000001 0.052000000000000005 0.089 Q 0.061 0.08600000000000001 0.069 0.08600000000000001 Q 0.1 0.08600000000000001 0.106 0.113 Q 0.107 0.117 0.107 0.121 Q 0.107 0.153 0.077 0.169 Q 0.07200000000000001 0.171 0.066 0.17300000000000001 Q 0.097 0.183 0.146 0.183 Q 0.244 0.183 0.29 0.075 L 0.323 -0.057 L 0.322 -0.058 Q 0.277 -0.008 0.221 -0.001 Q 0.213 0 0.20600000000000002 0 Q 0.136 0 0.098 -0.061 Q 0.073 -0.10200000000000001 0.073 -0.158 Q 0.073 -0.265 0.149 -0.354 Q 0.219 -0.436 0.3 -0.442 L 0.311 -0.442 Q 0.365 -0.442 0.398 -0.391 L 0.404 -0.379 Q 0.41300000000000003 -0.417 0.445 -0.422 Q 0.47100000000000003 -0.422 0.47400000000000003 -0.395 L 0.47100000000000003 -0.377 M 0.341 -0.128 L 0.341 -0.128 L 0.389 -0.319 Q 0.392 -0.331 0.392 -0.334 Q 0.392 -0.354 0.375 -0.382 L 0.375 -0.382 Q 0.363 -0.402 0.34500000000000003 -0.41200000000000003 Q 0.33 -0.42 0.312 -0.42 Q 0.26 -0.42 0.213 -0.353 Q 0.20600000000000002 -0.342 0.2 -0.331 Q 0.168 -0.271 0.149 -0.164 Q 0.14400000000000002 -0.133 0.14400000000000002 -0.114 Q 0.14400000000000002 -0.048 0.182 -0.028 Q 0.193 -0.022 0.209 -0.022 Q 0.248 -0.022 0.29 -0.058 Q 0.334 -0.096 0.341 -0.128 Z"/></g></g><path fill="rgb(0,0,0)" stroke="none" paint-order="stroke fill markers" d=" M 314.0009920232364 92.74991981000116 C 313.6180538405759 92.74991981000116 313.2400935289518 92.92526195883629 312.99493595181866 93.25679998718113 C 312.5844779186649 93.81188153359481 312.7017184407676 94.59460601502718 313.2567999871813 95.00506404818094 L 449.9936491641159 196.11586215599368 L 448.20996913335125 198.5280158716286 L 464.40572023219914 205.21831828214542 L 453.2637292205177 191.6935803439963 L 451.48004918975306 194.10573405963123 L 314.7432000128185 92.99493595181849 C 314.5196564947496 92.82963549579787 314.25919271587543 92.74991981000116 314.0009920232364 92.74991981000116 Z" fill-opacity="0.6980392156862745"/><g transform="scale(19,19)"><g transform="translate(21.589237726941054,7.009789473684211)"><path fill="rgb(0,0,0)" stroke="none" paint-order="stroke fill markers" d=" M 0.463 -0.339 L 0.463 -0.339 L 0.464 -0.339 Q 0.491 -0.443 0.491 -0.51 Q 0.491 -0.637 0.40900000000000003 -0.678 Q 0.381 -0.6910000000000001 0.34800000000000003 -0.6910000000000001 Q 0.252 -0.6910000000000001 0.20400000000000001 -0.611 Q 0.25 -0.611 0.251 -0.5760000000000001 Q 0.251 -0.547 0.224 -0.531 Q 0.212 -0.523 0.197 -0.523 Q 0.163 -0.528 0.159 -0.558 Q 0.159 -0.589 0.189 -0.633 Q 0.246 -0.716 0.35000000000000003 -0.716 Q 0.457 -0.716 0.518 -0.628 L 0.519 -0.627 Q 0.5660000000000001 -0.558 0.5660000000000001 -0.457 Q 0.5660000000000001 -0.35000000000000003 0.513 -0.223 Q 0.438 -0.046 0.314 0.005 Q 0.271 0.022 0.224 0.022 Q 0.109 0.022 0.061 -0.074 Q 0.04 -0.115 0.04 -0.156 Q 0.04 -0.262 0.115 -0.34700000000000003 Q 0.122 -0.355 0.13 -0.363 Q 0.229 -0.454 0.334 -0.457 Q 0.418 -0.457 0.451 -0.379 Q 0.46 -0.36 0.463 -0.339 M 0.227 -0.006 L 0.227 -0.006 Q 0.334 -0.006 0.401 -0.14100000000000001 Q 0.442 -0.231 0.445 -0.303 Q 0.445 -0.392 0.388 -0.423 Q 0.365 -0.435 0.334 -0.435 Q 0.245 -0.435 0.183 -0.34600000000000003 Q 0.14300000000000002 -0.28700000000000003 0.121 -0.156 Q 0.117 -0.13 0.117 -0.11900000000000001 Q 0.117 -0.051000000000000004 0.164 -0.022 Q 0.189 -0.006 0.227 -0.006 Z"/></g><g transform="translate(22.176237726941054,7.009789473684211)"><path fill="rgb(0,0,0)" stroke="none" paint-order="stroke fill markers" d=" M 0.28700000000000003 -0.683 L 0.209 -0.365 Q 0.271 -0.442 0.357 -0.442 Q 0.446 -0.442 0.467 -0.373 L 0.467 -0.372 Q 0.47200000000000003 -0.355 0.47200000000000003 -0.335 Q 0.47200000000000003 -0.279 0.41100000000000003 -0.115 Q 0.393 -0.07100000000000001 0.393 -0.044 Q 0.393 -0.011 0.417 -0.011 Q 0.47900000000000004 -0.011 0.515 -0.121 L 0.519 -0.135 Q 0.524 -0.151 0.529 -0.152 L 0.529 -0.153 L 0.534 -0.153 Q 0.546 -0.153 0.546 -0.14300000000000002 Q 0.546 -0.126 0.525 -0.08 Q 0.482 0.011 0.41500000000000004 0.011 Q 0.364 0.011 0.342 -0.032 Q 0.333 -0.05 0.333 -0.07100000000000001 Q 0.333 -0.089 0.34600000000000003 -0.126 Q 0.40800000000000003 -0.28400000000000003 0.40800000000000003 -0.35000000000000003 Q 0.40800000000000003 -0.42 0.354 -0.42 Q 0.306 -0.42 0.258 -0.385 Q 0.221 -0.356 0.193 -0.299 L 0.19 -0.293 Q 0.186 -0.269 0.179 -0.248 Q 0.17400000000000002 -0.225 0.162 -0.181 L 0.14 -0.091 L 0.121 -0.015 Q 0.114 0.006 0.09 0.01 Q 0.08700000000000001 0.011 0.084 0.011 Q 0.06 0.011 0.056 -0.01 Q 0.055 -0.014 0.055 -0.017 Q 0.055 -0.025 0.059000000000000004 -0.039 L 0.20400000000000001 -0.615 L 0.20700000000000002 -0.635 Q 0.20700000000000002 -0.646 0.193 -0.649 L 0.193 -0.649 Q 0.181 -0.652 0.157 -0.652 Q 0.135 -0.652 0.133 -0.664 Q 0.133 -0.681 0.152 -0.684 L 0.274 -0.6940000000000001 Q 0.28700000000000003 -0.6940000000000001 0.28700000000000003 -0.683 Z"/></g><rect fill="rgb(0,0,0)" stroke="none" x="21.589237726941054" y="7.416297973684211" width="1.163" height="0.039999"/><g transform="translate(21.620737726941055,8.37224847368421)"><path fill="rgb(0,0,0)" stroke="none" paint-order="stroke fill markers" d=" M 0.463 -0.339 L 0.463 -0.339 L 0.464 -0.339 Q 0.491 -0.443 0.491 -0.51 Q 0.491 -0.637 0.40900000000000003 -0.678 Q 0.381 -0.6910000000000001 0.34800000000000003 -0.6910000000000001 Q 0.252 -0.6910000000000001 0.20400000000000001 -0.611 Q 0.25 -0.611 0.251 -0.5760000000000001 Q 0.251 -0.547 0.224 -0.531 Q 0.212 -0.523 0.197 -0.523 Q 0.163 -0.528 0.159 -0.558 Q 0.159 -0.589 0.189 -0.633 Q 0.246 -0.716 0.35000000000000003 -0.716 Q 0.457 -0.716 0.518 -0.628 L 0.519 -0.627 Q 0.5660000000000001 -0.558 0.5660000000000001 -0.457 Q 0.5660000000000001 -0.35000000000000003 0.513 -0.223 Q 0.438 -0.046 0.314 0.005 Q 0.271 0.022 0.224 0.022 Q 0.109 0.022 0.061 -0.074 Q 0.04 -0.115 0.04 -0.156 Q 0.04 -0.262 0.115 -0.34700000000000003 Q 0.122 -0.355 0.13 -0.363 Q 0.229 -0.454 0.334 -0.457 Q 0.418 -0.457 0.451 -0.379 Q 0.46 -0.36 0.463 -0.339 M 0.227 -0.006 L 0.227 -0.006 Q 0.334 -0.006 0.401 -0.14100000000000001 Q 0.442 -0.231 0.445 -0.303 Q 0.445 -0.392 0.388 -0.423 Q 0.365 -0.435 0.334 -0.435 Q 0.245 -0.435 0.183 -0.34600000000000003 Q 0.14300000000000002 -0.28700000000000003 0.121 -0.156 Q 0.117 -0.13 0.117 -0.11900000000000001 Q 0.117 -0.051000000000000004 0.164 -0.022 Q 0.189 -0.006 0.227 -0.006 Z"/></g><g transform="translate(22.207737726941055,8.37224847368421)"><path fill="rgb(0,0,0)" stroke="none" paint-order="stroke fill markers" d=" M 0.47100000000000003 -0.377 L 0.47100000000000003 -0.377 L 0.36 0.067 Q 0.34500000000000003 0.127 0.28200000000000003 0.168 Q 0.224 0.20500000000000002 0.148 0.20500000000000002 Q 0.025 0.20500000000000002 0.016 0.155 Q 0.015 0.15 0.015 0.14400000000000002 Q 0.015 0.10300000000000001 0.052000000000000005 0.089 Q 0.061 0.08600000000000001 0.069 0.08600000000000001 Q 0.1 0.08600000000000001 0.106 0.113 Q 0.107 0.117 0.107 0.121 Q 0.107 0.153 0.077 0.169 Q 0.07200000000000001 0.171 0.066 0.17300000000000001 Q 0.097 0.183 0.146 0.183 Q 0.244 0.183 0.29 0.075 L 0.323 -0.057 L 0.322 -0.058 Q 0.277 -0.008 0.221 -0.001 Q 0.213 0 0.20600000000000002 0 Q 0.136 0 0.098 -0.061 Q 0.073 -0.10200000000000001 0.073 -0.158 Q 0.073 -0.265 0.149 -0.354 Q 0.219 -0.436 0.3 -0.442 L 0.311 -0.442 Q 0.365 -0.442 0.398 -0.391 L 0.404 -0.379 Q 0.41300000000000003 -0.417 0.445 -0.422 Q 0.47100000000000003 -0.422 0.47400000000000003 -0.395 L 0.47100000000000003 -0.377 M 0.341 -0.128 L 0.341 -0.128 L 0.389 -0.319 Q 0.392 -0.331 0.392 -0.334 Q 0.392 -0.354 0.375 -0.382 L 0.375 -0.382 Q 0.363 -0.402 0.34500000000000003 -0.41200000000000003 Q 0.33 -0.42 0.312 -0.42 Q 0.26 -0.42 0.213 -0.353 Q 0.20600000000000002 -0.342 0.2 -0.331 Q 0.168 -0.271 0.149 -0.164 Q 0.14400000000000002 -0.133 0.14400000000000002 -0.114 Q 0.14400000000000002 -0.048 0.182 -0.028 Q 0.193 -0.022 0.209 -0.022 Q 0.248 -0.022 0.29 -0.058 Q 0.334 -0.096 0.341 -0.128 Z"/></g><g transform="translate(23.0929374421862,7.686297473684211)"><path fill="rgb(0,0,0)" stroke="none" paint-order="stroke fill markers" d=" M 0.687 -0.327 L 0.09 -0.327 Q 0.058 -0.327 0.056 -0.34700000000000003 Q 0.056 -0.367 0.089 -0.367 L 0.6880000000000001 -0.367 Q 0.72 -0.367 0.721 -0.34700000000000003 Q 0.721 -0.327 0.687 -0.327 M 0.6880000000000001 -0.133 L 0.089 -0.133 Q 0.057 -0.133 0.056 -0.153 Q 0.056 -0.17300000000000001 0.09 -0.17300000000000001 L 0.687 -0.17300000000000001 Q 0.719 -0.17300000000000001 0.721 -0.153 Q 0.721 -0.133 0.6880000000000001 -0.133 Z"/></g><g transform="translate(24.14871521996398,7.686297473684211)"><path fill="rgb(0,0,0)" stroke="none" paint-order="stroke fill markers" d=" M 0.367 -0.4 L 0.367 -0.4 L 0.307 -0.083 Q 0.298 -0.021 0.271 0.059000000000000004 Q 0.261 0.088 0.251 0.108 Q 0.216 0.182 0.164 0.2 Q 0.151 0.20500000000000002 0.138 0.20500000000000002 Q 0.088 0.20500000000000002 0.064 0.171 Q 0.053 0.156 0.053 0.136 Q 0.053 0.096 0.08700000000000001 0.081 Q 0.097 0.076 0.108 0.076 Q 0.137 0.076 0.14400000000000002 0.101 Q 0.145 0.106 0.145 0.111 Q 0.145 0.145 0.115 0.159 Q 0.10400000000000001 0.164 0.09 0.165 Q 0.109 0.183 0.138 0.183 Q 0.182 0.183 0.20700000000000002 0.085 Q 0.212 0.062 0.219 0.025 L 0.225 -0.005 L 0.3 -0.4 L 0.234 -0.4 Q 0.209 -0.4 0.20700000000000002 -0.40800000000000003 L 0.20600000000000002 -0.40800000000000003 L 0.20600000000000002 -0.41200000000000003 Q 0.20600000000000002 -0.429 0.223 -0.431 L 0.223 -0.431 L 0.23600000000000002 -0.431 L 0.305 -0.431 Q 0.329 -0.556 0.338 -0.588 Q 0.368 -0.6880000000000001 0.444 -0.7030000000000001 Q 0.455 -0.705 0.465 -0.705 Q 0.517 -0.705 0.541 -0.671 L 0.541 -0.671 Q 0.552 -0.656 0.552 -0.636 Q 0.552 -0.596 0.518 -0.581 Q 0.508 -0.5760000000000001 0.497 -0.5760000000000001 Q 0.468 -0.5760000000000001 0.461 -0.601 Q 0.46 -0.606 0.46 -0.611 Q 0.46 -0.642 0.488 -0.657 Q 0.499 -0.664 0.514 -0.665 Q 0.495 -0.683 0.465 -0.683 Q 0.434 -0.683 0.418 -0.649 Q 0.41100000000000003 -0.635 0.394 -0.545 L 0.373 -0.431 L 0.456 -0.431 Q 0.481 -0.431 0.483 -0.42 Q 0.483 -0.402 0.467 -0.4 L 0.466 -0.4 L 0.453 -0.4 L 0.367 -0.4 Z"/></g></g><path fill="rgb(0,0,0)" stroke="none" paint-order="stroke fill markers" d=" M 120.0063825080281 267.724013603425 C 119.8759446723685 267.724013603425 119.74328494589112 267.74459234890156 119.61269488566907 267.78790371243383 C 118.95743733885497 268.0052257488053 118.60242046273106 268.71259126360206 118.81974249910253 269.36784881041615 L 170.39211355299216 424.8660481848851 L 170.39211355299224 424.8660481848851 L 167.54463657153352 425.8104394385841 L 176.93011273289434 440.6082547241095 L 175.61248801899964 423.13466421977023 L 172.7650110375411 424.0790554734692 L 172.76501103754097 424.0790554734692 L 121.1926399836514 268.58085609900036 C 121.0186293108122 268.05618861240833 120.53043840688949 267.724013603425 120.0063825080281 267.724013603425 Z" fill-opacity="0.6980392156862745"/><path fill="rgb(0,0,0)" stroke="none" paint-order="stroke fill markers" d=" M 120.00723075024771 267.72409389091194 C 119.55545509367956 267.72409389091194 119.11928634388744 267.9697754223641 118.89676264049595 268.39844605645663 C 118.5786983194116 269.0111665537493 118.81756434583265 269.7657167345049 119.43028484312535 270.08378105558927 L 434.9890525555225 433.890909523023 L 433.6068771997186 436.5535381651375 L 450.6531879257562 440.613807938364 L 437.52304070782964 429.0094236791465 L 436.14086535202574 431.672052321261 L 120.58209763962859 267.86492385382724 C 120.39804777642844 267.7693832361344 120.20120076166346 267.72409389091194 120.00723075024771 267.72409389091194 Z" fill-opacity="0.6980392156862745"/><g transform="scale(19,19)"><g transform="translate(12.01029035852,15.483473684210523)"><path fill="rgb(0,0,0)" stroke="none" paint-order="stroke fill markers" d=" M 0.463 -0.339 L 0.463 -0.339 L 0.464 -0.339 Q 0.491 -0.443 0.491 -0.51 Q 0.491 -0.637 0.40900000000000003 -0.678 Q 0.381 -0.6910000000000001 0.34800000000000003 -0.6910000000000001 Q 0.252 -0.6910000000000001 0.20400000000000001 -0.611 Q 0.25 -0.611 0.251 -0.5760000000000001 Q 0.251 -0.547 0.224 -0.531 Q 0.212 -0.523 0.197 -0.523 Q 0.163 -0.528 0.159 -0.558 Q 0.159 -0.589 0.189 -0.633 Q 0.246 -0.716 0.35000000000000003 -0.716 Q 0.457 -0.716 0.518 -0.628 L 0.519 -0.627 Q 0.5660000000000001 -0.558 0.5660000000000001 -0.457 Q 0.5660000000000001 -0.35000000000000003 0.513 -0.223 Q 0.438 -0.046 0.314 0.005 Q 0.271 0.022 0.224 0.022 Q 0.109 0.022 0.061 -0.074 Q 0.04 -0.115 0.04 -0.156 Q 0.04 -0.262 0.115 -0.34700000000000003 Q 0.122 -0.355 0.13 -0.363 Q 0.229 -0.454 0.334 -0.457 Q 0.418 -0.457 0.451 -0.379 Q 0.46 -0.36 0.463 -0.339 M 0.227 -0.006 L 0.227 -0.006 Q 0.334 -0.006 0.401 -0.14100000000000001 Q 0.442 -0.231 0.445 -0.303 Q 0.445 -0.392 0.388 -0.423 Q 0.365 -0.435 0.334 -0.435 Q 0.245 -0.435 0.183 -0.34600000000000003 Q 0.14300000000000002 -0.28700000000000003 0.121 -0.156 Q 0.117 -0.13 0.117 -0.11900000000000001 Q 0.117 -0.051000000000000004 0.164 -0.022 Q 0.189 -0.006 0.227 -0.006 Z"/></g><g transform="translate(12.59729035852,15.483473684210523)"><path fill="rgb(0,0,0)" stroke="none" paint-order="stroke fill markers" d=" M 0.367 -0.4 L 0.367 -0.4 L 0.307 -0.083 Q 0.298 -0.021 0.271 0.059000000000000004 Q 0.261 0.088 0.251 0.108 Q 0.216 0.182 0.164 0.2 Q 0.151 0.20500000000000002 0.138 0.20500000000000002 Q 0.088 0.20500000000000002 0.064 0.171 Q 0.053 0.156 0.053 0.136 Q 0.053 0.096 0.08700000000000001 0.081 Q 0.097 0.076 0.108 0.076 Q 0.137 0.076 0.14400000000000002 0.101 Q 0.145 0.106 0.145 0.111 Q 0.145 0.145 0.115 0.159 Q 0.10400000000000001 0.164 0.09 0.165 Q 0.109 0.183 0.138 0.183 Q 0.182 0.183 0.20700000000000002 0.085 Q 0.212 0.062 0.219 0.025 L 0.225 -0.005 L 0.3 -0.4 L 0.234 -0.4 Q 0.209 -0.4 0.20700000000000002 -0.40800000000000003 L 0.20600000000000002 -0.40800000000000003 L 0.20600000000000002 -0.41200000000000003 Q 0.20600000000000002 -0.429 0.223 -0.431 L 0.223 -0.431 L 0.23600000000000002 -0.431 L 0.305 -0.431 Q 0.329 -0.556 0.338 -0.588 Q 0.368 -0.6880000000000001 0.444 -0.7030000000000001 Q 0.455 -0.705 0.465 -0.705 Q 0.517 -0.705 0.541 -0.671 L 0.541 -0.671 Q 0.552 -0.656 0.552 -0.636 Q 0.552 -0.596 0.518 -0.581 Q 0.508 -0.5760000000000001 0.497 -0.5760000000000001 Q 0.468 -0.5760000000000001 0.461 -0.601 Q 0.46 -0.606 0.46 -0.611 Q 0.46 -0.642 0.488 -0.657 Q 0.499 -0.664 0.514 -0.665 Q 0.495 -0.683 0.465 -0.683 Q 0.434 -0.683 0.418 -0.649 Q 0.41100000000000003 -0.635 0.394 -0.545 L 0.373 -0.431 L 0.456 -0.431 Q 0.481 -0.431 0.483 -0.42 Q 0.483 -0.402 0.467 -0.4 L 0.466 -0.4 L 0.453 -0.4 L 0.367 -0.4 Z"/></g><rect fill="rgb(0,0,0)" stroke="none" x="12.01029035852" y="15.889982184210524" width="1.185" height="0.039999"/><g transform="translate(12.04629035852,16.845932684210524)"><path fill="rgb(0,0,0)" stroke="none" paint-order="stroke fill markers" d=" M 0.463 -0.339 L 0.463 -0.339 L 0.464 -0.339 Q 0.491 -0.443 0.491 -0.51 Q 0.491 -0.637 0.40900000000000003 -0.678 Q 0.381 -0.6910000000000001 0.34800000000000003 -0.6910000000000001 Q 0.252 -0.6910000000000001 0.20400000000000001 -0.611 Q 0.25 -0.611 0.251 -0.5760000000000001 Q 0.251 -0.547 0.224 -0.531 Q 0.212 -0.523 0.197 -0.523 Q 0.163 -0.528 0.159 -0.558 Q 0.159 -0.589 0.189 -0.633 Q 0.246 -0.716 0.35000000000000003 -0.716 Q 0.457 -0.716 0.518 -0.628 L 0.519 -0.627 Q 0.5660000000000001 -0.558 0.5660000000000001 -0.457 Q 0.5660000000000001 -0.35000000000000003 0.513 -0.223 Q 0.438 -0.046 0.314 0.005 Q 0.271 0.022 0.224 0.022 Q 0.109 0.022 0.061 -0.074 Q 0.04 -0.115 0.04 -0.156 Q 0.04 -0.262 0.115 -0.34700000000000003 Q 0.122 -0.355 0.13 -0.363 Q 0.229 -0.454 0.334 -0.457 Q 0.418 -0.457 0.451 -0.379 Q 0.46 -0.36 0.463 -0.339 M 0.227 -0.006 L 0.227 -0.006 Q 0.334 -0.006 0.401 -0.14100000000000001 Q 0.442 -0.231 0.445 -0.303 Q 0.445 -0.392 0.388 -0.423 Q 0.365 -0.435 0.334 -0.435 Q 0.245 -0.435 0.183 -0.34600000000000003 Q 0.14300000000000002 -0.28700000000000003 0.121 -0.156 Q 0.117 -0.13 0.117 -0.11900000000000001 Q 0.117 -0.051000000000000004 0.164 -0.022 Q 0.189 -0.006 0.227 -0.006 Z"/></g><g transform="translate(12.63329035852,16.845932684210524)"><path fill="rgb(0,0,0)" stroke="none" paint-order="stroke fill markers" d=" M 0.486 -0.381 L 0.39 0.001 Q 0.366 0.099 0.28300000000000003 0.16 Q 0.222 0.20500000000000002 0.156 0.20500000000000002 Q 0.089 0.20500000000000002 0.061 0.159 Q 0.05 0.14 0.05 0.11800000000000001 Q 0.05 0.067 0.091 0.055 Q 0.099 0.053 0.106 0.053 Q 0.138 0.053 0.14200000000000002 0.081 Q 0.14300000000000002 0.084 0.14300000000000002 0.088 Q 0.14300000000000002 0.111 0.123 0.129 Q 0.109 0.14100000000000001 0.08 0.14100000000000001 Q 0.098 0.183 0.156 0.183 Q 0.218 0.183 0.266 0.12 Q 0.305 0.068 0.328 -0.021 Q 0.329 -0.025 0.331 -0.034 Q 0.28600000000000003 0.011 0.23 0.011 Q 0.15 0.011 0.121 -0.048 Q 0.108 -0.074 0.108 -0.108 Q 0.108 -0.163 0.161 -0.305 Q 0.163 -0.311 0.166 -0.318 Q 0.183 -0.364 0.183 -0.388 Q 0.183 -0.42 0.158 -0.42 Q 0.10300000000000001 -0.42 0.068 -0.329 L 0.068 -0.328 Q 0.062 -0.313 0.057 -0.296 Q 0.046 -0.279 0.041 -0.278 Q 0.029 -0.278 0.029 -0.28800000000000003 Q 0.029 -0.306 0.05 -0.35100000000000003 Q 0.094 -0.442 0.161 -0.442 Q 0.214 -0.442 0.23500000000000001 -0.397 Q 0.243 -0.38 0.243 -0.36 Q 0.243 -0.339 0.223 -0.28800000000000003 Q 0.17200000000000001 -0.156 0.17200000000000001 -0.092 Q 0.17200000000000001 -0.011 0.234 -0.011 Q 0.292 -0.011 0.335 -0.073 Q 0.34500000000000003 -0.088 0.34700000000000003 -0.096 L 0.392 -0.276 Q 0.399 -0.309 0.41200000000000003 -0.356 Q 0.422 -0.399 0.426 -0.41000000000000003 Q 0.439 -0.431 0.461 -0.431 Q 0.486 -0.426 0.49 -0.404 Q 0.49 -0.395 0.486 -0.381 Z"/></g><g transform="translate(13.535990073765147,16.159981684210525)"><path fill="rgb(0,0,0)" stroke="none" paint-order="stroke fill markers" d=" M 0.687 -0.327 L 0.09 -0.327 Q 0.058 -0.327 0.056 -0.34700000000000003 Q 0.056 -0.367 0.089 -0.367 L 0.6880000000000001 -0.367 Q 0.72 -0.367 0.721 -0.34700000000000003 Q 0.721 -0.327 0.687 -0.327 M 0.6880000000000001 -0.133 L 0.089 -0.133 Q 0.057 -0.133 0.056 -0.153 Q 0.056 -0.17300000000000001 0.09 -0.17300000000000001 L 0.687 -0.17300000000000001 Q 0.719 -0.17300000000000001 0.721 -0.153 Q 0.721 -0.133 0.6880000000000001 -0.133 Z"/></g><g transform="translate(14.591767851542926,16.159981684210525)"><path fill="rgb(0,0,0)" stroke="none" paint-order="stroke fill markers" d=" M 0.661 -0.23 L 0.116 -0.23 Q 0.084 -0.23 0.083 -0.25 Q 0.083 -0.27 0.116 -0.27 L 0.661 -0.27 Q 0.6930000000000001 -0.27 0.6940000000000001 -0.25 Q 0.6940000000000001 -0.23 0.661 -0.23 Z"/></g><g transform="translate(15.369767851542926,16.159981684210525)"><path fill="rgb(0,0,0)" stroke="none" paint-order="stroke fill markers" d=" M 0.29 -0.352 L 0.29 -0.352 Q 0.39 -0.332 0.434 -0.254 Q 0.457 -0.215 0.457 -0.171 Q 0.457 -0.08600000000000001 0.387 -0.028 Q 0.326 0.022 0.244 0.022 Q 0.145 0.022 0.085 -0.037 Q 0.042 -0.079 0.042 -0.135 Q 0.042 -0.182 0.084 -0.191 Q 0.091 -0.193 0.098 -0.193 Q 0.136 -0.193 0.149 -0.161 Q 0.153 -0.148 0.154 -0.137 Q 0.154 -0.097 0.11800000000000001 -0.085 Q 0.10400000000000001 -0.08 0.088 -0.082 Q 0.125 -0.02 0.216 -0.008 Q 0.229 -0.006 0.241 -0.006 Q 0.305 -0.006 0.335 -0.069 Q 0.354 -0.109 0.354 -0.171 Q 0.354 -0.304 0.274 -0.331 Q 0.256 -0.337 0.23500000000000001 -0.337 L 0.191 -0.337 Q 0.169 -0.337 0.167 -0.34800000000000003 Q 0.167 -0.358 0.182 -0.36 Q 0.197 -0.36 0.221 -0.363 Q 0.272 -0.365 0.301 -0.402 L 0.301 -0.403 L 0.302 -0.404 L 0.303 -0.405 L 0.304 -0.405 L 0.31 -0.41500000000000004 Q 0.338 -0.462 0.338 -0.529 Q 0.338 -0.622 0.266 -0.638 Q 0.254 -0.641 0.242 -0.641 Q 0.17200000000000001 -0.641 0.128 -0.601 Q 0.117 -0.591 0.109 -0.579 Q 0.171 -0.579 0.171 -0.529 Q 0.171 -0.493 0.14 -0.481 Q 0.131 -0.47800000000000004 0.12 -0.47800000000000004 Q 0.081 -0.47800000000000004 0.07100000000000001 -0.513 L 0.07100000000000001 -0.513 L 0.07100000000000001 -0.514 Q 0.069 -0.522 0.069 -0.53 Q 0.069 -0.597 0.135 -0.637 Q 0.183 -0.666 0.246 -0.666 Q 0.337 -0.666 0.393 -0.612 L 0.395 -0.61 Q 0.43 -0.5740000000000001 0.43 -0.528 Q 0.43 -0.445 0.359 -0.389 Q 0.328 -0.365 0.29 -0.352 Z"/></g></g><path fill="rgb(0,0,0)" stroke="none" paint-order="stroke fill markers" d=" M 498.01406044022957 267.7110703875021 C 497.81520293977354 267.7110703875021 497.6134649451472 267.75864519863546 497.4258373729141 267.85894790683824 L 191.33301128009902 431.49129177371145 L 191.333011280099 431.49129177371145 L 189.91867102312062 428.84560818766226 L 176.93011273289434 440.6082547241095 L 193.9259684178927 436.3417116814684 L 192.51162816091434 433.6960280954192 L 192.5116281609143 433.6960280954192 L 498.6044542537294 270.063684228546 C 499.213275377668 269.73821816396224 499.44298003875934 268.9808287512231 499.1175139741756 268.37200762728446 C 498.89235061779465 267.95081407557893 498.46046336440264 267.7110703875021 498.01406044022957 267.7110703875021 Z" fill-opacity="0.6980392156862745"/><g transform="scale(19,19)"><g transform="translate(19.145053516414738,15.483473684210523)"><path fill="rgb(0,0,0)" stroke="none" paint-order="stroke fill markers" d=" M 0.463 -0.339 L 0.463 -0.339 L 0.464 -0.339 Q 0.491 -0.443 0.491 -0.51 Q 0.491 -0.637 0.40900000000000003 -0.678 Q 0.381 -0.6910000000000001 0.34800000000000003 -0.6910000000000001 Q 0.252 -0.6910000000000001 0.20400000000000001 -0.611 Q 0.25 -0.611 0.251 -0.5760000000000001 Q 0.251 -0.547 0.224 -0.531 Q 0.212 -0.523 0.197 -0.523 Q 0.163 -0.528 0.159 -0.558 Q 0.159 -0.589 0.189 -0.633 Q 0.246 -0.716 0.35000000000000003 -0.716 Q 0.457 -0.716 0.518 -0.628 L 0.519 -0.627 Q 0.5660000000000001 -0.558 0.5660000000000001 -0.457 Q 0.5660000000000001 -0.35000000000000003 0.513 -0.223 Q 0.438 -0.046 0.314 0.005 Q 0.271 0.022 0.224 0.022 Q 0.109 0.022 0.061 -0.074 Q 0.04 -0.115 0.04 -0.156 Q 0.04 -0.262 0.115 -0.34700000000000003 Q 0.122 -0.355 0.13 -0.363 Q 0.229 -0.454 0.334 -0.457 Q 0.418 -0.457 0.451 -0.379 Q 0.46 -0.36 0.463 -0.339 M 0.227 -0.006 L 0.227 -0.006 Q 0.334 -0.006 0.401 -0.14100000000000001 Q 0.442 -0.231 0.445 -0.303 Q 0.445 -0.392 0.388 -0.423 Q 0.365 -0.435 0.334 -0.435 Q 0.245 -0.435 0.183 -0.34600000000000003 Q 0.14300000000000002 -0.28700000000000003 0.121 -0.156 Q 0.117 -0.13 0.117 -0.11900000000000001 Q 0.117 -0.051000000000000004 0.164 -0.022 Q 0.189 -0.006 0.227 -0.006 Z"/></g><g transform="translate(19.732053516414737,15.483473684210523)"><path fill="rgb(0,0,0)" stroke="none" paint-order="stroke fill markers" d=" M 0.47100000000000003 -0.377 L 0.47100000000000003 -0.377 L 0.36 0.067 Q 0.34500000000000003 0.127 0.28200000000000003 0.168 Q 0.224 0.20500000000000002 0.148 0.20500000000000002 Q 0.025 0.20500000000000002 0.016 0.155 Q 0.015 0.15 0.015 0.14400000000000002 Q 0.015 0.10300000000000001 0.052000000000000005 0.089 Q 0.061 0.08600000000000001 0.069 0.08600000000000001 Q 0.1 0.08600000000000001 0.106 0.113 Q 0.107 0.117 0.107 0.121 Q 0.107 0.153 0.077 0.169 Q 0.07200000000000001 0.171 0.066 0.17300000000000001 Q 0.097 0.183 0.146 0.183 Q 0.244 0.183 0.29 0.075 L 0.323 -0.057 L 0.322 -0.058 Q 0.277 -0.008 0.221 -0.001 Q 0.213 0 0.20600000000000002 0 Q 0.136 0 0.098 -0.061 Q 0.073 -0.10200000000000001 0.073 -0.158 Q 0.073 -0.265 0.149 -0.354 Q 0.219 -0.436 0.3 -0.442 L 0.311 -0.442 Q 0.365 -0.442 0.398 -0.391 L 0.404 -0.379 Q 0.41300000000000003 -0.417 0.445 -0.422 Q 0.47100000000000003 -0.422 0.47400000000000003 -0.395 L 0.47100000000000003 -0.377 M 0.341 -0.128 L 0.341 -0.128 L 0.389 -0.319 Q 0.392 -0.331 0.392 -0.334 Q 0.392 -0.354 0.375 -0.382 L 0.375 -0.382 Q 0.363 -0.402 0.34500000000000003 -0.41200000000000003 Q 0.33 -0.42 0.312 -0.42 Q 0.26 -0.42 0.213 -0.353 Q 0.20600000000000002 -0.342 0.2 -0.331 Q 0.168 -0.271 0.149 -0.164 Q 0.14400000000000002 -0.133 0.14400000000000002 -0.114 Q 0.14400000000000002 -0.048 0.182 -0.028 Q 0.193 -0.022 0.209 -0.022 Q 0.248 -0.022 0.29 -0.058 Q 0.334 -0.096 0.341 -0.128 Z"/></g><rect fill="rgb(0,0,0)" stroke="none" x="19.11555351641474" y="15.889982184210524" width="1.1590000000000003" height="0.039999"/><g transform="translate(19.11555351641474,16.845932684210524)"><path fill="rgb(0,0,0)" stroke="none" paint-order="stroke fill markers" d=" M 0.463 -0.339 L 0.463 -0.339 L 0.464 -0.339 Q 0.491 -0.443 0.491 -0.51 Q 0.491 -0.637 0.40900000000000003 -0.678 Q 0.381 -0.6910000000000001 0.34800000000000003 -0.6910000000000001 Q 0.252 -0.6910000000000001 0.20400000000000001 -0.611 Q 0.25 -0.611 0.251 -0.5760000000000001 Q 0.251 -0.547 0.224 -0.531 Q 0.212 -0.523 0.197 -0.523 Q 0.163 -0.528 0.159 -0.558 Q 0.159 -0.589 0.189 -0.633 Q 0.246 -0.716 0.35000000000000003 -0.716 Q 0.457 -0.716 0.518 -0.628 L 0.519 -0.627 Q 0.5660000000000001 -0.558 0.5660000000000001 -0.457 Q 0.5660000000000001 -0.35000000000000003 0.513 -0.223 Q 0.438 -0.046 0.314 0.005 Q 0.271 0.022 0.224 0.022 Q 0.109 0.022 0.061 -0.074 Q 0.04 -0.115 0.04 -0.156 Q 0.04 -0.262 0.115 -0.34700000000000003 Q 0.122 -0.355 0.13 -0.363 Q 0.229 -0.454 0.334 -0.457 Q 0.418 -0.457 0.451 -0.379 Q 0.46 -0.36 0.463 -0.339 M 0.227 -0.006 L 0.227 -0.006 Q 0.334 -0.006 0.401 -0.14100000000000001 Q 0.442 -0.231 0.445 -0.303 Q 0.445 -0.392 0.388 -0.423 Q 0.365 -0.435 0.334 -0.435 Q 0.245 -0.435 0.183 -0.34600000000000003 Q 0.14300000000000002 -0.28700000000000003 0.121 -0.156 Q 0.117 -0.13 0.117 -0.11900000000000001 Q 0.117 -0.051000000000000004 0.164 -0.022 Q 0.189 -0.006 0.227 -0.006 Z"/></g><g transform="translate(19.70255351641474,16.845932684210524)"><path fill="rgb(0,0,0)" stroke="none" paint-order="stroke fill markers" d=" M 0.334 -0.302 L 0.3 -0.165 Q 0.28300000000000003 -0.097 0.28300000000000003 -0.077 Q 0.28300000000000003 -0.025 0.32 -0.014 Q 0.328 -0.011 0.338 -0.011 Q 0.388 -0.011 0.429 -0.061 Q 0.456 -0.093 0.47100000000000003 -0.14200000000000002 Q 0.47400000000000003 -0.153 0.484 -0.153 Q 0.496 -0.153 0.496 -0.14300000000000002 Q 0.496 -0.11800000000000001 0.465 -0.07100000000000001 Q 0.41100000000000003 0.011 0.336 0.011 Q 0.268 0.011 0.23700000000000002 -0.046 Q 0.231 -0.055 0.228 -0.065 Q 0.20400000000000001 -0.017 0.162 0.002 Q 0.14300000000000002 0.011 0.123 0.011 Q 0.063 0.011 0.039 -0.024 Q 0.029 -0.037 0.029 -0.055 Q 0.029 -0.092 0.061 -0.107 Q 0.07200000000000001 -0.113 0.084 -0.113 Q 0.114 -0.113 0.12 -0.088 Q 0.121 -0.083 0.121 -0.078 Q 0.121 -0.044 0.08700000000000001 -0.028 Q 0.081 -0.025 0.074 -0.024 Q 0.095 -0.011 0.124 -0.011 Q 0.177 -0.011 0.20800000000000002 -0.082 Q 0.214 -0.097 0.219 -0.115 Q 0.273 -0.319 0.273 -0.353 Q 0.267 -0.41500000000000004 0.219 -0.42 Q 0.167 -0.42 0.124 -0.367 L 0.124 -0.366 Q 0.124 -0.365 0.123 -0.365 Q 0.108 -0.34500000000000003 0.096 -0.319 Q 0.091 -0.307 0.08700000000000001 -0.295 L 0.085 -0.289 Q 0.083 -0.278 0.07200000000000001 -0.278 Q 0.06 -0.278 0.06 -0.28800000000000003 Q 0.06 -0.313 0.092 -0.36 Q 0.146 -0.442 0.221 -0.442 Q 0.298 -0.442 0.329 -0.366 Q 0.361 -0.428 0.41400000000000003 -0.44 Q 0.424 -0.442 0.434 -0.442 Q 0.493 -0.442 0.517 -0.40900000000000003 Q 0.527 -0.395 0.527 -0.376 Q 0.527 -0.335 0.49 -0.321 Q 0.481 -0.318 0.47300000000000003 -0.318 Q 0.442 -0.318 0.436 -0.34500000000000003 Q 0.435 -0.34900000000000003 0.435 -0.353 Q 0.435 -0.383 0.464 -0.4 Q 0.47300000000000003 -0.405 0.483 -0.40700000000000003 Q 0.462 -0.42 0.433 -0.42 Q 0.365 -0.42 0.337 -0.314 Q 0.335 -0.308 0.334 -0.302 Z"/></g><g transform="translate(20.615253231659885,16.159981684210525)"><path fill="rgb(0,0,0)" stroke="none" paint-order="stroke fill markers" d=" M 0.687 -0.327 L 0.09 -0.327 Q 0.058 -0.327 0.056 -0.34700000000000003 Q 0.056 -0.367 0.089 -0.367 L 0.6880000000000001 -0.367 Q 0.72 -0.367 0.721 -0.34700000000000003 Q 0.721 -0.327 0.687 -0.327 M 0.6880000000000001 -0.133 L 0.089 -0.133 Q 0.057 -0.133 0.056 -0.153 Q 0.056 -0.17300000000000001 0.09 -0.17300000000000001 L 0.687 -0.17300000000000001 Q 0.719 -0.17300000000000001 0.721 -0.153 Q 0.721 -0.133 0.6880000000000001 -0.133 Z"/></g><g transform="translate(21.671031009437662,16.159981684210525)"><path fill="rgb(0,0,0)" stroke="none" paint-order="stroke fill markers" d=" M 0.449 -0.17400000000000002 L 0.449 -0.17400000000000002 L 0.421 0 L 0.05 0 Q 0.05 -0.025 0.056 -0.032 L 0.061 -0.037 L 0.253 -0.251 Q 0.358 -0.369 0.358 -0.47200000000000003 Q 0.358 -0.561 0.304 -0.607 L 0.303 -0.608 L 0.302 -0.608 Q 0.27 -0.635 0.224 -0.635 Q 0.152 -0.635 0.109 -0.5730000000000001 Q 0.097 -0.555 0.089 -0.533 Q 0.092 -0.534 0.10200000000000001 -0.534 Q 0.14200000000000002 -0.534 0.153 -0.498 L 0.153 -0.497 Q 0.155 -0.49 0.155 -0.482 Q 0.155 -0.442 0.117 -0.431 Q 0.109 -0.429 0.10300000000000001 -0.429 Q 0.066 -0.429 0.054 -0.46 Q 0.05 -0.47100000000000003 0.05 -0.485 Q 0.05 -0.562 0.109 -0.617 Q 0.162 -0.666 0.23700000000000002 -0.666 Q 0.34700000000000003 -0.666 0.40800000000000003 -0.592 Q 0.443 -0.549 0.448 -0.49 Q 0.449 -0.481 0.449 -0.47200000000000003 Q 0.449 -0.399 0.394 -0.333 Q 0.365 -0.299 0.304 -0.243 L 0.243 -0.189 L 0.233 -0.18 L 0.127 -0.077 L 0.307 -0.077 Q 0.395 -0.077 0.402 -0.085 Q 0.41200000000000003 -0.099 0.424 -0.17400000000000002 L 0.449 -0.17400000000000002 Z"/></g></g><path fill="rgb(0,0,0)" stroke="none" paint-order="stroke fill markers" d=" M 498.0144349837092 267.71100027903356 C 497.46610615322254 267.71100027903356 496.9630979857588 268.0745983866676 496.81017222139906 268.6288425457856 L 453.96985423176204 423.8936935663089 L 453.96985423176193 423.8936935663089 L 451.07791761114754 423.0957571137333 L 450.65318792575613 440.61380793836406 L 459.2717380362219 425.35657706269757 L 456.3798014580165 424.5586406218234 L 456.37980141237875 424.5586406218234 C 456.37980141345497 424.55864061792295 456.3798014145312 424.55864061402247 456.3798014156074 424.558640610122 L 499.2201194052444 269.29378958959865 C 499.40373946111595 268.62830105083094 499.013107873996 267.93996253164096 498.3476193352283 267.75634247576943 C 498.2363749555785 267.72564818425764 498.1244920760359 267.71100027903356 498.0144349837092 267.71100027903356 Z" fill-opacity="0.6980392156862745"/><g transform="scale(19,19)"><g transform="translate(25.27994825325684,19.27294736842105)"><path fill="rgb(0,0,0)" stroke="none" paint-order="stroke fill markers" d=" M 0.463 -0.339 L 0.463 -0.339 L 0.464 -0.339 Q 0.491 -0.443 0.491 -0.51 Q 0.491 -0.637 0.40900000000000003 -0.678 Q 0.381 -0.6910000000000001 0.34800000000000003 -0.6910000000000001 Q 0.252 -0.6910000000000001 0.20400000000000001 -0.611 Q 0.25 -0.611 0.251 -0.5760000000000001 Q 0.251 -0.547 0.224 -0.531 Q 0.212 -0.523 0.197 -0.523 Q 0.163 -0.528 0.159 -0.558 Q 0.159 -0.589 0.189 -0.633 Q 0.246 -0.716 0.35000000000000003 -0.716 Q 0.457 -0.716 0.518 -0.628 L 0.519 -0.627 Q 0.5660000000000001 -0.558 0.5660000000000001 -0.457 Q 0.5660000000000001 -0.35000000000000003 0.513 -0.223 Q 0.438 -0.046 0.314 0.005 Q 0.271 0.022 0.224 0.022 Q 0.109 0.022 0.061 -0.074 Q 0.04 -0.115 0.04 -0.156 Q 0.04 -0.262 0.115 -0.34700000000000003 Q 0.122 -0.355 0.13 -0.363 Q 0.229 -0.454 0.334 -0.457 Q 0.418 -0.457 0.451 -0.379 Q 0.46 -0.36 0.463 -0.339 M 0.227 -0.006 L 0.227 -0.006 Q 0.334 -0.006 0.401 -0.14100000000000001 Q 0.442 -0.231 0.445 -0.303 Q 0.445 -0.392 0.388 -0.423 Q 0.365 -0.435 0.334 -0.435 Q 0.245 -0.435 0.183 -0.34600000000000003 Q 0.14300000000000002 -0.28700000000000003 0.121 -0.156 Q 0.117 -0.13 0.117 -0.11900000000000001 Q 0.117 -0.051000000000000004 0.164 -0.022 Q 0.189 -0.006 0.227 -0.006 Z"/></g><g transform="translate(25.86694825325684,19.27294736842105)"><path fill="rgb(0,0,0)" stroke="none" paint-order="stroke fill markers" d=" M 0.47100000000000003 -0.377 L 0.47100000000000003 -0.377 L 0.36 0.067 Q 0.34500000000000003 0.127 0.28200000000000003 0.168 Q 0.224 0.20500000000000002 0.148 0.20500000000000002 Q 0.025 0.20500000000000002 0.016 0.155 Q 0.015 0.15 0.015 0.14400000000000002 Q 0.015 0.10300000000000001 0.052000000000000005 0.089 Q 0.061 0.08600000000000001 0.069 0.08600000000000001 Q 0.1 0.08600000000000001 0.106 0.113 Q 0.107 0.117 0.107 0.121 Q 0.107 0.153 0.077 0.169 Q 0.07200000000000001 0.171 0.066 0.17300000000000001 Q 0.097 0.183 0.146 0.183 Q 0.244 0.183 0.29 0.075 L 0.323 -0.057 L 0.322 -0.058 Q 0.277 -0.008 0.221 -0.001 Q 0.213 0 0.20600000000000002 0 Q 0.136 0 0.098 -0.061 Q 0.073 -0.10200000000000001 0.073 -0.158 Q 0.073 -0.265 0.149 -0.354 Q 0.219 -0.436 0.3 -0.442 L 0.311 -0.442 Q 0.365 -0.442 0.398 -0.391 L 0.404 -0.379 Q 0.41300000000000003 -0.417 0.445 -0.422 Q 0.47100000000000003 -0.422 0.47400000000000003 -0.395 L 0.47100000000000003 -0.377 M 0.341 -0.128 L 0.341 -0.128 L 0.389 -0.319 Q 0.392 -0.331 0.392 -0.334 Q 0.392 -0.354 0.375 -0.382 L 0.375 -0.382 Q 0.363 -0.402 0.34500000000000003 -0.41200000000000003 Q 0.33 -0.42 0.312 -0.42 Q 0.26 -0.42 0.213 -0.353 Q 0.20600000000000002 -0.342 0.2 -0.331 Q 0.168 -0.271 0.149 -0.164 Q 0.14400000000000002 -0.133 0.14400000000000002 -0.114 Q 0.14400000000000002 -0.048 0.182 -0.028 Q 0.193 -0.022 0.209 -0.022 Q 0.248 -0.022 0.29 -0.058 Q 0.334 -0.096 0.341 -0.128 Z"/></g><rect fill="rgb(0,0,0)" stroke="none" x="25.27344825325684" y="19.679455868421048" width="1.113" height="0.039999"/><g transform="translate(25.27344825325684,20.635406368421048)"><path fill="rgb(0,0,0)" stroke="none" paint-order="stroke fill markers" d=" M 0.463 -0.339 L 0.463 -0.339 L 0.464 -0.339 Q 0.491 -0.443 0.491 -0.51 Q 0.491 -0.637 0.40900000000000003 -0.678 Q 0.381 -0.6910000000000001 0.34800000000000003 -0.6910000000000001 Q 0.252 -0.6910000000000001 0.20400000000000001 -0.611 Q 0.25 -0.611 0.251 -0.5760000000000001 Q 0.251 -0.547 0.224 -0.531 Q 0.212 -0.523 0.197 -0.523 Q 0.163 -0.528 0.159 -0.558 Q 0.159 -0.589 0.189 -0.633 Q 0.246 -0.716 0.35000000000000003 -0.716 Q 0.457 -0.716 0.518 -0.628 L 0.519 -0.627 Q 0.5660000000000001 -0.558 0.5660000000000001 -0.457 Q 0.5660000000000001 -0.35000000000000003 0.513 -0.223 Q 0.438 -0.046 0.314 0.005 Q 0.271 0.022 0.224 0.022 Q 0.109 0.022 0.061 -0.074 Q 0.04 -0.115 0.04 -0.156 Q 0.04 -0.262 0.115 -0.34700000000000003 Q 0.122 -0.355 0.13 -0.363 Q 0.229 -0.454 0.334 -0.457 Q 0.418 -0.457 0.451 -0.379 Q 0.46 -0.36 0.463 -0.339 M 0.227 -0.006 L 0.227 -0.006 Q 0.334 -0.006 0.401 -0.14100000000000001 Q 0.442 -0.231 0.445 -0.303 Q 0.445 -0.392 0.388 -0.423 Q 0.365 -0.435 0.334 -0.435 Q 0.245 -0.435 0.183 -0.34600000000000003 Q 0.14300000000000002 -0.28700000000000003 0.121 -0.156 Q 0.117 -0.13 0.117 -0.11900000000000001 Q 0.117 -0.051000000000000004 0.164 -0.022 Q 0.189 -0.006 0.227 -0.006 Z"/></g><g transform="translate(25.86044825325684,20.635406368421048)"><path fill="rgb(0,0,0)" stroke="none" paint-order="stroke fill markers" d=" M 0.486 -0.381 L 0.39 0.001 Q 0.366 0.099 0.28300000000000003 0.16 Q 0.222 0.20500000000000002 0.156 0.20500000000000002 Q 0.089 0.20500000000000002 0.061 0.159 Q 0.05 0.14 0.05 0.11800000000000001 Q 0.05 0.067 0.091 0.055 Q 0.099 0.053 0.106 0.053 Q 0.138 0.053 0.14200000000000002 0.081 Q 0.14300000000000002 0.084 0.14300000000000002 0.088 Q 0.14300000000000002 0.111 0.123 0.129 Q 0.109 0.14100000000000001 0.08 0.14100000000000001 Q 0.098 0.183 0.156 0.183 Q 0.218 0.183 0.266 0.12 Q 0.305 0.068 0.328 -0.021 Q 0.329 -0.025 0.331 -0.034 Q 0.28600000000000003 0.011 0.23 0.011 Q 0.15 0.011 0.121 -0.048 Q 0.108 -0.074 0.108 -0.108 Q 0.108 -0.163 0.161 -0.305 Q 0.163 -0.311 0.166 -0.318 Q 0.183 -0.364 0.183 -0.388 Q 0.183 -0.42 0.158 -0.42 Q 0.10300000000000001 -0.42 0.068 -0.329 L 0.068 -0.328 Q 0.062 -0.313 0.057 -0.296 Q 0.046 -0.279 0.041 -0.278 Q 0.029 -0.278 0.029 -0.28800000000000003 Q 0.029 -0.306 0.05 -0.35100000000000003 Q 0.094 -0.442 0.161 -0.442 Q 0.214 -0.442 0.23500000000000001 -0.397 Q 0.243 -0.38 0.243 -0.36 Q 0.243 -0.339 0.223 -0.28800000000000003 Q 0.17200000000000001 -0.156 0.17200000000000001 -0.092 Q 0.17200000000000001 -0.011 0.234 -0.011 Q 0.292 -0.011 0.335 -0.073 Q 0.34500000000000003 -0.088 0.34700000000000003 -0.096 L 0.392 -0.276 Q 0.399 -0.309 0.41200000000000003 -0.356 Q 0.422 -0.399 0.426 -0.41000000000000003 Q 0.439 -0.431 0.461 -0.431 Q 0.486 -0.426 0.49 -0.404 Q 0.49 -0.395 0.486 -0.381 Z"/></g><g transform="translate(26.72714796850199,19.949455368421052)"><path fill="rgb(0,0,0)" stroke="none" paint-order="stroke fill markers" d=" M 0.687 -0.327 L 0.09 -0.327 Q 0.058 -0.327 0.056 -0.34700000000000003 Q 0.056 -0.367 0.089 -0.367 L 0.6880000000000001 -0.367 Q 0.72 -0.367 0.721 -0.34700000000000003 Q 0.721 -0.327 0.687 -0.327 M 0.6880000000000001 -0.133 L 0.089 -0.133 Q 0.057 -0.133 0.056 -0.153 Q 0.056 -0.17300000000000001 0.09 -0.17300000000000001 L 0.687 -0.17300000000000001 Q 0.719 -0.17300000000000001 0.721 -0.153 Q 0.721 -0.133 0.6880000000000001 -0.133 Z"/></g><g transform="translate(27.782925746279766,19.949455368421052)"><path fill="rgb(0,0,0)" stroke="none" paint-order="stroke fill markers" d=" M 0.294 -0.64 L 0.294 -0.079 Q 0.294 -0.049 0.306 -0.041 Q 0.323 -0.031 0.387 -0.031 L 0.419 -0.031 L 0.419 0 Q 0.384 -0.003 0.257 -0.003 Q 0.13 -0.003 0.095 0 L 0.095 -0.031 L 0.127 -0.031 Q 0.20400000000000001 -0.031 0.215 -0.049 L 0.216 -0.05 Q 0.22 -0.058 0.22 -0.079 L 0.22 -0.597 Q 0.168 -0.5710000000000001 0.089 -0.5710000000000001 L 0.089 -0.602 Q 0.209 -0.602 0.271 -0.666 Q 0.29 -0.666 0.293 -0.659 L 0.293 -0.659 L 0.293 -0.658 Q 0.294 -0.655 0.294 -0.64 Z"/></g></g><g transform="scale(19,19)"><g transform="translate(12.68421052631579,3.539473684210526)"><path fill="rgb(0,0,0)" stroke="none" paint-order="stroke fill markers" d=" M 0.28700000000000003 -0.683 L 0.209 -0.365 Q 0.271 -0.442 0.357 -0.442 Q 0.446 -0.442 0.467 -0.373 L 0.467 -0.372 Q 0.47200000000000003 -0.355 0.47200000000000003 -0.335 Q 0.47200000000000003 -0.279 0.41100000000000003 -0.115 Q 0.393 -0.07100000000000001 0.393 -0.044 Q 0.393 -0.011 0.417 -0.011 Q 0.47900000000000004 -0.011 0.515 -0.121 L 0.519 -0.135 Q 0.524 -0.151 0.529 -0.152 L 0.529 -0.153 L 0.534 -0.153 Q 0.546 -0.153 0.546 -0.14300000000000002 Q 0.546 -0.126 0.525 -0.08 Q 0.482 0.011 0.41500000000000004 0.011 Q 0.364 0.011 0.342 -0.032 Q 0.333 -0.05 0.333 -0.07100000000000001 Q 0.333 -0.089 0.34600000000000003 -0.126 Q 0.40800000000000003 -0.28400000000000003 0.40800000000000003 -0.35000000000000003 Q 0.40800000000000003 -0.42 0.354 -0.42 Q 0.306 -0.42 0.258 -0.385 Q 0.221 -0.356 0.193 -0.299 L 0.19 -0.293 Q 0.186 -0.269 0.179 -0.248 Q 0.17400000000000002 -0.225 0.162 -0.181 L 0.14 -0.091 L 0.121 -0.015 Q 0.114 0.006 0.09 0.01 Q 0.08700000000000001 0.011 0.084 0.011 Q 0.06 0.011 0.056 -0.01 Q 0.055 -0.014 0.055 -0.017 Q 0.055 -0.025 0.059000000000000004 -0.039 L 0.20400000000000001 -0.615 L 0.20700000000000002 -0.635 Q 0.20700000000000002 -0.646 0.193 -0.649 L 0.193 -0.649 Q 0.181 -0.652 0.157 -0.652 Q 0.135 -0.652 0.133 -0.664 Q 0.133 -0.681 0.152 -0.684 L 0.274 -0.6940000000000001 Q 0.28700000000000003 -0.6940000000000001 0.28700000000000003 -0.683 Z"/></g><g transform="translate(13.537988304093568,3.539473684210526)"><path fill="rgb(0,0,0)" stroke="none" paint-order="stroke fill markers" d=" M 0.687 -0.327 L 0.09 -0.327 Q 0.058 -0.327 0.056 -0.34700000000000003 Q 0.056 -0.367 0.089 -0.367 L 0.6880000000000001 -0.367 Q 0.72 -0.367 0.721 -0.34700000000000003 Q 0.721 -0.327 0.687 -0.327 M 0.6880000000000001 -0.133 L 0.089 -0.133 Q 0.057 -0.133 0.056 -0.153 Q 0.056 -0.17300000000000001 0.09 -0.17300000000000001 L 0.687 -0.17300000000000001 Q 0.719 -0.17300000000000001 0.721 -0.153 Q 0.721 -0.133 0.6880000000000001 -0.133 Z"/></g><g transform="translate(14.593766081871347,3.539473684210526)"><path fill="rgb(0,0,0)" stroke="none" paint-order="stroke fill markers" d=" M 0.367 -0.4 L 0.367 -0.4 L 0.307 -0.083 Q 0.298 -0.021 0.271 0.059000000000000004 Q 0.261 0.088 0.251 0.108 Q 0.216 0.182 0.164 0.2 Q 0.151 0.20500000000000002 0.138 0.20500000000000002 Q 0.088 0.20500000000000002 0.064 0.171 Q 0.053 0.156 0.053 0.136 Q 0.053 0.096 0.08700000000000001 0.081 Q 0.097 0.076 0.108 0.076 Q 0.137 0.076 0.14400000000000002 0.101 Q 0.145 0.106 0.145 0.111 Q 0.145 0.145 0.115 0.159 Q 0.10400000000000001 0.164 0.09 0.165 Q 0.109 0.183 0.138 0.183 Q 0.182 0.183 0.20700000000000002 0.085 Q 0.212 0.062 0.219 0.025 L 0.225 -0.005 L 0.3 -0.4 L 0.234 -0.4 Q 0.209 -0.4 0.20700000000000002 -0.40800000000000003 L 0.20600000000000002 -0.40800000000000003 L 0.20600000000000002 -0.41200000000000003 Q 0.20600000000000002 -0.429 0.223 -0.431 L 0.223 -0.431 L 0.23600000000000002 -0.431 L 0.305 -0.431 Q 0.329 -0.556 0.338 -0.588 Q 0.368 -0.6880000000000001 0.444 -0.7030000000000001 Q 0.455 -0.705 0.465 -0.705 Q 0.517 -0.705 0.541 -0.671 L 0.541 -0.671 Q 0.552 -0.656 0.552 -0.636 Q 0.552 -0.596 0.518 -0.581 Q 0.508 -0.5760000000000001 0.497 -0.5760000000000001 Q 0.468 -0.5760000000000001 0.461 -0.601 Q 0.46 -0.606 0.46 -0.611 Q 0.46 -0.642 0.488 -0.657 Q 0.499 -0.664 0.514 -0.665 Q 0.495 -0.683 0.465 -0.683 Q 0.434 -0.683 0.418 -0.649 Q 0.41100000000000003 -0.635 0.394 -0.545 L 0.373 -0.431 L 0.456 -0.431 Q 0.481 -0.431 0.483 -0.42 Q 0.483 -0.402 0.467 -0.4 L 0.466 -0.4 L 0.453 -0.4 L 0.367 -0.4 Z"/></g><g transform="translate(15.191766081871348,3.539473684210526)"><path fill="rgb(0,0,0)" stroke="none" paint-order="stroke fill markers" d=" M 0.331 0.24 L 0.331 0.24 Q 0.331 0.25 0.321 0.25 Q 0.309 0.25 0.268 0.209 Q 0.20600000000000002 0.147 0.165 0.062 Q 0.099 -0.074 0.099 -0.25 Q 0.099 -0.419 0.162 -0.555 Q 0.214 -0.666 0.294 -0.733 Q 0.315 -0.75 0.321 -0.75 Q 0.331 -0.75 0.331 -0.74 Q 0.331 -0.735 0.318 -0.723 Q 0.157 -0.559 0.157 -0.25 Q 0.157 0.058 0.314 0.218 Q 0.331 0.23500000000000001 0.331 0.24 Z"/></g><g transform="translate(15.580766081871348,3.539473684210526)"><path fill="rgb(0,0,0)" stroke="none" paint-order="stroke fill markers" d=" M 0.334 -0.302 L 0.3 -0.165 Q 0.28300000000000003 -0.097 0.28300000000000003 -0.077 Q 0.28300000000000003 -0.025 0.32 -0.014 Q 0.328 -0.011 0.338 -0.011 Q 0.388 -0.011 0.429 -0.061 Q 0.456 -0.093 0.47100000000000003 -0.14200000000000002 Q 0.47400000000000003 -0.153 0.484 -0.153 Q 0.496 -0.153 0.496 -0.14300000000000002 Q 0.496 -0.11800000000000001 0.465 -0.07100000000000001 Q 0.41100000000000003 0.011 0.336 0.011 Q 0.268 0.011 0.23700000000000002 -0.046 Q 0.231 -0.055 0.228 -0.065 Q 0.20400000000000001 -0.017 0.162 0.002 Q 0.14300000000000002 0.011 0.123 0.011 Q 0.063 0.011 0.039 -0.024 Q 0.029 -0.037 0.029 -0.055 Q 0.029 -0.092 0.061 -0.107 Q 0.07200000000000001 -0.113 0.084 -0.113 Q 0.114 -0.113 0.12 -0.088 Q 0.121 -0.083 0.121 -0.078 Q 0.121 -0.044 0.08700000000000001 -0.028 Q 0.081 -0.025 0.074 -0.024 Q 0.095 -0.011 0.124 -0.011 Q 0.177 -0.011 0.20800000000000002 -0.082 Q 0.214 -0.097 0.219 -0.115 Q 0.273 -0.319 0.273 -0.353 Q 0.267 -0.41500000000000004 0.219 -0.42 Q 0.167 -0.42 0.124 -0.367 L 0.124 -0.366 Q 0.124 -0.365 0.123 -0.365 Q 0.108 -0.34500000000000003 0.096 -0.319 Q 0.091 -0.307 0.08700000000000001 -0.295 L 0.085 -0.289 Q 0.083 -0.278 0.07200000000000001 -0.278 Q 0.06 -0.278 0.06 -0.28800000000000003 Q 0.06 -0.313 0.092 -0.36 Q 0.146 -0.442 0.221 -0.442 Q 0.298 -0.442 0.329 -0.366 Q 0.361 -0.428 0.41400000000000003 -0.44 Q 0.424 -0.442 0.434 -0.442 Q 0.493 -0.442 0.517 -0.40900000000000003 Q 0.527 -0.395 0.527 -0.376 Q 0.527 -0.335 0.49 -0.321 Q 0.481 -0.318 0.47300000000000003 -0.318 Q 0.442 -0.318 0.436 -0.34500000000000003 Q 0.435 -0.34900000000000003 0.435 -0.353 Q 0.435 -0.383 0.464 -0.4 Q 0.47300000000000003 -0.405 0.483 -0.40700000000000003 Q 0.462 -0.42 0.433 -0.42 Q 0.365 -0.42 0.337 -0.314 Q 0.335 -0.308 0.334 -0.302 Z"/></g><g transform="translate(16.15276608187135,3.539473684210526)"><path fill="rgb(0,0,0)" stroke="none" paint-order="stroke fill markers" d=" M 0.203 -0.001 L 0.203 -0.001 Q 0.203 0.096 0.14 0.169 Q 0.123 0.189 0.112 0.193 Q 0.10200000000000001 0.193 0.10200000000000001 0.182 Q 0.10200000000000001 0.177 0.113 0.166 Q 0.17300000000000001 0.106 0.18 0.019 Q 0.181 0.009000000000000001 0.181 -0.001 Q 0.181 -0.016 0.179 -0.016 Q 0.178 -0.016 0.17400000000000002 -0.013000000000000001 Q 0.16 0 0.139 0 Q 0.10200000000000001 0 0.09 -0.034 Q 0.08600000000000001 -0.043000000000000003 0.08600000000000001 -0.053 Q 0.08600000000000001 -0.089 0.117 -0.10200000000000001 Q 0.127 -0.106 0.139 -0.106 Q 0.183 -0.106 0.198 -0.048 Q 0.203 -0.027 0.203 -0.001 Z"/></g><g transform="translate(16.597432748538015,3.539473684210526)"><path fill="rgb(0,0,0)" stroke="none" paint-order="stroke fill markers" d=" M 0.486 -0.381 L 0.39 0.001 Q 0.366 0.099 0.28300000000000003 0.16 Q 0.222 0.20500000000000002 0.156 0.20500000000000002 Q 0.089 0.20500000000000002 0.061 0.159 Q 0.05 0.14 0.05 0.11800000000000001 Q 0.05 0.067 0.091 0.055 Q 0.099 0.053 0.106 0.053 Q 0.138 0.053 0.14200000000000002 0.081 Q 0.14300000000000002 0.084 0.14300000000000002 0.088 Q 0.14300000000000002 0.111 0.123 0.129 Q 0.109 0.14100000000000001 0.08 0.14100000000000001 Q 0.098 0.183 0.156 0.183 Q 0.218 0.183 0.266 0.12 Q 0.305 0.068 0.328 -0.021 Q 0.329 -0.025 0.331 -0.034 Q 0.28600000000000003 0.011 0.23 0.011 Q 0.15 0.011 0.121 -0.048 Q 0.108 -0.074 0.108 -0.108 Q 0.108 -0.163 0.161 -0.305 Q 0.163 -0.311 0.166 -0.318 Q 0.183 -0.364 0.183 -0.388 Q 0.183 -0.42 0.158 -0.42 Q 0.10300000000000001 -0.42 0.068 -0.329 L 0.068 -0.328 Q 0.062 -0.313 0.057 -0.296 Q 0.046 -0.279 0.041 -0.278 Q 0.029 -0.278 0.029 -0.28800000000000003 Q 0.029 -0.306 0.05 -0.35100000000000003 Q 0.094 -0.442 0.161 -0.442 Q 0.214 -0.442 0.23500000000000001 -0.397 Q 0.243 -0.38 0.243 -0.36 Q 0.243 -0.339 0.223 -0.28800000000000003 Q 0.17200000000000001 -0.156 0.17200000000000001 -0.092 Q 0.17200000000000001 -0.011 0.234 -0.011 Q 0.292 -0.011 0.335 -0.073 Q 0.34500000000000003 -0.088 0.34700000000000003 -0.096 L 0.392 -0.276 Q 0.399 -0.309 0.41200000000000003 -0.356 Q 0.422 -0.399 0.426 -0.41000000000000003 Q 0.439 -0.431 0.461 -0.431 Q 0.486 -0.426 0.49 -0.404 Q 0.49 -0.395 0.486 -0.381 Z"/></g><g transform="translate(17.123432748538015,3.539473684210526)"><path fill="rgb(0,0,0)" stroke="none" paint-order="stroke fill markers" d=" M 0.289 -0.25 L 0.289 -0.25 Q 0.289 -0.081 0.226 0.055 Q 0.17400000000000002 0.166 0.094 0.233 Q 0.073 0.25 0.067 0.25 Q 0.057 0.25 0.057 0.24 Q 0.057 0.23500000000000001 0.07 0.223 Q 0.231 0.059000000000000004 0.231 -0.25 Q 0.231 -0.555 0.081 -0.712 L 0.076 -0.717 Q 0.057 -0.735 0.057 -0.74 Q 0.057 -0.75 0.067 -0.75 Q 0.079 -0.75 0.12 -0.709 Q 0.182 -0.647 0.223 -0.562 Q 0.289 -0.426 0.289 -0.25 Z"/></g><g transform="translate(17.512432748538014,3.539473684210526)"><path fill="rgb(0,0,0)" stroke="none" paint-order="stroke fill markers" d=" M 0.47100000000000003 -0.377 L 0.47100000000000003 -0.377 L 0.36 0.067 Q 0.34500000000000003 0.127 0.28200000000000003 0.168 Q 0.224 0.20500000000000002 0.148 0.20500000000000002 Q 0.025 0.20500000000000002 0.016 0.155 Q 0.015 0.15 0.015 0.14400000000000002 Q 0.015 0.10300000000000001 0.052000000000000005 0.089 Q 0.061 0.08600000000000001 0.069 0.08600000000000001 Q 0.1 0.08600000000000001 0.106 0.113 Q 0.107 0.117 0.107 0.121 Q 0.107 0.153 0.077 0.169 Q 0.07200000000000001 0.171 0.066 0.17300000000000001 Q 0.097 0.183 0.146 0.183 Q 0.244 0.183 0.29 0.075 L 0.323 -0.057 L 0.322 -0.058 Q 0.277 -0.008 0.221 -0.001 Q 0.213 0 0.20600000000000002 0 Q 0.136 0 0.098 -0.061 Q 0.073 -0.10200000000000001 0.073 -0.158 Q 0.073 -0.265 0.149 -0.354 Q 0.219 -0.436 0.3 -0.442 L 0.311 -0.442 Q 0.365 -0.442 0.398 -0.391 L 0.404 -0.379 Q 0.41300000000000003 -0.417 0.445 -0.422 Q 0.47100000000000003 -0.422 0.47400000000000003 -0.395 L 0.47100000000000003 -0.377 M 0.341 -0.128 L 0.341 -0.128 L 0.389 -0.319 Q 0.392 -0.331 0.392 -0.334 Q 0.392 -0.354 0.375 -0.382 L 0.375 -0.382 Q 0.363 -0.402 0.34500000000000003 -0.41200000000000003 Q 0.33 -0.42 0.312 -0.42 Q 0.26 -0.42 0.213 -0.353 Q 0.20600000000000002 -0.342 0.2 -0.331 Q 0.168 -0.271 0.149 -0.164 Q 0.14400000000000002 -0.133 0.14400000000000002 -0.114 Q 0.14400000000000002 -0.048 0.182 -0.028 Q 0.193 -0.022 0.209 -0.022 Q 0.248 -0.022 0.29 -0.058 Q 0.334 -0.096 0.341 -0.128 Z"/></g><g transform="translate(18.025432748538016,3.539473684210526)"><path fill="rgb(0,0,0)" stroke="none" paint-order="stroke fill markers" d=" M 0.331 0.24 L 0.331 0.24 Q 0.331 0.25 0.321 0.25 Q 0.309 0.25 0.268 0.209 Q 0.20600000000000002 0.147 0.165 0.062 Q 0.099 -0.074 0.099 -0.25 Q 0.099 -0.419 0.162 -0.555 Q 0.214 -0.666 0.294 -0.733 Q 0.315 -0.75 0.321 -0.75 Q 0.331 -0.75 0.331 -0.74 Q 0.331 -0.735 0.318 -0.723 Q 0.157 -0.559 0.157 -0.25 Q 0.157 0.058 0.314 0.218 Q 0.331 0.23500000000000001 0.331 0.24 Z"/></g><g transform="translate(18.414432748538015,3.539473684210526)"><path fill="rgb(0,0,0)" stroke="none" paint-order="stroke fill markers" d=" M 0.334 -0.302 L 0.3 -0.165 Q 0.28300000000000003 -0.097 0.28300000000000003 -0.077 Q 0.28300000000000003 -0.025 0.32 -0.014 Q 0.328 -0.011 0.338 -0.011 Q 0.388 -0.011 0.429 -0.061 Q 0.456 -0.093 0.47100000000000003 -0.14200000000000002 Q 0.47400000000000003 -0.153 0.484 -0.153 Q 0.496 -0.153 0.496 -0.14300000000000002 Q 0.496 -0.11800000000000001 0.465 -0.07100000000000001 Q 0.41100000000000003 0.011 0.336 0.011 Q 0.268 0.011 0.23700000000000002 -0.046 Q 0.231 -0.055 0.228 -0.065 Q 0.20400000000000001 -0.017 0.162 0.002 Q 0.14300000000000002 0.011 0.123 0.011 Q 0.063 0.011 0.039 -0.024 Q 0.029 -0.037 0.029 -0.055 Q 0.029 -0.092 0.061 -0.107 Q 0.07200000000000001 -0.113 0.084 -0.113 Q 0.114 -0.113 0.12 -0.088 Q 0.121 -0.083 0.121 -0.078 Q 0.121 -0.044 0.08700000000000001 -0.028 Q 0.081 -0.025 0.074 -0.024 Q 0.095 -0.011 0.124 -0.011 Q 0.177 -0.011 0.20800000000000002 -0.082 Q 0.214 -0.097 0.219 -0.115 Q 0.273 -0.319 0.273 -0.353 Q 0.267 -0.41500000000000004 0.219 -0.42 Q 0.167 -0.42 0.124 -0.367 L 0.124 -0.366 Q 0.124 -0.365 0.123 -0.365 Q 0.108 -0.34500000000000003 0.096 -0.319 Q 0.091 -0.307 0.08700000000000001 -0.295 L 0.085 -0.289 Q 0.083 -0.278 0.07200000000000001 -0.278 Q 0.06 -0.278 0.06 -0.28800000000000003 Q 0.06 -0.313 0.092 -0.36 Q 0.146 -0.442 0.221 -0.442 Q 0.298 -0.442 0.329 -0.366 Q 0.361 -0.428 0.41400000000000003 -0.44 Q 0.424 -0.442 0.434 -0.442 Q 0.493 -0.442 0.517 -0.40900000000000003 Q 0.527 -0.395 0.527 -0.376 Q 0.527 -0.335 0.49 -0.321 Q 0.481 -0.318 0.47300000000000003 -0.318 Q 0.442 -0.318 0.436 -0.34500000000000003 Q 0.435 -0.34900000000000003 0.435 -0.353 Q 0.435 -0.383 0.464 -0.4 Q 0.47300000000000003 -0.405 0.483 -0.40700000000000003 Q 0.462 -0.42 0.433 -0.42 Q 0.365 -0.42 0.337 -0.314 Q 0.335 -0.308 0.334 -0.302 Z"/></g><g transform="translate(18.986432748538014,3.539473684210526)"><path fill="rgb(0,0,0)" stroke="none" paint-order="stroke fill markers" d=" M 0.203 -0.001 L 0.203 -0.001 Q 0.203 0.096 0.14 0.169 Q 0.123 0.189 0.112 0.193 Q 0.10200000000000001 0.193 0.10200000000000001 0.182 Q 0.10200000000000001 0.177 0.113 0.166 Q 0.17300000000000001 0.106 0.18 0.019 Q 0.181 0.009000000000000001 0.181 -0.001 Q 0.181 -0.016 0.179 -0.016 Q 0.178 -0.016 0.17400000000000002 -0.013000000000000001 Q 0.16 0 0.139 0 Q 0.10200000000000001 0 0.09 -0.034 Q 0.08600000000000001 -0.043000000000000003 0.08600000000000001 -0.053 Q 0.08600000000000001 -0.089 0.117 -0.10200000000000001 Q 0.127 -0.106 0.139 -0.106 Q 0.183 -0.106 0.198 -0.048 Q 0.203 -0.027 0.203 -0.001 Z"/></g><g transform="translate(19.43109941520468,3.539473684210526)"><path fill="rgb(0,0,0)" stroke="none" paint-order="stroke fill markers" d=" M 0.486 -0.381 L 0.39 0.001 Q 0.366 0.099 0.28300000000000003 0.16 Q 0.222 0.20500000000000002 0.156 0.20500000000000002 Q 0.089 0.20500000000000002 0.061 0.159 Q 0.05 0.14 0.05 0.11800000000000001 Q 0.05 0.067 0.091 0.055 Q 0.099 0.053 0.106 0.053 Q 0.138 0.053 0.14200000000000002 0.081 Q 0.14300000000000002 0.084 0.14300000000000002 0.088 Q 0.14300000000000002 0.111 0.123 0.129 Q 0.109 0.14100000000000001 0.08 0.14100000000000001 Q 0.098 0.183 0.156 0.183 Q 0.218 0.183 0.266 0.12 Q 0.305 0.068 0.328 -0.021 Q 0.329 -0.025 0.331 -0.034 Q 0.28600000000000003 0.011 0.23 0.011 Q 0.15 0.011 0.121 -0.048 Q 0.108 -0.074 0.108 -0.108 Q 0.108 -0.163 0.161 -0.305 Q 0.163 -0.311 0.166 -0.318 Q 0.183 -0.364 0.183 -0.388 Q 0.183 -0.42 0.158 -0.42 Q 0.10300000000000001 -0.42 0.068 -0.329 L 0.068 -0.328 Q 0.062 -0.313 0.057 -0.296 Q 0.046 -0.279 0.041 -0.278 Q 0.029 -0.278 0.029 -0.28800000000000003 Q 0.029 -0.306 0.05 -0.35100000000000003 Q 0.094 -0.442 0.161 -0.442 Q 0.214 -0.442 0.23500000000000001 -0.397 Q 0.243 -0.38 0.243 -0.36 Q 0.243 -0.339 0.223 -0.28800000000000003 Q 0.17200000000000001 -0.156 0.17200000000000001 -0.092 Q 0.17200000000000001 -0.011 0.234 -0.011 Q 0.292 -0.011 0.335 -0.073 Q 0.34500000000000003 -0.088 0.34700000000000003 -0.096 L 0.392 -0.276 Q 0.399 -0.309 0.41200000000000003 -0.356 Q 0.422 -0.399 0.426 -0.41000000000000003 Q 0.439 -0.431 0.461 -0.431 Q 0.486 -0.426 0.49 -0.404 Q 0.49 -0.395 0.486 -0.381 Z"/></g><g transform="translate(19.95709941520468,3.539473684210526)"><path fill="rgb(0,0,0)" stroke="none" paint-order="stroke fill markers" d=" M 0.289 -0.25 L 0.289 -0.25 Q 0.289 -0.081 0.226 0.055 Q 0.17400000000000002 0.166 0.094 0.233 Q 0.073 0.25 0.067 0.25 Q 0.057 0.25 0.057 0.24 Q 0.057 0.23500000000000001 0.07 0.223 Q 0.231 0.059000000000000004 0.231 -0.25 Q 0.231 -0.555 0.081 -0.712 L 0.076 -0.717 Q 0.057 -0.735 0.057 -0.74 Q 0.057 -0.75 0.067 -0.75 Q 0.079 -0.75 0.12 -0.709 Q 0.182 -0.647 0.223 -0.562 Q 0.289 -0.426 0.289 -0.25 Z"/></g></g><g transform="scale(19,19)"><g transform="translate(3.3684210526315788,12.54790252631579)"><path fill="rgb(0,0,0)" stroke="none" paint-order="stroke fill markers" d=" M 0.367 -0.4 L 0.367 -0.4 L 0.307 -0.083 Q 0.298 -0.021 0.271 0.059000000000000004 Q 0.261 0.088 0.251 0.108 Q 0.216 0.182 0.164 0.2 Q 0.151 0.20500000000000002 0.138 0.20500000000000002 Q 0.088 0.20500000000000002 0.064 0.171 Q 0.053 0.156 0.053 0.136 Q 0.053 0.096 0.08700000000000001 0.081 Q 0.097 0.076 0.108 0.076 Q 0.137 0.076 0.14400000000000002 0.101 Q 0.145 0.106 0.145 0.111 Q 0.145 0.145 0.115 0.159 Q 0.10400000000000001 0.164 0.09 0.165 Q 0.109 0.183 0.138 0.183 Q 0.182 0.183 0.20700000000000002 0.085 Q 0.212 0.062 0.219 0.025 L 0.225 -0.005 L 0.3 -0.4 L 0.234 -0.4 Q 0.209 -0.4 0.20700000000000002 -0.40800000000000003 L 0.20600000000000002 -0.40800000000000003 L 0.20600000000000002 -0.41200000000000003 Q 0.20600000000000002 -0.429 0.223 -0.431 L 0.223 -0.431 L 0.23600000000000002 -0.431 L 0.305 -0.431 Q 0.329 -0.556 0.338 -0.588 Q 0.368 -0.6880000000000001 0.444 -0.7030000000000001 Q 0.455 -0.705 0.465 -0.705 Q 0.517 -0.705 0.541 -0.671 L 0.541 -0.671 Q 0.552 -0.656 0.552 -0.636 Q 0.552 -0.596 0.518 -0.581 Q 0.508 -0.5760000000000001 0.497 -0.5760000000000001 Q 0.468 -0.5760000000000001 0.461 -0.601 Q 0.46 -0.606 0.46 -0.611 Q 0.46 -0.642 0.488 -0.657 Q 0.499 -0.664 0.514 -0.665 Q 0.495 -0.683 0.465 -0.683 Q 0.434 -0.683 0.418 -0.649 Q 0.41100000000000003 -0.635 0.394 -0.545 L 0.373 -0.431 L 0.456 -0.431 Q 0.481 -0.431 0.483 -0.42 Q 0.483 -0.402 0.467 -0.4 L 0.466 -0.4 L 0.453 -0.4 L 0.367 -0.4 Z"/></g><g transform="translate(4.244198830409356,12.54790252631579)"><path fill="rgb(0,0,0)" stroke="none" paint-order="stroke fill markers" d=" M 0.687 -0.327 L 0.09 -0.327 Q 0.058 -0.327 0.056 -0.34700000000000003 Q 0.056 -0.367 0.089 -0.367 L 0.6880000000000001 -0.367 Q 0.72 -0.367 0.721 -0.34700000000000003 Q 0.721 -0.327 0.687 -0.327 M 0.6880000000000001 -0.133 L 0.089 -0.133 Q 0.057 -0.133 0.056 -0.153 Q 0.056 -0.17300000000000001 0.09 -0.17300000000000001 L 0.687 -0.17300000000000001 Q 0.719 -0.17300000000000001 0.721 -0.153 Q 0.721 -0.133 0.6880000000000001 -0.133 Z"/></g><g transform="translate(5.2999766081871345,12.54790252631579)"><path fill="rgb(0,0,0)" stroke="none" paint-order="stroke fill markers" d=" M 0.449 -0.201 L 0.449 -0.201 Q 0.449 -0.098 0.372 -0.031 Q 0.31 0.022 0.231 0.022 Q 0.139 0.022 0.085 -0.055 Q 0.05 -0.10400000000000001 0.05 -0.161 Q 0.05 -0.20700000000000002 0.091 -0.213 Q 0.095 -0.214 0.099 -0.214 Q 0.136 -0.214 0.147 -0.181 Q 0.149 -0.17300000000000001 0.149 -0.165 Q 0.149 -0.133 0.121 -0.121 Q 0.111 -0.116 0.099 -0.116 Q 0.088 -0.116 0.082 -0.11800000000000001 Q 0.1 -0.055 0.159 -0.024 Q 0.192 -0.006 0.229 -0.006 Q 0.296 -0.006 0.336 -0.07100000000000001 Q 0.36 -0.113 0.36 -0.20800000000000002 Q 0.36 -0.292 0.342 -0.334 Q 0.314 -0.398 0.257 -0.398 Q 0.176 -0.398 0.128 -0.328 Q 0.122 -0.319 0.115 -0.319 Q 0.10200000000000001 -0.319 0.101 -0.333 L 0.101 -0.34500000000000003 L 0.101 -0.641 Q 0.101 -0.664 0.111 -0.665 Q 0.115 -0.665 0.123 -0.662 Q 0.186 -0.634 0.256 -0.634 Q 0.328 -0.634 0.392 -0.663 Q 0.397 -0.666 0.4 -0.666 Q 0.41000000000000003 -0.666 0.41000000000000003 -0.655 Q 0.41000000000000003 -0.642 0.378 -0.613 Q 0.31 -0.551 0.217 -0.551 Q 0.17500000000000002 -0.551 0.132 -0.5640000000000001 L 0.132 -0.369 Q 0.184 -0.42 0.259 -0.42 Q 0.34700000000000003 -0.42 0.404 -0.343 Q 0.449 -0.28200000000000003 0.449 -0.201 Z"/></g><g transform="translate(5.7999766081871345,12.54790252631579)"><path fill="rgb(0,0,0)" stroke="none" paint-order="stroke fill markers" d=" M 0.334 -0.302 L 0.3 -0.165 Q 0.28300000000000003 -0.097 0.28300000000000003 -0.077 Q 0.28300000000000003 -0.025 0.32 -0.014 Q 0.328 -0.011 0.338 -0.011 Q 0.388 -0.011 0.429 -0.061 Q 0.456 -0.093 0.47100000000000003 -0.14200000000000002 Q 0.47400000000000003 -0.153 0.484 -0.153 Q 0.496 -0.153 0.496 -0.14300000000000002 Q 0.496 -0.11800000000000001 0.465 -0.07100000000000001 Q 0.41100000000000003 0.011 0.336 0.011 Q 0.268 0.011 0.23700000000000002 -0.046 Q 0.231 -0.055 0.228 -0.065 Q 0.20400000000000001 -0.017 0.162 0.002 Q 0.14300000000000002 0.011 0.123 0.011 Q 0.063 0.011 0.039 -0.024 Q 0.029 -0.037 0.029 -0.055 Q 0.029 -0.092 0.061 -0.107 Q 0.07200000000000001 -0.113 0.084 -0.113 Q 0.114 -0.113 0.12 -0.088 Q 0.121 -0.083 0.121 -0.078 Q 0.121 -0.044 0.08700000000000001 -0.028 Q 0.081 -0.025 0.074 -0.024 Q 0.095 -0.011 0.124 -0.011 Q 0.177 -0.011 0.20800000000000002 -0.082 Q 0.214 -0.097 0.219 -0.115 Q 0.273 -0.319 0.273 -0.353 Q 0.267 -0.41500000000000004 0.219 -0.42 Q 0.167 -0.42 0.124 -0.367 L 0.124 -0.366 Q 0.124 -0.365 0.123 -0.365 Q 0.108 -0.34500000000000003 0.096 -0.319 Q 0.091 -0.307 0.08700000000000001 -0.295 L 0.085 -0.289 Q 0.083 -0.278 0.07200000000000001 -0.278 Q 0.06 -0.278 0.06 -0.28800000000000003 Q 0.06 -0.313 0.092 -0.36 Q 0.146 -0.442 0.221 -0.442 Q 0.298 -0.442 0.329 -0.366 Q 0.361 -0.428 0.41400000000000003 -0.44 Q 0.424 -0.442 0.434 -0.442 Q 0.493 -0.442 0.517 -0.40900000000000003 Q 0.527 -0.395 0.527 -0.376 Q 0.527 -0.335 0.49 -0.321 Q 0.481 -0.318 0.47300000000000003 -0.318 Q 0.442 -0.318 0.436 -0.34500000000000003 Q 0.435 -0.34900000000000003 0.435 -0.353 Q 0.435 -0.383 0.464 -0.4 Q 0.47300000000000003 -0.405 0.483 -0.40700000000000003 Q 0.462 -0.42 0.433 -0.42 Q 0.365 -0.42 0.337 -0.314 Q 0.335 -0.308 0.334 -0.302 Z"/></g><g transform="translate(6.3719766081871345,12.13501052631579) scale(0.7,0.7)"><path fill="rgb(0,0,0)" stroke="none" paint-order="stroke fill markers" d=" M 0.449 -0.17400000000000002 L 0.449 -0.17400000000000002 L 0.421 0 L 0.05 0 Q 0.05 -0.025 0.056 -0.032 L 0.061 -0.037 L 0.253 -0.251 Q 0.358 -0.369 0.358 -0.47200000000000003 Q 0.358 -0.561 0.304 -0.607 L 0.303 -0.608 L 0.302 -0.608 Q 0.27 -0.635 0.224 -0.635 Q 0.152 -0.635 0.109 -0.5730000000000001 Q 0.097 -0.555 0.089 -0.533 Q 0.092 -0.534 0.10200000000000001 -0.534 Q 0.14200000000000002 -0.534 0.153 -0.498 L 0.153 -0.497 Q 0.155 -0.49 0.155 -0.482 Q 0.155 -0.442 0.117 -0.431 Q 0.109 -0.429 0.10300000000000001 -0.429 Q 0.066 -0.429 0.054 -0.46 Q 0.05 -0.47100000000000003 0.05 -0.485 Q 0.05 -0.562 0.109 -0.617 Q 0.162 -0.666 0.23700000000000002 -0.666 Q 0.34700000000000003 -0.666 0.40800000000000003 -0.592 Q 0.443 -0.549 0.448 -0.49 Q 0.449 -0.481 0.449 -0.47200000000000003 Q 0.449 -0.399 0.394 -0.333 Q 0.365 -0.299 0.304 -0.243 L 0.243 -0.189 L 0.233 -0.18 L 0.127 -0.077 L 0.307 -0.077 Q 0.395 -0.077 0.402 -0.085 Q 0.41200000000000003 -0.099 0.424 -0.17400000000000002 L 0.449 -0.17400000000000002 Z"/></g><g transform="translate(6.970416304354093,12.54790252631579)"><path fill="rgb(0,0,0)" stroke="none" paint-order="stroke fill markers" d=" M 0.661 -0.23 L 0.116 -0.23 Q 0.084 -0.23 0.083 -0.25 Q 0.083 -0.27 0.116 -0.27 L 0.661 -0.27 Q 0.6930000000000001 -0.27 0.6940000000000001 -0.25 Q 0.6940000000000001 -0.23 0.661 -0.23 Z"/></g><g transform="translate(7.970638526576315,12.54790252631579)"><path fill="rgb(0,0,0)" stroke="none" paint-order="stroke fill markers" d=" M 0.29 -0.352 L 0.29 -0.352 Q 0.39 -0.332 0.434 -0.254 Q 0.457 -0.215 0.457 -0.171 Q 0.457 -0.08600000000000001 0.387 -0.028 Q 0.326 0.022 0.244 0.022 Q 0.145 0.022 0.085 -0.037 Q 0.042 -0.079 0.042 -0.135 Q 0.042 -0.182 0.084 -0.191 Q 0.091 -0.193 0.098 -0.193 Q 0.136 -0.193 0.149 -0.161 Q 0.153 -0.148 0.154 -0.137 Q 0.154 -0.097 0.11800000000000001 -0.085 Q 0.10400000000000001 -0.08 0.088 -0.082 Q 0.125 -0.02 0.216 -0.008 Q 0.229 -0.006 0.241 -0.006 Q 0.305 -0.006 0.335 -0.069 Q 0.354 -0.109 0.354 -0.171 Q 0.354 -0.304 0.274 -0.331 Q 0.256 -0.337 0.23500000000000001 -0.337 L 0.191 -0.337 Q 0.169 -0.337 0.167 -0.34800000000000003 Q 0.167 -0.358 0.182 -0.36 Q 0.197 -0.36 0.221 -0.363 Q 0.272 -0.365 0.301 -0.402 L 0.301 -0.403 L 0.302 -0.404 L 0.303 -0.405 L 0.304 -0.405 L 0.31 -0.41500000000000004 Q 0.338 -0.462 0.338 -0.529 Q 0.338 -0.622 0.266 -0.638 Q 0.254 -0.641 0.242 -0.641 Q 0.17200000000000001 -0.641 0.128 -0.601 Q 0.117 -0.591 0.109 -0.579 Q 0.171 -0.579 0.171 -0.529 Q 0.171 -0.493 0.14 -0.481 Q 0.131 -0.47800000000000004 0.12 -0.47800000000000004 Q 0.081 -0.47800000000000004 0.07100000000000001 -0.513 L 0.07100000000000001 -0.513 L 0.07100000000000001 -0.514 Q 0.069 -0.522 0.069 -0.53 Q 0.069 -0.597 0.135 -0.637 Q 0.183 -0.666 0.246 -0.666 Q 0.337 -0.666 0.393 -0.612 L 0.395 -0.61 Q 0.43 -0.5740000000000001 0.43 -0.528 Q 0.43 -0.445 0.359 -0.389 Q 0.328 -0.365 0.29 -0.352 Z"/></g><g transform="translate(8.470638526576316,12.54790252631579)"><path fill="rgb(0,0,0)" stroke="none" paint-order="stroke fill markers" d=" M 0.486 -0.381 L 0.39 0.001 Q 0.366 0.099 0.28300000000000003 0.16 Q 0.222 0.20500000000000002 0.156 0.20500000000000002 Q 0.089 0.20500000000000002 0.061 0.159 Q 0.05 0.14 0.05 0.11800000000000001 Q 0.05 0.067 0.091 0.055 Q 0.099 0.053 0.106 0.053 Q 0.138 0.053 0.14200000000000002 0.081 Q 0.14300000000000002 0.084 0.14300000000000002 0.088 Q 0.14300000000000002 0.111 0.123 0.129 Q 0.109 0.14100000000000001 0.08 0.14100000000000001 Q 0.098 0.183 0.156 0.183 Q 0.218 0.183 0.266 0.12 Q 0.305 0.068 0.328 -0.021 Q 0.329 -0.025 0.331 -0.034 Q 0.28600000000000003 0.011 0.23 0.011 Q 0.15 0.011 0.121 -0.048 Q 0.108 -0.074 0.108 -0.108 Q 0.108 -0.163 0.161 -0.305 Q 0.163 -0.311 0.166 -0.318 Q 0.183 -0.364 0.183 -0.388 Q 0.183 -0.42 0.158 -0.42 Q 0.10300000000000001 -0.42 0.068 -0.329 L 0.068 -0.328 Q 0.062 -0.313 0.057 -0.296 Q 0.046 -0.279 0.041 -0.278 Q 0.029 -0.278 0.029 -0.28800000000000003 Q 0.029 -0.306 0.05 -0.35100000000000003 Q 0.094 -0.442 0.161 -0.442 Q 0.214 -0.442 0.23500000000000001 -0.397 Q 0.243 -0.38 0.243 -0.36 Q 0.243 -0.339 0.223 -0.28800000000000003 Q 0.17200000000000001 -0.156 0.17200000000000001 -0.092 Q 0.17200000000000001 -0.011 0.234 -0.011 Q 0.292 -0.011 0.335 -0.073 Q 0.34500000000000003 -0.088 0.34700000000000003 -0.096 L 0.392 -0.276 Q 0.399 -0.309 0.41200000000000003 -0.356 Q 0.422 -0.399 0.426 -0.41000000000000003 Q 0.439 -0.431 0.461 -0.431 Q 0.486 -0.426 0.49 -0.404 Q 0.49 -0.395 0.486 -0.381 Z"/></g></g><text fill="rgb(0,0,0)" stroke="none" font-family="geogebra-sans-serif, sans-serif" font-size="16px" font-style="normal" font-weight="normal" text-decoration="normal" x="459" y="238" text-anchor="start" dominant-baseline="alphabetic" fill-opacity="1">g = 2 x+y-5</text><text fill="rgb(0,0,0)" stroke="none" font-family="geogebra-sans-serif, sans-serif" font-size="16px" font-style="normal" font-weight="normal" text-decoration="normal" x="171" y="460" text-anchor="start" dominant-baseline="alphabetic" fill-opacity="1">x</text><text fill="rgb(0,0,0)" stroke="none" font-family="geogebra-sans-serif, sans-serif" font-size="16px" font-style="normal" font-weight="normal" text-decoration="normal" x="446" y="461" text-anchor="start" dominant-baseline="alphabetic" fill-opacity="1">y</text><g transform="scale(19,19)"><g transform="translate(3.526974569046316,19.27294736842105)"><path fill="rgb(0,0,0)" stroke="none" paint-order="stroke fill markers" d=" M 0.463 -0.339 L 0.463 -0.339 L 0.464 -0.339 Q 0.491 -0.443 0.491 -0.51 Q 0.491 -0.637 0.40900000000000003 -0.678 Q 0.381 -0.6910000000000001 0.34800000000000003 -0.6910000000000001 Q 0.252 -0.6910000000000001 0.20400000000000001 -0.611 Q 0.25 -0.611 0.251 -0.5760000000000001 Q 0.251 -0.547 0.224 -0.531 Q 0.212 -0.523 0.197 -0.523 Q 0.163 -0.528 0.159 -0.558 Q 0.159 -0.589 0.189 -0.633 Q 0.246 -0.716 0.35000000000000003 -0.716 Q 0.457 -0.716 0.518 -0.628 L 0.519 -0.627 Q 0.5660000000000001 -0.558 0.5660000000000001 -0.457 Q 0.5660000000000001 -0.35000000000000003 0.513 -0.223 Q 0.438 -0.046 0.314 0.005 Q 0.271 0.022 0.224 0.022 Q 0.109 0.022 0.061 -0.074 Q 0.04 -0.115 0.04 -0.156 Q 0.04 -0.262 0.115 -0.34700000000000003 Q 0.122 -0.355 0.13 -0.363 Q 0.229 -0.454 0.334 -0.457 Q 0.418 -0.457 0.451 -0.379 Q 0.46 -0.36 0.463 -0.339 M 0.227 -0.006 L 0.227 -0.006 Q 0.334 -0.006 0.401 -0.14100000000000001 Q 0.442 -0.231 0.445 -0.303 Q 0.445 -0.392 0.388 -0.423 Q 0.365 -0.435 0.334 -0.435 Q 0.245 -0.435 0.183 -0.34600000000000003 Q 0.14300000000000002 -0.28700000000000003 0.121 -0.156 Q 0.117 -0.13 0.117 -0.11900000000000001 Q 0.117 -0.051000000000000004 0.164 -0.022 Q 0.189 -0.006 0.227 -0.006 Z"/></g><g transform="translate(4.113974569046316,19.27294736842105)"><path fill="rgb(0,0,0)" stroke="none" paint-order="stroke fill markers" d=" M 0.176 -0.386 L 0.176 0 L 0.101 0 L 0.101 -0.386 L 0.027 -0.386 L 0.027 -0.444 L 0.101 -0.444 L 0.101 -0.534 Q 0.101 -0.608 0.1485 -0.6565 Q 0.196 -0.705 0.267 -0.705 Q 0.303 -0.705 0.34700000000000003 -0.6940000000000001 L 0.34700000000000003 -0.627 Q 0.308 -0.644 0.266 -0.644 Q 0.253 -0.644 0.24 -0.6415 Q 0.227 -0.639 0.2105 -0.6315000000000001 Q 0.194 -0.624 0.1835 -0.6065 Q 0.17300000000000001 -0.589 0.17300000000000001 -0.5630000000000001 L 0.17300000000000001 -0.444 L 0.28600000000000003 -0.444 L 0.28600000000000003 -0.386 L 0.176 -0.386 Z"/></g><rect fill="rgb(0,0,0)" stroke="none" x="3.4839745690463158" y="19.67945586842105" width="1.048" height="0.039999"/><g transform="translate(3.4839745690463158,20.63540636842105)"><path fill="rgb(0,0,0)" stroke="none" paint-order="stroke fill markers" d=" M 0.463 -0.339 L 0.463 -0.339 L 0.464 -0.339 Q 0.491 -0.443 0.491 -0.51 Q 0.491 -0.637 0.40900000000000003 -0.678 Q 0.381 -0.6910000000000001 0.34800000000000003 -0.6910000000000001 Q 0.252 -0.6910000000000001 0.20400000000000001 -0.611 Q 0.25 -0.611 0.251 -0.5760000000000001 Q 0.251 -0.547 0.224 -0.531 Q 0.212 -0.523 0.197 -0.523 Q 0.163 -0.528 0.159 -0.558 Q 0.159 -0.589 0.189 -0.633 Q 0.246 -0.716 0.35000000000000003 -0.716 Q 0.457 -0.716 0.518 -0.628 L 0.519 -0.627 Q 0.5660000000000001 -0.558 0.5660000000000001 -0.457 Q 0.5660000000000001 -0.35000000000000003 0.513 -0.223 Q 0.438 -0.046 0.314 0.005 Q 0.271 0.022 0.224 0.022 Q 0.109 0.022 0.061 -0.074 Q 0.04 -0.115 0.04 -0.156 Q 0.04 -0.262 0.115 -0.34700000000000003 Q 0.122 -0.355 0.13 -0.363 Q 0.229 -0.454 0.334 -0.457 Q 0.418 -0.457 0.451 -0.379 Q 0.46 -0.36 0.463 -0.339 M 0.227 -0.006 L 0.227 -0.006 Q 0.334 -0.006 0.401 -0.14100000000000001 Q 0.442 -0.231 0.445 -0.303 Q 0.445 -0.392 0.388 -0.423 Q 0.365 -0.435 0.334 -0.435 Q 0.245 -0.435 0.183 -0.34600000000000003 Q 0.14300000000000002 -0.28700000000000003 0.121 -0.156 Q 0.117 -0.13 0.117 -0.11900000000000001 Q 0.117 -0.051000000000000004 0.164 -0.022 Q 0.189 -0.006 0.227 -0.006 Z"/></g><g transform="translate(4.0709745690463155,20.63540636842105)"><path fill="rgb(0,0,0)" stroke="none" paint-order="stroke fill markers" d=" M 0.26 -0.229 L 0.46 0 L 0.377 0 L 0.227 -0.188 L 0.082 0 L 0 0 L 0.194 -0.229 L 0.006 -0.444 L 0.089 -0.444 L 0.227 -0.279 L 0.361 -0.444 L 0.443 -0.444 L 0.26 -0.229 Z"/></g><g transform="translate(4.872674284291462,19.949455368421052)"><path fill="rgb(0,0,0)" stroke="none" paint-order="stroke fill markers" d=" M 0.687 -0.33 L 0.09 -0.33 Q 0.056 -0.33 0.056 -0.35000000000000003 Q 0.056 -0.37 0.089 -0.37 L 0.6880000000000001 -0.37 Q 0.721 -0.37 0.721 -0.35000000000000003 Q 0.721 -0.33 0.687 -0.33 M 0.6880000000000001 -0.13 L 0.089 -0.13 Q 0.056 -0.13 0.056 -0.15 Q 0.056 -0.17 0.09 -0.17 L 0.687 -0.17 Q 0.721 -0.17 0.721 -0.15 Q 0.721 -0.13 0.6880000000000001 -0.13 Z"/></g><g transform="translate(5.92845206206924,19.949455368421052)"><path fill="rgb(0,0,0)" stroke="none" paint-order="stroke fill markers" d=" M 0.299 -0.678 L 0.299 -0.058 L 0.424 -0.058 L 0.424 0 L 0.095 0 L 0.095 -0.058 L 0.22 -0.058 L 0.22 -0.578 Q 0.169 -0.556 0.089 -0.554 L 0.089 -0.612 Q 0.22 -0.617 0.279 -0.678 L 0.299 -0.678 Z"/></g><g transform="translate(6.42845206206924,19.949455368421052)"><path fill="rgb(0,0,0)" stroke="none" paint-order="stroke fill markers" d=" M 0.457 -0.326 Q 0.457 -0.17500000000000002 0.417 -0.088 Q 0.393 -0.036000000000000004 0.34850000000000003 -0.007 Q 0.304 0.022 0.249 0.022 Q 0.217 0.022 0.1875 0.012 Q 0.158 0.002 0.1265 -0.027 Q 0.095 -0.056 0.076 -0.101 Q 0.042 -0.184 0.042 -0.326 Q 0.042 -0.47800000000000004 0.08 -0.562 Q 0.108 -0.624 0.154 -0.651 Q 0.2 -0.678 0.25 -0.678 Q 0.294 -0.678 0.3385 -0.6545 Q 0.383 -0.631 0.41100000000000003 -0.579 Q 0.457 -0.49 0.457 -0.326 M 0.25 -0.039 Q 0.33 -0.039 0.361 -0.146 Q 0.379 -0.209 0.379 -0.338 Q 0.379 -0.467 0.36 -0.523 Q 0.354 -0.538 0.34950000000000003 -0.5465 Q 0.34500000000000003 -0.555 0.332 -0.5750000000000001 Q 0.319 -0.595 0.2975 -0.606 Q 0.276 -0.617 0.249 -0.617 Q 0.169 -0.617 0.137 -0.516 Q 0.12 -0.461 0.12 -0.338 Q 0.12 -0.21 0.137 -0.149 Q 0.168 -0.039 0.25 -0.039 Z"/></g><g transform="translate(6.92845206206924,19.949455368421052)"><path fill="rgb(0,0,0)" stroke="none" paint-order="stroke fill markers" d=" M 0.26 -0.229 L 0.46 0 L 0.377 0 L 0.227 -0.188 L 0.082 0 L 0 0 L 0.194 -0.229 L 0.006 -0.444 L 0.089 -0.444 L 0.227 -0.279 L 0.361 -0.444 L 0.443 -0.444 L 0.26 -0.229 Z"/></g></g></g></g></svg>