<svg version="1.1" xmlns="http://www.w3.org/2000/svg" xmlns:xlink="http://www.w3.org/1999/xlink" width="638" height="538"><defs><clipPath id="SPXgnSBBnwIP"><path fill="none" stroke="none" d=" M 0 0 L 638 0 L 638 538 L 0 538 L 0 0 Z"/></clipPath></defs><g transform="scale(1,1)" clip-path="url(#SPXgnSBBnwIP)"><g><rect fill="rgb(255,255,255)" stroke="none" x="0" y="0" width="638" height="538" fill-opacity="1"/><path fill="none" stroke="rgb(0,0,0)" paint-order="fill stroke markers" d=" M 177.28739733516267 212.64854353856919 C 177.28739733516267 193.6904800109072 142.92228144738175 178.32193297495996 100.53076267777013 178.32193297495996 C 58.1392439081585 178.32193297495996 23.774128020377603 193.6904800109072 23.774128020377603 212.64854353856919 C 23.774128020377603 231.60660706623116 58.1392439081585 246.9751541021784 100.53076267777013 246.9751541021784 C 142.92228144738175 246.9751541021784 177.28739733516267 231.60660706623116 177.28739733516267 212.64854353856919 Z" stroke-opacity="0.6980392156862745" stroke-linecap="round" stroke-linejoin="round" stroke-miterlimit="10" stroke-width="2.5"/><path fill="none" stroke="rgb(0,0,0)" paint-order="fill stroke markers" d=" M 538.141348109431 212.64854353856916 C 538.141348109431 193.69048001090727 510.4353059256872 178.3219329749601 476.2581708594429 178.3219329749601 C 442.08103579319857 178.3219329749601 414.37499360945475 193.69048001090727 414.37499360945475 212.64854353856916 C 414.37499360945475 231.60660706623105 442.08103579319857 246.9751541021782 476.2581708594429 246.9751541021782 C 510.4353059256872 246.9751541021782 538.141348109431 231.60660706623105 538.141348109431 212.64854353856916 Z" stroke-opacity="0.6980392156862745" stroke-linecap="round" stroke-linejoin="round" stroke-miterlimit="10" stroke-width="2.5"/><path fill="none" stroke="rgb(0,0,0)" paint-order="fill stroke markers" d=" M 401.8673340273005 41.0154907205241 C 401.8673340273005 23.90313958863459 353.7199468593799 10.030838080500416 294.32713487231507 10.030838080500416 C 234.93432288525025 10.030838080500416 186.78693571732964 23.90313958863459 186.78693571732964 41.0154907205241 C 186.78693571732964 58.12784185241361 234.93432288525025 72.00014336054778 294.32713487231507 72.00014336054778 C 353.7199468593799 72.00014336054778 401.8673340273005 58.12784185241361 401.8673340273005 41.0154907205241 Z" stroke-opacity="0.6980392156862745" stroke-linecap="round" stroke-linejoin="round" stroke-miterlimit="10" stroke-width="2.5"/><path fill="none" stroke="rgb(0,0,0)" paint-order="fill stroke markers" d=" M 229.28739733516235 446.64854353856913 C 229.28739733516235 427.6904800109072 194.92228144738152 412.3219329749601 152.53076267777 412.3219329749601 C 110.13924390815848 412.3219329749601 75.77412802037767 427.6904800109072 75.77412802037767 446.64854353856913 C 75.77412802037767 465.60660706623105 110.13924390815848 480.9751541021782 152.53076267777 480.9751541021782 C 194.92228144738152 480.9751541021782 229.28739733516235 465.60660706623105 229.28739733516235 446.64854353856913 Z" stroke-opacity="0.6980392156862745" stroke-linecap="round" stroke-linejoin="round" stroke-miterlimit="10" stroke-width="2.5"/><path fill="none" stroke="rgb(0,0,0)" paint-order="fill stroke markers" d=" M 504.2873973351622 445.6485435385692 C 504.2873973351622 426.6904800109073 469.9222814473815 411.3219329749602 427.5307626777701 411.3219329749602 C 385.1392439081587 411.3219329749602 350.774128020378 426.6904800109073 350.774128020378 445.6485435385692 C 350.774128020378 464.60660706623105 385.1392439081587 479.9751541021782 427.5307626777701 479.9751541021782 C 469.9222814473815 479.9751541021782 504.2873973351622 464.60660706623105 504.2873973351622 445.6485435385692 Z" stroke-opacity="0.6980392156862745" stroke-linecap="round" stroke-linejoin="round" stroke-miterlimit="10" stroke-width="2.5"/><path fill="rgb(0,0,0)" stroke="none" paint-order="stroke fill markers" d=" M 293.99892176468467 70.7498968517331 C 293.7498030558425 70.7498968517331 293.49824097945867 70.82416230326574 293.279231297703 70.97872996823092 L 150.54779396966018 171.71247291542048 L 148.81794908414793 169.26142483917488 L 137.37929023989867 182.53619729842546 L 153.71917625976596 176.20606105520403 L 151.9893313742537 173.75501297895843 L 294.72076870229654 73.0212700317689 C 295.2848005663018 72.62320046933507 295.4193395942026 71.84326316170838 295.0212700317688 71.27923129770315 C 294.7777681343001 70.93420911545357 294.3913769286524 70.7498968517331 293.99892176468467 70.7498968517331 Z" fill-opacity="0.6980392156862745"/><g transform="scale(19,19)"><g transform="translate(8.33707983220421,5.378210526315789)"><path fill="rgb(0,0,0)" stroke="none" paint-order="stroke fill markers" d=" M 0.463 -0.339 L 0.463 -0.339 L 0.464 -0.339 Q 0.491 -0.443 0.491 -0.51 Q 0.491 -0.637 0.40900000000000003 -0.678 Q 0.381 -0.6910000000000001 0.34800000000000003 -0.6910000000000001 Q 0.252 -0.6910000000000001 0.20400000000000001 -0.611 Q 0.25 -0.611 0.251 -0.5760000000000001 Q 0.251 -0.547 0.224 -0.531 Q 0.212 -0.523 0.197 -0.523 Q 0.163 -0.528 0.159 -0.558 Q 0.159 -0.589 0.189 -0.633 Q 0.246 -0.716 0.35000000000000003 -0.716 Q 0.457 -0.716 0.518 -0.628 L 0.519 -0.627 Q 0.5660000000000001 -0.558 0.5660000000000001 -0.457 Q 0.5660000000000001 -0.35000000000000003 0.513 -0.223 Q 0.438 -0.046 0.314 0.005 Q 0.271 0.022 0.224 0.022 Q 0.109 0.022 0.061 -0.074 Q 0.04 -0.115 0.04 -0.156 Q 0.04 -0.262 0.115 -0.34700000000000003 Q 0.122 -0.355 0.13 -0.363 Q 0.229 -0.454 0.334 -0.457 Q 0.418 -0.457 0.451 -0.379 Q 0.46 -0.36 0.463 -0.339 M 0.227 -0.006 L 0.227 -0.006 Q 0.334 -0.006 0.401 -0.14100000000000001 Q 0.442 -0.231 0.445 -0.303 Q 0.445 -0.392 0.388 -0.423 Q 0.365 -0.435 0.334 -0.435 Q 0.245 -0.435 0.183 -0.34600000000000003 Q 0.14300000000000002 -0.28700000000000003 0.121 -0.156 Q 0.117 -0.13 0.117 -0.11900000000000001 Q 0.117 -0.051000000000000004 0.164 -0.022 Q 0.189 -0.006 0.227 -0.006 Z"/></g><g transform="translate(8.92407983220421,5.378210526315789)"><path fill="rgb(0,0,0)" stroke="none" paint-order="stroke fill markers" d=" M 0.28700000000000003 -0.683 L 0.209 -0.365 Q 0.271 -0.442 0.357 -0.442 Q 0.446 -0.442 0.467 -0.373 L 0.467 -0.372 Q 0.47200000000000003 -0.355 0.47200000000000003 -0.335 Q 0.47200000000000003 -0.279 0.41100000000000003 -0.115 Q 0.393 -0.07100000000000001 0.393 -0.044 Q 0.393 -0.011 0.417 -0.011 Q 0.47900000000000004 -0.011 0.515 -0.121 L 0.519 -0.135 Q 0.524 -0.151 0.529 -0.152 L 0.529 -0.153 L 0.534 -0.153 Q 0.546 -0.153 0.546 -0.14300000000000002 Q 0.546 -0.126 0.525 -0.08 Q 0.482 0.011 0.41500000000000004 0.011 Q 0.364 0.011 0.342 -0.032 Q 0.333 -0.05 0.333 -0.07100000000000001 Q 0.333 -0.089 0.34600000000000003 -0.126 Q 0.40800000000000003 -0.28400000000000003 0.40800000000000003 -0.35000000000000003 Q 0.40800000000000003 -0.42 0.354 -0.42 Q 0.306 -0.42 0.258 -0.385 Q 0.221 -0.356 0.193 -0.299 L 0.19 -0.293 Q 0.186 -0.269 0.179 -0.248 Q 0.17400000000000002 -0.225 0.162 -0.181 L 0.14 -0.091 L 0.121 -0.015 Q 0.114 0.006 0.09 0.01 Q 0.08700000000000001 0.011 0.084 0.011 Q 0.06 0.011 0.056 -0.01 Q 0.055 -0.014 0.055 -0.017 Q 0.055 -0.025 0.059000000000000004 -0.039 L 0.20400000000000001 -0.615 L 0.20700000000000002 -0.635 Q 0.20700000000000002 -0.646 0.193 -0.649 L 0.193 -0.649 Q 0.181 -0.652 0.157 -0.652 Q 0.135 -0.652 0.133 -0.664 Q 0.133 -0.681 0.152 -0.684 L 0.274 -0.6940000000000001 Q 0.28700000000000003 -0.6940000000000001 0.28700000000000003 -0.683 Z"/></g><rect fill="rgb(0,0,0)" stroke="none" x="8.326079832204211" y="5.7847190263157895" width="1.185" height="0.039999"/><g transform="translate(8.326079832204211,6.74066952631579)"><path fill="rgb(0,0,0)" stroke="none" paint-order="stroke fill markers" d=" M 0.463 -0.339 L 0.463 -0.339 L 0.464 -0.339 Q 0.491 -0.443 0.491 -0.51 Q 0.491 -0.637 0.40900000000000003 -0.678 Q 0.381 -0.6910000000000001 0.34800000000000003 -0.6910000000000001 Q 0.252 -0.6910000000000001 0.20400000000000001 -0.611 Q 0.25 -0.611 0.251 -0.5760000000000001 Q 0.251 -0.547 0.224 -0.531 Q 0.212 -0.523 0.197 -0.523 Q 0.163 -0.528 0.159 -0.558 Q 0.159 -0.589 0.189 -0.633 Q 0.246 -0.716 0.35000000000000003 -0.716 Q 0.457 -0.716 0.518 -0.628 L 0.519 -0.627 Q 0.5660000000000001 -0.558 0.5660000000000001 -0.457 Q 0.5660000000000001 -0.35000000000000003 0.513 -0.223 Q 0.438 -0.046 0.314 0.005 Q 0.271 0.022 0.224 0.022 Q 0.109 0.022 0.061 -0.074 Q 0.04 -0.115 0.04 -0.156 Q 0.04 -0.262 0.115 -0.34700000000000003 Q 0.122 -0.355 0.13 -0.363 Q 0.229 -0.454 0.334 -0.457 Q 0.418 -0.457 0.451 -0.379 Q 0.46 -0.36 0.463 -0.339 M 0.227 -0.006 L 0.227 -0.006 Q 0.334 -0.006 0.401 -0.14100000000000001 Q 0.442 -0.231 0.445 -0.303 Q 0.445 -0.392 0.388 -0.423 Q 0.365 -0.435 0.334 -0.435 Q 0.245 -0.435 0.183 -0.34600000000000003 Q 0.14300000000000002 -0.28700000000000003 0.121 -0.156 Q 0.117 -0.13 0.117 -0.11900000000000001 Q 0.117 -0.051000000000000004 0.164 -0.022 Q 0.189 -0.006 0.227 -0.006 Z"/></g><g transform="translate(8.913079832204211,6.74066952631579)"><path fill="rgb(0,0,0)" stroke="none" paint-order="stroke fill markers" d=" M 0.367 -0.4 L 0.367 -0.4 L 0.307 -0.083 Q 0.298 -0.021 0.271 0.059000000000000004 Q 0.261 0.088 0.251 0.108 Q 0.216 0.182 0.164 0.2 Q 0.151 0.20500000000000002 0.138 0.20500000000000002 Q 0.088 0.20500000000000002 0.064 0.171 Q 0.053 0.156 0.053 0.136 Q 0.053 0.096 0.08700000000000001 0.081 Q 0.097 0.076 0.108 0.076 Q 0.137 0.076 0.14400000000000002 0.101 Q 0.145 0.106 0.145 0.111 Q 0.145 0.145 0.115 0.159 Q 0.10400000000000001 0.164 0.09 0.165 Q 0.109 0.183 0.138 0.183 Q 0.182 0.183 0.20700000000000002 0.085 Q 0.212 0.062 0.219 0.025 L 0.225 -0.005 L 0.3 -0.4 L 0.234 -0.4 Q 0.209 -0.4 0.20700000000000002 -0.40800000000000003 L 0.20600000000000002 -0.40800000000000003 L 0.20600000000000002 -0.41200000000000003 Q 0.20600000000000002 -0.429 0.223 -0.431 L 0.223 -0.431 L 0.23600000000000002 -0.431 L 0.305 -0.431 Q 0.329 -0.556 0.338 -0.588 Q 0.368 -0.6880000000000001 0.444 -0.7030000000000001 Q 0.455 -0.705 0.465 -0.705 Q 0.517 -0.705 0.541 -0.671 L 0.541 -0.671 Q 0.552 -0.656 0.552 -0.636 Q 0.552 -0.596 0.518 -0.581 Q 0.508 -0.5760000000000001 0.497 -0.5760000000000001 Q 0.468 -0.5760000000000001 0.461 -0.601 Q 0.46 -0.606 0.46 -0.611 Q 0.46 -0.642 0.488 -0.657 Q 0.499 -0.664 0.514 -0.665 Q 0.495 -0.683 0.465 -0.683 Q 0.434 -0.683 0.418 -0.649 Q 0.41100000000000003 -0.635 0.394 -0.545 L 0.373 -0.431 L 0.456 -0.431 Q 0.481 -0.431 0.483 -0.42 Q 0.483 -0.402 0.467 -0.4 L 0.466 -0.4 L 0.453 -0.4 L 0.367 -0.4 Z"/></g><g transform="translate(9.851779547449357,6.054718526315789)"><path fill="rgb(0,0,0)" stroke="none" paint-order="stroke fill markers" d=" M 0.687 -0.327 L 0.09 -0.327 Q 0.058 -0.327 0.056 -0.34700000000000003 Q 0.056 -0.367 0.089 -0.367 L 0.6880000000000001 -0.367 Q 0.72 -0.367 0.721 -0.34700000000000003 Q 0.721 -0.327 0.687 -0.327 M 0.6880000000000001 -0.133 L 0.089 -0.133 Q 0.057 -0.133 0.056 -0.153 Q 0.056 -0.17300000000000001 0.09 -0.17300000000000001 L 0.687 -0.17300000000000001 Q 0.719 -0.17300000000000001 0.721 -0.153 Q 0.721 -0.133 0.6880000000000001 -0.133 Z"/></g><g transform="translate(10.907557325227137,6.054718526315789)"><path fill="rgb(0,0,0)" stroke="none" paint-order="stroke fill markers" d=" M 0.46 -0.32 Q 0.46 -0.17400000000000002 0.423 -0.094 Q 0.364 0.018000000000000002 0.249 0.022 Q 0.158 0.022 0.10300000000000001 -0.05 Q 0.092 -0.063 0.084 -0.079 Q 0.039 -0.162 0.039 -0.32 Q 0.039 -0.467 0.076 -0.547 Q 0.126 -0.659 0.23800000000000002 -0.666 L 0.25 -0.666 Q 0.339 -0.666 0.395 -0.595 L 0.395 -0.594 Q 0.40900000000000003 -0.5760000000000001 0.42 -0.554 Q 0.46 -0.46900000000000003 0.46 -0.32 M 0.249 0 L 0.249 0 Q 0.312 0 0.34600000000000003 -0.061 Q 0.36 -0.088 0.366 -0.125 Q 0.377 -0.189 0.377 -0.332 Q 0.377 -0.47100000000000003 0.367 -0.527 Q 0.34900000000000003 -0.622 0.275 -0.641 Q 0.262 -0.644 0.249 -0.644 Q 0.179 -0.644 0.147 -0.5740000000000001 Q 0.136 -0.55 0.13 -0.516 Q 0.122 -0.462 0.122 -0.332 Q 0.122 -0.181 0.133 -0.121 Q 0.151 -0.025 0.221 -0.004 Q 0.23500000000000001 0 0.249 0 Z"/></g></g><path fill="rgb(0,0,0)" stroke="none" paint-order="stroke fill markers" d=" M 294.0009920232363 70.74991981000136 C 293.6180538405758 70.74991981000136 293.24009352895166 70.92526195883649 292.99493595181855 71.25679998718132 C 292.5844779186648 71.81188153359501 292.7017184407675 72.59460601502738 293.2567999871812 73.00506404818114 L 429.9936491641157 174.1158621559939 L 428.2099691333511 176.52801587162884 L 444.405720232199 183.21831828214565 L 433.2637292205175 169.69358034399653 L 431.4800491897529 172.10573405963146 L 294.74320001281836 70.99493595181869 C 294.5196564947495 70.82963549579807 294.2591927158753 70.74991981000136 294.0009920232363 70.74991981000136 Z" fill-opacity="0.6980392156862745"/><g transform="scale(19,19)"><g transform="translate(20.27344825325684,5.4308421052631575)"><path fill="rgb(0,0,0)" stroke="none" paint-order="stroke fill markers" d=" M 0.463 -0.339 L 0.463 -0.339 L 0.464 -0.339 Q 0.491 -0.443 0.491 -0.51 Q 0.491 -0.637 0.40900000000000003 -0.678 Q 0.381 -0.6910000000000001 0.34800000000000003 -0.6910000000000001 Q 0.252 -0.6910000000000001 0.20400000000000001 -0.611 Q 0.25 -0.611 0.251 -0.5760000000000001 Q 0.251 -0.547 0.224 -0.531 Q 0.212 -0.523 0.197 -0.523 Q 0.163 -0.528 0.159 -0.558 Q 0.159 -0.589 0.189 -0.633 Q 0.246 -0.716 0.35000000000000003 -0.716 Q 0.457 -0.716 0.518 -0.628 L 0.519 -0.627 Q 0.5660000000000001 -0.558 0.5660000000000001 -0.457 Q 0.5660000000000001 -0.35000000000000003 0.513 -0.223 Q 0.438 -0.046 0.314 0.005 Q 0.271 0.022 0.224 0.022 Q 0.109 0.022 0.061 -0.074 Q 0.04 -0.115 0.04 -0.156 Q 0.04 -0.262 0.115 -0.34700000000000003 Q 0.122 -0.355 0.13 -0.363 Q 0.229 -0.454 0.334 -0.457 Q 0.418 -0.457 0.451 -0.379 Q 0.46 -0.36 0.463 -0.339 M 0.227 -0.006 L 0.227 -0.006 Q 0.334 -0.006 0.401 -0.14100000000000001 Q 0.442 -0.231 0.445 -0.303 Q 0.445 -0.392 0.388 -0.423 Q 0.365 -0.435 0.334 -0.435 Q 0.245 -0.435 0.183 -0.34600000000000003 Q 0.14300000000000002 -0.28700000000000003 0.121 -0.156 Q 0.117 -0.13 0.117 -0.11900000000000001 Q 0.117 -0.051000000000000004 0.164 -0.022 Q 0.189 -0.006 0.227 -0.006 Z"/></g><g transform="translate(20.86044825325684,5.4308421052631575)"><path fill="rgb(0,0,0)" stroke="none" paint-order="stroke fill markers" d=" M 0.28700000000000003 -0.683 L 0.209 -0.365 Q 0.271 -0.442 0.357 -0.442 Q 0.446 -0.442 0.467 -0.373 L 0.467 -0.372 Q 0.47200000000000003 -0.355 0.47200000000000003 -0.335 Q 0.47200000000000003 -0.279 0.41100000000000003 -0.115 Q 0.393 -0.07100000000000001 0.393 -0.044 Q 0.393 -0.011 0.417 -0.011 Q 0.47900000000000004 -0.011 0.515 -0.121 L 0.519 -0.135 Q 0.524 -0.151 0.529 -0.152 L 0.529 -0.153 L 0.534 -0.153 Q 0.546 -0.153 0.546 -0.14300000000000002 Q 0.546 -0.126 0.525 -0.08 Q 0.482 0.011 0.41500000000000004 0.011 Q 0.364 0.011 0.342 -0.032 Q 0.333 -0.05 0.333 -0.07100000000000001 Q 0.333 -0.089 0.34600000000000003 -0.126 Q 0.40800000000000003 -0.28400000000000003 0.40800000000000003 -0.35000000000000003 Q 0.40800000000000003 -0.42 0.354 -0.42 Q 0.306 -0.42 0.258 -0.385 Q 0.221 -0.356 0.193 -0.299 L 0.19 -0.293 Q 0.186 -0.269 0.179 -0.248 Q 0.17400000000000002 -0.225 0.162 -0.181 L 0.14 -0.091 L 0.121 -0.015 Q 0.114 0.006 0.09 0.01 Q 0.08700000000000001 0.011 0.084 0.011 Q 0.06 0.011 0.056 -0.01 Q 0.055 -0.014 0.055 -0.017 Q 0.055 -0.025 0.059000000000000004 -0.039 L 0.20400000000000001 -0.615 L 0.20700000000000002 -0.635 Q 0.20700000000000002 -0.646 0.193 -0.649 L 0.193 -0.649 Q 0.181 -0.652 0.157 -0.652 Q 0.135 -0.652 0.133 -0.664 Q 0.133 -0.681 0.152 -0.684 L 0.274 -0.6940000000000001 Q 0.28700000000000003 -0.6940000000000001 0.28700000000000003 -0.683 Z"/></g><rect fill="rgb(0,0,0)" stroke="none" x="20.27344825325684" y="5.837350605263158" width="1.163" height="0.039999"/><g transform="translate(20.304948253256843,6.793301105263158)"><path fill="rgb(0,0,0)" stroke="none" paint-order="stroke fill markers" d=" M 0.463 -0.339 L 0.463 -0.339 L 0.464 -0.339 Q 0.491 -0.443 0.491 -0.51 Q 0.491 -0.637 0.40900000000000003 -0.678 Q 0.381 -0.6910000000000001 0.34800000000000003 -0.6910000000000001 Q 0.252 -0.6910000000000001 0.20400000000000001 -0.611 Q 0.25 -0.611 0.251 -0.5760000000000001 Q 0.251 -0.547 0.224 -0.531 Q 0.212 -0.523 0.197 -0.523 Q 0.163 -0.528 0.159 -0.558 Q 0.159 -0.589 0.189 -0.633 Q 0.246 -0.716 0.35000000000000003 -0.716 Q 0.457 -0.716 0.518 -0.628 L 0.519 -0.627 Q 0.5660000000000001 -0.558 0.5660000000000001 -0.457 Q 0.5660000000000001 -0.35000000000000003 0.513 -0.223 Q 0.438 -0.046 0.314 0.005 Q 0.271 0.022 0.224 0.022 Q 0.109 0.022 0.061 -0.074 Q 0.04 -0.115 0.04 -0.156 Q 0.04 -0.262 0.115 -0.34700000000000003 Q 0.122 -0.355 0.13 -0.363 Q 0.229 -0.454 0.334 -0.457 Q 0.418 -0.457 0.451 -0.379 Q 0.46 -0.36 0.463 -0.339 M 0.227 -0.006 L 0.227 -0.006 Q 0.334 -0.006 0.401 -0.14100000000000001 Q 0.442 -0.231 0.445 -0.303 Q 0.445 -0.392 0.388 -0.423 Q 0.365 -0.435 0.334 -0.435 Q 0.245 -0.435 0.183 -0.34600000000000003 Q 0.14300000000000002 -0.28700000000000003 0.121 -0.156 Q 0.117 -0.13 0.117 -0.11900000000000001 Q 0.117 -0.051000000000000004 0.164 -0.022 Q 0.189 -0.006 0.227 -0.006 Z"/></g><g transform="translate(20.891948253256842,6.793301105263158)"><path fill="rgb(0,0,0)" stroke="none" paint-order="stroke fill markers" d=" M 0.47100000000000003 -0.377 L 0.47100000000000003 -0.377 L 0.36 0.067 Q 0.34500000000000003 0.127 0.28200000000000003 0.168 Q 0.224 0.20500000000000002 0.148 0.20500000000000002 Q 0.025 0.20500000000000002 0.016 0.155 Q 0.015 0.15 0.015 0.14400000000000002 Q 0.015 0.10300000000000001 0.052000000000000005 0.089 Q 0.061 0.08600000000000001 0.069 0.08600000000000001 Q 0.1 0.08600000000000001 0.106 0.113 Q 0.107 0.117 0.107 0.121 Q 0.107 0.153 0.077 0.169 Q 0.07200000000000001 0.171 0.066 0.17300000000000001 Q 0.097 0.183 0.146 0.183 Q 0.244 0.183 0.29 0.075 L 0.323 -0.057 L 0.322 -0.058 Q 0.277 -0.008 0.221 -0.001 Q 0.213 0 0.20600000000000002 0 Q 0.136 0 0.098 -0.061 Q 0.073 -0.10200000000000001 0.073 -0.158 Q 0.073 -0.265 0.149 -0.354 Q 0.219 -0.436 0.3 -0.442 L 0.311 -0.442 Q 0.365 -0.442 0.398 -0.391 L 0.404 -0.379 Q 0.41300000000000003 -0.417 0.445 -0.422 Q 0.47100000000000003 -0.422 0.47400000000000003 -0.395 L 0.47100000000000003 -0.377 M 0.341 -0.128 L 0.341 -0.128 L 0.389 -0.319 Q 0.392 -0.331 0.392 -0.334 Q 0.392 -0.354 0.375 -0.382 L 0.375 -0.382 Q 0.363 -0.402 0.34500000000000003 -0.41200000000000003 Q 0.33 -0.42 0.312 -0.42 Q 0.26 -0.42 0.213 -0.353 Q 0.20600000000000002 -0.342 0.2 -0.331 Q 0.168 -0.271 0.149 -0.164 Q 0.14400000000000002 -0.133 0.14400000000000002 -0.114 Q 0.14400000000000002 -0.048 0.182 -0.028 Q 0.193 -0.022 0.209 -0.022 Q 0.248 -0.022 0.29 -0.058 Q 0.334 -0.096 0.341 -0.128 Z"/></g><g transform="translate(21.77714796850199,6.107350105263158)"><path fill="rgb(0,0,0)" stroke="none" paint-order="stroke fill markers" d=" M 0.687 -0.327 L 0.09 -0.327 Q 0.058 -0.327 0.056 -0.34700000000000003 Q 0.056 -0.367 0.089 -0.367 L 0.6880000000000001 -0.367 Q 0.72 -0.367 0.721 -0.34700000000000003 Q 0.721 -0.327 0.687 -0.327 M 0.6880000000000001 -0.133 L 0.089 -0.133 Q 0.057 -0.133 0.056 -0.153 Q 0.056 -0.17300000000000001 0.09 -0.17300000000000001 L 0.687 -0.17300000000000001 Q 0.719 -0.17300000000000001 0.721 -0.153 Q 0.721 -0.133 0.6880000000000001 -0.133 Z"/></g><g transform="translate(22.832925746279766,6.107350105263158)"><path fill="rgb(0,0,0)" stroke="none" paint-order="stroke fill markers" d=" M 0.661 -0.23 L 0.116 -0.23 Q 0.084 -0.23 0.083 -0.25 Q 0.083 -0.27 0.116 -0.27 L 0.661 -0.27 Q 0.6930000000000001 -0.27 0.6940000000000001 -0.25 Q 0.6940000000000001 -0.23 0.661 -0.23 Z"/></g><g transform="translate(23.610925746279765,6.107350105263158)"><path fill="rgb(0,0,0)" stroke="none" paint-order="stroke fill markers" d=" M 0.028 -0.165 L 0.028 -0.196 L 0.335 -0.665 Q 0.343 -0.677 0.355 -0.677 Q 0.369 -0.677 0.371 -0.666 L 0.371 -0.651 L 0.371 -0.196 L 0.47100000000000003 -0.196 L 0.47100000000000003 -0.165 L 0.371 -0.165 L 0.371 -0.078 Q 0.371 -0.047 0.383 -0.04 Q 0.397 -0.031 0.447 -0.031 L 0.468 -0.031 L 0.468 0 Q 0.427 -0.003 0.332 -0.003 Q 0.23800000000000002 -0.003 0.197 0 L 0.197 -0.031 L 0.218 -0.031 Q 0.28 -0.031 0.29 -0.048 Q 0.294 -0.055 0.294 -0.078 L 0.294 -0.165 L 0.028 -0.165 M 0.3 -0.196 L 0.3 -0.5690000000000001 L 0.056 -0.196 L 0.3 -0.196 Z"/></g></g><path fill="rgb(0,0,0)" stroke="none" paint-order="stroke fill markers" d=" M 100.00715297656252 245.72407692897653 C 99.54784165379927 245.72407692897653 99.10575471775185 245.97820934781308 98.88717247592879 246.41730936609238 C 98.57952607308745 247.03532636502385 98.83113115382926 247.78572481731527 99.44914815276073 248.09337122015663 L 415.2378262543255 405.291718585911 L 415.23782625432546 405.291718585911 L 413.9009228416467 407.9773636229864 L 431.0135245530357 411.74848582564255 L 417.68881584423656 400.36803601793935 L 416.3519124315578 403.05368105501475 L 416.35191243155776 403.05368105501475 L 100.56323432999304 245.85533368926045 C 100.38431734934088 245.76626952824216 100.19430531458835 245.72407692897653 100.00715297656252 245.72407692897653 Z" fill-opacity="0.6980392156862745"/><g transform="scale(19,19)"><g transform="translate(10.905027200625264,14.167684210526314)"><path fill="rgb(0,0,0)" stroke="none" paint-order="stroke fill markers" d=" M 0.463 -0.339 L 0.463 -0.339 L 0.464 -0.339 Q 0.491 -0.443 0.491 -0.51 Q 0.491 -0.637 0.40900000000000003 -0.678 Q 0.381 -0.6910000000000001 0.34800000000000003 -0.6910000000000001 Q 0.252 -0.6910000000000001 0.20400000000000001 -0.611 Q 0.25 -0.611 0.251 -0.5760000000000001 Q 0.251 -0.547 0.224 -0.531 Q 0.212 -0.523 0.197 -0.523 Q 0.163 -0.528 0.159 -0.558 Q 0.159 -0.589 0.189 -0.633 Q 0.246 -0.716 0.35000000000000003 -0.716 Q 0.457 -0.716 0.518 -0.628 L 0.519 -0.627 Q 0.5660000000000001 -0.558 0.5660000000000001 -0.457 Q 0.5660000000000001 -0.35000000000000003 0.513 -0.223 Q 0.438 -0.046 0.314 0.005 Q 0.271 0.022 0.224 0.022 Q 0.109 0.022 0.061 -0.074 Q 0.04 -0.115 0.04 -0.156 Q 0.04 -0.262 0.115 -0.34700000000000003 Q 0.122 -0.355 0.13 -0.363 Q 0.229 -0.454 0.334 -0.457 Q 0.418 -0.457 0.451 -0.379 Q 0.46 -0.36 0.463 -0.339 M 0.227 -0.006 L 0.227 -0.006 Q 0.334 -0.006 0.401 -0.14100000000000001 Q 0.442 -0.231 0.445 -0.303 Q 0.445 -0.392 0.388 -0.423 Q 0.365 -0.435 0.334 -0.435 Q 0.245 -0.435 0.183 -0.34600000000000003 Q 0.14300000000000002 -0.28700000000000003 0.121 -0.156 Q 0.117 -0.13 0.117 -0.11900000000000001 Q 0.117 -0.051000000000000004 0.164 -0.022 Q 0.189 -0.006 0.227 -0.006 Z"/></g><g transform="translate(11.492027200625264,14.167684210526314)"><path fill="rgb(0,0,0)" stroke="none" paint-order="stroke fill markers" d=" M 0.367 -0.4 L 0.367 -0.4 L 0.307 -0.083 Q 0.298 -0.021 0.271 0.059000000000000004 Q 0.261 0.088 0.251 0.108 Q 0.216 0.182 0.164 0.2 Q 0.151 0.20500000000000002 0.138 0.20500000000000002 Q 0.088 0.20500000000000002 0.064 0.171 Q 0.053 0.156 0.053 0.136 Q 0.053 0.096 0.08700000000000001 0.081 Q 0.097 0.076 0.108 0.076 Q 0.137 0.076 0.14400000000000002 0.101 Q 0.145 0.106 0.145 0.111 Q 0.145 0.145 0.115 0.159 Q 0.10400000000000001 0.164 0.09 0.165 Q 0.109 0.183 0.138 0.183 Q 0.182 0.183 0.20700000000000002 0.085 Q 0.212 0.062 0.219 0.025 L 0.225 -0.005 L 0.3 -0.4 L 0.234 -0.4 Q 0.209 -0.4 0.20700000000000002 -0.40800000000000003 L 0.20600000000000002 -0.40800000000000003 L 0.20600000000000002 -0.41200000000000003 Q 0.20600000000000002 -0.429 0.223 -0.431 L 0.223 -0.431 L 0.23600000000000002 -0.431 L 0.305 -0.431 Q 0.329 -0.556 0.338 -0.588 Q 0.368 -0.6880000000000001 0.444 -0.7030000000000001 Q 0.455 -0.705 0.465 -0.705 Q 0.517 -0.705 0.541 -0.671 L 0.541 -0.671 Q 0.552 -0.656 0.552 -0.636 Q 0.552 -0.596 0.518 -0.581 Q 0.508 -0.5760000000000001 0.497 -0.5760000000000001 Q 0.468 -0.5760000000000001 0.461 -0.601 Q 0.46 -0.606 0.46 -0.611 Q 0.46 -0.642 0.488 -0.657 Q 0.499 -0.664 0.514 -0.665 Q 0.495 -0.683 0.465 -0.683 Q 0.434 -0.683 0.418 -0.649 Q 0.41100000000000003 -0.635 0.394 -0.545 L 0.373 -0.431 L 0.456 -0.431 Q 0.481 -0.431 0.483 -0.42 Q 0.483 -0.402 0.467 -0.4 L 0.466 -0.4 L 0.453 -0.4 L 0.367 -0.4 Z"/></g><rect fill="rgb(0,0,0)" stroke="none" x="10.905027200625264" y="14.574192710526315" width="1.185" height="0.039999"/><g transform="translate(10.941027200625264,15.530143210526315)"><path fill="rgb(0,0,0)" stroke="none" paint-order="stroke fill markers" d=" M 0.463 -0.339 L 0.463 -0.339 L 0.464 -0.339 Q 0.491 -0.443 0.491 -0.51 Q 0.491 -0.637 0.40900000000000003 -0.678 Q 0.381 -0.6910000000000001 0.34800000000000003 -0.6910000000000001 Q 0.252 -0.6910000000000001 0.20400000000000001 -0.611 Q 0.25 -0.611 0.251 -0.5760000000000001 Q 0.251 -0.547 0.224 -0.531 Q 0.212 -0.523 0.197 -0.523 Q 0.163 -0.528 0.159 -0.558 Q 0.159 -0.589 0.189 -0.633 Q 0.246 -0.716 0.35000000000000003 -0.716 Q 0.457 -0.716 0.518 -0.628 L 0.519 -0.627 Q 0.5660000000000001 -0.558 0.5660000000000001 -0.457 Q 0.5660000000000001 -0.35000000000000003 0.513 -0.223 Q 0.438 -0.046 0.314 0.005 Q 0.271 0.022 0.224 0.022 Q 0.109 0.022 0.061 -0.074 Q 0.04 -0.115 0.04 -0.156 Q 0.04 -0.262 0.115 -0.34700000000000003 Q 0.122 -0.355 0.13 -0.363 Q 0.229 -0.454 0.334 -0.457 Q 0.418 -0.457 0.451 -0.379 Q 0.46 -0.36 0.463 -0.339 M 0.227 -0.006 L 0.227 -0.006 Q 0.334 -0.006 0.401 -0.14100000000000001 Q 0.442 -0.231 0.445 -0.303 Q 0.445 -0.392 0.388 -0.423 Q 0.365 -0.435 0.334 -0.435 Q 0.245 -0.435 0.183 -0.34600000000000003 Q 0.14300000000000002 -0.28700000000000003 0.121 -0.156 Q 0.117 -0.13 0.117 -0.11900000000000001 Q 0.117 -0.051000000000000004 0.164 -0.022 Q 0.189 -0.006 0.227 -0.006 Z"/></g><g transform="translate(11.528027200625264,15.530143210526315)"><path fill="rgb(0,0,0)" stroke="none" paint-order="stroke fill markers" d=" M 0.486 -0.381 L 0.39 0.001 Q 0.366 0.099 0.28300000000000003 0.16 Q 0.222 0.20500000000000002 0.156 0.20500000000000002 Q 0.089 0.20500000000000002 0.061 0.159 Q 0.05 0.14 0.05 0.11800000000000001 Q 0.05 0.067 0.091 0.055 Q 0.099 0.053 0.106 0.053 Q 0.138 0.053 0.14200000000000002 0.081 Q 0.14300000000000002 0.084 0.14300000000000002 0.088 Q 0.14300000000000002 0.111 0.123 0.129 Q 0.109 0.14100000000000001 0.08 0.14100000000000001 Q 0.098 0.183 0.156 0.183 Q 0.218 0.183 0.266 0.12 Q 0.305 0.068 0.328 -0.021 Q 0.329 -0.025 0.331 -0.034 Q 0.28600000000000003 0.011 0.23 0.011 Q 0.15 0.011 0.121 -0.048 Q 0.108 -0.074 0.108 -0.108 Q 0.108 -0.163 0.161 -0.305 Q 0.163 -0.311 0.166 -0.318 Q 0.183 -0.364 0.183 -0.388 Q 0.183 -0.42 0.158 -0.42 Q 0.10300000000000001 -0.42 0.068 -0.329 L 0.068 -0.328 Q 0.062 -0.313 0.057 -0.296 Q 0.046 -0.279 0.041 -0.278 Q 0.029 -0.278 0.029 -0.28800000000000003 Q 0.029 -0.306 0.05 -0.35100000000000003 Q 0.094 -0.442 0.161 -0.442 Q 0.214 -0.442 0.23500000000000001 -0.397 Q 0.243 -0.38 0.243 -0.36 Q 0.243 -0.339 0.223 -0.28800000000000003 Q 0.17200000000000001 -0.156 0.17200000000000001 -0.092 Q 0.17200000000000001 -0.011 0.234 -0.011 Q 0.292 -0.011 0.335 -0.073 Q 0.34500000000000003 -0.088 0.34700000000000003 -0.096 L 0.392 -0.276 Q 0.399 -0.309 0.41200000000000003 -0.356 Q 0.422 -0.399 0.426 -0.41000000000000003 Q 0.439 -0.431 0.461 -0.431 Q 0.486 -0.426 0.49 -0.404 Q 0.49 -0.395 0.486 -0.381 Z"/></g><g transform="translate(12.43072691587041,14.844192210526316)"><path fill="rgb(0,0,0)" stroke="none" paint-order="stroke fill markers" d=" M 0.687 -0.327 L 0.09 -0.327 Q 0.058 -0.327 0.056 -0.34700000000000003 Q 0.056 -0.367 0.089 -0.367 L 0.6880000000000001 -0.367 Q 0.72 -0.367 0.721 -0.34700000000000003 Q 0.721 -0.327 0.687 -0.327 M 0.6880000000000001 -0.133 L 0.089 -0.133 Q 0.057 -0.133 0.056 -0.153 Q 0.056 -0.17300000000000001 0.09 -0.17300000000000001 L 0.687 -0.17300000000000001 Q 0.719 -0.17300000000000001 0.721 -0.153 Q 0.721 -0.133 0.6880000000000001 -0.133 Z"/></g><g transform="translate(13.48650469364819,14.844192210526316)"><path fill="rgb(0,0,0)" stroke="none" paint-order="stroke fill markers" d=" M 0.661 -0.23 L 0.116 -0.23 Q 0.084 -0.23 0.083 -0.25 Q 0.083 -0.27 0.116 -0.27 L 0.661 -0.27 Q 0.6930000000000001 -0.27 0.6940000000000001 -0.25 Q 0.6940000000000001 -0.23 0.661 -0.23 Z"/></g><g transform="translate(14.26450469364819,14.844192210526316)"><path fill="rgb(0,0,0)" stroke="none" paint-order="stroke fill markers" d=" M 0.29 -0.352 L 0.29 -0.352 Q 0.39 -0.332 0.434 -0.254 Q 0.457 -0.215 0.457 -0.171 Q 0.457 -0.08600000000000001 0.387 -0.028 Q 0.326 0.022 0.244 0.022 Q 0.145 0.022 0.085 -0.037 Q 0.042 -0.079 0.042 -0.135 Q 0.042 -0.182 0.084 -0.191 Q 0.091 -0.193 0.098 -0.193 Q 0.136 -0.193 0.149 -0.161 Q 0.153 -0.148 0.154 -0.137 Q 0.154 -0.097 0.11800000000000001 -0.085 Q 0.10400000000000001 -0.08 0.088 -0.082 Q 0.125 -0.02 0.216 -0.008 Q 0.229 -0.006 0.241 -0.006 Q 0.305 -0.006 0.335 -0.069 Q 0.354 -0.109 0.354 -0.171 Q 0.354 -0.304 0.274 -0.331 Q 0.256 -0.337 0.23500000000000001 -0.337 L 0.191 -0.337 Q 0.169 -0.337 0.167 -0.34800000000000003 Q 0.167 -0.358 0.182 -0.36 Q 0.197 -0.36 0.221 -0.363 Q 0.272 -0.365 0.301 -0.402 L 0.301 -0.403 L 0.302 -0.404 L 0.303 -0.405 L 0.304 -0.405 L 0.31 -0.41500000000000004 Q 0.338 -0.462 0.338 -0.529 Q 0.338 -0.622 0.266 -0.638 Q 0.254 -0.641 0.242 -0.641 Q 0.17200000000000001 -0.641 0.128 -0.601 Q 0.117 -0.591 0.109 -0.579 Q 0.171 -0.579 0.171 -0.529 Q 0.171 -0.493 0.14 -0.481 Q 0.131 -0.47800000000000004 0.12 -0.47800000000000004 Q 0.081 -0.47800000000000004 0.07100000000000001 -0.513 L 0.07100000000000001 -0.513 L 0.07100000000000001 -0.514 Q 0.069 -0.522 0.069 -0.53 Q 0.069 -0.597 0.135 -0.637 Q 0.183 -0.666 0.246 -0.666 Q 0.337 -0.666 0.393 -0.612 L 0.395 -0.61 Q 0.43 -0.5740000000000001 0.43 -0.528 Q 0.43 -0.445 0.359 -0.389 Q 0.328 -0.365 0.29 -0.352 Z"/></g></g><path fill="rgb(0,0,0)" stroke="none" paint-order="stroke fill markers" d=" M 478.0145214577894 245.7109945173413 C 477.4703409051306 245.7109945173413 476.9697621117205 246.06915246397602 476.81308602745725 246.618457100757 L 434.4743467174923 395.0576137709533 L 431.58940323141815 394.2347522503085 L 431.0135245530357 411.74848582564255 L 439.76340977529503 396.56619322546885 L 436.8784663296218 395.7433317163474 L 436.87846628593405 395.7433317163474 C 436.87846628702965 395.7433317125063 436.87846628812525 395.74333170866515 436.87846628922085 395.743331704824 L 479.2172055991858 247.30417503462772 C 479.4065613779669 246.64029574651002 479.02188406837456 245.94861206060924 478.35800478025686 245.7592562818281 C 478.2434301289202 245.7265765873102 478.1280273212215 245.7109945173413 478.0145214577894 245.7109945173413 Z" fill-opacity="0.6980392156862745"/><g transform="scale(19,19)"><g transform="translate(24.75363246378316,17.220315789473684)"><path fill="rgb(0,0,0)" stroke="none" paint-order="stroke fill markers" d=" M 0.463 -0.339 L 0.463 -0.339 L 0.464 -0.339 Q 0.491 -0.443 0.491 -0.51 Q 0.491 -0.637 0.40900000000000003 -0.678 Q 0.381 -0.6910000000000001 0.34800000000000003 -0.6910000000000001 Q 0.252 -0.6910000000000001 0.20400000000000001 -0.611 Q 0.25 -0.611 0.251 -0.5760000000000001 Q 0.251 -0.547 0.224 -0.531 Q 0.212 -0.523 0.197 -0.523 Q 0.163 -0.528 0.159 -0.558 Q 0.159 -0.589 0.189 -0.633 Q 0.246 -0.716 0.35000000000000003 -0.716 Q 0.457 -0.716 0.518 -0.628 L 0.519 -0.627 Q 0.5660000000000001 -0.558 0.5660000000000001 -0.457 Q 0.5660000000000001 -0.35000000000000003 0.513 -0.223 Q 0.438 -0.046 0.314 0.005 Q 0.271 0.022 0.224 0.022 Q 0.109 0.022 0.061 -0.074 Q 0.04 -0.115 0.04 -0.156 Q 0.04 -0.262 0.115 -0.34700000000000003 Q 0.122 -0.355 0.13 -0.363 Q 0.229 -0.454 0.334 -0.457 Q 0.418 -0.457 0.451 -0.379 Q 0.46 -0.36 0.463 -0.339 M 0.227 -0.006 L 0.227 -0.006 Q 0.334 -0.006 0.401 -0.14100000000000001 Q 0.442 -0.231 0.445 -0.303 Q 0.445 -0.392 0.388 -0.423 Q 0.365 -0.435 0.334 -0.435 Q 0.245 -0.435 0.183 -0.34600000000000003 Q 0.14300000000000002 -0.28700000000000003 0.121 -0.156 Q 0.117 -0.13 0.117 -0.11900000000000001 Q 0.117 -0.051000000000000004 0.164 -0.022 Q 0.189 -0.006 0.227 -0.006 Z"/></g><g transform="translate(25.34063246378316,17.220315789473684)"><path fill="rgb(0,0,0)" stroke="none" paint-order="stroke fill markers" d=" M 0.47100000000000003 -0.377 L 0.47100000000000003 -0.377 L 0.36 0.067 Q 0.34500000000000003 0.127 0.28200000000000003 0.168 Q 0.224 0.20500000000000002 0.148 0.20500000000000002 Q 0.025 0.20500000000000002 0.016 0.155 Q 0.015 0.15 0.015 0.14400000000000002 Q 0.015 0.10300000000000001 0.052000000000000005 0.089 Q 0.061 0.08600000000000001 0.069 0.08600000000000001 Q 0.1 0.08600000000000001 0.106 0.113 Q 0.107 0.117 0.107 0.121 Q 0.107 0.153 0.077 0.169 Q 0.07200000000000001 0.171 0.066 0.17300000000000001 Q 0.097 0.183 0.146 0.183 Q 0.244 0.183 0.29 0.075 L 0.323 -0.057 L 0.322 -0.058 Q 0.277 -0.008 0.221 -0.001 Q 0.213 0 0.20600000000000002 0 Q 0.136 0 0.098 -0.061 Q 0.073 -0.10200000000000001 0.073 -0.158 Q 0.073 -0.265 0.149 -0.354 Q 0.219 -0.436 0.3 -0.442 L 0.311 -0.442 Q 0.365 -0.442 0.398 -0.391 L 0.404 -0.379 Q 0.41300000000000003 -0.417 0.445 -0.422 Q 0.47100000000000003 -0.422 0.47400000000000003 -0.395 L 0.47100000000000003 -0.377 M 0.341 -0.128 L 0.341 -0.128 L 0.389 -0.319 Q 0.392 -0.331 0.392 -0.334 Q 0.392 -0.354 0.375 -0.382 L 0.375 -0.382 Q 0.363 -0.402 0.34500000000000003 -0.41200000000000003 Q 0.33 -0.42 0.312 -0.42 Q 0.26 -0.42 0.213 -0.353 Q 0.20600000000000002 -0.342 0.2 -0.331 Q 0.168 -0.271 0.149 -0.164 Q 0.14400000000000002 -0.133 0.14400000000000002 -0.114 Q 0.14400000000000002 -0.048 0.182 -0.028 Q 0.193 -0.022 0.209 -0.022 Q 0.248 -0.022 0.29 -0.058 Q 0.334 -0.096 0.341 -0.128 Z"/></g><rect fill="rgb(0,0,0)" stroke="none" x="24.74713246378316" y="17.62682428947368" width="1.113" height="0.039999"/><g transform="translate(24.74713246378316,18.58277478947368)"><path fill="rgb(0,0,0)" stroke="none" paint-order="stroke fill markers" d=" M 0.463 -0.339 L 0.463 -0.339 L 0.464 -0.339 Q 0.491 -0.443 0.491 -0.51 Q 0.491 -0.637 0.40900000000000003 -0.678 Q 0.381 -0.6910000000000001 0.34800000000000003 -0.6910000000000001 Q 0.252 -0.6910000000000001 0.20400000000000001 -0.611 Q 0.25 -0.611 0.251 -0.5760000000000001 Q 0.251 -0.547 0.224 -0.531 Q 0.212 -0.523 0.197 -0.523 Q 0.163 -0.528 0.159 -0.558 Q 0.159 -0.589 0.189 -0.633 Q 0.246 -0.716 0.35000000000000003 -0.716 Q 0.457 -0.716 0.518 -0.628 L 0.519 -0.627 Q 0.5660000000000001 -0.558 0.5660000000000001 -0.457 Q 0.5660000000000001 -0.35000000000000003 0.513 -0.223 Q 0.438 -0.046 0.314 0.005 Q 0.271 0.022 0.224 0.022 Q 0.109 0.022 0.061 -0.074 Q 0.04 -0.115 0.04 -0.156 Q 0.04 -0.262 0.115 -0.34700000000000003 Q 0.122 -0.355 0.13 -0.363 Q 0.229 -0.454 0.334 -0.457 Q 0.418 -0.457 0.451 -0.379 Q 0.46 -0.36 0.463 -0.339 M 0.227 -0.006 L 0.227 -0.006 Q 0.334 -0.006 0.401 -0.14100000000000001 Q 0.442 -0.231 0.445 -0.303 Q 0.445 -0.392 0.388 -0.423 Q 0.365 -0.435 0.334 -0.435 Q 0.245 -0.435 0.183 -0.34600000000000003 Q 0.14300000000000002 -0.28700000000000003 0.121 -0.156 Q 0.117 -0.13 0.117 -0.11900000000000001 Q 0.117 -0.051000000000000004 0.164 -0.022 Q 0.189 -0.006 0.227 -0.006 Z"/></g><g transform="translate(25.33413246378316,18.58277478947368)"><path fill="rgb(0,0,0)" stroke="none" paint-order="stroke fill markers" d=" M 0.486 -0.381 L 0.39 0.001 Q 0.366 0.099 0.28300000000000003 0.16 Q 0.222 0.20500000000000002 0.156 0.20500000000000002 Q 0.089 0.20500000000000002 0.061 0.159 Q 0.05 0.14 0.05 0.11800000000000001 Q 0.05 0.067 0.091 0.055 Q 0.099 0.053 0.106 0.053 Q 0.138 0.053 0.14200000000000002 0.081 Q 0.14300000000000002 0.084 0.14300000000000002 0.088 Q 0.14300000000000002 0.111 0.123 0.129 Q 0.109 0.14100000000000001 0.08 0.14100000000000001 Q 0.098 0.183 0.156 0.183 Q 0.218 0.183 0.266 0.12 Q 0.305 0.068 0.328 -0.021 Q 0.329 -0.025 0.331 -0.034 Q 0.28600000000000003 0.011 0.23 0.011 Q 0.15 0.011 0.121 -0.048 Q 0.108 -0.074 0.108 -0.108 Q 0.108 -0.163 0.161 -0.305 Q 0.163 -0.311 0.166 -0.318 Q 0.183 -0.364 0.183 -0.388 Q 0.183 -0.42 0.158 -0.42 Q 0.10300000000000001 -0.42 0.068 -0.329 L 0.068 -0.328 Q 0.062 -0.313 0.057 -0.296 Q 0.046 -0.279 0.041 -0.278 Q 0.029 -0.278 0.029 -0.28800000000000003 Q 0.029 -0.306 0.05 -0.35100000000000003 Q 0.094 -0.442 0.161 -0.442 Q 0.214 -0.442 0.23500000000000001 -0.397 Q 0.243 -0.38 0.243 -0.36 Q 0.243 -0.339 0.223 -0.28800000000000003 Q 0.17200000000000001 -0.156 0.17200000000000001 -0.092 Q 0.17200000000000001 -0.011 0.234 -0.011 Q 0.292 -0.011 0.335 -0.073 Q 0.34500000000000003 -0.088 0.34700000000000003 -0.096 L 0.392 -0.276 Q 0.399 -0.309 0.41200000000000003 -0.356 Q 0.422 -0.399 0.426 -0.41000000000000003 Q 0.439 -0.431 0.461 -0.431 Q 0.486 -0.426 0.49 -0.404 Q 0.49 -0.395 0.486 -0.381 Z"/></g><g transform="translate(26.200832179028307,17.896823789473686)"><path fill="rgb(0,0,0)" stroke="none" paint-order="stroke fill markers" d=" M 0.687 -0.327 L 0.09 -0.327 Q 0.058 -0.327 0.056 -0.34700000000000003 Q 0.056 -0.367 0.089 -0.367 L 0.6880000000000001 -0.367 Q 0.72 -0.367 0.721 -0.34700000000000003 Q 0.721 -0.327 0.687 -0.327 M 0.6880000000000001 -0.133 L 0.089 -0.133 Q 0.057 -0.133 0.056 -0.153 Q 0.056 -0.17300000000000001 0.09 -0.17300000000000001 L 0.687 -0.17300000000000001 Q 0.719 -0.17300000000000001 0.721 -0.153 Q 0.721 -0.133 0.6880000000000001 -0.133 Z"/></g><g transform="translate(27.256609956806084,17.896823789473686)"><path fill="rgb(0,0,0)" stroke="none" paint-order="stroke fill markers" d=" M 0.294 -0.64 L 0.294 -0.079 Q 0.294 -0.049 0.306 -0.041 Q 0.323 -0.031 0.387 -0.031 L 0.419 -0.031 L 0.419 0 Q 0.384 -0.003 0.257 -0.003 Q 0.13 -0.003 0.095 0 L 0.095 -0.031 L 0.127 -0.031 Q 0.20400000000000001 -0.031 0.215 -0.049 L 0.216 -0.05 Q 0.22 -0.058 0.22 -0.079 L 0.22 -0.597 Q 0.168 -0.5710000000000001 0.089 -0.5710000000000001 L 0.089 -0.602 Q 0.209 -0.602 0.271 -0.666 Q 0.29 -0.666 0.293 -0.659 L 0.293 -0.659 L 0.293 -0.658 Q 0.294 -0.655 0.294 -0.64 Z"/></g></g><path fill="rgb(0,0,0)" stroke="none" paint-order="stroke fill markers" d=" M 478.0141257383695 245.7110527978581 C 477.8219970513957 245.7110527978581 477.6269946217505 245.75549528661045 477.44431490172 245.84926747596617 L 171.5534682757318 402.86754179347366 L 170.18347408788824 400.1986251733308 L 157.000438339857 411.74289078298 L 174.06512428677834 407.7605555970689 L 172.69513009893478 405.09163897692605 L 478.585976724923 248.07336465941856 C 479.20014420320416 247.75810345220904 479.4424556122572 247.00465263437206 479.1271944050477 246.39048515609088 C 478.9057053871939 245.9589973978402 478.46793186651627 245.7110527978581 478.0141257383695 245.7110527978581 Z" fill-opacity="0.6980392156862745"/><g transform="scale(19,19)"><g transform="translate(17.93452720062526,14.115052631578944)"><path fill="rgb(0,0,0)" stroke="none" paint-order="stroke fill markers" d=" M 0.463 -0.339 L 0.463 -0.339 L 0.464 -0.339 Q 0.491 -0.443 0.491 -0.51 Q 0.491 -0.637 0.40900000000000003 -0.678 Q 0.381 -0.6910000000000001 0.34800000000000003 -0.6910000000000001 Q 0.252 -0.6910000000000001 0.20400000000000001 -0.611 Q 0.25 -0.611 0.251 -0.5760000000000001 Q 0.251 -0.547 0.224 -0.531 Q 0.212 -0.523 0.197 -0.523 Q 0.163 -0.528 0.159 -0.558 Q 0.159 -0.589 0.189 -0.633 Q 0.246 -0.716 0.35000000000000003 -0.716 Q 0.457 -0.716 0.518 -0.628 L 0.519 -0.627 Q 0.5660000000000001 -0.558 0.5660000000000001 -0.457 Q 0.5660000000000001 -0.35000000000000003 0.513 -0.223 Q 0.438 -0.046 0.314 0.005 Q 0.271 0.022 0.224 0.022 Q 0.109 0.022 0.061 -0.074 Q 0.04 -0.115 0.04 -0.156 Q 0.04 -0.262 0.115 -0.34700000000000003 Q 0.122 -0.355 0.13 -0.363 Q 0.229 -0.454 0.334 -0.457 Q 0.418 -0.457 0.451 -0.379 Q 0.46 -0.36 0.463 -0.339 M 0.227 -0.006 L 0.227 -0.006 Q 0.334 -0.006 0.401 -0.14100000000000001 Q 0.442 -0.231 0.445 -0.303 Q 0.445 -0.392 0.388 -0.423 Q 0.365 -0.435 0.334 -0.435 Q 0.245 -0.435 0.183 -0.34600000000000003 Q 0.14300000000000002 -0.28700000000000003 0.121 -0.156 Q 0.117 -0.13 0.117 -0.11900000000000001 Q 0.117 -0.051000000000000004 0.164 -0.022 Q 0.189 -0.006 0.227 -0.006 Z"/></g><g transform="translate(18.52152720062526,14.115052631578944)"><path fill="rgb(0,0,0)" stroke="none" paint-order="stroke fill markers" d=" M 0.47100000000000003 -0.377 L 0.47100000000000003 -0.377 L 0.36 0.067 Q 0.34500000000000003 0.127 0.28200000000000003 0.168 Q 0.224 0.20500000000000002 0.148 0.20500000000000002 Q 0.025 0.20500000000000002 0.016 0.155 Q 0.015 0.15 0.015 0.14400000000000002 Q 0.015 0.10300000000000001 0.052000000000000005 0.089 Q 0.061 0.08600000000000001 0.069 0.08600000000000001 Q 0.1 0.08600000000000001 0.106 0.113 Q 0.107 0.117 0.107 0.121 Q 0.107 0.153 0.077 0.169 Q 0.07200000000000001 0.171 0.066 0.17300000000000001 Q 0.097 0.183 0.146 0.183 Q 0.244 0.183 0.29 0.075 L 0.323 -0.057 L 0.322 -0.058 Q 0.277 -0.008 0.221 -0.001 Q 0.213 0 0.20600000000000002 0 Q 0.136 0 0.098 -0.061 Q 0.073 -0.10200000000000001 0.073 -0.158 Q 0.073 -0.265 0.149 -0.354 Q 0.219 -0.436 0.3 -0.442 L 0.311 -0.442 Q 0.365 -0.442 0.398 -0.391 L 0.404 -0.379 Q 0.41300000000000003 -0.417 0.445 -0.422 Q 0.47100000000000003 -0.422 0.47400000000000003 -0.395 L 0.47100000000000003 -0.377 M 0.341 -0.128 L 0.341 -0.128 L 0.389 -0.319 Q 0.392 -0.331 0.392 -0.334 Q 0.392 -0.354 0.375 -0.382 L 0.375 -0.382 Q 0.363 -0.402 0.34500000000000003 -0.41200000000000003 Q 0.33 -0.42 0.312 -0.42 Q 0.26 -0.42 0.213 -0.353 Q 0.20600000000000002 -0.342 0.2 -0.331 Q 0.168 -0.271 0.149 -0.164 Q 0.14400000000000002 -0.133 0.14400000000000002 -0.114 Q 0.14400000000000002 -0.048 0.182 -0.028 Q 0.193 -0.022 0.209 -0.022 Q 0.248 -0.022 0.29 -0.058 Q 0.334 -0.096 0.341 -0.128 Z"/></g><rect fill="rgb(0,0,0)" stroke="none" x="17.905027200625263" y="14.521561131578945" width="1.1590000000000003" height="0.039999"/><g transform="translate(17.905027200625263,15.477511631578945)"><path fill="rgb(0,0,0)" stroke="none" paint-order="stroke fill markers" d=" M 0.463 -0.339 L 0.463 -0.339 L 0.464 -0.339 Q 0.491 -0.443 0.491 -0.51 Q 0.491 -0.637 0.40900000000000003 -0.678 Q 0.381 -0.6910000000000001 0.34800000000000003 -0.6910000000000001 Q 0.252 -0.6910000000000001 0.20400000000000001 -0.611 Q 0.25 -0.611 0.251 -0.5760000000000001 Q 0.251 -0.547 0.224 -0.531 Q 0.212 -0.523 0.197 -0.523 Q 0.163 -0.528 0.159 -0.558 Q 0.159 -0.589 0.189 -0.633 Q 0.246 -0.716 0.35000000000000003 -0.716 Q 0.457 -0.716 0.518 -0.628 L 0.519 -0.627 Q 0.5660000000000001 -0.558 0.5660000000000001 -0.457 Q 0.5660000000000001 -0.35000000000000003 0.513 -0.223 Q 0.438 -0.046 0.314 0.005 Q 0.271 0.022 0.224 0.022 Q 0.109 0.022 0.061 -0.074 Q 0.04 -0.115 0.04 -0.156 Q 0.04 -0.262 0.115 -0.34700000000000003 Q 0.122 -0.355 0.13 -0.363 Q 0.229 -0.454 0.334 -0.457 Q 0.418 -0.457 0.451 -0.379 Q 0.46 -0.36 0.463 -0.339 M 0.227 -0.006 L 0.227 -0.006 Q 0.334 -0.006 0.401 -0.14100000000000001 Q 0.442 -0.231 0.445 -0.303 Q 0.445 -0.392 0.388 -0.423 Q 0.365 -0.435 0.334 -0.435 Q 0.245 -0.435 0.183 -0.34600000000000003 Q 0.14300000000000002 -0.28700000000000003 0.121 -0.156 Q 0.117 -0.13 0.117 -0.11900000000000001 Q 0.117 -0.051000000000000004 0.164 -0.022 Q 0.189 -0.006 0.227 -0.006 Z"/></g><g transform="translate(18.492027200625262,15.477511631578945)"><path fill="rgb(0,0,0)" stroke="none" paint-order="stroke fill markers" d=" M 0.334 -0.302 L 0.3 -0.165 Q 0.28300000000000003 -0.097 0.28300000000000003 -0.077 Q 0.28300000000000003 -0.025 0.32 -0.014 Q 0.328 -0.011 0.338 -0.011 Q 0.388 -0.011 0.429 -0.061 Q 0.456 -0.093 0.47100000000000003 -0.14200000000000002 Q 0.47400000000000003 -0.153 0.484 -0.153 Q 0.496 -0.153 0.496 -0.14300000000000002 Q 0.496 -0.11800000000000001 0.465 -0.07100000000000001 Q 0.41100000000000003 0.011 0.336 0.011 Q 0.268 0.011 0.23700000000000002 -0.046 Q 0.231 -0.055 0.228 -0.065 Q 0.20400000000000001 -0.017 0.162 0.002 Q 0.14300000000000002 0.011 0.123 0.011 Q 0.063 0.011 0.039 -0.024 Q 0.029 -0.037 0.029 -0.055 Q 0.029 -0.092 0.061 -0.107 Q 0.07200000000000001 -0.113 0.084 -0.113 Q 0.114 -0.113 0.12 -0.088 Q 0.121 -0.083 0.121 -0.078 Q 0.121 -0.044 0.08700000000000001 -0.028 Q 0.081 -0.025 0.074 -0.024 Q 0.095 -0.011 0.124 -0.011 Q 0.177 -0.011 0.20800000000000002 -0.082 Q 0.214 -0.097 0.219 -0.115 Q 0.273 -0.319 0.273 -0.353 Q 0.267 -0.41500000000000004 0.219 -0.42 Q 0.167 -0.42 0.124 -0.367 L 0.124 -0.366 Q 0.124 -0.365 0.123 -0.365 Q 0.108 -0.34500000000000003 0.096 -0.319 Q 0.091 -0.307 0.08700000000000001 -0.295 L 0.085 -0.289 Q 0.083 -0.278 0.07200000000000001 -0.278 Q 0.06 -0.278 0.06 -0.28800000000000003 Q 0.06 -0.313 0.092 -0.36 Q 0.146 -0.442 0.221 -0.442 Q 0.298 -0.442 0.329 -0.366 Q 0.361 -0.428 0.41400000000000003 -0.44 Q 0.424 -0.442 0.434 -0.442 Q 0.493 -0.442 0.517 -0.40900000000000003 Q 0.527 -0.395 0.527 -0.376 Q 0.527 -0.335 0.49 -0.321 Q 0.481 -0.318 0.47300000000000003 -0.318 Q 0.442 -0.318 0.436 -0.34500000000000003 Q 0.435 -0.34900000000000003 0.435 -0.353 Q 0.435 -0.383 0.464 -0.4 Q 0.47300000000000003 -0.405 0.483 -0.40700000000000003 Q 0.462 -0.42 0.433 -0.42 Q 0.365 -0.42 0.337 -0.314 Q 0.335 -0.308 0.334 -0.302 Z"/></g><g transform="translate(19.40472691587041,14.791560631578946)"><path fill="rgb(0,0,0)" stroke="none" paint-order="stroke fill markers" d=" M 0.687 -0.327 L 0.09 -0.327 Q 0.058 -0.327 0.056 -0.34700000000000003 Q 0.056 -0.367 0.089 -0.367 L 0.6880000000000001 -0.367 Q 0.72 -0.367 0.721 -0.34700000000000003 Q 0.721 -0.327 0.687 -0.327 M 0.6880000000000001 -0.133 L 0.089 -0.133 Q 0.057 -0.133 0.056 -0.153 Q 0.056 -0.17300000000000001 0.09 -0.17300000000000001 L 0.687 -0.17300000000000001 Q 0.719 -0.17300000000000001 0.721 -0.153 Q 0.721 -0.133 0.6880000000000001 -0.133 Z"/></g><g transform="translate(20.460504693648186,14.791560631578946)"><path fill="rgb(0,0,0)" stroke="none" paint-order="stroke fill markers" d=" M 0.449 -0.17400000000000002 L 0.449 -0.17400000000000002 L 0.421 0 L 0.05 0 Q 0.05 -0.025 0.056 -0.032 L 0.061 -0.037 L 0.253 -0.251 Q 0.358 -0.369 0.358 -0.47200000000000003 Q 0.358 -0.561 0.304 -0.607 L 0.303 -0.608 L 0.302 -0.608 Q 0.27 -0.635 0.224 -0.635 Q 0.152 -0.635 0.109 -0.5730000000000001 Q 0.097 -0.555 0.089 -0.533 Q 0.092 -0.534 0.10200000000000001 -0.534 Q 0.14200000000000002 -0.534 0.153 -0.498 L 0.153 -0.497 Q 0.155 -0.49 0.155 -0.482 Q 0.155 -0.442 0.117 -0.431 Q 0.109 -0.429 0.10300000000000001 -0.429 Q 0.066 -0.429 0.054 -0.46 Q 0.05 -0.47100000000000003 0.05 -0.485 Q 0.05 -0.562 0.109 -0.617 Q 0.162 -0.666 0.23700000000000002 -0.666 Q 0.34700000000000003 -0.666 0.40800000000000003 -0.592 Q 0.443 -0.549 0.448 -0.49 Q 0.449 -0.481 0.449 -0.47200000000000003 Q 0.449 -0.399 0.394 -0.333 Q 0.365 -0.299 0.304 -0.243 L 0.243 -0.189 L 0.233 -0.18 L 0.127 -0.077 L 0.307 -0.077 Q 0.395 -0.077 0.402 -0.085 Q 0.41200000000000003 -0.099 0.424 -0.17400000000000002 L 0.449 -0.17400000000000002 Z"/></g></g><path fill="rgb(0,0,0)" stroke="none" paint-order="stroke fill markers" d=" M 100.0060847090131 245.72401237371463 C 99.86370601663083 245.72401237371463 99.71890683820489 245.7485214937707 99.5774024953624 245.8001973494131 C 98.92893453677176 246.03701083473598 98.59522265075857 246.75467324213238 98.83203613608144 247.403141200723 L 152.67059311991386 394.8296236629572 L 152.67059311991392 394.8296236629572 L 149.8526208672048 395.858716653392 L 159.67627517100613 410.3693443489607 L 157.83687558321378 392.94295318049353 L 155.01890333050497 393.9720461709282 L 155.01890333050466 393.9720461709282 L 101.18034634667232 246.54556370869406 C 100.99520871699185 246.0386000929459 100.51618083218271 245.72401237371463 100.0060847090131 245.72401237371463 Z" fill-opacity="0.6980392156862745"/><g transform="scale(19,19)"><g transform="translate(13.105263157894736,2.325578947368421)"><path fill="rgb(0,0,0)" stroke="none" paint-order="stroke fill markers" d=" M 0.28700000000000003 -0.683 L 0.209 -0.365 Q 0.271 -0.442 0.357 -0.442 Q 0.446 -0.442 0.467 -0.373 L 0.467 -0.372 Q 0.47200000000000003 -0.355 0.47200000000000003 -0.335 Q 0.47200000000000003 -0.279 0.41100000000000003 -0.115 Q 0.393 -0.07100000000000001 0.393 -0.044 Q 0.393 -0.011 0.417 -0.011 Q 0.47900000000000004 -0.011 0.515 -0.121 L 0.519 -0.135 Q 0.524 -0.151 0.529 -0.152 L 0.529 -0.153 L 0.534 -0.153 Q 0.546 -0.153 0.546 -0.14300000000000002 Q 0.546 -0.126 0.525 -0.08 Q 0.482 0.011 0.41500000000000004 0.011 Q 0.364 0.011 0.342 -0.032 Q 0.333 -0.05 0.333 -0.07100000000000001 Q 0.333 -0.089 0.34600000000000003 -0.126 Q 0.40800000000000003 -0.28400000000000003 0.40800000000000003 -0.35000000000000003 Q 0.40800000000000003 -0.42 0.354 -0.42 Q 0.306 -0.42 0.258 -0.385 Q 0.221 -0.356 0.193 -0.299 L 0.19 -0.293 Q 0.186 -0.269 0.179 -0.248 Q 0.17400000000000002 -0.225 0.162 -0.181 L 0.14 -0.091 L 0.121 -0.015 Q 0.114 0.006 0.09 0.01 Q 0.08700000000000001 0.011 0.084 0.011 Q 0.06 0.011 0.056 -0.01 Q 0.055 -0.014 0.055 -0.017 Q 0.055 -0.025 0.059000000000000004 -0.039 L 0.20400000000000001 -0.615 L 0.20700000000000002 -0.635 Q 0.20700000000000002 -0.646 0.193 -0.649 L 0.193 -0.649 Q 0.181 -0.652 0.157 -0.652 Q 0.135 -0.652 0.133 -0.664 Q 0.133 -0.681 0.152 -0.684 L 0.274 -0.6940000000000001 Q 0.28700000000000003 -0.6940000000000001 0.28700000000000003 -0.683 Z"/></g><g transform="translate(13.959040935672515,2.325578947368421)"><path fill="rgb(0,0,0)" stroke="none" paint-order="stroke fill markers" d=" M 0.687 -0.327 L 0.09 -0.327 Q 0.058 -0.327 0.056 -0.34700000000000003 Q 0.056 -0.367 0.089 -0.367 L 0.6880000000000001 -0.367 Q 0.72 -0.367 0.721 -0.34700000000000003 Q 0.721 -0.327 0.687 -0.327 M 0.6880000000000001 -0.133 L 0.089 -0.133 Q 0.057 -0.133 0.056 -0.153 Q 0.056 -0.17300000000000001 0.09 -0.17300000000000001 L 0.687 -0.17300000000000001 Q 0.719 -0.17300000000000001 0.721 -0.153 Q 0.721 -0.133 0.6880000000000001 -0.133 Z"/></g><g transform="translate(15.014818713450294,2.325578947368421)"><path fill="rgb(0,0,0)" stroke="none" paint-order="stroke fill markers" d=" M 0.367 -0.4 L 0.367 -0.4 L 0.307 -0.083 Q 0.298 -0.021 0.271 0.059000000000000004 Q 0.261 0.088 0.251 0.108 Q 0.216 0.182 0.164 0.2 Q 0.151 0.20500000000000002 0.138 0.20500000000000002 Q 0.088 0.20500000000000002 0.064 0.171 Q 0.053 0.156 0.053 0.136 Q 0.053 0.096 0.08700000000000001 0.081 Q 0.097 0.076 0.108 0.076 Q 0.137 0.076 0.14400000000000002 0.101 Q 0.145 0.106 0.145 0.111 Q 0.145 0.145 0.115 0.159 Q 0.10400000000000001 0.164 0.09 0.165 Q 0.109 0.183 0.138 0.183 Q 0.182 0.183 0.20700000000000002 0.085 Q 0.212 0.062 0.219 0.025 L 0.225 -0.005 L 0.3 -0.4 L 0.234 -0.4 Q 0.209 -0.4 0.20700000000000002 -0.40800000000000003 L 0.20600000000000002 -0.40800000000000003 L 0.20600000000000002 -0.41200000000000003 Q 0.20600000000000002 -0.429 0.223 -0.431 L 0.223 -0.431 L 0.23600000000000002 -0.431 L 0.305 -0.431 Q 0.329 -0.556 0.338 -0.588 Q 0.368 -0.6880000000000001 0.444 -0.7030000000000001 Q 0.455 -0.705 0.465 -0.705 Q 0.517 -0.705 0.541 -0.671 L 0.541 -0.671 Q 0.552 -0.656 0.552 -0.636 Q 0.552 -0.596 0.518 -0.581 Q 0.508 -0.5760000000000001 0.497 -0.5760000000000001 Q 0.468 -0.5760000000000001 0.461 -0.601 Q 0.46 -0.606 0.46 -0.611 Q 0.46 -0.642 0.488 -0.657 Q 0.499 -0.664 0.514 -0.665 Q 0.495 -0.683 0.465 -0.683 Q 0.434 -0.683 0.418 -0.649 Q 0.41100000000000003 -0.635 0.394 -0.545 L 0.373 -0.431 L 0.456 -0.431 Q 0.481 -0.431 0.483 -0.42 Q 0.483 -0.402 0.467 -0.4 L 0.466 -0.4 L 0.453 -0.4 L 0.367 -0.4 Z"/></g><g transform="translate(15.612818713450295,2.325578947368421)"><path fill="rgb(0,0,0)" stroke="none" paint-order="stroke fill markers" d=" M 0.47100000000000003 -0.377 L 0.47100000000000003 -0.377 L 0.36 0.067 Q 0.34500000000000003 0.127 0.28200000000000003 0.168 Q 0.224 0.20500000000000002 0.148 0.20500000000000002 Q 0.025 0.20500000000000002 0.016 0.155 Q 0.015 0.15 0.015 0.14400000000000002 Q 0.015 0.10300000000000001 0.052000000000000005 0.089 Q 0.061 0.08600000000000001 0.069 0.08600000000000001 Q 0.1 0.08600000000000001 0.106 0.113 Q 0.107 0.117 0.107 0.121 Q 0.107 0.153 0.077 0.169 Q 0.07200000000000001 0.171 0.066 0.17300000000000001 Q 0.097 0.183 0.146 0.183 Q 0.244 0.183 0.29 0.075 L 0.323 -0.057 L 0.322 -0.058 Q 0.277 -0.008 0.221 -0.001 Q 0.213 0 0.20600000000000002 0 Q 0.136 0 0.098 -0.061 Q 0.073 -0.10200000000000001 0.073 -0.158 Q 0.073 -0.265 0.149 -0.354 Q 0.219 -0.436 0.3 -0.442 L 0.311 -0.442 Q 0.365 -0.442 0.398 -0.391 L 0.404 -0.379 Q 0.41300000000000003 -0.417 0.445 -0.422 Q 0.47100000000000003 -0.422 0.47400000000000003 -0.395 L 0.47100000000000003 -0.377 M 0.341 -0.128 L 0.341 -0.128 L 0.389 -0.319 Q 0.392 -0.331 0.392 -0.334 Q 0.392 -0.354 0.375 -0.382 L 0.375 -0.382 Q 0.363 -0.402 0.34500000000000003 -0.41200000000000003 Q 0.33 -0.42 0.312 -0.42 Q 0.26 -0.42 0.213 -0.353 Q 0.20600000000000002 -0.342 0.2 -0.331 Q 0.168 -0.271 0.149 -0.164 Q 0.14400000000000002 -0.133 0.14400000000000002 -0.114 Q 0.14400000000000002 -0.048 0.182 -0.028 Q 0.193 -0.022 0.209 -0.022 Q 0.248 -0.022 0.29 -0.058 Q 0.334 -0.096 0.341 -0.128 Z"/></g><g transform="translate(16.403596491228075,2.325578947368421)"><path fill="rgb(0,0,0)" stroke="none" paint-order="stroke fill markers" d=" M 0.687 -0.327 L 0.09 -0.327 Q 0.058 -0.327 0.056 -0.34700000000000003 Q 0.056 -0.367 0.089 -0.367 L 0.6880000000000001 -0.367 Q 0.72 -0.367 0.721 -0.34700000000000003 Q 0.721 -0.327 0.687 -0.327 M 0.6880000000000001 -0.133 L 0.089 -0.133 Q 0.057 -0.133 0.056 -0.153 Q 0.056 -0.17300000000000001 0.09 -0.17300000000000001 L 0.687 -0.17300000000000001 Q 0.719 -0.17300000000000001 0.721 -0.153 Q 0.721 -0.133 0.6880000000000001 -0.133 Z"/></g><g transform="translate(17.459374269005853,2.325578947368421)"><path fill="rgb(0,0,0)" stroke="none" paint-order="stroke fill markers" d=" M 0.46 -0.32 Q 0.46 -0.17400000000000002 0.423 -0.094 Q 0.364 0.018000000000000002 0.249 0.022 Q 0.158 0.022 0.10300000000000001 -0.05 Q 0.092 -0.063 0.084 -0.079 Q 0.039 -0.162 0.039 -0.32 Q 0.039 -0.467 0.076 -0.547 Q 0.126 -0.659 0.23800000000000002 -0.666 L 0.25 -0.666 Q 0.339 -0.666 0.395 -0.595 L 0.395 -0.594 Q 0.40900000000000003 -0.5760000000000001 0.42 -0.554 Q 0.46 -0.46900000000000003 0.46 -0.32 M 0.249 0 L 0.249 0 Q 0.312 0 0.34600000000000003 -0.061 Q 0.36 -0.088 0.366 -0.125 Q 0.377 -0.189 0.377 -0.332 Q 0.377 -0.47100000000000003 0.367 -0.527 Q 0.34900000000000003 -0.622 0.275 -0.641 Q 0.262 -0.644 0.249 -0.644 Q 0.179 -0.644 0.147 -0.5740000000000001 Q 0.136 -0.55 0.13 -0.516 Q 0.122 -0.462 0.122 -0.332 Q 0.122 -0.181 0.133 -0.121 Q 0.151 -0.025 0.221 -0.004 Q 0.23500000000000001 0 0.249 0 Z"/></g></g><g transform="scale(19,19)"><g transform="translate(3.8107640427305265,10.693999999999999)"><path fill="rgb(0,0,0)" stroke="none" paint-order="stroke fill markers" d=" M 0.463 -0.339 L 0.463 -0.339 L 0.464 -0.339 Q 0.491 -0.443 0.491 -0.51 Q 0.491 -0.637 0.40900000000000003 -0.678 Q 0.381 -0.6910000000000001 0.34800000000000003 -0.6910000000000001 Q 0.252 -0.6910000000000001 0.20400000000000001 -0.611 Q 0.25 -0.611 0.251 -0.5760000000000001 Q 0.251 -0.547 0.224 -0.531 Q 0.212 -0.523 0.197 -0.523 Q 0.163 -0.528 0.159 -0.558 Q 0.159 -0.589 0.189 -0.633 Q 0.246 -0.716 0.35000000000000003 -0.716 Q 0.457 -0.716 0.518 -0.628 L 0.519 -0.627 Q 0.5660000000000001 -0.558 0.5660000000000001 -0.457 Q 0.5660000000000001 -0.35000000000000003 0.513 -0.223 Q 0.438 -0.046 0.314 0.005 Q 0.271 0.022 0.224 0.022 Q 0.109 0.022 0.061 -0.074 Q 0.04 -0.115 0.04 -0.156 Q 0.04 -0.262 0.115 -0.34700000000000003 Q 0.122 -0.355 0.13 -0.363 Q 0.229 -0.454 0.334 -0.457 Q 0.418 -0.457 0.451 -0.379 Q 0.46 -0.36 0.463 -0.339 M 0.227 -0.006 L 0.227 -0.006 Q 0.334 -0.006 0.401 -0.14100000000000001 Q 0.442 -0.231 0.445 -0.303 Q 0.445 -0.392 0.388 -0.423 Q 0.365 -0.435 0.334 -0.435 Q 0.245 -0.435 0.183 -0.34600000000000003 Q 0.14300000000000002 -0.28700000000000003 0.121 -0.156 Q 0.117 -0.13 0.117 -0.11900000000000001 Q 0.117 -0.051000000000000004 0.164 -0.022 Q 0.189 -0.006 0.227 -0.006 Z"/></g><g transform="translate(4.397764042730526,10.693999999999999)"><path fill="rgb(0,0,0)" stroke="none" paint-order="stroke fill markers" d=" M 0.28700000000000003 -0.683 L 0.209 -0.365 Q 0.271 -0.442 0.357 -0.442 Q 0.446 -0.442 0.467 -0.373 L 0.467 -0.372 Q 0.47200000000000003 -0.355 0.47200000000000003 -0.335 Q 0.47200000000000003 -0.279 0.41100000000000003 -0.115 Q 0.393 -0.07100000000000001 0.393 -0.044 Q 0.393 -0.011 0.417 -0.011 Q 0.47900000000000004 -0.011 0.515 -0.121 L 0.519 -0.135 Q 0.524 -0.151 0.529 -0.152 L 0.529 -0.153 L 0.534 -0.153 Q 0.546 -0.153 0.546 -0.14300000000000002 Q 0.546 -0.126 0.525 -0.08 Q 0.482 0.011 0.41500000000000004 0.011 Q 0.364 0.011 0.342 -0.032 Q 0.333 -0.05 0.333 -0.07100000000000001 Q 0.333 -0.089 0.34600000000000003 -0.126 Q 0.40800000000000003 -0.28400000000000003 0.40800000000000003 -0.35000000000000003 Q 0.40800000000000003 -0.42 0.354 -0.42 Q 0.306 -0.42 0.258 -0.385 Q 0.221 -0.356 0.193 -0.299 L 0.19 -0.293 Q 0.186 -0.269 0.179 -0.248 Q 0.17400000000000002 -0.225 0.162 -0.181 L 0.14 -0.091 L 0.121 -0.015 Q 0.114 0.006 0.09 0.01 Q 0.08700000000000001 0.011 0.084 0.011 Q 0.06 0.011 0.056 -0.01 Q 0.055 -0.014 0.055 -0.017 Q 0.055 -0.025 0.059000000000000004 -0.039 L 0.20400000000000001 -0.615 L 0.20700000000000002 -0.635 Q 0.20700000000000002 -0.646 0.193 -0.649 L 0.193 -0.649 Q 0.181 -0.652 0.157 -0.652 Q 0.135 -0.652 0.133 -0.664 Q 0.133 -0.681 0.152 -0.684 L 0.274 -0.6940000000000001 Q 0.28700000000000003 -0.6940000000000001 0.28700000000000003 -0.683 Z"/></g><rect fill="rgb(0,0,0)" stroke="none" x="3.7997640427305264" y="11.100508499999998" width="1.185" height="0.039999"/><g transform="translate(3.7997640427305264,12.056458999999997)"><path fill="rgb(0,0,0)" stroke="none" paint-order="stroke fill markers" d=" M 0.463 -0.339 L 0.463 -0.339 L 0.464 -0.339 Q 0.491 -0.443 0.491 -0.51 Q 0.491 -0.637 0.40900000000000003 -0.678 Q 0.381 -0.6910000000000001 0.34800000000000003 -0.6910000000000001 Q 0.252 -0.6910000000000001 0.20400000000000001 -0.611 Q 0.25 -0.611 0.251 -0.5760000000000001 Q 0.251 -0.547 0.224 -0.531 Q 0.212 -0.523 0.197 -0.523 Q 0.163 -0.528 0.159 -0.558 Q 0.159 -0.589 0.189 -0.633 Q 0.246 -0.716 0.35000000000000003 -0.716 Q 0.457 -0.716 0.518 -0.628 L 0.519 -0.627 Q 0.5660000000000001 -0.558 0.5660000000000001 -0.457 Q 0.5660000000000001 -0.35000000000000003 0.513 -0.223 Q 0.438 -0.046 0.314 0.005 Q 0.271 0.022 0.224 0.022 Q 0.109 0.022 0.061 -0.074 Q 0.04 -0.115 0.04 -0.156 Q 0.04 -0.262 0.115 -0.34700000000000003 Q 0.122 -0.355 0.13 -0.363 Q 0.229 -0.454 0.334 -0.457 Q 0.418 -0.457 0.451 -0.379 Q 0.46 -0.36 0.463 -0.339 M 0.227 -0.006 L 0.227 -0.006 Q 0.334 -0.006 0.401 -0.14100000000000001 Q 0.442 -0.231 0.445 -0.303 Q 0.445 -0.392 0.388 -0.423 Q 0.365 -0.435 0.334 -0.435 Q 0.245 -0.435 0.183 -0.34600000000000003 Q 0.14300000000000002 -0.28700000000000003 0.121 -0.156 Q 0.117 -0.13 0.117 -0.11900000000000001 Q 0.117 -0.051000000000000004 0.164 -0.022 Q 0.189 -0.006 0.227 -0.006 Z"/></g><g transform="translate(4.386764042730526,12.056458999999997)"><path fill="rgb(0,0,0)" stroke="none" paint-order="stroke fill markers" d=" M 0.367 -0.4 L 0.367 -0.4 L 0.307 -0.083 Q 0.298 -0.021 0.271 0.059000000000000004 Q 0.261 0.088 0.251 0.108 Q 0.216 0.182 0.164 0.2 Q 0.151 0.20500000000000002 0.138 0.20500000000000002 Q 0.088 0.20500000000000002 0.064 0.171 Q 0.053 0.156 0.053 0.136 Q 0.053 0.096 0.08700000000000001 0.081 Q 0.097 0.076 0.108 0.076 Q 0.137 0.076 0.14400000000000002 0.101 Q 0.145 0.106 0.145 0.111 Q 0.145 0.145 0.115 0.159 Q 0.10400000000000001 0.164 0.09 0.165 Q 0.109 0.183 0.138 0.183 Q 0.182 0.183 0.20700000000000002 0.085 Q 0.212 0.062 0.219 0.025 L 0.225 -0.005 L 0.3 -0.4 L 0.234 -0.4 Q 0.209 -0.4 0.20700000000000002 -0.40800000000000003 L 0.20600000000000002 -0.40800000000000003 L 0.20600000000000002 -0.41200000000000003 Q 0.20600000000000002 -0.429 0.223 -0.431 L 0.223 -0.431 L 0.23600000000000002 -0.431 L 0.305 -0.431 Q 0.329 -0.556 0.338 -0.588 Q 0.368 -0.6880000000000001 0.444 -0.7030000000000001 Q 0.455 -0.705 0.465 -0.705 Q 0.517 -0.705 0.541 -0.671 L 0.541 -0.671 Q 0.552 -0.656 0.552 -0.636 Q 0.552 -0.596 0.518 -0.581 Q 0.508 -0.5760000000000001 0.497 -0.5760000000000001 Q 0.468 -0.5760000000000001 0.461 -0.601 Q 0.46 -0.606 0.46 -0.611 Q 0.46 -0.642 0.488 -0.657 Q 0.499 -0.664 0.514 -0.665 Q 0.495 -0.683 0.465 -0.683 Q 0.434 -0.683 0.418 -0.649 Q 0.41100000000000003 -0.635 0.394 -0.545 L 0.373 -0.431 L 0.456 -0.431 Q 0.481 -0.431 0.483 -0.42 Q 0.483 -0.402 0.467 -0.4 L 0.466 -0.4 L 0.453 -0.4 L 0.367 -0.4 Z"/></g><g transform="translate(5.3254637579756725,11.370508000000001)"><path fill="rgb(0,0,0)" stroke="none" paint-order="stroke fill markers" d=" M 0.687 -0.327 L 0.09 -0.327 Q 0.058 -0.327 0.056 -0.34700000000000003 Q 0.056 -0.367 0.089 -0.367 L 0.6880000000000001 -0.367 Q 0.72 -0.367 0.721 -0.34700000000000003 Q 0.721 -0.327 0.687 -0.327 M 0.6880000000000001 -0.133 L 0.089 -0.133 Q 0.057 -0.133 0.056 -0.153 Q 0.056 -0.17300000000000001 0.09 -0.17300000000000001 L 0.687 -0.17300000000000001 Q 0.719 -0.17300000000000001 0.721 -0.153 Q 0.721 -0.133 0.6880000000000001 -0.133 Z"/></g><g transform="translate(6.381241535753451,11.370508000000001)"><path fill="rgb(0,0,0)" stroke="none" paint-order="stroke fill markers" d=" M 0.46 -0.32 Q 0.46 -0.17400000000000002 0.423 -0.094 Q 0.364 0.018000000000000002 0.249 0.022 Q 0.158 0.022 0.10300000000000001 -0.05 Q 0.092 -0.063 0.084 -0.079 Q 0.039 -0.162 0.039 -0.32 Q 0.039 -0.467 0.076 -0.547 Q 0.126 -0.659 0.23800000000000002 -0.666 L 0.25 -0.666 Q 0.339 -0.666 0.395 -0.595 L 0.395 -0.594 Q 0.40900000000000003 -0.5760000000000001 0.42 -0.554 Q 0.46 -0.46900000000000003 0.46 -0.32 M 0.249 0 L 0.249 0 Q 0.312 0 0.34600000000000003 -0.061 Q 0.36 -0.088 0.366 -0.125 Q 0.377 -0.189 0.377 -0.332 Q 0.377 -0.47100000000000003 0.367 -0.527 Q 0.34900000000000003 -0.622 0.275 -0.641 Q 0.262 -0.644 0.249 -0.644 Q 0.179 -0.644 0.147 -0.5740000000000001 Q 0.136 -0.55 0.13 -0.516 Q 0.122 -0.462 0.122 -0.332 Q 0.122 -0.181 0.133 -0.121 Q 0.151 -0.025 0.221 -0.004 Q 0.23500000000000001 0 0.249 0 Z"/></g></g><g transform="scale(19,19)"><g transform="translate(23.378711411151578,10.904526315789472)"><path fill="rgb(0,0,0)" stroke="none" paint-order="stroke fill markers" d=" M 0.463 -0.339 L 0.463 -0.339 L 0.464 -0.339 Q 0.491 -0.443 0.491 -0.51 Q 0.491 -0.637 0.40900000000000003 -0.678 Q 0.381 -0.6910000000000001 0.34800000000000003 -0.6910000000000001 Q 0.252 -0.6910000000000001 0.20400000000000001 -0.611 Q 0.25 -0.611 0.251 -0.5760000000000001 Q 0.251 -0.547 0.224 -0.531 Q 0.212 -0.523 0.197 -0.523 Q 0.163 -0.528 0.159 -0.558 Q 0.159 -0.589 0.189 -0.633 Q 0.246 -0.716 0.35000000000000003 -0.716 Q 0.457 -0.716 0.518 -0.628 L 0.519 -0.627 Q 0.5660000000000001 -0.558 0.5660000000000001 -0.457 Q 0.5660000000000001 -0.35000000000000003 0.513 -0.223 Q 0.438 -0.046 0.314 0.005 Q 0.271 0.022 0.224 0.022 Q 0.109 0.022 0.061 -0.074 Q 0.04 -0.115 0.04 -0.156 Q 0.04 -0.262 0.115 -0.34700000000000003 Q 0.122 -0.355 0.13 -0.363 Q 0.229 -0.454 0.334 -0.457 Q 0.418 -0.457 0.451 -0.379 Q 0.46 -0.36 0.463 -0.339 M 0.227 -0.006 L 0.227 -0.006 Q 0.334 -0.006 0.401 -0.14100000000000001 Q 0.442 -0.231 0.445 -0.303 Q 0.445 -0.392 0.388 -0.423 Q 0.365 -0.435 0.334 -0.435 Q 0.245 -0.435 0.183 -0.34600000000000003 Q 0.14300000000000002 -0.28700000000000003 0.121 -0.156 Q 0.117 -0.13 0.117 -0.11900000000000001 Q 0.117 -0.051000000000000004 0.164 -0.022 Q 0.189 -0.006 0.227 -0.006 Z"/></g><g transform="translate(23.965711411151577,10.904526315789472)"><path fill="rgb(0,0,0)" stroke="none" paint-order="stroke fill markers" d=" M 0.435 -0.298 L 0.435 0 L 0.357 0 L 0.357 -0.291 Q 0.357 -0.305 0.3565 -0.3145 Q 0.356 -0.324 0.35050000000000003 -0.3405 Q 0.34500000000000003 -0.357 0.3355 -0.3675 Q 0.326 -0.378 0.3065 -0.386 Q 0.28700000000000003 -0.394 0.26 -0.394 Q 0.20800000000000002 -0.394 0.1835 -0.34900000000000003 Q 0.159 -0.304 0.159 -0.245 L 0.159 0 L 0.081 0 L 0.081 -0.6940000000000001 L 0.156 -0.6940000000000001 L 0.156 -0.383 Q 0.212 -0.455 0.298 -0.455 Q 0.435 -0.455 0.435 -0.298 Z"/></g><rect fill="rgb(0,0,0)" stroke="none" x="23.378711411151578" y="11.311034815789471" width="1.104" height="0.039999"/><g transform="translate(23.380211411151578,12.26698531578947)"><path fill="rgb(0,0,0)" stroke="none" paint-order="stroke fill markers" d=" M 0.463 -0.339 L 0.463 -0.339 L 0.464 -0.339 Q 0.491 -0.443 0.491 -0.51 Q 0.491 -0.637 0.40900000000000003 -0.678 Q 0.381 -0.6910000000000001 0.34800000000000003 -0.6910000000000001 Q 0.252 -0.6910000000000001 0.20400000000000001 -0.611 Q 0.25 -0.611 0.251 -0.5760000000000001 Q 0.251 -0.547 0.224 -0.531 Q 0.212 -0.523 0.197 -0.523 Q 0.163 -0.528 0.159 -0.558 Q 0.159 -0.589 0.189 -0.633 Q 0.246 -0.716 0.35000000000000003 -0.716 Q 0.457 -0.716 0.518 -0.628 L 0.519 -0.627 Q 0.5660000000000001 -0.558 0.5660000000000001 -0.457 Q 0.5660000000000001 -0.35000000000000003 0.513 -0.223 Q 0.438 -0.046 0.314 0.005 Q 0.271 0.022 0.224 0.022 Q 0.109 0.022 0.061 -0.074 Q 0.04 -0.115 0.04 -0.156 Q 0.04 -0.262 0.115 -0.34700000000000003 Q 0.122 -0.355 0.13 -0.363 Q 0.229 -0.454 0.334 -0.457 Q 0.418 -0.457 0.451 -0.379 Q 0.46 -0.36 0.463 -0.339 M 0.227 -0.006 L 0.227 -0.006 Q 0.334 -0.006 0.401 -0.14100000000000001 Q 0.442 -0.231 0.445 -0.303 Q 0.445 -0.392 0.388 -0.423 Q 0.365 -0.435 0.334 -0.435 Q 0.245 -0.435 0.183 -0.34600000000000003 Q 0.14300000000000002 -0.28700000000000003 0.121 -0.156 Q 0.117 -0.13 0.117 -0.11900000000000001 Q 0.117 -0.051000000000000004 0.164 -0.022 Q 0.189 -0.006 0.227 -0.006 Z"/></g><g transform="translate(23.967211411151577,12.26698531578947)"><path fill="rgb(0,0,0)" stroke="none" paint-order="stroke fill markers" d=" M 0.352 -0.391 L 0.34800000000000003 -0.392 Q 0.381 -0.34700000000000003 0.381 -0.292 Q 0.381 -0.225 0.3345 -0.177 Q 0.28800000000000003 -0.129 0.221 -0.129 Q 0.171 -0.129 0.13 -0.158 Q 0.11900000000000001 -0.14400000000000002 0.11900000000000001 -0.122 Q 0.11900000000000001 -0.069 0.177 -0.069 L 0.265 -0.069 Q 0.28200000000000003 -0.069 0.2945 -0.068 Q 0.307 -0.067 0.335 -0.064 Q 0.363 -0.061 0.3835 -0.051500000000000004 Q 0.404 -0.042 0.4255 -0.028 Q 0.447 -0.014 0.459 0.0115 Q 0.47100000000000003 0.037 0.47100000000000003 0.07 Q 0.47100000000000003 0.127 0.40650000000000003 0.1665 Q 0.342 0.20600000000000002 0.249 0.20600000000000002 Q 0.157 0.20600000000000002 0.0925 0.1665 Q 0.028 0.127 0.028 0.07100000000000001 Q 0.028 0.006 0.092 -0.032 Q 0.066 -0.064 0.066 -0.108 Q 0.066 -0.152 0.095 -0.193 Q 0.062 -0.23600000000000002 0.062 -0.292 Q 0.062 -0.36 0.109 -0.40750000000000003 Q 0.156 -0.455 0.221 -0.455 Q 0.276 -0.455 0.316 -0.423 Q 0.39 -0.455 0.47400000000000003 -0.455 L 0.485 -0.392 L 0.47400000000000003 -0.393 Q 0.462 -0.394 0.448 -0.3945 Q 0.434 -0.395 0.426 -0.395 Q 0.41400000000000003 -0.395 0.3885 -0.393 Q 0.363 -0.391 0.352 -0.391 M 0.221 -0.186 Q 0.258 -0.186 0.28450000000000003 -0.212 Q 0.311 -0.23800000000000002 0.311 -0.292 Q 0.311 -0.34600000000000003 0.28450000000000003 -0.372 Q 0.258 -0.398 0.221 -0.398 Q 0.187 -0.398 0.1595 -0.373 Q 0.132 -0.34800000000000003 0.132 -0.292 Q 0.132 -0.23600000000000002 0.1595 -0.211 Q 0.187 -0.186 0.221 -0.186 M 0.266 0.003 L 0.176 0.003 Q 0.154 0.003 0.138 0.01 Q 0.122 0.017 0.1145 0.025500000000000002 Q 0.107 0.034 0.10300000000000001 0.046 Q 0.099 0.058 0.0985 0.0625 Q 0.098 0.067 0.098 0.07100000000000001 Q 0.098 0.105 0.14250000000000002 0.127 Q 0.187 0.149 0.25 0.149 Q 0.312 0.149 0.3565 0.127 Q 0.401 0.105 0.401 0.07200000000000001 Q 0.401 0.003 0.266 0.003 Z"/></g><g transform="translate(24.823411126396724,11.581034315789474)"><path fill="rgb(0,0,0)" stroke="none" paint-order="stroke fill markers" d=" M 0.687 -0.33 L 0.09 -0.33 Q 0.056 -0.33 0.056 -0.35000000000000003 Q 0.056 -0.37 0.089 -0.37 L 0.6880000000000001 -0.37 Q 0.721 -0.37 0.721 -0.35000000000000003 Q 0.721 -0.33 0.687 -0.33 M 0.6880000000000001 -0.13 L 0.089 -0.13 Q 0.056 -0.13 0.056 -0.15 Q 0.056 -0.17 0.09 -0.17 L 0.687 -0.17 Q 0.721 -0.17 0.721 -0.15 Q 0.721 -0.13 0.6880000000000001 -0.13 Z"/></g><g transform="translate(25.8791889041745,11.581034315789474)"><path fill="rgb(0,0,0)" stroke="none" paint-order="stroke fill markers" d=" M 0.661 -0.23 L 0.116 -0.23 Q 0.084 -0.23 0.083 -0.25 Q 0.083 -0.27 0.116 -0.27 L 0.661 -0.27 Q 0.6930000000000001 -0.27 0.6940000000000001 -0.25 Q 0.6940000000000001 -0.23 0.661 -0.23 Z"/></g><g transform="translate(26.6571889041745,11.581034315789474)"><path fill="rgb(0,0,0)" stroke="none" paint-order="stroke fill markers" d=" M 0.372 -0.171 L 0.372 0 L 0.293 0 L 0.293 -0.171 L 0.028 -0.171 L 0.028 -0.232 L 0.281 -0.656 L 0.372 -0.656 L 0.372 -0.232 L 0.47100000000000003 -0.232 L 0.47100000000000003 -0.171 L 0.372 -0.171 M 0.106 -0.232 L 0.299 -0.232 L 0.299 -0.612 Q 0.299 -0.551 0.106 -0.232 Z"/></g></g><g transform="scale(19,19)"><g transform="translate(6.326079832204211,23.062421052631578)"><path fill="rgb(0,0,0)" stroke="none" paint-order="stroke fill markers" d=" M 0.463 -0.339 L 0.463 -0.339 L 0.464 -0.339 Q 0.491 -0.443 0.491 -0.51 Q 0.491 -0.637 0.40900000000000003 -0.678 Q 0.381 -0.6910000000000001 0.34800000000000003 -0.6910000000000001 Q 0.252 -0.6910000000000001 0.20400000000000001 -0.611 Q 0.25 -0.611 0.251 -0.5760000000000001 Q 0.251 -0.547 0.224 -0.531 Q 0.212 -0.523 0.197 -0.523 Q 0.163 -0.528 0.159 -0.558 Q 0.159 -0.589 0.189 -0.633 Q 0.246 -0.716 0.35000000000000003 -0.716 Q 0.457 -0.716 0.518 -0.628 L 0.519 -0.627 Q 0.5660000000000001 -0.558 0.5660000000000001 -0.457 Q 0.5660000000000001 -0.35000000000000003 0.513 -0.223 Q 0.438 -0.046 0.314 0.005 Q 0.271 0.022 0.224 0.022 Q 0.109 0.022 0.061 -0.074 Q 0.04 -0.115 0.04 -0.156 Q 0.04 -0.262 0.115 -0.34700000000000003 Q 0.122 -0.355 0.13 -0.363 Q 0.229 -0.454 0.334 -0.457 Q 0.418 -0.457 0.451 -0.379 Q 0.46 -0.36 0.463 -0.339 M 0.227 -0.006 L 0.227 -0.006 Q 0.334 -0.006 0.401 -0.14100000000000001 Q 0.442 -0.231 0.445 -0.303 Q 0.445 -0.392 0.388 -0.423 Q 0.365 -0.435 0.334 -0.435 Q 0.245 -0.435 0.183 -0.34600000000000003 Q 0.14300000000000002 -0.28700000000000003 0.121 -0.156 Q 0.117 -0.13 0.117 -0.11900000000000001 Q 0.117 -0.051000000000000004 0.164 -0.022 Q 0.189 -0.006 0.227 -0.006 Z"/></g><g transform="translate(6.913079832204211,23.062421052631578)"><path fill="rgb(0,0,0)" stroke="none" paint-order="stroke fill markers" d=" M 0.435 -0.298 L 0.435 0 L 0.357 0 L 0.357 -0.291 Q 0.357 -0.305 0.3565 -0.3145 Q 0.356 -0.324 0.35050000000000003 -0.3405 Q 0.34500000000000003 -0.357 0.3355 -0.3675 Q 0.326 -0.378 0.3065 -0.386 Q 0.28700000000000003 -0.394 0.26 -0.394 Q 0.20800000000000002 -0.394 0.1835 -0.34900000000000003 Q 0.159 -0.304 0.159 -0.245 L 0.159 0 L 0.081 0 L 0.081 -0.6940000000000001 L 0.156 -0.6940000000000001 L 0.156 -0.383 Q 0.212 -0.455 0.298 -0.455 Q 0.435 -0.455 0.435 -0.298 Z"/></g><rect fill="rgb(0,0,0)" stroke="none" x="6.326079832204211" y="23.46892955263158" width="1.104" height="0.039999"/><g transform="translate(6.354079832204212,24.42488005263158)"><path fill="rgb(0,0,0)" stroke="none" paint-order="stroke fill markers" d=" M 0.463 -0.339 L 0.463 -0.339 L 0.464 -0.339 Q 0.491 -0.443 0.491 -0.51 Q 0.491 -0.637 0.40900000000000003 -0.678 Q 0.381 -0.6910000000000001 0.34800000000000003 -0.6910000000000001 Q 0.252 -0.6910000000000001 0.20400000000000001 -0.611 Q 0.25 -0.611 0.251 -0.5760000000000001 Q 0.251 -0.547 0.224 -0.531 Q 0.212 -0.523 0.197 -0.523 Q 0.163 -0.528 0.159 -0.558 Q 0.159 -0.589 0.189 -0.633 Q 0.246 -0.716 0.35000000000000003 -0.716 Q 0.457 -0.716 0.518 -0.628 L 0.519 -0.627 Q 0.5660000000000001 -0.558 0.5660000000000001 -0.457 Q 0.5660000000000001 -0.35000000000000003 0.513 -0.223 Q 0.438 -0.046 0.314 0.005 Q 0.271 0.022 0.224 0.022 Q 0.109 0.022 0.061 -0.074 Q 0.04 -0.115 0.04 -0.156 Q 0.04 -0.262 0.115 -0.34700000000000003 Q 0.122 -0.355 0.13 -0.363 Q 0.229 -0.454 0.334 -0.457 Q 0.418 -0.457 0.451 -0.379 Q 0.46 -0.36 0.463 -0.339 M 0.227 -0.006 L 0.227 -0.006 Q 0.334 -0.006 0.401 -0.14100000000000001 Q 0.442 -0.231 0.445 -0.303 Q 0.445 -0.392 0.388 -0.423 Q 0.365 -0.435 0.334 -0.435 Q 0.245 -0.435 0.183 -0.34600000000000003 Q 0.14300000000000002 -0.28700000000000003 0.121 -0.156 Q 0.117 -0.13 0.117 -0.11900000000000001 Q 0.117 -0.051000000000000004 0.164 -0.022 Q 0.189 -0.006 0.227 -0.006 Z"/></g><g transform="translate(6.9410798322042115,24.42488005263158)"><path fill="rgb(0,0,0)" stroke="none" paint-order="stroke fill markers" d=" M 0.26 -0.229 L 0.46 0 L 0.377 0 L 0.227 -0.188 L 0.082 0 L 0 0 L 0.194 -0.229 L 0.006 -0.444 L 0.089 -0.444 L 0.227 -0.279 L 0.361 -0.444 L 0.443 -0.444 L 0.26 -0.229 Z"/></g><g transform="translate(7.770779547449357,23.73892905263158)"><path fill="rgb(0,0,0)" stroke="none" paint-order="stroke fill markers" d=" M 0.687 -0.33 L 0.09 -0.33 Q 0.056 -0.33 0.056 -0.35000000000000003 Q 0.056 -0.37 0.089 -0.37 L 0.6880000000000001 -0.37 Q 0.721 -0.37 0.721 -0.35000000000000003 Q 0.721 -0.33 0.687 -0.33 M 0.6880000000000001 -0.13 L 0.089 -0.13 Q 0.056 -0.13 0.056 -0.15 Q 0.056 -0.17 0.09 -0.17 L 0.687 -0.17 Q 0.721 -0.17 0.721 -0.15 Q 0.721 -0.13 0.6880000000000001 -0.13 Z"/></g><g transform="translate(8.826557325227135,23.73892905263158)"><path fill="rgb(0,0,0)" stroke="none" paint-order="stroke fill markers" d=" M 0.661 -0.23 L 0.116 -0.23 Q 0.084 -0.23 0.083 -0.25 Q 0.083 -0.27 0.116 -0.27 L 0.661 -0.27 Q 0.6930000000000001 -0.27 0.6940000000000001 -0.25 Q 0.6940000000000001 -0.23 0.661 -0.23 Z"/></g><g transform="translate(9.604557325227136,23.73892905263158)"><path fill="rgb(0,0,0)" stroke="none" paint-order="stroke fill markers" d=" M 0.32 -0.355 Q 0.376 -0.336 0.4165 -0.29 Q 0.457 -0.244 0.457 -0.18 Q 0.457 -0.099 0.397 -0.0385 Q 0.337 0.022 0.249 0.022 Q 0.163 0.022 0.10250000000000001 -0.038 Q 0.042 -0.098 0.042 -0.18 Q 0.042 -0.242 0.0815 -0.2885 Q 0.121 -0.335 0.179 -0.355 Q 0.117 -0.375 0.08650000000000001 -0.4165 Q 0.056 -0.458 0.056 -0.503 Q 0.056 -0.5740000000000001 0.112 -0.626 Q 0.168 -0.678 0.25 -0.678 Q 0.33 -0.678 0.3865 -0.626 Q 0.443 -0.5740000000000001 0.443 -0.503 Q 0.443 -0.458 0.41250000000000003 -0.4165 Q 0.382 -0.375 0.32 -0.355 M 0.25 -0.385 Q 0.305 -0.385 0.339 -0.4175 Q 0.373 -0.45 0.373 -0.503 Q 0.373 -0.554 0.3395 -0.587 Q 0.306 -0.62 0.249 -0.62 Q 0.194 -0.62 0.16 -0.5875 Q 0.126 -0.555 0.126 -0.503 Q 0.126 -0.45 0.1595 -0.4175 Q 0.193 -0.385 0.25 -0.385 M 0.25 -0.039 Q 0.302 -0.039 0.339 -0.0755 Q 0.376 -0.112 0.376 -0.181 Q 0.376 -0.252 0.3375 -0.28800000000000003 Q 0.299 -0.324 0.249 -0.324 Q 0.201 -0.324 0.162 -0.2885 Q 0.123 -0.253 0.123 -0.181 Q 0.123 -0.113 0.159 -0.076 Q 0.195 -0.039 0.25 -0.039 Z"/></g></g><g transform="scale(19,19)"><g transform="translate(20.65886930588842,22.90452631578947)"><path fill="rgb(0,0,0)" stroke="none" paint-order="stroke fill markers" d=" M 0.463 -0.339 L 0.463 -0.339 L 0.464 -0.339 Q 0.491 -0.443 0.491 -0.51 Q 0.491 -0.637 0.40900000000000003 -0.678 Q 0.381 -0.6910000000000001 0.34800000000000003 -0.6910000000000001 Q 0.252 -0.6910000000000001 0.20400000000000001 -0.611 Q 0.25 -0.611 0.251 -0.5760000000000001 Q 0.251 -0.547 0.224 -0.531 Q 0.212 -0.523 0.197 -0.523 Q 0.163 -0.528 0.159 -0.558 Q 0.159 -0.589 0.189 -0.633 Q 0.246 -0.716 0.35000000000000003 -0.716 Q 0.457 -0.716 0.518 -0.628 L 0.519 -0.627 Q 0.5660000000000001 -0.558 0.5660000000000001 -0.457 Q 0.5660000000000001 -0.35000000000000003 0.513 -0.223 Q 0.438 -0.046 0.314 0.005 Q 0.271 0.022 0.224 0.022 Q 0.109 0.022 0.061 -0.074 Q 0.04 -0.115 0.04 -0.156 Q 0.04 -0.262 0.115 -0.34700000000000003 Q 0.122 -0.355 0.13 -0.363 Q 0.229 -0.454 0.334 -0.457 Q 0.418 -0.457 0.451 -0.379 Q 0.46 -0.36 0.463 -0.339 M 0.227 -0.006 L 0.227 -0.006 Q 0.334 -0.006 0.401 -0.14100000000000001 Q 0.442 -0.231 0.445 -0.303 Q 0.445 -0.392 0.388 -0.423 Q 0.365 -0.435 0.334 -0.435 Q 0.245 -0.435 0.183 -0.34600000000000003 Q 0.14300000000000002 -0.28700000000000003 0.121 -0.156 Q 0.117 -0.13 0.117 -0.11900000000000001 Q 0.117 -0.051000000000000004 0.164 -0.022 Q 0.189 -0.006 0.227 -0.006 Z"/></g><g transform="translate(21.24586930588842,22.90452631578947)"><path fill="rgb(0,0,0)" stroke="none" paint-order="stroke fill markers" d=" M 0.499 -0.304 L 0.435 0 L 0.357 0 L 0.422 -0.307 Q 0.422 -0.308 0.423 -0.317 Q 0.424 -0.326 0.424 -0.328 Q 0.424 -0.394 0.343 -0.394 Q 0.243 -0.394 0.20700000000000002 -0.227 L 0.159 0 L 0.081 0 L 0.229 -0.6940000000000001 L 0.303 -0.6940000000000001 L 0.23800000000000002 -0.383 Q 0.307 -0.455 0.395 -0.455 Q 0.505 -0.455 0.505 -0.355 Q 0.505 -0.332 0.499 -0.304 Z"/></g><rect fill="rgb(0,0,0)" stroke="none" x="20.64186930588842" y="23.311034815789473" width="1.1560000000000001" height="0.039999"/><g transform="translate(20.64186930588842,24.266985315789473)"><path fill="rgb(0,0,0)" stroke="none" paint-order="stroke fill markers" d=" M 0.463 -0.339 L 0.463 -0.339 L 0.464 -0.339 Q 0.491 -0.443 0.491 -0.51 Q 0.491 -0.637 0.40900000000000003 -0.678 Q 0.381 -0.6910000000000001 0.34800000000000003 -0.6910000000000001 Q 0.252 -0.6910000000000001 0.20400000000000001 -0.611 Q 0.25 -0.611 0.251 -0.5760000000000001 Q 0.251 -0.547 0.224 -0.531 Q 0.212 -0.523 0.197 -0.523 Q 0.163 -0.528 0.159 -0.558 Q 0.159 -0.589 0.189 -0.633 Q 0.246 -0.716 0.35000000000000003 -0.716 Q 0.457 -0.716 0.518 -0.628 L 0.519 -0.627 Q 0.5660000000000001 -0.558 0.5660000000000001 -0.457 Q 0.5660000000000001 -0.35000000000000003 0.513 -0.223 Q 0.438 -0.046 0.314 0.005 Q 0.271 0.022 0.224 0.022 Q 0.109 0.022 0.061 -0.074 Q 0.04 -0.115 0.04 -0.156 Q 0.04 -0.262 0.115 -0.34700000000000003 Q 0.122 -0.355 0.13 -0.363 Q 0.229 -0.454 0.334 -0.457 Q 0.418 -0.457 0.451 -0.379 Q 0.46 -0.36 0.463 -0.339 M 0.227 -0.006 L 0.227 -0.006 Q 0.334 -0.006 0.401 -0.14100000000000001 Q 0.442 -0.231 0.445 -0.303 Q 0.445 -0.392 0.388 -0.423 Q 0.365 -0.435 0.334 -0.435 Q 0.245 -0.435 0.183 -0.34600000000000003 Q 0.14300000000000002 -0.28700000000000003 0.121 -0.156 Q 0.117 -0.13 0.117 -0.11900000000000001 Q 0.117 -0.051000000000000004 0.164 -0.022 Q 0.189 -0.006 0.227 -0.006 Z"/></g><g transform="translate(21.22886930588842,24.266985315789473)"><path fill="rgb(0,0,0)" stroke="none" paint-order="stroke fill markers" d=" M 0.54 -0.444 L 0.211 0.088 Q 0.179 0.14 0.1495 0.168 Q 0.12 0.196 0.105 0.2005 Q 0.09 0.20500000000000002 0.07100000000000001 0.20500000000000002 Q 0.037 0.20500000000000002 0.001 0.197 L 0.009000000000000001 0.132 Q 0.044 0.148 0.084 0.148 Q 0.10200000000000001 0.148 0.1165 0.135 Q 0.131 0.122 0.154 0.08700000000000001 Q 0.20800000000000002 0.006 0.20800000000000002 -0.002 L 0.20600000000000002 -0.008 Q 0.20500000000000002 -0.013000000000000001 0.20500000000000002 -0.014 L 0.108 -0.444 L 0.187 -0.444 L 0.221 -0.28700000000000003 Q 0.25 -0.15 0.25 -0.083 Q 0.25 -0.065 0.249 -0.058 L 0.25 -0.058 Q 0.26 -0.096 0.329 -0.219 L 0.465 -0.444 L 0.54 -0.444 Z"/></g><g transform="translate(22.138569021133566,23.581034315789474)"><path fill="rgb(0,0,0)" stroke="none" paint-order="stroke fill markers" d=" M 0.762 -0.33 L 0.164 -0.33 Q 0.131 -0.33 0.131 -0.35000000000000003 Q 0.131 -0.37 0.164 -0.37 L 0.762 -0.37 Q 0.795 -0.37 0.795 -0.35000000000000003 Q 0.795 -0.33 0.762 -0.33 M 0.719 -0.13 L 0.121 -0.13 Q 0.088 -0.13 0.088 -0.15 Q 0.088 -0.17 0.121 -0.17 L 0.719 -0.17 Q 0.753 -0.17 0.753 -0.15 Q 0.753 -0.13 0.719 -0.13 Z"/></g><g transform="translate(23.245346798911346,23.581034315789474)"><path fill="rgb(0,0,0)" stroke="none" paint-order="stroke fill markers" d=" M 0.661 -0.23 L 0.116 -0.23 Q 0.084 -0.23 0.083 -0.25 Q 0.083 -0.27 0.116 -0.27 L 0.661 -0.27 Q 0.6930000000000001 -0.27 0.6940000000000001 -0.25 Q 0.6940000000000001 -0.23 0.661 -0.23 Z"/></g><g transform="translate(24.023346798911344,23.581034315789474)"><path fill="rgb(0,0,0)" stroke="none" paint-order="stroke fill markers" d=" M 0.40800000000000003 -0.171 L 0.372 0 L 0.293 0 L 0.329 -0.171 L 0.064 -0.171 Q 0.07 -0.201 0.073 -0.21 Q 0.079 -0.234 0.08600000000000001 -0.242 L 0.42 -0.656 L 0.511 -0.656 L 0.421 -0.232 L 0.52 -0.232 L 0.507 -0.171 L 0.40800000000000003 -0.171 M 0.155 -0.232 L 0.34800000000000003 -0.232 L 0.431 -0.619 L 0.429 -0.619 Q 0.41000000000000003 -0.545 0.155 -0.232 Z"/></g></g><g transform="scale(19,19)"><g transform="translate(2.6322377269410526,17.32557894736842)"><path fill="rgb(0,0,0)" stroke="none" paint-order="stroke fill markers" d=" M 0.463 -0.339 L 0.463 -0.339 L 0.464 -0.339 Q 0.491 -0.443 0.491 -0.51 Q 0.491 -0.637 0.40900000000000003 -0.678 Q 0.381 -0.6910000000000001 0.34800000000000003 -0.6910000000000001 Q 0.252 -0.6910000000000001 0.20400000000000001 -0.611 Q 0.25 -0.611 0.251 -0.5760000000000001 Q 0.251 -0.547 0.224 -0.531 Q 0.212 -0.523 0.197 -0.523 Q 0.163 -0.528 0.159 -0.558 Q 0.159 -0.589 0.189 -0.633 Q 0.246 -0.716 0.35000000000000003 -0.716 Q 0.457 -0.716 0.518 -0.628 L 0.519 -0.627 Q 0.5660000000000001 -0.558 0.5660000000000001 -0.457 Q 0.5660000000000001 -0.35000000000000003 0.513 -0.223 Q 0.438 -0.046 0.314 0.005 Q 0.271 0.022 0.224 0.022 Q 0.109 0.022 0.061 -0.074 Q 0.04 -0.115 0.04 -0.156 Q 0.04 -0.262 0.115 -0.34700000000000003 Q 0.122 -0.355 0.13 -0.363 Q 0.229 -0.454 0.334 -0.457 Q 0.418 -0.457 0.451 -0.379 Q 0.46 -0.36 0.463 -0.339 M 0.227 -0.006 L 0.227 -0.006 Q 0.334 -0.006 0.401 -0.14100000000000001 Q 0.442 -0.231 0.445 -0.303 Q 0.445 -0.392 0.388 -0.423 Q 0.365 -0.435 0.334 -0.435 Q 0.245 -0.435 0.183 -0.34600000000000003 Q 0.14300000000000002 -0.28700000000000003 0.121 -0.156 Q 0.117 -0.13 0.117 -0.11900000000000001 Q 0.117 -0.051000000000000004 0.164 -0.022 Q 0.189 -0.006 0.227 -0.006 Z"/></g><g transform="translate(3.219237726941053,17.32557894736842)"><path fill="rgb(0,0,0)" stroke="none" paint-order="stroke fill markers" d=" M 0.176 -0.386 L 0.176 0 L 0.101 0 L 0.101 -0.386 L 0.027 -0.386 L 0.027 -0.444 L 0.101 -0.444 L 0.101 -0.534 Q 0.101 -0.608 0.1485 -0.6565 Q 0.196 -0.705 0.267 -0.705 Q 0.303 -0.705 0.34700000000000003 -0.6940000000000001 L 0.34700000000000003 -0.627 Q 0.308 -0.644 0.266 -0.644 Q 0.253 -0.644 0.24 -0.6415 Q 0.227 -0.639 0.2105 -0.6315000000000001 Q 0.194 -0.624 0.1835 -0.6065 Q 0.17300000000000001 -0.589 0.17300000000000001 -0.5630000000000001 L 0.17300000000000001 -0.444 L 0.28600000000000003 -0.444 L 0.28600000000000003 -0.386 L 0.176 -0.386 Z"/></g><rect fill="rgb(0,0,0)" stroke="none" x="2.5892377269410525" y="17.73208744736842" width="1.048" height="0.039999"/><g transform="translate(2.5892377269410525,18.68803794736842)"><path fill="rgb(0,0,0)" stroke="none" paint-order="stroke fill markers" d=" M 0.463 -0.339 L 0.463 -0.339 L 0.464 -0.339 Q 0.491 -0.443 0.491 -0.51 Q 0.491 -0.637 0.40900000000000003 -0.678 Q 0.381 -0.6910000000000001 0.34800000000000003 -0.6910000000000001 Q 0.252 -0.6910000000000001 0.20400000000000001 -0.611 Q 0.25 -0.611 0.251 -0.5760000000000001 Q 0.251 -0.547 0.224 -0.531 Q 0.212 -0.523 0.197 -0.523 Q 0.163 -0.528 0.159 -0.558 Q 0.159 -0.589 0.189 -0.633 Q 0.246 -0.716 0.35000000000000003 -0.716 Q 0.457 -0.716 0.518 -0.628 L 0.519 -0.627 Q 0.5660000000000001 -0.558 0.5660000000000001 -0.457 Q 0.5660000000000001 -0.35000000000000003 0.513 -0.223 Q 0.438 -0.046 0.314 0.005 Q 0.271 0.022 0.224 0.022 Q 0.109 0.022 0.061 -0.074 Q 0.04 -0.115 0.04 -0.156 Q 0.04 -0.262 0.115 -0.34700000000000003 Q 0.122 -0.355 0.13 -0.363 Q 0.229 -0.454 0.334 -0.457 Q 0.418 -0.457 0.451 -0.379 Q 0.46 -0.36 0.463 -0.339 M 0.227 -0.006 L 0.227 -0.006 Q 0.334 -0.006 0.401 -0.14100000000000001 Q 0.442 -0.231 0.445 -0.303 Q 0.445 -0.392 0.388 -0.423 Q 0.365 -0.435 0.334 -0.435 Q 0.245 -0.435 0.183 -0.34600000000000003 Q 0.14300000000000002 -0.28700000000000003 0.121 -0.156 Q 0.117 -0.13 0.117 -0.11900000000000001 Q 0.117 -0.051000000000000004 0.164 -0.022 Q 0.189 -0.006 0.227 -0.006 Z"/></g><g transform="translate(3.1762377269410527,18.68803794736842)"><path fill="rgb(0,0,0)" stroke="none" paint-order="stroke fill markers" d=" M 0.26 -0.229 L 0.46 0 L 0.377 0 L 0.227 -0.188 L 0.082 0 L 0 0 L 0.194 -0.229 L 0.006 -0.444 L 0.089 -0.444 L 0.227 -0.279 L 0.361 -0.444 L 0.443 -0.444 L 0.26 -0.229 Z"/></g><g transform="translate(3.9779374421861986,18.002086947368422)"><path fill="rgb(0,0,0)" stroke="none" paint-order="stroke fill markers" d=" M 0.687 -0.33 L 0.09 -0.33 Q 0.056 -0.33 0.056 -0.35000000000000003 Q 0.056 -0.37 0.089 -0.37 L 0.6880000000000001 -0.37 Q 0.721 -0.37 0.721 -0.35000000000000003 Q 0.721 -0.33 0.687 -0.33 M 0.6880000000000001 -0.13 L 0.089 -0.13 Q 0.056 -0.13 0.056 -0.15 Q 0.056 -0.17 0.09 -0.17 L 0.687 -0.17 Q 0.721 -0.17 0.721 -0.15 Q 0.721 -0.13 0.6880000000000001 -0.13 Z"/></g><g transform="translate(5.033715219963976,18.002086947368422)"><path fill="rgb(0,0,0)" stroke="none" paint-order="stroke fill markers" d=" M 0.299 -0.678 L 0.299 -0.058 L 0.424 -0.058 L 0.424 0 L 0.095 0 L 0.095 -0.058 L 0.22 -0.058 L 0.22 -0.578 Q 0.169 -0.556 0.089 -0.554 L 0.089 -0.612 Q 0.22 -0.617 0.279 -0.678 L 0.299 -0.678 Z"/></g><g transform="translate(5.533715219963976,18.002086947368422)"><path fill="rgb(0,0,0)" stroke="none" paint-order="stroke fill markers" d=" M 0.457 -0.326 Q 0.457 -0.17500000000000002 0.417 -0.088 Q 0.393 -0.036000000000000004 0.34850000000000003 -0.007 Q 0.304 0.022 0.249 0.022 Q 0.217 0.022 0.1875 0.012 Q 0.158 0.002 0.1265 -0.027 Q 0.095 -0.056 0.076 -0.101 Q 0.042 -0.184 0.042 -0.326 Q 0.042 -0.47800000000000004 0.08 -0.562 Q 0.108 -0.624 0.154 -0.651 Q 0.2 -0.678 0.25 -0.678 Q 0.294 -0.678 0.3385 -0.6545 Q 0.383 -0.631 0.41100000000000003 -0.579 Q 0.457 -0.49 0.457 -0.326 M 0.25 -0.039 Q 0.33 -0.039 0.361 -0.146 Q 0.379 -0.209 0.379 -0.338 Q 0.379 -0.467 0.36 -0.523 Q 0.354 -0.538 0.34950000000000003 -0.5465 Q 0.34500000000000003 -0.555 0.332 -0.5750000000000001 Q 0.319 -0.595 0.2975 -0.606 Q 0.276 -0.617 0.249 -0.617 Q 0.169 -0.617 0.137 -0.516 Q 0.12 -0.461 0.12 -0.338 Q 0.12 -0.21 0.137 -0.149 Q 0.168 -0.039 0.25 -0.039 Z"/></g></g><g transform="scale(19,19)"><g transform="translate(3.8107640427305265,10.693999999999999)"><path fill="rgb(0,0,0)" stroke="none" paint-order="stroke fill markers" d=" M 0.463 -0.339 L 0.463 -0.339 L 0.464 -0.339 Q 0.491 -0.443 0.491 -0.51 Q 0.491 -0.637 0.40900000000000003 -0.678 Q 0.381 -0.6910000000000001 0.34800000000000003 -0.6910000000000001 Q 0.252 -0.6910000000000001 0.20400000000000001 -0.611 Q 0.25 -0.611 0.251 -0.5760000000000001 Q 0.251 -0.547 0.224 -0.531 Q 0.212 -0.523 0.197 -0.523 Q 0.163 -0.528 0.159 -0.558 Q 0.159 -0.589 0.189 -0.633 Q 0.246 -0.716 0.35000000000000003 -0.716 Q 0.457 -0.716 0.518 -0.628 L 0.519 -0.627 Q 0.5660000000000001 -0.558 0.5660000000000001 -0.457 Q 0.5660000000000001 -0.35000000000000003 0.513 -0.223 Q 0.438 -0.046 0.314 0.005 Q 0.271 0.022 0.224 0.022 Q 0.109 0.022 0.061 -0.074 Q 0.04 -0.115 0.04 -0.156 Q 0.04 -0.262 0.115 -0.34700000000000003 Q 0.122 -0.355 0.13 -0.363 Q 0.229 -0.454 0.334 -0.457 Q 0.418 -0.457 0.451 -0.379 Q 0.46 -0.36 0.463 -0.339 M 0.227 -0.006 L 0.227 -0.006 Q 0.334 -0.006 0.401 -0.14100000000000001 Q 0.442 -0.231 0.445 -0.303 Q 0.445 -0.392 0.388 -0.423 Q 0.365 -0.435 0.334 -0.435 Q 0.245 -0.435 0.183 -0.34600000000000003 Q 0.14300000000000002 -0.28700000000000003 0.121 -0.156 Q 0.117 -0.13 0.117 -0.11900000000000001 Q 0.117 -0.051000000000000004 0.164 -0.022 Q 0.189 -0.006 0.227 -0.006 Z"/></g><g transform="translate(4.397764042730526,10.693999999999999)"><path fill="rgb(0,0,0)" stroke="none" paint-order="stroke fill markers" d=" M 0.28700000000000003 -0.683 L 0.209 -0.365 Q 0.271 -0.442 0.357 -0.442 Q 0.446 -0.442 0.467 -0.373 L 0.467 -0.372 Q 0.47200000000000003 -0.355 0.47200000000000003 -0.335 Q 0.47200000000000003 -0.279 0.41100000000000003 -0.115 Q 0.393 -0.07100000000000001 0.393 -0.044 Q 0.393 -0.011 0.417 -0.011 Q 0.47900000000000004 -0.011 0.515 -0.121 L 0.519 -0.135 Q 0.524 -0.151 0.529 -0.152 L 0.529 -0.153 L 0.534 -0.153 Q 0.546 -0.153 0.546 -0.14300000000000002 Q 0.546 -0.126 0.525 -0.08 Q 0.482 0.011 0.41500000000000004 0.011 Q 0.364 0.011 0.342 -0.032 Q 0.333 -0.05 0.333 -0.07100000000000001 Q 0.333 -0.089 0.34600000000000003 -0.126 Q 0.40800000000000003 -0.28400000000000003 0.40800000000000003 -0.35000000000000003 Q 0.40800000000000003 -0.42 0.354 -0.42 Q 0.306 -0.42 0.258 -0.385 Q 0.221 -0.356 0.193 -0.299 L 0.19 -0.293 Q 0.186 -0.269 0.179 -0.248 Q 0.17400000000000002 -0.225 0.162 -0.181 L 0.14 -0.091 L 0.121 -0.015 Q 0.114 0.006 0.09 0.01 Q 0.08700000000000001 0.011 0.084 0.011 Q 0.06 0.011 0.056 -0.01 Q 0.055 -0.014 0.055 -0.017 Q 0.055 -0.025 0.059000000000000004 -0.039 L 0.20400000000000001 -0.615 L 0.20700000000000002 -0.635 Q 0.20700000000000002 -0.646 0.193 -0.649 L 0.193 -0.649 Q 0.181 -0.652 0.157 -0.652 Q 0.135 -0.652 0.133 -0.664 Q 0.133 -0.681 0.152 -0.684 L 0.274 -0.6940000000000001 Q 0.28700000000000003 -0.6940000000000001 0.28700000000000003 -0.683 Z"/></g><rect fill="rgb(0,0,0)" stroke="none" x="3.7997640427305264" y="11.100508499999998" width="1.185" height="0.039999"/><g transform="translate(3.7997640427305264,12.056458999999997)"><path fill="rgb(0,0,0)" stroke="none" paint-order="stroke fill markers" d=" M 0.463 -0.339 L 0.463 -0.339 L 0.464 -0.339 Q 0.491 -0.443 0.491 -0.51 Q 0.491 -0.637 0.40900000000000003 -0.678 Q 0.381 -0.6910000000000001 0.34800000000000003 -0.6910000000000001 Q 0.252 -0.6910000000000001 0.20400000000000001 -0.611 Q 0.25 -0.611 0.251 -0.5760000000000001 Q 0.251 -0.547 0.224 -0.531 Q 0.212 -0.523 0.197 -0.523 Q 0.163 -0.528 0.159 -0.558 Q 0.159 -0.589 0.189 -0.633 Q 0.246 -0.716 0.35000000000000003 -0.716 Q 0.457 -0.716 0.518 -0.628 L 0.519 -0.627 Q 0.5660000000000001 -0.558 0.5660000000000001 -0.457 Q 0.5660000000000001 -0.35000000000000003 0.513 -0.223 Q 0.438 -0.046 0.314 0.005 Q 0.271 0.022 0.224 0.022 Q 0.109 0.022 0.061 -0.074 Q 0.04 -0.115 0.04 -0.156 Q 0.04 -0.262 0.115 -0.34700000000000003 Q 0.122 -0.355 0.13 -0.363 Q 0.229 -0.454 0.334 -0.457 Q 0.418 -0.457 0.451 -0.379 Q 0.46 -0.36 0.463 -0.339 M 0.227 -0.006 L 0.227 -0.006 Q 0.334 -0.006 0.401 -0.14100000000000001 Q 0.442 -0.231 0.445 -0.303 Q 0.445 -0.392 0.388 -0.423 Q 0.365 -0.435 0.334 -0.435 Q 0.245 -0.435 0.183 -0.34600000000000003 Q 0.14300000000000002 -0.28700000000000003 0.121 -0.156 Q 0.117 -0.13 0.117 -0.11900000000000001 Q 0.117 -0.051000000000000004 0.164 -0.022 Q 0.189 -0.006 0.227 -0.006 Z"/></g><g transform="translate(4.386764042730526,12.056458999999997)"><path fill="rgb(0,0,0)" stroke="none" paint-order="stroke fill markers" d=" M 0.367 -0.4 L 0.367 -0.4 L 0.307 -0.083 Q 0.298 -0.021 0.271 0.059000000000000004 Q 0.261 0.088 0.251 0.108 Q 0.216 0.182 0.164 0.2 Q 0.151 0.20500000000000002 0.138 0.20500000000000002 Q 0.088 0.20500000000000002 0.064 0.171 Q 0.053 0.156 0.053 0.136 Q 0.053 0.096 0.08700000000000001 0.081 Q 0.097 0.076 0.108 0.076 Q 0.137 0.076 0.14400000000000002 0.101 Q 0.145 0.106 0.145 0.111 Q 0.145 0.145 0.115 0.159 Q 0.10400000000000001 0.164 0.09 0.165 Q 0.109 0.183 0.138 0.183 Q 0.182 0.183 0.20700000000000002 0.085 Q 0.212 0.062 0.219 0.025 L 0.225 -0.005 L 0.3 -0.4 L 0.234 -0.4 Q 0.209 -0.4 0.20700000000000002 -0.40800000000000003 L 0.20600000000000002 -0.40800000000000003 L 0.20600000000000002 -0.41200000000000003 Q 0.20600000000000002 -0.429 0.223 -0.431 L 0.223 -0.431 L 0.23600000000000002 -0.431 L 0.305 -0.431 Q 0.329 -0.556 0.338 -0.588 Q 0.368 -0.6880000000000001 0.444 -0.7030000000000001 Q 0.455 -0.705 0.465 -0.705 Q 0.517 -0.705 0.541 -0.671 L 0.541 -0.671 Q 0.552 -0.656 0.552 -0.636 Q 0.552 -0.596 0.518 -0.581 Q 0.508 -0.5760000000000001 0.497 -0.5760000000000001 Q 0.468 -0.5760000000000001 0.461 -0.601 Q 0.46 -0.606 0.46 -0.611 Q 0.46 -0.642 0.488 -0.657 Q 0.499 -0.664 0.514 -0.665 Q 0.495 -0.683 0.465 -0.683 Q 0.434 -0.683 0.418 -0.649 Q 0.41100000000000003 -0.635 0.394 -0.545 L 0.373 -0.431 L 0.456 -0.431 Q 0.481 -0.431 0.483 -0.42 Q 0.483 -0.402 0.467 -0.4 L 0.466 -0.4 L 0.453 -0.4 L 0.367 -0.4 Z"/></g><g transform="translate(5.3254637579756725,11.370508000000001)"><path fill="rgb(0,0,0)" stroke="none" paint-order="stroke fill markers" d=" M 0.687 -0.327 L 0.09 -0.327 Q 0.058 -0.327 0.056 -0.34700000000000003 Q 0.056 -0.367 0.089 -0.367 L 0.6880000000000001 -0.367 Q 0.72 -0.367 0.721 -0.34700000000000003 Q 0.721 -0.327 0.687 -0.327 M 0.6880000000000001 -0.133 L 0.089 -0.133 Q 0.057 -0.133 0.056 -0.153 Q 0.056 -0.17300000000000001 0.09 -0.17300000000000001 L 0.687 -0.17300000000000001 Q 0.719 -0.17300000000000001 0.721 -0.153 Q 0.721 -0.133 0.6880000000000001 -0.133 Z"/></g><g transform="translate(6.381241535753451,11.370508000000001)"><path fill="rgb(0,0,0)" stroke="none" paint-order="stroke fill markers" d=" M 0.46 -0.32 Q 0.46 -0.17400000000000002 0.423 -0.094 Q 0.364 0.018000000000000002 0.249 0.022 Q 0.158 0.022 0.10300000000000001 -0.05 Q 0.092 -0.063 0.084 -0.079 Q 0.039 -0.162 0.039 -0.32 Q 0.039 -0.467 0.076 -0.547 Q 0.126 -0.659 0.23800000000000002 -0.666 L 0.25 -0.666 Q 0.339 -0.666 0.395 -0.595 L 0.395 -0.594 Q 0.40900000000000003 -0.5760000000000001 0.42 -0.554 Q 0.46 -0.46900000000000003 0.46 -0.32 M 0.249 0 L 0.249 0 Q 0.312 0 0.34600000000000003 -0.061 Q 0.36 -0.088 0.366 -0.125 Q 0.377 -0.189 0.377 -0.332 Q 0.377 -0.47100000000000003 0.367 -0.527 Q 0.34900000000000003 -0.622 0.275 -0.641 Q 0.262 -0.644 0.249 -0.644 Q 0.179 -0.644 0.147 -0.5740000000000001 Q 0.136 -0.55 0.13 -0.516 Q 0.122 -0.462 0.122 -0.332 Q 0.122 -0.181 0.133 -0.121 Q 0.151 -0.025 0.221 -0.004 Q 0.23500000000000001 0 0.249 0 Z"/></g></g></g></g></svg>