<svg version="1.1" xmlns="http://www.w3.org/2000/svg" xmlns:xlink="http://www.w3.org/1999/xlink" width="554" height="480"><defs><clipPath id="FodPJFhxwpvF"><path fill="none" stroke="none" d=" M 0 0 L 554 0 L 554 480 L 0 480 L 0 0 Z"/></clipPath></defs><g transform="scale(1,1)" clip-path="url(#FodPJFhxwpvF)"><g><rect fill="rgb(255,255,255)" stroke="none" x="0" y="0" width="554" height="480" fill-opacity="1"/><path fill="none" stroke="rgb(0,0,0)" paint-order="fill stroke markers" d=" M 171.28739733516258 220.64854353856919 C 171.28739733516258 201.6904800109072 136.9222814473817 186.32193297495996 94.53076267777007 186.32193297495996 C 52.13924390815845 186.32193297495996 17.77412802037756 201.6904800109072 17.77412802037756 220.64854353856919 C 17.77412802037756 239.60660706623116 52.13924390815845 254.9751541021784 94.53076267777007 254.9751541021784 C 136.9222814473817 254.9751541021784 171.28739733516258 239.60660706623116 171.28739733516258 220.64854353856919 Z" stroke-opacity="0.6980392156862745" stroke-linecap="round" stroke-linejoin="round" stroke-miterlimit="10" stroke-width="2.5"/><path fill="none" stroke="rgb(0,0,0)" paint-order="fill stroke markers" d=" M 175.29327172255663 436.90619008930594 C 175.29327172255663 427.427158325475 164.426067896454 419.7428848075014 151.02069261787892 419.7428848075014 C 137.61531733930386 419.7428848075014 126.74811351320122 427.427158325475 126.74811351320122 436.90619008930594 C 126.74811351320122 446.3852218531369 137.61531733930386 454.06949537111046 151.02069261787892 454.06949537111046 C 164.426067896454 454.06949537111046 175.29327172255663 446.3852218531369 175.29327172255663 436.90619008930594 Z" stroke-opacity="0.6980392156862745" stroke-linecap="round" stroke-linejoin="round" stroke-miterlimit="10" stroke-width="2.5"/><path fill="none" stroke="rgb(0,0,0)" paint-order="fill stroke markers" d=" M 449.90615623142867 436.90619008930594 C 449.90615623142867 427.427158325475 439.0389524053261 419.7428848075014 425.633577126751 419.7428848075014 C 412.2282018481759 419.7428848075014 401.3609980220733 427.427158325475 401.3609980220733 436.90619008930594 C 401.3609980220733 446.3852218531369 412.2282018481759 454.06949537111046 425.633577126751 454.06949537111046 C 439.0389524053261 454.06949537111046 449.90615623142867 446.3852218531369 449.90615623142867 436.90619008930594 Z" stroke-opacity="0.6980392156862745" stroke-linecap="round" stroke-linejoin="round" stroke-miterlimit="10" stroke-width="2.5"/><path fill="none" stroke="rgb(0,0,0)" paint-order="fill stroke markers" d=" M 532.1413481094307 220.64854353856916 C 532.1413481094307 201.69048001090727 504.435305925687 186.3219329749601 470.25817085944266 186.3219329749601 C 436.08103579319834 186.3219329749601 408.3749936094545 201.69048001090727 408.3749936094545 220.64854353856916 C 408.3749936094545 239.60660706623105 436.08103579319834 254.9751541021782 470.25817085944266 254.9751541021782 C 504.435305925687 254.9751541021782 532.1413481094307 239.60660706623105 532.1413481094307 220.64854353856916 Z" stroke-opacity="0.6980392156862745" stroke-linecap="round" stroke-linejoin="round" stroke-miterlimit="10" stroke-width="2.5"/><path fill="none" stroke="rgb(0,0,0)" paint-order="fill stroke markers" d=" M 395.86733402730033 49.0154907205241 C 395.86733402730033 31.90313958863459 347.7199468593798 18.030838080500416 288.32713487231496 18.030838080500416 C 228.93432288525014 18.030838080500416 180.78693571732958 31.90313958863459 180.78693571732958 49.0154907205241 C 180.78693571732958 66.12784185241361 228.93432288525014 80.00014336054778 288.32713487231496 80.00014336054778 C 347.7199468593798 80.00014336054778 395.86733402730033 66.12784185241361 395.86733402730033 49.0154907205241 Z" stroke-opacity="0.6980392156862745" stroke-linecap="round" stroke-linejoin="round" stroke-miterlimit="10" stroke-width="2.5"/><path fill="rgb(0,0,0)" stroke="none" paint-order="stroke fill markers" d=" M 287.99892176468455 78.7498968517331 C 287.7498030558424 78.7498968517331 287.49824097945856 78.82416230326574 287.2792312977029 78.97872996823092 L 144.5477939696601 179.71247291542048 L 142.81794908414784 177.26142483917488 L 131.37929023989858 190.53619729842546 L 147.71917625976587 184.20606105520403 L 145.98933137425362 181.75501297895843 L 288.7207687022964 81.0212700317689 C 289.28480056630167 80.62320046933507 289.4193395942025 79.84326316170838 289.02127003176867 79.27923129770315 C 288.7777681343 78.93420911545357 288.3913769286523 78.7498968517331 287.99892176468455 78.7498968517331 Z" fill-opacity="0.6980392156862745"/><g transform="scale(19,19)"><g transform="translate(7.600237726941052,5.957157894736842)"><path fill="rgb(0,0,0)" stroke="none" paint-order="stroke fill markers" d=" M 0.463 -0.339 L 0.463 -0.339 L 0.464 -0.339 Q 0.491 -0.443 0.491 -0.51 Q 0.491 -0.637 0.40900000000000003 -0.678 Q 0.381 -0.6910000000000001 0.34800000000000003 -0.6910000000000001 Q 0.252 -0.6910000000000001 0.20400000000000001 -0.611 Q 0.25 -0.611 0.251 -0.5760000000000001 Q 0.251 -0.547 0.224 -0.531 Q 0.212 -0.523 0.197 -0.523 Q 0.163 -0.528 0.159 -0.558 Q 0.159 -0.589 0.189 -0.633 Q 0.246 -0.716 0.35000000000000003 -0.716 Q 0.457 -0.716 0.518 -0.628 L 0.519 -0.627 Q 0.5660000000000001 -0.558 0.5660000000000001 -0.457 Q 0.5660000000000001 -0.35000000000000003 0.513 -0.223 Q 0.438 -0.046 0.314 0.005 Q 0.271 0.022 0.224 0.022 Q 0.109 0.022 0.061 -0.074 Q 0.04 -0.115 0.04 -0.156 Q 0.04 -0.262 0.115 -0.34700000000000003 Q 0.122 -0.355 0.13 -0.363 Q 0.229 -0.454 0.334 -0.457 Q 0.418 -0.457 0.451 -0.379 Q 0.46 -0.36 0.463 -0.339 M 0.227 -0.006 L 0.227 -0.006 Q 0.334 -0.006 0.401 -0.14100000000000001 Q 0.442 -0.231 0.445 -0.303 Q 0.445 -0.392 0.388 -0.423 Q 0.365 -0.435 0.334 -0.435 Q 0.245 -0.435 0.183 -0.34600000000000003 Q 0.14300000000000002 -0.28700000000000003 0.121 -0.156 Q 0.117 -0.13 0.117 -0.11900000000000001 Q 0.117 -0.051000000000000004 0.164 -0.022 Q 0.189 -0.006 0.227 -0.006 Z"/></g><g transform="translate(8.187237726941053,5.957157894736842)"><path fill="rgb(0,0,0)" stroke="none" paint-order="stroke fill markers" d=" M 0.28700000000000003 -0.683 L 0.209 -0.365 Q 0.271 -0.442 0.357 -0.442 Q 0.446 -0.442 0.467 -0.373 L 0.467 -0.372 Q 0.47200000000000003 -0.355 0.47200000000000003 -0.335 Q 0.47200000000000003 -0.279 0.41100000000000003 -0.115 Q 0.393 -0.07100000000000001 0.393 -0.044 Q 0.393 -0.011 0.417 -0.011 Q 0.47900000000000004 -0.011 0.515 -0.121 L 0.519 -0.135 Q 0.524 -0.151 0.529 -0.152 L 0.529 -0.153 L 0.534 -0.153 Q 0.546 -0.153 0.546 -0.14300000000000002 Q 0.546 -0.126 0.525 -0.08 Q 0.482 0.011 0.41500000000000004 0.011 Q 0.364 0.011 0.342 -0.032 Q 0.333 -0.05 0.333 -0.07100000000000001 Q 0.333 -0.089 0.34600000000000003 -0.126 Q 0.40800000000000003 -0.28400000000000003 0.40800000000000003 -0.35000000000000003 Q 0.40800000000000003 -0.42 0.354 -0.42 Q 0.306 -0.42 0.258 -0.385 Q 0.221 -0.356 0.193 -0.299 L 0.19 -0.293 Q 0.186 -0.269 0.179 -0.248 Q 0.17400000000000002 -0.225 0.162 -0.181 L 0.14 -0.091 L 0.121 -0.015 Q 0.114 0.006 0.09 0.01 Q 0.08700000000000001 0.011 0.084 0.011 Q 0.06 0.011 0.056 -0.01 Q 0.055 -0.014 0.055 -0.017 Q 0.055 -0.025 0.059000000000000004 -0.039 L 0.20400000000000001 -0.615 L 0.20700000000000002 -0.635 Q 0.20700000000000002 -0.646 0.193 -0.649 L 0.193 -0.649 Q 0.181 -0.652 0.157 -0.652 Q 0.135 -0.652 0.133 -0.664 Q 0.133 -0.681 0.152 -0.684 L 0.274 -0.6940000000000001 Q 0.28700000000000003 -0.6940000000000001 0.28700000000000003 -0.683 Z"/></g><rect fill="rgb(0,0,0)" stroke="none" x="7.589237726941052" y="6.363666394736843" width="1.185" height="0.039999"/><g transform="translate(7.589237726941052,7.319616894736843)"><path fill="rgb(0,0,0)" stroke="none" paint-order="stroke fill markers" d=" M 0.463 -0.339 L 0.463 -0.339 L 0.464 -0.339 Q 0.491 -0.443 0.491 -0.51 Q 0.491 -0.637 0.40900000000000003 -0.678 Q 0.381 -0.6910000000000001 0.34800000000000003 -0.6910000000000001 Q 0.252 -0.6910000000000001 0.20400000000000001 -0.611 Q 0.25 -0.611 0.251 -0.5760000000000001 Q 0.251 -0.547 0.224 -0.531 Q 0.212 -0.523 0.197 -0.523 Q 0.163 -0.528 0.159 -0.558 Q 0.159 -0.589 0.189 -0.633 Q 0.246 -0.716 0.35000000000000003 -0.716 Q 0.457 -0.716 0.518 -0.628 L 0.519 -0.627 Q 0.5660000000000001 -0.558 0.5660000000000001 -0.457 Q 0.5660000000000001 -0.35000000000000003 0.513 -0.223 Q 0.438 -0.046 0.314 0.005 Q 0.271 0.022 0.224 0.022 Q 0.109 0.022 0.061 -0.074 Q 0.04 -0.115 0.04 -0.156 Q 0.04 -0.262 0.115 -0.34700000000000003 Q 0.122 -0.355 0.13 -0.363 Q 0.229 -0.454 0.334 -0.457 Q 0.418 -0.457 0.451 -0.379 Q 0.46 -0.36 0.463 -0.339 M 0.227 -0.006 L 0.227 -0.006 Q 0.334 -0.006 0.401 -0.14100000000000001 Q 0.442 -0.231 0.445 -0.303 Q 0.445 -0.392 0.388 -0.423 Q 0.365 -0.435 0.334 -0.435 Q 0.245 -0.435 0.183 -0.34600000000000003 Q 0.14300000000000002 -0.28700000000000003 0.121 -0.156 Q 0.117 -0.13 0.117 -0.11900000000000001 Q 0.117 -0.051000000000000004 0.164 -0.022 Q 0.189 -0.006 0.227 -0.006 Z"/></g><g transform="translate(8.176237726941052,7.319616894736843)"><path fill="rgb(0,0,0)" stroke="none" paint-order="stroke fill markers" d=" M 0.367 -0.4 L 0.367 -0.4 L 0.307 -0.083 Q 0.298 -0.021 0.271 0.059000000000000004 Q 0.261 0.088 0.251 0.108 Q 0.216 0.182 0.164 0.2 Q 0.151 0.20500000000000002 0.138 0.20500000000000002 Q 0.088 0.20500000000000002 0.064 0.171 Q 0.053 0.156 0.053 0.136 Q 0.053 0.096 0.08700000000000001 0.081 Q 0.097 0.076 0.108 0.076 Q 0.137 0.076 0.14400000000000002 0.101 Q 0.145 0.106 0.145 0.111 Q 0.145 0.145 0.115 0.159 Q 0.10400000000000001 0.164 0.09 0.165 Q 0.109 0.183 0.138 0.183 Q 0.182 0.183 0.20700000000000002 0.085 Q 0.212 0.062 0.219 0.025 L 0.225 -0.005 L 0.3 -0.4 L 0.234 -0.4 Q 0.209 -0.4 0.20700000000000002 -0.40800000000000003 L 0.20600000000000002 -0.40800000000000003 L 0.20600000000000002 -0.41200000000000003 Q 0.20600000000000002 -0.429 0.223 -0.431 L 0.223 -0.431 L 0.23600000000000002 -0.431 L 0.305 -0.431 Q 0.329 -0.556 0.338 -0.588 Q 0.368 -0.6880000000000001 0.444 -0.7030000000000001 Q 0.455 -0.705 0.465 -0.705 Q 0.517 -0.705 0.541 -0.671 L 0.541 -0.671 Q 0.552 -0.656 0.552 -0.636 Q 0.552 -0.596 0.518 -0.581 Q 0.508 -0.5760000000000001 0.497 -0.5760000000000001 Q 0.468 -0.5760000000000001 0.461 -0.601 Q 0.46 -0.606 0.46 -0.611 Q 0.46 -0.642 0.488 -0.657 Q 0.499 -0.664 0.514 -0.665 Q 0.495 -0.683 0.465 -0.683 Q 0.434 -0.683 0.418 -0.649 Q 0.41100000000000003 -0.635 0.394 -0.545 L 0.373 -0.431 L 0.456 -0.431 Q 0.481 -0.431 0.483 -0.42 Q 0.483 -0.402 0.467 -0.4 L 0.466 -0.4 L 0.453 -0.4 L 0.367 -0.4 Z"/></g><g transform="translate(9.1149374421862,6.6336658947368425)"><path fill="rgb(0,0,0)" stroke="none" paint-order="stroke fill markers" d=" M 0.687 -0.327 L 0.09 -0.327 Q 0.058 -0.327 0.056 -0.34700000000000003 Q 0.056 -0.367 0.089 -0.367 L 0.6880000000000001 -0.367 Q 0.72 -0.367 0.721 -0.34700000000000003 Q 0.721 -0.327 0.687 -0.327 M 0.6880000000000001 -0.133 L 0.089 -0.133 Q 0.057 -0.133 0.056 -0.153 Q 0.056 -0.17300000000000001 0.09 -0.17300000000000001 L 0.687 -0.17300000000000001 Q 0.719 -0.17300000000000001 0.721 -0.153 Q 0.721 -0.133 0.6880000000000001 -0.133 Z"/></g><g transform="translate(10.170715219963979,6.6336658947368425)"><path fill="rgb(0,0,0)" stroke="none" paint-order="stroke fill markers" d=" M 0.47100000000000003 -0.377 L 0.47100000000000003 -0.377 L 0.36 0.067 Q 0.34500000000000003 0.127 0.28200000000000003 0.168 Q 0.224 0.20500000000000002 0.148 0.20500000000000002 Q 0.025 0.20500000000000002 0.016 0.155 Q 0.015 0.15 0.015 0.14400000000000002 Q 0.015 0.10300000000000001 0.052000000000000005 0.089 Q 0.061 0.08600000000000001 0.069 0.08600000000000001 Q 0.1 0.08600000000000001 0.106 0.113 Q 0.107 0.117 0.107 0.121 Q 0.107 0.153 0.077 0.169 Q 0.07200000000000001 0.171 0.066 0.17300000000000001 Q 0.097 0.183 0.146 0.183 Q 0.244 0.183 0.29 0.075 L 0.323 -0.057 L 0.322 -0.058 Q 0.277 -0.008 0.221 -0.001 Q 0.213 0 0.20600000000000002 0 Q 0.136 0 0.098 -0.061 Q 0.073 -0.10200000000000001 0.073 -0.158 Q 0.073 -0.265 0.149 -0.354 Q 0.219 -0.436 0.3 -0.442 L 0.311 -0.442 Q 0.365 -0.442 0.398 -0.391 L 0.404 -0.379 Q 0.41300000000000003 -0.417 0.445 -0.422 Q 0.47100000000000003 -0.422 0.47400000000000003 -0.395 L 0.47100000000000003 -0.377 M 0.341 -0.128 L 0.341 -0.128 L 0.389 -0.319 Q 0.392 -0.331 0.392 -0.334 Q 0.392 -0.354 0.375 -0.382 L 0.375 -0.382 Q 0.363 -0.402 0.34500000000000003 -0.41200000000000003 Q 0.33 -0.42 0.312 -0.42 Q 0.26 -0.42 0.213 -0.353 Q 0.20600000000000002 -0.342 0.2 -0.331 Q 0.168 -0.271 0.149 -0.164 Q 0.14400000000000002 -0.133 0.14400000000000002 -0.114 Q 0.14400000000000002 -0.048 0.182 -0.028 Q 0.193 -0.022 0.209 -0.022 Q 0.248 -0.022 0.29 -0.058 Q 0.334 -0.096 0.341 -0.128 Z"/></g></g><path fill="rgb(0,0,0)" stroke="none" paint-order="stroke fill markers" d=" M 288.00099202323617 78.74991981000136 C 287.61805384057567 78.74991981000136 287.24009352895155 78.92526195883649 286.99493595181843 79.25679998718132 C 286.5844779186647 79.81188153359501 286.70171844076737 80.59460601502738 287.25679998718107 81.00506404818114 L 423.9936491641156 182.1158621559939 L 422.20996913335097 184.52801587162884 L 438.40572023219886 191.21831828214565 L 427.2637292205174 177.69358034399653 L 425.4800491897528 180.10573405963146 L 288.74320001281825 78.99493595181869 C 288.51965649474937 78.82963549579807 288.2591927158752 78.74991981000136 288.00099202323617 78.74991981000136 Z" fill-opacity="0.6980392156862745"/><g transform="scale(19,19)"><g transform="translate(20.168185095362105,6.062421052631579)"><path fill="rgb(0,0,0)" stroke="none" paint-order="stroke fill markers" d=" M 0.463 -0.339 L 0.463 -0.339 L 0.464 -0.339 Q 0.491 -0.443 0.491 -0.51 Q 0.491 -0.637 0.40900000000000003 -0.678 Q 0.381 -0.6910000000000001 0.34800000000000003 -0.6910000000000001 Q 0.252 -0.6910000000000001 0.20400000000000001 -0.611 Q 0.25 -0.611 0.251 -0.5760000000000001 Q 0.251 -0.547 0.224 -0.531 Q 0.212 -0.523 0.197 -0.523 Q 0.163 -0.528 0.159 -0.558 Q 0.159 -0.589 0.189 -0.633 Q 0.246 -0.716 0.35000000000000003 -0.716 Q 0.457 -0.716 0.518 -0.628 L 0.519 -0.627 Q 0.5660000000000001 -0.558 0.5660000000000001 -0.457 Q 0.5660000000000001 -0.35000000000000003 0.513 -0.223 Q 0.438 -0.046 0.314 0.005 Q 0.271 0.022 0.224 0.022 Q 0.109 0.022 0.061 -0.074 Q 0.04 -0.115 0.04 -0.156 Q 0.04 -0.262 0.115 -0.34700000000000003 Q 0.122 -0.355 0.13 -0.363 Q 0.229 -0.454 0.334 -0.457 Q 0.418 -0.457 0.451 -0.379 Q 0.46 -0.36 0.463 -0.339 M 0.227 -0.006 L 0.227 -0.006 Q 0.334 -0.006 0.401 -0.14100000000000001 Q 0.442 -0.231 0.445 -0.303 Q 0.445 -0.392 0.388 -0.423 Q 0.365 -0.435 0.334 -0.435 Q 0.245 -0.435 0.183 -0.34600000000000003 Q 0.14300000000000002 -0.28700000000000003 0.121 -0.156 Q 0.117 -0.13 0.117 -0.11900000000000001 Q 0.117 -0.051000000000000004 0.164 -0.022 Q 0.189 -0.006 0.227 -0.006 Z"/></g><g transform="translate(20.755185095362105,6.062421052631579)"><path fill="rgb(0,0,0)" stroke="none" paint-order="stroke fill markers" d=" M 0.28700000000000003 -0.683 L 0.209 -0.365 Q 0.271 -0.442 0.357 -0.442 Q 0.446 -0.442 0.467 -0.373 L 0.467 -0.372 Q 0.47200000000000003 -0.355 0.47200000000000003 -0.335 Q 0.47200000000000003 -0.279 0.41100000000000003 -0.115 Q 0.393 -0.07100000000000001 0.393 -0.044 Q 0.393 -0.011 0.417 -0.011 Q 0.47900000000000004 -0.011 0.515 -0.121 L 0.519 -0.135 Q 0.524 -0.151 0.529 -0.152 L 0.529 -0.153 L 0.534 -0.153 Q 0.546 -0.153 0.546 -0.14300000000000002 Q 0.546 -0.126 0.525 -0.08 Q 0.482 0.011 0.41500000000000004 0.011 Q 0.364 0.011 0.342 -0.032 Q 0.333 -0.05 0.333 -0.07100000000000001 Q 0.333 -0.089 0.34600000000000003 -0.126 Q 0.40800000000000003 -0.28400000000000003 0.40800000000000003 -0.35000000000000003 Q 0.40800000000000003 -0.42 0.354 -0.42 Q 0.306 -0.42 0.258 -0.385 Q 0.221 -0.356 0.193 -0.299 L 0.19 -0.293 Q 0.186 -0.269 0.179 -0.248 Q 0.17400000000000002 -0.225 0.162 -0.181 L 0.14 -0.091 L 0.121 -0.015 Q 0.114 0.006 0.09 0.01 Q 0.08700000000000001 0.011 0.084 0.011 Q 0.06 0.011 0.056 -0.01 Q 0.055 -0.014 0.055 -0.017 Q 0.055 -0.025 0.059000000000000004 -0.039 L 0.20400000000000001 -0.615 L 0.20700000000000002 -0.635 Q 0.20700000000000002 -0.646 0.193 -0.649 L 0.193 -0.649 Q 0.181 -0.652 0.157 -0.652 Q 0.135 -0.652 0.133 -0.664 Q 0.133 -0.681 0.152 -0.684 L 0.274 -0.6940000000000001 Q 0.28700000000000003 -0.6940000000000001 0.28700000000000003 -0.683 Z"/></g><rect fill="rgb(0,0,0)" stroke="none" x="20.168185095362105" y="6.468929552631579" width="1.163" height="0.039999"/><g transform="translate(20.199685095362106,7.424880052631579)"><path fill="rgb(0,0,0)" stroke="none" paint-order="stroke fill markers" d=" M 0.463 -0.339 L 0.463 -0.339 L 0.464 -0.339 Q 0.491 -0.443 0.491 -0.51 Q 0.491 -0.637 0.40900000000000003 -0.678 Q 0.381 -0.6910000000000001 0.34800000000000003 -0.6910000000000001 Q 0.252 -0.6910000000000001 0.20400000000000001 -0.611 Q 0.25 -0.611 0.251 -0.5760000000000001 Q 0.251 -0.547 0.224 -0.531 Q 0.212 -0.523 0.197 -0.523 Q 0.163 -0.528 0.159 -0.558 Q 0.159 -0.589 0.189 -0.633 Q 0.246 -0.716 0.35000000000000003 -0.716 Q 0.457 -0.716 0.518 -0.628 L 0.519 -0.627 Q 0.5660000000000001 -0.558 0.5660000000000001 -0.457 Q 0.5660000000000001 -0.35000000000000003 0.513 -0.223 Q 0.438 -0.046 0.314 0.005 Q 0.271 0.022 0.224 0.022 Q 0.109 0.022 0.061 -0.074 Q 0.04 -0.115 0.04 -0.156 Q 0.04 -0.262 0.115 -0.34700000000000003 Q 0.122 -0.355 0.13 -0.363 Q 0.229 -0.454 0.334 -0.457 Q 0.418 -0.457 0.451 -0.379 Q 0.46 -0.36 0.463 -0.339 M 0.227 -0.006 L 0.227 -0.006 Q 0.334 -0.006 0.401 -0.14100000000000001 Q 0.442 -0.231 0.445 -0.303 Q 0.445 -0.392 0.388 -0.423 Q 0.365 -0.435 0.334 -0.435 Q 0.245 -0.435 0.183 -0.34600000000000003 Q 0.14300000000000002 -0.28700000000000003 0.121 -0.156 Q 0.117 -0.13 0.117 -0.11900000000000001 Q 0.117 -0.051000000000000004 0.164 -0.022 Q 0.189 -0.006 0.227 -0.006 Z"/></g><g transform="translate(20.786685095362106,7.424880052631579)"><path fill="rgb(0,0,0)" stroke="none" paint-order="stroke fill markers" d=" M 0.47100000000000003 -0.377 L 0.47100000000000003 -0.377 L 0.36 0.067 Q 0.34500000000000003 0.127 0.28200000000000003 0.168 Q 0.224 0.20500000000000002 0.148 0.20500000000000002 Q 0.025 0.20500000000000002 0.016 0.155 Q 0.015 0.15 0.015 0.14400000000000002 Q 0.015 0.10300000000000001 0.052000000000000005 0.089 Q 0.061 0.08600000000000001 0.069 0.08600000000000001 Q 0.1 0.08600000000000001 0.106 0.113 Q 0.107 0.117 0.107 0.121 Q 0.107 0.153 0.077 0.169 Q 0.07200000000000001 0.171 0.066 0.17300000000000001 Q 0.097 0.183 0.146 0.183 Q 0.244 0.183 0.29 0.075 L 0.323 -0.057 L 0.322 -0.058 Q 0.277 -0.008 0.221 -0.001 Q 0.213 0 0.20600000000000002 0 Q 0.136 0 0.098 -0.061 Q 0.073 -0.10200000000000001 0.073 -0.158 Q 0.073 -0.265 0.149 -0.354 Q 0.219 -0.436 0.3 -0.442 L 0.311 -0.442 Q 0.365 -0.442 0.398 -0.391 L 0.404 -0.379 Q 0.41300000000000003 -0.417 0.445 -0.422 Q 0.47100000000000003 -0.422 0.47400000000000003 -0.395 L 0.47100000000000003 -0.377 M 0.341 -0.128 L 0.341 -0.128 L 0.389 -0.319 Q 0.392 -0.331 0.392 -0.334 Q 0.392 -0.354 0.375 -0.382 L 0.375 -0.382 Q 0.363 -0.402 0.34500000000000003 -0.41200000000000003 Q 0.33 -0.42 0.312 -0.42 Q 0.26 -0.42 0.213 -0.353 Q 0.20600000000000002 -0.342 0.2 -0.331 Q 0.168 -0.271 0.149 -0.164 Q 0.14400000000000002 -0.133 0.14400000000000002 -0.114 Q 0.14400000000000002 -0.048 0.182 -0.028 Q 0.193 -0.022 0.209 -0.022 Q 0.248 -0.022 0.29 -0.058 Q 0.334 -0.096 0.341 -0.128 Z"/></g><g transform="translate(21.671884810607253,6.738929052631579)"><path fill="rgb(0,0,0)" stroke="none" paint-order="stroke fill markers" d=" M 0.687 -0.327 L 0.09 -0.327 Q 0.058 -0.327 0.056 -0.34700000000000003 Q 0.056 -0.367 0.089 -0.367 L 0.6880000000000001 -0.367 Q 0.72 -0.367 0.721 -0.34700000000000003 Q 0.721 -0.327 0.687 -0.327 M 0.6880000000000001 -0.133 L 0.089 -0.133 Q 0.057 -0.133 0.056 -0.153 Q 0.056 -0.17300000000000001 0.09 -0.17300000000000001 L 0.687 -0.17300000000000001 Q 0.719 -0.17300000000000001 0.721 -0.153 Q 0.721 -0.133 0.6880000000000001 -0.133 Z"/></g><g transform="translate(22.72766258838503,6.738929052631579)"><path fill="rgb(0,0,0)" stroke="none" paint-order="stroke fill markers" d=" M 0.367 -0.4 L 0.367 -0.4 L 0.307 -0.083 Q 0.298 -0.021 0.271 0.059000000000000004 Q 0.261 0.088 0.251 0.108 Q 0.216 0.182 0.164 0.2 Q 0.151 0.20500000000000002 0.138 0.20500000000000002 Q 0.088 0.20500000000000002 0.064 0.171 Q 0.053 0.156 0.053 0.136 Q 0.053 0.096 0.08700000000000001 0.081 Q 0.097 0.076 0.108 0.076 Q 0.137 0.076 0.14400000000000002 0.101 Q 0.145 0.106 0.145 0.111 Q 0.145 0.145 0.115 0.159 Q 0.10400000000000001 0.164 0.09 0.165 Q 0.109 0.183 0.138 0.183 Q 0.182 0.183 0.20700000000000002 0.085 Q 0.212 0.062 0.219 0.025 L 0.225 -0.005 L 0.3 -0.4 L 0.234 -0.4 Q 0.209 -0.4 0.20700000000000002 -0.40800000000000003 L 0.20600000000000002 -0.40800000000000003 L 0.20600000000000002 -0.41200000000000003 Q 0.20600000000000002 -0.429 0.223 -0.431 L 0.223 -0.431 L 0.23600000000000002 -0.431 L 0.305 -0.431 Q 0.329 -0.556 0.338 -0.588 Q 0.368 -0.6880000000000001 0.444 -0.7030000000000001 Q 0.455 -0.705 0.465 -0.705 Q 0.517 -0.705 0.541 -0.671 L 0.541 -0.671 Q 0.552 -0.656 0.552 -0.636 Q 0.552 -0.596 0.518 -0.581 Q 0.508 -0.5760000000000001 0.497 -0.5760000000000001 Q 0.468 -0.5760000000000001 0.461 -0.601 Q 0.46 -0.606 0.46 -0.611 Q 0.46 -0.642 0.488 -0.657 Q 0.499 -0.664 0.514 -0.665 Q 0.495 -0.683 0.465 -0.683 Q 0.434 -0.683 0.418 -0.649 Q 0.41100000000000003 -0.635 0.394 -0.545 L 0.373 -0.431 L 0.456 -0.431 Q 0.481 -0.431 0.483 -0.42 Q 0.483 -0.402 0.467 -0.4 L 0.466 -0.4 L 0.453 -0.4 L 0.367 -0.4 Z"/></g></g><path fill="rgb(0,0,0)" stroke="none" paint-order="stroke fill markers" d=" M 94.0062534428719 253.72401198606934 C 93.87071261941884 253.72401198606934 93.73286154940716 253.7462294744669 93.59756565009161 253.79302899089907 C 92.94513871641234 254.0187066733565 92.59919009510993 254.7305511123145 92.82486777756735 255.38297804599375 L 144.2618068345686 404.08551726645635 L 144.26180683456857 404.08551726645635 L 141.42663052142586 405.06621868554083 L 151.0004383398569 419.74289078298 L 149.45963007533027 402.28756466480144 L 146.62445376218756 403.2682660838859 L 146.62445376218753 403.2682660838859 L 95.1875147051863 254.56572686342332 C 95.00863653916107 254.0485958290596 94.52432063179178 253.72401198606934 94.0062534428719 253.72401198606934 Z" fill-opacity="0.6980392156862745"/><path fill="rgb(0,0,0)" stroke="none" paint-order="stroke fill markers" d=" M 94.00715297656247 253.72407692897653 C 93.54784165379921 253.72407692897653 93.1057547177518 253.97820934781308 92.88717247592874 254.41730936609238 C 92.5795260730874 255.03532636502385 92.83113115382919 255.7857248173153 93.44914815276067 256.09337122015665 L 409.23782625432534 413.291718585911 L 409.2378262543253 413.291718585911 L 407.90092284164655 415.9773636229864 L 425.01352455303555 419.74848582564255 L 411.6888158442364 408.36803601793935 L 410.35191243155765 411.05368105501475 L 410.3519124315576 411.05368105501475 L 94.56323432999298 253.85533368926045 C 94.38431734934082 253.76626952824216 94.19430531458829 253.72407692897653 94.00715297656247 253.72407692897653 Z" fill-opacity="0.6980392156862745"/><g transform="scale(19,19)"><g transform="translate(10.641869305888422,14.536105263157893)"><path fill="rgb(0,0,0)" stroke="none" paint-order="stroke fill markers" d=" M 0.463 -0.339 L 0.463 -0.339 L 0.464 -0.339 Q 0.491 -0.443 0.491 -0.51 Q 0.491 -0.637 0.40900000000000003 -0.678 Q 0.381 -0.6910000000000001 0.34800000000000003 -0.6910000000000001 Q 0.252 -0.6910000000000001 0.20400000000000001 -0.611 Q 0.25 -0.611 0.251 -0.5760000000000001 Q 0.251 -0.547 0.224 -0.531 Q 0.212 -0.523 0.197 -0.523 Q 0.163 -0.528 0.159 -0.558 Q 0.159 -0.589 0.189 -0.633 Q 0.246 -0.716 0.35000000000000003 -0.716 Q 0.457 -0.716 0.518 -0.628 L 0.519 -0.627 Q 0.5660000000000001 -0.558 0.5660000000000001 -0.457 Q 0.5660000000000001 -0.35000000000000003 0.513 -0.223 Q 0.438 -0.046 0.314 0.005 Q 0.271 0.022 0.224 0.022 Q 0.109 0.022 0.061 -0.074 Q 0.04 -0.115 0.04 -0.156 Q 0.04 -0.262 0.115 -0.34700000000000003 Q 0.122 -0.355 0.13 -0.363 Q 0.229 -0.454 0.334 -0.457 Q 0.418 -0.457 0.451 -0.379 Q 0.46 -0.36 0.463 -0.339 M 0.227 -0.006 L 0.227 -0.006 Q 0.334 -0.006 0.401 -0.14100000000000001 Q 0.442 -0.231 0.445 -0.303 Q 0.445 -0.392 0.388 -0.423 Q 0.365 -0.435 0.334 -0.435 Q 0.245 -0.435 0.183 -0.34600000000000003 Q 0.14300000000000002 -0.28700000000000003 0.121 -0.156 Q 0.117 -0.13 0.117 -0.11900000000000001 Q 0.117 -0.051000000000000004 0.164 -0.022 Q 0.189 -0.006 0.227 -0.006 Z"/></g><g transform="translate(11.228869305888422,14.536105263157893)"><path fill="rgb(0,0,0)" stroke="none" paint-order="stroke fill markers" d=" M 0.367 -0.4 L 0.367 -0.4 L 0.307 -0.083 Q 0.298 -0.021 0.271 0.059000000000000004 Q 0.261 0.088 0.251 0.108 Q 0.216 0.182 0.164 0.2 Q 0.151 0.20500000000000002 0.138 0.20500000000000002 Q 0.088 0.20500000000000002 0.064 0.171 Q 0.053 0.156 0.053 0.136 Q 0.053 0.096 0.08700000000000001 0.081 Q 0.097 0.076 0.108 0.076 Q 0.137 0.076 0.14400000000000002 0.101 Q 0.145 0.106 0.145 0.111 Q 0.145 0.145 0.115 0.159 Q 0.10400000000000001 0.164 0.09 0.165 Q 0.109 0.183 0.138 0.183 Q 0.182 0.183 0.20700000000000002 0.085 Q 0.212 0.062 0.219 0.025 L 0.225 -0.005 L 0.3 -0.4 L 0.234 -0.4 Q 0.209 -0.4 0.20700000000000002 -0.40800000000000003 L 0.20600000000000002 -0.40800000000000003 L 0.20600000000000002 -0.41200000000000003 Q 0.20600000000000002 -0.429 0.223 -0.431 L 0.223 -0.431 L 0.23600000000000002 -0.431 L 0.305 -0.431 Q 0.329 -0.556 0.338 -0.588 Q 0.368 -0.6880000000000001 0.444 -0.7030000000000001 Q 0.455 -0.705 0.465 -0.705 Q 0.517 -0.705 0.541 -0.671 L 0.541 -0.671 Q 0.552 -0.656 0.552 -0.636 Q 0.552 -0.596 0.518 -0.581 Q 0.508 -0.5760000000000001 0.497 -0.5760000000000001 Q 0.468 -0.5760000000000001 0.461 -0.601 Q 0.46 -0.606 0.46 -0.611 Q 0.46 -0.642 0.488 -0.657 Q 0.499 -0.664 0.514 -0.665 Q 0.495 -0.683 0.465 -0.683 Q 0.434 -0.683 0.418 -0.649 Q 0.41100000000000003 -0.635 0.394 -0.545 L 0.373 -0.431 L 0.456 -0.431 Q 0.481 -0.431 0.483 -0.42 Q 0.483 -0.402 0.467 -0.4 L 0.466 -0.4 L 0.453 -0.4 L 0.367 -0.4 Z"/></g><rect fill="rgb(0,0,0)" stroke="none" x="10.641869305888422" y="14.942613763157894" width="1.185" height="0.039999"/><g transform="translate(10.677869305888422,15.898564263157894)"><path fill="rgb(0,0,0)" stroke="none" paint-order="stroke fill markers" d=" M 0.463 -0.339 L 0.463 -0.339 L 0.464 -0.339 Q 0.491 -0.443 0.491 -0.51 Q 0.491 -0.637 0.40900000000000003 -0.678 Q 0.381 -0.6910000000000001 0.34800000000000003 -0.6910000000000001 Q 0.252 -0.6910000000000001 0.20400000000000001 -0.611 Q 0.25 -0.611 0.251 -0.5760000000000001 Q 0.251 -0.547 0.224 -0.531 Q 0.212 -0.523 0.197 -0.523 Q 0.163 -0.528 0.159 -0.558 Q 0.159 -0.589 0.189 -0.633 Q 0.246 -0.716 0.35000000000000003 -0.716 Q 0.457 -0.716 0.518 -0.628 L 0.519 -0.627 Q 0.5660000000000001 -0.558 0.5660000000000001 -0.457 Q 0.5660000000000001 -0.35000000000000003 0.513 -0.223 Q 0.438 -0.046 0.314 0.005 Q 0.271 0.022 0.224 0.022 Q 0.109 0.022 0.061 -0.074 Q 0.04 -0.115 0.04 -0.156 Q 0.04 -0.262 0.115 -0.34700000000000003 Q 0.122 -0.355 0.13 -0.363 Q 0.229 -0.454 0.334 -0.457 Q 0.418 -0.457 0.451 -0.379 Q 0.46 -0.36 0.463 -0.339 M 0.227 -0.006 L 0.227 -0.006 Q 0.334 -0.006 0.401 -0.14100000000000001 Q 0.442 -0.231 0.445 -0.303 Q 0.445 -0.392 0.388 -0.423 Q 0.365 -0.435 0.334 -0.435 Q 0.245 -0.435 0.183 -0.34600000000000003 Q 0.14300000000000002 -0.28700000000000003 0.121 -0.156 Q 0.117 -0.13 0.117 -0.11900000000000001 Q 0.117 -0.051000000000000004 0.164 -0.022 Q 0.189 -0.006 0.227 -0.006 Z"/></g><g transform="translate(11.264869305888421,15.898564263157894)"><path fill="rgb(0,0,0)" stroke="none" paint-order="stroke fill markers" d=" M 0.486 -0.381 L 0.39 0.001 Q 0.366 0.099 0.28300000000000003 0.16 Q 0.222 0.20500000000000002 0.156 0.20500000000000002 Q 0.089 0.20500000000000002 0.061 0.159 Q 0.05 0.14 0.05 0.11800000000000001 Q 0.05 0.067 0.091 0.055 Q 0.099 0.053 0.106 0.053 Q 0.138 0.053 0.14200000000000002 0.081 Q 0.14300000000000002 0.084 0.14300000000000002 0.088 Q 0.14300000000000002 0.111 0.123 0.129 Q 0.109 0.14100000000000001 0.08 0.14100000000000001 Q 0.098 0.183 0.156 0.183 Q 0.218 0.183 0.266 0.12 Q 0.305 0.068 0.328 -0.021 Q 0.329 -0.025 0.331 -0.034 Q 0.28600000000000003 0.011 0.23 0.011 Q 0.15 0.011 0.121 -0.048 Q 0.108 -0.074 0.108 -0.108 Q 0.108 -0.163 0.161 -0.305 Q 0.163 -0.311 0.166 -0.318 Q 0.183 -0.364 0.183 -0.388 Q 0.183 -0.42 0.158 -0.42 Q 0.10300000000000001 -0.42 0.068 -0.329 L 0.068 -0.328 Q 0.062 -0.313 0.057 -0.296 Q 0.046 -0.279 0.041 -0.278 Q 0.029 -0.278 0.029 -0.28800000000000003 Q 0.029 -0.306 0.05 -0.35100000000000003 Q 0.094 -0.442 0.161 -0.442 Q 0.214 -0.442 0.23500000000000001 -0.397 Q 0.243 -0.38 0.243 -0.36 Q 0.243 -0.339 0.223 -0.28800000000000003 Q 0.17200000000000001 -0.156 0.17200000000000001 -0.092 Q 0.17200000000000001 -0.011 0.234 -0.011 Q 0.292 -0.011 0.335 -0.073 Q 0.34500000000000003 -0.088 0.34700000000000003 -0.096 L 0.392 -0.276 Q 0.399 -0.309 0.41200000000000003 -0.356 Q 0.422 -0.399 0.426 -0.41000000000000003 Q 0.439 -0.431 0.461 -0.431 Q 0.486 -0.426 0.49 -0.404 Q 0.49 -0.395 0.486 -0.381 Z"/></g><g transform="translate(12.167569021133568,15.212613263157895)"><path fill="rgb(0,0,0)" stroke="none" paint-order="stroke fill markers" d=" M 0.687 -0.327 L 0.09 -0.327 Q 0.058 -0.327 0.056 -0.34700000000000003 Q 0.056 -0.367 0.089 -0.367 L 0.6880000000000001 -0.367 Q 0.72 -0.367 0.721 -0.34700000000000003 Q 0.721 -0.327 0.687 -0.327 M 0.6880000000000001 -0.133 L 0.089 -0.133 Q 0.057 -0.133 0.056 -0.153 Q 0.056 -0.17300000000000001 0.09 -0.17300000000000001 L 0.687 -0.17300000000000001 Q 0.719 -0.17300000000000001 0.721 -0.153 Q 0.721 -0.133 0.6880000000000001 -0.133 Z"/></g><g transform="translate(13.223346798911347,15.212613263157895)"><path fill="rgb(0,0,0)" stroke="none" paint-order="stroke fill markers" d=" M 0.661 -0.23 L 0.116 -0.23 Q 0.084 -0.23 0.083 -0.25 Q 0.083 -0.27 0.116 -0.27 L 0.661 -0.27 Q 0.6930000000000001 -0.27 0.6940000000000001 -0.25 Q 0.6940000000000001 -0.23 0.661 -0.23 Z"/></g><g transform="translate(14.001346798911348,15.212613263157895)"><path fill="rgb(0,0,0)" stroke="none" paint-order="stroke fill markers" d=" M 0.29 -0.352 L 0.29 -0.352 Q 0.39 -0.332 0.434 -0.254 Q 0.457 -0.215 0.457 -0.171 Q 0.457 -0.08600000000000001 0.387 -0.028 Q 0.326 0.022 0.244 0.022 Q 0.145 0.022 0.085 -0.037 Q 0.042 -0.079 0.042 -0.135 Q 0.042 -0.182 0.084 -0.191 Q 0.091 -0.193 0.098 -0.193 Q 0.136 -0.193 0.149 -0.161 Q 0.153 -0.148 0.154 -0.137 Q 0.154 -0.097 0.11800000000000001 -0.085 Q 0.10400000000000001 -0.08 0.088 -0.082 Q 0.125 -0.02 0.216 -0.008 Q 0.229 -0.006 0.241 -0.006 Q 0.305 -0.006 0.335 -0.069 Q 0.354 -0.109 0.354 -0.171 Q 0.354 -0.304 0.274 -0.331 Q 0.256 -0.337 0.23500000000000001 -0.337 L 0.191 -0.337 Q 0.169 -0.337 0.167 -0.34800000000000003 Q 0.167 -0.358 0.182 -0.36 Q 0.197 -0.36 0.221 -0.363 Q 0.272 -0.365 0.301 -0.402 L 0.301 -0.403 L 0.302 -0.404 L 0.303 -0.405 L 0.304 -0.405 L 0.31 -0.41500000000000004 Q 0.338 -0.462 0.338 -0.529 Q 0.338 -0.622 0.266 -0.638 Q 0.254 -0.641 0.242 -0.641 Q 0.17200000000000001 -0.641 0.128 -0.601 Q 0.117 -0.591 0.109 -0.579 Q 0.171 -0.579 0.171 -0.529 Q 0.171 -0.493 0.14 -0.481 Q 0.131 -0.47800000000000004 0.12 -0.47800000000000004 Q 0.081 -0.47800000000000004 0.07100000000000001 -0.513 L 0.07100000000000001 -0.513 L 0.07100000000000001 -0.514 Q 0.069 -0.522 0.069 -0.53 Q 0.069 -0.597 0.135 -0.637 Q 0.183 -0.666 0.246 -0.666 Q 0.337 -0.666 0.393 -0.612 L 0.395 -0.61 Q 0.43 -0.5740000000000001 0.43 -0.528 Q 0.43 -0.445 0.359 -0.389 Q 0.328 -0.365 0.29 -0.352 Z"/></g></g><path fill="rgb(0,0,0)" stroke="none" paint-order="stroke fill markers" d=" M 472.0141257383694 253.7110527978581 C 471.8219970513956 253.7110527978581 471.6269946217504 253.75549528661045 471.4443149017199 253.84926747596617 L 165.55346827573186 410.8675417934736 L 165.5534682757317 410.8675417934736 L 164.18347408788816 408.1986251733308 L 151.0004383398569 419.74289078298 L 168.06512428677826 415.7605555970689 L 166.6951300989347 413.09163897692605 L 472.5859767249229 256.0733646594186 C 473.2001442032041 255.75810345220907 473.4424556122571 255.00465263437206 473.1271944050476 254.39048515609088 C 472.9057053871938 253.9589973978402 472.46793186651615 253.7110527978581 472.0141257383694 253.7110527978581 Z" fill-opacity="0.6980392156862745"/><g transform="scale(19,19)"><g transform="translate(18.039790358519998,14.430842105263157)"><path fill="rgb(0,0,0)" stroke="none" paint-order="stroke fill markers" d=" M 0.463 -0.339 L 0.463 -0.339 L 0.464 -0.339 Q 0.491 -0.443 0.491 -0.51 Q 0.491 -0.637 0.40900000000000003 -0.678 Q 0.381 -0.6910000000000001 0.34800000000000003 -0.6910000000000001 Q 0.252 -0.6910000000000001 0.20400000000000001 -0.611 Q 0.25 -0.611 0.251 -0.5760000000000001 Q 0.251 -0.547 0.224 -0.531 Q 0.212 -0.523 0.197 -0.523 Q 0.163 -0.528 0.159 -0.558 Q 0.159 -0.589 0.189 -0.633 Q 0.246 -0.716 0.35000000000000003 -0.716 Q 0.457 -0.716 0.518 -0.628 L 0.519 -0.627 Q 0.5660000000000001 -0.558 0.5660000000000001 -0.457 Q 0.5660000000000001 -0.35000000000000003 0.513 -0.223 Q 0.438 -0.046 0.314 0.005 Q 0.271 0.022 0.224 0.022 Q 0.109 0.022 0.061 -0.074 Q 0.04 -0.115 0.04 -0.156 Q 0.04 -0.262 0.115 -0.34700000000000003 Q 0.122 -0.355 0.13 -0.363 Q 0.229 -0.454 0.334 -0.457 Q 0.418 -0.457 0.451 -0.379 Q 0.46 -0.36 0.463 -0.339 M 0.227 -0.006 L 0.227 -0.006 Q 0.334 -0.006 0.401 -0.14100000000000001 Q 0.442 -0.231 0.445 -0.303 Q 0.445 -0.392 0.388 -0.423 Q 0.365 -0.435 0.334 -0.435 Q 0.245 -0.435 0.183 -0.34600000000000003 Q 0.14300000000000002 -0.28700000000000003 0.121 -0.156 Q 0.117 -0.13 0.117 -0.11900000000000001 Q 0.117 -0.051000000000000004 0.164 -0.022 Q 0.189 -0.006 0.227 -0.006 Z"/></g><g transform="translate(18.626790358519997,14.430842105263157)"><path fill="rgb(0,0,0)" stroke="none" paint-order="stroke fill markers" d=" M 0.47100000000000003 -0.377 L 0.47100000000000003 -0.377 L 0.36 0.067 Q 0.34500000000000003 0.127 0.28200000000000003 0.168 Q 0.224 0.20500000000000002 0.148 0.20500000000000002 Q 0.025 0.20500000000000002 0.016 0.155 Q 0.015 0.15 0.015 0.14400000000000002 Q 0.015 0.10300000000000001 0.052000000000000005 0.089 Q 0.061 0.08600000000000001 0.069 0.08600000000000001 Q 0.1 0.08600000000000001 0.106 0.113 Q 0.107 0.117 0.107 0.121 Q 0.107 0.153 0.077 0.169 Q 0.07200000000000001 0.171 0.066 0.17300000000000001 Q 0.097 0.183 0.146 0.183 Q 0.244 0.183 0.29 0.075 L 0.323 -0.057 L 0.322 -0.058 Q 0.277 -0.008 0.221 -0.001 Q 0.213 0 0.20600000000000002 0 Q 0.136 0 0.098 -0.061 Q 0.073 -0.10200000000000001 0.073 -0.158 Q 0.073 -0.265 0.149 -0.354 Q 0.219 -0.436 0.3 -0.442 L 0.311 -0.442 Q 0.365 -0.442 0.398 -0.391 L 0.404 -0.379 Q 0.41300000000000003 -0.417 0.445 -0.422 Q 0.47100000000000003 -0.422 0.47400000000000003 -0.395 L 0.47100000000000003 -0.377 M 0.341 -0.128 L 0.341 -0.128 L 0.389 -0.319 Q 0.392 -0.331 0.392 -0.334 Q 0.392 -0.354 0.375 -0.382 L 0.375 -0.382 Q 0.363 -0.402 0.34500000000000003 -0.41200000000000003 Q 0.33 -0.42 0.312 -0.42 Q 0.26 -0.42 0.213 -0.353 Q 0.20600000000000002 -0.342 0.2 -0.331 Q 0.168 -0.271 0.149 -0.164 Q 0.14400000000000002 -0.133 0.14400000000000002 -0.114 Q 0.14400000000000002 -0.048 0.182 -0.028 Q 0.193 -0.022 0.209 -0.022 Q 0.248 -0.022 0.29 -0.058 Q 0.334 -0.096 0.341 -0.128 Z"/></g><rect fill="rgb(0,0,0)" stroke="none" x="18.01029035852" y="14.837350605263158" width="1.1590000000000003" height="0.039999"/><g transform="translate(18.01029035852,15.793301105263158)"><path fill="rgb(0,0,0)" stroke="none" paint-order="stroke fill markers" d=" M 0.463 -0.339 L 0.463 -0.339 L 0.464 -0.339 Q 0.491 -0.443 0.491 -0.51 Q 0.491 -0.637 0.40900000000000003 -0.678 Q 0.381 -0.6910000000000001 0.34800000000000003 -0.6910000000000001 Q 0.252 -0.6910000000000001 0.20400000000000001 -0.611 Q 0.25 -0.611 0.251 -0.5760000000000001 Q 0.251 -0.547 0.224 -0.531 Q 0.212 -0.523 0.197 -0.523 Q 0.163 -0.528 0.159 -0.558 Q 0.159 -0.589 0.189 -0.633 Q 0.246 -0.716 0.35000000000000003 -0.716 Q 0.457 -0.716 0.518 -0.628 L 0.519 -0.627 Q 0.5660000000000001 -0.558 0.5660000000000001 -0.457 Q 0.5660000000000001 -0.35000000000000003 0.513 -0.223 Q 0.438 -0.046 0.314 0.005 Q 0.271 0.022 0.224 0.022 Q 0.109 0.022 0.061 -0.074 Q 0.04 -0.115 0.04 -0.156 Q 0.04 -0.262 0.115 -0.34700000000000003 Q 0.122 -0.355 0.13 -0.363 Q 0.229 -0.454 0.334 -0.457 Q 0.418 -0.457 0.451 -0.379 Q 0.46 -0.36 0.463 -0.339 M 0.227 -0.006 L 0.227 -0.006 Q 0.334 -0.006 0.401 -0.14100000000000001 Q 0.442 -0.231 0.445 -0.303 Q 0.445 -0.392 0.388 -0.423 Q 0.365 -0.435 0.334 -0.435 Q 0.245 -0.435 0.183 -0.34600000000000003 Q 0.14300000000000002 -0.28700000000000003 0.121 -0.156 Q 0.117 -0.13 0.117 -0.11900000000000001 Q 0.117 -0.051000000000000004 0.164 -0.022 Q 0.189 -0.006 0.227 -0.006 Z"/></g><g transform="translate(18.59729035852,15.793301105263158)"><path fill="rgb(0,0,0)" stroke="none" paint-order="stroke fill markers" d=" M 0.334 -0.302 L 0.3 -0.165 Q 0.28300000000000003 -0.097 0.28300000000000003 -0.077 Q 0.28300000000000003 -0.025 0.32 -0.014 Q 0.328 -0.011 0.338 -0.011 Q 0.388 -0.011 0.429 -0.061 Q 0.456 -0.093 0.47100000000000003 -0.14200000000000002 Q 0.47400000000000003 -0.153 0.484 -0.153 Q 0.496 -0.153 0.496 -0.14300000000000002 Q 0.496 -0.11800000000000001 0.465 -0.07100000000000001 Q 0.41100000000000003 0.011 0.336 0.011 Q 0.268 0.011 0.23700000000000002 -0.046 Q 0.231 -0.055 0.228 -0.065 Q 0.20400000000000001 -0.017 0.162 0.002 Q 0.14300000000000002 0.011 0.123 0.011 Q 0.063 0.011 0.039 -0.024 Q 0.029 -0.037 0.029 -0.055 Q 0.029 -0.092 0.061 -0.107 Q 0.07200000000000001 -0.113 0.084 -0.113 Q 0.114 -0.113 0.12 -0.088 Q 0.121 -0.083 0.121 -0.078 Q 0.121 -0.044 0.08700000000000001 -0.028 Q 0.081 -0.025 0.074 -0.024 Q 0.095 -0.011 0.124 -0.011 Q 0.177 -0.011 0.20800000000000002 -0.082 Q 0.214 -0.097 0.219 -0.115 Q 0.273 -0.319 0.273 -0.353 Q 0.267 -0.41500000000000004 0.219 -0.42 Q 0.167 -0.42 0.124 -0.367 L 0.124 -0.366 Q 0.124 -0.365 0.123 -0.365 Q 0.108 -0.34500000000000003 0.096 -0.319 Q 0.091 -0.307 0.08700000000000001 -0.295 L 0.085 -0.289 Q 0.083 -0.278 0.07200000000000001 -0.278 Q 0.06 -0.278 0.06 -0.28800000000000003 Q 0.06 -0.313 0.092 -0.36 Q 0.146 -0.442 0.221 -0.442 Q 0.298 -0.442 0.329 -0.366 Q 0.361 -0.428 0.41400000000000003 -0.44 Q 0.424 -0.442 0.434 -0.442 Q 0.493 -0.442 0.517 -0.40900000000000003 Q 0.527 -0.395 0.527 -0.376 Q 0.527 -0.335 0.49 -0.321 Q 0.481 -0.318 0.47300000000000003 -0.318 Q 0.442 -0.318 0.436 -0.34500000000000003 Q 0.435 -0.34900000000000003 0.435 -0.353 Q 0.435 -0.383 0.464 -0.4 Q 0.47300000000000003 -0.405 0.483 -0.40700000000000003 Q 0.462 -0.42 0.433 -0.42 Q 0.365 -0.42 0.337 -0.314 Q 0.335 -0.308 0.334 -0.302 Z"/></g><g transform="translate(19.509990073765145,15.107350105263158)"><path fill="rgb(0,0,0)" stroke="none" paint-order="stroke fill markers" d=" M 0.687 -0.327 L 0.09 -0.327 Q 0.058 -0.327 0.056 -0.34700000000000003 Q 0.056 -0.367 0.089 -0.367 L 0.6880000000000001 -0.367 Q 0.72 -0.367 0.721 -0.34700000000000003 Q 0.721 -0.327 0.687 -0.327 M 0.6880000000000001 -0.133 L 0.089 -0.133 Q 0.057 -0.133 0.056 -0.153 Q 0.056 -0.17300000000000001 0.09 -0.17300000000000001 L 0.687 -0.17300000000000001 Q 0.719 -0.17300000000000001 0.721 -0.153 Q 0.721 -0.133 0.6880000000000001 -0.133 Z"/></g><g transform="translate(20.565767851542923,15.107350105263158)"><path fill="rgb(0,0,0)" stroke="none" paint-order="stroke fill markers" d=" M 0.449 -0.17400000000000002 L 0.449 -0.17400000000000002 L 0.421 0 L 0.05 0 Q 0.05 -0.025 0.056 -0.032 L 0.061 -0.037 L 0.253 -0.251 Q 0.358 -0.369 0.358 -0.47200000000000003 Q 0.358 -0.561 0.304 -0.607 L 0.303 -0.608 L 0.302 -0.608 Q 0.27 -0.635 0.224 -0.635 Q 0.152 -0.635 0.109 -0.5730000000000001 Q 0.097 -0.555 0.089 -0.533 Q 0.092 -0.534 0.10200000000000001 -0.534 Q 0.14200000000000002 -0.534 0.153 -0.498 L 0.153 -0.497 Q 0.155 -0.49 0.155 -0.482 Q 0.155 -0.442 0.117 -0.431 Q 0.109 -0.429 0.10300000000000001 -0.429 Q 0.066 -0.429 0.054 -0.46 Q 0.05 -0.47100000000000003 0.05 -0.485 Q 0.05 -0.562 0.109 -0.617 Q 0.162 -0.666 0.23700000000000002 -0.666 Q 0.34700000000000003 -0.666 0.40800000000000003 -0.592 Q 0.443 -0.549 0.448 -0.49 Q 0.449 -0.481 0.449 -0.47200000000000003 Q 0.449 -0.399 0.394 -0.333 Q 0.365 -0.299 0.304 -0.243 L 0.243 -0.189 L 0.233 -0.18 L 0.127 -0.077 L 0.307 -0.077 Q 0.395 -0.077 0.402 -0.085 Q 0.41200000000000003 -0.099 0.424 -0.17400000000000002 L 0.449 -0.17400000000000002 Z"/></g></g><path fill="rgb(0,0,0)" stroke="none" paint-order="stroke fill markers" d=" M 472.0145214577893 253.7109945173413 C 471.4703409051305 253.7109945173413 470.9697621117204 254.06915246397602 470.81308602745713 254.618457100757 L 428.47434671749215 403.05761377095325 L 428.474346717492 403.05761377095325 L 425.589403231418 402.2347522503085 L 425.01352455303555 419.74848582564255 L 433.76340977529486 404.56619322546885 L 430.8784663290668 403.7433317161892 L 430.8784662859791 403.7433317161892 C 430.8784662870596 403.7433317124008 430.87846628814015 403.7433317086124 430.8784662892207 403.743331704824 L 473.21720559918566 255.30417503462772 C 473.4065613779668 254.64029574651002 473.02188406837445 253.94861206060924 472.35800478025675 253.7592562818281 C 472.24343012892007 253.7265765873102 472.1280273212214 253.7109945173413 472.0145214577893 253.7109945173413 Z" fill-opacity="0.6980392156862745"/><g transform="scale(19,19)"><g transform="translate(23.91152720062526,18.37821052631579)"><path fill="rgb(0,0,0)" stroke="none" paint-order="stroke fill markers" d=" M 0.463 -0.339 L 0.463 -0.339 L 0.464 -0.339 Q 0.491 -0.443 0.491 -0.51 Q 0.491 -0.637 0.40900000000000003 -0.678 Q 0.381 -0.6910000000000001 0.34800000000000003 -0.6910000000000001 Q 0.252 -0.6910000000000001 0.20400000000000001 -0.611 Q 0.25 -0.611 0.251 -0.5760000000000001 Q 0.251 -0.547 0.224 -0.531 Q 0.212 -0.523 0.197 -0.523 Q 0.163 -0.528 0.159 -0.558 Q 0.159 -0.589 0.189 -0.633 Q 0.246 -0.716 0.35000000000000003 -0.716 Q 0.457 -0.716 0.518 -0.628 L 0.519 -0.627 Q 0.5660000000000001 -0.558 0.5660000000000001 -0.457 Q 0.5660000000000001 -0.35000000000000003 0.513 -0.223 Q 0.438 -0.046 0.314 0.005 Q 0.271 0.022 0.224 0.022 Q 0.109 0.022 0.061 -0.074 Q 0.04 -0.115 0.04 -0.156 Q 0.04 -0.262 0.115 -0.34700000000000003 Q 0.122 -0.355 0.13 -0.363 Q 0.229 -0.454 0.334 -0.457 Q 0.418 -0.457 0.451 -0.379 Q 0.46 -0.36 0.463 -0.339 M 0.227 -0.006 L 0.227 -0.006 Q 0.334 -0.006 0.401 -0.14100000000000001 Q 0.442 -0.231 0.445 -0.303 Q 0.445 -0.392 0.388 -0.423 Q 0.365 -0.435 0.334 -0.435 Q 0.245 -0.435 0.183 -0.34600000000000003 Q 0.14300000000000002 -0.28700000000000003 0.121 -0.156 Q 0.117 -0.13 0.117 -0.11900000000000001 Q 0.117 -0.051000000000000004 0.164 -0.022 Q 0.189 -0.006 0.227 -0.006 Z"/></g><g transform="translate(24.49852720062526,18.37821052631579)"><path fill="rgb(0,0,0)" stroke="none" paint-order="stroke fill markers" d=" M 0.47100000000000003 -0.377 L 0.47100000000000003 -0.377 L 0.36 0.067 Q 0.34500000000000003 0.127 0.28200000000000003 0.168 Q 0.224 0.20500000000000002 0.148 0.20500000000000002 Q 0.025 0.20500000000000002 0.016 0.155 Q 0.015 0.15 0.015 0.14400000000000002 Q 0.015 0.10300000000000001 0.052000000000000005 0.089 Q 0.061 0.08600000000000001 0.069 0.08600000000000001 Q 0.1 0.08600000000000001 0.106 0.113 Q 0.107 0.117 0.107 0.121 Q 0.107 0.153 0.077 0.169 Q 0.07200000000000001 0.171 0.066 0.17300000000000001 Q 0.097 0.183 0.146 0.183 Q 0.244 0.183 0.29 0.075 L 0.323 -0.057 L 0.322 -0.058 Q 0.277 -0.008 0.221 -0.001 Q 0.213 0 0.20600000000000002 0 Q 0.136 0 0.098 -0.061 Q 0.073 -0.10200000000000001 0.073 -0.158 Q 0.073 -0.265 0.149 -0.354 Q 0.219 -0.436 0.3 -0.442 L 0.311 -0.442 Q 0.365 -0.442 0.398 -0.391 L 0.404 -0.379 Q 0.41300000000000003 -0.417 0.445 -0.422 Q 0.47100000000000003 -0.422 0.47400000000000003 -0.395 L 0.47100000000000003 -0.377 M 0.341 -0.128 L 0.341 -0.128 L 0.389 -0.319 Q 0.392 -0.331 0.392 -0.334 Q 0.392 -0.354 0.375 -0.382 L 0.375 -0.382 Q 0.363 -0.402 0.34500000000000003 -0.41200000000000003 Q 0.33 -0.42 0.312 -0.42 Q 0.26 -0.42 0.213 -0.353 Q 0.20600000000000002 -0.342 0.2 -0.331 Q 0.168 -0.271 0.149 -0.164 Q 0.14400000000000002 -0.133 0.14400000000000002 -0.114 Q 0.14400000000000002 -0.048 0.182 -0.028 Q 0.193 -0.022 0.209 -0.022 Q 0.248 -0.022 0.29 -0.058 Q 0.334 -0.096 0.341 -0.128 Z"/></g><rect fill="rgb(0,0,0)" stroke="none" x="23.905027200625263" y="18.784719026315788" width="1.113" height="0.039999"/><g transform="translate(23.905027200625263,19.740669526315788)"><path fill="rgb(0,0,0)" stroke="none" paint-order="stroke fill markers" d=" M 0.463 -0.339 L 0.463 -0.339 L 0.464 -0.339 Q 0.491 -0.443 0.491 -0.51 Q 0.491 -0.637 0.40900000000000003 -0.678 Q 0.381 -0.6910000000000001 0.34800000000000003 -0.6910000000000001 Q 0.252 -0.6910000000000001 0.20400000000000001 -0.611 Q 0.25 -0.611 0.251 -0.5760000000000001 Q 0.251 -0.547 0.224 -0.531 Q 0.212 -0.523 0.197 -0.523 Q 0.163 -0.528 0.159 -0.558 Q 0.159 -0.589 0.189 -0.633 Q 0.246 -0.716 0.35000000000000003 -0.716 Q 0.457 -0.716 0.518 -0.628 L 0.519 -0.627 Q 0.5660000000000001 -0.558 0.5660000000000001 -0.457 Q 0.5660000000000001 -0.35000000000000003 0.513 -0.223 Q 0.438 -0.046 0.314 0.005 Q 0.271 0.022 0.224 0.022 Q 0.109 0.022 0.061 -0.074 Q 0.04 -0.115 0.04 -0.156 Q 0.04 -0.262 0.115 -0.34700000000000003 Q 0.122 -0.355 0.13 -0.363 Q 0.229 -0.454 0.334 -0.457 Q 0.418 -0.457 0.451 -0.379 Q 0.46 -0.36 0.463 -0.339 M 0.227 -0.006 L 0.227 -0.006 Q 0.334 -0.006 0.401 -0.14100000000000001 Q 0.442 -0.231 0.445 -0.303 Q 0.445 -0.392 0.388 -0.423 Q 0.365 -0.435 0.334 -0.435 Q 0.245 -0.435 0.183 -0.34600000000000003 Q 0.14300000000000002 -0.28700000000000003 0.121 -0.156 Q 0.117 -0.13 0.117 -0.11900000000000001 Q 0.117 -0.051000000000000004 0.164 -0.022 Q 0.189 -0.006 0.227 -0.006 Z"/></g><g transform="translate(24.492027200625262,19.740669526315788)"><path fill="rgb(0,0,0)" stroke="none" paint-order="stroke fill markers" d=" M 0.486 -0.381 L 0.39 0.001 Q 0.366 0.099 0.28300000000000003 0.16 Q 0.222 0.20500000000000002 0.156 0.20500000000000002 Q 0.089 0.20500000000000002 0.061 0.159 Q 0.05 0.14 0.05 0.11800000000000001 Q 0.05 0.067 0.091 0.055 Q 0.099 0.053 0.106 0.053 Q 0.138 0.053 0.14200000000000002 0.081 Q 0.14300000000000002 0.084 0.14300000000000002 0.088 Q 0.14300000000000002 0.111 0.123 0.129 Q 0.109 0.14100000000000001 0.08 0.14100000000000001 Q 0.098 0.183 0.156 0.183 Q 0.218 0.183 0.266 0.12 Q 0.305 0.068 0.328 -0.021 Q 0.329 -0.025 0.331 -0.034 Q 0.28600000000000003 0.011 0.23 0.011 Q 0.15 0.011 0.121 -0.048 Q 0.108 -0.074 0.108 -0.108 Q 0.108 -0.163 0.161 -0.305 Q 0.163 -0.311 0.166 -0.318 Q 0.183 -0.364 0.183 -0.388 Q 0.183 -0.42 0.158 -0.42 Q 0.10300000000000001 -0.42 0.068 -0.329 L 0.068 -0.328 Q 0.062 -0.313 0.057 -0.296 Q 0.046 -0.279 0.041 -0.278 Q 0.029 -0.278 0.029 -0.28800000000000003 Q 0.029 -0.306 0.05 -0.35100000000000003 Q 0.094 -0.442 0.161 -0.442 Q 0.214 -0.442 0.23500000000000001 -0.397 Q 0.243 -0.38 0.243 -0.36 Q 0.243 -0.339 0.223 -0.28800000000000003 Q 0.17200000000000001 -0.156 0.17200000000000001 -0.092 Q 0.17200000000000001 -0.011 0.234 -0.011 Q 0.292 -0.011 0.335 -0.073 Q 0.34500000000000003 -0.088 0.34700000000000003 -0.096 L 0.392 -0.276 Q 0.399 -0.309 0.41200000000000003 -0.356 Q 0.422 -0.399 0.426 -0.41000000000000003 Q 0.439 -0.431 0.461 -0.431 Q 0.486 -0.426 0.49 -0.404 Q 0.49 -0.395 0.486 -0.381 Z"/></g><g transform="translate(25.35872691587041,19.054718526315792)"><path fill="rgb(0,0,0)" stroke="none" paint-order="stroke fill markers" d=" M 0.687 -0.327 L 0.09 -0.327 Q 0.058 -0.327 0.056 -0.34700000000000003 Q 0.056 -0.367 0.089 -0.367 L 0.6880000000000001 -0.367 Q 0.72 -0.367 0.721 -0.34700000000000003 Q 0.721 -0.327 0.687 -0.327 M 0.6880000000000001 -0.133 L 0.089 -0.133 Q 0.057 -0.133 0.056 -0.153 Q 0.056 -0.17300000000000001 0.09 -0.17300000000000001 L 0.687 -0.17300000000000001 Q 0.719 -0.17300000000000001 0.721 -0.153 Q 0.721 -0.133 0.6880000000000001 -0.133 Z"/></g><g transform="translate(26.414504693648187,19.054718526315792)"><path fill="rgb(0,0,0)" stroke="none" paint-order="stroke fill markers" d=" M 0.294 -0.64 L 0.294 -0.079 Q 0.294 -0.049 0.306 -0.041 Q 0.323 -0.031 0.387 -0.031 L 0.419 -0.031 L 0.419 0 Q 0.384 -0.003 0.257 -0.003 Q 0.13 -0.003 0.095 0 L 0.095 -0.031 L 0.127 -0.031 Q 0.20400000000000001 -0.031 0.215 -0.049 L 0.216 -0.05 Q 0.22 -0.058 0.22 -0.079 L 0.22 -0.597 Q 0.168 -0.5710000000000001 0.089 -0.5710000000000001 L 0.089 -0.602 Q 0.209 -0.602 0.271 -0.666 Q 0.29 -0.666 0.293 -0.659 L 0.293 -0.659 L 0.293 -0.658 Q 0.294 -0.655 0.294 -0.64 Z"/></g></g><g transform="scale(19,19)"><g transform="translate(12.789473684210526,2.7466315789473685)"><path fill="rgb(0,0,0)" stroke="none" paint-order="stroke fill markers" d=" M 0.28700000000000003 -0.683 L 0.209 -0.365 Q 0.271 -0.442 0.357 -0.442 Q 0.446 -0.442 0.467 -0.373 L 0.467 -0.372 Q 0.47200000000000003 -0.355 0.47200000000000003 -0.335 Q 0.47200000000000003 -0.279 0.41100000000000003 -0.115 Q 0.393 -0.07100000000000001 0.393 -0.044 Q 0.393 -0.011 0.417 -0.011 Q 0.47900000000000004 -0.011 0.515 -0.121 L 0.519 -0.135 Q 0.524 -0.151 0.529 -0.152 L 0.529 -0.153 L 0.534 -0.153 Q 0.546 -0.153 0.546 -0.14300000000000002 Q 0.546 -0.126 0.525 -0.08 Q 0.482 0.011 0.41500000000000004 0.011 Q 0.364 0.011 0.342 -0.032 Q 0.333 -0.05 0.333 -0.07100000000000001 Q 0.333 -0.089 0.34600000000000003 -0.126 Q 0.40800000000000003 -0.28400000000000003 0.40800000000000003 -0.35000000000000003 Q 0.40800000000000003 -0.42 0.354 -0.42 Q 0.306 -0.42 0.258 -0.385 Q 0.221 -0.356 0.193 -0.299 L 0.19 -0.293 Q 0.186 -0.269 0.179 -0.248 Q 0.17400000000000002 -0.225 0.162 -0.181 L 0.14 -0.091 L 0.121 -0.015 Q 0.114 0.006 0.09 0.01 Q 0.08700000000000001 0.011 0.084 0.011 Q 0.06 0.011 0.056 -0.01 Q 0.055 -0.014 0.055 -0.017 Q 0.055 -0.025 0.059000000000000004 -0.039 L 0.20400000000000001 -0.615 L 0.20700000000000002 -0.635 Q 0.20700000000000002 -0.646 0.193 -0.649 L 0.193 -0.649 Q 0.181 -0.652 0.157 -0.652 Q 0.135 -0.652 0.133 -0.664 Q 0.133 -0.681 0.152 -0.684 L 0.274 -0.6940000000000001 Q 0.28700000000000003 -0.6940000000000001 0.28700000000000003 -0.683 Z"/></g><g transform="translate(13.643251461988305,2.7466315789473685)"><path fill="rgb(0,0,0)" stroke="none" paint-order="stroke fill markers" d=" M 0.687 -0.327 L 0.09 -0.327 Q 0.058 -0.327 0.056 -0.34700000000000003 Q 0.056 -0.367 0.089 -0.367 L 0.6880000000000001 -0.367 Q 0.72 -0.367 0.721 -0.34700000000000003 Q 0.721 -0.327 0.687 -0.327 M 0.6880000000000001 -0.133 L 0.089 -0.133 Q 0.057 -0.133 0.056 -0.153 Q 0.056 -0.17300000000000001 0.09 -0.17300000000000001 L 0.687 -0.17300000000000001 Q 0.719 -0.17300000000000001 0.721 -0.153 Q 0.721 -0.133 0.6880000000000001 -0.133 Z"/></g><g transform="translate(14.699029239766084,2.7466315789473685)"><path fill="rgb(0,0,0)" stroke="none" paint-order="stroke fill markers" d=" M 0.367 -0.4 L 0.367 -0.4 L 0.307 -0.083 Q 0.298 -0.021 0.271 0.059000000000000004 Q 0.261 0.088 0.251 0.108 Q 0.216 0.182 0.164 0.2 Q 0.151 0.20500000000000002 0.138 0.20500000000000002 Q 0.088 0.20500000000000002 0.064 0.171 Q 0.053 0.156 0.053 0.136 Q 0.053 0.096 0.08700000000000001 0.081 Q 0.097 0.076 0.108 0.076 Q 0.137 0.076 0.14400000000000002 0.101 Q 0.145 0.106 0.145 0.111 Q 0.145 0.145 0.115 0.159 Q 0.10400000000000001 0.164 0.09 0.165 Q 0.109 0.183 0.138 0.183 Q 0.182 0.183 0.20700000000000002 0.085 Q 0.212 0.062 0.219 0.025 L 0.225 -0.005 L 0.3 -0.4 L 0.234 -0.4 Q 0.209 -0.4 0.20700000000000002 -0.40800000000000003 L 0.20600000000000002 -0.40800000000000003 L 0.20600000000000002 -0.41200000000000003 Q 0.20600000000000002 -0.429 0.223 -0.431 L 0.223 -0.431 L 0.23600000000000002 -0.431 L 0.305 -0.431 Q 0.329 -0.556 0.338 -0.588 Q 0.368 -0.6880000000000001 0.444 -0.7030000000000001 Q 0.455 -0.705 0.465 -0.705 Q 0.517 -0.705 0.541 -0.671 L 0.541 -0.671 Q 0.552 -0.656 0.552 -0.636 Q 0.552 -0.596 0.518 -0.581 Q 0.508 -0.5760000000000001 0.497 -0.5760000000000001 Q 0.468 -0.5760000000000001 0.461 -0.601 Q 0.46 -0.606 0.46 -0.611 Q 0.46 -0.642 0.488 -0.657 Q 0.499 -0.664 0.514 -0.665 Q 0.495 -0.683 0.465 -0.683 Q 0.434 -0.683 0.418 -0.649 Q 0.41100000000000003 -0.635 0.394 -0.545 L 0.373 -0.431 L 0.456 -0.431 Q 0.481 -0.431 0.483 -0.42 Q 0.483 -0.402 0.467 -0.4 L 0.466 -0.4 L 0.453 -0.4 L 0.367 -0.4 Z"/></g><g transform="translate(15.297029239766085,2.7466315789473685)"><path fill="rgb(0,0,0)" stroke="none" paint-order="stroke fill markers" d=" M 0.47100000000000003 -0.377 L 0.47100000000000003 -0.377 L 0.36 0.067 Q 0.34500000000000003 0.127 0.28200000000000003 0.168 Q 0.224 0.20500000000000002 0.148 0.20500000000000002 Q 0.025 0.20500000000000002 0.016 0.155 Q 0.015 0.15 0.015 0.14400000000000002 Q 0.015 0.10300000000000001 0.052000000000000005 0.089 Q 0.061 0.08600000000000001 0.069 0.08600000000000001 Q 0.1 0.08600000000000001 0.106 0.113 Q 0.107 0.117 0.107 0.121 Q 0.107 0.153 0.077 0.169 Q 0.07200000000000001 0.171 0.066 0.17300000000000001 Q 0.097 0.183 0.146 0.183 Q 0.244 0.183 0.29 0.075 L 0.323 -0.057 L 0.322 -0.058 Q 0.277 -0.008 0.221 -0.001 Q 0.213 0 0.20600000000000002 0 Q 0.136 0 0.098 -0.061 Q 0.073 -0.10200000000000001 0.073 -0.158 Q 0.073 -0.265 0.149 -0.354 Q 0.219 -0.436 0.3 -0.442 L 0.311 -0.442 Q 0.365 -0.442 0.398 -0.391 L 0.404 -0.379 Q 0.41300000000000003 -0.417 0.445 -0.422 Q 0.47100000000000003 -0.422 0.47400000000000003 -0.395 L 0.47100000000000003 -0.377 M 0.341 -0.128 L 0.341 -0.128 L 0.389 -0.319 Q 0.392 -0.331 0.392 -0.334 Q 0.392 -0.354 0.375 -0.382 L 0.375 -0.382 Q 0.363 -0.402 0.34500000000000003 -0.41200000000000003 Q 0.33 -0.42 0.312 -0.42 Q 0.26 -0.42 0.213 -0.353 Q 0.20600000000000002 -0.342 0.2 -0.331 Q 0.168 -0.271 0.149 -0.164 Q 0.14400000000000002 -0.133 0.14400000000000002 -0.114 Q 0.14400000000000002 -0.048 0.182 -0.028 Q 0.193 -0.022 0.209 -0.022 Q 0.248 -0.022 0.29 -0.058 Q 0.334 -0.096 0.341 -0.128 Z"/></g><g transform="translate(16.087807017543863,2.7466315789473685)"><path fill="rgb(0,0,0)" stroke="none" paint-order="stroke fill markers" d=" M 0.687 -0.327 L 0.09 -0.327 Q 0.058 -0.327 0.056 -0.34700000000000003 Q 0.056 -0.367 0.089 -0.367 L 0.6880000000000001 -0.367 Q 0.72 -0.367 0.721 -0.34700000000000003 Q 0.721 -0.327 0.687 -0.327 M 0.6880000000000001 -0.133 L 0.089 -0.133 Q 0.057 -0.133 0.056 -0.153 Q 0.056 -0.17300000000000001 0.09 -0.17300000000000001 L 0.687 -0.17300000000000001 Q 0.719 -0.17300000000000001 0.721 -0.153 Q 0.721 -0.133 0.6880000000000001 -0.133 Z"/></g><g transform="translate(17.14358479532164,2.7466315789473685)"><path fill="rgb(0,0,0)" stroke="none" paint-order="stroke fill markers" d=" M 0.46 -0.32 Q 0.46 -0.17400000000000002 0.423 -0.094 Q 0.364 0.018000000000000002 0.249 0.022 Q 0.158 0.022 0.10300000000000001 -0.05 Q 0.092 -0.063 0.084 -0.079 Q 0.039 -0.162 0.039 -0.32 Q 0.039 -0.467 0.076 -0.547 Q 0.126 -0.659 0.23800000000000002 -0.666 L 0.25 -0.666 Q 0.339 -0.666 0.395 -0.595 L 0.395 -0.594 Q 0.40900000000000003 -0.5760000000000001 0.42 -0.554 Q 0.46 -0.46900000000000003 0.46 -0.32 M 0.249 0 L 0.249 0 Q 0.312 0 0.34600000000000003 -0.061 Q 0.36 -0.088 0.366 -0.125 Q 0.377 -0.189 0.377 -0.332 Q 0.377 -0.47100000000000003 0.367 -0.527 Q 0.34900000000000003 -0.622 0.275 -0.641 Q 0.262 -0.644 0.249 -0.644 Q 0.179 -0.644 0.147 -0.5740000000000001 Q 0.136 -0.55 0.13 -0.516 Q 0.122 -0.462 0.122 -0.332 Q 0.122 -0.181 0.133 -0.121 Q 0.151 -0.025 0.221 -0.004 Q 0.23500000000000001 0 0.249 0 Z"/></g></g><g transform="scale(19,19)"><g transform="translate(3.263157894736842,11.799263157894735)"><path fill="rgb(0,0,0)" stroke="none" paint-order="stroke fill markers" d=" M 0.367 -0.4 L 0.367 -0.4 L 0.307 -0.083 Q 0.298 -0.021 0.271 0.059000000000000004 Q 0.261 0.088 0.251 0.108 Q 0.216 0.182 0.164 0.2 Q 0.151 0.20500000000000002 0.138 0.20500000000000002 Q 0.088 0.20500000000000002 0.064 0.171 Q 0.053 0.156 0.053 0.136 Q 0.053 0.096 0.08700000000000001 0.081 Q 0.097 0.076 0.108 0.076 Q 0.137 0.076 0.14400000000000002 0.101 Q 0.145 0.106 0.145 0.111 Q 0.145 0.145 0.115 0.159 Q 0.10400000000000001 0.164 0.09 0.165 Q 0.109 0.183 0.138 0.183 Q 0.182 0.183 0.20700000000000002 0.085 Q 0.212 0.062 0.219 0.025 L 0.225 -0.005 L 0.3 -0.4 L 0.234 -0.4 Q 0.209 -0.4 0.20700000000000002 -0.40800000000000003 L 0.20600000000000002 -0.40800000000000003 L 0.20600000000000002 -0.41200000000000003 Q 0.20600000000000002 -0.429 0.223 -0.431 L 0.223 -0.431 L 0.23600000000000002 -0.431 L 0.305 -0.431 Q 0.329 -0.556 0.338 -0.588 Q 0.368 -0.6880000000000001 0.444 -0.7030000000000001 Q 0.455 -0.705 0.465 -0.705 Q 0.517 -0.705 0.541 -0.671 L 0.541 -0.671 Q 0.552 -0.656 0.552 -0.636 Q 0.552 -0.596 0.518 -0.581 Q 0.508 -0.5760000000000001 0.497 -0.5760000000000001 Q 0.468 -0.5760000000000001 0.461 -0.601 Q 0.46 -0.606 0.46 -0.611 Q 0.46 -0.642 0.488 -0.657 Q 0.499 -0.664 0.514 -0.665 Q 0.495 -0.683 0.465 -0.683 Q 0.434 -0.683 0.418 -0.649 Q 0.41100000000000003 -0.635 0.394 -0.545 L 0.373 -0.431 L 0.456 -0.431 Q 0.481 -0.431 0.483 -0.42 Q 0.483 -0.402 0.467 -0.4 L 0.466 -0.4 L 0.453 -0.4 L 0.367 -0.4 Z"/></g><g transform="translate(4.13893567251462,11.799263157894735)"><path fill="rgb(0,0,0)" stroke="none" paint-order="stroke fill markers" d=" M 0.687 -0.327 L 0.09 -0.327 Q 0.058 -0.327 0.056 -0.34700000000000003 Q 0.056 -0.367 0.089 -0.367 L 0.6880000000000001 -0.367 Q 0.72 -0.367 0.721 -0.34700000000000003 Q 0.721 -0.327 0.687 -0.327 M 0.6880000000000001 -0.133 L 0.089 -0.133 Q 0.057 -0.133 0.056 -0.153 Q 0.056 -0.17300000000000001 0.09 -0.17300000000000001 L 0.687 -0.17300000000000001 Q 0.719 -0.17300000000000001 0.721 -0.153 Q 0.721 -0.133 0.6880000000000001 -0.133 Z"/></g><g transform="translate(5.194713450292398,11.799263157894735)"><path fill="rgb(0,0,0)" stroke="none" paint-order="stroke fill markers" d=" M 0.661 -0.23 L 0.116 -0.23 Q 0.084 -0.23 0.083 -0.25 Q 0.083 -0.27 0.116 -0.27 L 0.661 -0.27 Q 0.6930000000000001 -0.27 0.6940000000000001 -0.25 Q 0.6940000000000001 -0.23 0.661 -0.23 Z"/></g><g transform="translate(5.972713450292398,11.799263157894735)"><path fill="rgb(0,0,0)" stroke="none" paint-order="stroke fill markers" d=" M 0.028 -0.165 L 0.028 -0.196 L 0.335 -0.665 Q 0.343 -0.677 0.355 -0.677 Q 0.369 -0.677 0.371 -0.666 L 0.371 -0.651 L 0.371 -0.196 L 0.47100000000000003 -0.196 L 0.47100000000000003 -0.165 L 0.371 -0.165 L 0.371 -0.078 Q 0.371 -0.047 0.383 -0.04 Q 0.397 -0.031 0.447 -0.031 L 0.468 -0.031 L 0.468 0 Q 0.427 -0.003 0.332 -0.003 Q 0.23800000000000002 -0.003 0.197 0 L 0.197 -0.031 L 0.218 -0.031 Q 0.28 -0.031 0.29 -0.048 Q 0.294 -0.055 0.294 -0.078 L 0.294 -0.165 L 0.028 -0.165 M 0.3 -0.196 L 0.3 -0.5690000000000001 L 0.056 -0.196 L 0.3 -0.196 Z"/></g></g><text fill="rgb(0,0,0)" stroke="none" font-family="geogebra-sans-serif, sans-serif" font-size="16px" font-style="normal" font-weight="normal" text-decoration="normal" x="454" y="224" text-anchor="start" dominant-baseline="alphabetic" fill-opacity="1">g = 0</text><text fill="rgb(0,0,0)" stroke="none" font-family="geogebra-sans-serif, sans-serif" font-size="16px" font-style="normal" font-weight="normal" text-decoration="normal" x="140" y="441" text-anchor="start" dominant-baseline="alphabetic" fill-opacity="1">x=1</text><text fill="rgb(0,0,0)" stroke="none" font-family="geogebra-sans-serif, sans-serif" font-size="16px" font-style="normal" font-weight="normal" text-decoration="normal" x="413" y="442" text-anchor="start" dominant-baseline="alphabetic" fill-opacity="1">y=3</text><g transform="scale(19,19)"><g transform="translate(1.9576587795726315,17.95715789473684)"><path fill="rgb(0,0,0)" stroke="none" paint-order="stroke fill markers" d=" M 0.463 -0.339 L 0.463 -0.339 L 0.464 -0.339 Q 0.491 -0.443 0.491 -0.51 Q 0.491 -0.637 0.40900000000000003 -0.678 Q 0.381 -0.6910000000000001 0.34800000000000003 -0.6910000000000001 Q 0.252 -0.6910000000000001 0.20400000000000001 -0.611 Q 0.25 -0.611 0.251 -0.5760000000000001 Q 0.251 -0.547 0.224 -0.531 Q 0.212 -0.523 0.197 -0.523 Q 0.163 -0.528 0.159 -0.558 Q 0.159 -0.589 0.189 -0.633 Q 0.246 -0.716 0.35000000000000003 -0.716 Q 0.457 -0.716 0.518 -0.628 L 0.519 -0.627 Q 0.5660000000000001 -0.558 0.5660000000000001 -0.457 Q 0.5660000000000001 -0.35000000000000003 0.513 -0.223 Q 0.438 -0.046 0.314 0.005 Q 0.271 0.022 0.224 0.022 Q 0.109 0.022 0.061 -0.074 Q 0.04 -0.115 0.04 -0.156 Q 0.04 -0.262 0.115 -0.34700000000000003 Q 0.122 -0.355 0.13 -0.363 Q 0.229 -0.454 0.334 -0.457 Q 0.418 -0.457 0.451 -0.379 Q 0.46 -0.36 0.463 -0.339 M 0.227 -0.006 L 0.227 -0.006 Q 0.334 -0.006 0.401 -0.14100000000000001 Q 0.442 -0.231 0.445 -0.303 Q 0.445 -0.392 0.388 -0.423 Q 0.365 -0.435 0.334 -0.435 Q 0.245 -0.435 0.183 -0.34600000000000003 Q 0.14300000000000002 -0.28700000000000003 0.121 -0.156 Q 0.117 -0.13 0.117 -0.11900000000000001 Q 0.117 -0.051000000000000004 0.164 -0.022 Q 0.189 -0.006 0.227 -0.006 Z"/></g><g transform="translate(2.5446587795726314,17.95715789473684)"><path fill="rgb(0,0,0)" stroke="none" paint-order="stroke fill markers" d=" M 0.367 -0.4 L 0.367 -0.4 L 0.307 -0.083 Q 0.298 -0.021 0.271 0.059000000000000004 Q 0.261 0.088 0.251 0.108 Q 0.216 0.182 0.164 0.2 Q 0.151 0.20500000000000002 0.138 0.20500000000000002 Q 0.088 0.20500000000000002 0.064 0.171 Q 0.053 0.156 0.053 0.136 Q 0.053 0.096 0.08700000000000001 0.081 Q 0.097 0.076 0.108 0.076 Q 0.137 0.076 0.14400000000000002 0.101 Q 0.145 0.106 0.145 0.111 Q 0.145 0.145 0.115 0.159 Q 0.10400000000000001 0.164 0.09 0.165 Q 0.109 0.183 0.138 0.183 Q 0.182 0.183 0.20700000000000002 0.085 Q 0.212 0.062 0.219 0.025 L 0.225 -0.005 L 0.3 -0.4 L 0.234 -0.4 Q 0.209 -0.4 0.20700000000000002 -0.40800000000000003 L 0.20600000000000002 -0.40800000000000003 L 0.20600000000000002 -0.41200000000000003 Q 0.20600000000000002 -0.429 0.223 -0.431 L 0.223 -0.431 L 0.23600000000000002 -0.431 L 0.305 -0.431 Q 0.329 -0.556 0.338 -0.588 Q 0.368 -0.6880000000000001 0.444 -0.7030000000000001 Q 0.455 -0.705 0.465 -0.705 Q 0.517 -0.705 0.541 -0.671 L 0.541 -0.671 Q 0.552 -0.656 0.552 -0.636 Q 0.552 -0.596 0.518 -0.581 Q 0.508 -0.5760000000000001 0.497 -0.5760000000000001 Q 0.468 -0.5760000000000001 0.461 -0.601 Q 0.46 -0.606 0.46 -0.611 Q 0.46 -0.642 0.488 -0.657 Q 0.499 -0.664 0.514 -0.665 Q 0.495 -0.683 0.465 -0.683 Q 0.434 -0.683 0.418 -0.649 Q 0.41100000000000003 -0.635 0.394 -0.545 L 0.373 -0.431 L 0.456 -0.431 Q 0.481 -0.431 0.483 -0.42 Q 0.483 -0.402 0.467 -0.4 L 0.466 -0.4 L 0.453 -0.4 L 0.367 -0.4 Z"/></g><rect fill="rgb(0,0,0)" stroke="none" x="1.9576587795726315" y="18.36366639473684" width="1.185" height="0.039999"/><g transform="translate(1.9706587795726316,19.31961689473684)"><path fill="rgb(0,0,0)" stroke="none" paint-order="stroke fill markers" d=" M 0.463 -0.339 L 0.463 -0.339 L 0.464 -0.339 Q 0.491 -0.443 0.491 -0.51 Q 0.491 -0.637 0.40900000000000003 -0.678 Q 0.381 -0.6910000000000001 0.34800000000000003 -0.6910000000000001 Q 0.252 -0.6910000000000001 0.20400000000000001 -0.611 Q 0.25 -0.611 0.251 -0.5760000000000001 Q 0.251 -0.547 0.224 -0.531 Q 0.212 -0.523 0.197 -0.523 Q 0.163 -0.528 0.159 -0.558 Q 0.159 -0.589 0.189 -0.633 Q 0.246 -0.716 0.35000000000000003 -0.716 Q 0.457 -0.716 0.518 -0.628 L 0.519 -0.627 Q 0.5660000000000001 -0.558 0.5660000000000001 -0.457 Q 0.5660000000000001 -0.35000000000000003 0.513 -0.223 Q 0.438 -0.046 0.314 0.005 Q 0.271 0.022 0.224 0.022 Q 0.109 0.022 0.061 -0.074 Q 0.04 -0.115 0.04 -0.156 Q 0.04 -0.262 0.115 -0.34700000000000003 Q 0.122 -0.355 0.13 -0.363 Q 0.229 -0.454 0.334 -0.457 Q 0.418 -0.457 0.451 -0.379 Q 0.46 -0.36 0.463 -0.339 M 0.227 -0.006 L 0.227 -0.006 Q 0.334 -0.006 0.401 -0.14100000000000001 Q 0.442 -0.231 0.445 -0.303 Q 0.445 -0.392 0.388 -0.423 Q 0.365 -0.435 0.334 -0.435 Q 0.245 -0.435 0.183 -0.34600000000000003 Q 0.14300000000000002 -0.28700000000000003 0.121 -0.156 Q 0.117 -0.13 0.117 -0.11900000000000001 Q 0.117 -0.051000000000000004 0.164 -0.022 Q 0.189 -0.006 0.227 -0.006 Z"/></g><g transform="translate(2.5576587795726318,19.31961689473684)"><path fill="rgb(0,0,0)" stroke="none" paint-order="stroke fill markers" d=" M 0.334 -0.302 L 0.3 -0.165 Q 0.28300000000000003 -0.097 0.28300000000000003 -0.077 Q 0.28300000000000003 -0.025 0.32 -0.014 Q 0.328 -0.011 0.338 -0.011 Q 0.388 -0.011 0.429 -0.061 Q 0.456 -0.093 0.47100000000000003 -0.14200000000000002 Q 0.47400000000000003 -0.153 0.484 -0.153 Q 0.496 -0.153 0.496 -0.14300000000000002 Q 0.496 -0.11800000000000001 0.465 -0.07100000000000001 Q 0.41100000000000003 0.011 0.336 0.011 Q 0.268 0.011 0.23700000000000002 -0.046 Q 0.231 -0.055 0.228 -0.065 Q 0.20400000000000001 -0.017 0.162 0.002 Q 0.14300000000000002 0.011 0.123 0.011 Q 0.063 0.011 0.039 -0.024 Q 0.029 -0.037 0.029 -0.055 Q 0.029 -0.092 0.061 -0.107 Q 0.07200000000000001 -0.113 0.084 -0.113 Q 0.114 -0.113 0.12 -0.088 Q 0.121 -0.083 0.121 -0.078 Q 0.121 -0.044 0.08700000000000001 -0.028 Q 0.081 -0.025 0.074 -0.024 Q 0.095 -0.011 0.124 -0.011 Q 0.177 -0.011 0.20800000000000002 -0.082 Q 0.214 -0.097 0.219 -0.115 Q 0.273 -0.319 0.273 -0.353 Q 0.267 -0.41500000000000004 0.219 -0.42 Q 0.167 -0.42 0.124 -0.367 L 0.124 -0.366 Q 0.124 -0.365 0.123 -0.365 Q 0.108 -0.34500000000000003 0.096 -0.319 Q 0.091 -0.307 0.08700000000000001 -0.295 L 0.085 -0.289 Q 0.083 -0.278 0.07200000000000001 -0.278 Q 0.06 -0.278 0.06 -0.28800000000000003 Q 0.06 -0.313 0.092 -0.36 Q 0.146 -0.442 0.221 -0.442 Q 0.298 -0.442 0.329 -0.366 Q 0.361 -0.428 0.41400000000000003 -0.44 Q 0.424 -0.442 0.434 -0.442 Q 0.493 -0.442 0.517 -0.40900000000000003 Q 0.527 -0.395 0.527 -0.376 Q 0.527 -0.335 0.49 -0.321 Q 0.481 -0.318 0.47300000000000003 -0.318 Q 0.442 -0.318 0.436 -0.34500000000000003 Q 0.435 -0.34900000000000003 0.435 -0.353 Q 0.435 -0.383 0.464 -0.4 Q 0.47300000000000003 -0.405 0.483 -0.40700000000000003 Q 0.462 -0.42 0.433 -0.42 Q 0.365 -0.42 0.337 -0.314 Q 0.335 -0.308 0.334 -0.302 Z"/></g><g transform="translate(3.483358494817778,18.633665894736843)"><path fill="rgb(0,0,0)" stroke="none" paint-order="stroke fill markers" d=" M 0.687 -0.327 L 0.09 -0.327 Q 0.058 -0.327 0.056 -0.34700000000000003 Q 0.056 -0.367 0.089 -0.367 L 0.6880000000000001 -0.367 Q 0.72 -0.367 0.721 -0.34700000000000003 Q 0.721 -0.327 0.687 -0.327 M 0.6880000000000001 -0.133 L 0.089 -0.133 Q 0.057 -0.133 0.056 -0.153 Q 0.056 -0.17300000000000001 0.09 -0.17300000000000001 L 0.687 -0.17300000000000001 Q 0.719 -0.17300000000000001 0.721 -0.153 Q 0.721 -0.133 0.6880000000000001 -0.133 Z"/></g><g transform="translate(4.539136272595555,18.633665894736843)"><path fill="rgb(0,0,0)" stroke="none" paint-order="stroke fill markers" d=" M 0.294 -0.64 L 0.294 -0.079 Q 0.294 -0.049 0.306 -0.041 Q 0.323 -0.031 0.387 -0.031 L 0.419 -0.031 L 0.419 0 Q 0.384 -0.003 0.257 -0.003 Q 0.13 -0.003 0.095 0 L 0.095 -0.031 L 0.127 -0.031 Q 0.20400000000000001 -0.031 0.215 -0.049 L 0.216 -0.05 Q 0.22 -0.058 0.22 -0.079 L 0.22 -0.597 Q 0.168 -0.5710000000000001 0.089 -0.5710000000000001 L 0.089 -0.602 Q 0.209 -0.602 0.271 -0.666 Q 0.29 -0.666 0.293 -0.659 L 0.293 -0.659 L 0.293 -0.658 Q 0.294 -0.655 0.294 -0.64 Z"/></g><g transform="translate(5.039136272595555,18.633665894736843)"><path fill="rgb(0,0,0)" stroke="none" paint-order="stroke fill markers" d=" M 0.46 -0.32 Q 0.46 -0.17400000000000002 0.423 -0.094 Q 0.364 0.018000000000000002 0.249 0.022 Q 0.158 0.022 0.10300000000000001 -0.05 Q 0.092 -0.063 0.084 -0.079 Q 0.039 -0.162 0.039 -0.32 Q 0.039 -0.467 0.076 -0.547 Q 0.126 -0.659 0.23800000000000002 -0.666 L 0.25 -0.666 Q 0.339 -0.666 0.395 -0.595 L 0.395 -0.594 Q 0.40900000000000003 -0.5760000000000001 0.42 -0.554 Q 0.46 -0.46900000000000003 0.46 -0.32 M 0.249 0 L 0.249 0 Q 0.312 0 0.34600000000000003 -0.061 Q 0.36 -0.088 0.366 -0.125 Q 0.377 -0.189 0.377 -0.332 Q 0.377 -0.47100000000000003 0.367 -0.527 Q 0.34900000000000003 -0.622 0.275 -0.641 Q 0.262 -0.644 0.249 -0.644 Q 0.179 -0.644 0.147 -0.5740000000000001 Q 0.136 -0.55 0.13 -0.516 Q 0.122 -0.462 0.122 -0.332 Q 0.122 -0.181 0.133 -0.121 Q 0.151 -0.025 0.221 -0.004 Q 0.23500000000000001 0 0.249 0 Z"/></g><g transform="translate(5.539136272595555,18.633665894736843)"><path fill="rgb(0,0,0)" stroke="none" paint-order="stroke fill markers" d=" M 0.334 -0.302 L 0.3 -0.165 Q 0.28300000000000003 -0.097 0.28300000000000003 -0.077 Q 0.28300000000000003 -0.025 0.32 -0.014 Q 0.328 -0.011 0.338 -0.011 Q 0.388 -0.011 0.429 -0.061 Q 0.456 -0.093 0.47100000000000003 -0.14200000000000002 Q 0.47400000000000003 -0.153 0.484 -0.153 Q 0.496 -0.153 0.496 -0.14300000000000002 Q 0.496 -0.11800000000000001 0.465 -0.07100000000000001 Q 0.41100000000000003 0.011 0.336 0.011 Q 0.268 0.011 0.23700000000000002 -0.046 Q 0.231 -0.055 0.228 -0.065 Q 0.20400000000000001 -0.017 0.162 0.002 Q 0.14300000000000002 0.011 0.123 0.011 Q 0.063 0.011 0.039 -0.024 Q 0.029 -0.037 0.029 -0.055 Q 0.029 -0.092 0.061 -0.107 Q 0.07200000000000001 -0.113 0.084 -0.113 Q 0.114 -0.113 0.12 -0.088 Q 0.121 -0.083 0.121 -0.078 Q 0.121 -0.044 0.08700000000000001 -0.028 Q 0.081 -0.025 0.074 -0.024 Q 0.095 -0.011 0.124 -0.011 Q 0.177 -0.011 0.20800000000000002 -0.082 Q 0.214 -0.097 0.219 -0.115 Q 0.273 -0.319 0.273 -0.353 Q 0.267 -0.41500000000000004 0.219 -0.42 Q 0.167 -0.42 0.124 -0.367 L 0.124 -0.366 Q 0.124 -0.365 0.123 -0.365 Q 0.108 -0.34500000000000003 0.096 -0.319 Q 0.091 -0.307 0.08700000000000001 -0.295 L 0.085 -0.289 Q 0.083 -0.278 0.07200000000000001 -0.278 Q 0.06 -0.278 0.06 -0.28800000000000003 Q 0.06 -0.313 0.092 -0.36 Q 0.146 -0.442 0.221 -0.442 Q 0.298 -0.442 0.329 -0.366 Q 0.361 -0.428 0.41400000000000003 -0.44 Q 0.424 -0.442 0.434 -0.442 Q 0.493 -0.442 0.517 -0.40900000000000003 Q 0.527 -0.395 0.527 -0.376 Q 0.527 -0.335 0.49 -0.321 Q 0.481 -0.318 0.47300000000000003 -0.318 Q 0.442 -0.318 0.436 -0.34500000000000003 Q 0.435 -0.34900000000000003 0.435 -0.353 Q 0.435 -0.383 0.464 -0.4 Q 0.47300000000000003 -0.405 0.483 -0.40700000000000003 Q 0.462 -0.42 0.433 -0.42 Q 0.365 -0.42 0.337 -0.314 Q 0.335 -0.308 0.334 -0.302 Z"/></g></g></g></g></svg>