<?xml version="1.0" encoding="UTF-8" standalone="no"?>
<!-- Created with Inkscape (http://www.inkscape.org/) -->

<svg
   version="1.1"
   id="svg2"
   width="360.67267"
   height="363.65482"
   viewBox="0 0 360.67267 363.65481"
   xmlns="http://www.w3.org/2000/svg"
   xmlns:svg="http://www.w3.org/2000/svg">
  <defs
     id="defs6" />
  <g
     id="g10"
     transform="matrix(1.3333333,0,0,-1.3333333,-4.4437249,367.00498)">
    <g
       id="g12"
       transform="translate(132.037,138.394)">
      <g
         id="g14">
        <g
           id="g16">
          <g
             id="g18">
            <path
               d="M 113.38727,0 C 113.38727,62.62285 62.62285,113.38727 0,113.38727 -62.62285,113.38727 -113.38727,62.62285 -113.38727,0 c 0,-62.62285 50.76442,-113.38727 113.38727,-113.38727 62.62285,0 113.38727,50.76442 113.38727,113.38727 z"
               style="fill:none;stroke:#000000;stroke-width:0.3985;stroke-linecap:butt;stroke-linejoin:miter;stroke-miterlimit:10;stroke-dasharray:2.98883, 2.98883;stroke-dashoffset:0;stroke-opacity:1"
               id="path20" />
          </g>
          <g
             id="g22">
            <path
               d="m 76.36023,88.64604 c 0,3.13132 -2.53838,5.66969 -5.66969,5.66969 -3.13134,0 -5.66971,-2.53837 -5.66971,-5.66969 0,-3.13132 2.53837,-5.66969 5.66971,-5.66969 3.13131,0 5.66969,2.53837 5.66969,5.66969 z"
               style="fill:#989f7a;fill-opacity:1;fill-rule:nonzero;stroke:none"
               id="path24" />
          </g>
          <g
             id="g26">
            <g
               id="g28"
               transform="translate(78.691,104.941)">
              <g
                 id="g30">
                <g
                   id="g32"
                   transform="translate(-210.728,-243.335)">
                  <text
                     xml:space="preserve"
                     transform="matrix(1,0,0,-1,210.728,243.335)"
                     style="font-variant:normal;font-weight:normal;font-size:8.9664px;font-family:CMMI9;-inkscape-font-specification:CMMI9;writing-mode:lr-tb;fill:#000000;fill-opacity:1;fill-rule:nonzero;stroke:none"
                     id="text36"><tspan
                       x="0"
                       y="0"
                       id="tspan34">m</tspan></text>
                  <text
                     xml:space="preserve"
                     transform="matrix(1,0,0,-1,218.847,242.339)"
                     style="font-variant:normal;font-weight:normal;font-size:5.9776px;font-family:CMR6;-inkscape-font-specification:CMR6;writing-mode:lr-tb;fill:#000000;fill-opacity:1;fill-rule:nonzero;stroke:none"
                     id="text40"><tspan
                       x="0"
                       y="0"
                       id="tspan38">1</tspan></text>
                  <g
                     id="g42"
                     transform="translate(210.728,243.335)" />
                </g>
              </g>
              <g
                 id="g44"
                 transform="translate(-78.691,-104.941)" />
            </g>
          </g>
          <g
             id="g46">
            <path
               d="m 70.69054,88.64604 -8.29053,1.89234 -2.01109,-2.09562 -1.80533,5.52135 -4.0222,-4.19121 -1.80533,5.52135 -4.0222,-4.19121 -1.80533,5.52135 -4.0222,-4.19119 -1.80533,5.52133 -4.0222,-4.19119 -1.80532,5.52134 -4.0222,-4.1912 -1.80533,5.52134 -4.0222,-4.19121 -1.80533,5.52135 -4.0222,-4.19121 -1.80532,5.52135 -4.02221,-4.19119 -1.80531,5.52133 -4.0222,-4.19119 -1.80533,5.52135 -4.0222,-4.19121 -1.80533,5.52134 -4.02219,-4.1912 -1.80533,5.52134 -4.0222,-4.19119 -1.80533,5.52133 -4.02218,-4.19119 -0.90267,2.76068 v 0 l -8.95575,2.04582"
               style="fill:none;stroke:#3b3651;stroke-width:0.3985;stroke-linecap:butt;stroke-linejoin:miter;stroke-miterlimit:10;stroke-dasharray:none;stroke-opacity:1"
               id="path48" />
          </g>
          <g
             id="g50">
            <path
               d="m -19.55762,110.54112 c 0,3.13132 -2.53838,5.6697 -5.66969,5.6697 -3.13132,0 -5.66969,-2.53838 -5.66969,-5.6697 0,-3.13132 2.53837,-5.66971 5.66969,-5.66971 3.13131,0 5.66969,2.53839 5.66969,5.66971 z"
               style="fill:#989f7a;fill-opacity:1;fill-rule:nonzero;stroke:none"
               id="path52" />
          </g>
          <g
             id="g54">
            <g
               id="g56"
               transform="translate(-36.407,131.215)">
              <g
                 id="g58">
                <g
                   id="g60"
                   transform="translate(-95.63,-269.609)">
                  <text
                     xml:space="preserve"
                     transform="matrix(1,0,0,-1,95.63,269.609)"
                     style="font-variant:normal;font-weight:normal;font-size:8.9664px;font-family:CMMI9;-inkscape-font-specification:CMMI9;writing-mode:lr-tb;fill:#000000;fill-opacity:1;fill-rule:nonzero;stroke:none"
                     id="text64"><tspan
                       x="0"
                       y="0"
                       id="tspan62">m</tspan></text>
                  <text
                     xml:space="preserve"
                     transform="matrix(1,0,0,-1,103.749,268.613)"
                     style="font-variant:normal;font-weight:normal;font-size:5.9776px;font-family:CMR6;-inkscape-font-specification:CMR6;writing-mode:lr-tb;fill:#000000;fill-opacity:1;fill-rule:nonzero;stroke:none"
                     id="text68"><tspan
                       x="0"
                       y="0"
                       id="tspan66">2</tspan></text>
                  <g
                     id="g70"
                     transform="translate(95.63,269.609)" />
                </g>
              </g>
              <g
                 id="g72"
                 transform="translate(36.407,-131.215)" />
            </g>
          </g>
          <g
             id="g74">
            <path
               d="m -25.22731,110.54112 -6.64825,-5.30211 0.38459,-2.87887 -5.44233,2.03084 0.76919,-5.75776 -5.44235,2.03084 0.76919,-5.75775 -5.44233,2.03082 0.7692,-5.75773 -5.44236,2.03082 0.7692,-5.75775 -5.44234,2.03083 0.7692,-5.75774 -5.44236,2.03084 0.7692,-5.75776 -5.44234,2.03084 0.7692,-5.75775 -5.44236,2.03082 0.7692,-5.75775 -5.44234,2.03084 0.7692,-5.75775 -5.44235,2.03083 0.76919,-5.75775 -5.44234,2.03084 0.7692,-5.75775 -5.44234,2.03082 0.76918,-5.75775 -5.44234,2.03084 0.7692,-5.75775 -2.72117,1.01542 v 0 l -7.18848,-5.73225"
               style="fill:none;stroke:#3b3651;stroke-width:0.3985;stroke-linecap:butt;stroke-linejoin:miter;stroke-miterlimit:10;stroke-dasharray:none;stroke-opacity:1"
               id="path76" />
          </g>
          <g
             id="g78">
            <path
               d="m -96.4819,49.19337 c 0,3.13133 -2.53838,5.66971 -5.6697,5.66971 -3.13131,0 -5.6697,-2.53838 -5.6697,-5.66971 0,-3.13131 2.53839,-5.66969 5.6697,-5.66969 3.13132,0 5.6697,2.53838 5.6697,5.66969 z"
               style="fill:#989f7a;fill-opacity:1;fill-rule:nonzero;stroke:none"
               id="path80" />
          </g>
          <g
             id="g82">
            <g
               id="g84"
               transform="translate(-128.715,57.599)">
              <g
                 id="g86">
                <g
                   id="g88"
                   transform="translate(-3.322,-195.993)">
                  <text
                     xml:space="preserve"
                     transform="matrix(1,0,0,-1,3.322,195.993)"
                     style="font-variant:normal;font-weight:normal;font-size:8.9664px;font-family:CMMI9;-inkscape-font-specification:CMMI9;writing-mode:lr-tb;fill:#000000;fill-opacity:1;fill-rule:nonzero;stroke:none"
                     id="text92"><tspan
                       x="0"
                       y="0"
                       id="tspan90">m</tspan></text>
                  <text
                     xml:space="preserve"
                     transform="matrix(1,0,0,-1,11.441,194.996)"
                     style="font-variant:normal;font-weight:normal;font-size:5.9776px;font-family:CMR6;-inkscape-font-specification:CMR6;writing-mode:lr-tb;fill:#000000;fill-opacity:1;fill-rule:nonzero;stroke:none"
                     id="text96"><tspan
                       x="0"
                       y="0"
                       id="tspan94">3</tspan></text>
                  <g
                     id="g98"
                     transform="translate(3.322,195.993)" />
                </g>
              </g>
              <g
                 id="g100"
                 transform="translate(128.715,-57.599)" />
            </g>
          </g>
          <g
             id="g102">
            <path
               d="m -102.1516,49.19337 -1.2e-4,-8.50398 2.49063,-1.49441 -4.98134,-2.98873 4.98125,-2.98885 -4.98134,-2.98872 4.98125,-2.98884 -4.98134,-2.98873 4.98125,-2.98884 -4.98134,-2.98873 4.98125,-2.98884 -4.98134,-2.98873 4.98125,-2.98884 -4.98134,-2.98873 4.98124,-2.98884 -4.98133,-2.98872 4.98124,-2.98884 -4.98134,-2.98872 4.98125,-2.98884 -4.98134,-2.98873 4.98125,-2.98884 -4.98134,-2.98873 4.98125,-2.98884 -4.98134,-2.98873 4.98124,-2.98884 -4.98133,-2.98873 4.98124,-2.98884 -4.98133,-2.98873 4.98124,-2.98884 -2.49067,-1.49437 v 0 l -3.5e-4,-9.18556"
               style="fill:none;stroke:#3b3651;stroke-width:0.3985;stroke-linecap:butt;stroke-linejoin:miter;stroke-miterlimit:10;stroke-dasharray:none;stroke-opacity:1"
               id="path104" />
          </g>
          <g
             id="g106">
            <path
               d="m -96.48364,-49.19337 c 0,3.13131 -2.53838,5.66969 -5.6697,5.66969 -3.13131,0 -5.66969,-2.53838 -5.66969,-5.66969 0,-3.13133 2.53838,-5.66971 5.66969,-5.66971 3.13132,0 5.6697,2.53838 5.6697,5.66971 z"
               style="fill:#989f7a;fill-opacity:1;fill-rule:nonzero;stroke:none"
               id="path108" />
          </g>
          <g
             id="g110">
            <g
               id="g112"
               transform="translate(-128.716,-60.464)">
              <g
                 id="g114">
                <g
                   id="g116"
                   transform="translate(-3.321,-77.93)">
                  <text
                     xml:space="preserve"
                     transform="matrix(1,0,0,-1,3.321,77.93)"
                     style="font-variant:normal;font-weight:normal;font-size:8.9664px;font-family:CMMI9;-inkscape-font-specification:CMMI9;writing-mode:lr-tb;fill:#000000;fill-opacity:1;fill-rule:nonzero;stroke:none"
                     id="text120"><tspan
                       x="0"
                       y="0"
                       id="tspan118">m</tspan></text>
                  <text
                     xml:space="preserve"
                     transform="matrix(1,0,0,-1,11.439,76.934)"
                     style="font-variant:normal;font-weight:normal;font-size:5.9776px;font-family:CMR6;-inkscape-font-specification:CMR6;writing-mode:lr-tb;fill:#000000;fill-opacity:1;fill-rule:nonzero;stroke:none"
                     id="text124"><tspan
                       x="0"
                       y="0"
                       id="tspan122">4</tspan></text>
                  <g
                     id="g126"
                     transform="translate(3.321,77.93)" />
                </g>
              </g>
              <g
                 id="g128"
                 transform="translate(128.716,60.464)" />
            </g>
          </g>
          <g
             id="g130">
            <path
               d="m -102.15334,-49.19337 6.6484,-5.30184 2.7211,1.01549 -0.76899,-5.75772 5.44223,2.03099 -0.769,-5.75772 5.44224,2.03099 -0.76898,-5.75772 5.44223,2.03097 -0.769,-5.7577 5.44223,2.03097 -0.76898,-5.75772 5.44223,2.03099 -0.769,-5.75772 5.44223,2.03099 -0.76898,-5.75772 5.44223,2.03098 -0.769,-5.75771 5.44223,2.03097 -0.769,-5.75772 5.44225,2.031 -0.769,-5.75773 5.44223,2.03099 -0.76899,-5.75772 5.44224,2.03098 -0.769,-5.75772 5.44223,2.03099 -0.76899,-5.75772 5.44223,2.03099 -0.38448,-2.87886 v 0 l 7.18884,-5.73322"
               style="fill:none;stroke:#3b3651;stroke-width:0.3985;stroke-linecap:butt;stroke-linejoin:miter;stroke-miterlimit:10;stroke-dasharray:none;stroke-opacity:1"
               id="path132" />
          </g>
          <g
             id="g134">
            <path
               d="m -19.55762,-110.53938 c 0,3.13131 -2.53838,5.66969 -5.66969,5.66969 -3.13132,0 -5.66969,-2.53838 -5.66969,-5.66969 0,-3.13132 2.53837,-5.66971 5.66969,-5.66971 3.13131,0 5.66969,2.53839 5.66969,5.66971 z"
               style="fill:#989f7a;fill-opacity:1;fill-rule:nonzero;stroke:none"
               id="path136" />
          </g>
          <g
             id="g138">
            <g
               id="g140"
               transform="translate(-36.407,-134.077)">
              <g
                 id="g142">
                <g
                   id="g144"
                   transform="translate(-95.63,-4.317)">
                  <text
                     xml:space="preserve"
                     transform="matrix(1,0,0,-1,95.63,4.317)"
                     style="font-variant:normal;font-weight:normal;font-size:8.9664px;font-family:CMMI9;-inkscape-font-specification:CMMI9;writing-mode:lr-tb;fill:#000000;fill-opacity:1;fill-rule:nonzero;stroke:none"
                     id="text148"><tspan
                       x="0"
                       y="0"
                       id="tspan146">m</tspan></text>
                  <text
                     xml:space="preserve"
                     transform="matrix(1,0,0,-1,103.749,3.321)"
                     style="font-variant:normal;font-weight:normal;font-size:5.9776px;font-family:CMR6;-inkscape-font-specification:CMR6;writing-mode:lr-tb;fill:#000000;fill-opacity:1;fill-rule:nonzero;stroke:none"
                     id="text152"><tspan
                       x="0"
                       y="0"
                       id="tspan150">5</tspan></text>
                  <g
                     id="g154"
                     transform="translate(95.63,4.317)" />
                </g>
              </g>
              <g
                 id="g156"
                 transform="translate(36.407,134.077)" />
            </g>
          </g>
          <g
             id="g158">
            <path
               d="m -25.22731,-110.53938 8.29053,1.89232 0.90265,2.76066 4.0222,-4.19119 1.80533,5.52135 4.0222,-4.19121 1.80533,5.52135 4.0222,-4.19121 1.80531,5.52134 4.0222,-4.19119 1.80533,5.52133 4.02219,-4.19119 1.80533,5.52133 4.0222,-4.19119 1.80533,5.52135 4.0222,-4.19121 1.80532,5.52134 4.02221,-4.1912 1.80532,5.52135 4.02221,-4.1912 1.80531,5.52133 4.0222,-4.19119 1.80533,5.52135 4.0222,-4.19121 1.80533,5.52135 4.0222,-4.19121 1.80533,5.52135 4.0222,-4.1912 1.80532,5.52134 2.0111,-2.09558 v 0 l 8.95746,2.0458"
               style="fill:none;stroke:#3b3651;stroke-width:0.3985;stroke-linecap:butt;stroke-linejoin:miter;stroke-miterlimit:10;stroke-dasharray:none;stroke-opacity:1"
               id="path160" />
          </g>
          <g
             id="g162">
            <path
               d="m 76.36197,-88.6443 c 0,3.13131 -2.53839,5.66969 -5.66971,5.66969 -3.13132,0 -5.66969,-2.53838 -5.66969,-5.66969 0,-3.13133 2.53837,-5.66971 5.66969,-5.66971 3.13132,0 5.66971,2.53838 5.66971,5.66971 z"
               style="fill:#989f7a;fill-opacity:1;fill-rule:nonzero;stroke:none"
               id="path164" />
          </g>
          <g
             id="g166">
            <g
               id="g168"
               transform="translate(78.694,-107.803)">
              <g
                 id="g170">
                <g
                   id="g172"
                   transform="translate(-210.731,-30.591)">
                  <text
                     xml:space="preserve"
                     transform="matrix(1,0,0,-1,210.731,30.591)"
                     style="font-variant:normal;font-weight:normal;font-size:8.9664px;font-family:CMMI9;-inkscape-font-specification:CMMI9;writing-mode:lr-tb;fill:#000000;fill-opacity:1;fill-rule:nonzero;stroke:none"
                     id="text176"><tspan
                       x="0"
                       y="0"
                       id="tspan174">m</tspan></text>
                  <text
                     xml:space="preserve"
                     transform="matrix(1,0,0,-1,218.85,29.594)"
                     style="font-variant:normal;font-weight:normal;font-size:5.9776px;font-family:CMR6;-inkscape-font-specification:CMR6;writing-mode:lr-tb;fill:#000000;fill-opacity:1;fill-rule:nonzero;stroke:none"
                     id="text180"><tspan
                       x="0"
                       y="0"
                       id="tspan178">6</tspan></text>
                  <g
                     id="g182"
                     transform="translate(210.731,30.591)" />
                </g>
              </g>
              <g
                 id="g184"
                 transform="translate(-78.694,107.803)" />
            </g>
          </g>
          <g
             id="g186">
            <path
               d="m 70.69226,-88.6443 3.68991,7.66142 -1.59546,2.42705 5.78462,0.53125 -3.19091,4.85408 5.78462,0.53125 -3.19092,4.85408 5.78462,0.53125 -3.19093,4.85408 5.78464,0.53125 -3.19094,4.85408 5.78464,0.53125 -3.19093,4.85408 5.78462,0.53125 -3.19092,4.85408 5.78462,0.53125 -3.19091,4.85408 5.78462,0.53125 -3.19093,4.85408 5.78463,0.53125 -3.19093,4.85408 5.78462,0.53125 -3.19092,4.85408 5.78463,0.53125 -3.19092,4.8541 5.78462,0.53123 -3.19093,4.8541 5.78464,0.53123 -3.19094,4.8541 2.89232,0.26562 v 0 L 113.38548,0"
               style="fill:none;stroke:#3b3651;stroke-width:0.3985;stroke-linecap:butt;stroke-linejoin:miter;stroke-miterlimit:10;stroke-dasharray:none;stroke-opacity:1"
               id="path188" />
          </g>
          <g
             id="g190">
            <path
               d="m 119.05519,0 c 0,3.13132 -2.53837,5.6697 -5.66969,5.6697 -3.13132,0 -5.6697,-2.53838 -5.6697,-5.6697 0,-3.13132 2.53838,-5.6697 5.6697,-5.6697 3.13132,0 5.66969,2.53838 5.66969,5.6697 z"
               style="fill:#989f7a;fill-opacity:1;fill-rule:nonzero;stroke:none"
               id="path192" />
          </g>
          <g
             id="g194">
            <g
               id="g196"
               transform="translate(129.925,-1.432)">
              <g
                 id="g198">
                <g
                   id="g200"
                   transform="translate(-261.962,-136.962)">
                  <text
                     xml:space="preserve"
                     transform="matrix(1,0,0,-1,261.962,136.962)"
                     style="font-variant:normal;font-weight:normal;font-size:8.9664px;font-family:CMMI9;-inkscape-font-specification:CMMI9;writing-mode:lr-tb;fill:#000000;fill-opacity:1;fill-rule:nonzero;stroke:none"
                     id="text204"><tspan
                       x="0"
                       y="0"
                       id="tspan202">m</tspan></text>
                  <text
                     xml:space="preserve"
                     transform="matrix(1,0,0,-1,270.081,135.965)"
                     style="font-variant:normal;font-weight:normal;font-size:5.9776px;font-family:CMR6;-inkscape-font-specification:CMR6;writing-mode:lr-tb;fill:#000000;fill-opacity:1;fill-rule:nonzero;stroke:none"
                     id="text208"><tspan
                       x="0"
                       y="0"
                       id="tspan206">7</tspan></text>
                  <g
                     id="g210"
                     transform="translate(261.962,136.962)" />
                </g>
              </g>
              <g
                 id="g212"
                 transform="translate(-129.925,1.432)" />
            </g>
          </g>
          <g
             id="g214">
            <path
               d="m 113.3855,0 -3.68991,7.66142 -2.89232,0.26563 3.19093,4.85408 -5.78464,0.53125 3.19094,4.85408 -5.78462,0.53125 3.19092,4.85408 -5.78463,0.53125 3.19092,4.85408 -5.78462,0.53125 3.19093,4.85409 -5.78464,0.53124 3.19094,4.8541 -5.78464,0.53123 3.19093,4.85409 -5.78462,0.53125 3.19092,4.85408 -5.78462,0.53125 3.19091,4.85408 -5.78462,0.53125 3.19094,4.85408 -5.78464,0.53125 3.19093,4.85409 -5.78462,0.53125 3.19092,4.85408 -5.78463,0.53125 3.19092,4.85407 -5.78462,0.53126 1.59546,2.42704 v 0 l -3.99007,8.28089"
               style="fill:none;stroke:#3b3651;stroke-width:0.3985;stroke-linecap:butt;stroke-linejoin:miter;stroke-miterlimit:10;stroke-dasharray:none;stroke-opacity:1"
               id="path216" />
          </g>
        </g>
      </g>
    </g>
  </g>
</svg>
