<svg version="1.1" xmlns="http://www.w3.org/2000/svg" xmlns:xlink="http://www.w3.org/1999/xlink" width="1084" height="748"><defs><clipPath id="aCOQJHaWEgnw"><path fill="none" stroke="none" d=" M 0 0 L 1084 0 L 1084 748 L 0 748 L 0 0 Z"/></clipPath></defs><g transform="scale(1,1)" clip-path="url(#aCOQJHaWEgnw)"><g><rect fill="rgb(255,255,255)" stroke="none" x="0" y="0" width="1084" height="748" fill-opacity="1"/><path fill="rgb(160,160,160)" stroke="none" paint-order="stroke fill markers" fill-rule="evenodd" d=" M 615.3357068289748 256.8556157997048 L 653.3375174597909 368.161091385923 L 412.4542510794125 472.1226821659027 Z" fill-opacity="0.7490196078431373"/><path fill="none" stroke="rgb(0,0,0)" paint-order="fill stroke markers" d=" M -5 652.2896513050091 L 1089 180.1357237104678" stroke-opacity="0.6980392156862745" stroke-linecap="round" stroke-linejoin="round" stroke-miterlimit="10" stroke-width="2.5"/><path fill="none" stroke="rgb(0,0,0)" paint-order="fill stroke markers" d=" M 162.73254137776053 538.6404073133858 L 175.0098668687109 574.6001031808479" stroke-opacity="0.6980392156862745" stroke-linecap="round" stroke-linejoin="round" stroke-miterlimit="10" stroke-width="2.5"/><path fill="none" stroke="rgb(0,0,0)" paint-order="fill stroke markers" d=" M 428.6945475626276 677.5715991183177 L 365.47310584466436 492.3990370520781" stroke-opacity="0.6980392156862745" stroke-linecap="round" stroke-linejoin="round" stroke-miterlimit="10" stroke-width="2.5"/><path fill="none" stroke="rgb(0,0,0)" paint-order="fill stroke markers" d=" M 270.73890067021057 390.13571861202814 L 313.33601580801434 514.9006200814698" stroke-opacity="0.6980392156862745" stroke-linecap="round" stroke-linejoin="round" stroke-miterlimit="10" stroke-width="2.5"/><path fill="none" stroke="rgb(0,0,0)" paint-order="fill stroke markers" d=" M 550.3722094047766 546.6134376441416 L 510.4934412867252 429.81044385276647" stroke-opacity="0.6980392156862745" stroke-linecap="round" stroke-linejoin="round" stroke-miterlimit="10" stroke-width="2.5"/><path fill="none" stroke="rgb(0,0,0)" paint-order="fill stroke markers" d=" M 460.4612308638884 451.4035925341001 L 406.0088817954473 291.9152810762559" stroke-opacity="0.6980392156862745" stroke-linecap="round" stroke-linejoin="round" stroke-miterlimit="10" stroke-width="2.5"/><text fill="rgb(255,0,0)" stroke="none" font-family="geogebra-sans-serif, sans-serif" font-size="16px" font-style="normal" font-weight="normal" text-decoration="normal" x="649" y="307" text-anchor="start" dominant-baseline="alphabetic" fill-opacity="1">a</text><text fill="none" stroke="rgb(255,255,255)" font-family="geogebra-sans-serif, sans-serif" font-size="16px" font-style="normal" font-weight="normal" text-decoration="normal" x="649" y="307" text-anchor="start" dominant-baseline="alphabetic" stroke-opacity="1" stroke-linejoin="bevel" stroke-miterlimit="10" stroke-width="3">a</text><text fill="rgb(255,0,0)" stroke="none" font-family="geogebra-sans-serif, sans-serif" font-size="16px" font-style="normal" font-weight="normal" text-decoration="normal" x="649" y="307" text-anchor="start" dominant-baseline="alphabetic" fill-opacity="1">a</text><path fill="none" stroke="rgb(255,0,0)" paint-order="fill stroke markers" d=" M 653.3375174597909 368.161091385923 L 615.3357068289748 256.8556157997048" stroke-opacity="0.6980392156862745" stroke-linecap="round" stroke-linejoin="round" stroke-miterlimit="10" stroke-width="2.5"/><path fill="none" stroke="rgb(0,0,0)" paint-order="fill stroke markers" d=" M 592.0875505474429 394.59565486188353 L 530.0917506909344 213.01293885884638" stroke-opacity="0.6980392156862745" stroke-linecap="round" stroke-linejoin="round" stroke-miterlimit="10" stroke-width="2.5"/><path fill="none" stroke="rgb(160,160,160)" paint-order="fill stroke markers" d=" M 615.3357068289748 256.8556157997048 L 653.3375174597909 368.161091385923" stroke-opacity="0.6980392156862745" stroke-linecap="round" stroke-linejoin="round" stroke-miterlimit="10" stroke-width="2.5"/><text fill="rgb(255,0,0)" stroke="none" font-family="geogebra-sans-serif, sans-serif" font-size="16px" font-style="normal" font-weight="normal" text-decoration="normal" x="552" y="436" text-anchor="start" dominant-baseline="alphabetic" fill-opacity="1">b</text><text fill="none" stroke="rgb(255,255,255)" font-family="geogebra-sans-serif, sans-serif" font-size="16px" font-style="normal" font-weight="normal" text-decoration="normal" x="552" y="436" text-anchor="start" dominant-baseline="alphabetic" stroke-opacity="1" stroke-linejoin="bevel" stroke-miterlimit="10" stroke-width="3">b</text><text fill="rgb(255,0,0)" stroke="none" font-family="geogebra-sans-serif, sans-serif" font-size="16px" font-style="normal" font-weight="normal" text-decoration="normal" x="552" y="436" text-anchor="start" dominant-baseline="alphabetic" fill-opacity="1">b</text><path fill="none" stroke="rgb(255,0,0)" paint-order="fill stroke markers" d=" M 653.3375174597909 368.161091385923 L 412.4542510794125 472.1226821659027" stroke-opacity="0.6980392156862745" stroke-linecap="round" stroke-linejoin="round" stroke-miterlimit="10" stroke-width="2.5"/><text fill="rgb(160,160,160)" stroke="none" font-family="geogebra-sans-serif, sans-serif" font-size="16px" font-style="normal" font-weight="normal" text-decoration="normal" x="516" y="339" text-anchor="start" dominant-baseline="alphabetic" fill-opacity="1">c</text><text fill="none" stroke="rgb(255,255,255)" font-family="geogebra-sans-serif, sans-serif" font-size="16px" font-style="normal" font-weight="normal" text-decoration="normal" x="516" y="339" text-anchor="start" dominant-baseline="alphabetic" stroke-opacity="1" stroke-linejoin="bevel" stroke-miterlimit="10" stroke-width="3">c</text><text fill="rgb(160,160,160)" stroke="none" font-family="geogebra-sans-serif, sans-serif" font-size="16px" font-style="normal" font-weight="normal" text-decoration="normal" x="516" y="339" text-anchor="start" dominant-baseline="alphabetic" fill-opacity="1">c</text><path fill="none" stroke="rgb(160,160,160)" paint-order="fill stroke markers" d=" M 412.4542510794125 472.1226821659027 L 615.3357068289748 256.8556157997048" stroke-opacity="0.6980392156862745" stroke-linecap="round" stroke-linejoin="round" stroke-miterlimit="10" stroke-width="2.5"/><path fill="none" stroke="rgb(0,0,0)" paint-order="fill stroke markers" d=" M 101.5 125.5 L 301.5 125.5" stroke-opacity="0.39215686274509803" stroke-linecap="round" stroke-linejoin="round" stroke-miterlimit="10" stroke-width="5"/><path fill="rgb(0,0,0)" stroke="none" paint-order="stroke fill markers" d=" M 221.66666666666666 125.5 C 221.66666666666666 130.19442037356174 217.8610870402284 134 213.16666666666666 134 C 208.47224629310492 134 204.66666666666666 130.19442037356174 204.66666666666666 125.5 C 204.66666666666666 120.80557962643826 208.47224629310492 117 213.16666666666666 117 C 217.8610870402284 117 221.66666666666666 120.80557962643826 221.66666666666666 125.5 Z" fill-opacity="0.39215686274509803"/><path fill="none" stroke="rgb(0,0,0)" paint-order="fill stroke markers" d=" M 221.66666666666666 125.5 C 221.66666666666666 130.19442037356174 217.8610870402284 134 213.16666666666666 134 C 208.47224629310492 134 204.66666666666666 130.19442037356174 204.66666666666666 125.5 C 204.66666666666666 120.80557962643826 208.47224629310492 117 213.16666666666666 117 C 217.8610870402284 117 221.66666666666666 120.80557962643826 221.66666666666666 125.5 Z" stroke-opacity="0.39215686274509803" stroke-linecap="round" stroke-linejoin="round" stroke-miterlimit="10"/><path fill="rgb(0,0,0)" stroke="none" paint-order="stroke fill markers" d=" M 218.66666666666666 125.5 C 218.66666666666666 128.53756612406937 216.20423279073603 131 213.16666666666666 131 C 210.12910054259729 131 207.66666666666666 128.53756612406937 207.66666666666666 125.5 C 207.66666666666666 122.46243387593064 210.12910054259729 120 213.16666666666666 120 C 216.20423279073603 120 218.66666666666666 122.46243387593064 218.66666666666666 125.5 Z" fill-opacity="1"/><path fill="none" stroke="rgb(0,0,0)" paint-order="fill stroke markers" d=" M 218.66666666666666 125.5 C 218.66666666666666 128.53756612406937 216.20423279073603 131 213.16666666666666 131 C 210.12910054259729 131 207.66666666666666 128.53756612406937 207.66666666666666 125.5 C 207.66666666666666 122.46243387593064 210.12910054259729 120 213.16666666666666 120 C 216.20423279073603 120 218.66666666666666 122.46243387593064 218.66666666666666 125.5 Z" stroke-opacity="1" stroke-linecap="round" stroke-linejoin="round" stroke-miterlimit="10"/><text fill="rgb(0,0,0)" stroke="none" font-family="geogebra-sans-serif, sans-serif" font-size="16px" font-style="normal" font-weight="normal" text-decoration="normal" x="202" y="110" text-anchor="start" dominant-baseline="alphabetic" fill-opacity="1">Theta = 21</text><text fill="none" stroke="rgb(255,255,255)" font-family="geogebra-sans-serif, sans-serif" font-size="16px" font-style="normal" font-weight="normal" text-decoration="normal" x="202" y="110" text-anchor="start" dominant-baseline="alphabetic" stroke-opacity="1" stroke-linejoin="bevel" stroke-miterlimit="10" stroke-width="3">Theta = 21</text><text fill="rgb(0,0,0)" stroke="none" font-family="geogebra-sans-serif, sans-serif" font-size="16px" font-style="normal" font-weight="normal" text-decoration="normal" x="202" y="110" text-anchor="start" dominant-baseline="alphabetic" fill-opacity="1">Theta = 21</text><path fill="rgb(255,0,0)" stroke="none" paint-order="stroke fill markers" d=" M 420.4542510794125 472.1226821659027 C 420.4542510794125 476.540960164549 416.87252907805885 480.1226821659027 412.4542510794125 480.1226821659027 C 408.0359730807661 480.1226821659027 404.4542510794125 476.540960164549 404.4542510794125 472.1226821659027 C 404.4542510794125 467.7044041672563 408.0359730807661 464.1226821659027 412.4542510794125 464.1226821659027 C 416.87252907805885 464.1226821659027 420.4542510794125 467.7044041672563 420.4542510794125 472.1226821659027 Z" fill-opacity="1"/><path fill="none" stroke="rgb(0,0,0)" paint-order="fill stroke markers" d=" M 420.4542510794125 472.1226821659027 C 420.4542510794125 476.540960164549 416.87252907805885 480.1226821659027 412.4542510794125 480.1226821659027 C 408.0359730807661 480.1226821659027 404.4542510794125 476.540960164549 404.4542510794125 472.1226821659027 C 404.4542510794125 467.7044041672563 408.0359730807661 464.1226821659027 412.4542510794125 464.1226821659027 C 416.87252907805885 464.1226821659027 420.4542510794125 467.7044041672563 420.4542510794125 472.1226821659027 Z" stroke-opacity="1" stroke-linecap="round" stroke-linejoin="round" stroke-miterlimit="10"/><g transform="scale(19,19)"><g transform="translate(21.894736842105264,27.39171052631579) scale(2.5,2.5)"><g transform="translate(0,0)"><path fill="rgb(255,0,0)" stroke="none" paint-order="stroke fill markers" d=" M 0.74 -0.436 L 0.74 -0.436 Q 0.74 -0.281 0.63 -0.149 Q 0.531 -0.029 0.398 0.009000000000000001 Q 0.35100000000000003 0.022 0.305 0.022 Q 0.18 0.022 0.108 -0.066 Q 0.049 -0.138 0.049 -0.245 Q 0.049 -0.395 0.156 -0.529 Q 0.255 -0.65 0.388 -0.6900000000000001 Q 0.437 -0.705 0.485 -0.705 Q 0.612 -0.705 0.684 -0.613 Q 0.74 -0.541 0.74 -0.436 M 0.311 -0.004 L 0.311 -0.004 Q 0.405 -0.004 0.492 -0.088 Q 0.51 -0.105 0.525 -0.124 Q 0.623 -0.246 0.646 -0.41500000000000004 Q 0.651 -0.448 0.651 -0.47500000000000003 Q 0.651 -0.612 0.559 -0.661 Q 0.558 -0.661 0.557 -0.662 Q 0.521 -0.68 0.47900000000000004 -0.68 Q 0.385 -0.68 0.297 -0.599 Q 0.261 -0.5670000000000001 0.233 -0.524 Q 0.157 -0.40900000000000003 0.14400000000000002 -0.249 Q 0.14200000000000002 -0.231 0.14200000000000002 -0.217 Q 0.14200000000000002 -0.089 0.219 -0.033 Q 0.259 -0.004 0.311 -0.004 Z"/></g></g></g><path fill="rgb(255,0,0)" stroke="none" paint-order="stroke fill markers" d=" M 623.3357068289748 256.8556157997048 C 623.3357068289748 261.2738937983512 619.7539848276211 264.8556157997048 615.3357068289748 264.8556157997048 C 610.9174288303285 264.8556157997048 607.3357068289748 261.2738937983512 607.3357068289748 256.8556157997048 C 607.3357068289748 252.43733780105848 610.9174288303285 248.85561579970482 615.3357068289748 248.85561579970482 C 619.7539848276211 248.85561579970482 623.3357068289748 252.43733780105848 623.3357068289748 256.8556157997048 Z" fill-opacity="1"/><path fill="none" stroke="rgb(0,0,0)" paint-order="fill stroke markers" d=" M 623.3357068289748 256.8556157997048 C 623.3357068289748 261.2738937983512 619.7539848276211 264.8556157997048 615.3357068289748 264.8556157997048 C 610.9174288303285 264.8556157997048 607.3357068289748 261.2738937983512 607.3357068289748 256.8556157997048 C 607.3357068289748 252.43733780105848 610.9174288303285 248.85561579970482 615.3357068289748 248.85561579970482 C 619.7539848276211 248.85561579970482 623.3357068289748 252.43733780105848 623.3357068289748 256.8556157997048 Z" stroke-opacity="1" stroke-linecap="round" stroke-linejoin="round" stroke-miterlimit="10"/><g transform="scale(19,19)"><g transform="translate(31.789473684210527,12.654868421052631) scale(2.5,2.5)"><g transform="translate(0,0)"><path fill="rgb(255,0,0)" stroke="none" paint-order="stroke fill markers" d=" M 0.303 -0.316 L 0.303 -0.316 L 0.241 -0.066 L 0.23800000000000002 -0.049 Q 0.23800000000000002 -0.032 0.28400000000000003 -0.031 L 0.28400000000000003 -0.031 L 0.28400000000000003 -0.031 L 0.303 -0.031 Q 0.329 -0.031 0.331 -0.02 Q 0.331 0 0.311 0 L 0.247 -0.002 L 0.246 -0.002 L 0.184 -0.003 L 0.182 -0.003 L 0.056 0 L 0.055 0 Q 0.04 0 0.04 -0.012 Q 0.04 -0.029 0.056 -0.031 L 0.068 -0.031 Q 0.133 -0.031 0.146 -0.045 Q 0.152 -0.052000000000000005 0.158 -0.073 Q 0.158 -0.074 0.159 -0.078 L 0.293 -0.615 Q 0.297 -0.631 0.297 -0.634 Q 0.297 -0.646 0.281 -0.649 L 0.28 -0.649 L 0.28 -0.649 Q 0.278 -0.65 0.275 -0.65 Q 0.251 -0.652 0.232 -0.652 Q 0.20600000000000002 -0.652 0.20400000000000001 -0.66 Q 0.203 -0.662 0.203 -0.664 Q 0.203 -0.681 0.22 -0.683 L 0.22 -0.683 L 0.233 -0.683 L 0.557 -0.683 Q 0.678 -0.683 0.73 -0.609 Q 0.754 -0.5740000000000001 0.754 -0.532 Q 0.754 -0.451 0.671 -0.385 Q 0.583 -0.316 0.47300000000000003 -0.316 L 0.303 -0.316 M 0.375 -0.614 L 0.307 -0.342 L 0.448 -0.342 Q 0.543 -0.342 0.602 -0.395 Q 0.643 -0.433 0.658 -0.522 L 0.658 -0.523 Q 0.661 -0.542 0.661 -0.556 Q 0.661 -0.652 0.525 -0.652 L 0.429 -0.652 Q 0.393 -0.652 0.385 -0.642 L 0.385 -0.642 L 0.385 -0.641 L 0.384 -0.641 L 0.384 -0.64 Q 0.38 -0.634 0.375 -0.614 Z"/></g></g></g><path fill="rgb(77,77,255)" stroke="none" paint-order="stroke fill markers" d=" M 275.73890067021057 390.13571861202814 C 275.73890067021057 392.8971423611821 273.5003244193645 395.13571861202814 270.73890067021057 395.13571861202814 C 267.9774769210566 395.13571861202814 265.73890067021057 392.8971423611821 265.73890067021057 390.13571861202814 C 265.73890067021057 387.3742948628742 267.9774769210566 385.13571861202814 270.73890067021057 385.13571861202814 C 273.5003244193645 385.13571861202814 275.73890067021057 387.3742948628742 275.73890067021057 390.13571861202814 Z" fill-opacity="1"/><path fill="none" stroke="rgb(0,0,0)" paint-order="fill stroke markers" d=" M 275.73890067021057 390.13571861202814 C 275.73890067021057 392.8971423611821 273.5003244193645 395.13571861202814 270.73890067021057 395.13571861202814 C 267.9774769210566 395.13571861202814 265.73890067021057 392.8971423611821 265.73890067021057 390.13571861202814 C 265.73890067021057 387.3742948628742 267.9774769210566 385.13571861202814 270.73890067021057 385.13571861202814 C 273.5003244193645 385.13571861202814 275.73890067021057 387.3742948628742 275.73890067021057 390.13571861202814 Z" stroke-opacity="1" stroke-linecap="round" stroke-linejoin="round" stroke-miterlimit="10"/><path fill="rgb(77,77,255)" stroke="none" paint-order="stroke fill markers" d=" M 411.0088817954473 291.9152810762559 C 411.0088817954473 294.67670482540984 408.77030554460123 296.9152810762559 406.0088817954473 296.9152810762559 C 403.24745804629333 296.9152810762559 401.0088817954473 294.67670482540984 401.0088817954473 291.9152810762559 C 401.0088817954473 289.15385732710195 403.24745804629333 286.9152810762559 406.0088817954473 286.9152810762559 C 408.77030554460123 286.9152810762559 411.0088817954473 289.15385732710195 411.0088817954473 291.9152810762559 Z" fill-opacity="1"/><path fill="none" stroke="rgb(0,0,0)" paint-order="fill stroke markers" d=" M 411.0088817954473 291.9152810762559 C 411.0088817954473 294.67670482540984 408.77030554460123 296.9152810762559 406.0088817954473 296.9152810762559 C 403.24745804629333 296.9152810762559 401.0088817954473 294.67670482540984 401.0088817954473 291.9152810762559 C 401.0088817954473 289.15385732710195 403.24745804629333 286.9152810762559 406.0088817954473 286.9152810762559 C 408.77030554460123 286.9152810762559 411.0088817954473 289.15385732710195 411.0088817954473 291.9152810762559 Z" stroke-opacity="1" stroke-linecap="round" stroke-linejoin="round" stroke-miterlimit="10"/><path fill="rgb(77,77,255)" stroke="none" paint-order="stroke fill markers" d=" M 555.3722094047766 546.6134376441416 C 555.3722094047766 549.3748613932956 553.1336331539306 551.6134376441416 550.3722094047766 551.6134376441416 C 547.6107856556226 551.6134376441416 545.3722094047766 549.3748613932956 545.3722094047766 546.6134376441416 C 545.3722094047766 543.8520138949876 547.6107856556226 541.6134376441416 550.3722094047766 541.6134376441416 C 553.1336331539306 541.6134376441416 555.3722094047766 543.8520138949876 555.3722094047766 546.6134376441416 Z" fill-opacity="1"/><path fill="none" stroke="rgb(0,0,0)" paint-order="fill stroke markers" d=" M 555.3722094047766 546.6134376441416 C 555.3722094047766 549.3748613932956 553.1336331539306 551.6134376441416 550.3722094047766 551.6134376441416 C 547.6107856556226 551.6134376441416 545.3722094047766 549.3748613932956 545.3722094047766 546.6134376441416 C 545.3722094047766 543.8520138949876 547.6107856556226 541.6134376441416 550.3722094047766 541.6134376441416 C 553.1336331539306 541.6134376441416 555.3722094047766 543.8520138949876 555.3722094047766 546.6134376441416 Z" stroke-opacity="1" stroke-linecap="round" stroke-linejoin="round" stroke-miterlimit="10"/><path fill="rgb(77,77,255)" stroke="none" paint-order="stroke fill markers" d=" M 433.6945475626276 677.5715991183177 C 433.6945475626276 680.3330228674718 431.4559713117815 682.5715991183177 428.6945475626276 682.5715991183177 C 425.9331238134736 682.5715991183177 423.6945475626276 680.3330228674718 423.6945475626276 677.5715991183177 C 423.6945475626276 674.8101753691637 425.9331238134736 672.5715991183177 428.6945475626276 672.5715991183177 C 431.4559713117815 672.5715991183177 433.6945475626276 674.8101753691637 433.6945475626276 677.5715991183177 Z" fill-opacity="1"/><path fill="none" stroke="rgb(0,0,0)" paint-order="fill stroke markers" d=" M 433.6945475626276 677.5715991183177 C 433.6945475626276 680.3330228674718 431.4559713117815 682.5715991183177 428.6945475626276 682.5715991183177 C 425.9331238134736 682.5715991183177 423.6945475626276 680.3330228674718 423.6945475626276 677.5715991183177 C 423.6945475626276 674.8101753691637 425.9331238134736 672.5715991183177 428.6945475626276 672.5715991183177 C 431.4559713117815 672.5715991183177 433.6945475626276 674.8101753691637 433.6945475626276 677.5715991183177 Z" stroke-opacity="1" stroke-linecap="round" stroke-linejoin="round" stroke-miterlimit="10"/><path fill="rgb(77,77,255)" stroke="none" paint-order="stroke fill markers" d=" M 167.73254137776053 538.6404073133858 C 167.73254137776053 541.4018310625398 165.4939651269145 543.6404073133858 162.73254137776053 543.6404073133858 C 159.97111762860655 543.6404073133858 157.73254137776053 541.4018310625398 157.73254137776053 538.6404073133858 C 157.73254137776053 535.8789835642318 159.97111762860655 533.6404073133858 162.73254137776053 533.6404073133858 C 165.4939651269145 533.6404073133858 167.73254137776053 535.8789835642318 167.73254137776053 538.6404073133858 Z" fill-opacity="1"/><path fill="none" stroke="rgb(0,0,0)" paint-order="fill stroke markers" d=" M 167.73254137776053 538.6404073133858 C 167.73254137776053 541.4018310625398 165.4939651269145 543.6404073133858 162.73254137776053 543.6404073133858 C 159.97111762860655 543.6404073133858 157.73254137776053 541.4018310625398 157.73254137776053 538.6404073133858 C 157.73254137776053 535.8789835642318 159.97111762860655 533.6404073133858 162.73254137776053 533.6404073133858 C 165.4939651269145 533.6404073133858 167.73254137776053 535.8789835642318 167.73254137776053 538.6404073133858 Z" stroke-opacity="1" stroke-linecap="round" stroke-linejoin="round" stroke-miterlimit="10"/><path fill="rgb(77,77,255)" stroke="none" paint-order="stroke fill markers" d=" M 535.0917506909344 213.01293885884638 C 535.0917506909344 215.77436260800036 532.8531744400884 218.01293885884638 530.0917506909344 218.01293885884638 C 527.3303269417804 218.01293885884638 525.0917506909344 215.77436260800036 525.0917506909344 213.01293885884638 C 525.0917506909344 210.2515151096924 527.3303269417804 208.01293885884638 530.0917506909344 208.01293885884638 C 532.8531744400884 208.01293885884638 535.0917506909344 210.2515151096924 535.0917506909344 213.01293885884638 Z" fill-opacity="1"/><path fill="none" stroke="rgb(0,0,0)" paint-order="fill stroke markers" d=" M 535.0917506909344 213.01293885884638 C 535.0917506909344 215.77436260800036 532.8531744400884 218.01293885884638 530.0917506909344 218.01293885884638 C 527.3303269417804 218.01293885884638 525.0917506909344 215.77436260800036 525.0917506909344 213.01293885884638 C 525.0917506909344 210.2515151096924 527.3303269417804 208.01293885884638 530.0917506909344 208.01293885884638 C 532.8531744400884 208.01293885884638 535.0917506909344 210.2515151096924 535.0917506909344 213.01293885884638 Z" stroke-opacity="1" stroke-linecap="round" stroke-linejoin="round" stroke-miterlimit="10"/><path fill="rgb(68,68,68)" stroke="none" paint-order="stroke fill markers" d=" M 179.0098668687109 574.6001031808479 C 179.0098668687109 576.809242180171 177.21900586803406 578.6001031808479 175.0098668687109 578.6001031808479 C 172.8007278693877 578.6001031808479 171.0098668687109 576.809242180171 171.0098668687109 574.6001031808479 C 171.0098668687109 572.3909641815247 172.8007278693877 570.6001031808479 175.0098668687109 570.6001031808479 C 177.21900586803406 570.6001031808479 179.0098668687109 572.3909641815247 179.0098668687109 574.6001031808479 Z" fill-opacity="1"/><path fill="none" stroke="rgb(0,0,0)" paint-order="fill stroke markers" d=" M 179.0098668687109 574.6001031808479 C 179.0098668687109 576.809242180171 177.21900586803406 578.6001031808479 175.0098668687109 578.6001031808479 C 172.8007278693877 578.6001031808479 171.0098668687109 576.809242180171 171.0098668687109 574.6001031808479 C 171.0098668687109 572.3909641815247 172.8007278693877 570.6001031808479 175.0098668687109 570.6001031808479 C 177.21900586803406 570.6001031808479 179.0098668687109 572.3909641815247 179.0098668687109 574.6001031808479 Z" stroke-opacity="1" stroke-linecap="round" stroke-linejoin="round" stroke-miterlimit="10"/><path fill="rgb(68,68,68)" stroke="none" paint-order="stroke fill markers" d=" M 369.47310584466436 492.3990370520781 C 369.47310584466436 494.60817605140124 367.6822448439875 496.3990370520781 365.47310584466436 496.3990370520781 C 363.2639668453412 496.3990370520781 361.47310584466436 494.60817605140124 361.47310584466436 492.3990370520781 C 361.47310584466436 490.1898980527549 363.2639668453412 488.3990370520781 365.47310584466436 488.3990370520781 C 367.6822448439875 488.3990370520781 369.47310584466436 490.1898980527549 369.47310584466436 492.3990370520781 Z" fill-opacity="1"/><path fill="none" stroke="rgb(0,0,0)" paint-order="fill stroke markers" d=" M 369.47310584466436 492.3990370520781 C 369.47310584466436 494.60817605140124 367.6822448439875 496.3990370520781 365.47310584466436 496.3990370520781 C 363.2639668453412 496.3990370520781 361.47310584466436 494.60817605140124 361.47310584466436 492.3990370520781 C 361.47310584466436 490.1898980527549 363.2639668453412 488.3990370520781 365.47310584466436 488.3990370520781 C 367.6822448439875 488.3990370520781 369.47310584466436 490.1898980527549 369.47310584466436 492.3990370520781 Z" stroke-opacity="1" stroke-linecap="round" stroke-linejoin="round" stroke-miterlimit="10"/><path fill="rgb(68,68,68)" stroke="none" paint-order="stroke fill markers" d=" M 317.33601580801434 514.9006200814698 C 317.33601580801434 517.109759080793 315.5451548073375 518.9006200814698 313.33601580801434 518.9006200814698 C 311.1268768086912 518.9006200814698 309.33601580801434 517.109759080793 309.33601580801434 514.9006200814698 C 309.33601580801434 512.6914810821467 311.1268768086912 510.9006200814698 313.33601580801434 510.9006200814698 C 315.5451548073375 510.9006200814698 317.33601580801434 512.6914810821467 317.33601580801434 514.9006200814698 Z" fill-opacity="1"/><path fill="none" stroke="rgb(0,0,0)" paint-order="fill stroke markers" d=" M 317.33601580801434 514.9006200814698 C 317.33601580801434 517.109759080793 315.5451548073375 518.9006200814698 313.33601580801434 518.9006200814698 C 311.1268768086912 518.9006200814698 309.33601580801434 517.109759080793 309.33601580801434 514.9006200814698 C 309.33601580801434 512.6914810821467 311.1268768086912 510.9006200814698 313.33601580801434 510.9006200814698 C 315.5451548073375 510.9006200814698 317.33601580801434 512.6914810821467 317.33601580801434 514.9006200814698 Z" stroke-opacity="1" stroke-linecap="round" stroke-linejoin="round" stroke-miterlimit="10"/><path fill="rgb(68,68,68)" stroke="none" paint-order="stroke fill markers" d=" M 514.4934412867252 429.81044385276647 C 514.4934412867252 432.0195828520896 512.7025802860484 433.81044385276647 510.4934412867252 433.81044385276647 C 508.28430228740206 433.81044385276647 506.4934412867252 432.0195828520896 506.4934412867252 429.81044385276647 C 506.4934412867252 427.6013048534433 508.28430228740206 425.81044385276647 510.4934412867252 425.81044385276647 C 512.7025802860484 425.81044385276647 514.4934412867252 427.6013048534433 514.4934412867252 429.81044385276647 Z" fill-opacity="1"/><path fill="none" stroke="rgb(0,0,0)" paint-order="fill stroke markers" d=" M 514.4934412867252 429.81044385276647 C 514.4934412867252 432.0195828520896 512.7025802860484 433.81044385276647 510.4934412867252 433.81044385276647 C 508.28430228740206 433.81044385276647 506.4934412867252 432.0195828520896 506.4934412867252 429.81044385276647 C 506.4934412867252 427.6013048534433 508.28430228740206 425.81044385276647 510.4934412867252 425.81044385276647 C 512.7025802860484 425.81044385276647 514.4934412867252 427.6013048534433 514.4934412867252 429.81044385276647 Z" stroke-opacity="1" stroke-linecap="round" stroke-linejoin="round" stroke-miterlimit="10"/><path fill="rgb(68,68,68)" stroke="none" paint-order="stroke fill markers" d=" M 464.4612308638884 451.4035925341001 C 464.4612308638884 453.61273153342324 462.67036986321153 455.4035925341001 460.4612308638884 455.4035925341001 C 458.2520918645652 455.4035925341001 456.4612308638884 453.61273153342324 456.4612308638884 451.4035925341001 C 456.4612308638884 449.1944535347769 458.2520918645652 447.4035925341001 460.4612308638884 447.4035925341001 C 462.67036986321153 447.4035925341001 464.4612308638884 449.1944535347769 464.4612308638884 451.4035925341001 Z" fill-opacity="1"/><path fill="none" stroke="rgb(0,0,0)" paint-order="fill stroke markers" d=" M 464.4612308638884 451.4035925341001 C 464.4612308638884 453.61273153342324 462.67036986321153 455.4035925341001 460.4612308638884 455.4035925341001 C 458.2520918645652 455.4035925341001 456.4612308638884 453.61273153342324 456.4612308638884 451.4035925341001 C 456.4612308638884 449.1944535347769 458.2520918645652 447.4035925341001 460.4612308638884 447.4035925341001 C 462.67036986321153 447.4035925341001 464.4612308638884 449.1944535347769 464.4612308638884 451.4035925341001 Z" stroke-opacity="1" stroke-linecap="round" stroke-linejoin="round" stroke-miterlimit="10"/><path fill="rgb(68,68,68)" stroke="none" paint-order="stroke fill markers" d=" M 596.0875505474429 394.59565486188353 C 596.0875505474429 396.8047938612067 594.2966895467661 398.59565486188353 592.0875505474429 398.59565486188353 C 589.8784115481197 398.59565486188353 588.0875505474429 396.8047938612067 588.0875505474429 394.59565486188353 C 588.0875505474429 392.3865158625604 589.8784115481197 390.59565486188353 592.0875505474429 390.59565486188353 C 594.2966895467661 390.59565486188353 596.0875505474429 392.3865158625604 596.0875505474429 394.59565486188353 Z" fill-opacity="1"/><path fill="none" stroke="rgb(0,0,0)" paint-order="fill stroke markers" d=" M 596.0875505474429 394.59565486188353 C 596.0875505474429 396.8047938612067 594.2966895467661 398.59565486188353 592.0875505474429 398.59565486188353 C 589.8784115481197 398.59565486188353 588.0875505474429 396.8047938612067 588.0875505474429 394.59565486188353 C 588.0875505474429 392.3865158625604 589.8784115481197 390.59565486188353 592.0875505474429 390.59565486188353 C 594.2966895467661 390.59565486188353 596.0875505474429 392.3865158625604 596.0875505474429 394.59565486188353 Z" stroke-opacity="1" stroke-linecap="round" stroke-linejoin="round" stroke-miterlimit="10"/><path fill="rgb(255,0,0)" stroke="none" paint-order="stroke fill markers" d=" M 657.3375174597909 368.161091385923 C 657.3375174597909 370.37023038524615 655.546656459114 372.161091385923 653.3375174597909 372.161091385923 C 651.1283784604677 372.161091385923 649.3375174597909 370.37023038524615 649.3375174597909 368.161091385923 C 649.3375174597909 365.9519523865998 651.1283784604677 364.161091385923 653.3375174597909 364.161091385923 C 655.546656459114 364.161091385923 657.3375174597909 365.9519523865998 657.3375174597909 368.161091385923 Z" fill-opacity="1"/><path fill="none" stroke="rgb(0,0,0)" paint-order="fill stroke markers" d=" M 657.3375174597909 368.161091385923 C 657.3375174597909 370.37023038524615 655.546656459114 372.161091385923 653.3375174597909 372.161091385923 C 651.1283784604677 372.161091385923 649.3375174597909 370.37023038524615 649.3375174597909 368.161091385923 C 649.3375174597909 365.9519523865998 651.1283784604677 364.161091385923 653.3375174597909 364.161091385923 C 655.546656459114 364.161091385923 657.3375174597909 365.9519523865998 657.3375174597909 368.161091385923 Z" stroke-opacity="1" stroke-linecap="round" stroke-linejoin="round" stroke-miterlimit="10"/><g transform="scale(19,19)"><g transform="translate(34.36842105263158,21.65486842105263) scale(2.5,2.5)"><g transform="translate(0,0)"><path fill="rgb(255,0,0)" stroke="none" paint-order="stroke fill markers" d=" M 0.303 -0.316 L 0.303 -0.316 L 0.241 -0.066 L 0.23800000000000002 -0.049 Q 0.23800000000000002 -0.032 0.28400000000000003 -0.031 L 0.28400000000000003 -0.031 L 0.28400000000000003 -0.031 L 0.303 -0.031 Q 0.329 -0.031 0.331 -0.02 Q 0.331 0 0.311 0 L 0.247 -0.002 L 0.246 -0.002 L 0.184 -0.003 L 0.182 -0.003 L 0.056 0 L 0.055 0 Q 0.04 0 0.04 -0.012 Q 0.04 -0.029 0.056 -0.031 L 0.068 -0.031 Q 0.133 -0.031 0.146 -0.045 Q 0.152 -0.052000000000000005 0.158 -0.073 Q 0.158 -0.074 0.159 -0.078 L 0.293 -0.615 Q 0.297 -0.631 0.297 -0.634 Q 0.297 -0.646 0.281 -0.649 L 0.28 -0.649 L 0.28 -0.649 Q 0.278 -0.65 0.275 -0.65 Q 0.251 -0.652 0.232 -0.652 Q 0.20600000000000002 -0.652 0.20400000000000001 -0.66 Q 0.203 -0.662 0.203 -0.664 Q 0.203 -0.681 0.22 -0.683 L 0.22 -0.683 L 0.233 -0.683 L 0.557 -0.683 Q 0.678 -0.683 0.73 -0.609 Q 0.754 -0.5740000000000001 0.754 -0.532 Q 0.754 -0.451 0.671 -0.385 Q 0.583 -0.316 0.47300000000000003 -0.316 L 0.303 -0.316 M 0.375 -0.614 L 0.307 -0.342 L 0.448 -0.342 Q 0.543 -0.342 0.602 -0.395 Q 0.643 -0.433 0.658 -0.522 L 0.658 -0.523 Q 0.661 -0.542 0.661 -0.556 Q 0.661 -0.652 0.525 -0.652 L 0.429 -0.652 Q 0.393 -0.652 0.385 -0.642 L 0.385 -0.642 L 0.385 -0.641 L 0.384 -0.641 L 0.384 -0.64 Q 0.38 -0.634 0.375 -0.614 Z"/></g><g transform="translate(0.642,0.28364) scale(0.5,0.5)"><path fill="rgb(255,0,0)" stroke="none" paint-order="stroke fill markers" d=" M 0.17200000000000001 -0.718 L 0.17200000000000001 0.218 Q 0.17200000000000001 0.248 0.152 0.25 Q 0.132 0.25 0.132 0.214 L 0.132 -0.714 Q 0.132 -0.749 0.152 -0.75 Q 0.17200000000000001 -0.75 0.17200000000000001 -0.718 M 0.367 -0.714 L 0.367 0.214 Q 0.367 0.249 0.34700000000000003 0.25 Q 0.327 0.25 0.327 0.218 L 0.327 -0.718 Q 0.327 -0.748 0.34700000000000003 -0.75 Q 0.367 -0.75 0.367 -0.714 Z"/></g></g></g><g transform="scale(19,19)"><g transform="translate(5,3.2613157894736844) scale(2.5,2.5)"><g transform="translate(0,0)"><path fill="rgb(0,0,0)" stroke="none" paint-order="stroke fill markers" d=" M 0.5865 -0.608 Q 0.5865 -0.608 0.63275 -0.554 Q 0.679 -0.5 0.679 -0.34500000000000003 Q 0.679 -0.19 0.5865 -0.084 Q 0.494 0.022 0.367 0.022 Q 0.242 0.022 0.149 -0.0835 Q 0.056 -0.189 0.056 -0.34500000000000003 Q 0.056 -0.5 0.148 -0.608 Q 0.24 -0.716 0.368 -0.716 Q 0.494 -0.716 0.5865 -0.608 M 0.368 -0.043000000000000003 Q 0.458 -0.043000000000000003 0.524 -0.131 Q 0.59 -0.219 0.59 -0.36 Q 0.59 -0.49 0.524 -0.5710000000000001 Q 0.458 -0.652 0.367 -0.652 Q 0.278 -0.652 0.2115 -0.5715 Q 0.145 -0.491 0.145 -0.36 Q 0.145 -0.22 0.2105 -0.1315 Q 0.276 -0.043000000000000003 0.368 -0.043000000000000003 Z"/></g><g transform="translate(0.736,0)"><path fill="rgb(0,0,0)" stroke="none" paint-order="stroke fill markers" d=" M 0.157 -0.214 L 0.157 0 L 0.082 0 L 0.082 -0.45 L 0.152 -0.45 L 0.152 -0.359 Q 0.216 -0.454 0.327 -0.455 L 0.327 -0.388 Q 0.253 -0.386 0.20500000000000002 -0.3375 Q 0.157 -0.289 0.157 -0.214 Z"/></g><g transform="translate(1.092,0)"><path fill="rgb(0,0,0)" stroke="none" paint-order="stroke fill markers" d=" M 0.17500000000000002 -0.386 L 0.17500000000000002 -0.136 Q 0.17500000000000002 -0.053 0.226 -0.053 Q 0.275 -0.053 0.316 -0.08600000000000001 L 0.332 -0.027 Q 0.259 0.011 0.186 0.011 Q 0.10300000000000001 0.011 0.10300000000000001 -0.11900000000000001 L 0.10300000000000001 -0.386 L 0.019 -0.386 L 0.019 -0.444 L 0.106 -0.444 L 0.106 -0.5710000000000001 L 0.17500000000000002 -0.5710000000000001 L 0.17500000000000002 -0.444 L 0.316 -0.444 L 0.316 -0.386 L 0.17500000000000002 -0.386 Z"/></g><g transform="translate(1.453,0)"><path fill="rgb(0,0,0)" stroke="none" paint-order="stroke fill markers" d=" M 0.435 -0.298 L 0.435 0 L 0.357 0 L 0.357 -0.291 Q 0.357 -0.305 0.3565 -0.3145 Q 0.356 -0.324 0.35050000000000003 -0.3405 Q 0.34500000000000003 -0.357 0.3355 -0.3675 Q 0.326 -0.378 0.3065 -0.386 Q 0.28700000000000003 -0.394 0.26 -0.394 Q 0.20800000000000002 -0.394 0.1835 -0.34900000000000003 Q 0.159 -0.304 0.159 -0.245 L 0.159 0 L 0.081 0 L 0.081 -0.6940000000000001 L 0.156 -0.6940000000000001 L 0.156 -0.383 Q 0.212 -0.455 0.298 -0.455 Q 0.435 -0.455 0.435 -0.298 Z"/></g><g transform="translate(1.9700000000000002,0)"><path fill="rgb(0,0,0)" stroke="none" paint-order="stroke fill markers" d=" M 0.46900000000000003 -0.22 Q 0.46900000000000003 -0.123 0.4045 -0.056 Q 0.34 0.011 0.249 0.011 Q 0.16 0.011 0.095 -0.0555 Q 0.03 -0.122 0.03 -0.22 Q 0.03 -0.319 0.094 -0.39 Q 0.158 -0.461 0.25 -0.461 Q 0.34 -0.461 0.4045 -0.3905 Q 0.46900000000000003 -0.32 0.46900000000000003 -0.22 M 0.249 -0.053 Q 0.308 -0.053 0.34950000000000003 -0.0995 Q 0.391 -0.146 0.391 -0.23 Q 0.391 -0.313 0.34900000000000003 -0.3565 Q 0.307 -0.4 0.249 -0.4 Q 0.193 -0.4 0.1505 -0.357 Q 0.108 -0.314 0.108 -0.23 Q 0.108 -0.145 0.15 -0.099 Q 0.192 -0.053 0.249 -0.053 Z"/></g><g transform="translate(2.47,0)"><path fill="rgb(0,0,0)" stroke="none" paint-order="stroke fill markers" d=" M 0.352 -0.391 L 0.34800000000000003 -0.392 Q 0.381 -0.34700000000000003 0.381 -0.292 Q 0.381 -0.225 0.3345 -0.177 Q 0.28800000000000003 -0.129 0.221 -0.129 Q 0.171 -0.129 0.13 -0.158 Q 0.11900000000000001 -0.14400000000000002 0.11900000000000001 -0.122 Q 0.11900000000000001 -0.069 0.177 -0.069 L 0.265 -0.069 Q 0.28200000000000003 -0.069 0.2945 -0.068 Q 0.307 -0.067 0.335 -0.064 Q 0.363 -0.061 0.3835 -0.051500000000000004 Q 0.404 -0.042 0.4255 -0.028 Q 0.447 -0.014 0.459 0.0115 Q 0.47100000000000003 0.037 0.47100000000000003 0.07 Q 0.47100000000000003 0.127 0.40650000000000003 0.1665 Q 0.342 0.20600000000000002 0.249 0.20600000000000002 Q 0.157 0.20600000000000002 0.0925 0.1665 Q 0.028 0.127 0.028 0.07100000000000001 Q 0.028 0.006 0.092 -0.032 Q 0.066 -0.064 0.066 -0.108 Q 0.066 -0.152 0.095 -0.193 Q 0.062 -0.23600000000000002 0.062 -0.292 Q 0.062 -0.36 0.109 -0.40750000000000003 Q 0.156 -0.455 0.221 -0.455 Q 0.276 -0.455 0.316 -0.423 Q 0.39 -0.455 0.47400000000000003 -0.455 L 0.485 -0.392 L 0.47400000000000003 -0.393 Q 0.462 -0.394 0.448 -0.3945 Q 0.434 -0.395 0.426 -0.395 Q 0.41400000000000003 -0.395 0.3885 -0.393 Q 0.363 -0.391 0.352 -0.391 M 0.221 -0.186 Q 0.258 -0.186 0.28450000000000003 -0.212 Q 0.311 -0.23800000000000002 0.311 -0.292 Q 0.311 -0.34600000000000003 0.28450000000000003 -0.372 Q 0.258 -0.398 0.221 -0.398 Q 0.187 -0.398 0.1595 -0.373 Q 0.132 -0.34800000000000003 0.132 -0.292 Q 0.132 -0.23600000000000002 0.1595 -0.211 Q 0.187 -0.186 0.221 -0.186 M 0.266 0.003 L 0.176 0.003 Q 0.154 0.003 0.138 0.01 Q 0.122 0.017 0.1145 0.025500000000000002 Q 0.107 0.034 0.10300000000000001 0.046 Q 0.099 0.058 0.0985 0.0625 Q 0.098 0.067 0.098 0.07100000000000001 Q 0.098 0.105 0.14250000000000002 0.127 Q 0.187 0.149 0.25 0.149 Q 0.312 0.149 0.3565 0.127 Q 0.401 0.105 0.401 0.07200000000000001 Q 0.401 0.003 0.266 0.003 Z"/></g><g transform="translate(2.984,0)"><path fill="rgb(0,0,0)" stroke="none" paint-order="stroke fill markers" d=" M 0.46900000000000003 -0.22 Q 0.46900000000000003 -0.123 0.4045 -0.056 Q 0.34 0.011 0.249 0.011 Q 0.16 0.011 0.095 -0.0555 Q 0.03 -0.122 0.03 -0.22 Q 0.03 -0.319 0.094 -0.39 Q 0.158 -0.461 0.25 -0.461 Q 0.34 -0.461 0.4045 -0.3905 Q 0.46900000000000003 -0.32 0.46900000000000003 -0.22 M 0.249 -0.053 Q 0.308 -0.053 0.34950000000000003 -0.0995 Q 0.391 -0.146 0.391 -0.23 Q 0.391 -0.313 0.34900000000000003 -0.3565 Q 0.307 -0.4 0.249 -0.4 Q 0.193 -0.4 0.1505 -0.357 Q 0.108 -0.314 0.108 -0.23 Q 0.108 -0.145 0.15 -0.099 Q 0.192 -0.053 0.249 -0.053 Z"/></g><g transform="translate(3.484,0)"><path fill="rgb(0,0,0)" stroke="none" paint-order="stroke fill markers" d=" M 0.435 -0.298 L 0.435 0 L 0.357 0 L 0.357 -0.291 Q 0.357 -0.305 0.3565 -0.3145 Q 0.356 -0.324 0.35050000000000003 -0.3405 Q 0.34500000000000003 -0.357 0.3355 -0.3675 Q 0.326 -0.378 0.3065 -0.386 Q 0.28700000000000003 -0.394 0.26 -0.394 Q 0.20800000000000002 -0.394 0.1835 -0.34900000000000003 Q 0.159 -0.304 0.159 -0.245 L 0.159 0 L 0.081 0 L 0.081 -0.45 L 0.153 -0.45 L 0.153 -0.379 Q 0.21 -0.455 0.298 -0.455 Q 0.435 -0.455 0.435 -0.298 Z"/></g><g transform="translate(4.001,0)"><path fill="rgb(0,0,0)" stroke="none" paint-order="stroke fill markers" d=" M 0.399 -0.289 L 0.399 0 L 0.324 0 L 0.324 -0.036000000000000004 Q 0.263 0.011 0.158 0.011 Q 0.1 0.011 0.07200000000000001 -0.029500000000000002 Q 0.044 -0.07 0.044 -0.113 Q 0.044 -0.176 0.1225 -0.2095 Q 0.201 -0.243 0.321 -0.245 L 0.321 -0.28800000000000003 Q 0.321 -0.341 0.296 -0.3715 Q 0.271 -0.402 0.234 -0.402 Q 0.153 -0.402 0.083 -0.352 L 0.077 -0.418 Q 0.152 -0.461 0.234 -0.461 Q 0.304 -0.461 0.35150000000000003 -0.41250000000000003 Q 0.399 -0.364 0.399 -0.289 M 0.321 -0.132 L 0.321 -0.194 Q 0.116 -0.184 0.116 -0.115 Q 0.116 -0.085 0.14350000000000002 -0.0675 Q 0.171 -0.05 0.209 -0.05 Q 0.256 -0.05 0.28700000000000003 -0.069 Q 0.321 -0.088 0.321 -0.132 Z"/></g><g transform="translate(4.482,0)"><path fill="rgb(0,0,0)" stroke="none" paint-order="stroke fill markers" d=" M 0.156 -0.6940000000000001 L 0.156 0 L 0.081 0 L 0.081 -0.6940000000000001 L 0.156 -0.6940000000000001 Z"/></g><g transform="translate(5.054,0)"><path fill="rgb(0,0,0)" stroke="none" paint-order="stroke fill markers" d=" M 0.352 -0.289 L 0.185 -0.289 L 0.185 0 L 0.096 0 L 0.096 -0.6940000000000001 L 0.34500000000000003 -0.6940000000000001 Q 0.446 -0.6940000000000001 0.514 -0.634 Q 0.582 -0.5740000000000001 0.582 -0.492 Q 0.582 -0.40800000000000003 0.514 -0.34850000000000003 Q 0.446 -0.289 0.352 -0.289 M 0.323 -0.638 L 0.182 -0.638 L 0.182 -0.34700000000000003 L 0.323 -0.34700000000000003 Q 0.406 -0.34700000000000003 0.4535 -0.3885 Q 0.501 -0.43 0.501 -0.492 Q 0.501 -0.557 0.4525 -0.5975 Q 0.404 -0.638 0.323 -0.638 Z"/></g><g transform="translate(5.6930000000000005,0)"><path fill="rgb(0,0,0)" stroke="none" paint-order="stroke fill markers" d=" M 0.157 -0.214 L 0.157 0 L 0.082 0 L 0.082 -0.45 L 0.152 -0.45 L 0.152 -0.359 Q 0.216 -0.454 0.327 -0.455 L 0.327 -0.388 Q 0.253 -0.386 0.20500000000000002 -0.3375 Q 0.157 -0.289 0.157 -0.214 Z"/></g><g transform="translate(6.049,0)"><path fill="rgb(0,0,0)" stroke="none" paint-order="stroke fill markers" d=" M 0.46900000000000003 -0.22 Q 0.46900000000000003 -0.123 0.4045 -0.056 Q 0.34 0.011 0.249 0.011 Q 0.16 0.011 0.095 -0.0555 Q 0.03 -0.122 0.03 -0.22 Q 0.03 -0.319 0.094 -0.39 Q 0.158 -0.461 0.25 -0.461 Q 0.34 -0.461 0.4045 -0.3905 Q 0.46900000000000003 -0.32 0.46900000000000003 -0.22 M 0.249 -0.053 Q 0.308 -0.053 0.34950000000000003 -0.0995 Q 0.391 -0.146 0.391 -0.23 Q 0.391 -0.313 0.34900000000000003 -0.3565 Q 0.307 -0.4 0.249 -0.4 Q 0.193 -0.4 0.1505 -0.357 Q 0.108 -0.314 0.108 -0.23 Q 0.108 -0.145 0.15 -0.099 Q 0.192 -0.053 0.249 -0.053 Z"/></g><g transform="translate(6.549,0)"><path fill="rgb(0,0,0)" stroke="none" paint-order="stroke fill markers" d=" M 0.184 -0.68 L 0.184 -0.591 L 0.095 -0.591 L 0.095 -0.68 L 0.184 -0.68 M -0.061 0.171 L -0.046 0.11 Q -0.012 0.14100000000000001 0.031 0.14100000000000001 Q 0.109 0.14100000000000001 0.109 0.068 L 0.109 -0.444 L 0.184 -0.444 L 0.184 0.059000000000000004 Q 0.184 0.126 0.1465 0.1655 Q 0.109 0.20500000000000002 0.059000000000000004 0.20500000000000002 Q -0.003 0.20500000000000002 -0.061 0.171 Z"/></g><g transform="translate(6.816000000000001,0)"><path fill="rgb(0,0,0)" stroke="none" paint-order="stroke fill markers" d=" M 0.41400000000000003 -0.219 L 0.105 -0.219 Q 0.107 -0.146 0.1495 -0.098 Q 0.192 -0.05 0.252 -0.05 Q 0.336 -0.05 0.404 -0.106 L 0.41000000000000003 -0.041 Q 0.338 0.011 0.251 0.011 Q 0.161 0.011 0.098 -0.058 Q 0.035 -0.127 0.035 -0.226 Q 0.035 -0.323 0.094 -0.392 Q 0.153 -0.461 0.23600000000000002 -0.461 Q 0.326 -0.461 0.374 -0.388 Q 0.41400000000000003 -0.326 0.41400000000000003 -0.219 M 0.11 -0.274 L 0.357 -0.274 Q 0.34800000000000003 -0.338 0.314 -0.369 Q 0.28 -0.4 0.23600000000000002 -0.4 Q 0.193 -0.4 0.1575 -0.365 Q 0.122 -0.33 0.11 -0.274 Z"/></g><g transform="translate(7.260000000000001,0)"><path fill="rgb(0,0,0)" stroke="none" paint-order="stroke fill markers" d=" M 0.41000000000000003 -0.418 L 0.398 -0.353 Q 0.358 -0.379 0.328 -0.388 Q 0.298 -0.397 0.257 -0.397 Q 0.20700000000000002 -0.397 0.17350000000000002 -0.369 Q 0.14 -0.341 0.127 -0.3035 Q 0.114 -0.266 0.114 -0.223 Q 0.114 -0.149 0.1525 -0.101 Q 0.191 -0.053 0.253 -0.053 Q 0.34 -0.053 0.40900000000000003 -0.107 L 0.41500000000000004 -0.04 Q 0.341 0.011 0.252 0.011 Q 0.16 0.011 0.098 -0.058 Q 0.036000000000000004 -0.127 0.036000000000000004 -0.222 Q 0.036000000000000004 -0.317 0.0965 -0.389 Q 0.157 -0.461 0.256 -0.461 Q 0.302 -0.461 0.334 -0.452 Q 0.366 -0.443 0.41000000000000003 -0.418 Z"/></g><g transform="translate(7.704000000000001,0)"><path fill="rgb(0,0,0)" stroke="none" paint-order="stroke fill markers" d=" M 0.17500000000000002 -0.386 L 0.17500000000000002 -0.136 Q 0.17500000000000002 -0.053 0.226 -0.053 Q 0.275 -0.053 0.316 -0.08600000000000001 L 0.332 -0.027 Q 0.259 0.011 0.186 0.011 Q 0.10300000000000001 0.011 0.10300000000000001 -0.11900000000000001 L 0.10300000000000001 -0.386 L 0.019 -0.386 L 0.019 -0.444 L 0.106 -0.444 L 0.106 -0.5710000000000001 L 0.17500000000000002 -0.5710000000000001 L 0.17500000000000002 -0.444 L 0.316 -0.444 L 0.316 -0.386 L 0.17500000000000002 -0.386 Z"/></g><g transform="translate(8.065000000000001,0)"><path fill="rgb(0,0,0)" stroke="none" paint-order="stroke fill markers" d=" M 0.163 -0.68 L 0.163 -0.591 L 0.074 -0.591 L 0.074 -0.68 L 0.163 -0.68 M 0.156 -0.444 L 0.156 0 L 0.081 0 L 0.081 -0.444 L 0.156 -0.444 Z"/></g><g transform="translate(8.304000000000002,0)"><path fill="rgb(0,0,0)" stroke="none" paint-order="stroke fill markers" d=" M 0.46900000000000003 -0.22 Q 0.46900000000000003 -0.123 0.4045 -0.056 Q 0.34 0.011 0.249 0.011 Q 0.16 0.011 0.095 -0.0555 Q 0.03 -0.122 0.03 -0.22 Q 0.03 -0.319 0.094 -0.39 Q 0.158 -0.461 0.25 -0.461 Q 0.34 -0.461 0.4045 -0.3905 Q 0.46900000000000003 -0.32 0.46900000000000003 -0.22 M 0.249 -0.053 Q 0.308 -0.053 0.34950000000000003 -0.0995 Q 0.391 -0.146 0.391 -0.23 Q 0.391 -0.313 0.34900000000000003 -0.3565 Q 0.307 -0.4 0.249 -0.4 Q 0.193 -0.4 0.1505 -0.357 Q 0.108 -0.314 0.108 -0.23 Q 0.108 -0.145 0.15 -0.099 Q 0.192 -0.053 0.249 -0.053 Z"/></g><g transform="translate(8.804000000000002,0)"><path fill="rgb(0,0,0)" stroke="none" paint-order="stroke fill markers" d=" M 0.435 -0.298 L 0.435 0 L 0.357 0 L 0.357 -0.291 Q 0.357 -0.305 0.3565 -0.3145 Q 0.356 -0.324 0.35050000000000003 -0.3405 Q 0.34500000000000003 -0.357 0.3355 -0.3675 Q 0.326 -0.378 0.3065 -0.386 Q 0.28700000000000003 -0.394 0.26 -0.394 Q 0.20800000000000002 -0.394 0.1835 -0.34900000000000003 Q 0.159 -0.304 0.159 -0.245 L 0.159 0 L 0.081 0 L 0.081 -0.45 L 0.153 -0.45 L 0.153 -0.379 Q 0.21 -0.455 0.298 -0.455 Q 0.435 -0.455 0.435 -0.298 Z"/></g><g transform="translate(9.654000000000002,0)"><path fill="rgb(0,0,0)" stroke="none" paint-order="stroke fill markers" d=" M 0.5865 -0.608 Q 0.5865 -0.608 0.63275 -0.554 Q 0.679 -0.5 0.679 -0.34500000000000003 Q 0.679 -0.19 0.5865 -0.084 Q 0.494 0.022 0.367 0.022 Q 0.242 0.022 0.149 -0.0835 Q 0.056 -0.189 0.056 -0.34500000000000003 Q 0.056 -0.5 0.148 -0.608 Q 0.24 -0.716 0.368 -0.716 Q 0.494 -0.716 0.5865 -0.608 M 0.368 -0.043000000000000003 Q 0.458 -0.043000000000000003 0.524 -0.131 Q 0.59 -0.219 0.59 -0.36 Q 0.59 -0.49 0.524 -0.5710000000000001 Q 0.458 -0.652 0.367 -0.652 Q 0.278 -0.652 0.2115 -0.5715 Q 0.145 -0.491 0.145 -0.36 Q 0.145 -0.22 0.2105 -0.1315 Q 0.276 -0.043000000000000003 0.368 -0.043000000000000003 Z"/></g><g transform="translate(10.390000000000002,0)"><path fill="rgb(0,0,0)" stroke="none" paint-order="stroke fill markers" d=" M 0.435 -0.298 L 0.435 0 L 0.357 0 L 0.357 -0.291 Q 0.357 -0.305 0.3565 -0.3145 Q 0.356 -0.324 0.35050000000000003 -0.3405 Q 0.34500000000000003 -0.357 0.3355 -0.3675 Q 0.326 -0.378 0.3065 -0.386 Q 0.28700000000000003 -0.394 0.26 -0.394 Q 0.20800000000000002 -0.394 0.1835 -0.34900000000000003 Q 0.159 -0.304 0.159 -0.245 L 0.159 0 L 0.081 0 L 0.081 -0.45 L 0.153 -0.45 L 0.153 -0.379 Q 0.21 -0.455 0.298 -0.455 Q 0.435 -0.455 0.435 -0.298 Z"/></g><g transform="translate(10.907000000000002,0)"><path fill="rgb(0,0,0)" stroke="none" paint-order="stroke fill markers" d=" M 0.17500000000000002 -0.386 L 0.17500000000000002 -0.136 Q 0.17500000000000002 -0.053 0.226 -0.053 Q 0.275 -0.053 0.316 -0.08600000000000001 L 0.332 -0.027 Q 0.259 0.011 0.186 0.011 Q 0.10300000000000001 0.011 0.10300000000000001 -0.11900000000000001 L 0.10300000000000001 -0.386 L 0.019 -0.386 L 0.019 -0.444 L 0.106 -0.444 L 0.106 -0.5710000000000001 L 0.17500000000000002 -0.5710000000000001 L 0.17500000000000002 -0.444 L 0.316 -0.444 L 0.316 -0.386 L 0.17500000000000002 -0.386 Z"/></g><g transform="translate(11.268000000000002,0)"><path fill="rgb(0,0,0)" stroke="none" paint-order="stroke fill markers" d=" M 0.46900000000000003 -0.22 Q 0.46900000000000003 -0.123 0.4045 -0.056 Q 0.34 0.011 0.249 0.011 Q 0.16 0.011 0.095 -0.0555 Q 0.03 -0.122 0.03 -0.22 Q 0.03 -0.319 0.094 -0.39 Q 0.158 -0.461 0.25 -0.461 Q 0.34 -0.461 0.4045 -0.3905 Q 0.46900000000000003 -0.32 0.46900000000000003 -0.22 M 0.249 -0.053 Q 0.308 -0.053 0.34950000000000003 -0.0995 Q 0.391 -0.146 0.391 -0.23 Q 0.391 -0.313 0.34900000000000003 -0.3565 Q 0.307 -0.4 0.249 -0.4 Q 0.193 -0.4 0.1505 -0.357 Q 0.108 -0.314 0.108 -0.23 Q 0.108 -0.145 0.15 -0.099 Q 0.192 -0.053 0.249 -0.053 Z"/></g><g transform="translate(12.101000000000003,0)"><path fill="rgb(0,0,0)" stroke="none" paint-order="stroke fill markers" d=" M 0.399 -0.289 L 0.399 0 L 0.324 0 L 0.324 -0.036000000000000004 Q 0.263 0.011 0.158 0.011 Q 0.1 0.011 0.07200000000000001 -0.029500000000000002 Q 0.044 -0.07 0.044 -0.113 Q 0.044 -0.176 0.1225 -0.2095 Q 0.201 -0.243 0.321 -0.245 L 0.321 -0.28800000000000003 Q 0.321 -0.341 0.296 -0.3715 Q 0.271 -0.402 0.234 -0.402 Q 0.153 -0.402 0.083 -0.352 L 0.077 -0.418 Q 0.152 -0.461 0.234 -0.461 Q 0.304 -0.461 0.35150000000000003 -0.41250000000000003 Q 0.399 -0.364 0.399 -0.289 M 0.321 -0.132 L 0.321 -0.194 Q 0.116 -0.184 0.116 -0.115 Q 0.116 -0.085 0.14350000000000002 -0.0675 Q 0.171 -0.05 0.209 -0.05 Q 0.256 -0.05 0.28700000000000003 -0.069 Q 0.321 -0.088 0.321 -0.132 Z"/></g><g transform="translate(12.915000000000003,0)"><path fill="rgb(0,0,0)" stroke="none" paint-order="stroke fill markers" d=" M 0.183 -0.6940000000000001 L 0.183 -0.064 L 0.232 -0.064 Q 0.321 -0.064 0.499 -0.066 L 0.499 0 L 0.094 0 L 0.094 -0.6940000000000001 L 0.183 -0.6940000000000001 Z"/></g><g transform="translate(13.457000000000003,0)"><path fill="rgb(0,0,0)" stroke="none" paint-order="stroke fill markers" d=" M 0.163 -0.68 L 0.163 -0.591 L 0.074 -0.591 L 0.074 -0.68 L 0.163 -0.68 M 0.156 -0.444 L 0.156 0 L 0.081 0 L 0.081 -0.444 L 0.156 -0.444 Z"/></g><g transform="translate(13.696000000000003,0)"><path fill="rgb(0,0,0)" stroke="none" paint-order="stroke fill markers" d=" M 0.435 -0.298 L 0.435 0 L 0.357 0 L 0.357 -0.291 Q 0.357 -0.305 0.3565 -0.3145 Q 0.356 -0.324 0.35050000000000003 -0.3405 Q 0.34500000000000003 -0.357 0.3355 -0.3675 Q 0.326 -0.378 0.3065 -0.386 Q 0.28700000000000003 -0.394 0.26 -0.394 Q 0.20800000000000002 -0.394 0.1835 -0.34900000000000003 Q 0.159 -0.304 0.159 -0.245 L 0.159 0 L 0.081 0 L 0.081 -0.45 L 0.153 -0.45 L 0.153 -0.379 Q 0.21 -0.455 0.298 -0.455 Q 0.435 -0.455 0.435 -0.298 Z"/></g><g transform="translate(14.213000000000003,0)"><path fill="rgb(0,0,0)" stroke="none" paint-order="stroke fill markers" d=" M 0.41400000000000003 -0.219 L 0.105 -0.219 Q 0.107 -0.146 0.1495 -0.098 Q 0.192 -0.05 0.252 -0.05 Q 0.336 -0.05 0.404 -0.106 L 0.41000000000000003 -0.041 Q 0.338 0.011 0.251 0.011 Q 0.161 0.011 0.098 -0.058 Q 0.035 -0.127 0.035 -0.226 Q 0.035 -0.323 0.094 -0.392 Q 0.153 -0.461 0.23600000000000002 -0.461 Q 0.326 -0.461 0.374 -0.388 Q 0.41400000000000003 -0.326 0.41400000000000003 -0.219 M 0.11 -0.274 L 0.357 -0.274 Q 0.34800000000000003 -0.338 0.314 -0.369 Q 0.28 -0.4 0.23600000000000002 -0.4 Q 0.193 -0.4 0.1575 -0.365 Q 0.122 -0.33 0.11 -0.274 Z"/></g></g></g><text fill="rgb(0,0,0)" stroke="none" font-family="geogebra-sans-serif, sans-serif" font-size="16px" font-style="normal" font-weight="normal" text-decoration="normal" x="736" y="566" text-anchor="start" dominant-baseline="alphabetic" fill-opacity="1">The segment c from O to P is fixed</text><text fill="rgb(0,0,0)" stroke="none" font-family="geogebra-sans-serif, sans-serif" font-size="16px" font-style="normal" font-weight="normal" text-decoration="normal" x="736" y="615" text-anchor="start" dominant-baseline="alphabetic" fill-opacity="1">since </text><g transform="scale(19,19)"><g transform="translate(41.1578947368421,32.34577621052632)"><path fill="rgb(0,0,0)" stroke="none" paint-order="stroke fill markers" d=" M 0.399 -0.289 L 0.399 0 L 0.324 0 L 0.324 -0.036000000000000004 Q 0.263 0.011 0.158 0.011 Q 0.1 0.011 0.07200000000000001 -0.029500000000000002 Q 0.044 -0.07 0.044 -0.113 Q 0.044 -0.176 0.1225 -0.2095 Q 0.201 -0.243 0.321 -0.245 L 0.321 -0.28800000000000003 Q 0.321 -0.341 0.296 -0.3715 Q 0.271 -0.402 0.234 -0.402 Q 0.153 -0.402 0.083 -0.352 L 0.077 -0.418 Q 0.152 -0.461 0.234 -0.461 Q 0.304 -0.461 0.35150000000000003 -0.41250000000000003 Q 0.399 -0.364 0.399 -0.289 M 0.321 -0.132 L 0.321 -0.194 Q 0.116 -0.184 0.116 -0.115 Q 0.116 -0.085 0.14350000000000002 -0.0675 Q 0.171 -0.05 0.209 -0.05 Q 0.256 -0.05 0.28700000000000003 -0.069 Q 0.321 -0.088 0.321 -0.132 Z"/></g><g transform="translate(41.638894736842104,31.932884210526318) scale(0.7,0.7)"><path fill="rgb(0,0,0)" stroke="none" paint-order="stroke fill markers" d=" M 0.17400000000000002 -0.188 L 0.251 -0.259 Q 0.281 -0.29 0.2955 -0.3055 Q 0.31 -0.321 0.33 -0.34900000000000003 Q 0.35000000000000003 -0.377 0.3585 -0.404 Q 0.367 -0.431 0.367 -0.461 Q 0.367 -0.523 0.328 -0.5685 Q 0.289 -0.614 0.222 -0.614 Q 0.161 -0.614 0.1315 -0.5730000000000001 Q 0.10200000000000001 -0.532 0.083 -0.459 Q 0.066 -0.484 0.061 -0.488 Q 0.06 -0.489 0.0545 -0.4965 Q 0.049 -0.504 0.042 -0.514 Q 0.088 -0.678 0.23600000000000002 -0.678 Q 0.332 -0.678 0.3905 -0.6155 Q 0.449 -0.553 0.449 -0.463 Q 0.449 -0.424 0.4315 -0.3865 Q 0.41400000000000003 -0.34900000000000003 0.398 -0.3305 Q 0.382 -0.312 0.35000000000000003 -0.28 Q 0.34 -0.271 0.3055 -0.241 Q 0.271 -0.211 0.261 -0.202 Q 0.254 -0.196 0.1975 -0.14100000000000001 Q 0.14100000000000001 -0.08600000000000001 0.122 -0.07 L 0.231 -0.07 Q 0.23700000000000002 -0.07 0.249 -0.07050000000000001 Q 0.261 -0.07100000000000001 0.267 -0.07100000000000001 L 0.449 -0.07100000000000001 L 0.449 0 L 0.05 0 L 0.05 -0.064 L 0.17400000000000002 -0.188 Z"/></g><g transform="translate(42.23733443300906,32.34577621052632)"><path fill="rgb(0,0,0)" stroke="none" paint-order="stroke fill markers" d=" M 0.40900000000000003 -0.23 L 0.40900000000000003 0.05 Q 0.40900000000000003 0.083 0.389 0.083 Q 0.369 0.083 0.369 0.05 L 0.369 -0.23 L 0.089 -0.23 Q 0.056 -0.23 0.056 -0.25 Q 0.056 -0.27 0.089 -0.27 L 0.369 -0.27 L 0.369 -0.55 Q 0.369 -0.583 0.389 -0.583 Q 0.40900000000000003 -0.583 0.40900000000000003 -0.55 L 0.40900000000000003 -0.27 L 0.6880000000000001 -0.27 Q 0.721 -0.27 0.721 -0.25 Q 0.721 -0.23 0.6880000000000001 -0.23 L 0.40900000000000003 -0.23 Z"/></g><g transform="translate(43.23755665523128,32.34577621052632)"><path fill="rgb(0,0,0)" stroke="none" paint-order="stroke fill markers" d=" M 0.157 -0.6940000000000001 L 0.157 -0.396 Q 0.229 -0.455 0.318 -0.455 Q 0.387 -0.455 0.4335 -0.3865 Q 0.48 -0.318 0.48 -0.223 Q 0.48 -0.124 0.425 -0.0565 Q 0.37 0.011 0.294 0.011 Q 0.222 0.011 0.16 -0.046 L 0.16 0 L 0.082 0 L 0.082 -0.6940000000000001 L 0.157 -0.6940000000000001 M 0.16 -0.335 L 0.16 -0.114 Q 0.195 -0.05 0.257 -0.05 Q 0.312 -0.05 0.357 -0.0925 Q 0.402 -0.135 0.402 -0.223 Q 0.402 -0.31 0.361 -0.352 Q 0.32 -0.394 0.267 -0.394 Q 0.199 -0.394 0.16 -0.335 Z"/></g><g transform="translate(43.75455665523128,31.932884210526318) scale(0.7,0.7)"><path fill="rgb(0,0,0)" stroke="none" paint-order="stroke fill markers" d=" M 0.17400000000000002 -0.188 L 0.251 -0.259 Q 0.281 -0.29 0.2955 -0.3055 Q 0.31 -0.321 0.33 -0.34900000000000003 Q 0.35000000000000003 -0.377 0.3585 -0.404 Q 0.367 -0.431 0.367 -0.461 Q 0.367 -0.523 0.328 -0.5685 Q 0.289 -0.614 0.222 -0.614 Q 0.161 -0.614 0.1315 -0.5730000000000001 Q 0.10200000000000001 -0.532 0.083 -0.459 Q 0.066 -0.484 0.061 -0.488 Q 0.06 -0.489 0.0545 -0.4965 Q 0.049 -0.504 0.042 -0.514 Q 0.088 -0.678 0.23600000000000002 -0.678 Q 0.332 -0.678 0.3905 -0.6155 Q 0.449 -0.553 0.449 -0.463 Q 0.449 -0.424 0.4315 -0.3865 Q 0.41400000000000003 -0.34900000000000003 0.398 -0.3305 Q 0.382 -0.312 0.35000000000000003 -0.28 Q 0.34 -0.271 0.3055 -0.241 Q 0.271 -0.211 0.261 -0.202 Q 0.254 -0.196 0.1975 -0.14100000000000001 Q 0.14100000000000001 -0.08600000000000001 0.122 -0.07 L 0.231 -0.07 Q 0.23700000000000002 -0.07 0.249 -0.07050000000000001 Q 0.261 -0.07100000000000001 0.267 -0.07100000000000001 L 0.449 -0.07100000000000001 L 0.449 0 L 0.05 0 L 0.05 -0.064 L 0.17400000000000002 -0.188 Z"/></g><g transform="translate(44.4085519069538,32.34577621052632)"><path fill="rgb(0,0,0)" stroke="none" paint-order="stroke fill markers" d=" M 0.687 -0.33 L 0.09 -0.33 Q 0.056 -0.33 0.056 -0.35000000000000003 Q 0.056 -0.37 0.089 -0.37 L 0.6880000000000001 -0.37 Q 0.721 -0.37 0.721 -0.35000000000000003 Q 0.721 -0.33 0.687 -0.33 M 0.6880000000000001 -0.13 L 0.089 -0.13 Q 0.056 -0.13 0.056 -0.15 Q 0.056 -0.17 0.09 -0.17 L 0.687 -0.17 Q 0.721 -0.17 0.721 -0.15 Q 0.721 -0.13 0.6880000000000001 -0.13 Z"/></g><g transform="translate(45.464329684731574,32.34577621052632)"><path fill="rgb(0,0,0)" stroke="none" paint-order="stroke fill markers" d=" M 0.41000000000000003 -0.418 L 0.398 -0.353 Q 0.358 -0.379 0.328 -0.388 Q 0.298 -0.397 0.257 -0.397 Q 0.20700000000000002 -0.397 0.17350000000000002 -0.369 Q 0.14 -0.341 0.127 -0.3035 Q 0.114 -0.266 0.114 -0.223 Q 0.114 -0.149 0.1525 -0.101 Q 0.191 -0.053 0.253 -0.053 Q 0.34 -0.053 0.40900000000000003 -0.107 L 0.41500000000000004 -0.04 Q 0.341 0.011 0.252 0.011 Q 0.16 0.011 0.098 -0.058 Q 0.036000000000000004 -0.127 0.036000000000000004 -0.222 Q 0.036000000000000004 -0.317 0.0965 -0.389 Q 0.157 -0.461 0.256 -0.461 Q 0.302 -0.461 0.334 -0.452 Q 0.366 -0.443 0.41000000000000003 -0.418 Z"/></g><g transform="translate(45.90832968473158,31.932884210526318) scale(0.7,0.7)"><path fill="rgb(0,0,0)" stroke="none" paint-order="stroke fill markers" d=" M 0.17400000000000002 -0.188 L 0.251 -0.259 Q 0.281 -0.29 0.2955 -0.3055 Q 0.31 -0.321 0.33 -0.34900000000000003 Q 0.35000000000000003 -0.377 0.3585 -0.404 Q 0.367 -0.431 0.367 -0.461 Q 0.367 -0.523 0.328 -0.5685 Q 0.289 -0.614 0.222 -0.614 Q 0.161 -0.614 0.1315 -0.5730000000000001 Q 0.10200000000000001 -0.532 0.083 -0.459 Q 0.066 -0.484 0.061 -0.488 Q 0.06 -0.489 0.0545 -0.4965 Q 0.049 -0.504 0.042 -0.514 Q 0.088 -0.678 0.23600000000000002 -0.678 Q 0.332 -0.678 0.3905 -0.6155 Q 0.449 -0.553 0.449 -0.463 Q 0.449 -0.424 0.4315 -0.3865 Q 0.41400000000000003 -0.34900000000000003 0.398 -0.3305 Q 0.382 -0.312 0.35000000000000003 -0.28 Q 0.34 -0.271 0.3055 -0.241 Q 0.271 -0.211 0.261 -0.202 Q 0.254 -0.196 0.1975 -0.14100000000000001 Q 0.14100000000000001 -0.08600000000000001 0.122 -0.07 L 0.231 -0.07 Q 0.23700000000000002 -0.07 0.249 -0.07050000000000001 Q 0.261 -0.07100000000000001 0.267 -0.07100000000000001 L 0.449 -0.07100000000000001 L 0.449 0 L 0.05 0 L 0.05 -0.064 L 0.17400000000000002 -0.188 Z"/></g></g><text fill="rgb(0,0,0)" stroke="none" font-family="geogebra-sans-serif, sans-serif" font-size="16px" font-style="normal" font-weight="normal" text-decoration="normal" x="884" y="615" text-anchor="start" dominant-baseline="alphabetic" fill-opacity="1">,</text><text fill="rgb(0,0,0)" stroke="none" font-family="geogebra-sans-serif, sans-serif" font-size="16px" font-style="normal" font-weight="normal" text-decoration="normal" x="736" y="641" text-anchor="start" dominant-baseline="alphabetic" fill-opacity="1">&#160; &#160; &#160; &#160; &#160; when </text><g transform="scale(19,19)"><g transform="translate(43.526315789473685,33.49663157894737)"><path fill="rgb(0,0,0)" stroke="none" paint-order="stroke fill markers" d=" M 0.399 -0.289 L 0.399 0 L 0.324 0 L 0.324 -0.036000000000000004 Q 0.263 0.011 0.158 0.011 Q 0.1 0.011 0.07200000000000001 -0.029500000000000002 Q 0.044 -0.07 0.044 -0.113 Q 0.044 -0.176 0.1225 -0.2095 Q 0.201 -0.243 0.321 -0.245 L 0.321 -0.28800000000000003 Q 0.321 -0.341 0.296 -0.3715 Q 0.271 -0.402 0.234 -0.402 Q 0.153 -0.402 0.083 -0.352 L 0.077 -0.418 Q 0.152 -0.461 0.234 -0.461 Q 0.304 -0.461 0.35150000000000003 -0.41250000000000003 Q 0.399 -0.364 0.399 -0.289 M 0.321 -0.132 L 0.321 -0.194 Q 0.116 -0.184 0.116 -0.115 Q 0.116 -0.085 0.14350000000000002 -0.0675 Q 0.171 -0.05 0.209 -0.05 Q 0.256 -0.05 0.28700000000000003 -0.069 Q 0.321 -0.088 0.321 -0.132 Z"/></g></g><text fill="rgb(0,0,0)" stroke="none" font-family="geogebra-sans-serif, sans-serif" font-size="16px" font-style="normal" font-weight="normal" text-decoration="normal" x="841" y="641" text-anchor="start" dominant-baseline="alphabetic" fill-opacity="1"> decreases, </text><g transform="scale(19,19)"><g transform="translate(49.05263157894737,33.64136842105263)"><path fill="rgb(0,0,0)" stroke="none" paint-order="stroke fill markers" d=" M 0.157 -0.6940000000000001 L 0.157 -0.396 Q 0.229 -0.455 0.318 -0.455 Q 0.387 -0.455 0.4335 -0.3865 Q 0.48 -0.318 0.48 -0.223 Q 0.48 -0.124 0.425 -0.0565 Q 0.37 0.011 0.294 0.011 Q 0.222 0.011 0.16 -0.046 L 0.16 0 L 0.082 0 L 0.082 -0.6940000000000001 L 0.157 -0.6940000000000001 M 0.16 -0.335 L 0.16 -0.114 Q 0.195 -0.05 0.257 -0.05 Q 0.312 -0.05 0.357 -0.0925 Q 0.402 -0.135 0.402 -0.223 Q 0.402 -0.31 0.361 -0.352 Q 0.32 -0.394 0.267 -0.394 Q 0.199 -0.394 0.16 -0.335 Z"/></g></g><text fill="rgb(0,0,0)" stroke="none" font-family="geogebra-sans-serif, sans-serif" font-size="16px" font-style="normal" font-weight="normal" text-decoration="normal" x="946" y="641" text-anchor="start" dominant-baseline="alphabetic" fill-opacity="1"> increases</text><g transform="scale(19,19)"><g transform="translate(38.94736842105263,36.29314463157895)"><path fill="rgb(0,0,0)" stroke="none" paint-order="stroke fill markers" d=" M 0.157 -0.6940000000000001 L 0.157 -0.396 Q 0.229 -0.455 0.318 -0.455 Q 0.387 -0.455 0.4335 -0.3865 Q 0.48 -0.318 0.48 -0.223 Q 0.48 -0.124 0.425 -0.0565 Q 0.37 0.011 0.294 0.011 Q 0.222 0.011 0.16 -0.046 L 0.16 0 L 0.082 0 L 0.082 -0.6940000000000001 L 0.157 -0.6940000000000001 M 0.16 -0.335 L 0.16 -0.114 Q 0.195 -0.05 0.257 -0.05 Q 0.312 -0.05 0.357 -0.0925 Q 0.402 -0.135 0.402 -0.223 Q 0.402 -0.31 0.361 -0.352 Q 0.32 -0.394 0.267 -0.394 Q 0.199 -0.394 0.16 -0.335 Z"/></g><g transform="translate(39.46436842105263,35.88025263157895) scale(0.7,0.7)"><path fill="rgb(0,0,0)" stroke="none" paint-order="stroke fill markers" d=" M 0.17400000000000002 -0.188 L 0.251 -0.259 Q 0.281 -0.29 0.2955 -0.3055 Q 0.31 -0.321 0.33 -0.34900000000000003 Q 0.35000000000000003 -0.377 0.3585 -0.404 Q 0.367 -0.431 0.367 -0.461 Q 0.367 -0.523 0.328 -0.5685 Q 0.289 -0.614 0.222 -0.614 Q 0.161 -0.614 0.1315 -0.5730000000000001 Q 0.10200000000000001 -0.532 0.083 -0.459 Q 0.066 -0.484 0.061 -0.488 Q 0.06 -0.489 0.0545 -0.4965 Q 0.049 -0.504 0.042 -0.514 Q 0.088 -0.678 0.23600000000000002 -0.678 Q 0.332 -0.678 0.3905 -0.6155 Q 0.449 -0.553 0.449 -0.463 Q 0.449 -0.424 0.4315 -0.3865 Q 0.41400000000000003 -0.34900000000000003 0.398 -0.3305 Q 0.382 -0.312 0.35000000000000003 -0.28 Q 0.34 -0.271 0.3055 -0.241 Q 0.271 -0.211 0.261 -0.202 Q 0.254 -0.196 0.1975 -0.14100000000000001 Q 0.14100000000000001 -0.08600000000000001 0.122 -0.07 L 0.231 -0.07 Q 0.23700000000000002 -0.07 0.249 -0.07050000000000001 Q 0.261 -0.07100000000000001 0.267 -0.07100000000000001 L 0.449 -0.07100000000000001 L 0.449 0 L 0.05 0 L 0.05 -0.064 L 0.17400000000000002 -0.188 Z"/></g></g><text fill="rgb(0,0,0)" stroke="none" font-family="geogebra-sans-serif, sans-serif" font-size="16px" font-style="normal" font-weight="normal" text-decoration="normal" x="761" y="689" text-anchor="start" dominant-baseline="alphabetic" fill-opacity="1"> is the contribution of </text><g transform="scale(19,19)"><g transform="translate(48.26315789473684,36.16768421052632)"><path fill="rgb(0,0,0)" stroke="none" paint-order="stroke fill markers" d=" M 0.352 -0.289 L 0.185 -0.289 L 0.185 0 L 0.096 0 L 0.096 -0.6940000000000001 L 0.34500000000000003 -0.6940000000000001 Q 0.446 -0.6940000000000001 0.514 -0.634 Q 0.582 -0.5740000000000001 0.582 -0.492 Q 0.582 -0.40800000000000003 0.514 -0.34850000000000003 Q 0.446 -0.289 0.352 -0.289 M 0.323 -0.638 L 0.182 -0.638 L 0.182 -0.34700000000000003 L 0.323 -0.34700000000000003 Q 0.406 -0.34700000000000003 0.4535 -0.3885 Q 0.501 -0.43 0.501 -0.492 Q 0.501 -0.557 0.4525 -0.5975 Q 0.404 -0.638 0.323 -0.638 Z"/></g></g><text fill="rgb(0,0,0)" stroke="none" font-family="geogebra-sans-serif, sans-serif" font-size="16px" font-style="normal" font-weight="normal" text-decoration="normal" x="934" y="689" text-anchor="start" dominant-baseline="alphabetic" fill-opacity="1"> to the variance</text><text fill="rgb(0,0,0)" stroke="none" font-family="geogebra-sans-serif, sans-serif" font-size="16px" font-style="normal" font-weight="normal" text-decoration="normal" x="736" y="714" text-anchor="start" dominant-baseline="alphabetic" fill-opacity="1">&#160; &#160; &#160; &#160; &#160;for the given line</text><g transform="scale(19,19)"><g transform="translate(5.2105263157894735,9.047368421052632)"><path fill="rgb(0,0,0)" stroke="none" paint-order="stroke fill markers" d=" M 0.06591796875 1.39990234375 Q 0.05615234375 1.39990234375 0.05615234375 1.38916015625 Q 0.05615234375 1.384765625 0.05908203125 1.3818359375 L 0.5869140625 0.76708984375 L 0.05908203125 0.0439453125 Q 0.05615234375 0.041015625 0.05615234375 0.0390625 L 0.05615234375 0.0087890625 Q 0.05615234375 0.00537109375 0.059326171875 0.002685546875 Q 0.0625 0 0.06591796875 0 L 1.26611328125 0 L 1.38720703125 0.28076171875 L 1.35791015625 0.28076171875 Q 1.3115234375 0.17431640625 1.20263671875 0.123046875 Q 1.09375 0.07177734375 0.975341796875 0.059814453125 Q 0.85693359375 0.0478515625 0.7001953125 0.0478515625 L 0.23779296875 0.0478515625 L 0.7099609375 0.69287109375 Q 0.7119140625 0.69677734375 0.7119140625 0.7001953125 Q 0.7119140625 0.703125 0.7099609375 0.70703125 L 0.19091796875 1.31103515625 L 0.7099609375 1.31103515625 Q 0.86376953125 1.31103515625 0.982666015625 1.299072265625 Q 1.1015625 1.287109375 1.209228515625 1.235595703125 Q 1.31689453125 1.18408203125 1.35791015625 1.078125 L 1.38720703125 1.078125 L 1.26611328125 1.39990234375 L 0.06591796875 1.39990234375 Z"/></g><g transform="translate(5.811776315789474,11.176035421052632) scale(0.7,0.7)"><path fill="rgb(0,0,0)" stroke="none" paint-order="stroke fill markers" d=" M 0.28400000000000003 -0.625 Q 0.28400000000000003 -0.594 0.253 -0.578 Q 0.242 -0.5720000000000001 0.231 -0.5720000000000001 Q 0.201 -0.5720000000000001 0.194 -0.599 Q 0.193 -0.604 0.193 -0.608 Q 0.193 -0.636 0.221 -0.653 Q 0.234 -0.661 0.247 -0.661 Q 0.277 -0.661 0.28300000000000003 -0.634 L 0.28300000000000003 -0.633 Q 0.28400000000000003 -0.629 0.28400000000000003 -0.625 M 0.20800000000000002 -0.249 L 0.169 -0.14400000000000002 Q 0.14100000000000001 -0.063 0.14 -0.044 Q 0.14 -0.011 0.164 -0.011 Q 0.227 -0.011 0.262 -0.123 L 0.266 -0.135 Q 0.271 -0.151 0.276 -0.152 L 0.276 -0.153 L 0.281 -0.153 Q 0.293 -0.153 0.293 -0.14300000000000002 Q 0.293 -0.125 0.271 -0.079 Q 0.228 0.011 0.162 0.011 Q 0.109 0.011 0.088 -0.033 Q 0.08 -0.051000000000000004 0.08 -0.07100000000000001 Q 0.08 -0.091 0.10300000000000001 -0.151 Q 0.17300000000000001 -0.339 0.17200000000000001 -0.336 Q 0.183 -0.364 0.183 -0.388 Q 0.183 -0.42 0.158 -0.42 Q 0.10300000000000001 -0.42 0.068 -0.329 L 0.068 -0.328 Q 0.062 -0.313 0.057 -0.296 Q 0.046 -0.279 0.041 -0.278 Q 0.029 -0.278 0.029 -0.28800000000000003 Q 0.029 -0.306 0.051000000000000004 -0.35100000000000003 Q 0.094 -0.442 0.161 -0.442 Q 0.214 -0.442 0.23500000000000001 -0.397 Q 0.243 -0.38 0.243 -0.36 Q 0.243 -0.34 0.23 -0.307 Q 0.213 -0.261 0.20800000000000002 -0.249 Z"/></g><g transform="translate(6.82119298245614,10.097368421052632)"><path fill="rgb(0,0,0)" stroke="none" paint-order="stroke fill markers" d=" M 0.373 -0.378 Q 0.378 -0.41200000000000003 0.404 -0.42 Q 0.40900000000000003 -0.422 0.41500000000000004 -0.422 Q 0.441 -0.422 0.444 -0.395 Q 0.444 -0.389 0.437 -0.361 L 0.401 -0.221 Q 0.386 -0.158 0.379 -0.131 Q 0.366 -0.079 0.366 -0.057 Q 0.366 -0.011 0.396 -0.011 Q 0.434 -0.011 0.46 -0.091 Q 0.465 -0.108 0.47200000000000003 -0.135 Q 0.48 -0.152 0.486 -0.153 Q 0.498 -0.153 0.498 -0.14300000000000002 Q 0.498 -0.128 0.48 -0.073 Q 0.47400000000000003 -0.056 0.468 -0.044 Q 0.44 0.011 0.394 0.011 Q 0.338 0.011 0.313 -0.037 Q 0.306 -0.049 0.303 -0.064 Q 0.24 0.011 0.17300000000000001 0.011 Q 0.098 0.011 0.062 -0.057 Q 0.04 -0.097 0.04 -0.149 Q 0.04 -0.257 0.115 -0.34900000000000003 Q 0.185 -0.433 0.267 -0.441 Q 0.274 -0.442 0.281 -0.442 Q 0.342 -0.442 0.373 -0.378 M 0.308 -0.11900000000000001 L 0.308 -0.11900000000000001 L 0.358 -0.315 Q 0.361 -0.33 0.361 -0.332 Q 0.361 -0.353 0.343 -0.383 Q 0.321 -0.42 0.28200000000000003 -0.42 Q 0.23 -0.42 0.183 -0.352 Q 0.17400000000000002 -0.339 0.166 -0.324 Q 0.137 -0.266 0.117 -0.159 Q 0.111 -0.125 0.111 -0.105 Q 0.111 -0.037 0.149 -0.017 Q 0.16 -0.011 0.17500000000000002 -0.011 Q 0.231 -0.011 0.28800000000000003 -0.082 Q 0.302 -0.098 0.307 -0.115 L 0.307 -0.116 Q 0.308 -0.11800000000000001 0.308 -0.11900000000000001 Z"/></g><g transform="translate(7.35019298245614,9.684476421052631) scale(0.7,0.7)"><path fill="rgb(0,0,0)" stroke="none" paint-order="stroke fill markers" d=" M 0.449 -0.17400000000000002 L 0.449 -0.17400000000000002 L 0.421 0 L 0.05 0 Q 0.05 -0.025 0.056 -0.032 L 0.061 -0.037 L 0.253 -0.251 Q 0.358 -0.369 0.358 -0.47200000000000003 Q 0.358 -0.561 0.304 -0.607 L 0.303 -0.608 L 0.302 -0.608 Q 0.27 -0.635 0.224 -0.635 Q 0.152 -0.635 0.109 -0.5730000000000001 Q 0.097 -0.555 0.089 -0.533 Q 0.092 -0.534 0.10200000000000001 -0.534 Q 0.14200000000000002 -0.534 0.153 -0.498 L 0.153 -0.497 Q 0.155 -0.49 0.155 -0.482 Q 0.155 -0.442 0.117 -0.431 Q 0.109 -0.429 0.10300000000000001 -0.429 Q 0.066 -0.429 0.054 -0.46 Q 0.05 -0.47100000000000003 0.05 -0.485 Q 0.05 -0.562 0.109 -0.617 Q 0.162 -0.666 0.23700000000000002 -0.666 Q 0.34700000000000003 -0.666 0.40800000000000003 -0.592 Q 0.443 -0.549 0.448 -0.49 Q 0.449 -0.481 0.449 -0.47200000000000003 Q 0.449 -0.399 0.394 -0.333 Q 0.365 -0.299 0.304 -0.243 L 0.243 -0.189 L 0.233 -0.18 L 0.127 -0.077 L 0.307 -0.077 Q 0.395 -0.077 0.402 -0.085 Q 0.41200000000000003 -0.099 0.424 -0.17400000000000002 L 0.449 -0.17400000000000002 Z"/></g><g transform="translate(7.35019298245614,10.344585421052631) scale(0.7,0.7)"><path fill="rgb(0,0,0)" stroke="none" paint-order="stroke fill markers" d=" M 0.28400000000000003 -0.625 Q 0.28400000000000003 -0.594 0.253 -0.578 Q 0.242 -0.5720000000000001 0.231 -0.5720000000000001 Q 0.201 -0.5720000000000001 0.194 -0.599 Q 0.193 -0.604 0.193 -0.608 Q 0.193 -0.636 0.221 -0.653 Q 0.234 -0.661 0.247 -0.661 Q 0.277 -0.661 0.28300000000000003 -0.634 L 0.28300000000000003 -0.633 Q 0.28400000000000003 -0.629 0.28400000000000003 -0.625 M 0.20800000000000002 -0.249 L 0.169 -0.14400000000000002 Q 0.14100000000000001 -0.063 0.14 -0.044 Q 0.14 -0.011 0.164 -0.011 Q 0.227 -0.011 0.262 -0.123 L 0.266 -0.135 Q 0.271 -0.151 0.276 -0.152 L 0.276 -0.153 L 0.281 -0.153 Q 0.293 -0.153 0.293 -0.14300000000000002 Q 0.293 -0.125 0.271 -0.079 Q 0.228 0.011 0.162 0.011 Q 0.109 0.011 0.088 -0.033 Q 0.08 -0.051000000000000004 0.08 -0.07100000000000001 Q 0.08 -0.091 0.10300000000000001 -0.151 Q 0.17300000000000001 -0.339 0.17200000000000001 -0.336 Q 0.183 -0.364 0.183 -0.388 Q 0.183 -0.42 0.158 -0.42 Q 0.10300000000000001 -0.42 0.068 -0.329 L 0.068 -0.328 Q 0.062 -0.313 0.057 -0.296 Q 0.046 -0.279 0.041 -0.278 Q 0.029 -0.278 0.029 -0.28800000000000003 Q 0.029 -0.306 0.051000000000000004 -0.35100000000000003 Q 0.094 -0.442 0.161 -0.442 Q 0.214 -0.442 0.23500000000000001 -0.397 Q 0.243 -0.38 0.243 -0.36 Q 0.243 -0.34 0.23 -0.307 Q 0.213 -0.261 0.20800000000000002 -0.249 Z"/></g><g transform="translate(8.004188234178656,10.097368421052632)"><path fill="rgb(0,0,0)" stroke="none" paint-order="stroke fill markers" d=" M 0.687 -0.327 L 0.09 -0.327 Q 0.058 -0.327 0.056 -0.34700000000000003 Q 0.056 -0.367 0.089 -0.367 L 0.6880000000000001 -0.367 Q 0.72 -0.367 0.721 -0.34700000000000003 Q 0.721 -0.327 0.687 -0.327 M 0.6880000000000001 -0.133 L 0.089 -0.133 Q 0.057 -0.133 0.056 -0.153 Q 0.056 -0.17300000000000001 0.09 -0.17300000000000001 L 0.687 -0.17300000000000001 Q 0.719 -0.17300000000000001 0.721 -0.153 Q 0.721 -0.133 0.6880000000000001 -0.133 Z"/></g></g><g transform="scale(19,19)"><g transform="translate(5.105263157894737,12.152631578947368)"><path fill="rgb(0,0,0)" stroke="none" paint-order="stroke fill markers" d=" M 0.06591796875 1.39990234375 Q 0.05615234375 1.39990234375 0.05615234375 1.38916015625 Q 0.05615234375 1.384765625 0.05908203125 1.3818359375 L 0.5869140625 0.76708984375 L 0.05908203125 0.0439453125 Q 0.05615234375 0.041015625 0.05615234375 0.0390625 L 0.05615234375 0.0087890625 Q 0.05615234375 0.00537109375 0.059326171875 0.002685546875 Q 0.0625 0 0.06591796875 0 L 1.26611328125 0 L 1.38720703125 0.28076171875 L 1.35791015625 0.28076171875 Q 1.3115234375 0.17431640625 1.20263671875 0.123046875 Q 1.09375 0.07177734375 0.975341796875 0.059814453125 Q 0.85693359375 0.0478515625 0.7001953125 0.0478515625 L 0.23779296875 0.0478515625 L 0.7099609375 0.69287109375 Q 0.7119140625 0.69677734375 0.7119140625 0.7001953125 Q 0.7119140625 0.703125 0.7099609375 0.70703125 L 0.19091796875 1.31103515625 L 0.7099609375 1.31103515625 Q 0.86376953125 1.31103515625 0.982666015625 1.299072265625 Q 1.1015625 1.287109375 1.209228515625 1.235595703125 Q 1.31689453125 1.18408203125 1.35791015625 1.078125 L 1.38720703125 1.078125 L 1.26611328125 1.39990234375 L 0.06591796875 1.39990234375 Z"/></g><g transform="translate(5.7065131578947375,14.281298578947368) scale(0.7,0.7)"><path fill="rgb(0,0,0)" stroke="none" paint-order="stroke fill markers" d=" M 0.28400000000000003 -0.625 Q 0.28400000000000003 -0.594 0.253 -0.578 Q 0.242 -0.5720000000000001 0.231 -0.5720000000000001 Q 0.201 -0.5720000000000001 0.194 -0.599 Q 0.193 -0.604 0.193 -0.608 Q 0.193 -0.636 0.221 -0.653 Q 0.234 -0.661 0.247 -0.661 Q 0.277 -0.661 0.28300000000000003 -0.634 L 0.28300000000000003 -0.633 Q 0.28400000000000003 -0.629 0.28400000000000003 -0.625 M 0.20800000000000002 -0.249 L 0.169 -0.14400000000000002 Q 0.14100000000000001 -0.063 0.14 -0.044 Q 0.14 -0.011 0.164 -0.011 Q 0.227 -0.011 0.262 -0.123 L 0.266 -0.135 Q 0.271 -0.151 0.276 -0.152 L 0.276 -0.153 L 0.281 -0.153 Q 0.293 -0.153 0.293 -0.14300000000000002 Q 0.293 -0.125 0.271 -0.079 Q 0.228 0.011 0.162 0.011 Q 0.109 0.011 0.088 -0.033 Q 0.08 -0.051000000000000004 0.08 -0.07100000000000001 Q 0.08 -0.091 0.10300000000000001 -0.151 Q 0.17300000000000001 -0.339 0.17200000000000001 -0.336 Q 0.183 -0.364 0.183 -0.388 Q 0.183 -0.42 0.158 -0.42 Q 0.10300000000000001 -0.42 0.068 -0.329 L 0.068 -0.328 Q 0.062 -0.313 0.057 -0.296 Q 0.046 -0.279 0.041 -0.278 Q 0.029 -0.278 0.029 -0.28800000000000003 Q 0.029 -0.306 0.051000000000000004 -0.35100000000000003 Q 0.094 -0.442 0.161 -0.442 Q 0.214 -0.442 0.23500000000000001 -0.397 Q 0.243 -0.38 0.243 -0.36 Q 0.243 -0.34 0.23 -0.307 Q 0.213 -0.261 0.20800000000000002 -0.249 Z"/></g><g transform="translate(6.715929824561404,13.202631578947368)"><path fill="rgb(0,0,0)" stroke="none" paint-order="stroke fill markers" d=" M 0.23900000000000002 -0.683 L 0.165 -0.382 Q 0.223 -0.442 0.28200000000000003 -0.442 Q 0.357 -0.442 0.394 -0.373 Q 0.41500000000000004 -0.333 0.41500000000000004 -0.28200000000000003 Q 0.41500000000000004 -0.176 0.341 -0.084 Q 0.272 0.001 0.189 0.01 Q 0.181 0.011 0.17400000000000002 0.011 Q 0.10200000000000001 0.011 0.067 -0.056 Q 0.047 -0.094 0.047 -0.146 Q 0.047 -0.18 0.063 -0.247 L 0.145 -0.5730000000000001 Q 0.159 -0.632 0.159 -0.635 Q 0.159 -0.646 0.145 -0.649 L 0.145 -0.649 Q 0.133 -0.652 0.109 -0.652 Q 0.08700000000000001 -0.652 0.085 -0.664 Q 0.085 -0.681 0.10400000000000001 -0.684 L 0.226 -0.6940000000000001 Q 0.23900000000000002 -0.6940000000000001 0.23900000000000002 -0.683 M 0.145 -0.305 L 0.123 -0.213 Q 0.107 -0.15 0.107 -0.112 Q 0.107 -0.026000000000000002 0.159 -0.013000000000000001 Q 0.166 -0.011 0.17400000000000002 -0.011 Q 0.227 -0.011 0.273 -0.081 Q 0.28300000000000003 -0.096 0.292 -0.114 Q 0.319 -0.171 0.337 -0.268 Q 0.343 -0.303 0.343 -0.326 Q 0.343 -0.406 0.294 -0.418 L 0.293 -0.419 Q 0.28700000000000003 -0.42 0.28 -0.42 Q 0.22 -0.42 0.16 -0.34 Q 0.152 -0.33 0.145 -0.305 Z"/></g><g transform="translate(7.144929824561404,12.789739578947367) scale(0.7,0.7)"><path fill="rgb(0,0,0)" stroke="none" paint-order="stroke fill markers" d=" M 0.449 -0.17400000000000002 L 0.449 -0.17400000000000002 L 0.421 0 L 0.05 0 Q 0.05 -0.025 0.056 -0.032 L 0.061 -0.037 L 0.253 -0.251 Q 0.358 -0.369 0.358 -0.47200000000000003 Q 0.358 -0.561 0.304 -0.607 L 0.303 -0.608 L 0.302 -0.608 Q 0.27 -0.635 0.224 -0.635 Q 0.152 -0.635 0.109 -0.5730000000000001 Q 0.097 -0.555 0.089 -0.533 Q 0.092 -0.534 0.10200000000000001 -0.534 Q 0.14200000000000002 -0.534 0.153 -0.498 L 0.153 -0.497 Q 0.155 -0.49 0.155 -0.482 Q 0.155 -0.442 0.117 -0.431 Q 0.109 -0.429 0.10300000000000001 -0.429 Q 0.066 -0.429 0.054 -0.46 Q 0.05 -0.47100000000000003 0.05 -0.485 Q 0.05 -0.562 0.109 -0.617 Q 0.162 -0.666 0.23700000000000002 -0.666 Q 0.34700000000000003 -0.666 0.40800000000000003 -0.592 Q 0.443 -0.549 0.448 -0.49 Q 0.449 -0.481 0.449 -0.47200000000000003 Q 0.449 -0.399 0.394 -0.333 Q 0.365 -0.299 0.304 -0.243 L 0.243 -0.189 L 0.233 -0.18 L 0.127 -0.077 L 0.307 -0.077 Q 0.395 -0.077 0.402 -0.085 Q 0.41200000000000003 -0.099 0.424 -0.17400000000000002 L 0.449 -0.17400000000000002 Z"/></g><g transform="translate(7.144929824561404,13.449848578947368) scale(0.7,0.7)"><path fill="rgb(0,0,0)" stroke="none" paint-order="stroke fill markers" d=" M 0.28400000000000003 -0.625 Q 0.28400000000000003 -0.594 0.253 -0.578 Q 0.242 -0.5720000000000001 0.231 -0.5720000000000001 Q 0.201 -0.5720000000000001 0.194 -0.599 Q 0.193 -0.604 0.193 -0.608 Q 0.193 -0.636 0.221 -0.653 Q 0.234 -0.661 0.247 -0.661 Q 0.277 -0.661 0.28300000000000003 -0.634 L 0.28300000000000003 -0.633 Q 0.28400000000000003 -0.629 0.28400000000000003 -0.625 M 0.20800000000000002 -0.249 L 0.169 -0.14400000000000002 Q 0.14100000000000001 -0.063 0.14 -0.044 Q 0.14 -0.011 0.164 -0.011 Q 0.227 -0.011 0.262 -0.123 L 0.266 -0.135 Q 0.271 -0.151 0.276 -0.152 L 0.276 -0.153 L 0.281 -0.153 Q 0.293 -0.153 0.293 -0.14300000000000002 Q 0.293 -0.125 0.271 -0.079 Q 0.228 0.011 0.162 0.011 Q 0.109 0.011 0.088 -0.033 Q 0.08 -0.051000000000000004 0.08 -0.07100000000000001 Q 0.08 -0.091 0.10300000000000001 -0.151 Q 0.17300000000000001 -0.339 0.17200000000000001 -0.336 Q 0.183 -0.364 0.183 -0.388 Q 0.183 -0.42 0.158 -0.42 Q 0.10300000000000001 -0.42 0.068 -0.329 L 0.068 -0.328 Q 0.062 -0.313 0.057 -0.296 Q 0.046 -0.279 0.041 -0.278 Q 0.029 -0.278 0.029 -0.28800000000000003 Q 0.029 -0.306 0.051000000000000004 -0.35100000000000003 Q 0.094 -0.442 0.161 -0.442 Q 0.214 -0.442 0.23500000000000001 -0.397 Q 0.243 -0.38 0.243 -0.36 Q 0.243 -0.34 0.23 -0.307 Q 0.213 -0.261 0.20800000000000002 -0.249 Z"/></g><g transform="translate(7.798925076283918,13.202631578947368)"><path fill="rgb(0,0,0)" stroke="none" paint-order="stroke fill markers" d=" M 0.687 -0.327 L 0.09 -0.327 Q 0.058 -0.327 0.056 -0.34700000000000003 Q 0.056 -0.367 0.089 -0.367 L 0.6880000000000001 -0.367 Q 0.72 -0.367 0.721 -0.34700000000000003 Q 0.721 -0.327 0.687 -0.327 M 0.6880000000000001 -0.133 L 0.089 -0.133 Q 0.057 -0.133 0.056 -0.153 Q 0.056 -0.17300000000000001 0.09 -0.17300000000000001 L 0.687 -0.17300000000000001 Q 0.719 -0.17300000000000001 0.721 -0.153 Q 0.721 -0.133 0.6880000000000001 -0.133 Z"/></g></g><text fill="rgb(0,0,0)" stroke="none" font-family="geogebra-sans-serif, sans-serif" font-size="16px" font-style="normal" font-weight="normal" text-decoration="normal" x="173" y="190" text-anchor="start" dominant-baseline="alphabetic" fill-opacity="1">14.86</text><text fill="rgb(0,0,0)" stroke="none" font-family="geogebra-sans-serif, sans-serif" font-size="16px" font-style="normal" font-weight="normal" text-decoration="normal" x="172" y="249" text-anchor="start" dominant-baseline="alphabetic" fill-opacity="1">23.64</text></g></g></svg>