<svg version="1.1" xmlns="http://www.w3.org/2000/svg" xmlns:xlink="http://www.w3.org/1999/xlink" width="544" height="590"><defs><clipPath id="seukOSQpFvrR"><path fill="none" stroke="none" d=" M 0 0 L 544 0 L 544 590 L 0 590 L 0 0 Z"/></clipPath></defs><g transform="scale(1,1)" clip-path="url(#seukOSQpFvrR)"><g><rect fill="rgb(255,255,255)" stroke="none" x="0" y="0" width="545" height="590" fill-opacity="1"/><path fill="rgb(152,159,122)" stroke="none" paint-order="stroke fill markers" d=" M 206.11075299938958 354.60795577808057 C 206.11075299938958 344.8328103699419 203.55656780962005 335.2273163650283 198.7012790626902 326.7432348629333 L 150.01075299938958 354.60795577808057 Z" fill-opacity="0.09803921568627451"/><path fill="none" stroke="rgb(152,159,122)" paint-order="fill stroke markers" d=" M 206.11075299938958 354.60795577808057 C 206.11075299938958 344.8328103699419 203.55656780962005 335.2273163650283 198.7012790626902 326.7432348629333 L 150.01075299938958 354.60795577808057 Z" stroke-opacity="1" stroke-linecap="round" stroke-linejoin="round" stroke-miterlimit="10"/><path fill="none" stroke="rgb(0,0,0)" paint-order="fill stroke markers" d=" M 79.809370480372 384.51007824239315 L 173.25350318134875 314.4269787166606" stroke-opacity="1" stroke-linecap="round" stroke-linejoin="round" stroke-miterlimit="10"/><path fill="none" stroke="rgb(0,0,0)" paint-order="fill stroke markers" d=" M 313.41970223281385 384.51007824239315 L 406.8638349337906 314.4269787166606" stroke-opacity="1" stroke-linecap="round" stroke-linejoin="round" stroke-miterlimit="10"/><path fill="none" stroke="rgb(0,0,0)" paint-order="fill stroke markers" d=" M 173.25350318134875 314.4269787166606 L 406.8638349337906 314.4269787166606" stroke-opacity="1" stroke-linecap="round" stroke-linejoin="round" stroke-miterlimit="10"/><path fill="none" stroke="rgb(0,0,0)" paint-order="fill stroke markers" d=" M 79.809370480372 384.51007824239315 L 313.41970223281385 384.51007824239315" stroke-opacity="1" stroke-linecap="round" stroke-linejoin="round" stroke-miterlimit="10"/><path fill="rgb(59,54,81)" stroke="none" paint-order="stroke fill markers" d=" M 149.89247000610456 169.58857303014662 L 145.14247000610456 188.58857303014662 L 148.14247000610456 188.58857303014662 L 148.14247000610456 354.60795577808057 C 148.14247000610456 355.57445409028446 148.92597169390066 356.35795577808057 149.89247000610456 356.35795577808057 C 150.85896831830846 356.35795577808057 151.64247000610456 355.57445409028446 151.64247000610456 354.60795577808057 L 151.64247000610456 188.58857303014662 L 154.64247000610456 188.58857303014662 L 149.89247000610456 169.58857303014662 Z" fill-opacity="1"/><path fill="rgb(96,112,139)" stroke="none" paint-order="stroke fill markers" d=" M 285.0752889627162 349.85795577808057 L 285.0752889627162 352.85795577808057 L 149.89247000610456 352.85795577808057 C 148.92597169390066 352.85795577808057 148.14247000610456 353.64145746587667 148.14247000610456 354.60795577808057 C 148.14247000610456 355.57445409028446 148.92597169390066 356.35795577808057 149.89247000610456 356.35795577808057 L 285.0752889627162 356.35795577808057 L 285.0752889627162 359.35795577808057 L 304.0752889627162 354.60795577808057 L 285.0752889627162 349.85795577808057 Z" fill-opacity="1"/><g transform="scale(43,43)"><g transform="translate(3.7209302325581395,4.5095441860465115) scale(1.2,1.2)"><g transform="translate(0,0)"><path fill="rgb(59,54,81)" stroke="none" paint-order="stroke fill markers" d=" M 0.536 -0.401 Q 0.516 -0.41600000000000004 0.488 -0.41600000000000004 Q 0.461 -0.41600000000000004 0.4375 -0.392 Q 0.41400000000000003 -0.368 0.403 -0.325 Q 0.4 -0.316 0.385 -0.257 Q 0.37 -0.198 0.368 -0.189 Q 0.34600000000000003 -0.099 0.34600000000000003 -0.078 Q 0.34600000000000003 -0.028 0.402 -0.028 Q 0.44 -0.028 0.482 -0.0575 Q 0.524 -0.08700000000000001 0.544 -0.149 Q 0.548 -0.162 0.5670000000000001 -0.162 Q 0.591 -0.162 0.591 -0.148 Q 0.591 -0.134 0.578 -0.1095 Q 0.5650000000000001 -0.085 0.542 -0.058 Q 0.519 -0.031 0.48 -0.0115 Q 0.441 0.008 0.397 0.008 Q 0.295 0.008 0.259 -0.053 Q 0.215 0.008 0.152 0.008 Q 0.105 0.008 0.07150000000000001 -0.0165 Q 0.038 -0.041 0.038 -0.08 Q 0.038 -0.115 0.06 -0.1365 Q 0.082 -0.158 0.11 -0.158 Q 0.133 -0.158 0.1465 -0.14400000000000002 Q 0.16 -0.13 0.16 -0.112 Q 0.16 -0.091 0.1455 -0.07050000000000001 Q 0.131 -0.05 0.106 -0.043000000000000003 Q 0.126 -0.028 0.154 -0.028 Q 0.181 -0.028 0.20450000000000002 -0.051500000000000004 Q 0.228 -0.075 0.23900000000000002 -0.11900000000000001 L 0.273 -0.256 Q 0.296 -0.34800000000000003 0.296 -0.366 Q 0.296 -0.41600000000000004 0.24 -0.41600000000000004 Q 0.202 -0.41600000000000004 0.16 -0.3865 Q 0.11800000000000001 -0.357 0.098 -0.295 Q 0.094 -0.28200000000000003 0.075 -0.28200000000000003 Q 0.051000000000000004 -0.28200000000000003 0.051000000000000004 -0.296 Q 0.051000000000000004 -0.31 0.064 -0.3345 Q 0.077 -0.359 0.1 -0.386 Q 0.123 -0.41300000000000003 0.162 -0.4325 Q 0.201 -0.452 0.245 -0.452 Q 0.34700000000000003 -0.452 0.383 -0.391 Q 0.427 -0.452 0.49 -0.452 Q 0.537 -0.452 0.5705 -0.4275 Q 0.604 -0.403 0.604 -0.364 Q 0.604 -0.329 0.582 -0.3075 Q 0.56 -0.28600000000000003 0.532 -0.28600000000000003 Q 0.509 -0.28600000000000003 0.4955 -0.3 Q 0.482 -0.314 0.482 -0.332 Q 0.482 -0.353 0.4965 -0.3735 Q 0.511 -0.394 0.536 -0.401 Z"/></g><g transform="translate(0.659,0.15) scale(0.7,0.7)"><path fill="rgb(59,54,81)" stroke="none" paint-order="stroke fill markers" d=" M 0.354 -0.623 L 0.354 -0.047 L 0.494 -0.047 L 0.494 0 Q 0.45 -0.003 0.295 -0.003 Q 0.14 -0.003 0.096 0 L 0.096 -0.047 L 0.23500000000000001 -0.047 L 0.23500000000000001 -0.5640000000000001 Q 0.17300000000000001 -0.544 0.105 -0.544 L 0.085 -0.544 L 0.085 -0.591 L 0.105 -0.591 Q 0.229 -0.591 0.306 -0.648 Q 0.315 -0.655 0.328 -0.655 Q 0.34600000000000003 -0.655 0.35000000000000003 -0.6485 Q 0.354 -0.642 0.354 -0.623 Z"/></g></g></g><g transform="scale(43,43)"><g transform="translate(6.209302325581396,7.9514046511627905) scale(1.2,1.2)"><g transform="translate(0,0)"><path fill="rgb(96,112,139)" stroke="none" paint-order="stroke fill markers" d=" M 0.536 -0.401 Q 0.516 -0.41600000000000004 0.488 -0.41600000000000004 Q 0.461 -0.41600000000000004 0.4375 -0.392 Q 0.41400000000000003 -0.368 0.403 -0.325 Q 0.4 -0.316 0.385 -0.257 Q 0.37 -0.198 0.368 -0.189 Q 0.34600000000000003 -0.099 0.34600000000000003 -0.078 Q 0.34600000000000003 -0.028 0.402 -0.028 Q 0.44 -0.028 0.482 -0.0575 Q 0.524 -0.08700000000000001 0.544 -0.149 Q 0.548 -0.162 0.5670000000000001 -0.162 Q 0.591 -0.162 0.591 -0.148 Q 0.591 -0.134 0.578 -0.1095 Q 0.5650000000000001 -0.085 0.542 -0.058 Q 0.519 -0.031 0.48 -0.0115 Q 0.441 0.008 0.397 0.008 Q 0.295 0.008 0.259 -0.053 Q 0.215 0.008 0.152 0.008 Q 0.105 0.008 0.07150000000000001 -0.0165 Q 0.038 -0.041 0.038 -0.08 Q 0.038 -0.115 0.06 -0.1365 Q 0.082 -0.158 0.11 -0.158 Q 0.133 -0.158 0.1465 -0.14400000000000002 Q 0.16 -0.13 0.16 -0.112 Q 0.16 -0.091 0.1455 -0.07050000000000001 Q 0.131 -0.05 0.106 -0.043000000000000003 Q 0.126 -0.028 0.154 -0.028 Q 0.181 -0.028 0.20450000000000002 -0.051500000000000004 Q 0.228 -0.075 0.23900000000000002 -0.11900000000000001 L 0.273 -0.256 Q 0.296 -0.34800000000000003 0.296 -0.366 Q 0.296 -0.41600000000000004 0.24 -0.41600000000000004 Q 0.202 -0.41600000000000004 0.16 -0.3865 Q 0.11800000000000001 -0.357 0.098 -0.295 Q 0.094 -0.28200000000000003 0.075 -0.28200000000000003 Q 0.051000000000000004 -0.28200000000000003 0.051000000000000004 -0.296 Q 0.051000000000000004 -0.31 0.064 -0.3345 Q 0.077 -0.359 0.1 -0.386 Q 0.123 -0.41300000000000003 0.162 -0.4325 Q 0.201 -0.452 0.245 -0.452 Q 0.34700000000000003 -0.452 0.383 -0.391 Q 0.427 -0.452 0.49 -0.452 Q 0.537 -0.452 0.5705 -0.4275 Q 0.604 -0.403 0.604 -0.364 Q 0.604 -0.329 0.582 -0.3075 Q 0.56 -0.28600000000000003 0.532 -0.28600000000000003 Q 0.509 -0.28600000000000003 0.4955 -0.3 Q 0.482 -0.314 0.482 -0.332 Q 0.482 -0.353 0.4965 -0.3735 Q 0.511 -0.394 0.536 -0.401 Z"/></g><g transform="translate(0.659,0.15) scale(0.7,0.7)"><path fill="rgb(96,112,139)" stroke="none" paint-order="stroke fill markers" d=" M 0.517 -0.222 L 0.486 0 L 0.057 0 L 0.057 -0.018000000000000002 Q 0.057 -0.034 0.059000000000000004 -0.0385 Q 0.061 -0.043000000000000003 0.07 -0.052000000000000005 L 0.271 -0.257 Q 0.379 -0.367 0.379 -0.465 Q 0.379 -0.525 0.34400000000000003 -0.5665 Q 0.309 -0.608 0.247 -0.608 Q 0.186 -0.608 0.14400000000000002 -0.5730000000000001 Q 0.155 -0.5700000000000001 0.166 -0.5645 Q 0.177 -0.559 0.189 -0.542 Q 0.201 -0.525 0.201 -0.501 Q 0.201 -0.466 0.1785 -0.4475 Q 0.156 -0.429 0.129 -0.429 Q 0.10400000000000001 -0.429 0.0805 -0.4465 Q 0.057 -0.464 0.057 -0.503 Q 0.057 -0.5700000000000001 0.11850000000000001 -0.6125 Q 0.18 -0.655 0.272 -0.655 Q 0.379 -0.655 0.448 -0.603 Q 0.517 -0.551 0.517 -0.466 Q 0.517 -0.431 0.507 -0.404 Q 0.497 -0.377 0.46900000000000003 -0.34750000000000003 Q 0.441 -0.318 0.417 -0.299 Q 0.393 -0.28 0.339 -0.24 Q 0.292 -0.20600000000000002 0.195 -0.125 L 0.342 -0.125 Q 0.433 -0.125 0.444 -0.131 Q 0.457 -0.138 0.47000000000000003 -0.222 L 0.517 -0.222 Z"/></g></g></g><text fill="rgb(0,0,0)" stroke="none" font-family="geogebra-sans-serif, sans-serif" font-size="40px" font-style="normal" font-weight="bold" text-decoration="normal" x="20" y="64" text-anchor="start" dominant-baseline="alphabetic" fill-opacity="1">Rotation in a Plane</text><g transform="scale(43,43)"><g transform="translate(1.8604651162790697,12.088613953488373) scale(1.2,1.2)"><g transform="translate(0,0)"><path fill="rgb(96,112,139)" stroke="none" paint-order="stroke fill markers" d=" M 0.436 -0.621 L 0.371 -0.361 L 0.487 -0.361 Q 0.601 -0.361 0.646 -0.406 Q 0.669 -0.429 0.683 -0.4685 Q 0.6970000000000001 -0.508 0.6995 -0.528 Q 0.7020000000000001 -0.548 0.7020000000000001 -0.556 Q 0.7020000000000001 -0.5760000000000001 0.6955 -0.591 Q 0.6890000000000001 -0.606 0.6735 -0.6145 Q 0.658 -0.623 0.6445 -0.6285000000000001 Q 0.631 -0.634 0.605 -0.636 Q 0.579 -0.638 0.5630000000000001 -0.6385000000000001 Q 0.547 -0.639 0.517 -0.639 Q 0.448 -0.639 0.442 -0.637 Q 0.44 -0.635 0.436 -0.621 M 0.633 -0.339 Q 0.719 -0.307 0.719 -0.231 Q 0.719 -0.221 0.714 -0.191 Q 0.7000000000000001 -0.105 0.7000000000000001 -0.08 Q 0.7000000000000001 -0.045 0.7115 -0.032 Q 0.723 -0.019 0.746 -0.019 Q 0.773 -0.019 0.798 -0.0425 Q 0.8230000000000001 -0.066 0.833 -0.097 Q 0.836 -0.109 0.8405 -0.113 Q 0.845 -0.117 0.857 -0.117 Q 0.881 -0.117 0.881 -0.099 Q 0.881 -0.091 0.873 -0.074 Q 0.865 -0.057 0.8495 -0.035500000000000004 Q 0.834 -0.014 0.8045 0.0015 Q 0.775 0.017 0.738 0.017 Q 0.718 0.017 0.6985 0.0155 Q 0.679 0.014 0.6505 0.0075 Q 0.622 0.001 0.602 -0.0105 Q 0.582 -0.022 0.5670000000000001 -0.043500000000000004 Q 0.552 -0.065 0.552 -0.095 Q 0.552 -0.109 0.5660000000000001 -0.168 Q 0.582 -0.225 0.582 -0.243 Q 0.582 -0.269 0.5710000000000001 -0.28700000000000003 Q 0.56 -0.305 0.5425 -0.3125 Q 0.525 -0.32 0.5115000000000001 -0.3225 Q 0.498 -0.325 0.483 -0.325 L 0.362 -0.325 L 0.293 -0.049 Q 0.335 -0.047 0.354 -0.047 Q 0.371 -0.047 0.3775 -0.0465 Q 0.384 -0.046 0.3895 -0.042 Q 0.395 -0.038 0.395 -0.029 Q 0.395 -0.014 0.388 -0.007 Q 0.383 0 0.367 0 Q 0.35000000000000003 0 0.2905 -0.0015 Q 0.231 -0.003 0.214 -0.003 Q 0.202 -0.003 0.1775 -0.0025 Q 0.153 -0.002 0.14100000000000001 -0.002 Q 0.128 -0.002 0.10300000000000001 -0.001 Q 0.078 0 0.065 0 Q 0.043000000000000003 0 0.043000000000000003 -0.018000000000000002 Q 0.043000000000000003 -0.038 0.055 -0.045 Q 0.059000000000000004 -0.047 0.08700000000000001 -0.047 Q 0.123 -0.047 0.14 -0.048 Q 0.153 -0.049 0.1565 -0.052000000000000005 Q 0.16 -0.055 0.163 -0.067 L 0.306 -0.637 Q 0.264 -0.639 0.245 -0.639 Q 0.227 -0.639 0.22 -0.6395000000000001 Q 0.213 -0.64 0.20800000000000002 -0.644 Q 0.203 -0.648 0.203 -0.657 Q 0.203 -0.671 0.209 -0.6775 Q 0.215 -0.684 0.221 -0.685 Q 0.227 -0.686 0.24 -0.686 L 0.587 -0.686 Q 0.7030000000000001 -0.686 0.7735 -0.646 Q 0.844 -0.606 0.844 -0.533 Q 0.844 -0.511 0.8355 -0.4875 Q 0.8270000000000001 -0.464 0.806 -0.4355 Q 0.785 -0.40700000000000003 0.7405 -0.3815 Q 0.6960000000000001 -0.356 0.633 -0.339 Z"/></g><g transform="translate(1.209,0)"><path fill="rgb(96,112,139)" stroke="none" paint-order="stroke fill markers" d=" M 0.536 -0.401 Q 0.516 -0.41600000000000004 0.488 -0.41600000000000004 Q 0.461 -0.41600000000000004 0.4375 -0.392 Q 0.41400000000000003 -0.368 0.403 -0.325 Q 0.4 -0.316 0.385 -0.257 Q 0.37 -0.198 0.368 -0.189 Q 0.34600000000000003 -0.099 0.34600000000000003 -0.078 Q 0.34600000000000003 -0.028 0.402 -0.028 Q 0.44 -0.028 0.482 -0.0575 Q 0.524 -0.08700000000000001 0.544 -0.149 Q 0.548 -0.162 0.5670000000000001 -0.162 Q 0.591 -0.162 0.591 -0.148 Q 0.591 -0.134 0.578 -0.1095 Q 0.5650000000000001 -0.085 0.542 -0.058 Q 0.519 -0.031 0.48 -0.0115 Q 0.441 0.008 0.397 0.008 Q 0.295 0.008 0.259 -0.053 Q 0.215 0.008 0.152 0.008 Q 0.105 0.008 0.07150000000000001 -0.0165 Q 0.038 -0.041 0.038 -0.08 Q 0.038 -0.115 0.06 -0.1365 Q 0.082 -0.158 0.11 -0.158 Q 0.133 -0.158 0.1465 -0.14400000000000002 Q 0.16 -0.13 0.16 -0.112 Q 0.16 -0.091 0.1455 -0.07050000000000001 Q 0.131 -0.05 0.106 -0.043000000000000003 Q 0.126 -0.028 0.154 -0.028 Q 0.181 -0.028 0.20450000000000002 -0.051500000000000004 Q 0.228 -0.075 0.23900000000000002 -0.11900000000000001 L 0.273 -0.256 Q 0.296 -0.34800000000000003 0.296 -0.366 Q 0.296 -0.41600000000000004 0.24 -0.41600000000000004 Q 0.202 -0.41600000000000004 0.16 -0.3865 Q 0.11800000000000001 -0.357 0.098 -0.295 Q 0.094 -0.28200000000000003 0.075 -0.28200000000000003 Q 0.051000000000000004 -0.28200000000000003 0.051000000000000004 -0.296 Q 0.051000000000000004 -0.31 0.064 -0.3345 Q 0.077 -0.359 0.1 -0.386 Q 0.123 -0.41300000000000003 0.162 -0.4325 Q 0.201 -0.452 0.245 -0.452 Q 0.34700000000000003 -0.452 0.383 -0.391 Q 0.427 -0.452 0.49 -0.452 Q 0.537 -0.452 0.5705 -0.4275 Q 0.604 -0.403 0.604 -0.364 Q 0.604 -0.329 0.582 -0.3075 Q 0.56 -0.28600000000000003 0.532 -0.28600000000000003 Q 0.509 -0.28600000000000003 0.4955 -0.3 Q 0.482 -0.314 0.482 -0.332 Q 0.482 -0.353 0.4965 -0.3735 Q 0.511 -0.394 0.536 -0.401 Z"/></g><g transform="translate(1.868,0.15) scale(0.7,0.7)"><path fill="rgb(96,112,139)" stroke="none" paint-order="stroke fill markers" d=" M 0.517 -0.222 L 0.486 0 L 0.057 0 L 0.057 -0.018000000000000002 Q 0.057 -0.034 0.059000000000000004 -0.0385 Q 0.061 -0.043000000000000003 0.07 -0.052000000000000005 L 0.271 -0.257 Q 0.379 -0.367 0.379 -0.465 Q 0.379 -0.525 0.34400000000000003 -0.5665 Q 0.309 -0.608 0.247 -0.608 Q 0.186 -0.608 0.14400000000000002 -0.5730000000000001 Q 0.155 -0.5700000000000001 0.166 -0.5645 Q 0.177 -0.559 0.189 -0.542 Q 0.201 -0.525 0.201 -0.501 Q 0.201 -0.466 0.1785 -0.4475 Q 0.156 -0.429 0.129 -0.429 Q 0.10400000000000001 -0.429 0.0805 -0.4465 Q 0.057 -0.464 0.057 -0.503 Q 0.057 -0.5700000000000001 0.11850000000000001 -0.6125 Q 0.18 -0.655 0.272 -0.655 Q 0.379 -0.655 0.448 -0.603 Q 0.517 -0.551 0.517 -0.466 Q 0.517 -0.431 0.507 -0.404 Q 0.497 -0.377 0.46900000000000003 -0.34750000000000003 Q 0.441 -0.318 0.417 -0.299 Q 0.393 -0.28 0.339 -0.24 Q 0.292 -0.20600000000000002 0.195 -0.125 L 0.342 -0.125 Q 0.433 -0.125 0.444 -0.131 Q 0.457 -0.138 0.47000000000000003 -0.222 L 0.517 -0.222 Z"/></g><g transform="translate(2.548277777777778,0)"><path fill="rgb(96,112,139)" stroke="none" paint-order="stroke fill markers" d=" M 0.788 -0.332 L 0.105 -0.332 Q 0.064 -0.332 0.064 -0.362 Q 0.064 -0.393 0.11 -0.393 L 0.783 -0.393 Q 0.8290000000000001 -0.393 0.8290000000000001 -0.362 Q 0.8290000000000001 -0.332 0.788 -0.332 M 0.783 -0.108 L 0.11 -0.108 Q 0.064 -0.108 0.064 -0.139 Q 0.064 -0.169 0.105 -0.169 L 0.788 -0.169 Q 0.8290000000000001 -0.169 0.8290000000000001 -0.139 Q 0.8290000000000001 -0.108 0.783 -0.108 Z"/></g><g transform="translate(3.7200555555555557,0)"><path fill="rgb(96,112,139)" stroke="none" paint-order="stroke fill markers" d=" M 0.279 -0.28300000000000003 L 0.279 -0.256 Q 0.279 -0.23600000000000002 0.2755 -0.231 Q 0.272 -0.226 0.255 -0.226 Q 0.23900000000000002 -0.226 0.23550000000000001 -0.2305 Q 0.232 -0.23500000000000001 0.232 -0.253 L 0.232 -0.291 Q 0.232 -0.404 0.322 -0.498 Q 0.338 -0.514 0.34400000000000003 -0.53 Q 0.35000000000000003 -0.546 0.35000000000000003 -0.578 Q 0.35000000000000003 -0.601 0.34800000000000003 -0.6125 Q 0.34600000000000003 -0.624 0.338 -0.638 Q 0.33 -0.652 0.31 -0.658 Q 0.29 -0.664 0.257 -0.664 Q 0.186 -0.664 0.14400000000000002 -0.633 Q 0.147 -0.63 0.157 -0.627 Q 0.167 -0.624 0.178 -0.6085 Q 0.189 -0.593 0.189 -0.5720000000000001 Q 0.189 -0.543 0.1705 -0.526 Q 0.152 -0.509 0.126 -0.509 Q 0.10300000000000001 -0.509 0.0835 -0.5245 Q 0.064 -0.54 0.064 -0.5730000000000001 Q 0.064 -0.626 0.1145 -0.663 Q 0.165 -0.7000000000000001 0.263 -0.7000000000000001 Q 0.276 -0.7000000000000001 0.28700000000000003 -0.6995 Q 0.298 -0.6990000000000001 0.3215 -0.6965 Q 0.34500000000000003 -0.6940000000000001 0.3635 -0.6895 Q 0.382 -0.685 0.4045 -0.6755 Q 0.427 -0.666 0.442 -0.653 Q 0.457 -0.64 0.4675 -0.6185 Q 0.47800000000000004 -0.597 0.47800000000000004 -0.5710000000000001 Q 0.47800000000000004 -0.542 0.4635 -0.5185 Q 0.449 -0.495 0.438 -0.487 Q 0.427 -0.47900000000000004 0.41000000000000003 -0.46900000000000003 Q 0.279 -0.393 0.279 -0.28300000000000003 M 0.31 -0.133 Q 0.31 -0.133 0.3215 -0.1215 Q 0.333 -0.11 0.333 -0.078 Q 0.333 -0.046 0.31 -0.023 Q 0.28700000000000003 0 0.255 0 Q 0.223 0 0.2 -0.023 Q 0.177 -0.046 0.177 -0.078 Q 0.177 -0.11 0.2 -0.133 Q 0.223 -0.156 0.255 -0.156 Q 0.28700000000000003 -0.156 0.31 -0.133 Z"/></g></g></g><g transform="scale(43,43)"><g transform="translate(1.8372093023255813,10.590641860465116) scale(1.2,1.2)"><g transform="translate(0,0)"><path fill="rgb(59,54,81)" stroke="none" paint-order="stroke fill markers" d=" M 0.436 -0.621 L 0.371 -0.361 L 0.487 -0.361 Q 0.601 -0.361 0.646 -0.406 Q 0.669 -0.429 0.683 -0.4685 Q 0.6970000000000001 -0.508 0.6995 -0.528 Q 0.7020000000000001 -0.548 0.7020000000000001 -0.556 Q 0.7020000000000001 -0.5760000000000001 0.6955 -0.591 Q 0.6890000000000001 -0.606 0.6735 -0.6145 Q 0.658 -0.623 0.6445 -0.6285000000000001 Q 0.631 -0.634 0.605 -0.636 Q 0.579 -0.638 0.5630000000000001 -0.6385000000000001 Q 0.547 -0.639 0.517 -0.639 Q 0.448 -0.639 0.442 -0.637 Q 0.44 -0.635 0.436 -0.621 M 0.633 -0.339 Q 0.719 -0.307 0.719 -0.231 Q 0.719 -0.221 0.714 -0.191 Q 0.7000000000000001 -0.105 0.7000000000000001 -0.08 Q 0.7000000000000001 -0.045 0.7115 -0.032 Q 0.723 -0.019 0.746 -0.019 Q 0.773 -0.019 0.798 -0.0425 Q 0.8230000000000001 -0.066 0.833 -0.097 Q 0.836 -0.109 0.8405 -0.113 Q 0.845 -0.117 0.857 -0.117 Q 0.881 -0.117 0.881 -0.099 Q 0.881 -0.091 0.873 -0.074 Q 0.865 -0.057 0.8495 -0.035500000000000004 Q 0.834 -0.014 0.8045 0.0015 Q 0.775 0.017 0.738 0.017 Q 0.718 0.017 0.6985 0.0155 Q 0.679 0.014 0.6505 0.0075 Q 0.622 0.001 0.602 -0.0105 Q 0.582 -0.022 0.5670000000000001 -0.043500000000000004 Q 0.552 -0.065 0.552 -0.095 Q 0.552 -0.109 0.5660000000000001 -0.168 Q 0.582 -0.225 0.582 -0.243 Q 0.582 -0.269 0.5710000000000001 -0.28700000000000003 Q 0.56 -0.305 0.5425 -0.3125 Q 0.525 -0.32 0.5115000000000001 -0.3225 Q 0.498 -0.325 0.483 -0.325 L 0.362 -0.325 L 0.293 -0.049 Q 0.335 -0.047 0.354 -0.047 Q 0.371 -0.047 0.3775 -0.0465 Q 0.384 -0.046 0.3895 -0.042 Q 0.395 -0.038 0.395 -0.029 Q 0.395 -0.014 0.388 -0.007 Q 0.383 0 0.367 0 Q 0.35000000000000003 0 0.2905 -0.0015 Q 0.231 -0.003 0.214 -0.003 Q 0.202 -0.003 0.1775 -0.0025 Q 0.153 -0.002 0.14100000000000001 -0.002 Q 0.128 -0.002 0.10300000000000001 -0.001 Q 0.078 0 0.065 0 Q 0.043000000000000003 0 0.043000000000000003 -0.018000000000000002 Q 0.043000000000000003 -0.038 0.055 -0.045 Q 0.059000000000000004 -0.047 0.08700000000000001 -0.047 Q 0.123 -0.047 0.14 -0.048 Q 0.153 -0.049 0.1565 -0.052000000000000005 Q 0.16 -0.055 0.163 -0.067 L 0.306 -0.637 Q 0.264 -0.639 0.245 -0.639 Q 0.227 -0.639 0.22 -0.6395000000000001 Q 0.213 -0.64 0.20800000000000002 -0.644 Q 0.203 -0.648 0.203 -0.657 Q 0.203 -0.671 0.209 -0.6775 Q 0.215 -0.684 0.221 -0.685 Q 0.227 -0.686 0.24 -0.686 L 0.587 -0.686 Q 0.7030000000000001 -0.686 0.7735 -0.646 Q 0.844 -0.606 0.844 -0.533 Q 0.844 -0.511 0.8355 -0.4875 Q 0.8270000000000001 -0.464 0.806 -0.4355 Q 0.785 -0.40700000000000003 0.7405 -0.3815 Q 0.6960000000000001 -0.356 0.633 -0.339 Z"/></g><g transform="translate(1.209,0)"><path fill="rgb(59,54,81)" stroke="none" paint-order="stroke fill markers" d=" M 0.536 -0.401 Q 0.516 -0.41600000000000004 0.488 -0.41600000000000004 Q 0.461 -0.41600000000000004 0.4375 -0.392 Q 0.41400000000000003 -0.368 0.403 -0.325 Q 0.4 -0.316 0.385 -0.257 Q 0.37 -0.198 0.368 -0.189 Q 0.34600000000000003 -0.099 0.34600000000000003 -0.078 Q 0.34600000000000003 -0.028 0.402 -0.028 Q 0.44 -0.028 0.482 -0.0575 Q 0.524 -0.08700000000000001 0.544 -0.149 Q 0.548 -0.162 0.5670000000000001 -0.162 Q 0.591 -0.162 0.591 -0.148 Q 0.591 -0.134 0.578 -0.1095 Q 0.5650000000000001 -0.085 0.542 -0.058 Q 0.519 -0.031 0.48 -0.0115 Q 0.441 0.008 0.397 0.008 Q 0.295 0.008 0.259 -0.053 Q 0.215 0.008 0.152 0.008 Q 0.105 0.008 0.07150000000000001 -0.0165 Q 0.038 -0.041 0.038 -0.08 Q 0.038 -0.115 0.06 -0.1365 Q 0.082 -0.158 0.11 -0.158 Q 0.133 -0.158 0.1465 -0.14400000000000002 Q 0.16 -0.13 0.16 -0.112 Q 0.16 -0.091 0.1455 -0.07050000000000001 Q 0.131 -0.05 0.106 -0.043000000000000003 Q 0.126 -0.028 0.154 -0.028 Q 0.181 -0.028 0.20450000000000002 -0.051500000000000004 Q 0.228 -0.075 0.23900000000000002 -0.11900000000000001 L 0.273 -0.256 Q 0.296 -0.34800000000000003 0.296 -0.366 Q 0.296 -0.41600000000000004 0.24 -0.41600000000000004 Q 0.202 -0.41600000000000004 0.16 -0.3865 Q 0.11800000000000001 -0.357 0.098 -0.295 Q 0.094 -0.28200000000000003 0.075 -0.28200000000000003 Q 0.051000000000000004 -0.28200000000000003 0.051000000000000004 -0.296 Q 0.051000000000000004 -0.31 0.064 -0.3345 Q 0.077 -0.359 0.1 -0.386 Q 0.123 -0.41300000000000003 0.162 -0.4325 Q 0.201 -0.452 0.245 -0.452 Q 0.34700000000000003 -0.452 0.383 -0.391 Q 0.427 -0.452 0.49 -0.452 Q 0.537 -0.452 0.5705 -0.4275 Q 0.604 -0.403 0.604 -0.364 Q 0.604 -0.329 0.582 -0.3075 Q 0.56 -0.28600000000000003 0.532 -0.28600000000000003 Q 0.509 -0.28600000000000003 0.4955 -0.3 Q 0.482 -0.314 0.482 -0.332 Q 0.482 -0.353 0.4965 -0.3735 Q 0.511 -0.394 0.536 -0.401 Z"/></g><g transform="translate(1.868,0.15) scale(0.7,0.7)"><path fill="rgb(59,54,81)" stroke="none" paint-order="stroke fill markers" d=" M 0.354 -0.623 L 0.354 -0.047 L 0.494 -0.047 L 0.494 0 Q 0.45 -0.003 0.295 -0.003 Q 0.14 -0.003 0.096 0 L 0.096 -0.047 L 0.23500000000000001 -0.047 L 0.23500000000000001 -0.5640000000000001 Q 0.17300000000000001 -0.544 0.105 -0.544 L 0.085 -0.544 L 0.085 -0.591 L 0.105 -0.591 Q 0.229 -0.591 0.306 -0.648 Q 0.315 -0.655 0.328 -0.655 Q 0.34600000000000003 -0.655 0.35000000000000003 -0.6485 Q 0.354 -0.642 0.354 -0.623 Z"/></g><g transform="translate(2.548277777777778,0)"><path fill="rgb(59,54,81)" stroke="none" paint-order="stroke fill markers" d=" M 0.788 -0.332 L 0.105 -0.332 Q 0.064 -0.332 0.064 -0.362 Q 0.064 -0.393 0.11 -0.393 L 0.783 -0.393 Q 0.8290000000000001 -0.393 0.8290000000000001 -0.362 Q 0.8290000000000001 -0.332 0.788 -0.332 M 0.783 -0.108 L 0.11 -0.108 Q 0.064 -0.108 0.064 -0.139 Q 0.064 -0.169 0.105 -0.169 L 0.788 -0.169 Q 0.8290000000000001 -0.169 0.8290000000000001 -0.139 Q 0.8290000000000001 -0.108 0.783 -0.108 Z"/></g><g transform="translate(3.7200555555555557,0)"><path fill="rgb(59,54,81)" stroke="none" paint-order="stroke fill markers" d=" M 0.536 -0.401 Q 0.516 -0.41600000000000004 0.488 -0.41600000000000004 Q 0.461 -0.41600000000000004 0.4375 -0.392 Q 0.41400000000000003 -0.368 0.403 -0.325 Q 0.4 -0.316 0.385 -0.257 Q 0.37 -0.198 0.368 -0.189 Q 0.34600000000000003 -0.099 0.34600000000000003 -0.078 Q 0.34600000000000003 -0.028 0.402 -0.028 Q 0.44 -0.028 0.482 -0.0575 Q 0.524 -0.08700000000000001 0.544 -0.149 Q 0.548 -0.162 0.5670000000000001 -0.162 Q 0.591 -0.162 0.591 -0.148 Q 0.591 -0.134 0.578 -0.1095 Q 0.5650000000000001 -0.085 0.542 -0.058 Q 0.519 -0.031 0.48 -0.0115 Q 0.441 0.008 0.397 0.008 Q 0.295 0.008 0.259 -0.053 Q 0.215 0.008 0.152 0.008 Q 0.105 0.008 0.07150000000000001 -0.0165 Q 0.038 -0.041 0.038 -0.08 Q 0.038 -0.115 0.06 -0.1365 Q 0.082 -0.158 0.11 -0.158 Q 0.133 -0.158 0.1465 -0.14400000000000002 Q 0.16 -0.13 0.16 -0.112 Q 0.16 -0.091 0.1455 -0.07050000000000001 Q 0.131 -0.05 0.106 -0.043000000000000003 Q 0.126 -0.028 0.154 -0.028 Q 0.181 -0.028 0.20450000000000002 -0.051500000000000004 Q 0.228 -0.075 0.23900000000000002 -0.11900000000000001 L 0.273 -0.256 Q 0.296 -0.34800000000000003 0.296 -0.366 Q 0.296 -0.41600000000000004 0.24 -0.41600000000000004 Q 0.202 -0.41600000000000004 0.16 -0.3865 Q 0.11800000000000001 -0.357 0.098 -0.295 Q 0.094 -0.28200000000000003 0.075 -0.28200000000000003 Q 0.051000000000000004 -0.28200000000000003 0.051000000000000004 -0.296 Q 0.051000000000000004 -0.31 0.064 -0.3345 Q 0.077 -0.359 0.1 -0.386 Q 0.123 -0.41300000000000003 0.162 -0.4325 Q 0.201 -0.452 0.245 -0.452 Q 0.34700000000000003 -0.452 0.383 -0.391 Q 0.427 -0.452 0.49 -0.452 Q 0.537 -0.452 0.5705 -0.4275 Q 0.604 -0.403 0.604 -0.364 Q 0.604 -0.329 0.582 -0.3075 Q 0.56 -0.28600000000000003 0.532 -0.28600000000000003 Q 0.509 -0.28600000000000003 0.4955 -0.3 Q 0.482 -0.314 0.482 -0.332 Q 0.482 -0.353 0.4965 -0.3735 Q 0.511 -0.394 0.536 -0.401 Z"/></g><g transform="translate(4.3790555555555555,0.15) scale(0.7,0.7)"><path fill="rgb(59,54,81)" stroke="none" paint-order="stroke fill markers" d=" M 0.354 -0.623 L 0.354 -0.047 L 0.494 -0.047 L 0.494 0 Q 0.45 -0.003 0.295 -0.003 Q 0.14 -0.003 0.096 0 L 0.096 -0.047 L 0.23500000000000001 -0.047 L 0.23500000000000001 -0.5640000000000001 Q 0.17300000000000001 -0.544 0.105 -0.544 L 0.085 -0.544 L 0.085 -0.591 L 0.105 -0.591 Q 0.229 -0.591 0.306 -0.648 Q 0.315 -0.655 0.328 -0.655 Q 0.34600000000000003 -0.655 0.35000000000000003 -0.6485 Q 0.354 -0.642 0.354 -0.623 Z"/></g></g></g><g transform="scale(43,43)"><g transform="translate(4.790697674418604,8.158381395348837) scale(1.2,1.2)"><g transform="translate(0,0)"><path fill="rgb(152,159,122)" stroke="none" paint-order="stroke fill markers" d=" M 0.547 -0.49 Q 0.547 -0.419 0.52 -0.3175 Q 0.493 -0.216 0.436 -0.133 Q 0.388 -0.061 0.3275 -0.0265 Q 0.267 0.008 0.212 0.008 Q 0.14 0.008 0.093 -0.0455 Q 0.046 -0.099 0.046 -0.203 Q 0.046 -0.267 0.0685 -0.3565 Q 0.091 -0.446 0.128 -0.514 Q 0.181 -0.61 0.249 -0.656 Q 0.317 -0.7020000000000001 0.382 -0.7020000000000001 Q 0.40800000000000003 -0.7020000000000001 0.434 -0.6930000000000001 Q 0.46 -0.684 0.487 -0.6625 Q 0.514 -0.641 0.5305 -0.5965 Q 0.547 -0.552 0.547 -0.49 M 0.198 -0.371 L 0.40700000000000003 -0.371 Q 0.44 -0.497 0.44 -0.5630000000000001 Q 0.44 -0.666 0.38 -0.666 Q 0.321 -0.666 0.268 -0.5720000000000001 Q 0.231 -0.508 0.198 -0.371 M 0.395 -0.323 L 0.186 -0.323 Q 0.153 -0.194 0.153 -0.13 Q 0.153 -0.09 0.165 -0.063 Q 0.181 -0.028 0.214 -0.028 Q 0.227 -0.028 0.2405 -0.0325 Q 0.254 -0.037 0.275 -0.055 Q 0.296 -0.073 0.315 -0.10300000000000001 Q 0.334 -0.133 0.3555 -0.19 Q 0.377 -0.247 0.395 -0.323 Z"/></g></g></g></g></g></svg>