<svg version="1.1" xmlns="http://www.w3.org/2000/svg" xmlns:xlink="http://www.w3.org/1999/xlink" width="821" height="535"><defs><clipPath id="TTKSrIiTeSgg"><path fill="none" stroke="none" d=" M 0 0 L 821 0 L 821 535 L 0 535 L 0 0 Z"/></clipPath></defs><g transform="scale(1,1)" clip-path="url(#TTKSrIiTeSgg)"><g><rect fill="rgb(255,255,255)" stroke="none" x="0" y="0" width="821" height="535" fill-opacity="1"/><path fill="none" stroke="rgb(0,0,255)" paint-order="fill stroke markers" d=" M 413.1520963307138 131.49474646988938 C 361.7225211041635 83.77952945414555 266.23668694938476 103.0801804141112 199.87851648573113 174.60395696176178 C 133.5203460220775 246.1277335094124 121.41832844273588 342.79003651436676 172.8479036692862 390.5052535301106 C 224.2774788958365 438.2204705458545 319.76331305061524 418.91981958588883 386.1214835142689 347.3960430382382 C 452.4796539779225 275.87226649058766 464.58167155726414 179.20996348563324 413.1520963307138 131.49474646988938 Z" stroke-opacity="0.4" stroke-linecap="round" stroke-linejoin="round" stroke-miterlimit="10" stroke-width="4"/><path fill="none" stroke="rgb(255,0,0)" paint-order="fill stroke markers" d=" M 557.7360215245692 111.99892237870517 C 488.86115118317684 23.50048562719539 344.72146224165925 20.483101056431593 235.79101543634158 105.25940530926559 C 126.86056863102391 190.03570956209958 94.38910813403851 330.50264086978507 163.2639784754309 419.0010776212948 C 232.13884881682327 507.49951437280464 376.27853775834086 510.51689894356844 485.20898456365853 425.7405946907344 C 594.1394313689761 340.96429043790044 626.6108918659615 200.497359130215 557.7360215245692 111.99892237870517 Z" stroke-opacity="1" stroke-linecap="round" stroke-linejoin="round" stroke-miterlimit="10" stroke-width="4"/><g transform="scale(19,19)"><g transform="translate(11.421052631578947,14.236842105263158) scale(2,2)"><g transform="translate(0,0)"><path fill="rgb(0,0,255)" stroke="none" paint-order="stroke fill markers" d=" M 0.789 -0.7000000000000001 L 0.8 -0.7000000000000001 Q 0.808 -0.7000000000000001 0.808 -0.6920000000000001 Q 0.808 -0.6890000000000001 0.807 -0.6880000000000001 Q 0.764 -0.624 0.764 -0.495 Q 0.764 -0.457 0.768 -0.40650000000000003 Q 0.772 -0.356 0.772 -0.35000000000000003 L 0.772 -0.334 Q 0.772 -0.28 0.755 -0.217 Q 0.8280000000000001 -0.337 0.914 -0.46 Q 0.979 -0.552 1.046 -0.6185 Q 1.113 -0.685 1.195 -0.719 L 1.199 -0.719 Q 1.206 -0.719 1.206 -0.712 L 1.203 -0.6880000000000001 Q 1.203 -0.684 1.198 -0.681 Q 1.062 -0.625 0.9380000000000001 -0.45 Q 0.777 -0.221 0.665 0.004 Q 0.662 0.008 0.657 0.008 L 0.646 0.008 Q 0.644 0.008 0.643 0.007 Q 0.638 0.005 0.638 0 Q 0.638 -0.003 0.639 -0.004 Q 0.6900000000000001 -0.101 0.6900000000000001 -0.214 Q 0.6900000000000001 -0.241 0.687 -0.2895 Q 0.684 -0.338 0.683 -0.35000000000000003 L 0.687 -0.461 L 0.6910000000000001 -0.483 Q 0.6950000000000001 -0.505 0.7020000000000001 -0.535 L 0.466 -0.20500000000000002 Q 0.397 -0.111 0.316 -0.0445 Q 0.23500000000000001 0.022 0.165 0.022 Q 0.108 0.022 0.07050000000000001 0.0015 Q 0.033 -0.019 0.033 -0.057 Q 0.033 -0.08600000000000001 0.059000000000000004 -0.124 Q 0.079 -0.153 0.116 -0.153 Q 0.149 -0.153 0.149 -0.11900000000000001 Q 0.149 -0.105 0.1305 -0.0925 Q 0.112 -0.08 0.092 -0.08 Q 0.07200000000000001 -0.08 0.063 -0.095 Q 0.054 -0.076 0.054 -0.061 Q 0.054 -0.031 0.0855 -0.0155 Q 0.117 0 0.169 0 Q 0.231 0 0.3045 -0.0625 Q 0.378 -0.125 0.442 -0.215 L 0.782 -0.6970000000000001 Q 0.785 -0.7000000000000001 0.789 -0.7000000000000001 Z"/></g><g transform="translate(1.2540035,0)"><path fill="rgb(0,0,255)" stroke="none" paint-order="stroke fill markers" d=" M 0.331 0.24 L 0.331 0.24 Q 0.331 0.25 0.321 0.25 Q 0.309 0.25 0.268 0.209 Q 0.20600000000000002 0.147 0.165 0.062 Q 0.099 -0.074 0.099 -0.25 Q 0.099 -0.419 0.162 -0.555 Q 0.214 -0.666 0.294 -0.733 Q 0.315 -0.75 0.321 -0.75 Q 0.331 -0.75 0.331 -0.74 Q 0.331 -0.735 0.318 -0.723 Q 0.157 -0.559 0.157 -0.25 Q 0.157 0.058 0.314 0.218 Q 0.331 0.23500000000000001 0.331 0.24 Z"/></g><g transform="translate(1.6428935,0)"><path fill="rgb(0,0,255)" stroke="none" paint-order="stroke fill markers" d=" M 0.179 -0.115 L 0.527 -0.6990000000000001 Q 0.537 -0.715 0.553 -0.716 Q 0.5680000000000001 -0.716 0.5700000000000001 -0.706 Q 0.5710000000000001 -0.7030000000000001 0.5720000000000001 -0.6920000000000001 L 0.633 -0.067 Q 0.636 -0.042 0.645 -0.037 L 0.646 -0.037 L 0.646 -0.037 L 0.646 -0.037 L 0.646 -0.037 L 0.646 -0.036000000000000004 Q 0.658 -0.031 0.6980000000000001 -0.031 Q 0.72 -0.031 0.721 -0.02 Q 0.721 0 0.7030000000000001 0 L 0.591 -0.003 L 0.59 -0.003 L 0.466 0 L 0.465 0 Q 0.451 0 0.451 -0.011 Q 0.459 -0.03 0.47500000000000003 -0.031 Q 0.547 -0.031 0.547 -0.064 Q 0.547 -0.063 0.531 -0.231 L 0.28 -0.231 L 0.20400000000000001 -0.10300000000000001 Q 0.19 -0.078 0.19 -0.066 Q 0.19 -0.035 0.23700000000000002 -0.031 Q 0.253 -0.031 0.253 -0.019 Q 0.253 0 0.234 0 L 0.138 -0.003 L 0.134 -0.003 L 0.05 0 L 0.048 0 Q 0.035 0 0.035 -0.011 Q 0.035 -0.029 0.05 -0.03 L 0.05 -0.031 L 0.056 -0.031 Q 0.11900000000000001 -0.035 0.159 -0.085 Q 0.169 -0.098 0.179 -0.115 M 0.299 -0.262 L 0.528 -0.262 L 0.496 -0.592 L 0.299 -0.262 Z"/></g><g transform="translate(2.3928955,0)"><path fill="rgb(0,0,255)" stroke="none" paint-order="stroke fill markers" d=" M 0.289 -0.25 L 0.289 -0.25 Q 0.289 -0.081 0.226 0.055 Q 0.17400000000000002 0.166 0.094 0.233 Q 0.073 0.25 0.067 0.25 Q 0.057 0.25 0.057 0.24 Q 0.057 0.23500000000000001 0.07 0.223 Q 0.231 0.059000000000000004 0.231 -0.25 Q 0.231 -0.555 0.081 -0.712 L 0.076 -0.717 Q 0.057 -0.735 0.057 -0.74 Q 0.057 -0.75 0.067 -0.75 Q 0.079 -0.75 0.12 -0.709 Q 0.182 -0.647 0.223 -0.562 Q 0.289 -0.426 0.289 -0.25 Z"/></g></g></g><g transform="scale(19,19)"><g transform="translate(20.736842105263158,10.160580210526316) scale(2,2)"><g transform="translate(0,0)"><path fill="rgb(255,0,0)" stroke="none" paint-order="stroke fill markers" d=" M 0.789 -0.7000000000000001 L 0.8 -0.7000000000000001 Q 0.808 -0.7000000000000001 0.808 -0.6920000000000001 Q 0.808 -0.6890000000000001 0.807 -0.6880000000000001 Q 0.764 -0.624 0.764 -0.495 Q 0.764 -0.457 0.768 -0.40650000000000003 Q 0.772 -0.356 0.772 -0.35000000000000003 L 0.772 -0.334 Q 0.772 -0.28 0.755 -0.217 Q 0.8280000000000001 -0.337 0.914 -0.46 Q 0.979 -0.552 1.046 -0.6185 Q 1.113 -0.685 1.195 -0.719 L 1.199 -0.719 Q 1.206 -0.719 1.206 -0.712 L 1.203 -0.6880000000000001 Q 1.203 -0.684 1.198 -0.681 Q 1.062 -0.625 0.9380000000000001 -0.45 Q 0.777 -0.221 0.665 0.004 Q 0.662 0.008 0.657 0.008 L 0.646 0.008 Q 0.644 0.008 0.643 0.007 Q 0.638 0.005 0.638 0 Q 0.638 -0.003 0.639 -0.004 Q 0.6900000000000001 -0.101 0.6900000000000001 -0.214 Q 0.6900000000000001 -0.241 0.687 -0.2895 Q 0.684 -0.338 0.683 -0.35000000000000003 L 0.687 -0.461 L 0.6910000000000001 -0.483 Q 0.6950000000000001 -0.505 0.7020000000000001 -0.535 L 0.466 -0.20500000000000002 Q 0.397 -0.111 0.316 -0.0445 Q 0.23500000000000001 0.022 0.165 0.022 Q 0.108 0.022 0.07050000000000001 0.0015 Q 0.033 -0.019 0.033 -0.057 Q 0.033 -0.08600000000000001 0.059000000000000004 -0.124 Q 0.079 -0.153 0.116 -0.153 Q 0.149 -0.153 0.149 -0.11900000000000001 Q 0.149 -0.105 0.1305 -0.0925 Q 0.112 -0.08 0.092 -0.08 Q 0.07200000000000001 -0.08 0.063 -0.095 Q 0.054 -0.076 0.054 -0.061 Q 0.054 -0.031 0.0855 -0.0155 Q 0.117 0 0.169 0 Q 0.231 0 0.3045 -0.0625 Q 0.378 -0.125 0.442 -0.215 L 0.782 -0.6970000000000001 Q 0.785 -0.7000000000000001 0.789 -0.7000000000000001 Z"/></g><g transform="translate(1.2540035,0)"><path fill="rgb(255,0,0)" stroke="none" paint-order="stroke fill markers" d=" M 0.331 0.24 L 0.331 0.24 Q 0.331 0.25 0.321 0.25 Q 0.309 0.25 0.268 0.209 Q 0.20600000000000002 0.147 0.165 0.062 Q 0.099 -0.074 0.099 -0.25 Q 0.099 -0.419 0.162 -0.555 Q 0.214 -0.666 0.294 -0.733 Q 0.315 -0.75 0.321 -0.75 Q 0.331 -0.75 0.331 -0.74 Q 0.331 -0.735 0.318 -0.723 Q 0.157 -0.559 0.157 -0.25 Q 0.157 0.058 0.314 0.218 Q 0.331 0.23500000000000001 0.331 0.24 Z"/></g><g transform="translate(1.6428935,0)"><path fill="rgb(255,0,0)" stroke="none" paint-order="stroke fill markers" d=" M 0.179 -0.115 L 0.527 -0.6990000000000001 Q 0.537 -0.715 0.553 -0.716 Q 0.5680000000000001 -0.716 0.5700000000000001 -0.706 Q 0.5710000000000001 -0.7030000000000001 0.5720000000000001 -0.6920000000000001 L 0.633 -0.067 Q 0.636 -0.042 0.645 -0.037 L 0.646 -0.037 L 0.646 -0.037 L 0.646 -0.037 L 0.646 -0.037 L 0.646 -0.036000000000000004 Q 0.658 -0.031 0.6980000000000001 -0.031 Q 0.72 -0.031 0.721 -0.02 Q 0.721 0 0.7030000000000001 0 L 0.591 -0.003 L 0.59 -0.003 L 0.466 0 L 0.465 0 Q 0.451 0 0.451 -0.011 Q 0.459 -0.03 0.47500000000000003 -0.031 Q 0.547 -0.031 0.547 -0.064 Q 0.547 -0.063 0.531 -0.231 L 0.28 -0.231 L 0.20400000000000001 -0.10300000000000001 Q 0.19 -0.078 0.19 -0.066 Q 0.19 -0.035 0.23700000000000002 -0.031 Q 0.253 -0.031 0.253 -0.019 Q 0.253 0 0.234 0 L 0.138 -0.003 L 0.134 -0.003 L 0.05 0 L 0.048 0 Q 0.035 0 0.035 -0.011 Q 0.035 -0.029 0.05 -0.03 L 0.05 -0.031 L 0.056 -0.031 Q 0.11900000000000001 -0.035 0.159 -0.085 Q 0.169 -0.098 0.179 -0.115 M 0.299 -0.262 L 0.528 -0.262 L 0.496 -0.592 L 0.299 -0.262 Z"/></g><g transform="translate(2.3928955,-0.412892) scale(0.7,0.7)"><path fill="rgb(255,0,0)" stroke="none" paint-order="stroke fill markers" d=" M 0.20600000000000002 -0.4 L 0.132 -0.105 Q 0.126 -0.08 0.126 -0.057 Q 0.126 -0.011 0.157 -0.011 Q 0.223 -0.011 0.273 -0.108 L 0.28700000000000003 -0.139 Q 0.293 -0.152 0.302 -0.153 Q 0.314 -0.153 0.314 -0.14300000000000002 Q 0.314 -0.13 0.28800000000000003 -0.08600000000000001 Q 0.23 0.011 0.155 0.011 Q 0.097 0.011 0.073 -0.037 Q 0.063 -0.057 0.063 -0.081 Q 0.063 -0.1 0.124 -0.34 L 0.139 -0.4 L 0.051000000000000004 -0.4 Q 0.026000000000000002 -0.4 0.024 -0.40800000000000003 L 0.023 -0.40800000000000003 L 0.023 -0.41200000000000003 Q 0.023 -0.429 0.039 -0.431 L 0.053 -0.431 L 0.147 -0.431 L 0.186 -0.59 Q 0.195 -0.625 0.226 -0.626 Q 0.252 -0.626 0.255 -0.599 Q 0.255 -0.593 0.214 -0.431 L 0.302 -0.431 Q 0.328 -0.431 0.33 -0.42 Q 0.33 -0.402 0.314 -0.4 L 0.313 -0.4 L 0.3 -0.4 L 0.20600000000000002 -0.4 Z"/></g><g transform="translate(2.6718920739447367,0)"><path fill="rgb(255,0,0)" stroke="none" paint-order="stroke fill markers" d=" M 0.179 -0.115 L 0.527 -0.6990000000000001 Q 0.537 -0.715 0.553 -0.716 Q 0.5680000000000001 -0.716 0.5700000000000001 -0.706 Q 0.5710000000000001 -0.7030000000000001 0.5720000000000001 -0.6920000000000001 L 0.633 -0.067 Q 0.636 -0.042 0.645 -0.037 L 0.646 -0.037 L 0.646 -0.037 L 0.646 -0.037 L 0.646 -0.037 L 0.646 -0.036000000000000004 Q 0.658 -0.031 0.6980000000000001 -0.031 Q 0.72 -0.031 0.721 -0.02 Q 0.721 0 0.7030000000000001 0 L 0.591 -0.003 L 0.59 -0.003 L 0.466 0 L 0.465 0 Q 0.451 0 0.451 -0.011 Q 0.459 -0.03 0.47500000000000003 -0.031 Q 0.547 -0.031 0.547 -0.064 Q 0.547 -0.063 0.531 -0.231 L 0.28 -0.231 L 0.20400000000000001 -0.10300000000000001 Q 0.19 -0.078 0.19 -0.066 Q 0.19 -0.035 0.23700000000000002 -0.031 Q 0.253 -0.031 0.253 -0.019 Q 0.253 0 0.234 0 L 0.138 -0.003 L 0.134 -0.003 L 0.05 0 L 0.048 0 Q 0.035 0 0.035 -0.011 Q 0.035 -0.029 0.05 -0.03 L 0.05 -0.031 L 0.056 -0.031 Q 0.11900000000000001 -0.035 0.159 -0.085 Q 0.169 -0.098 0.179 -0.115 M 0.299 -0.262 L 0.528 -0.262 L 0.496 -0.592 L 0.299 -0.262 Z"/></g><g transform="translate(3.4218940739447365,0)"><path fill="rgb(255,0,0)" stroke="none" paint-order="stroke fill markers" d=" M 0.289 -0.25 L 0.289 -0.25 Q 0.289 -0.081 0.226 0.055 Q 0.17400000000000002 0.166 0.094 0.233 Q 0.073 0.25 0.067 0.25 Q 0.057 0.25 0.057 0.24 Q 0.057 0.23500000000000001 0.07 0.223 Q 0.231 0.059000000000000004 0.231 -0.25 Q 0.231 -0.555 0.081 -0.712 L 0.076 -0.717 Q 0.057 -0.735 0.057 -0.74 Q 0.057 -0.75 0.067 -0.75 Q 0.079 -0.75 0.12 -0.709 Q 0.182 -0.647 0.223 -0.562 Q 0.289 -0.426 0.289 -0.25 Z"/></g></g></g></g></g></svg>
