<svg version="1.1" xmlns="http://www.w3.org/2000/svg" xmlns:xlink="http://www.w3.org/1999/xlink" width="689" height="383"><defs><clipPath id="QdRdEmSRqzib"><path fill="none" stroke="none" d=" M 0 0 L 689 0 L 689 383 L 0 383 L 0 0 Z"/></clipPath></defs><g transform="scale(1,1)" clip-path="url(#QdRdEmSRqzib)"><g><rect fill="rgb(255,255,255)" stroke="none" x="0" y="0" width="689" height="383" fill-opacity="1"/><path fill="rgb(255,0,0)" stroke="none" paint-order="stroke fill markers" d=" M 182.90570857226203 307.87468388218787 C 182.90570857226203 297.62850759319275 180.52013251658437 287.52304525584645 175.93790317825648 278.3585865791906 L 116.90570857226201 307.87468388218787 Z" fill-opacity="0.09803921568627451"/><path fill="none" stroke="rgb(255,0,0)" paint-order="fill stroke markers" d=" M 182.90570857226203 307.87468388218787 C 182.90570857226203 297.62850759319275 180.52013251658437 287.52304525584645 175.93790317825648 278.3585865791906 L 116.90570857226201 307.87468388218787 Z" stroke-opacity="0.6980392156862745" stroke-linecap="round" stroke-linejoin="round" stroke-miterlimit="10" stroke-width="2.5"/><path fill="rgb(255,0,0)" stroke="none" paint-order="stroke fill markers" fill-rule="evenodd" d=" M 175.93790317825648 278.3585865791906 L 185.14828033832268 290.12401060764495 L 176.24695048923684 293.29715209799383 Z" fill-opacity="0.6980392156862745"/><g transform="scale(51,51)"><g transform="translate(4.7254901960784315,5.6351764705882355)"><path fill="rgb(255,0,0)" stroke="none" paint-order="stroke fill markers" d=" M 0.455 -0.5 L 0.455 -0.5 Q 0.455 -0.34700000000000003 0.377 -0.19 Q 0.307 -0.05 0.222 -0.005 Q 0.191 0.011 0.162 0.011 Q 0.08 0.011 0.052000000000000005 -0.101 Q 0.042 -0.14300000000000002 0.042 -0.194 Q 0.042 -0.35100000000000003 0.122 -0.509 Q 0.192 -0.646 0.277 -0.6900000000000001 Q 0.307 -0.705 0.335 -0.705 Q 0.422 -0.705 0.447 -0.578 Q 0.455 -0.54 0.455 -0.5 M 0.148 -0.363 L 0.148 -0.363 L 0.357 -0.363 Q 0.389 -0.495 0.389 -0.562 Q 0.389 -0.675 0.342 -0.682 Q 0.338 -0.683 0.334 -0.683 Q 0.28300000000000003 -0.683 0.225 -0.578 Q 0.187 -0.511 0.149 -0.368 Q 0.149 -0.365 0.148 -0.363 M 0.34800000000000003 -0.331 L 0.14 -0.331 Q 0.108 -0.21 0.108 -0.133 Q 0.108 -0.013000000000000001 0.162 -0.011 Q 0.218 -0.011 0.278 -0.128 Q 0.317 -0.202 0.34800000000000003 -0.331 Z"/></g></g><path fill="none" stroke="rgb(0,0,0)" paint-order="fill stroke markers" d=" M -5 108.10272337563958 L 694 108.10272337563958" stroke-opacity="0.6980392156862745" stroke-linejoin="round" stroke-miterlimit="10" stroke-dasharray="1,3"/><path fill="none" stroke="rgb(0,0,0)" paint-order="fill stroke markers" d=" M 376.5009912731783 388 L 573.0009912731782 -5" stroke-opacity="0.6980392156862745" stroke-linejoin="round" stroke-miterlimit="10" stroke-dasharray="1,3"/><path fill="none" stroke="rgb(0,0,0)" paint-order="fill stroke markers" d=" M 76.84305051335599 388 L 273.34305051335593 -5" stroke-opacity="0.6980392156862745" stroke-linejoin="round" stroke-miterlimit="10" stroke-dasharray="1,3"/><path fill="none" stroke="rgb(0,0,0)" paint-order="fill stroke markers" d=" M -5 307.87468388218787 L 694 307.87468388218787" stroke-opacity="0.6980392156862745" stroke-linecap="round" stroke-linejoin="round" stroke-miterlimit="10" stroke-width="2"/><path fill="none" stroke="rgb(255,0,0)" paint-order="fill stroke markers" d=" M 116.90570857226201 307.87468388218787 L 499.45551295636005 116.59978169013878" stroke-opacity="1" stroke-linecap="round" stroke-linejoin="round" stroke-miterlimit="10" stroke-width="3.5"/><path fill="rgb(255,0,0)" stroke="none" paint-order="stroke fill markers" fill-rule="evenodd" d=" M 516.4496295853585 108.10272337563958 L 501.5797775349848 120.84831084738839 L 497.3312483777353 112.35125253288918 Z" fill-opacity="1"/><text fill="rgb(255,0,0)" stroke="none" font-family="geogebra-sans-serif, sans-serif" font-size="48px" font-style="normal" font-weight="normal" text-decoration="normal" x="359" y="161" text-anchor="start" dominant-baseline="alphabetic" fill-opacity="1">r</text><text fill="none" stroke="rgb(255,255,255)" font-family="geogebra-sans-serif, sans-serif" font-size="48px" font-style="normal" font-weight="normal" text-decoration="normal" x="359" y="161" text-anchor="start" dominant-baseline="alphabetic" stroke-opacity="1" stroke-linejoin="bevel" stroke-miterlimit="10" stroke-width="3">r</text><text fill="rgb(255,0,0)" stroke="none" font-family="geogebra-sans-serif, sans-serif" font-size="48px" font-style="normal" font-weight="normal" text-decoration="normal" x="359" y="161" text-anchor="start" dominant-baseline="alphabetic" fill-opacity="1">r</text><path fill="none" stroke="rgb(0,0,255)" paint-order="fill stroke markers" d=" M 116.90570857226201 307.87468388218787 L 214.0870155766275 307.87468388218787" stroke-opacity="0.6980392156862745" stroke-linecap="round" stroke-linejoin="round" stroke-miterlimit="10" stroke-width="6"/><path fill="rgb(0,0,255)" stroke="none" paint-order="stroke fill markers" fill-rule="evenodd" d=" M 250.0870155766275 307.87468388218787 L 214.0870155766275 316.87468388218787 L 214.0870155766275 298.87468388218787 Z" fill-opacity="0.6980392156862745"/><text fill="rgb(0,0,255)" stroke="none" font-family="geogebra-sans-serif, sans-serif" font-size="48px" font-style="normal" font-weight="normal" text-decoration="normal" x="238" y="356" text-anchor="start" dominant-baseline="alphabetic" fill-opacity="1">i</text><text fill="none" stroke="rgb(255,255,255)" font-family="geogebra-sans-serif, sans-serif" font-size="48px" font-style="normal" font-weight="normal" text-decoration="normal" x="238" y="356" text-anchor="start" dominant-baseline="alphabetic" stroke-opacity="1" stroke-linejoin="bevel" stroke-miterlimit="10" stroke-width="3">i</text><text fill="rgb(0,0,255)" stroke="none" font-family="geogebra-sans-serif, sans-serif" font-size="48px" font-style="normal" font-weight="normal" text-decoration="normal" x="238" y="356" text-anchor="start" dominant-baseline="alphabetic" fill-opacity="1">i</text><path fill="none" stroke="rgb(0,0,255)" paint-order="fill stroke markers" d=" M 116.90570857226201 307.87468388218787 L 167.39667263644628 206.8927557538193" stroke-opacity="0.6980392156862745" stroke-linecap="round" stroke-linejoin="round" stroke-miterlimit="10" stroke-width="6"/><path fill="rgb(0,0,255)" stroke="none" paint-order="stroke fill markers" fill-rule="evenodd" d=" M 183.49636207444476 174.69337687782235 L 175.44651735544554 210.9176781133189 L 159.34682791744703 202.8678333943197 Z" fill-opacity="0.6980392156862745"/><text fill="rgb(0,0,255)" stroke="none" font-family="geogebra-sans-serif, sans-serif" font-size="48px" font-style="normal" font-weight="normal" text-decoration="normal" x="151" y="182" text-anchor="start" dominant-baseline="alphabetic" fill-opacity="1">j</text><text fill="none" stroke="rgb(255,255,255)" font-family="geogebra-sans-serif, sans-serif" font-size="48px" font-style="normal" font-weight="normal" text-decoration="normal" x="151" y="182" text-anchor="start" dominant-baseline="alphabetic" stroke-opacity="1" stroke-linejoin="bevel" stroke-miterlimit="10" stroke-width="3">j</text><text fill="rgb(0,0,255)" stroke="none" font-family="geogebra-sans-serif, sans-serif" font-size="48px" font-style="normal" font-weight="normal" text-decoration="normal" x="151" y="182" text-anchor="start" dominant-baseline="alphabetic" fill-opacity="1">j</text><path fill="none" stroke="rgb(0,0,255)" paint-order="fill stroke markers" d=" M 116.90570857226201 307.87468388218787 L 399.56364933208437 307.87468388218787" stroke-opacity="1" stroke-linecap="round" stroke-linejoin="round" stroke-miterlimit="10" stroke-width="2.5"/><path fill="rgb(0,0,255)" stroke="none" paint-order="stroke fill markers" fill-rule="evenodd" d=" M 416.56364933208437 307.87468388218787 L 399.56364933208437 312.12468388218787 L 399.56364933208437 303.62468388218787 Z" fill-opacity="1"/><g transform="scale(51,51)"><g transform="translate(6.470588235294118,6.8508627450980395)"><path fill="rgb(0,0,255)" stroke="none" paint-order="stroke fill markers" d=" M 0.334 -0.302 L 0.3 -0.165 Q 0.28300000000000003 -0.097 0.28300000000000003 -0.077 Q 0.28300000000000003 -0.025 0.32 -0.014 Q 0.328 -0.011 0.338 -0.011 Q 0.388 -0.011 0.429 -0.061 Q 0.456 -0.093 0.47100000000000003 -0.14200000000000002 Q 0.47400000000000003 -0.153 0.484 -0.153 Q 0.496 -0.153 0.496 -0.14300000000000002 Q 0.496 -0.11800000000000001 0.465 -0.07100000000000001 Q 0.41100000000000003 0.011 0.336 0.011 Q 0.268 0.011 0.23700000000000002 -0.046 Q 0.231 -0.055 0.228 -0.065 Q 0.20400000000000001 -0.017 0.162 0.002 Q 0.14300000000000002 0.011 0.123 0.011 Q 0.063 0.011 0.039 -0.024 Q 0.029 -0.037 0.029 -0.055 Q 0.029 -0.092 0.061 -0.107 Q 0.07200000000000001 -0.113 0.084 -0.113 Q 0.114 -0.113 0.12 -0.088 Q 0.121 -0.083 0.121 -0.078 Q 0.121 -0.044 0.08700000000000001 -0.028 Q 0.081 -0.025 0.074 -0.024 Q 0.095 -0.011 0.124 -0.011 Q 0.177 -0.011 0.20800000000000002 -0.082 Q 0.214 -0.097 0.219 -0.115 Q 0.273 -0.319 0.273 -0.353 Q 0.267 -0.41500000000000004 0.219 -0.42 Q 0.167 -0.42 0.124 -0.367 L 0.124 -0.366 Q 0.124 -0.365 0.123 -0.365 Q 0.108 -0.34500000000000003 0.096 -0.319 Q 0.091 -0.307 0.08700000000000001 -0.295 L 0.085 -0.289 Q 0.083 -0.278 0.07200000000000001 -0.278 Q 0.06 -0.278 0.06 -0.28800000000000003 Q 0.06 -0.313 0.092 -0.36 Q 0.146 -0.442 0.221 -0.442 Q 0.298 -0.442 0.329 -0.366 Q 0.361 -0.428 0.41400000000000003 -0.44 Q 0.424 -0.442 0.434 -0.442 Q 0.493 -0.442 0.517 -0.40900000000000003 Q 0.527 -0.395 0.527 -0.376 Q 0.527 -0.335 0.49 -0.321 Q 0.481 -0.318 0.47300000000000003 -0.318 Q 0.442 -0.318 0.436 -0.34500000000000003 Q 0.435 -0.34900000000000003 0.435 -0.353 Q 0.435 -0.383 0.464 -0.4 Q 0.47300000000000003 -0.405 0.483 -0.40700000000000003 Q 0.462 -0.42 0.433 -0.42 Q 0.365 -0.42 0.337 -0.314 Q 0.335 -0.308 0.334 -0.302 Z"/></g><g transform="translate(7.042588235294118,6.8508627450980395)"><path fill="rgb(0,0,255)" stroke="none" paint-order="stroke fill markers" d=" M 0.224 -0.45 L 0.224 -0.047 L 0.28600000000000003 -0.047 L 0.28600000000000003 0 Q 0.178 -0.003 0.169 -0.003 Q 0.14 -0.003 0.047 0 L 0.047 -0.047 L 0.116 -0.047 L 0.116 -0.356 Q 0.116 -0.384 0.106 -0.3895 Q 0.096 -0.395 0.05 -0.395 L 0.05 -0.442 L 0.224 -0.45 M 0.211 -0.6725 Q 0.211 -0.6725 0.2225 -0.66125 Q 0.234 -0.65 0.234 -0.617 Q 0.234 -0.584 0.211 -0.5615 Q 0.188 -0.539 0.156 -0.539 Q 0.124 -0.539 0.101 -0.562 Q 0.078 -0.585 0.078 -0.617 Q 0.078 -0.649 0.101 -0.672 Q 0.124 -0.6950000000000001 0.156 -0.6950000000000001 Q 0.188 -0.6950000000000001 0.211 -0.6725 Z"/></g></g><path fill="none" stroke="rgb(0,0,255)" paint-order="fill stroke markers" d=" M 116.90570857226201 307.87468388218787 L 210.27180928718542 121.14248245234099" stroke-opacity="1" stroke-linecap="round" stroke-linejoin="round" stroke-miterlimit="10" stroke-width="2.5"/><path fill="rgb(0,0,255)" stroke="none" paint-order="stroke fill markers" fill-rule="evenodd" d=" M 217.8744404106847 105.93722020534241 L 214.07312484893507 123.04314023321581 L 206.47049372543577 119.24182467146616 Z" fill-opacity="1"/><g transform="scale(51,51)"><g transform="translate(3.0784313725490198,2.243019607843137)"><path fill="rgb(0,0,255)" stroke="none" paint-order="stroke fill markers" d=" M 0.486 -0.381 L 0.39 0.001 Q 0.366 0.099 0.28300000000000003 0.16 Q 0.222 0.20500000000000002 0.156 0.20500000000000002 Q 0.089 0.20500000000000002 0.061 0.159 Q 0.05 0.14 0.05 0.11800000000000001 Q 0.05 0.067 0.091 0.055 Q 0.099 0.053 0.106 0.053 Q 0.138 0.053 0.14200000000000002 0.081 Q 0.14300000000000002 0.084 0.14300000000000002 0.088 Q 0.14300000000000002 0.111 0.123 0.129 Q 0.109 0.14100000000000001 0.08 0.14100000000000001 Q 0.098 0.183 0.156 0.183 Q 0.218 0.183 0.266 0.12 Q 0.305 0.068 0.328 -0.021 Q 0.329 -0.025 0.331 -0.034 Q 0.28600000000000003 0.011 0.23 0.011 Q 0.15 0.011 0.121 -0.048 Q 0.108 -0.074 0.108 -0.108 Q 0.108 -0.163 0.161 -0.305 Q 0.163 -0.311 0.166 -0.318 Q 0.183 -0.364 0.183 -0.388 Q 0.183 -0.42 0.158 -0.42 Q 0.10300000000000001 -0.42 0.068 -0.329 L 0.068 -0.328 Q 0.062 -0.313 0.057 -0.296 Q 0.046 -0.279 0.041 -0.278 Q 0.029 -0.278 0.029 -0.28800000000000003 Q 0.029 -0.306 0.05 -0.35100000000000003 Q 0.094 -0.442 0.161 -0.442 Q 0.214 -0.442 0.23500000000000001 -0.397 Q 0.243 -0.38 0.243 -0.36 Q 0.243 -0.339 0.223 -0.28800000000000003 Q 0.17200000000000001 -0.156 0.17200000000000001 -0.092 Q 0.17200000000000001 -0.011 0.234 -0.011 Q 0.292 -0.011 0.335 -0.073 Q 0.34500000000000003 -0.088 0.34700000000000003 -0.096 L 0.392 -0.276 Q 0.399 -0.309 0.41200000000000003 -0.356 Q 0.422 -0.399 0.426 -0.41000000000000003 Q 0.439 -0.431 0.461 -0.431 Q 0.486 -0.426 0.49 -0.404 Q 0.49 -0.395 0.486 -0.381 Z"/></g><g transform="translate(3.60443137254902,2.243019607843137)"><path fill="rgb(0,0,255)" stroke="none" paint-order="stroke fill markers" d=" M 0.083 -0.442 L 0.267 -0.45 L 0.267 0.042 Q 0.267 0.116 0.212 0.158 Q 0.157 0.2 0.08600000000000001 0.2 Q 0.023 0.2 -0.0165 0.17550000000000002 Q -0.056 0.151 -0.056 0.109 Q -0.056 0.082 -0.0385 0.064 Q -0.021 0.046 0.007 0.046 Q 0.034 0.046 0.051500000000000004 0.064 Q 0.069 0.082 0.069 0.108 Q 0.069 0.14 0.045 0.158 Q 0.068 0.164 0.084 0.164 Q 0.124 0.164 0.14150000000000001 0.1265 Q 0.159 0.089 0.159 0.042 L 0.159 -0.355 Q 0.159 -0.368 0.158 -0.374 Q 0.157 -0.38 0.152 -0.3855 Q 0.147 -0.391 0.137 -0.393 Q 0.122 -0.395 0.083 -0.395 L 0.083 -0.442 M 0.244 -0.672 Q 0.244 -0.672 0.2555 -0.6605 Q 0.267 -0.649 0.267 -0.617 Q 0.267 -0.585 0.244 -0.562 Q 0.221 -0.539 0.189 -0.539 Q 0.157 -0.539 0.134 -0.562 Q 0.111 -0.585 0.111 -0.617 Q 0.111 -0.649 0.134 -0.672 Q 0.157 -0.6950000000000001 0.189 -0.6950000000000001 Q 0.221 -0.6950000000000001 0.244 -0.672 Z"/></g></g><path fill="rgb(255,0,0)" stroke="none" paint-order="stroke fill markers" d=" M 519.4496295853585 108.10272337563958 C 519.4496295853585 109.75957762513197 518.1064838348509 111.10272337563958 516.4496295853585 111.10272337563958 C 514.792775335866 111.10272337563958 513.4496295853585 109.75957762513197 513.4496295853585 108.10272337563958 C 513.4496295853585 106.4458691261472 514.792775335866 105.10272337563958 516.4496295853585 105.10272337563958 C 518.1064838348509 105.10272337563958 519.4496295853585 106.4458691261472 519.4496295853585 108.10272337563958 Z" fill-opacity="1"/><path fill="none" stroke="rgb(0,0,0)" paint-order="fill stroke markers" d=" M 519.4496295853585 108.10272337563958 C 519.4496295853585 109.75957762513197 518.1064838348509 111.10272337563958 516.4496295853585 111.10272337563958 C 514.792775335866 111.10272337563958 513.4496295853585 109.75957762513197 513.4496295853585 108.10272337563958 C 513.4496295853585 106.4458691261472 514.792775335866 105.10272337563958 516.4496295853585 105.10272337563958 C 518.1064838348509 105.10272337563958 519.4496295853585 106.4458691261472 519.4496295853585 108.10272337563958 Z" stroke-opacity="1" stroke-linecap="round" stroke-linejoin="round" stroke-miterlimit="10"/><text fill="rgb(255,0,0)" stroke="none" font-family="geogebra-sans-serif, sans-serif" font-size="48px" font-style="normal" font-weight="normal" text-decoration="normal" x="535" y="100" text-anchor="start" dominant-baseline="alphabetic" fill-opacity="1">A</text><text fill="none" stroke="rgb(255,255,255)" font-family="geogebra-sans-serif, sans-serif" font-size="48px" font-style="normal" font-weight="normal" text-decoration="normal" x="535" y="100" text-anchor="start" dominant-baseline="alphabetic" stroke-opacity="1" stroke-linejoin="bevel" stroke-miterlimit="10" stroke-width="3">A</text><text fill="rgb(255,0,0)" stroke="none" font-family="geogebra-sans-serif, sans-serif" font-size="48px" font-style="normal" font-weight="normal" text-decoration="normal" x="535" y="100" text-anchor="start" dominant-baseline="alphabetic" fill-opacity="1">A</text><path fill="rgb(255,0,0)" stroke="none" paint-order="stroke fill markers" d=" M 119.90570857226201 307.87468388218787 C 119.90570857226201 309.53153813168024 118.5625628217544 310.87468388218787 116.90570857226201 310.87468388218787 C 115.24885432276963 310.87468388218787 113.90570857226201 309.53153813168024 113.90570857226201 307.87468388218787 C 113.90570857226201 306.2178296326955 115.24885432276963 304.87468388218787 116.90570857226201 304.87468388218787 C 118.5625628217544 304.87468388218787 119.90570857226201 306.2178296326955 119.90570857226201 307.87468388218787 Z" fill-opacity="1"/><path fill="none" stroke="rgb(0,0,0)" paint-order="fill stroke markers" d=" M 119.90570857226201 307.87468388218787 C 119.90570857226201 309.53153813168024 118.5625628217544 310.87468388218787 116.90570857226201 310.87468388218787 C 115.24885432276963 310.87468388218787 113.90570857226201 309.53153813168024 113.90570857226201 307.87468388218787 C 113.90570857226201 306.2178296326955 115.24885432276963 304.87468388218787 116.90570857226201 304.87468388218787 C 118.5625628217544 304.87468388218787 119.90570857226201 306.2178296326955 119.90570857226201 307.87468388218787 Z" stroke-opacity="1" stroke-linecap="round" stroke-linejoin="round" stroke-miterlimit="10"/><text fill="rgb(255,0,0)" stroke="none" font-family="geogebra-sans-serif, sans-serif" font-size="48px" font-style="normal" font-weight="normal" text-decoration="normal" x="57" y="348" text-anchor="start" dominant-baseline="alphabetic" fill-opacity="1">O</text><text fill="none" stroke="rgb(255,255,255)" font-family="geogebra-sans-serif, sans-serif" font-size="48px" font-style="normal" font-weight="normal" text-decoration="normal" x="57" y="348" text-anchor="start" dominant-baseline="alphabetic" stroke-opacity="1" stroke-linejoin="bevel" stroke-miterlimit="10" stroke-width="3">O</text><text fill="rgb(255,0,0)" stroke="none" font-family="geogebra-sans-serif, sans-serif" font-size="48px" font-style="normal" font-weight="normal" text-decoration="normal" x="57" y="348" text-anchor="start" dominant-baseline="alphabetic" fill-opacity="1">O</text></g></g></svg>