<svg version="1.1" xmlns="http://www.w3.org/2000/svg" xmlns:xlink="http://www.w3.org/1999/xlink" width="744" height="630"><defs><clipPath id="uQKIyVoHliqe"><path fill="none" stroke="none" d=" M 0 0 L 744 0 L 744 630 L 0 630 L 0 0 Z"/></clipPath></defs><g transform="scale(1,1)" clip-path="url(#uQKIyVoHliqe)"><g><rect fill="rgb(255,255,255)" stroke="none" x="0" y="0" width="744" height="630" fill-opacity="1"/><path fill="none" stroke="rgb(192,192,192)" paint-order="fill stroke markers" d=" M 342.3687759020364 331.1038242586806 C 342.3687759020364 331.1038242586806 342.3687759020364 331.1038242586806 342.3687759020364 331.1038242586806 C 342.3687759020364 331.1038242586806 342.3687759020364 331.1038242586806 342.3687759020364 331.1038242586806 C 342.3687759020364 331.1038242586806 342.3687759020364 331.1038242586806 342.3687759020364 331.1038242586806 C 342.3687759020364 331.1038242586806 342.3687759020364 331.1038242586806 342.3687759020364 331.1038242586806 Z" stroke-opacity="1" stroke-linecap="round" stroke-linejoin="round" stroke-miterlimit="10"/><path fill="none" stroke="rgb(192,192,192)" paint-order="fill stroke markers" d=" M 386.76357851345995 331.1038242586806 C 386.76357851345995 355.6223967127181 366.8873483560739 375.49862687010415 342.3687759020364 375.49862687010415 C 317.8502034479989 375.49862687010415 297.9739732906129 355.6223967127181 297.9739732906129 331.1038242586806 C 297.9739732906129 306.5852518046431 317.8502034479989 286.7090216472571 342.3687759020364 286.7090216472571 C 366.8873483560739 286.7090216472571 386.76357851345995 306.5852518046431 386.76357851345995 331.1038242586806 Z" stroke-opacity="1" stroke-linecap="round" stroke-linejoin="round" stroke-miterlimit="10"/><path fill="none" stroke="rgb(192,192,192)" paint-order="fill stroke markers" d=" M 431.1583811248835 331.1038242586806 C 431.1583811248835 380.14096916675555 391.4059208101114 419.8934294815276 342.3687759020364 419.8934294815276 C 293.3316309939614 419.8934294815276 253.57917067918936 380.14096916675555 253.57917067918936 331.1038242586806 C 253.57917067918936 282.0666793506056 293.3316309939614 242.31421903583356 342.3687759020364 242.31421903583356 C 391.4059208101114 242.31421903583356 431.1583811248835 282.0666793506056 431.1583811248835 331.1038242586806 Z" stroke-opacity="1" stroke-linecap="round" stroke-linejoin="round" stroke-miterlimit="10"/><path fill="none" stroke="rgb(192,192,192)" paint-order="fill stroke markers" d=" M 475.553183736307 331.1038242586806 C 475.553183736307 404.6595416207931 415.92449326414885 464.28823209295115 342.3687759020364 464.28823209295115 C 268.81305853992393 464.28823209295115 209.18436806776586 404.6595416207931 209.18436806776586 331.1038242586806 C 209.18436806776586 257.54810689656813 268.81305853992393 197.91941642441006 342.3687759020364 197.91941642441006 C 415.92449326414885 197.91941642441006 475.553183736307 257.54810689656813 475.553183736307 331.1038242586806 Z" stroke-opacity="1" stroke-linecap="round" stroke-linejoin="round" stroke-miterlimit="10"/><path fill="none" stroke="rgb(192,192,192)" paint-order="fill stroke markers" d=" M 519.9479863477305 331.1038242586806 C 519.9479863477305 429.17811407483055 440.4430657181864 508.6830347043747 342.3687759020364 508.6830347043747 C 244.29448608588646 508.6830347043747 164.78956545634233 429.17811407483055 164.78956545634233 331.1038242586806 C 164.78956545634233 233.02953444253066 244.29448608588646 153.52461381298653 342.3687759020364 153.52461381298653 C 440.4430657181864 153.52461381298653 519.9479863477305 233.02953444253066 519.9479863477305 331.1038242586806 Z" stroke-opacity="1" stroke-linecap="round" stroke-linejoin="round" stroke-miterlimit="10"/><path fill="none" stroke="rgb(192,192,192)" paint-order="fill stroke markers" d=" M 564.3427889591541 331.1038242586806 C 564.3427889591541 453.6966865288681 464.96163817222384 553.0778373157982 342.3687759020364 553.0778373157982 C 219.77591363184897 553.0778373157982 120.3947628449188 453.6966865288681 120.3947628449188 331.1038242586806 C 120.3947628449188 208.51096198849316 219.77591363184897 109.129811201563 342.3687759020364 109.129811201563 C 464.96163817222384 109.129811201563 564.3427889591541 208.51096198849316 564.3427889591541 331.1038242586806 Z" stroke-opacity="1" stroke-linecap="round" stroke-linejoin="round" stroke-miterlimit="10"/><path fill="none" stroke="rgb(192,192,192)" paint-order="fill stroke markers" d=" M 608.7375915705775 331.1038242586806 C 608.7375915705775 478.21525898290554 489.48021062626134 597.4726399272217 342.3687759020364 597.4726399272217 C 195.2573411778115 597.4726399272217 75.9999602334953 478.21525898290554 75.9999602334953 331.1038242586806 C 75.9999602334953 183.9923895344557 195.2573411778115 64.7350085901395 342.3687759020364 64.7350085901395 C 489.48021062626134 64.7350085901395 608.7375915705775 183.9923895344557 608.7375915705775 331.1038242586806 Z" stroke-opacity="1" stroke-linecap="round" stroke-linejoin="round" stroke-miterlimit="10"/><path fill="none" stroke="rgb(192,192,192)" paint-order="fill stroke markers" d=" M 653.132394182001 331.1038242586806 C 653.132394182001 502.73383143694303 513.9987830802988 641.8674425386453 342.3687759020364 641.8674425386453 C 170.73876872377397 641.8674425386453 31.605157622071772 502.73383143694303 31.605157622071772 331.1038242586806 C 31.605157622071772 159.47381708041817 170.73876872377397 20.34020597871597 342.3687759020364 20.34020597871597 C 513.9987830802988 20.34020597871597 653.132394182001 159.47381708041817 653.132394182001 331.1038242586806 Z" stroke-opacity="1" stroke-linecap="round" stroke-linejoin="round" stroke-miterlimit="10"/><path fill="none" stroke="rgb(192,192,192)" paint-order="fill stroke markers" d=" M 697.5271967934245 331.1038242586806 C 697.5271967934245 527.2524038909805 538.5173555343363 686.2622451500688 342.3687759020364 686.2622451500688 C 146.2201962697365 686.2622451500688 -12.789644989351757 527.2524038909805 -12.789644989351757 331.1038242586806 C -12.789644989351757 134.9552446263807 146.2201962697365 -24.054596632707558 342.3687759020364 -24.054596632707558 C 538.5173555343363 -24.054596632707558 697.5271967934245 134.9552446263807 697.5271967934245 331.1038242586806 Z" stroke-opacity="1" stroke-linecap="round" stroke-linejoin="round" stroke-miterlimit="10"/><path fill="none" stroke="rgb(192,192,192)" paint-order="fill stroke markers" d=" M 741.9219994048481 331.1038242586806 C 741.9219994048481 551.770976345018 563.0359279883737 730.6570477614923 342.3687759020364 730.6570477614923 C 121.70162381569901 730.6570477614923 -57.184447600775286 551.770976345018 -57.184447600775286 331.1038242586806 C -57.184447600775286 110.43667217234321 121.70162381569901 -68.44939924413109 342.3687759020364 -68.44939924413109 C 563.0359279883737 -68.44939924413109 741.9219994048481 110.43667217234321 741.9219994048481 331.1038242586806 Z" stroke-opacity="1" stroke-linecap="round" stroke-linejoin="round" stroke-miterlimit="10"/><path fill="none" stroke="rgb(192,192,192)" paint-order="fill stroke markers" d=" M 786.3168020162716 331.1038242586806 C 786.3168020162716 576.2895487990555 587.5545004424114 775.0518503729159 342.3687759020364 775.0518503729159 C 97.18305136166151 775.0518503729159 -101.57925021219882 576.2895487990555 -101.57925021219882 331.1038242586806 C -101.57925021219882 85.91809971830571 97.18305136166151 -112.84420185555462 342.3687759020364 -112.84420185555462 C 587.5545004424114 -112.84420185555462 786.3168020162716 85.91809971830571 786.3168020162716 331.1038242586806 Z" stroke-opacity="1" stroke-linecap="round" stroke-linejoin="round" stroke-miterlimit="10"/><path fill="none" stroke="rgb(192,192,192)" paint-order="fill stroke markers" d=" M 830.7116046276951 331.1038242586806 C 830.7116046276951 600.808121253093 612.0730728964488 819.4466529843394 342.3687759020364 819.4466529843394 C 72.66447890762402 819.4466529843394 -145.97405282362234 600.808121253093 -145.97405282362234 331.1038242586806 C -145.97405282362234 61.399527264268215 72.66447890762402 -157.23900446697814 342.3687759020364 -157.23900446697814 C 612.0730728964488 -157.23900446697814 830.7116046276951 61.399527264268215 830.7116046276951 331.1038242586806 Z" stroke-opacity="1" stroke-linecap="round" stroke-linejoin="round" stroke-miterlimit="10"/><path fill="none" stroke="rgb(192,192,192)" paint-order="fill stroke markers" d=" M 0 331.1038242586806 L 744 331.1038242586806" stroke-opacity="1" stroke-linecap="round" stroke-linejoin="round" stroke-miterlimit="10"/><path fill="none" stroke="rgb(192,192,192)" paint-order="fill stroke markers" d=" M 0 528.770529187844 L 744 99.22192891076244" stroke-opacity="1" stroke-linecap="round" stroke-linejoin="round" stroke-miterlimit="10"/><path fill="none" stroke="rgb(192,192,192)" paint-order="fill stroke markers" d=" M 0 924.1039390461706 L 744 -364.54186178507376" stroke-opacity="1" stroke-linecap="round" stroke-linejoin="round" stroke-miterlimit="10"/><path fill="none" stroke="rgb(192,192,192)" paint-order="fill stroke markers" d=" M 342.3687759020364 0 L 342.3687759020364 630" stroke-opacity="1" stroke-linecap="round" stroke-linejoin="round" stroke-miterlimit="10"/><path fill="none" stroke="rgb(192,192,192)" paint-order="fill stroke markers" d=" M 0 -261.89629052880986 L 744 1026.7495103024355" stroke-opacity="1" stroke-linecap="round" stroke-linejoin="round" stroke-miterlimit="10"/><path fill="none" stroke="rgb(192,192,192)" paint-order="fill stroke markers" d=" M 0 133.43711932951706 L 744 562.985719606599" stroke-opacity="1" stroke-linecap="round" stroke-linejoin="round" stroke-miterlimit="10"/><path fill="none" stroke="rgb(192,192,192)" paint-order="fill stroke markers" d=" M 0 331.10382425868045 L 744 331.10382425868085" stroke-opacity="1" stroke-linecap="round" stroke-linejoin="round" stroke-miterlimit="10"/><path fill="none" stroke="rgb(0,0,0)" paint-order="fill stroke markers" d=" M 342.5 2.5 L 342.5 630.5" stroke-opacity="1" stroke-miterlimit="10"/><path fill="none" stroke="rgb(0,0,0)" paint-order="fill stroke markers" d=" M 342.5 1.5 L 338.5 5.5" stroke-opacity="1" stroke-miterlimit="10"/><path fill="none" stroke="rgb(0,0,0)" paint-order="fill stroke markers" d=" M 342.5 1.5 L 346.5 5.5" stroke-opacity="1" stroke-miterlimit="10"/><path fill="none" stroke="rgb(0,0,0)" paint-order="fill stroke markers" d=" M 0.5 331.5 L 742.5 331.5" stroke-opacity="1" stroke-miterlimit="10"/><path fill="none" stroke="rgb(0,0,0)" paint-order="fill stroke markers" d=" M 743.5 331.5 L 739.5 327.5" stroke-opacity="1" stroke-miterlimit="10"/><path fill="none" stroke="rgb(0,0,0)" paint-order="fill stroke markers" d=" M 743.5 331.5 L 739.5 335.5" stroke-opacity="1" stroke-miterlimit="10"/><path fill="none" stroke="rgb(0,0,0)" paint-order="fill stroke markers" d=" M 564.342788959154 331.1038242586806 C 564.342788959154 453.69668652886804 464.96163817222384 553.0778373157982 342.3687759020364 553.0778373157982 C 219.775913631849 553.0778373157982 120.39476284491883 453.69668652886804 120.39476284491883 331.1038242586806 C 120.39476284491883 208.5109619884932 219.775913631849 109.12981120156303 342.3687759020364 109.12981120156303 C 464.96163817222384 109.12981120156303 564.342788959154 208.5109619884932 564.342788959154 331.1038242586806 Z" stroke-opacity="0.6980392156862745" stroke-linecap="round" stroke-linejoin="round" stroke-miterlimit="10" stroke-width="2.5"/><path fill="rgb(0,100,0)" stroke="none" paint-order="stroke fill markers" d=" M 342.3687759020364 236.10382425868062 C 325.69279287429964 236.10382425868062 309.31060083713464 240.49341938529057 294.8687759020364 248.83141089915893 L 342.3687759020364 331.1038242586806 Z" fill-opacity="0.09803921568627451"/><path fill="none" stroke="rgb(0,100,0)" paint-order="fill stroke markers" d=" M 342.3687759020364 236.10382425868062 C 325.69279287429964 236.10382425868062 309.31060083713464 240.49341938529057 294.8687759020364 248.83141089915893 L 342.3687759020364 331.1038242586806 Z" stroke-opacity="0.6980392156862745" stroke-linecap="round" stroke-linejoin="round" stroke-miterlimit="10" stroke-width="2.5"/><path fill="none" stroke="rgb(0,100,0)" paint-order="fill stroke markers" d=" M 318.7515380364314 242.96309260980314 L 316.8103951981625 235.7186489126351" stroke-opacity="0.6980392156862745" stroke-linecap="round" stroke-linejoin="round" stroke-miterlimit="10" stroke-width="2.5"/><g transform="scale(19,19)"><g transform="translate(15.68421052631579,11.787631578947368) scale(2.5,2.5)"><g transform="translate(0,0)"><path fill="rgb(0,100,0)" stroke="none" paint-order="stroke fill markers" d=" M 0.455 -0.5 L 0.455 -0.5 Q 0.455 -0.34700000000000003 0.377 -0.19 Q 0.307 -0.05 0.222 -0.005 Q 0.191 0.011 0.162 0.011 Q 0.08 0.011 0.052000000000000005 -0.101 Q 0.042 -0.14300000000000002 0.042 -0.194 Q 0.042 -0.35100000000000003 0.122 -0.509 Q 0.192 -0.646 0.277 -0.6900000000000001 Q 0.307 -0.705 0.335 -0.705 Q 0.422 -0.705 0.447 -0.578 Q 0.455 -0.54 0.455 -0.5 M 0.148 -0.363 L 0.148 -0.363 L 0.357 -0.363 Q 0.389 -0.495 0.389 -0.562 Q 0.389 -0.675 0.342 -0.682 Q 0.338 -0.683 0.334 -0.683 Q 0.28300000000000003 -0.683 0.225 -0.578 Q 0.187 -0.511 0.149 -0.368 Q 0.149 -0.365 0.148 -0.363 M 0.34800000000000003 -0.331 L 0.14 -0.331 Q 0.108 -0.21 0.108 -0.133 Q 0.108 -0.013000000000000001 0.162 -0.011 Q 0.218 -0.011 0.278 -0.128 Q 0.317 -0.202 0.34800000000000003 -0.331 Z"/></g></g></g><path fill="rgb(0,0,255)" stroke="none" paint-order="stroke fill markers" d=" M 437.3687759020364 331.1038242586806 C 437.3687759020364 314.42784123094384 432.97918077542647 298.04564919377884 424.6411892615581 283.6038242586806 L 342.3687759020364 331.1038242586806 Z" fill-opacity="0.09803921568627451"/><path fill="none" stroke="rgb(0,0,255)" paint-order="fill stroke markers" d=" M 437.3687759020364 331.1038242586806 C 437.3687759020364 314.42784123094384 432.97918077542647 298.04564919377884 424.6411892615581 283.6038242586806 L 342.3687759020364 331.1038242586806 Z" stroke-opacity="0.6980392156862745" stroke-linecap="round" stroke-linejoin="round" stroke-miterlimit="10" stroke-width="2.5"/><path fill="none" stroke="rgb(0,0,255)" paint-order="fill stroke markers" d=" M 430.5095075509139 307.4865863930756 L 437.75395124808193 305.5454435548067" stroke-opacity="0.6980392156862745" stroke-linecap="round" stroke-linejoin="round" stroke-miterlimit="10" stroke-width="2.5"/><g transform="scale(19,19)"><g transform="translate(24.105263157894736,16.892894736842106) scale(2.5,2.5)"><g transform="translate(0,0)"><path fill="rgb(0,0,255)" stroke="none" paint-order="stroke fill markers" d=" M 0.455 -0.5 L 0.455 -0.5 Q 0.455 -0.34700000000000003 0.377 -0.19 Q 0.307 -0.05 0.222 -0.005 Q 0.191 0.011 0.162 0.011 Q 0.08 0.011 0.052000000000000005 -0.101 Q 0.042 -0.14300000000000002 0.042 -0.194 Q 0.042 -0.35100000000000003 0.122 -0.509 Q 0.192 -0.646 0.277 -0.6900000000000001 Q 0.307 -0.705 0.335 -0.705 Q 0.422 -0.705 0.447 -0.578 Q 0.455 -0.54 0.455 -0.5 M 0.148 -0.363 L 0.148 -0.363 L 0.357 -0.363 Q 0.389 -0.495 0.389 -0.562 Q 0.389 -0.675 0.342 -0.682 Q 0.338 -0.683 0.334 -0.683 Q 0.28300000000000003 -0.683 0.225 -0.578 Q 0.187 -0.511 0.149 -0.368 Q 0.149 -0.365 0.148 -0.363 M 0.34800000000000003 -0.331 L 0.14 -0.331 Q 0.108 -0.21 0.108 -0.133 Q 0.108 -0.013000000000000001 0.162 -0.011 Q 0.218 -0.011 0.278 -0.128 Q 0.317 -0.202 0.34800000000000003 -0.331 Z"/></g></g></g><path fill="rgb(102,0,204)" stroke="none" paint-order="stroke fill markers" d=" M 242.36877590203642 331.1038242586806 C 242.36877590203642 348.6574906036667 246.9894023510995 365.9019032743667 255.76623552359254 381.10382425868056 L 342.3687759020364 331.1038242586806 Z" fill-opacity="0.09803921568627451"/><path fill="none" stroke="rgb(102,0,204)" paint-order="fill stroke markers" d=" M 242.36877590203642 331.1038242586806 C 242.36877590203642 348.6574906036667 246.9894023510995 365.9019032743667 255.76623552359254 381.10382425868056 L 342.3687759020364 331.1038242586806 Z" stroke-opacity="0.6980392156862745" stroke-linecap="round" stroke-linejoin="round" stroke-miterlimit="10" stroke-width="2.5"/><path fill="none" stroke="rgb(102,0,204)" paint-order="fill stroke markers" d=" M 249.39841512171358 356.0151573497982 L 242.15397142454557 357.9563001880671" stroke-opacity="0.6980392156862745" stroke-linecap="round" stroke-linejoin="round" stroke-miterlimit="10" stroke-width="2.5"/><g transform="scale(19,19)"><g transform="translate(10.894736842105264,19.840263157894736) scale(2.5,2.5)"><g transform="translate(0,0)"><path fill="rgb(102,0,204)" stroke="none" paint-order="stroke fill markers" d=" M 0.455 -0.5 L 0.455 -0.5 Q 0.455 -0.34700000000000003 0.377 -0.19 Q 0.307 -0.05 0.222 -0.005 Q 0.191 0.011 0.162 0.011 Q 0.08 0.011 0.052000000000000005 -0.101 Q 0.042 -0.14300000000000002 0.042 -0.194 Q 0.042 -0.35100000000000003 0.122 -0.509 Q 0.192 -0.646 0.277 -0.6900000000000001 Q 0.307 -0.705 0.335 -0.705 Q 0.422 -0.705 0.447 -0.578 Q 0.455 -0.54 0.455 -0.5 M 0.148 -0.363 L 0.148 -0.363 L 0.357 -0.363 Q 0.389 -0.495 0.389 -0.562 Q 0.389 -0.675 0.342 -0.682 Q 0.338 -0.683 0.334 -0.683 Q 0.28300000000000003 -0.683 0.225 -0.578 Q 0.187 -0.511 0.149 -0.368 Q 0.149 -0.365 0.148 -0.363 M 0.34800000000000003 -0.331 L 0.14 -0.331 Q 0.108 -0.21 0.108 -0.133 Q 0.108 -0.013000000000000001 0.162 -0.011 Q 0.218 -0.011 0.278 -0.128 Q 0.317 -0.202 0.34800000000000003 -0.331 Z"/></g></g></g><path fill="rgb(102,0,204)" stroke="none" paint-order="stroke fill markers" fill-rule="evenodd" d=" M 150.13364161459393 331.1038242586806 L 150.13364161459393 352.3170276942756 L 171.34684505019035 352.31702769427704 L 171.34684505018893 331.1038242586806 L 150.13364161459393 331.1038242586806" fill-opacity="0.09803921568627451"/><path fill="none" stroke="rgb(102,0,204)" paint-order="fill stroke markers" d=" M 150.13364161459393 331.1038242586806 L 150.13364161459393 352.3170276942756 L 171.34684505019035 352.31702769427704 L 171.34684505018893 331.1038242586806 L 150.13364161459393 331.1038242586806" stroke-opacity="0.6980392156862745" stroke-linecap="round" stroke-linejoin="round" stroke-miterlimit="10" stroke-width="2.5"/><path fill="rgb(0,100,0)" stroke="none" paint-order="stroke fill markers" fill-rule="evenodd" d=" M 342.3687759020364 138.86868997123813 L 321.1555724664414 138.86868997123813 L 321.15557246644 160.08189340683455 L 342.3687759020364 160.08189340683313 L 342.3687759020364 138.86868997123813" fill-opacity="0.09803921568627451"/><path fill="none" stroke="rgb(0,100,0)" paint-order="fill stroke markers" d=" M 342.3687759020364 138.86868997123813 L 321.1555724664414 138.86868997123813 L 321.15557246644 160.08189340683455 L 342.3687759020364 160.08189340683313 L 342.3687759020364 138.86868997123813" stroke-opacity="0.6980392156862745" stroke-linecap="round" stroke-linejoin="round" stroke-miterlimit="10" stroke-width="2.5"/><path fill="rgb(0,0,255)" stroke="none" paint-order="stroke fill markers" fill-rule="evenodd" d=" M 534.6039101894789 331.1038242586806 L 534.6039101894789 309.8906208230856 L 513.3907067538826 309.8906208230842 L 513.3907067538839 331.1038242586806 L 534.6039101894789 331.1038242586806" fill-opacity="0.09803921568627451"/><path fill="none" stroke="rgb(0,0,255)" paint-order="fill stroke markers" d=" M 534.6039101894789 331.1038242586806 L 534.6039101894789 309.8906208230856 L 513.3907067538826 309.8906208230842 L 513.3907067538839 331.1038242586806 L 534.6039101894789 331.1038242586806" stroke-opacity="0.6980392156862745" stroke-linecap="round" stroke-linejoin="round" stroke-miterlimit="10" stroke-width="2.5"/><path fill="none" stroke="rgb(0,0,0)" paint-order="fill stroke markers" d=" M 38.47260016071709 635 L 678.4726001607171 -5" stroke-opacity="0.09803921568627451" stroke-linecap="round" stroke-linejoin="round" stroke-miterlimit="10" stroke-width="2.5"/><path fill="none" stroke="rgb(0,0,0)" paint-order="fill stroke markers" d=" M 646.2649516433557 635 L 6.264951643355801 -5" stroke-opacity="0.09803921568627451" stroke-linecap="round" stroke-linejoin="round" stroke-miterlimit="10" stroke-width="2.5"/><path fill="none" stroke="rgb(0,100,0)" paint-order="fill stroke markers" d=" M 231.38176937347762 138.8686899712381 L 342.3687759020364 138.86868997123813" stroke-opacity="0.6980392156862745" stroke-linecap="round" stroke-linejoin="round" stroke-miterlimit="10" stroke-width="2.5"/><path fill="none" stroke="rgb(0,100,0)" paint-order="fill stroke markers" d=" M 284.375272637757 132.8686899712381 L 284.375272637757 144.8686899712381" stroke-opacity="0.6980392156862745" stroke-linecap="round" stroke-linejoin="round" stroke-miterlimit="10" stroke-width="2.5"/><path fill="none" stroke="rgb(0,100,0)" paint-order="fill stroke markers" d=" M 289.375272637757 132.8686899712381 L 289.375272637757 144.8686899712381" stroke-opacity="0.6980392156862745" stroke-linecap="round" stroke-linejoin="round" stroke-miterlimit="10" stroke-width="2.5"/><path fill="none" stroke="rgb(0,0,255)" paint-order="fill stroke markers" d=" M 534.6039101894789 220.11681773012182 L 534.6039101894789 331.1038242586806" stroke-opacity="0.6980392156862745" stroke-linecap="round" stroke-linejoin="round" stroke-miterlimit="10" stroke-width="2.5"/><path fill="none" stroke="rgb(0,0,255)" paint-order="fill stroke markers" d=" M 540.6039101894789 273.1103209944012 L 528.6039101894789 273.1103209944012" stroke-opacity="0.6980392156862745" stroke-linecap="round" stroke-linejoin="round" stroke-miterlimit="10" stroke-width="2.5"/><path fill="none" stroke="rgb(0,0,255)" paint-order="fill stroke markers" d=" M 540.6039101894789 278.1103209944012 L 528.6039101894789 278.1103209944012" stroke-opacity="0.6980392156862745" stroke-linecap="round" stroke-linejoin="round" stroke-miterlimit="10" stroke-width="2.5"/><path fill="none" stroke="rgb(102,0,204)" paint-order="fill stroke markers" d=" M 150.1336416145939 442.0908307872394 L 150.13364161459393 331.1038242586806" stroke-opacity="0.6980392156862745" stroke-linecap="round" stroke-linejoin="round" stroke-miterlimit="10" stroke-width="2.5"/><path fill="none" stroke="rgb(102,0,204)" paint-order="fill stroke markers" d=" M 144.1336416145939 389.09732752296 L 156.1336416145939 389.09732752296" stroke-opacity="0.6980392156862745" stroke-linecap="round" stroke-linejoin="round" stroke-miterlimit="10" stroke-width="2.5"/><path fill="none" stroke="rgb(102,0,204)" paint-order="fill stroke markers" d=" M 144.1336416145939 384.09732752296 L 156.1336416145939 384.09732752296" stroke-opacity="0.6980392156862745" stroke-linecap="round" stroke-linejoin="round" stroke-miterlimit="10" stroke-width="2.5"/><path fill="none" stroke="rgb(0,0,255)" paint-order="fill stroke markers" d=" M 342.3687759020364 331.1038242586806 L 525.342788959154 331.1038242586806" stroke-opacity="0.6980392156862745" stroke-linecap="round" stroke-linejoin="round" stroke-miterlimit="10" stroke-width="6.5"/><path fill="rgb(0,0,255)" stroke="none" paint-order="stroke fill markers" fill-rule="evenodd" d=" M 564.342788959154 331.1038242586806 L 525.342788959154 340.8538242586806 L 525.342788959154 321.3538242586806 Z" fill-opacity="0.6980392156862745"/><path fill="none" stroke="rgb(0,0,255)" paint-order="fill stroke markers" d=" M 342.3687759020364 331.1038242586806 L 500.82891944188583 239.61681773012182" stroke-opacity="0.6980392156862745" stroke-linecap="round" stroke-linejoin="round" stroke-miterlimit="10" stroke-width="6.5"/><path fill="rgb(0,0,255)" stroke="none" paint-order="stroke fill markers" fill-rule="evenodd" d=" M 534.6039101894789 220.11681773012182 L 505.70391944188583 248.0605654170201 L 495.95391944188583 231.17307004322356 Z" fill-opacity="0.6980392156862745"/><path fill="none" stroke="rgb(0,100,0)" paint-order="fill stroke markers" d=" M 342.3687759020364 331.1038242586806 L 342.3687759020364 148.12981120156303" stroke-opacity="0.6980392156862745" stroke-linecap="round" stroke-linejoin="round" stroke-miterlimit="10" stroke-width="6.5"/><path fill="rgb(0,100,0)" stroke="none" paint-order="stroke fill markers" fill-rule="evenodd" d=" M 342.3687759020364 109.12981120156303 L 352.1187759020364 148.12981120156303 L 332.6187759020364 148.12981120156303 Z" fill-opacity="0.6980392156862745"/><path fill="none" stroke="rgb(0,100,0)" paint-order="fill stroke markers" d=" M 342.3687759020364 331.1038242586806 L 250.88176937347762 172.6436807188312" stroke-opacity="0.6980392156862745" stroke-linecap="round" stroke-linejoin="round" stroke-miterlimit="10" stroke-width="6.5"/><path fill="rgb(0,100,0)" stroke="none" paint-order="stroke fill markers" fill-rule="evenodd" d=" M 231.38176937347762 138.8686899712381 L 259.3255170603759 167.7686807188312 L 242.43802168657936 177.5186807188312 Z" fill-opacity="0.6980392156862745"/><path fill="none" stroke="rgb(102,0,204)" paint-order="fill stroke markers" d=" M 342.3687759020364 331.1038242586806 L 159.39476284491883 331.1038242586806" stroke-opacity="0.6980392156862745" stroke-linecap="round" stroke-linejoin="round" stroke-miterlimit="10" stroke-width="6.5"/><path fill="rgb(102,0,204)" stroke="none" paint-order="stroke fill markers" fill-rule="evenodd" d=" M 120.39476284491883 331.1038242586806 L 159.39476284491883 321.3538242586806 L 159.39476284491883 340.8538242586806 Z" fill-opacity="0.6980392156862745"/><path fill="none" stroke="rgb(102,0,204)" paint-order="fill stroke markers" d=" M 342.3687759020364 331.1038242586806 L 183.908632362187 422.5908307872394" stroke-opacity="0.6980392156862745" stroke-linecap="round" stroke-linejoin="round" stroke-miterlimit="10" stroke-width="6.5"/><path fill="rgb(102,0,204)" stroke="none" paint-order="stroke fill markers" fill-rule="evenodd" d=" M 150.1336416145939 442.0908307872394 L 179.033632362187 414.1470831003411 L 188.783632362187 431.0345784741377 Z" fill-opacity="0.6980392156862745"/><path fill="rgb(102,153,0)" stroke="none" paint-order="stroke fill markers" d=" M 349.3687759020364 109.12981120156303 C 349.3687759020364 112.99580445037859 346.23476915085195 116.12981120156303 342.3687759020364 116.12981120156303 C 338.5027826532209 116.12981120156303 335.3687759020364 112.99580445037859 335.3687759020364 109.12981120156303 C 335.3687759020364 105.26381795274747 338.5027826532209 102.12981120156303 342.3687759020364 102.12981120156303 C 346.23476915085195 102.12981120156303 349.3687759020364 105.26381795274747 349.3687759020364 109.12981120156303 Z" fill-opacity="1"/><path fill="none" stroke="rgb(0,0,0)" paint-order="fill stroke markers" d=" M 349.3687759020364 109.12981120156303 C 349.3687759020364 112.99580445037859 346.23476915085195 116.12981120156303 342.3687759020364 116.12981120156303 C 338.5027826532209 116.12981120156303 335.3687759020364 112.99580445037859 335.3687759020364 109.12981120156303 C 335.3687759020364 105.26381795274747 338.5027826532209 102.12981120156303 342.3687759020364 102.12981120156303 C 346.23476915085195 102.12981120156303 349.3687759020364 105.26381795274747 349.3687759020364 109.12981120156303 Z" stroke-opacity="1" stroke-linecap="round" stroke-linejoin="round" stroke-miterlimit="10"/><path fill="rgb(125,125,255)" stroke="none" paint-order="stroke fill markers" d=" M 571.342788959154 331.1038242586806 C 571.342788959154 334.96981750749615 568.2087822079695 338.1038242586806 564.342788959154 338.1038242586806 C 560.4767957103384 338.1038242586806 557.342788959154 334.96981750749615 557.342788959154 331.1038242586806 C 557.342788959154 327.2378310098651 560.4767957103384 324.1038242586806 564.342788959154 324.1038242586806 C 568.2087822079695 324.1038242586806 571.342788959154 327.2378310098651 571.342788959154 331.1038242586806 Z" fill-opacity="1"/><path fill="none" stroke="rgb(0,0,0)" paint-order="fill stroke markers" d=" M 571.342788959154 331.1038242586806 C 571.342788959154 334.96981750749615 568.2087822079695 338.1038242586806 564.342788959154 338.1038242586806 C 560.4767957103384 338.1038242586806 557.342788959154 334.96981750749615 557.342788959154 331.1038242586806 C 557.342788959154 327.2378310098651 560.4767957103384 324.1038242586806 564.342788959154 324.1038242586806 C 568.2087822079695 324.1038242586806 571.342788959154 327.2378310098651 571.342788959154 331.1038242586806 Z" stroke-opacity="1" stroke-linecap="round" stroke-linejoin="round" stroke-miterlimit="10"/><path fill="rgb(0,0,255)" stroke="none" paint-order="stroke fill markers" d=" M 541.6039101894789 220.11681773012185 C 541.6039101894789 223.9828109789374 538.4699034382945 227.11681773012185 534.6039101894789 227.11681773012185 C 530.7379169406634 227.11681773012185 527.6039101894789 223.9828109789374 527.6039101894789 220.11681773012185 C 527.6039101894789 216.2508244813063 530.7379169406634 213.11681773012185 534.6039101894789 213.11681773012185 C 538.4699034382945 213.11681773012185 541.6039101894789 216.2508244813063 541.6039101894789 220.11681773012185 Z" fill-opacity="1"/><path fill="none" stroke="rgb(0,0,0)" paint-order="fill stroke markers" d=" M 541.6039101894789 220.11681773012185 C 541.6039101894789 223.9828109789374 538.4699034382945 227.11681773012185 534.6039101894789 227.11681773012185 C 530.7379169406634 227.11681773012185 527.6039101894789 223.9828109789374 527.6039101894789 220.11681773012185 C 527.6039101894789 216.2508244813063 530.7379169406634 213.11681773012185 534.6039101894789 213.11681773012185 C 538.4699034382945 213.11681773012185 541.6039101894789 216.2508244813063 541.6039101894789 220.11681773012185 Z" stroke-opacity="1" stroke-linecap="round" stroke-linejoin="round" stroke-miterlimit="10"/><path fill="rgb(0,0,0)" stroke="none" paint-order="stroke fill markers" d=" M 506.3281057819155 174.1444943788015 C 506.3281057819155 178.01048762761707 503.194099030731 181.1444943788015 499.3281057819155 181.1444943788015 C 495.46211253309997 181.1444943788015 492.3281057819155 178.01048762761707 492.3281057819155 174.1444943788015 C 492.3281057819155 170.27850112998595 495.46211253309997 167.1444943788015 499.3281057819155 167.1444943788015 C 503.194099030731 167.1444943788015 506.3281057819155 170.27850112998595 506.3281057819155 174.1444943788015 Z" fill-opacity="1"/><path fill="none" stroke="rgb(0,0,0)" paint-order="fill stroke markers" d=" M 506.3281057819155 174.1444943788015 C 506.3281057819155 178.01048762761707 503.194099030731 181.1444943788015 499.3281057819155 181.1444943788015 C 495.46211253309997 181.1444943788015 492.3281057819155 178.01048762761707 492.3281057819155 174.1444943788015 C 492.3281057819155 170.27850112998595 495.46211253309997 167.1444943788015 499.3281057819155 167.1444943788015 C 503.194099030731 167.1444943788015 506.3281057819155 170.27850112998595 506.3281057819155 174.1444943788015 Z" stroke-opacity="1" stroke-linecap="round" stroke-linejoin="round" stroke-miterlimit="10"/><path fill="rgb(0,0,0)" stroke="none" paint-order="stroke fill markers" d=" M 460.35578243059524 138.86868997123813 C 460.35578243059524 142.73468322005368 457.22177567941077 145.86868997123813 453.35578243059524 145.86868997123813 C 449.4897891817797 145.86868997123813 446.35578243059524 142.73468322005368 446.35578243059524 138.86868997123813 C 446.35578243059524 135.00269672242257 449.4897891817797 131.86868997123813 453.35578243059524 131.86868997123813 C 457.22177567941077 131.86868997123813 460.35578243059524 135.00269672242257 460.35578243059524 138.86868997123813 Z" fill-opacity="1"/><path fill="none" stroke="rgb(0,0,0)" paint-order="fill stroke markers" d=" M 460.35578243059524 138.86868997123813 C 460.35578243059524 142.73468322005368 457.22177567941077 145.86868997123813 453.35578243059524 145.86868997123813 C 449.4897891817797 145.86868997123813 446.35578243059524 142.73468322005368 446.35578243059524 138.86868997123813 C 446.35578243059524 135.00269672242257 449.4897891817797 131.86868997123813 453.35578243059524 131.86868997123813 C 457.22177567941077 131.86868997123813 460.35578243059524 135.00269672242257 460.35578243059524 138.86868997123813 Z" stroke-opacity="1" stroke-linecap="round" stroke-linejoin="round" stroke-miterlimit="10"/><path fill="rgb(102,153,0)" stroke="none" paint-order="stroke fill markers" d=" M 238.3817693734776 138.86868997123813 C 238.3817693734776 142.73468322005368 235.24776262229315 145.86868997123813 231.3817693734776 145.86868997123813 C 227.51577612466204 145.86868997123813 224.3817693734776 142.73468322005368 224.3817693734776 138.86868997123813 C 224.3817693734776 135.00269672242257 227.51577612466204 131.86868997123813 231.3817693734776 131.86868997123813 C 235.24776262229315 131.86868997123813 238.3817693734776 135.00269672242257 238.3817693734776 138.86868997123813 Z" fill-opacity="1"/><path fill="none" stroke="rgb(0,0,0)" paint-order="fill stroke markers" d=" M 238.3817693734776 138.86868997123813 C 238.3817693734776 142.73468322005368 235.24776262229315 145.86868997123813 231.3817693734776 145.86868997123813 C 227.51577612466204 145.86868997123813 224.3817693734776 142.73468322005368 224.3817693734776 138.86868997123813 C 224.3817693734776 135.00269672242257 227.51577612466204 131.86868997123813 231.3817693734776 131.86868997123813 C 235.24776262229315 131.86868997123813 238.3817693734776 135.00269672242257 238.3817693734776 138.86868997123813 Z" stroke-opacity="1" stroke-linecap="round" stroke-linejoin="round" stroke-miterlimit="10"/><path fill="rgb(0,0,0)" stroke="none" paint-order="stroke fill markers" d=" M 192.4094460221573 174.1444943788015 C 192.4094460221573 178.01048762761707 189.27543927097287 181.1444943788015 185.4094460221573 181.1444943788015 C 181.54345277334176 181.1444943788015 178.4094460221573 178.01048762761707 178.4094460221573 174.1444943788015 C 178.4094460221573 170.27850112998595 181.54345277334176 167.1444943788015 185.4094460221573 167.1444943788015 C 189.27543927097287 167.1444943788015 192.4094460221573 170.27850112998595 192.4094460221573 174.1444943788015 Z" fill-opacity="1"/><path fill="none" stroke="rgb(0,0,0)" paint-order="fill stroke markers" d=" M 192.4094460221573 174.1444943788015 C 192.4094460221573 178.01048762761707 189.27543927097287 181.1444943788015 185.4094460221573 181.1444943788015 C 181.54345277334176 181.1444943788015 178.4094460221573 178.01048762761707 178.4094460221573 174.1444943788015 C 178.4094460221573 170.27850112998595 181.54345277334176 167.1444943788015 185.4094460221573 167.1444943788015 C 189.27543927097287 167.1444943788015 192.4094460221573 170.27850112998595 192.4094460221573 174.1444943788015 Z" stroke-opacity="1" stroke-linecap="round" stroke-linejoin="round" stroke-miterlimit="10"/><path fill="rgb(0,0,0)" stroke="none" paint-order="stroke fill markers" d=" M 157.1336416145939 220.11681773012185 C 157.1336416145939 223.9828109789374 153.99963486340945 227.11681773012185 150.1336416145939 227.11681773012185 C 146.26764836577834 227.11681773012185 143.1336416145939 223.9828109789374 143.1336416145939 220.11681773012185 C 143.1336416145939 216.2508244813063 146.26764836577834 213.11681773012185 150.1336416145939 213.11681773012185 C 153.99963486340945 213.11681773012185 157.1336416145939 216.2508244813063 157.1336416145939 220.11681773012185 Z" fill-opacity="1"/><path fill="none" stroke="rgb(0,0,0)" paint-order="fill stroke markers" d=" M 157.1336416145939 220.11681773012185 C 157.1336416145939 223.9828109789374 153.99963486340945 227.11681773012185 150.1336416145939 227.11681773012185 C 146.26764836577834 227.11681773012185 143.1336416145939 223.9828109789374 143.1336416145939 220.11681773012185 C 143.1336416145939 216.2508244813063 146.26764836577834 213.11681773012185 150.1336416145939 213.11681773012185 C 153.99963486340945 213.11681773012185 157.1336416145939 216.2508244813063 157.1336416145939 220.11681773012185 Z" stroke-opacity="1" stroke-linecap="round" stroke-linejoin="round" stroke-miterlimit="10"/><path fill="rgb(0,0,0)" stroke="none" paint-order="stroke fill markers" d=" M 127.39476284491883 331.1038242586806 C 127.39476284491883 334.96981750749615 124.26075609373439 338.1038242586806 120.39476284491883 338.1038242586806 C 116.52876959610327 338.1038242586806 113.39476284491883 334.96981750749615 113.39476284491883 331.1038242586806 C 113.39476284491883 327.2378310098651 116.52876959610327 324.1038242586806 120.39476284491883 324.1038242586806 C 124.26075609373439 324.1038242586806 127.39476284491883 327.2378310098651 127.39476284491883 331.1038242586806 Z" fill-opacity="1"/><path fill="none" stroke="rgb(0,0,0)" paint-order="fill stroke markers" d=" M 127.39476284491883 331.1038242586806 C 127.39476284491883 334.96981750749615 124.26075609373439 338.1038242586806 120.39476284491883 338.1038242586806 C 116.52876959610327 338.1038242586806 113.39476284491883 334.96981750749615 113.39476284491883 331.1038242586806 C 113.39476284491883 327.2378310098651 116.52876959610327 324.1038242586806 120.39476284491883 324.1038242586806 C 124.26075609373439 324.1038242586806 127.39476284491883 327.2378310098651 127.39476284491883 331.1038242586806 Z" stroke-opacity="1" stroke-linecap="round" stroke-linejoin="round" stroke-miterlimit="10"/><path fill="rgb(0,0,0)" stroke="none" paint-order="stroke fill markers" d=" M 157.1336416145939 442.0908307872394 C 157.1336416145939 445.9568240360549 153.99963486340945 449.0908307872394 150.1336416145939 449.0908307872394 C 146.26764836577834 449.0908307872394 143.1336416145939 445.9568240360549 143.1336416145939 442.0908307872394 C 143.1336416145939 438.22483753842386 146.26764836577834 435.0908307872394 150.1336416145939 435.0908307872394 C 153.99963486340945 435.0908307872394 157.1336416145939 438.22483753842386 157.1336416145939 442.0908307872394 Z" fill-opacity="1"/><path fill="none" stroke="rgb(0,0,0)" paint-order="fill stroke markers" d=" M 157.1336416145939 442.0908307872394 C 157.1336416145939 445.9568240360549 153.99963486340945 449.0908307872394 150.1336416145939 449.0908307872394 C 146.26764836577834 449.0908307872394 143.1336416145939 445.9568240360549 143.1336416145939 442.0908307872394 C 143.1336416145939 438.22483753842386 146.26764836577834 435.0908307872394 150.1336416145939 435.0908307872394 C 153.99963486340945 435.0908307872394 157.1336416145939 438.22483753842386 157.1336416145939 442.0908307872394 Z" stroke-opacity="1" stroke-linecap="round" stroke-linejoin="round" stroke-miterlimit="10"/><path fill="rgb(0,0,0)" stroke="none" paint-order="stroke fill markers" d=" M 192.4094460221573 488.06315413855975 C 192.4094460221573 491.9291473873753 189.27543927097287 495.06315413855975 185.4094460221573 495.06315413855975 C 181.54345277334176 495.06315413855975 178.4094460221573 491.9291473873753 178.4094460221573 488.06315413855975 C 178.4094460221573 484.1971608897442 181.54345277334176 481.06315413855975 185.4094460221573 481.06315413855975 C 189.27543927097287 481.06315413855975 192.4094460221573 484.1971608897442 192.4094460221573 488.06315413855975 Z" fill-opacity="1"/><path fill="none" stroke="rgb(0,0,0)" paint-order="fill stroke markers" d=" M 192.4094460221573 488.06315413855975 C 192.4094460221573 491.9291473873753 189.27543927097287 495.06315413855975 185.4094460221573 495.06315413855975 C 181.54345277334176 495.06315413855975 178.4094460221573 491.9291473873753 178.4094460221573 488.06315413855975 C 178.4094460221573 484.1971608897442 181.54345277334176 481.06315413855975 185.4094460221573 481.06315413855975 C 189.27543927097287 481.06315413855975 192.4094460221573 484.1971608897442 192.4094460221573 488.06315413855975 Z" stroke-opacity="1" stroke-linecap="round" stroke-linejoin="round" stroke-miterlimit="10"/><path fill="rgb(0,0,0)" stroke="none" paint-order="stroke fill markers" d=" M 238.3817693734776 523.3389585461231 C 238.3817693734776 527.2049517949387 235.24776262229315 530.3389585461231 231.3817693734776 530.3389585461231 C 227.51577612466204 530.3389585461231 224.3817693734776 527.2049517949387 224.3817693734776 523.3389585461231 C 224.3817693734776 519.4729652973075 227.51577612466204 516.3389585461231 231.3817693734776 516.3389585461231 C 235.24776262229315 516.3389585461231 238.3817693734776 519.4729652973075 238.3817693734776 523.3389585461231 Z" fill-opacity="1"/><path fill="none" stroke="rgb(0,0,0)" paint-order="fill stroke markers" d=" M 238.3817693734776 523.3389585461231 C 238.3817693734776 527.2049517949387 235.24776262229315 530.3389585461231 231.3817693734776 530.3389585461231 C 227.51577612466204 530.3389585461231 224.3817693734776 527.2049517949387 224.3817693734776 523.3389585461231 C 224.3817693734776 519.4729652973075 227.51577612466204 516.3389585461231 231.3817693734776 516.3389585461231 C 235.24776262229315 516.3389585461231 238.3817693734776 519.4729652973075 238.3817693734776 523.3389585461231 Z" stroke-opacity="1" stroke-linecap="round" stroke-linejoin="round" stroke-miterlimit="10"/><path fill="rgb(0,0,0)" stroke="none" paint-order="stroke fill markers" d=" M 349.3687759020364 553.0778373157982 C 349.3687759020364 556.9438305646138 346.23476915085195 560.0778373157982 342.3687759020364 560.0778373157982 C 338.5027826532209 560.0778373157982 335.3687759020364 556.9438305646138 335.3687759020364 553.0778373157982 C 335.3687759020364 549.2118440669826 338.5027826532209 546.0778373157982 342.3687759020364 546.0778373157982 C 346.23476915085195 546.0778373157982 349.3687759020364 549.2118440669826 349.3687759020364 553.0778373157982 Z" fill-opacity="1"/><path fill="none" stroke="rgb(0,0,0)" paint-order="fill stroke markers" d=" M 349.3687759020364 553.0778373157982 C 349.3687759020364 556.9438305646138 346.23476915085195 560.0778373157982 342.3687759020364 560.0778373157982 C 338.5027826532209 560.0778373157982 335.3687759020364 556.9438305646138 335.3687759020364 553.0778373157982 C 335.3687759020364 549.2118440669826 338.5027826532209 546.0778373157982 342.3687759020364 546.0778373157982 C 346.23476915085195 546.0778373157982 349.3687759020364 549.2118440669826 349.3687759020364 553.0778373157982 Z" stroke-opacity="1" stroke-linecap="round" stroke-linejoin="round" stroke-miterlimit="10"/><path fill="rgb(0,0,0)" stroke="none" paint-order="stroke fill markers" d=" M 460.35578243059524 523.3389585461231 C 460.35578243059524 527.2049517949387 457.22177567941077 530.3389585461231 453.35578243059524 530.3389585461231 C 449.4897891817797 530.3389585461231 446.35578243059524 527.2049517949387 446.35578243059524 523.3389585461231 C 446.35578243059524 519.4729652973075 449.4897891817797 516.3389585461231 453.35578243059524 516.3389585461231 C 457.22177567941077 516.3389585461231 460.35578243059524 519.4729652973075 460.35578243059524 523.3389585461231 Z" fill-opacity="1"/><path fill="none" stroke="rgb(0,0,0)" paint-order="fill stroke markers" d=" M 460.35578243059524 523.3389585461231 C 460.35578243059524 527.2049517949387 457.22177567941077 530.3389585461231 453.35578243059524 530.3389585461231 C 449.4897891817797 530.3389585461231 446.35578243059524 527.2049517949387 446.35578243059524 523.3389585461231 C 446.35578243059524 519.4729652973075 449.4897891817797 516.3389585461231 453.35578243059524 516.3389585461231 C 457.22177567941077 516.3389585461231 460.35578243059524 519.4729652973075 460.35578243059524 523.3389585461231 Z" stroke-opacity="1" stroke-linecap="round" stroke-linejoin="round" stroke-miterlimit="10"/><path fill="rgb(68,68,68)" stroke="none" paint-order="stroke fill markers" d=" M 506.3281057819155 488.06315413855975 C 506.3281057819155 491.9291473873753 503.194099030731 495.06315413855975 499.3281057819155 495.06315413855975 C 495.46211253309997 495.06315413855975 492.3281057819155 491.9291473873753 492.3281057819155 488.06315413855975 C 492.3281057819155 484.1971608897442 495.46211253309997 481.06315413855975 499.3281057819155 481.06315413855975 C 503.194099030731 481.06315413855975 506.3281057819155 484.1971608897442 506.3281057819155 488.06315413855975 Z" fill-opacity="1"/><path fill="none" stroke="rgb(0,0,0)" paint-order="fill stroke markers" d=" M 506.3281057819155 488.06315413855975 C 506.3281057819155 491.9291473873753 503.194099030731 495.06315413855975 499.3281057819155 495.06315413855975 C 495.46211253309997 495.06315413855975 492.3281057819155 491.9291473873753 492.3281057819155 488.06315413855975 C 492.3281057819155 484.1971608897442 495.46211253309997 481.06315413855975 499.3281057819155 481.06315413855975 C 503.194099030731 481.06315413855975 506.3281057819155 484.1971608897442 506.3281057819155 488.06315413855975 Z" stroke-opacity="1" stroke-linecap="round" stroke-linejoin="round" stroke-miterlimit="10"/><path fill="rgb(0,0,0)" stroke="none" paint-order="stroke fill markers" d=" M 541.6039101894789 442.0908307872394 C 541.6039101894789 445.9568240360549 538.4699034382945 449.0908307872394 534.6039101894789 449.0908307872394 C 530.7379169406634 449.0908307872394 527.6039101894789 445.9568240360549 527.6039101894789 442.0908307872394 C 527.6039101894789 438.22483753842386 530.7379169406634 435.0908307872394 534.6039101894789 435.0908307872394 C 538.4699034382945 435.0908307872394 541.6039101894789 438.22483753842386 541.6039101894789 442.0908307872394 Z" fill-opacity="1"/><path fill="none" stroke="rgb(0,0,0)" paint-order="fill stroke markers" d=" M 541.6039101894789 442.0908307872394 C 541.6039101894789 445.9568240360549 538.4699034382945 449.0908307872394 534.6039101894789 449.0908307872394 C 530.7379169406634 449.0908307872394 527.6039101894789 445.9568240360549 527.6039101894789 442.0908307872394 C 527.6039101894789 438.22483753842386 530.7379169406634 435.0908307872394 534.6039101894789 435.0908307872394 C 538.4699034382945 435.0908307872394 541.6039101894789 438.22483753842386 541.6039101894789 442.0908307872394 Z" stroke-opacity="1" stroke-linecap="round" stroke-linejoin="round" stroke-miterlimit="10"/><g transform="scale(19,19)"><g transform="translate(18.31578947368421,4.577105263157895) scale(2.5,2.5)"><g transform="translate(0,0)"><path fill="rgb(0,0,0)" stroke="none" paint-order="stroke fill markers" d=" M 0.391 -0.374 L 0.391 -0.374 Q 0.37 -0.418 0.301 -0.42 Q 0.22 -0.42 0.195 -0.359 Q 0.189 -0.34400000000000003 0.189 -0.33 Q 0.189 -0.291 0.23700000000000002 -0.277 L 0.23700000000000002 -0.277 L 0.23800000000000002 -0.276 Q 0.245 -0.274 0.265 -0.27 Q 0.327 -0.257 0.34800000000000003 -0.242 Q 0.357 -0.23600000000000002 0.365 -0.228 Q 0.396 -0.197 0.396 -0.155 Q 0.396 -0.10300000000000001 0.357 -0.056 Q 0.301 0.011 0.195 0.011 Q 0.10200000000000001 0.011 0.066 -0.041 Q 0.052000000000000005 -0.061 0.052000000000000005 -0.08600000000000001 Q 0.052000000000000005 -0.135 0.09 -0.149 Q 0.099 -0.152 0.108 -0.152 Q 0.14100000000000001 -0.147 0.145 -0.117 Q 0.145 -0.08600000000000001 0.11800000000000001 -0.07100000000000001 Q 0.10200000000000001 -0.061 0.082 -0.064 Q 0.105 -0.011 0.196 -0.011 Q 0.299 -0.011 0.331 -0.08600000000000001 Q 0.339 -0.105 0.339 -0.121 Q 0.339 -0.169 0.28 -0.187 L 0.28 -0.187 L 0.279 -0.187 Q 0.264 -0.191 0.23500000000000001 -0.197 Q 0.145 -0.216 0.134 -0.277 Q 0.132 -0.28600000000000003 0.132 -0.296 Q 0.132 -0.34600000000000003 0.17 -0.389 Q 0.217 -0.442 0.301 -0.442 Q 0.38 -0.442 0.41000000000000003 -0.393 Q 0.42 -0.376 0.42 -0.356 Q 0.42 -0.311 0.386 -0.302 Q 0.38 -0.3 0.374 -0.3 Q 0.34600000000000003 -0.304 0.343 -0.329 Q 0.343 -0.356 0.37 -0.369 Q 0.38 -0.374 0.391 -0.374 Z"/></g><g transform="translate(0.469,0)"><path fill="rgb(0,0,0)" stroke="none" paint-order="stroke fill markers" d=" M 0.28400000000000003 -0.625 Q 0.28400000000000003 -0.594 0.253 -0.578 Q 0.242 -0.5720000000000001 0.231 -0.5720000000000001 Q 0.201 -0.5720000000000001 0.194 -0.599 Q 0.193 -0.604 0.193 -0.608 Q 0.193 -0.636 0.221 -0.653 Q 0.234 -0.661 0.247 -0.661 Q 0.277 -0.661 0.28300000000000003 -0.634 L 0.28300000000000003 -0.633 Q 0.28400000000000003 -0.629 0.28400000000000003 -0.625 M 0.20800000000000002 -0.249 L 0.169 -0.14400000000000002 Q 0.14100000000000001 -0.063 0.14 -0.044 Q 0.14 -0.011 0.164 -0.011 Q 0.227 -0.011 0.262 -0.123 L 0.266 -0.135 Q 0.271 -0.151 0.276 -0.152 L 0.276 -0.153 L 0.281 -0.153 Q 0.293 -0.153 0.293 -0.14300000000000002 Q 0.293 -0.125 0.271 -0.079 Q 0.228 0.011 0.162 0.011 Q 0.109 0.011 0.088 -0.033 Q 0.08 -0.051000000000000004 0.08 -0.07100000000000001 Q 0.08 -0.091 0.10300000000000001 -0.151 Q 0.17300000000000001 -0.339 0.17200000000000001 -0.336 Q 0.183 -0.364 0.183 -0.388 Q 0.183 -0.42 0.158 -0.42 Q 0.10300000000000001 -0.42 0.068 -0.329 L 0.068 -0.328 Q 0.062 -0.313 0.057 -0.296 Q 0.046 -0.279 0.041 -0.278 Q 0.029 -0.278 0.029 -0.28800000000000003 Q 0.029 -0.306 0.051000000000000004 -0.35100000000000003 Q 0.094 -0.442 0.161 -0.442 Q 0.214 -0.442 0.23500000000000001 -0.397 Q 0.243 -0.38 0.243 -0.36 Q 0.243 -0.34 0.23 -0.307 Q 0.213 -0.261 0.20800000000000002 -0.249 Z"/></g><g transform="translate(0.814,0)"><path fill="rgb(0,0,0)" stroke="none" paint-order="stroke fill markers" d=" M 0.088 -0.059000000000000004 L 0.088 -0.059000000000000004 L 0.146 -0.29 Q 0.162 -0.354 0.162 -0.374 Q 0.162 -0.42 0.131 -0.42 Q 0.09 -0.42 0.064 -0.325 Q 0.061 -0.314 0.058 -0.301 Q 0.047 -0.279 0.041 -0.278 Q 0.029 -0.278 0.029 -0.28800000000000003 Q 0.029 -0.304 0.049 -0.36 L 0.049 -0.361 Q 0.049 -0.362 0.05 -0.362 L 0.05 -0.363 L 0.05 -0.364 L 0.059000000000000004 -0.385 Q 0.081 -0.425 0.10400000000000001 -0.435 Q 0.11800000000000001 -0.442 0.134 -0.442 Q 0.19 -0.442 0.215 -0.395 Q 0.224 -0.377 0.226 -0.355 Q 0.29 -0.442 0.382 -0.442 Q 0.468 -0.442 0.491 -0.376 Q 0.497 -0.358 0.497 -0.335 Q 0.497 -0.28400000000000003 0.436 -0.115 Q 0.418 -0.07100000000000001 0.418 -0.044 Q 0.418 -0.011 0.442 -0.011 Q 0.508 -0.011 0.544 -0.135 Q 0.549 -0.151 0.554 -0.152 L 0.554 -0.153 L 0.559 -0.153 Q 0.5710000000000001 -0.153 0.5710000000000001 -0.14300000000000002 Q 0.5710000000000001 -0.126 0.55 -0.08 Q 0.507 0.011 0.44 0.011 Q 0.389 0.011 0.367 -0.032 Q 0.358 -0.05 0.358 -0.07100000000000001 Q 0.358 -0.091 0.368 -0.117 Q 0.433 -0.292 0.433 -0.35000000000000003 Q 0.433 -0.42 0.379 -0.42 Q 0.289 -0.42 0.228 -0.32 Q 0.221 -0.309 0.216 -0.298 L 0.203 -0.248 Q 0.198 -0.225 0.186 -0.181 L 0.164 -0.091 Q 0.147 -0.022 0.145 -0.017 Q 0.136 0.009000000000000001 0.108 0.011 Q 0.083 0.006 0.079 -0.016 Q 0.079 -0.014 0.088 -0.059000000000000004 Z"/></g><g transform="translate(1.7469999999999999,0)"><path fill="rgb(0,0,0)" stroke="none" paint-order="stroke fill markers" d=" M 0.455 -0.5 L 0.455 -0.5 Q 0.455 -0.34700000000000003 0.377 -0.19 Q 0.307 -0.05 0.222 -0.005 Q 0.191 0.011 0.162 0.011 Q 0.08 0.011 0.052000000000000005 -0.101 Q 0.042 -0.14300000000000002 0.042 -0.194 Q 0.042 -0.35100000000000003 0.122 -0.509 Q 0.192 -0.646 0.277 -0.6900000000000001 Q 0.307 -0.705 0.335 -0.705 Q 0.422 -0.705 0.447 -0.578 Q 0.455 -0.54 0.455 -0.5 M 0.148 -0.363 L 0.148 -0.363 L 0.357 -0.363 Q 0.389 -0.495 0.389 -0.562 Q 0.389 -0.675 0.342 -0.682 Q 0.338 -0.683 0.334 -0.683 Q 0.28300000000000003 -0.683 0.225 -0.578 Q 0.187 -0.511 0.149 -0.368 Q 0.149 -0.365 0.148 -0.363 M 0.34800000000000003 -0.331 L 0.14 -0.331 Q 0.108 -0.21 0.108 -0.133 Q 0.108 -0.013000000000000001 0.162 -0.011 Q 0.218 -0.011 0.278 -0.128 Q 0.317 -0.202 0.34800000000000003 -0.331 Z"/></g></g></g><g transform="scale(19,19)"><g transform="translate(29.31578947368421,11.169473684210526) scale(1.2,1.2)"><g transform="translate(0,-1.1099999999999999)"><path fill="rgb(0,0,255)" stroke="none" paint-order="stroke fill markers" d=" M 0.22607421875 1.7587890625 L 0.22607421875 -0.0400390625 L 0.453125 -0.0400390625 L 0.453125 0.0078125 L 0.27392578125 0.0078125 L 0.27392578125 1.7109375 L 0.453125 1.7109375 L 0.453125 1.7587890625 L 0.22607421875 1.7587890625 Z"/></g><g transform="translate(0.472,0)"><path fill="rgb(0,0,255)" stroke="none" paint-order="stroke fill markers" d=" M 0.354 -0.623 L 0.354 -0.047 L 0.494 -0.047 L 0.494 0 Q 0.45 -0.003 0.295 -0.003 Q 0.14 -0.003 0.096 0 L 0.096 -0.047 L 0.23500000000000001 -0.047 L 0.23500000000000001 -0.5640000000000001 Q 0.17300000000000001 -0.544 0.105 -0.544 L 0.085 -0.544 L 0.085 -0.591 L 0.105 -0.591 Q 0.229 -0.591 0.306 -0.648 Q 0.315 -0.655 0.328 -0.655 Q 0.34600000000000003 -0.655 0.35000000000000003 -0.6485 Q 0.354 -0.642 0.354 -0.623 Z"/></g><g transform="translate(1.047,0)"><path fill="rgb(0,0,255)" stroke="none" paint-order="stroke fill markers" d=" M 0.214 -0.021 Q 0.191 0 0.159 0 Q 0.123 0 0.10200000000000001 -0.023 Q 0.081 -0.046 0.081 -0.078 Q 0.081 -0.111 0.10250000000000001 -0.1335 Q 0.124 -0.156 0.158 -0.156 Q 0.199 -0.156 0.2245 -0.1205 Q 0.25 -0.085 0.25 -0.031 Q 0.25 0.031 0.222 0.08650000000000001 Q 0.194 0.14200000000000002 0.167 0.168 Q 0.14 0.194 0.13 0.194 Q 0.124 0.194 0.11750000000000001 0.187 Q 0.111 0.18 0.111 0.17500000000000002 Q 0.111 0.169 0.126 0.156 Q 0.166 0.122 0.189 0.075 Q 0.212 0.028 0.214 -0.021 Z"/></g><g transform="translate(1.7066997152451462,-0.6765080000000001)"><path fill="rgb(0,0,255)" stroke="none" paint-order="stroke fill markers" d=" M 0.312 -0.34800000000000003 L 0.23600000000000002 -0.049 Q 0.23 -0.024 0.215 -0.009000000000000001 Q 0.195 0.008 0.17200000000000001 0.008 Q 0.152 0.008 0.138 -0.0045000000000000005 Q 0.124 -0.017 0.124 -0.037 Q 0.124 -0.05 0.14300000000000002 -0.08600000000000001 Q 0.231 -0.251 0.262 -0.34800000000000003 L 0.202 -0.34800000000000003 Q 0.117 -0.34800000000000003 0.079 -0.301 Q 0.07200000000000001 -0.293 0.0685 -0.291 Q 0.065 -0.289 0.054 -0.289 Q 0.031 -0.289 0.031 -0.303 Q 0.031 -0.311 0.0555 -0.342 Q 0.08 -0.373 0.105 -0.396 Q 0.158 -0.444 0.222 -0.444 L 0.615 -0.444 Q 0.668 -0.444 0.668 -0.405 Q 0.668 -0.383 0.648 -0.363 Q 0.633 -0.34800000000000003 0.598 -0.34800000000000003 L 0.47400000000000003 -0.34800000000000003 Q 0.468 -0.308 0.468 -0.274 Q 0.468 -0.17 0.514 -0.089 Q 0.526 -0.069 0.526 -0.056 Q 0.526 -0.032 0.504 -0.0115 Q 0.482 0.009000000000000001 0.457 0.009000000000000001 Q 0.424 0.009000000000000001 0.40750000000000003 -0.034 Q 0.391 -0.077 0.391 -0.135 Q 0.391 -0.20800000000000002 0.424 -0.34800000000000003 L 0.312 -0.34800000000000003 Z"/></g><rect fill="rgb(0,0,255)" stroke="none" x="1.7066997152451462" y="-0.2699995000000001" width="0.7190000000000001" height="0.039999"/><g transform="translate(1.7786997152451463,0.6859509999999999)"><path fill="rgb(0,0,255)" stroke="none" paint-order="stroke fill markers" d=" M 0.184 -0.342 Q 0.226 -0.418 0.304 -0.418 Q 0.399 -0.418 0.4625 -0.362 Q 0.526 -0.306 0.526 -0.20500000000000002 Q 0.526 -0.106 0.461 -0.0475 Q 0.396 0.011 0.291 0.011 Q 0.16 0.011 0.098 -0.089 Q 0.048 -0.17300000000000001 0.048 -0.317 Q 0.048 -0.40700000000000003 0.0755 -0.47550000000000003 Q 0.10300000000000001 -0.544 0.148 -0.5815 Q 0.193 -0.619 0.244 -0.637 Q 0.295 -0.655 0.34900000000000003 -0.655 Q 0.423 -0.655 0.46 -0.6185 Q 0.497 -0.582 0.497 -0.53 Q 0.497 -0.501 0.48 -0.4835 Q 0.463 -0.466 0.434 -0.466 Q 0.406 -0.466 0.389 -0.484 Q 0.372 -0.502 0.372 -0.528 Q 0.372 -0.552 0.386 -0.5690000000000001 Q 0.4 -0.586 0.426 -0.59 Q 0.4 -0.616 0.35100000000000003 -0.616 Q 0.306 -0.616 0.2685 -0.5925 Q 0.231 -0.5690000000000001 0.212 -0.533 Q 0.184 -0.47300000000000003 0.184 -0.361 L 0.184 -0.342 M 0.289 -0.032 Q 0.318 -0.032 0.338 -0.0415 Q 0.358 -0.051000000000000004 0.368 -0.0635 Q 0.378 -0.076 0.383 -0.10300000000000001 Q 0.388 -0.13 0.389 -0.149 Q 0.39 -0.168 0.39 -0.20700000000000002 Q 0.39 -0.246 0.3895 -0.2645 Q 0.389 -0.28300000000000003 0.384 -0.3105 Q 0.379 -0.338 0.3695 -0.35050000000000003 Q 0.36 -0.363 0.3415 -0.3725 Q 0.323 -0.382 0.295 -0.382 Q 0.249 -0.382 0.2175 -0.3395 Q 0.186 -0.297 0.186 -0.21 Q 0.186 -0.11900000000000001 0.202 -0.08700000000000001 Q 0.23 -0.032 0.289 -0.032 Z"/></g><g transform="translate(2.488621652712515,-1.1099999999999999)"><path fill="rgb(0,0,255)" stroke="none" paint-order="stroke fill markers" d=" M 0.01806640625 1.7587890625 L 0.01806640625 1.7109375 L 0.19677734375 1.7109375 L 0.19677734375 0.0078125 L 0.01806640625 0.0078125 L 0.01806640625 -0.0400390625 L 0.2451171875 -0.0400390625 L 0.2451171875 1.7587890625 L 0.01806640625 1.7587890625 Z"/></g></g></g><g transform="scale(19,19)"><g transform="translate(5.473684210526316,5.801052631578948) scale(1.2,1.2)"><g transform="translate(0,-1.1099999999999999)"><path fill="rgb(0,100,0)" stroke="none" paint-order="stroke fill markers" d=" M 0.22607421875 1.7587890625 L 0.22607421875 -0.0400390625 L 0.453125 -0.0400390625 L 0.453125 0.0078125 L 0.27392578125 0.0078125 L 0.27392578125 1.7109375 L 0.453125 1.7109375 L 0.453125 1.7587890625 L 0.22607421875 1.7587890625 Z"/></g><g transform="translate(0.472,0)"><path fill="rgb(0,100,0)" stroke="none" paint-order="stroke fill markers" d=" M 0.354 -0.623 L 0.354 -0.047 L 0.494 -0.047 L 0.494 0 Q 0.45 -0.003 0.295 -0.003 Q 0.14 -0.003 0.096 0 L 0.096 -0.047 L 0.23500000000000001 -0.047 L 0.23500000000000001 -0.5640000000000001 Q 0.17300000000000001 -0.544 0.105 -0.544 L 0.085 -0.544 L 0.085 -0.591 L 0.105 -0.591 Q 0.229 -0.591 0.306 -0.648 Q 0.315 -0.655 0.328 -0.655 Q 0.34600000000000003 -0.655 0.35000000000000003 -0.6485 Q 0.354 -0.642 0.354 -0.623 Z"/></g><g transform="translate(1.047,0)"><path fill="rgb(0,100,0)" stroke="none" paint-order="stroke fill markers" d=" M 0.214 -0.021 Q 0.191 0 0.159 0 Q 0.123 0 0.10200000000000001 -0.023 Q 0.081 -0.046 0.081 -0.078 Q 0.081 -0.111 0.10250000000000001 -0.1335 Q 0.124 -0.156 0.158 -0.156 Q 0.199 -0.156 0.2245 -0.1205 Q 0.25 -0.085 0.25 -0.031 Q 0.25 0.031 0.222 0.08650000000000001 Q 0.194 0.14200000000000002 0.167 0.168 Q 0.14 0.194 0.13 0.194 Q 0.124 0.194 0.11750000000000001 0.187 Q 0.111 0.18 0.111 0.17500000000000002 Q 0.111 0.169 0.126 0.156 Q 0.166 0.122 0.189 0.075 Q 0.212 0.028 0.214 -0.021 Z"/></g><g transform="translate(1.7066997152451462,-0.6765080000000001)"><path fill="rgb(0,100,0)" stroke="none" paint-order="stroke fill markers" d=" M 0.312 -0.34800000000000003 L 0.23600000000000002 -0.049 Q 0.23 -0.024 0.215 -0.009000000000000001 Q 0.195 0.008 0.17200000000000001 0.008 Q 0.152 0.008 0.138 -0.0045000000000000005 Q 0.124 -0.017 0.124 -0.037 Q 0.124 -0.05 0.14300000000000002 -0.08600000000000001 Q 0.231 -0.251 0.262 -0.34800000000000003 L 0.202 -0.34800000000000003 Q 0.117 -0.34800000000000003 0.079 -0.301 Q 0.07200000000000001 -0.293 0.0685 -0.291 Q 0.065 -0.289 0.054 -0.289 Q 0.031 -0.289 0.031 -0.303 Q 0.031 -0.311 0.0555 -0.342 Q 0.08 -0.373 0.105 -0.396 Q 0.158 -0.444 0.222 -0.444 L 0.615 -0.444 Q 0.668 -0.444 0.668 -0.405 Q 0.668 -0.383 0.648 -0.363 Q 0.633 -0.34800000000000003 0.598 -0.34800000000000003 L 0.47400000000000003 -0.34800000000000003 Q 0.468 -0.308 0.468 -0.274 Q 0.468 -0.17 0.514 -0.089 Q 0.526 -0.069 0.526 -0.056 Q 0.526 -0.032 0.504 -0.0115 Q 0.482 0.009000000000000001 0.457 0.009000000000000001 Q 0.424 0.009000000000000001 0.40750000000000003 -0.034 Q 0.391 -0.077 0.391 -0.135 Q 0.391 -0.20800000000000002 0.424 -0.34800000000000003 L 0.312 -0.34800000000000003 Z"/></g><rect fill="rgb(0,100,0)" stroke="none" x="1.7066997152451462" y="-0.2699995000000001" width="0.7190000000000001" height="0.039999"/><g transform="translate(1.7786997152451463,0.6859509999999999)"><path fill="rgb(0,100,0)" stroke="none" paint-order="stroke fill markers" d=" M 0.184 -0.342 Q 0.226 -0.418 0.304 -0.418 Q 0.399 -0.418 0.4625 -0.362 Q 0.526 -0.306 0.526 -0.20500000000000002 Q 0.526 -0.106 0.461 -0.0475 Q 0.396 0.011 0.291 0.011 Q 0.16 0.011 0.098 -0.089 Q 0.048 -0.17300000000000001 0.048 -0.317 Q 0.048 -0.40700000000000003 0.0755 -0.47550000000000003 Q 0.10300000000000001 -0.544 0.148 -0.5815 Q 0.193 -0.619 0.244 -0.637 Q 0.295 -0.655 0.34900000000000003 -0.655 Q 0.423 -0.655 0.46 -0.6185 Q 0.497 -0.582 0.497 -0.53 Q 0.497 -0.501 0.48 -0.4835 Q 0.463 -0.466 0.434 -0.466 Q 0.406 -0.466 0.389 -0.484 Q 0.372 -0.502 0.372 -0.528 Q 0.372 -0.552 0.386 -0.5690000000000001 Q 0.4 -0.586 0.426 -0.59 Q 0.4 -0.616 0.35100000000000003 -0.616 Q 0.306 -0.616 0.2685 -0.5925 Q 0.231 -0.5690000000000001 0.212 -0.533 Q 0.184 -0.47300000000000003 0.184 -0.361 L 0.184 -0.342 M 0.289 -0.032 Q 0.318 -0.032 0.338 -0.0415 Q 0.358 -0.051000000000000004 0.368 -0.0635 Q 0.378 -0.076 0.383 -0.10300000000000001 Q 0.388 -0.13 0.389 -0.149 Q 0.39 -0.168 0.39 -0.20700000000000002 Q 0.39 -0.246 0.3895 -0.2645 Q 0.389 -0.28300000000000003 0.384 -0.3105 Q 0.379 -0.338 0.3695 -0.35050000000000003 Q 0.36 -0.363 0.3415 -0.3725 Q 0.323 -0.382 0.295 -0.382 Q 0.249 -0.382 0.2175 -0.3395 Q 0.186 -0.297 0.186 -0.21 Q 0.186 -0.11900000000000001 0.202 -0.08700000000000001 Q 0.23 -0.032 0.289 -0.032 Z"/></g><g transform="translate(2.7108438749347368,0)"><path fill="rgb(0,100,0)" stroke="none" paint-order="stroke fill markers" d=" M 0.47700000000000004 -0.22 L 0.47700000000000004 0.09 Q 0.47700000000000004 0.132 0.446 0.132 Q 0.41600000000000004 0.132 0.41600000000000004 0.09 L 0.41600000000000004 -0.22 L 0.107 -0.22 Q 0.064 -0.22 0.064 -0.25 Q 0.064 -0.281 0.107 -0.281 L 0.41600000000000004 -0.281 L 0.41600000000000004 -0.591 Q 0.41600000000000004 -0.633 0.447 -0.633 Q 0.47700000000000004 -0.633 0.47700000000000004 -0.591 L 0.47700000000000004 -0.281 L 0.786 -0.281 Q 0.8290000000000001 -0.281 0.8290000000000001 -0.25 Q 0.8290000000000001 -0.22 0.786 -0.22 L 0.47700000000000004 -0.22 Z"/></g><g transform="translate(3.8899880346243276,-0.6765080000000001)"><path fill="rgb(0,100,0)" stroke="none" paint-order="stroke fill markers" d=" M 0.312 -0.34800000000000003 L 0.23600000000000002 -0.049 Q 0.23 -0.024 0.215 -0.009000000000000001 Q 0.195 0.008 0.17200000000000001 0.008 Q 0.152 0.008 0.138 -0.0045000000000000005 Q 0.124 -0.017 0.124 -0.037 Q 0.124 -0.05 0.14300000000000002 -0.08600000000000001 Q 0.231 -0.251 0.262 -0.34800000000000003 L 0.202 -0.34800000000000003 Q 0.117 -0.34800000000000003 0.079 -0.301 Q 0.07200000000000001 -0.293 0.0685 -0.291 Q 0.065 -0.289 0.054 -0.289 Q 0.031 -0.289 0.031 -0.303 Q 0.031 -0.311 0.0555 -0.342 Q 0.08 -0.373 0.105 -0.396 Q 0.158 -0.444 0.222 -0.444 L 0.615 -0.444 Q 0.668 -0.444 0.668 -0.405 Q 0.668 -0.383 0.648 -0.363 Q 0.633 -0.34800000000000003 0.598 -0.34800000000000003 L 0.47400000000000003 -0.34800000000000003 Q 0.468 -0.308 0.468 -0.274 Q 0.468 -0.17 0.514 -0.089 Q 0.526 -0.069 0.526 -0.056 Q 0.526 -0.032 0.504 -0.0115 Q 0.482 0.009000000000000001 0.457 0.009000000000000001 Q 0.424 0.009000000000000001 0.40750000000000003 -0.034 Q 0.391 -0.077 0.391 -0.135 Q 0.391 -0.20800000000000002 0.424 -0.34800000000000003 L 0.312 -0.34800000000000003 Z"/></g><rect fill="rgb(0,100,0)" stroke="none" x="3.8899880346243276" y="-0.2699995000000001" width="0.7190000000000001" height="0.039999"/><g transform="translate(3.9619880346243277,0.6859509999999999)"><path fill="rgb(0,100,0)" stroke="none" paint-order="stroke fill markers" d=" M 0.517 -0.222 L 0.486 0 L 0.057 0 L 0.057 -0.018000000000000002 Q 0.057 -0.034 0.059000000000000004 -0.0385 Q 0.061 -0.043000000000000003 0.07 -0.052000000000000005 L 0.271 -0.257 Q 0.379 -0.367 0.379 -0.465 Q 0.379 -0.525 0.34400000000000003 -0.5665 Q 0.309 -0.608 0.247 -0.608 Q 0.186 -0.608 0.14400000000000002 -0.5730000000000001 Q 0.155 -0.5700000000000001 0.166 -0.5645 Q 0.177 -0.559 0.189 -0.542 Q 0.201 -0.525 0.201 -0.501 Q 0.201 -0.466 0.1785 -0.4475 Q 0.156 -0.429 0.129 -0.429 Q 0.10400000000000001 -0.429 0.0805 -0.4465 Q 0.057 -0.464 0.057 -0.503 Q 0.057 -0.5700000000000001 0.11850000000000001 -0.6125 Q 0.18 -0.655 0.272 -0.655 Q 0.379 -0.655 0.448 -0.603 Q 0.517 -0.551 0.517 -0.466 Q 0.517 -0.431 0.507 -0.404 Q 0.497 -0.377 0.46900000000000003 -0.34750000000000003 Q 0.441 -0.318 0.417 -0.299 Q 0.393 -0.28 0.339 -0.24 Q 0.292 -0.20600000000000002 0.195 -0.125 L 0.342 -0.125 Q 0.433 -0.125 0.444 -0.131 Q 0.457 -0.138 0.47000000000000003 -0.222 L 0.517 -0.222 Z"/></g><g transform="translate(4.671909972091697,-1.1099999999999999)"><path fill="rgb(0,100,0)" stroke="none" paint-order="stroke fill markers" d=" M 0.01806640625 1.7587890625 L 0.01806640625 1.7109375 L 0.19677734375 1.7109375 L 0.19677734375 0.0078125 L 0.01806640625 0.0078125 L 0.01806640625 -0.0400390625 L 0.2451171875 -0.0400390625 L 0.2451171875 1.7587890625 L 0.01806640625 1.7587890625 Z"/></g></g></g><g transform="scale(19,19)"><g transform="translate(1.263157894736842,25.116842105263157) scale(1.2,1.2)"><g transform="translate(0,-1.1099999999999999)"><path fill="rgb(102,0,204)" stroke="none" paint-order="stroke fill markers" d=" M 0.22607421875 1.7587890625 L 0.22607421875 -0.0400390625 L 0.453125 -0.0400390625 L 0.453125 0.0078125 L 0.27392578125 0.0078125 L 0.27392578125 1.7109375 L 0.453125 1.7109375 L 0.453125 1.7587890625 L 0.22607421875 1.7587890625 Z"/></g><g transform="translate(0.472,0)"><path fill="rgb(102,0,204)" stroke="none" paint-order="stroke fill markers" d=" M 0.354 -0.623 L 0.354 -0.047 L 0.494 -0.047 L 0.494 0 Q 0.45 -0.003 0.295 -0.003 Q 0.14 -0.003 0.096 0 L 0.096 -0.047 L 0.23500000000000001 -0.047 L 0.23500000000000001 -0.5640000000000001 Q 0.17300000000000001 -0.544 0.105 -0.544 L 0.085 -0.544 L 0.085 -0.591 L 0.105 -0.591 Q 0.229 -0.591 0.306 -0.648 Q 0.315 -0.655 0.328 -0.655 Q 0.34600000000000003 -0.655 0.35000000000000003 -0.6485 Q 0.354 -0.642 0.354 -0.623 Z"/></g><g transform="translate(1.047,0)"><path fill="rgb(102,0,204)" stroke="none" paint-order="stroke fill markers" d=" M 0.214 -0.021 Q 0.191 0 0.159 0 Q 0.123 0 0.10200000000000001 -0.023 Q 0.081 -0.046 0.081 -0.078 Q 0.081 -0.111 0.10250000000000001 -0.1335 Q 0.124 -0.156 0.158 -0.156 Q 0.199 -0.156 0.2245 -0.1205 Q 0.25 -0.085 0.25 -0.031 Q 0.25 0.031 0.222 0.08650000000000001 Q 0.194 0.14200000000000002 0.167 0.168 Q 0.14 0.194 0.13 0.194 Q 0.124 0.194 0.11750000000000001 0.187 Q 0.111 0.18 0.111 0.17500000000000002 Q 0.111 0.169 0.126 0.156 Q 0.166 0.122 0.189 0.075 Q 0.212 0.028 0.214 -0.021 Z"/></g><g transform="translate(1.7066997152451462,-0.6765080000000001)"><path fill="rgb(102,0,204)" stroke="none" paint-order="stroke fill markers" d=" M 0.312 -0.34800000000000003 L 0.23600000000000002 -0.049 Q 0.23 -0.024 0.215 -0.009000000000000001 Q 0.195 0.008 0.17200000000000001 0.008 Q 0.152 0.008 0.138 -0.0045000000000000005 Q 0.124 -0.017 0.124 -0.037 Q 0.124 -0.05 0.14300000000000002 -0.08600000000000001 Q 0.231 -0.251 0.262 -0.34800000000000003 L 0.202 -0.34800000000000003 Q 0.117 -0.34800000000000003 0.079 -0.301 Q 0.07200000000000001 -0.293 0.0685 -0.291 Q 0.065 -0.289 0.054 -0.289 Q 0.031 -0.289 0.031 -0.303 Q 0.031 -0.311 0.0555 -0.342 Q 0.08 -0.373 0.105 -0.396 Q 0.158 -0.444 0.222 -0.444 L 0.615 -0.444 Q 0.668 -0.444 0.668 -0.405 Q 0.668 -0.383 0.648 -0.363 Q 0.633 -0.34800000000000003 0.598 -0.34800000000000003 L 0.47400000000000003 -0.34800000000000003 Q 0.468 -0.308 0.468 -0.274 Q 0.468 -0.17 0.514 -0.089 Q 0.526 -0.069 0.526 -0.056 Q 0.526 -0.032 0.504 -0.0115 Q 0.482 0.009000000000000001 0.457 0.009000000000000001 Q 0.424 0.009000000000000001 0.40750000000000003 -0.034 Q 0.391 -0.077 0.391 -0.135 Q 0.391 -0.20800000000000002 0.424 -0.34800000000000003 L 0.312 -0.34800000000000003 Z"/></g><rect fill="rgb(102,0,204)" stroke="none" x="1.7066997152451462" y="-0.2699995000000001" width="0.7190000000000001" height="0.039999"/><g transform="translate(1.7786997152451463,0.6859509999999999)"><path fill="rgb(102,0,204)" stroke="none" paint-order="stroke fill markers" d=" M 0.184 -0.342 Q 0.226 -0.418 0.304 -0.418 Q 0.399 -0.418 0.4625 -0.362 Q 0.526 -0.306 0.526 -0.20500000000000002 Q 0.526 -0.106 0.461 -0.0475 Q 0.396 0.011 0.291 0.011 Q 0.16 0.011 0.098 -0.089 Q 0.048 -0.17300000000000001 0.048 -0.317 Q 0.048 -0.40700000000000003 0.0755 -0.47550000000000003 Q 0.10300000000000001 -0.544 0.148 -0.5815 Q 0.193 -0.619 0.244 -0.637 Q 0.295 -0.655 0.34900000000000003 -0.655 Q 0.423 -0.655 0.46 -0.6185 Q 0.497 -0.582 0.497 -0.53 Q 0.497 -0.501 0.48 -0.4835 Q 0.463 -0.466 0.434 -0.466 Q 0.406 -0.466 0.389 -0.484 Q 0.372 -0.502 0.372 -0.528 Q 0.372 -0.552 0.386 -0.5690000000000001 Q 0.4 -0.586 0.426 -0.59 Q 0.4 -0.616 0.35100000000000003 -0.616 Q 0.306 -0.616 0.2685 -0.5925 Q 0.231 -0.5690000000000001 0.212 -0.533 Q 0.184 -0.47300000000000003 0.184 -0.361 L 0.184 -0.342 M 0.289 -0.032 Q 0.318 -0.032 0.338 -0.0415 Q 0.358 -0.051000000000000004 0.368 -0.0635 Q 0.378 -0.076 0.383 -0.10300000000000001 Q 0.388 -0.13 0.389 -0.149 Q 0.39 -0.168 0.39 -0.20700000000000002 Q 0.39 -0.246 0.3895 -0.2645 Q 0.389 -0.28300000000000003 0.384 -0.3105 Q 0.379 -0.338 0.3695 -0.35050000000000003 Q 0.36 -0.363 0.3415 -0.3725 Q 0.323 -0.382 0.295 -0.382 Q 0.249 -0.382 0.2175 -0.3395 Q 0.186 -0.297 0.186 -0.21 Q 0.186 -0.11900000000000001 0.202 -0.08700000000000001 Q 0.23 -0.032 0.289 -0.032 Z"/></g><g transform="translate(2.7108438749347368,0)"><path fill="rgb(102,0,204)" stroke="none" paint-order="stroke fill markers" d=" M 0.47700000000000004 -0.22 L 0.47700000000000004 0.09 Q 0.47700000000000004 0.132 0.446 0.132 Q 0.41600000000000004 0.132 0.41600000000000004 0.09 L 0.41600000000000004 -0.22 L 0.107 -0.22 Q 0.064 -0.22 0.064 -0.25 Q 0.064 -0.281 0.107 -0.281 L 0.41600000000000004 -0.281 L 0.41600000000000004 -0.591 Q 0.41600000000000004 -0.633 0.447 -0.633 Q 0.47700000000000004 -0.633 0.47700000000000004 -0.591 L 0.47700000000000004 -0.281 L 0.786 -0.281 Q 0.8290000000000001 -0.281 0.8290000000000001 -0.25 Q 0.8290000000000001 -0.22 0.786 -0.22 L 0.47700000000000004 -0.22 Z"/></g><g transform="translate(3.8270660971569592,0)"><path fill="rgb(102,0,204)" stroke="none" paint-order="stroke fill markers" d=" M 0.312 -0.34800000000000003 L 0.23600000000000002 -0.049 Q 0.23 -0.024 0.215 -0.009000000000000001 Q 0.195 0.008 0.17200000000000001 0.008 Q 0.152 0.008 0.138 -0.0045000000000000005 Q 0.124 -0.017 0.124 -0.037 Q 0.124 -0.05 0.14300000000000002 -0.08600000000000001 Q 0.231 -0.251 0.262 -0.34800000000000003 L 0.202 -0.34800000000000003 Q 0.117 -0.34800000000000003 0.079 -0.301 Q 0.07200000000000001 -0.293 0.0685 -0.291 Q 0.065 -0.289 0.054 -0.289 Q 0.031 -0.289 0.031 -0.303 Q 0.031 -0.311 0.0555 -0.342 Q 0.08 -0.373 0.105 -0.396 Q 0.158 -0.444 0.222 -0.444 L 0.615 -0.444 Q 0.668 -0.444 0.668 -0.405 Q 0.668 -0.383 0.648 -0.363 Q 0.633 -0.34800000000000003 0.598 -0.34800000000000003 L 0.47400000000000003 -0.34800000000000003 Q 0.468 -0.308 0.468 -0.274 Q 0.468 -0.17 0.514 -0.089 Q 0.526 -0.069 0.526 -0.056 Q 0.526 -0.032 0.504 -0.0115 Q 0.482 0.009000000000000001 0.457 0.009000000000000001 Q 0.424 0.009000000000000001 0.40750000000000003 -0.034 Q 0.391 -0.077 0.391 -0.135 Q 0.391 -0.20800000000000002 0.424 -0.34800000000000003 L 0.312 -0.34800000000000003 Z"/></g><g transform="translate(4.5460660971569595,-1.1099999999999999)"><path fill="rgb(102,0,204)" stroke="none" paint-order="stroke fill markers" d=" M 0.01806640625 1.7587890625 L 0.01806640625 1.7109375 L 0.19677734375 1.7109375 L 0.19677734375 0.0078125 L 0.01806640625 0.0078125 L 0.01806640625 -0.0400390625 L 0.2451171875 -0.0400390625 L 0.2451171875 1.7587890625 L 0.01806640625 1.7587890625 Z"/></g></g></g><g transform="scale(19,19)"><g transform="translate(30.789473684210527,18.998157894736842) scale(2.5,2.5)"><g transform="translate(0,0)"><path fill="rgb(0,0,0)" stroke="none" paint-order="stroke fill markers" d=" M 0.396 -0.38 L 0.396 -0.38 Q 0.368 -0.41600000000000004 0.31 -0.42 Q 0.245 -0.42 0.192 -0.354 Q 0.179 -0.338 0.169 -0.32 Q 0.129 -0.247 0.117 -0.148 Q 0.115 -0.132 0.115 -0.12 Q 0.115 -0.038 0.171 -0.017 Q 0.185 -0.011 0.20500000000000002 -0.011 Q 0.295 -0.011 0.367 -0.07100000000000001 Q 0.388 -0.088 0.405 -0.11 Q 0.41200000000000003 -0.12 0.418 -0.12 Q 0.427 -0.12 0.43 -0.107 Q 0.43 -0.096 0.396 -0.064 Q 0.313 0.011 0.203 0.011 Q 0.108 0.011 0.065 -0.065 Q 0.041 -0.106 0.041 -0.158 Q 0.041 -0.26 0.11900000000000001 -0.34700000000000003 Q 0.196 -0.433 0.291 -0.441 Q 0.3 -0.442 0.309 -0.442 Q 0.386 -0.442 0.41600000000000004 -0.395 Q 0.427 -0.377 0.427 -0.356 Q 0.427 -0.312 0.392 -0.296 Q 0.382 -0.292 0.371 -0.292 Q 0.341 -0.292 0.335 -0.318 Q 0.334 -0.322 0.334 -0.327 Q 0.334 -0.34900000000000003 0.352 -0.366 Q 0.366 -0.38 0.396 -0.38 Z"/></g><g transform="translate(0.433,0)"><path fill="rgb(0,0,0)" stroke="none" paint-order="stroke fill markers" d=" M 0.46900000000000003 -0.273 Q 0.46900000000000003 -0.167 0.388 -0.08 Q 0.311 0.004 0.215 0.01 Q 0.20800000000000002 0.011 0.201 0.011 Q 0.114 0.011 0.069 -0.058 Q 0.041 -0.101 0.041 -0.158 Q 0.041 -0.261 0.121 -0.34900000000000003 Q 0.197 -0.433 0.293 -0.441 Q 0.301 -0.442 0.309 -0.442 Q 0.395 -0.442 0.44 -0.375 Q 0.46900000000000003 -0.332 0.46900000000000003 -0.273 M 0.202 -0.011 L 0.202 -0.011 Q 0.261 -0.011 0.313 -0.069 Q 0.327 -0.085 0.338 -0.10300000000000001 Q 0.38 -0.17500000000000002 0.394 -0.28200000000000003 Q 0.395 -0.29 0.395 -0.298 L 0.395 -0.299 L 0.396 -0.3 L 0.396 -0.312 Q 0.396 -0.386 0.34700000000000003 -0.41100000000000003 Q 0.33 -0.42 0.308 -0.42 Q 0.247 -0.42 0.193 -0.356 Q 0.186 -0.34700000000000003 0.18 -0.338 Q 0.176 -0.333 0.17300000000000001 -0.328 Q 0.137 -0.27 0.12 -0.166 Q 0.115 -0.138 0.115 -0.12 Q 0.115 -0.037 0.17300000000000001 -0.016 Q 0.187 -0.011 0.202 -0.011 Z"/></g><g transform="translate(0.9179999999999999,0)"><path fill="rgb(0,0,0)" stroke="none" paint-order="stroke fill markers" d=" M 0.391 -0.374 L 0.391 -0.374 Q 0.37 -0.418 0.301 -0.42 Q 0.22 -0.42 0.195 -0.359 Q 0.189 -0.34400000000000003 0.189 -0.33 Q 0.189 -0.291 0.23700000000000002 -0.277 L 0.23700000000000002 -0.277 L 0.23800000000000002 -0.276 Q 0.245 -0.274 0.265 -0.27 Q 0.327 -0.257 0.34800000000000003 -0.242 Q 0.357 -0.23600000000000002 0.365 -0.228 Q 0.396 -0.197 0.396 -0.155 Q 0.396 -0.10300000000000001 0.357 -0.056 Q 0.301 0.011 0.195 0.011 Q 0.10200000000000001 0.011 0.066 -0.041 Q 0.052000000000000005 -0.061 0.052000000000000005 -0.08600000000000001 Q 0.052000000000000005 -0.135 0.09 -0.149 Q 0.099 -0.152 0.108 -0.152 Q 0.14100000000000001 -0.147 0.145 -0.117 Q 0.145 -0.08600000000000001 0.11800000000000001 -0.07100000000000001 Q 0.10200000000000001 -0.061 0.082 -0.064 Q 0.105 -0.011 0.196 -0.011 Q 0.299 -0.011 0.331 -0.08600000000000001 Q 0.339 -0.105 0.339 -0.121 Q 0.339 -0.169 0.28 -0.187 L 0.28 -0.187 L 0.279 -0.187 Q 0.264 -0.191 0.23500000000000001 -0.197 Q 0.145 -0.216 0.134 -0.277 Q 0.132 -0.28600000000000003 0.132 -0.296 Q 0.132 -0.34600000000000003 0.17 -0.389 Q 0.217 -0.442 0.301 -0.442 Q 0.38 -0.442 0.41000000000000003 -0.393 Q 0.42 -0.376 0.42 -0.356 Q 0.42 -0.311 0.386 -0.302 Q 0.38 -0.3 0.374 -0.3 Q 0.34600000000000003 -0.304 0.343 -0.329 Q 0.343 -0.356 0.37 -0.369 Q 0.38 -0.374 0.391 -0.374 Z"/></g><g transform="translate(1.72,0)"><path fill="rgb(0,0,0)" stroke="none" paint-order="stroke fill markers" d=" M 0.455 -0.5 L 0.455 -0.5 Q 0.455 -0.34700000000000003 0.377 -0.19 Q 0.307 -0.05 0.222 -0.005 Q 0.191 0.011 0.162 0.011 Q 0.08 0.011 0.052000000000000005 -0.101 Q 0.042 -0.14300000000000002 0.042 -0.194 Q 0.042 -0.35100000000000003 0.122 -0.509 Q 0.192 -0.646 0.277 -0.6900000000000001 Q 0.307 -0.705 0.335 -0.705 Q 0.422 -0.705 0.447 -0.578 Q 0.455 -0.54 0.455 -0.5 M 0.148 -0.363 L 0.148 -0.363 L 0.357 -0.363 Q 0.389 -0.495 0.389 -0.562 Q 0.389 -0.675 0.342 -0.682 Q 0.338 -0.683 0.334 -0.683 Q 0.28300000000000003 -0.683 0.225 -0.578 Q 0.187 -0.511 0.149 -0.368 Q 0.149 -0.365 0.148 -0.363 M 0.34800000000000003 -0.331 L 0.14 -0.331 Q 0.108 -0.21 0.108 -0.133 Q 0.108 -0.013000000000000001 0.162 -0.011 Q 0.218 -0.011 0.278 -0.128 Q 0.317 -0.202 0.34800000000000003 -0.331 Z"/></g></g></g></g></g></svg>