<svg version="1.1" xmlns="http://www.w3.org/2000/svg" xmlns:xlink="http://www.w3.org/1999/xlink" width="675" height="542"><defs><clipPath id="KCNytbilzvVc"><path fill="none" stroke="none" d=" M 0 0 L 675 0 L 675 542 L 0 542 L 0 0 Z"/></clipPath></defs><g transform="scale(1,1)" clip-path="url(#KCNytbilzvVc)"><g><rect fill="rgb(255,255,255)" stroke="none" x="0" y="0" width="675" height="542" fill-opacity="1"/><path fill="rgb(0,100,0)" stroke="none" paint-order="stroke fill markers" fill-rule="evenodd" d=" M 497.4999999999998 215.00000000000009 L 486.8309427225641 196.6650274935921 L 468.49597021615415 207.33408477102725 L 479.16502749359177 225.66905727743577 L 497.4999999999998 215.00000000000009" fill-opacity="0.09803921568627451"/><path fill="none" stroke="rgb(0,100,0)" paint-order="fill stroke markers" d=" M 497.4999999999998 215.00000000000009 L 486.8309427225641 196.6650274935921 L 468.49597021615415 207.33408477102725 L 479.16502749359177 225.66905727743577 L 497.4999999999998 215.00000000000009" stroke-opacity="0.6980392156862745" stroke-linecap="round" stroke-linejoin="round" stroke-miterlimit="10" stroke-width="2.5"/><text fill="rgb(0,100,0)" stroke="none" font-family="geogebra-sans-serif, sans-serif" font-size="16px" font-style="normal" font-weight="normal" text-decoration="normal" x="408" y="210" text-anchor="start" dominant-baseline="alphabetic" fill-opacity="1">α = 90°</text><text fill="none" stroke="rgb(255,255,255)" font-family="geogebra-sans-serif, sans-serif" font-size="16px" font-style="normal" font-weight="normal" text-decoration="normal" x="408" y="210" text-anchor="start" dominant-baseline="alphabetic" stroke-opacity="1" stroke-linejoin="bevel" stroke-miterlimit="10" stroke-width="3">α = 90°</text><text fill="rgb(0,100,0)" stroke="none" font-family="geogebra-sans-serif, sans-serif" font-size="16px" font-style="normal" font-weight="normal" text-decoration="normal" x="408" y="210" text-anchor="start" dominant-baseline="alphabetic" fill-opacity="1">α = 90°</text><path fill="rgb(0,100,0)" stroke="none" paint-order="stroke fill markers" fill-rule="evenodd" d=" M 497.4999999999998 215.00000000000009 L 479.1650274935918 225.66905727743577 L 489.83408477102694 244.0040297838457 L 508.16905727743546 233.33497250640806 L 497.4999999999998 215.00000000000009" fill-opacity="0.09803921568627451"/><path fill="none" stroke="rgb(0,100,0)" paint-order="fill stroke markers" d=" M 497.4999999999998 215.00000000000009 L 479.1650274935918 225.66905727743577 L 489.83408477102694 244.0040297838457 L 508.16905727743546 233.33497250640806 L 497.4999999999998 215.00000000000009" stroke-opacity="0.6980392156862745" stroke-linecap="round" stroke-linejoin="round" stroke-miterlimit="10" stroke-width="2.5"/><text fill="rgb(0,100,0)" stroke="none" font-family="geogebra-sans-serif, sans-serif" font-size="16px" font-style="normal" font-weight="normal" text-decoration="normal" x="448" y="270" text-anchor="start" dominant-baseline="alphabetic" fill-opacity="1">β = 90°</text><text fill="none" stroke="rgb(255,255,255)" font-family="geogebra-sans-serif, sans-serif" font-size="16px" font-style="normal" font-weight="normal" text-decoration="normal" x="448" y="270" text-anchor="start" dominant-baseline="alphabetic" stroke-opacity="1" stroke-linejoin="bevel" stroke-miterlimit="10" stroke-width="3">β = 90°</text><text fill="rgb(0,100,0)" stroke="none" font-family="geogebra-sans-serif, sans-serif" font-size="16px" font-style="normal" font-weight="normal" text-decoration="normal" x="448" y="270" text-anchor="start" dominant-baseline="alphabetic" fill-opacity="1">β = 90°</text><path fill="none" stroke="rgb(255,0,0)" paint-order="fill stroke markers" d=" M -5 507.4030172413795 L 680 108.80387931034471" stroke-opacity="0.6980392156862745" stroke-linecap="round" stroke-linejoin="round" stroke-miterlimit="10" stroke-width="2.5"/><g transform="scale(19,19)"><g transform="translate(2.3684210526315788,27.348684210526315) scale(2.5,2.5)"><g transform="translate(0,0)"><path fill="rgb(255,0,0)" stroke="none" paint-order="stroke fill markers" d=" M 0.331 0.24 L 0.331 0.24 Q 0.331 0.25 0.321 0.25 Q 0.309 0.25 0.268 0.209 Q 0.20600000000000002 0.147 0.165 0.062 Q 0.099 -0.074 0.099 -0.25 Q 0.099 -0.419 0.162 -0.555 Q 0.214 -0.666 0.294 -0.733 Q 0.315 -0.75 0.321 -0.75 Q 0.331 -0.75 0.331 -0.74 Q 0.331 -0.735 0.318 -0.723 Q 0.157 -0.559 0.157 -0.25 Q 0.157 0.058 0.314 0.218 Q 0.331 0.23500000000000001 0.331 0.24 Z"/></g><g transform="translate(0.389,0)"><path fill="rgb(255,0,0)" stroke="none" paint-order="stroke fill markers" d=" M 0.374 -0.605 L 0.23900000000000002 -0.065 Q 0.234 -0.047 0.234 -0.042 Q 0.234 -0.034 0.243 -0.032 L 0.243 -0.032 L 0.243 -0.032 L 0.247 -0.032 Q 0.253 -0.031 0.269 -0.031 L 0.363 -0.031 Q 0.509 -0.031 0.5750000000000001 -0.147 Q 0.592 -0.177 0.614 -0.23700000000000002 Q 0.622 -0.256 0.627 -0.257 L 0.628 -0.258 L 0.631 -0.258 Q 0.642 -0.258 0.643 -0.247 Q 0.643 -0.244 0.639 -0.233 L 0.56 -0.017 Q 0.555 -0.002 0.547 -0.001 L 0.547 -0.001 L 0.546 -0.001 Q 0.542 0 0.529 0 L 0.066 0 Q 0.041 0 0.039 -0.011 Q 0.039 -0.029 0.054 -0.031 L 0.066 -0.031 Q 0.131 -0.031 0.14400000000000002 -0.045 Q 0.15 -0.052000000000000005 0.156 -0.073 Q 0.156 -0.074 0.157 -0.078 L 0.291 -0.615 Q 0.295 -0.631 0.295 -0.634 Q 0.295 -0.646 0.279 -0.649 L 0.278 -0.649 L 0.277 -0.649 Q 0.274 -0.649 0.268 -0.65 Q 0.251 -0.652 0.23 -0.652 Q 0.20400000000000001 -0.652 0.202 -0.663 Q 0.202 -0.683 0.221 -0.683 L 0.353 -0.68 L 0.354 -0.68 L 0.501 -0.683 L 0.502 -0.683 Q 0.518 -0.683 0.518 -0.671 Q 0.518 -0.655 0.505 -0.653 Q 0.499 -0.652 0.48 -0.652 Q 0.401 -0.652 0.386 -0.635 Q 0.38 -0.628 0.374 -0.605 Z"/></g><g transform="translate(1.07,0)"><path fill="rgb(255,0,0)" stroke="none" paint-order="stroke fill markers" d=" M 0.289 -0.25 L 0.289 -0.25 Q 0.289 -0.081 0.226 0.055 Q 0.17400000000000002 0.166 0.094 0.233 Q 0.073 0.25 0.067 0.25 Q 0.057 0.25 0.057 0.24 Q 0.057 0.23500000000000001 0.07 0.223 Q 0.231 0.059000000000000004 0.231 -0.25 Q 0.231 -0.555 0.081 -0.712 L 0.076 -0.717 Q 0.057 -0.735 0.057 -0.74 Q 0.057 -0.75 0.067 -0.75 Q 0.079 -0.75 0.12 -0.709 Q 0.182 -0.647 0.223 -0.562 Q 0.289 -0.426 0.289 -0.25 Z"/></g></g></g><path fill="none" stroke="rgb(0,0,0)" paint-order="fill stroke markers" d=" M 429.99999999999983 99.00000000000003 L 564.9999999999998 331.00000000000006" stroke-opacity="0.6980392156862745" stroke-linecap="round" stroke-linejoin="round" stroke-miterlimit="10" stroke-width="2.5"/><text fill="rgb(0,0,0)" stroke="none" font-family="geogebra-sans-serif, sans-serif" font-size="16px" font-style="normal" font-weight="normal" text-decoration="normal" x="483" y="223" text-anchor="start" dominant-baseline="alphabetic" fill-opacity="1">f</text><text fill="none" stroke="rgb(255,255,255)" font-family="geogebra-sans-serif, sans-serif" font-size="16px" font-style="normal" font-weight="normal" text-decoration="normal" x="483" y="223" text-anchor="start" dominant-baseline="alphabetic" stroke-opacity="1" stroke-linejoin="bevel" stroke-miterlimit="10" stroke-width="3">f</text><text fill="rgb(0,0,0)" stroke="none" font-family="geogebra-sans-serif, sans-serif" font-size="16px" font-style="normal" font-weight="normal" text-decoration="normal" x="483" y="223" text-anchor="start" dominant-baseline="alphabetic" fill-opacity="1">f</text><path fill="none" stroke="rgb(0,0,0)" paint-order="fill stroke markers" d=" M 155.56492803508723 413.9708392899278 L 564.9999999999998 331.00000000000006" stroke-opacity="0.6980392156862745" stroke-linecap="round" stroke-linejoin="round" stroke-miterlimit="10" stroke-width="2.5"/><path fill="none" stroke="rgb(0,0,0)" paint-order="fill stroke markers" d=" M 155.56492803508723 413.9708392899278 L 429.99999999999983 99.00000000000003" stroke-opacity="0.6980392156862745" stroke-linecap="round" stroke-linejoin="round" stroke-miterlimit="10" stroke-width="2.5"/><path fill="none" stroke="rgb(0,0,0)" paint-order="fill stroke markers" d=" M 155.56492803508723 413.9708392899278 L 497.4999999999998 215.00000000000009" stroke-opacity="0.6980392156862745" stroke-linecap="round" stroke-linejoin="round" stroke-miterlimit="10" stroke-width="2.5"/><path fill="none" stroke="rgb(0,0,0)" paint-order="fill stroke markers" d=" M 323.5147989176463 309.2995062881036 L 329.55012911744063 319.6713330018243" stroke-opacity="0.6980392156862745" stroke-linecap="round" stroke-linejoin="round" stroke-miterlimit="10" stroke-width="2.5"/><path fill="none" stroke="rgb(0,0,0)" paint-order="fill stroke markers" d=" M 497.4999999999998 215.00000000000009 L 429.99999999999983 99.00000000000003" stroke-opacity="0.6980392156862745" stroke-linecap="round" stroke-linejoin="round" stroke-miterlimit="10" stroke-width="2.5"/><path fill="none" stroke="rgb(0,0,0)" paint-order="fill stroke markers" d=" M 459.8214471014299 162.1784623319224 L 470.1932738151506 156.14313213212802" stroke-opacity="0.6980392156862745" stroke-linecap="round" stroke-linejoin="round" stroke-miterlimit="10" stroke-width="2.5"/><path fill="none" stroke="rgb(0,0,0)" paint-order="fill stroke markers" d=" M 457.30672618484897 157.8568678678721 L 467.67855289856965 151.82153766807772" stroke-opacity="0.6980392156862745" stroke-linecap="round" stroke-linejoin="round" stroke-miterlimit="10" stroke-width="2.5"/><path fill="none" stroke="rgb(0,0,0)" paint-order="fill stroke markers" d=" M 497.4999999999998 215.00000000000009 L 564.9999999999998 331.00000000000006" stroke-opacity="0.6980392156862745" stroke-linecap="round" stroke-linejoin="round" stroke-miterlimit="10" stroke-width="2.5"/><path fill="none" stroke="rgb(0,0,0)" paint-order="fill stroke markers" d=" M 535.1785528985697 267.8215376680778 L 524.8067261848489 273.8568678678721" stroke-opacity="0.6980392156862745" stroke-linecap="round" stroke-linejoin="round" stroke-miterlimit="10" stroke-width="2.5"/><path fill="none" stroke="rgb(0,0,0)" paint-order="fill stroke markers" d=" M 537.6932738151506 272.143132132128 L 527.3214471014298 278.17846233192233" stroke-opacity="0.6980392156862745" stroke-linecap="round" stroke-linejoin="round" stroke-miterlimit="10" stroke-width="2.5"/><path fill="rgb(77,77,255)" stroke="none" paint-order="stroke fill markers" d=" M 434.99999999999983 99.00000000000003 C 434.99999999999983 101.76142374915399 432.7614237491538 104.00000000000003 429.99999999999983 104.00000000000003 C 427.2385762508459 104.00000000000003 424.99999999999983 101.76142374915399 424.99999999999983 99.00000000000003 C 424.99999999999983 96.23857625084607 427.2385762508459 94.00000000000003 429.99999999999983 94.00000000000003 C 432.7614237491538 94.00000000000003 434.99999999999983 96.23857625084607 434.99999999999983 99.00000000000003 Z" fill-opacity="1"/><path fill="none" stroke="rgb(0,0,0)" paint-order="fill stroke markers" d=" M 434.99999999999983 99.00000000000003 C 434.99999999999983 101.76142374915399 432.7614237491538 104.00000000000003 429.99999999999983 104.00000000000003 C 427.2385762508459 104.00000000000003 424.99999999999983 101.76142374915399 424.99999999999983 99.00000000000003 C 424.99999999999983 96.23857625084607 427.2385762508459 94.00000000000003 429.99999999999983 94.00000000000003 C 432.7614237491538 94.00000000000003 434.99999999999983 96.23857625084607 434.99999999999983 99.00000000000003 Z" stroke-opacity="1" stroke-linecap="round" stroke-linejoin="round" stroke-miterlimit="10"/><g transform="scale(19,19)"><g transform="translate(21,3.931578947368421) scale(2.5,2.5)"><g transform="translate(0.264,-0.2520000000000001)"><path fill="rgb(77,77,255)" stroke="none" paint-order="stroke fill markers" d=" M 0.4 -0.668 L 0.41600000000000004 -0.653 Q 0.363 -0.595 0.34400000000000003 -0.584 Q 0.328 -0.5750000000000001 0.308 -0.5750000000000001 Q 0.28500000000000003 -0.5750000000000001 0.246 -0.598 Q 0.20400000000000001 -0.623 0.181 -0.623 Q 0.14 -0.623 0.10200000000000001 -0.579 L 0.099 -0.5750000000000001 L 0.083 -0.59 Q 0.136 -0.648 0.155 -0.659 Q 0.171 -0.668 0.191 -0.668 Q 0.214 -0.668 0.253 -0.645 Q 0.296 -0.62 0.318 -0.62 Q 0.359 -0.62 0.397 -0.664 L 0.4 -0.668 Z"/></g><g transform="translate(0,0)"><path fill="rgb(77,77,255)" stroke="none" paint-order="stroke fill markers" d=" M 0.179 -0.115 L 0.527 -0.6990000000000001 Q 0.537 -0.715 0.553 -0.716 Q 0.5680000000000001 -0.716 0.5700000000000001 -0.706 Q 0.5710000000000001 -0.7030000000000001 0.5720000000000001 -0.6920000000000001 L 0.633 -0.067 Q 0.636 -0.042 0.645 -0.037 L 0.646 -0.037 L 0.646 -0.037 L 0.646 -0.037 L 0.646 -0.037 L 0.646 -0.036000000000000004 Q 0.658 -0.031 0.6980000000000001 -0.031 Q 0.72 -0.031 0.721 -0.02 Q 0.721 0 0.7030000000000001 0 L 0.591 -0.003 L 0.59 -0.003 L 0.466 0 L 0.465 0 Q 0.451 0 0.451 -0.011 Q 0.459 -0.03 0.47500000000000003 -0.031 Q 0.547 -0.031 0.547 -0.064 Q 0.547 -0.063 0.531 -0.231 L 0.28 -0.231 L 0.20400000000000001 -0.10300000000000001 Q 0.19 -0.078 0.19 -0.066 Q 0.19 -0.035 0.23700000000000002 -0.031 Q 0.253 -0.031 0.253 -0.019 Q 0.253 0 0.234 0 L 0.138 -0.003 L 0.134 -0.003 L 0.05 0 L 0.048 0 Q 0.035 0 0.035 -0.011 Q 0.035 -0.029 0.05 -0.03 L 0.05 -0.031 L 0.056 -0.031 Q 0.11900000000000001 -0.035 0.159 -0.085 Q 0.169 -0.098 0.179 -0.115 M 0.299 -0.262 L 0.528 -0.262 L 0.496 -0.592 L 0.299 -0.262 Z"/></g></g></g><path fill="rgb(77,77,255)" stroke="none" paint-order="stroke fill markers" d=" M 569.9999999999998 331.00000000000006 C 569.9999999999998 333.761423749154 567.7614237491538 336.00000000000006 564.9999999999998 336.00000000000006 C 562.2385762508458 336.00000000000006 559.9999999999998 333.761423749154 559.9999999999998 331.00000000000006 C 559.9999999999998 328.2385762508461 562.2385762508458 326.00000000000006 564.9999999999998 326.00000000000006 C 567.7614237491538 326.00000000000006 569.9999999999998 328.2385762508461 569.9999999999998 331.00000000000006 Z" fill-opacity="1"/><path fill="none" stroke="rgb(0,0,0)" paint-order="fill stroke markers" d=" M 569.9999999999998 331.00000000000006 C 569.9999999999998 333.761423749154 567.7614237491538 336.00000000000006 564.9999999999998 336.00000000000006 C 562.2385762508458 336.00000000000006 559.9999999999998 333.761423749154 559.9999999999998 331.00000000000006 C 559.9999999999998 328.2385762508461 562.2385762508458 326.00000000000006 564.9999999999998 326.00000000000006 C 567.7614237491538 326.00000000000006 569.9999999999998 328.2385762508461 569.9999999999998 331.00000000000006 Z" stroke-opacity="1" stroke-linecap="round" stroke-linejoin="round" stroke-miterlimit="10"/><g transform="scale(19,19)"><g transform="translate(30.105263157894736,18.970657894736842) scale(2.5,2.5)"><g transform="translate(0,0)"><path fill="rgb(77,77,255)" stroke="none" paint-order="stroke fill markers" d=" M 0.179 -0.115 L 0.527 -0.6990000000000001 Q 0.537 -0.715 0.553 -0.716 Q 0.5680000000000001 -0.716 0.5700000000000001 -0.706 Q 0.5710000000000001 -0.7030000000000001 0.5720000000000001 -0.6920000000000001 L 0.633 -0.067 Q 0.636 -0.042 0.645 -0.037 L 0.646 -0.037 L 0.646 -0.037 L 0.646 -0.037 L 0.646 -0.037 L 0.646 -0.036000000000000004 Q 0.658 -0.031 0.6980000000000001 -0.031 Q 0.72 -0.031 0.721 -0.02 Q 0.721 0 0.7030000000000001 0 L 0.591 -0.003 L 0.59 -0.003 L 0.466 0 L 0.465 0 Q 0.451 0 0.451 -0.011 Q 0.459 -0.03 0.47500000000000003 -0.031 Q 0.547 -0.031 0.547 -0.064 Q 0.547 -0.063 0.531 -0.231 L 0.28 -0.231 L 0.20400000000000001 -0.10300000000000001 Q 0.19 -0.078 0.19 -0.066 Q 0.19 -0.035 0.23700000000000002 -0.031 Q 0.253 -0.031 0.253 -0.019 Q 0.253 0 0.234 0 L 0.138 -0.003 L 0.134 -0.003 L 0.05 0 L 0.048 0 Q 0.035 0 0.035 -0.011 Q 0.035 -0.029 0.05 -0.03 L 0.05 -0.031 L 0.056 -0.031 Q 0.11900000000000001 -0.035 0.159 -0.085 Q 0.169 -0.098 0.179 -0.115 M 0.299 -0.262 L 0.528 -0.262 L 0.496 -0.592 L 0.299 -0.262 Z"/></g></g></g><path fill="rgb(125,125,255)" stroke="none" paint-order="stroke fill markers" d=" M 160.56492803508723 413.9708392899278 C 160.56492803508723 416.7322630390818 158.3263517842412 418.9708392899278 155.56492803508723 418.9708392899278 C 152.80350428593326 418.9708392899278 150.56492803508723 416.7322630390818 150.56492803508723 413.9708392899278 C 150.56492803508723 411.2094155407739 152.80350428593326 408.9708392899278 155.56492803508723 408.9708392899278 C 158.3263517842412 408.9708392899278 160.56492803508723 411.2094155407739 160.56492803508723 413.9708392899278 Z" fill-opacity="1"/><path fill="none" stroke="rgb(0,0,0)" paint-order="fill stroke markers" d=" M 160.56492803508723 413.9708392899278 C 160.56492803508723 416.7322630390818 158.3263517842412 418.9708392899278 155.56492803508723 418.9708392899278 C 152.80350428593326 418.9708392899278 150.56492803508723 416.7322630390818 150.56492803508723 413.9708392899278 C 150.56492803508723 411.2094155407739 152.80350428593326 408.9708392899278 155.56492803508723 408.9708392899278 C 158.3263517842412 408.9708392899278 160.56492803508723 411.2094155407739 160.56492803508723 413.9708392899278 Z" stroke-opacity="1" stroke-linecap="round" stroke-linejoin="round" stroke-miterlimit="10"/><g transform="scale(19,19)"><g transform="translate(7.578947368421052,24.28644736842105) scale(2.5,2.5)"><g transform="translate(0,0)"><path fill="rgb(125,125,255)" stroke="none" paint-order="stroke fill markers" d=" M 0.74 -0.436 L 0.74 -0.436 Q 0.74 -0.281 0.63 -0.149 Q 0.531 -0.029 0.398 0.009000000000000001 Q 0.35100000000000003 0.022 0.305 0.022 Q 0.18 0.022 0.108 -0.066 Q 0.049 -0.138 0.049 -0.245 Q 0.049 -0.395 0.156 -0.529 Q 0.255 -0.65 0.388 -0.6900000000000001 Q 0.437 -0.705 0.485 -0.705 Q 0.612 -0.705 0.684 -0.613 Q 0.74 -0.541 0.74 -0.436 M 0.311 -0.004 L 0.311 -0.004 Q 0.405 -0.004 0.492 -0.088 Q 0.51 -0.105 0.525 -0.124 Q 0.623 -0.246 0.646 -0.41500000000000004 Q 0.651 -0.448 0.651 -0.47500000000000003 Q 0.651 -0.612 0.559 -0.661 Q 0.558 -0.661 0.557 -0.662 Q 0.521 -0.68 0.47900000000000004 -0.68 Q 0.385 -0.68 0.297 -0.599 Q 0.261 -0.5670000000000001 0.233 -0.524 Q 0.157 -0.40900000000000003 0.14400000000000002 -0.249 Q 0.14200000000000002 -0.231 0.14200000000000002 -0.217 Q 0.14200000000000002 -0.089 0.219 -0.033 Q 0.259 -0.004 0.311 -0.004 Z"/></g></g></g><path fill="rgb(68,68,68)" stroke="none" paint-order="stroke fill markers" d=" M 501.4999999999998 215.00000000000009 C 501.4999999999998 217.20913899932327 499.70913899932293 219.00000000000009 497.4999999999998 219.00000000000009 C 495.2908610006766 219.00000000000009 493.4999999999998 217.20913899932327 493.4999999999998 215.00000000000009 C 493.4999999999998 212.7908610006769 495.2908610006766 211.00000000000009 497.4999999999998 211.00000000000009 C 499.70913899932293 211.00000000000009 501.4999999999998 212.7908610006769 501.4999999999998 215.00000000000009 Z" fill-opacity="1"/><path fill="none" stroke="rgb(0,0,0)" paint-order="fill stroke markers" d=" M 501.4999999999998 215.00000000000009 C 501.4999999999998 217.20913899932327 499.70913899932293 219.00000000000009 497.4999999999998 219.00000000000009 C 495.2908610006766 219.00000000000009 493.4999999999998 217.20913899932327 493.4999999999998 215.00000000000009 C 493.4999999999998 212.7908610006769 495.2908610006766 211.00000000000009 497.4999999999998 211.00000000000009 C 499.70913899932293 211.00000000000009 501.4999999999998 212.7908610006769 501.4999999999998 215.00000000000009 Z" stroke-opacity="1" stroke-linecap="round" stroke-linejoin="round" stroke-miterlimit="10"/><g transform="scale(19,19)"><g transform="translate(25.736842105263158,10.128552631578946) scale(2.5,2.5)"><g transform="translate(0,0)"><path fill="rgb(68,68,68)" stroke="none" paint-order="stroke fill markers" d=" M 0.16 -0.078 L 0.294 -0.615 Q 0.298 -0.631 0.298 -0.634 Q 0.298 -0.646 0.28200000000000003 -0.649 L 0.281 -0.649 L 0.28 -0.649 Q 0.277 -0.649 0.271 -0.65 Q 0.254 -0.652 0.233 -0.652 Q 0.20700000000000002 -0.652 0.20500000000000002 -0.663 Q 0.20500000000000002 -0.681 0.22 -0.683 L 0.221 -0.683 L 0.222 -0.683 L 0.234 -0.683 L 0.5700000000000001 -0.683 Q 0.685 -0.683 0.734 -0.615 Q 0.756 -0.583 0.756 -0.545 Q 0.756 -0.464 0.666 -0.404 Q 0.665 -0.404 0.664 -0.403 Q 0.611 -0.369 0.547 -0.357 Q 0.649 -0.34500000000000003 0.687 -0.277 Q 0.7020000000000001 -0.249 0.7020000000000001 -0.216 Q 0.7020000000000001 -0.14300000000000002 0.632 -0.079 L 0.631 -0.078 Q 0.545 0 0.426 0 L 0.069 0 Q 0.044 0 0.042 -0.011 Q 0.042 -0.029 0.057 -0.031 L 0.069 -0.031 Q 0.134 -0.031 0.147 -0.045 Q 0.153 -0.052000000000000005 0.159 -0.073 Q 0.159 -0.074 0.16 -0.078 M 0.311 -0.366 L 0.457 -0.366 Q 0.556 -0.366 0.62 -0.438 Q 0.665 -0.489 0.665 -0.549 Q 0.665 -0.622 0.605 -0.644 Q 0.584 -0.652 0.556 -0.652 L 0.427 -0.652 Q 0.391 -0.652 0.383 -0.642 L 0.383 -0.642 L 0.383 -0.641 L 0.382 -0.641 L 0.382 -0.64 Q 0.378 -0.634 0.373 -0.614 L 0.311 -0.366 M 0.266 -0.031 L 0.402 -0.031 Q 0.498 -0.031 0.561 -0.10300000000000001 Q 0.609 -0.159 0.609 -0.227 Q 0.609 -0.3 0.557 -0.33 Q 0.531 -0.34400000000000003 0.494 -0.34400000000000003 L 0.305 -0.34400000000000003 L 0.23600000000000002 -0.065 Q 0.231 -0.047 0.231 -0.042 Q 0.231 -0.034 0.24 -0.032 L 0.24 -0.032 L 0.24 -0.032 L 0.244 -0.032 Q 0.25 -0.031 0.266 -0.031 Z"/></g></g></g></g></g></svg>