<svg version="1.1" xmlns="http://www.w3.org/2000/svg" xmlns:xlink="http://www.w3.org/1999/xlink" width="580" height="524"><defs><clipPath id="AuAHxHKRBdKG"><path fill="none" stroke="none" d=" M 0 0 L 580 0 L 580 524 L 0 524 L 0 0 Z"/></clipPath></defs><g transform="scale(1,1)" clip-path="url(#AuAHxHKRBdKG)"><g><rect fill="rgb(255,255,255)" stroke="none" x="0" y="0" width="580" height="524" fill-opacity="1"/><path fill="none" stroke="rgb(192,192,192)" paint-order="fill stroke markers" d=" M 4.5 0.5 L 4.5 524.5 M 4.5 0.5 L 4.5 524.5 M 58.5 0.5 L 58.5 524.5 M 166.5 0.5 L 166.5 524.5 M 220.5 0.5 L 220.5 524.5 M 274.5 0.5 L 274.5 524.5 M 328.5 0.5 L 328.5 524.5 M 382.5 0.5 L 382.5 524.5 M 436.5 0.5 L 436.5 524.5 M 490.5 0.5 L 490.5 524.5 M 544.5 0.5 L 544.5 524.5" stroke-opacity="1" stroke-linecap="round" stroke-linejoin="round" stroke-miterlimit="10"/><path fill="none" stroke="rgb(192,192,192)" paint-order="fill stroke markers" d=" M 14.5 0.5 L 14.5 524.5 M 25.5 0.5 L 25.5 524.5 M 36.5 0.5 L 36.5 524.5 M 47.5 0.5 L 47.5 524.5 M 68.5 0.5 L 68.5 524.5 M 79.5 0.5 L 79.5 524.5 M 90.5 0.5 L 90.5 524.5 M 101.5 0.5 L 101.5 524.5 M 122.5 0.5 L 122.5 524.5 M 133.5 0.5 L 133.5 524.5 M 144.5 0.5 L 144.5 524.5 M 155.5 0.5 L 155.5 524.5 M 176.5 0.5 L 176.5 524.5 M 187.5 0.5 L 187.5 524.5 M 198.5 0.5 L 198.5 524.5 M 209.5 0.5 L 209.5 524.5 M 230.5 0.5 L 230.5 524.5 M 241.5 0.5 L 241.5 524.5 M 252.5 0.5 L 252.5 524.5 M 263.5 0.5 L 263.5 524.5 M 284.5 0.5 L 284.5 524.5 M 295.5 0.5 L 295.5 524.5 M 306.5 0.5 L 306.5 524.5 M 317.5 0.5 L 317.5 524.5 M 338.5 0.5 L 338.5 524.5 M 349.5 0.5 L 349.5 524.5 M 360.5 0.5 L 360.5 524.5 M 371.5 0.5 L 371.5 524.5 M 392.5 0.5 L 392.5 524.5 M 403.5 0.5 L 403.5 524.5 M 414.5 0.5 L 414.5 524.5 M 425.5 0.5 L 425.5 524.5 M 446.5 0.5 L 446.5 524.5 M 457.5 0.5 L 457.5 524.5 M 468.5 0.5 L 468.5 524.5 M 479.5 0.5 L 479.5 524.5 M 500.5 0.5 L 500.5 524.5 M 511.5 0.5 L 511.5 524.5 M 522.5 0.5 L 522.5 524.5 M 533.5 0.5 L 533.5 524.5 M 554.5 0.5 L 554.5 524.5 M 565.5 0.5 L 565.5 524.5 M 576.5 0.5 L 576.5 524.5" stroke-opacity="0.23529411764705882" stroke-linecap="round" stroke-linejoin="round" stroke-miterlimit="10"/><path fill="none" stroke="rgb(192,192,192)" paint-order="fill stroke markers" d=" M 0.5 11.5 L 580.5 11.5 M 0.5 11.5 L 580.5 11.5 M 0.5 65.5 L 580.5 65.5 M 0.5 119.5 L 580.5 119.5 M 0.5 173.5 L 580.5 173.5 M 0.5 227.5 L 580.5 227.5 M 0.5 281.5 L 580.5 281.5 M 0.5 389.5 L 580.5 389.5 M 0.5 443.5 L 580.5 443.5 M 0.5 497.5 L 580.5 497.5" stroke-opacity="1" stroke-linecap="round" stroke-linejoin="round" stroke-miterlimit="10"/><path fill="none" stroke="rgb(192,192,192)" paint-order="fill stroke markers" d=" M 0.5 0.5 L 580.5 0.5 M 0.5 0.5 L 580.5 0.5 M 0.5 22.5 L 580.5 22.5 M 0.5 33.5 L 580.5 33.5 M 0.5 44.5 L 580.5 44.5 M 0.5 54.5 L 580.5 54.5 M 0.5 76.5 L 580.5 76.5 M 0.5 87.5 L 580.5 87.5 M 0.5 98.5 L 580.5 98.5 M 0.5 108.5 L 580.5 108.5 M 0.5 130.5 L 580.5 130.5 M 0.5 141.5 L 580.5 141.5 M 0.5 152.5 L 580.5 152.5 M 0.5 162.5 L 580.5 162.5 M 0.5 184.5 L 580.5 184.5 M 0.5 195.5 L 580.5 195.5 M 0.5 206.5 L 580.5 206.5 M 0.5 216.5 L 580.5 216.5 M 0.5 238.5 L 580.5 238.5 M 0.5 249.5 L 580.5 249.5 M 0.5 260.5 L 580.5 260.5 M 0.5 270.5 L 580.5 270.5 M 0.5 292.5 L 580.5 292.5 M 0.5 303.5 L 580.5 303.5 M 0.5 314.5 L 580.5 314.5 M 0.5 324.5 L 580.5 324.5 M 0.5 346.5 L 580.5 346.5 M 0.5 357.5 L 580.5 357.5 M 0.5 367.5 L 580.5 367.5 M 0.5 378.5 L 580.5 378.5 M 0.5 400.5 L 580.5 400.5 M 0.5 411.5 L 580.5 411.5 M 0.5 421.5 L 580.5 421.5 M 0.5 432.5 L 580.5 432.5 M 0.5 454.5 L 580.5 454.5 M 0.5 465.5 L 580.5 465.5 M 0.5 475.5 L 580.5 475.5 M 0.5 486.5 L 580.5 486.5 M 0.5 508.5 L 580.5 508.5 M 0.5 519.5 L 580.5 519.5" stroke-opacity="0.23529411764705882" stroke-linecap="round" stroke-linejoin="round" stroke-miterlimit="10"/><path fill="none" stroke="rgb(0,0,0)" paint-order="fill stroke markers" d=" M 112.5 2.5 L 112.5 524.5" stroke-opacity="1" stroke-miterlimit="10"/><path fill="none" stroke="rgb(0,0,0)" paint-order="fill stroke markers" d=" M 112.5 1.5 L 108.5 5.5" stroke-opacity="1" stroke-miterlimit="10"/><path fill="none" stroke="rgb(0,0,0)" paint-order="fill stroke markers" d=" M 112.5 1.5 L 116.5 5.5" stroke-opacity="1" stroke-miterlimit="10"/><path fill="none" stroke="rgb(0,0,0)" paint-order="fill stroke markers" d=" M 0.5 335.5 L 578.5 335.5" stroke-opacity="1" stroke-miterlimit="10"/><path fill="none" stroke="rgb(0,0,0)" paint-order="fill stroke markers" d=" M 579.5 335.5 L 575.5 331.5" stroke-opacity="1" stroke-miterlimit="10"/><path fill="none" stroke="rgb(0,0,0)" paint-order="fill stroke markers" d=" M 579.5 335.5 L 575.5 339.5" stroke-opacity="1" stroke-miterlimit="10"/><text fill="rgb(0,0,0)" stroke="none" font-family="geogebra-sans-serif, sans-serif" font-size="12px" font-style="normal" font-weight="normal" text-decoration="normal" x="47" y="351" text-anchor="start" dominant-baseline="alphabetic" fill-opacity="1">–0.2</text><text fill="none" stroke="rgb(255,255,255)" font-family="geogebra-sans-serif, sans-serif" font-size="12px" font-style="normal" font-weight="normal" text-decoration="normal" x="47" y="351" text-anchor="start" dominant-baseline="alphabetic" stroke-opacity="1" stroke-linejoin="bevel" stroke-miterlimit="10" stroke-width="3">–0.2</text><text fill="rgb(0,0,0)" stroke="none" font-family="geogebra-sans-serif, sans-serif" font-size="12px" font-style="normal" font-weight="normal" text-decoration="normal" x="47" y="351" text-anchor="start" dominant-baseline="alphabetic" fill-opacity="1">–0.2</text><text fill="rgb(0,0,0)" stroke="none" font-family="geogebra-sans-serif, sans-serif" font-size="12px" font-style="normal" font-weight="normal" text-decoration="normal" x="158" y="351" text-anchor="start" dominant-baseline="alphabetic" fill-opacity="1">0.2</text><text fill="none" stroke="rgb(255,255,255)" font-family="geogebra-sans-serif, sans-serif" font-size="12px" font-style="normal" font-weight="normal" text-decoration="normal" x="158" y="351" text-anchor="start" dominant-baseline="alphabetic" stroke-opacity="1" stroke-linejoin="bevel" stroke-miterlimit="10" stroke-width="3">0.2</text><text fill="rgb(0,0,0)" stroke="none" font-family="geogebra-sans-serif, sans-serif" font-size="12px" font-style="normal" font-weight="normal" text-decoration="normal" x="158" y="351" text-anchor="start" dominant-baseline="alphabetic" fill-opacity="1">0.2</text><text fill="rgb(0,0,0)" stroke="none" font-family="geogebra-sans-serif, sans-serif" font-size="12px" font-style="normal" font-weight="normal" text-decoration="normal" x="212" y="351" text-anchor="start" dominant-baseline="alphabetic" fill-opacity="1">0.4</text><text fill="none" stroke="rgb(255,255,255)" font-family="geogebra-sans-serif, sans-serif" font-size="12px" font-style="normal" font-weight="normal" text-decoration="normal" x="212" y="351" text-anchor="start" dominant-baseline="alphabetic" stroke-opacity="1" stroke-linejoin="bevel" stroke-miterlimit="10" stroke-width="3">0.4</text><text fill="rgb(0,0,0)" stroke="none" font-family="geogebra-sans-serif, sans-serif" font-size="12px" font-style="normal" font-weight="normal" text-decoration="normal" x="212" y="351" text-anchor="start" dominant-baseline="alphabetic" fill-opacity="1">0.4</text><text fill="rgb(0,0,0)" stroke="none" font-family="geogebra-sans-serif, sans-serif" font-size="12px" font-style="normal" font-weight="normal" text-decoration="normal" x="266" y="351" text-anchor="start" dominant-baseline="alphabetic" fill-opacity="1">0.6</text><text fill="none" stroke="rgb(255,255,255)" font-family="geogebra-sans-serif, sans-serif" font-size="12px" font-style="normal" font-weight="normal" text-decoration="normal" x="266" y="351" text-anchor="start" dominant-baseline="alphabetic" stroke-opacity="1" stroke-linejoin="bevel" stroke-miterlimit="10" stroke-width="3">0.6</text><text fill="rgb(0,0,0)" stroke="none" font-family="geogebra-sans-serif, sans-serif" font-size="12px" font-style="normal" font-weight="normal" text-decoration="normal" x="266" y="351" text-anchor="start" dominant-baseline="alphabetic" fill-opacity="1">0.6</text><text fill="rgb(0,0,0)" stroke="none" font-family="geogebra-sans-serif, sans-serif" font-size="12px" font-style="normal" font-weight="normal" text-decoration="normal" x="320" y="351" text-anchor="start" dominant-baseline="alphabetic" fill-opacity="1">0.8</text><text fill="none" stroke="rgb(255,255,255)" font-family="geogebra-sans-serif, sans-serif" font-size="12px" font-style="normal" font-weight="normal" text-decoration="normal" x="320" y="351" text-anchor="start" dominant-baseline="alphabetic" stroke-opacity="1" stroke-linejoin="bevel" stroke-miterlimit="10" stroke-width="3">0.8</text><text fill="rgb(0,0,0)" stroke="none" font-family="geogebra-sans-serif, sans-serif" font-size="12px" font-style="normal" font-weight="normal" text-decoration="normal" x="320" y="351" text-anchor="start" dominant-baseline="alphabetic" fill-opacity="1">0.8</text><text fill="rgb(0,0,0)" stroke="none" font-family="geogebra-sans-serif, sans-serif" font-size="12px" font-style="normal" font-weight="normal" text-decoration="normal" x="380" y="351" text-anchor="start" dominant-baseline="alphabetic" fill-opacity="1">1</text><text fill="none" stroke="rgb(255,255,255)" font-family="geogebra-sans-serif, sans-serif" font-size="12px" font-style="normal" font-weight="normal" text-decoration="normal" x="380" y="351" text-anchor="start" dominant-baseline="alphabetic" stroke-opacity="1" stroke-linejoin="bevel" stroke-miterlimit="10" stroke-width="3">1</text><text fill="rgb(0,0,0)" stroke="none" font-family="geogebra-sans-serif, sans-serif" font-size="12px" font-style="normal" font-weight="normal" text-decoration="normal" x="380" y="351" text-anchor="start" dominant-baseline="alphabetic" fill-opacity="1">1</text><text fill="rgb(0,0,0)" stroke="none" font-family="geogebra-sans-serif, sans-serif" font-size="12px" font-style="normal" font-weight="normal" text-decoration="normal" x="428" y="351" text-anchor="start" dominant-baseline="alphabetic" fill-opacity="1">1.2</text><text fill="none" stroke="rgb(255,255,255)" font-family="geogebra-sans-serif, sans-serif" font-size="12px" font-style="normal" font-weight="normal" text-decoration="normal" x="428" y="351" text-anchor="start" dominant-baseline="alphabetic" stroke-opacity="1" stroke-linejoin="bevel" stroke-miterlimit="10" stroke-width="3">1.2</text><text fill="rgb(0,0,0)" stroke="none" font-family="geogebra-sans-serif, sans-serif" font-size="12px" font-style="normal" font-weight="normal" text-decoration="normal" x="428" y="351" text-anchor="start" dominant-baseline="alphabetic" fill-opacity="1">1.2</text><text fill="rgb(0,0,0)" stroke="none" font-family="geogebra-sans-serif, sans-serif" font-size="12px" font-style="normal" font-weight="normal" text-decoration="normal" x="482" y="351" text-anchor="start" dominant-baseline="alphabetic" fill-opacity="1">1.4</text><text fill="none" stroke="rgb(255,255,255)" font-family="geogebra-sans-serif, sans-serif" font-size="12px" font-style="normal" font-weight="normal" text-decoration="normal" x="482" y="351" text-anchor="start" dominant-baseline="alphabetic" stroke-opacity="1" stroke-linejoin="bevel" stroke-miterlimit="10" stroke-width="3">1.4</text><text fill="rgb(0,0,0)" stroke="none" font-family="geogebra-sans-serif, sans-serif" font-size="12px" font-style="normal" font-weight="normal" text-decoration="normal" x="482" y="351" text-anchor="start" dominant-baseline="alphabetic" fill-opacity="1">1.4</text><text fill="rgb(0,0,0)" stroke="none" font-family="geogebra-sans-serif, sans-serif" font-size="12px" font-style="normal" font-weight="normal" text-decoration="normal" x="536" y="351" text-anchor="start" dominant-baseline="alphabetic" fill-opacity="1">1.6</text><text fill="none" stroke="rgb(255,255,255)" font-family="geogebra-sans-serif, sans-serif" font-size="12px" font-style="normal" font-weight="normal" text-decoration="normal" x="536" y="351" text-anchor="start" dominant-baseline="alphabetic" stroke-opacity="1" stroke-linejoin="bevel" stroke-miterlimit="10" stroke-width="3">1.6</text><text fill="rgb(0,0,0)" stroke="none" font-family="geogebra-sans-serif, sans-serif" font-size="12px" font-style="normal" font-weight="normal" text-decoration="normal" x="536" y="351" text-anchor="start" dominant-baseline="alphabetic" fill-opacity="1">1.6</text><text fill="rgb(0,0,0)" stroke="none" font-family="geogebra-sans-serif, sans-serif" font-size="12px" font-style="normal" font-weight="normal" text-decoration="normal" x="82" y="502" text-anchor="start" dominant-baseline="alphabetic" fill-opacity="1">–0.6</text><text fill="none" stroke="rgb(255,255,255)" font-family="geogebra-sans-serif, sans-serif" font-size="12px" font-style="normal" font-weight="normal" text-decoration="normal" x="82" y="502" text-anchor="start" dominant-baseline="alphabetic" stroke-opacity="1" stroke-linejoin="bevel" stroke-miterlimit="10" stroke-width="3">–0.6</text><text fill="rgb(0,0,0)" stroke="none" font-family="geogebra-sans-serif, sans-serif" font-size="12px" font-style="normal" font-weight="normal" text-decoration="normal" x="82" y="502" text-anchor="start" dominant-baseline="alphabetic" fill-opacity="1">–0.6</text><text fill="rgb(0,0,0)" stroke="none" font-family="geogebra-sans-serif, sans-serif" font-size="12px" font-style="normal" font-weight="normal" text-decoration="normal" x="82" y="448" text-anchor="start" dominant-baseline="alphabetic" fill-opacity="1">–0.4</text><text fill="none" stroke="rgb(255,255,255)" font-family="geogebra-sans-serif, sans-serif" font-size="12px" font-style="normal" font-weight="normal" text-decoration="normal" x="82" y="448" text-anchor="start" dominant-baseline="alphabetic" stroke-opacity="1" stroke-linejoin="bevel" stroke-miterlimit="10" stroke-width="3">–0.4</text><text fill="rgb(0,0,0)" stroke="none" font-family="geogebra-sans-serif, sans-serif" font-size="12px" font-style="normal" font-weight="normal" text-decoration="normal" x="82" y="448" text-anchor="start" dominant-baseline="alphabetic" fill-opacity="1">–0.4</text><text fill="rgb(0,0,0)" stroke="none" font-family="geogebra-sans-serif, sans-serif" font-size="12px" font-style="normal" font-weight="normal" text-decoration="normal" x="82" y="394" text-anchor="start" dominant-baseline="alphabetic" fill-opacity="1">–0.2</text><text fill="none" stroke="rgb(255,255,255)" font-family="geogebra-sans-serif, sans-serif" font-size="12px" font-style="normal" font-weight="normal" text-decoration="normal" x="82" y="394" text-anchor="start" dominant-baseline="alphabetic" stroke-opacity="1" stroke-linejoin="bevel" stroke-miterlimit="10" stroke-width="3">–0.2</text><text fill="rgb(0,0,0)" stroke="none" font-family="geogebra-sans-serif, sans-serif" font-size="12px" font-style="normal" font-weight="normal" text-decoration="normal" x="82" y="394" text-anchor="start" dominant-baseline="alphabetic" fill-opacity="1">–0.2</text><text fill="rgb(0,0,0)" stroke="none" font-family="geogebra-sans-serif, sans-serif" font-size="12px" font-style="normal" font-weight="normal" text-decoration="normal" x="88" y="286" text-anchor="start" dominant-baseline="alphabetic" fill-opacity="1">0.2</text><text fill="none" stroke="rgb(255,255,255)" font-family="geogebra-sans-serif, sans-serif" font-size="12px" font-style="normal" font-weight="normal" text-decoration="normal" x="88" y="286" text-anchor="start" dominant-baseline="alphabetic" stroke-opacity="1" stroke-linejoin="bevel" stroke-miterlimit="10" stroke-width="3">0.2</text><text fill="rgb(0,0,0)" stroke="none" font-family="geogebra-sans-serif, sans-serif" font-size="12px" font-style="normal" font-weight="normal" text-decoration="normal" x="88" y="286" text-anchor="start" dominant-baseline="alphabetic" fill-opacity="1">0.2</text><text fill="rgb(0,0,0)" stroke="none" font-family="geogebra-sans-serif, sans-serif" font-size="12px" font-style="normal" font-weight="normal" text-decoration="normal" x="88" y="232" text-anchor="start" dominant-baseline="alphabetic" fill-opacity="1">0.4</text><text fill="none" stroke="rgb(255,255,255)" font-family="geogebra-sans-serif, sans-serif" font-size="12px" font-style="normal" font-weight="normal" text-decoration="normal" x="88" y="232" text-anchor="start" dominant-baseline="alphabetic" stroke-opacity="1" stroke-linejoin="bevel" stroke-miterlimit="10" stroke-width="3">0.4</text><text fill="rgb(0,0,0)" stroke="none" font-family="geogebra-sans-serif, sans-serif" font-size="12px" font-style="normal" font-weight="normal" text-decoration="normal" x="88" y="232" text-anchor="start" dominant-baseline="alphabetic" fill-opacity="1">0.4</text><text fill="rgb(0,0,0)" stroke="none" font-family="geogebra-sans-serif, sans-serif" font-size="12px" font-style="normal" font-weight="normal" text-decoration="normal" x="88" y="178" text-anchor="start" dominant-baseline="alphabetic" fill-opacity="1">0.6</text><text fill="none" stroke="rgb(255,255,255)" font-family="geogebra-sans-serif, sans-serif" font-size="12px" font-style="normal" font-weight="normal" text-decoration="normal" x="88" y="178" text-anchor="start" dominant-baseline="alphabetic" stroke-opacity="1" stroke-linejoin="bevel" stroke-miterlimit="10" stroke-width="3">0.6</text><text fill="rgb(0,0,0)" stroke="none" font-family="geogebra-sans-serif, sans-serif" font-size="12px" font-style="normal" font-weight="normal" text-decoration="normal" x="88" y="178" text-anchor="start" dominant-baseline="alphabetic" fill-opacity="1">0.6</text><text fill="rgb(0,0,0)" stroke="none" font-family="geogebra-sans-serif, sans-serif" font-size="12px" font-style="normal" font-weight="normal" text-decoration="normal" x="88" y="124" text-anchor="start" dominant-baseline="alphabetic" fill-opacity="1">0.8</text><text fill="none" stroke="rgb(255,255,255)" font-family="geogebra-sans-serif, sans-serif" font-size="12px" font-style="normal" font-weight="normal" text-decoration="normal" x="88" y="124" text-anchor="start" dominant-baseline="alphabetic" stroke-opacity="1" stroke-linejoin="bevel" stroke-miterlimit="10" stroke-width="3">0.8</text><text fill="rgb(0,0,0)" stroke="none" font-family="geogebra-sans-serif, sans-serif" font-size="12px" font-style="normal" font-weight="normal" text-decoration="normal" x="88" y="124" text-anchor="start" dominant-baseline="alphabetic" fill-opacity="1">0.8</text><text fill="rgb(0,0,0)" stroke="none" font-family="geogebra-sans-serif, sans-serif" font-size="12px" font-style="normal" font-weight="normal" text-decoration="normal" x="98" y="70" text-anchor="start" dominant-baseline="alphabetic" fill-opacity="1">1</text><text fill="none" stroke="rgb(255,255,255)" font-family="geogebra-sans-serif, sans-serif" font-size="12px" font-style="normal" font-weight="normal" text-decoration="normal" x="98" y="70" text-anchor="start" dominant-baseline="alphabetic" stroke-opacity="1" stroke-linejoin="bevel" stroke-miterlimit="10" stroke-width="3">1</text><text fill="rgb(0,0,0)" stroke="none" font-family="geogebra-sans-serif, sans-serif" font-size="12px" font-style="normal" font-weight="normal" text-decoration="normal" x="98" y="70" text-anchor="start" dominant-baseline="alphabetic" fill-opacity="1">1</text><text fill="rgb(0,0,0)" stroke="none" font-family="geogebra-sans-serif, sans-serif" font-size="12px" font-style="normal" font-weight="normal" text-decoration="normal" x="88" y="16" text-anchor="start" dominant-baseline="alphabetic" fill-opacity="1">1.2</text><text fill="none" stroke="rgb(255,255,255)" font-family="geogebra-sans-serif, sans-serif" font-size="12px" font-style="normal" font-weight="normal" text-decoration="normal" x="88" y="16" text-anchor="start" dominant-baseline="alphabetic" stroke-opacity="1" stroke-linejoin="bevel" stroke-miterlimit="10" stroke-width="3">1.2</text><text fill="rgb(0,0,0)" stroke="none" font-family="geogebra-sans-serif, sans-serif" font-size="12px" font-style="normal" font-weight="normal" text-decoration="normal" x="88" y="16" text-anchor="start" dominant-baseline="alphabetic" fill-opacity="1">1.2</text><text fill="rgb(0,0,0)" stroke="none" font-family="geogebra-sans-serif, sans-serif" font-size="12px" font-style="normal" font-weight="normal" text-decoration="normal" x="98" y="351" text-anchor="start" dominant-baseline="alphabetic" fill-opacity="1">0</text><text fill="none" stroke="rgb(255,255,255)" font-family="geogebra-sans-serif, sans-serif" font-size="12px" font-style="normal" font-weight="normal" text-decoration="normal" x="98" y="351" text-anchor="start" dominant-baseline="alphabetic" stroke-opacity="1" stroke-linejoin="bevel" stroke-miterlimit="10" stroke-width="3">0</text><text fill="rgb(0,0,0)" stroke="none" font-family="geogebra-sans-serif, sans-serif" font-size="12px" font-style="normal" font-weight="normal" text-decoration="normal" x="98" y="351" text-anchor="start" dominant-baseline="alphabetic" fill-opacity="1">0</text><path fill="rgb(0,100,0)" stroke="none" paint-order="stroke fill markers" fill-rule="evenodd" d=" M 227.04988334366368 272.06056812746016 L 216.73238301968098 253.52548822300446 L 198.19730311522338 263.84298854698665 L 208.514803439208 282.37806845144286 L 227.04988334366368 272.06056812746016" fill-opacity="0.09803921568627451"/><path fill="none" stroke="rgb(0,100,0)" paint-order="fill stroke markers" d=" M 227.04988334366368 272.06056812746016 L 216.73238301968098 253.52548822300446 L 198.19730311522338 263.84298854698665 L 208.514803439208 282.37806845144286 L 227.04988334366368 272.06056812746016" stroke-opacity="0.6980392156862745" stroke-linecap="round" stroke-linejoin="round" stroke-miterlimit="10" stroke-width="2.5"/><path fill="rgb(0,100,0)" stroke="none" paint-order="stroke fill markers" fill-rule="evenodd" d=" M 227.04988334366368 272.06056812746016 L 208.514803439208 282.37806845144286 L 218.83230376319014 300.9131483559005 L 237.36738366764638 290.59564803191586 L 227.04988334366368 272.06056812746016" fill-opacity="0.09803921568627451"/><path fill="none" stroke="rgb(0,100,0)" paint-order="fill stroke markers" d=" M 227.04988334366368 272.06056812746016 L 208.514803439208 282.37806845144286 L 218.83230376319014 300.9131483559005 L 237.36738366764638 290.59564803191586 L 227.04988334366368 272.06056812746016" stroke-opacity="0.6980392156862745" stroke-linecap="round" stroke-linejoin="round" stroke-miterlimit="10" stroke-width="2.5"/><path fill="rgb(255,0,0)" stroke="none" paint-order="stroke fill markers" d=" M 161.51652068939455 336.2287117212026 C 161.49230582463287 327.76587259388 159.32042937424492 319.44764877359665 155.20432766742027 312.05319550146805 L 111.51672536650028 336.3717769814116 Z" fill-opacity="0.09803921568627451"/><path fill="none" stroke="rgb(255,0,0)" paint-order="fill stroke markers" d=" M 161.51652068939455 336.2287117212026 C 161.49230582463287 327.76587259388 159.32042937424492 319.44764877359665 155.20432766742027 312.05319550146805 L 111.51672536650028 336.3717769814116 Z" stroke-opacity="0.6980392156862745" stroke-linecap="round" stroke-linejoin="round" stroke-miterlimit="10" stroke-width="2.5"/><g transform="scale(19,19)"><g transform="translate(8.947368421052632,17.340021052631577) scale(1.4,1.4)"><g transform="translate(0,0)"><path fill="rgb(255,0,0)" stroke="none" paint-order="stroke fill markers" d=" M 0.437 -0.67 L 0.381 -0.443 Q 0.508 -0.434 0.555 -0.341 Q 0.5730000000000001 -0.304 0.5730000000000001 -0.262 Q 0.5730000000000001 -0.166 0.488 -0.084 Q 0.399 0.002 0.281 0.011 Q 0.274 0.012 0.267 0.012 L 0.229 0.161 Q 0.221 0.198 0.218 0.201 Q 0.214 0.20500000000000002 0.20800000000000002 0.20500000000000002 Q 0.196 0.20500000000000002 0.196 0.194 Q 0.196 0.192 0.218 0.106 L 0.24 0.016 Q 0.24 0.014 0.241 0.012 Q 0.126 0.005 0.075 -0.075 Q 0.049 -0.117 0.049 -0.169 Q 0.049 -0.267 0.136 -0.34900000000000003 Q 0.225 -0.434 0.343 -0.442 Q 0.34900000000000003 -0.443 0.355 -0.443 L 0.41300000000000003 -0.674 Q 0.422 -0.6930000000000001 0.428 -0.6940000000000001 Q 0.44 -0.6940000000000001 0.44 -0.684 L 0.437 -0.671 L 0.437 -0.67 M 0.246 -0.01 L 0.34900000000000003 -0.421 Q 0.233 -0.41100000000000003 0.164 -0.309 Q 0.114 -0.234 0.114 -0.148 Q 0.114 -0.05 0.198 -0.019 Q 0.221 -0.011 0.246 -0.01 M 0.375 -0.421 L 0.272 -0.01 Q 0.388 -0.019 0.458 -0.123 Q 0.508 -0.198 0.508 -0.28300000000000003 Q 0.508 -0.377 0.43 -0.40900000000000003 Q 0.405 -0.419 0.375 -0.421 Z"/></g></g></g><path fill="rgb(0,100,0)" stroke="none" paint-order="stroke fill markers" d=" M 163.94184812760426 307.18947920547936 C 153.37708376266662 288.21019686703437 133.37940448217648 276.42304333295124 111.65787615366835 276.3719430111806 L 111.51672536650028 336.3717769814116 Z" fill-opacity="0.09803921568627451"/><path fill="none" stroke="rgb(0,100,0)" paint-order="fill stroke markers" d=" M 163.94184812760426 307.18947920547936 C 153.37708376266662 288.21019686703437 133.37940448217648 276.42304333295124 111.65787615366835 276.3719430111806 L 111.51672536650028 336.3717769814116 Z" stroke-opacity="0.6980392156862745" stroke-linecap="round" stroke-linejoin="round" stroke-miterlimit="10" stroke-width="2.5"/><g transform="scale(19,19)"><g transform="translate(4.2631578947368425,13.9716) scale(1.4,1.4)"><g transform="translate(0,0)"><path fill="rgb(0,100,0)" stroke="none" paint-order="stroke fill markers" d=" M 0.367 -0.318 Q 0.327 -0.218 0.242 -0.218 Q 0.149 -0.218 0.09 -0.294 L 0.09 -0.295 Q 0.042 -0.357 0.042 -0.441 Q 0.042 -0.525 0.091 -0.586 L 0.106 -0.603 Q 0.166 -0.666 0.253 -0.666 Q 0.353 -0.666 0.40800000000000003 -0.5690000000000001 Q 0.457 -0.482 0.457 -0.329 Q 0.457 -0.158 0.365 -0.055 Q 0.296 0.022 0.20600000000000002 0.022 Q 0.108 0.022 0.077 -0.039 Q 0.067 -0.06 0.067 -0.08600000000000001 Q 0.067 -0.126 0.10400000000000001 -0.133 Q 0.109 -0.134 0.113 -0.134 Q 0.145 -0.134 0.156 -0.106 Q 0.159 -0.098 0.159 -0.088 Q 0.159 -0.048 0.11900000000000001 -0.043000000000000003 Q 0.113 -0.042 0.107 -0.042 Q 0.136 -0.006 0.20500000000000002 -0.006 Q 0.276 -0.006 0.321 -0.077 Q 0.367 -0.15 0.367 -0.28600000000000003 L 0.367 -0.318 M 0.243 -0.241 Q 0.321 -0.241 0.352 -0.333 Q 0.365 -0.374 0.365 -0.421 Q 0.365 -0.519 0.34900000000000003 -0.562 Q 0.323 -0.632 0.266 -0.64 Q 0.259 -0.641 0.253 -0.641 Q 0.187 -0.641 0.153 -0.578 Q 0.132 -0.541 0.132 -0.452 L 0.132 -0.44 Q 0.132 -0.341 0.15 -0.304 Q 0.181 -0.241 0.243 -0.241 Z"/></g><g transform="translate(0.5,0)"><path fill="rgb(0,100,0)" stroke="none" paint-order="stroke fill markers" d=" M 0.46 -0.32 Q 0.46 -0.17400000000000002 0.423 -0.094 Q 0.364 0.018000000000000002 0.249 0.022 Q 0.158 0.022 0.10300000000000001 -0.05 Q 0.092 -0.063 0.084 -0.079 Q 0.039 -0.162 0.039 -0.32 Q 0.039 -0.467 0.076 -0.547 Q 0.126 -0.659 0.23800000000000002 -0.666 L 0.25 -0.666 Q 0.339 -0.666 0.395 -0.595 L 0.395 -0.594 Q 0.40900000000000003 -0.5760000000000001 0.42 -0.554 Q 0.46 -0.46900000000000003 0.46 -0.32 M 0.249 0 L 0.249 0 Q 0.312 0 0.34600000000000003 -0.061 Q 0.36 -0.088 0.366 -0.125 Q 0.377 -0.189 0.377 -0.332 Q 0.377 -0.47100000000000003 0.367 -0.527 Q 0.34900000000000003 -0.622 0.275 -0.641 Q 0.262 -0.644 0.249 -0.644 Q 0.179 -0.644 0.147 -0.5740000000000001 Q 0.136 -0.55 0.13 -0.516 Q 0.122 -0.462 0.122 -0.332 Q 0.122 -0.181 0.133 -0.121 Q 0.151 -0.025 0.221 -0.004 Q 0.23500000000000001 0 0.249 0 Z"/></g><g transform="translate(1.2222222222222223,0)"><path fill="rgb(0,100,0)" stroke="none" paint-order="stroke fill markers" d=" M 0.661 -0.23 L 0.116 -0.23 Q 0.084 -0.23 0.083 -0.25 Q 0.083 -0.27 0.116 -0.27 L 0.661 -0.27 Q 0.6930000000000001 -0.27 0.6940000000000001 -0.25 Q 0.6940000000000001 -0.23 0.661 -0.23 Z"/></g><g transform="translate(2.2224444444444447,0)"><path fill="rgb(0,100,0)" stroke="none" paint-order="stroke fill markers" d=" M 0.437 -0.67 L 0.381 -0.443 Q 0.508 -0.434 0.555 -0.341 Q 0.5730000000000001 -0.304 0.5730000000000001 -0.262 Q 0.5730000000000001 -0.166 0.488 -0.084 Q 0.399 0.002 0.281 0.011 Q 0.274 0.012 0.267 0.012 L 0.229 0.161 Q 0.221 0.198 0.218 0.201 Q 0.214 0.20500000000000002 0.20800000000000002 0.20500000000000002 Q 0.196 0.20500000000000002 0.196 0.194 Q 0.196 0.192 0.218 0.106 L 0.24 0.016 Q 0.24 0.014 0.241 0.012 Q 0.126 0.005 0.075 -0.075 Q 0.049 -0.117 0.049 -0.169 Q 0.049 -0.267 0.136 -0.34900000000000003 Q 0.225 -0.434 0.343 -0.442 Q 0.34900000000000003 -0.443 0.355 -0.443 L 0.41300000000000003 -0.674 Q 0.422 -0.6930000000000001 0.428 -0.6940000000000001 Q 0.44 -0.6940000000000001 0.44 -0.684 L 0.437 -0.671 L 0.437 -0.67 M 0.246 -0.01 L 0.34900000000000003 -0.421 Q 0.233 -0.41100000000000003 0.164 -0.309 Q 0.114 -0.234 0.114 -0.148 Q 0.114 -0.05 0.198 -0.019 Q 0.221 -0.011 0.246 -0.01 M 0.375 -0.421 L 0.272 -0.01 Q 0.388 -0.019 0.458 -0.123 Q 0.508 -0.198 0.508 -0.28300000000000003 Q 0.508 -0.377 0.43 -0.40900000000000003 Q 0.405 -0.419 0.375 -0.421 Z"/></g></g></g><path fill="none" stroke="rgb(255,0,0)" paint-order="fill stroke markers" d=" M -5 401.230485868298 L 585 72.80863807866695" stroke-opacity="0.6980392156862745" stroke-linecap="round" stroke-linejoin="round" stroke-miterlimit="10" stroke-width="2.5"/><g transform="scale(19,19)"><g transform="translate(1.3157894736842106,22.138157894736842) scale(2.5,2.5)"><g transform="translate(0,0)"><path fill="rgb(255,0,0)" stroke="none" paint-order="stroke fill markers" d=" M 0.331 0.24 L 0.331 0.24 Q 0.331 0.25 0.321 0.25 Q 0.309 0.25 0.268 0.209 Q 0.20600000000000002 0.147 0.165 0.062 Q 0.099 -0.074 0.099 -0.25 Q 0.099 -0.419 0.162 -0.555 Q 0.214 -0.666 0.294 -0.733 Q 0.315 -0.75 0.321 -0.75 Q 0.331 -0.75 0.331 -0.74 Q 0.331 -0.735 0.318 -0.723 Q 0.157 -0.559 0.157 -0.25 Q 0.157 0.058 0.314 0.218 Q 0.331 0.23500000000000001 0.331 0.24 Z"/></g><g transform="translate(0.389,0)"><path fill="rgb(255,0,0)" stroke="none" paint-order="stroke fill markers" d=" M 0.374 -0.605 L 0.23900000000000002 -0.065 Q 0.234 -0.047 0.234 -0.042 Q 0.234 -0.034 0.243 -0.032 L 0.243 -0.032 L 0.243 -0.032 L 0.247 -0.032 Q 0.253 -0.031 0.269 -0.031 L 0.363 -0.031 Q 0.509 -0.031 0.5750000000000001 -0.147 Q 0.592 -0.177 0.614 -0.23700000000000002 Q 0.622 -0.256 0.627 -0.257 L 0.628 -0.258 L 0.631 -0.258 Q 0.642 -0.258 0.643 -0.247 Q 0.643 -0.244 0.639 -0.233 L 0.56 -0.017 Q 0.555 -0.002 0.547 -0.001 L 0.547 -0.001 L 0.546 -0.001 Q 0.542 0 0.529 0 L 0.066 0 Q 0.041 0 0.039 -0.011 Q 0.039 -0.029 0.054 -0.031 L 0.066 -0.031 Q 0.131 -0.031 0.14400000000000002 -0.045 Q 0.15 -0.052000000000000005 0.156 -0.073 Q 0.156 -0.074 0.157 -0.078 L 0.291 -0.615 Q 0.295 -0.631 0.295 -0.634 Q 0.295 -0.646 0.279 -0.649 L 0.278 -0.649 L 0.277 -0.649 Q 0.274 -0.649 0.268 -0.65 Q 0.251 -0.652 0.23 -0.652 Q 0.20400000000000001 -0.652 0.202 -0.663 Q 0.202 -0.683 0.221 -0.683 L 0.353 -0.68 L 0.354 -0.68 L 0.501 -0.683 L 0.502 -0.683 Q 0.518 -0.683 0.518 -0.671 Q 0.518 -0.655 0.505 -0.653 Q 0.499 -0.652 0.48 -0.652 Q 0.401 -0.652 0.386 -0.635 Q 0.38 -0.628 0.374 -0.605 Z"/></g><g transform="translate(1.07,0)"><path fill="rgb(255,0,0)" stroke="none" paint-order="stroke fill markers" d=" M 0.289 -0.25 L 0.289 -0.25 Q 0.289 -0.081 0.226 0.055 Q 0.17400000000000002 0.166 0.094 0.233 Q 0.073 0.25 0.067 0.25 Q 0.057 0.25 0.057 0.24 Q 0.057 0.23500000000000001 0.07 0.223 Q 0.231 0.059000000000000004 0.231 -0.25 Q 0.231 -0.555 0.081 -0.712 L 0.076 -0.717 Q 0.057 -0.735 0.057 -0.74 Q 0.057 -0.75 0.067 -0.75 Q 0.079 -0.75 0.12 -0.709 Q 0.182 -0.647 0.223 -0.562 Q 0.289 -0.426 0.289 -0.25 Z"/></g></g></g><path fill="none" stroke="rgb(0,0,0)" paint-order="fill stroke markers" d=" M 112.15359699035747 65.65283549734437 L 341.94616969696983 478.46830075757595" stroke-opacity="0.6980392156862745" stroke-linecap="round" stroke-linejoin="round" stroke-miterlimit="10" stroke-width="2.5"/><text fill="rgb(0,0,0)" stroke="none" font-family="geogebra-sans-serif, sans-serif" font-size="16px" font-style="normal" font-weight="normal" text-decoration="normal" x="213" y="279" text-anchor="start" dominant-baseline="alphabetic" fill-opacity="1">f</text><text fill="none" stroke="rgb(255,255,255)" font-family="geogebra-sans-serif, sans-serif" font-size="16px" font-style="normal" font-weight="normal" text-decoration="normal" x="213" y="279" text-anchor="start" dominant-baseline="alphabetic" stroke-opacity="1" stroke-linejoin="bevel" stroke-miterlimit="10" stroke-width="3">f</text><text fill="rgb(0,0,0)" stroke="none" font-family="geogebra-sans-serif, sans-serif" font-size="16px" font-style="normal" font-weight="normal" text-decoration="normal" x="213" y="279" text-anchor="start" dominant-baseline="alphabetic" fill-opacity="1">f</text><path fill="none" stroke="rgb(0,0,0)" paint-order="fill stroke markers" d=" M 111.51672536650028 336.3717769814116 L 341.94616969696983 478.46830075757595" stroke-opacity="0.6980392156862745" stroke-linecap="round" stroke-linejoin="round" stroke-miterlimit="10" stroke-width="2.5"/><path fill="none" stroke="rgb(0,0,0)" paint-order="fill stroke markers" d=" M 111.51672536650028 336.3717769814116 L 112.15359699035747 65.65283549734437" stroke-opacity="0.6980392156862745" stroke-linecap="round" stroke-linejoin="round" stroke-miterlimit="10" stroke-width="2.5"/><path fill="none" stroke="rgb(0,0,0)" paint-order="fill stroke markers" d=" M 111.51672536650028 336.3717769814116 L 227.04988334366368 272.06056812746016" stroke-opacity="0.6980392156862745" stroke-linecap="round" stroke-linejoin="round" stroke-miterlimit="10" stroke-width="2.5"/><path fill="none" stroke="rgb(0,0,0)" paint-order="fill stroke markers" d=" M 166.36507457748877 298.97366027832544 L 172.2015341326752 309.45868483054625" stroke-opacity="0.6980392156862745" stroke-linecap="round" stroke-linejoin="round" stroke-miterlimit="10" stroke-width="2.5"/><path fill="none" stroke="rgb(0,0,0)" paint-order="fill stroke markers" d=" M 227.04988334366368 272.06056812746016 L 112.15359699035747 65.65283549734437" stroke-opacity="0.6980392156862745" stroke-linecap="round" stroke-linejoin="round" stroke-miterlimit="10" stroke-width="2.5"/><path fill="none" stroke="rgb(0,0,0)" paint-order="fill stroke markers" d=" M 165.57515696489736 173.95931170504147 L 176.06018151711817 168.12285214985505" stroke-opacity="0.6980392156862745" stroke-linecap="round" stroke-linejoin="round" stroke-miterlimit="10" stroke-width="2.5"/><path fill="none" stroke="rgb(0,0,0)" paint-order="fill stroke markers" d=" M 163.14329881690298 169.59055147494948 L 173.6283233691238 163.75409191976306" stroke-opacity="0.6980392156862745" stroke-linecap="round" stroke-linejoin="round" stroke-miterlimit="10" stroke-width="2.5"/><path fill="none" stroke="rgb(0,0,0)" paint-order="fill stroke markers" d=" M 227.04988334366368 272.06056812746016 L 341.94616969696983 478.46830075757595" stroke-opacity="0.6980392156862745" stroke-linecap="round" stroke-linejoin="round" stroke-miterlimit="10" stroke-width="2.5"/><path fill="none" stroke="rgb(0,0,0)" paint-order="fill stroke markers" d=" M 288.52460972243 370.1618245498788 L 278.0395851702092 375.9982841050653" stroke-opacity="0.6980392156862745" stroke-linecap="round" stroke-linejoin="round" stroke-miterlimit="10" stroke-width="2.5"/><path fill="none" stroke="rgb(0,0,0)" paint-order="fill stroke markers" d=" M 290.9564678704244 374.5305847799708 L 280.47144331820357 380.3670443351573" stroke-opacity="0.6980392156862745" stroke-linecap="round" stroke-linejoin="round" stroke-miterlimit="10" stroke-width="2.5"/><path fill="rgb(77,77,255)" stroke="none" paint-order="stroke fill markers" d=" M 117.15359699035747 65.65283549734437 C 117.15359699035747 68.41425924649833 114.91502073951143 70.65283549734437 112.15359699035747 70.65283549734437 C 109.39217324120351 70.65283549734437 107.15359699035747 68.41425924649833 107.15359699035747 65.65283549734437 C 107.15359699035747 62.8914117481904 109.39217324120351 60.65283549734437 112.15359699035747 60.65283549734437 C 114.91502073951143 60.65283549734437 117.15359699035747 62.8914117481904 117.15359699035747 65.65283549734437 Z" fill-opacity="1"/><path fill="none" stroke="rgb(0,0,0)" paint-order="fill stroke markers" d=" M 117.15359699035747 65.65283549734437 C 117.15359699035747 68.41425924649833 114.91502073951143 70.65283549734437 112.15359699035747 70.65283549734437 C 109.39217324120351 70.65283549734437 107.15359699035747 68.41425924649833 107.15359699035747 65.65283549734437 C 107.15359699035747 62.8914117481904 109.39217324120351 60.65283549734437 112.15359699035747 60.65283549734437 C 114.91502073951143 60.65283549734437 117.15359699035747 62.8914117481904 117.15359699035747 65.65283549734437 Z" stroke-opacity="1" stroke-linecap="round" stroke-linejoin="round" stroke-miterlimit="10"/><g transform="scale(19,19)"><g transform="translate(3.3684210526315788,2.7075) scale(2.5,2.5)"><g transform="translate(0,0)"><path fill="rgb(77,77,255)" stroke="none" paint-order="stroke fill markers" d=" M 0.179 -0.115 L 0.527 -0.6990000000000001 Q 0.537 -0.715 0.553 -0.716 Q 0.5680000000000001 -0.716 0.5700000000000001 -0.706 Q 0.5710000000000001 -0.7030000000000001 0.5720000000000001 -0.6920000000000001 L 0.633 -0.067 Q 0.636 -0.042 0.645 -0.037 L 0.646 -0.037 L 0.646 -0.037 L 0.646 -0.037 L 0.646 -0.037 L 0.646 -0.036000000000000004 Q 0.658 -0.031 0.6980000000000001 -0.031 Q 0.72 -0.031 0.721 -0.02 Q 0.721 0 0.7030000000000001 0 L 0.591 -0.003 L 0.59 -0.003 L 0.466 0 L 0.465 0 Q 0.451 0 0.451 -0.011 Q 0.459 -0.03 0.47500000000000003 -0.031 Q 0.547 -0.031 0.547 -0.064 Q 0.547 -0.063 0.531 -0.231 L 0.28 -0.231 L 0.20400000000000001 -0.10300000000000001 Q 0.19 -0.078 0.19 -0.066 Q 0.19 -0.035 0.23700000000000002 -0.031 Q 0.253 -0.031 0.253 -0.019 Q 0.253 0 0.234 0 L 0.138 -0.003 L 0.134 -0.003 L 0.05 0 L 0.048 0 Q 0.035 0 0.035 -0.011 Q 0.035 -0.029 0.05 -0.03 L 0.05 -0.031 L 0.056 -0.031 Q 0.11900000000000001 -0.035 0.159 -0.085 Q 0.169 -0.098 0.179 -0.115 M 0.299 -0.262 L 0.528 -0.262 L 0.496 -0.592 L 0.299 -0.262 Z"/></g></g></g><path fill="rgb(77,77,255)" stroke="none" paint-order="stroke fill markers" d=" M 346.94616969696983 478.46830075757595 C 346.94616969696983 481.2297245067299 344.7075934461238 483.46830075757595 341.94616969696983 483.46830075757595 C 339.1847459478159 483.46830075757595 336.94616969696983 481.2297245067299 336.94616969696983 478.46830075757595 C 336.94616969696983 475.706877008422 339.1847459478159 473.46830075757595 341.94616969696983 473.46830075757595 C 344.7075934461238 473.46830075757595 346.94616969696983 475.706877008422 346.94616969696983 478.46830075757595 Z" fill-opacity="1"/><path fill="none" stroke="rgb(0,0,0)" paint-order="fill stroke markers" d=" M 346.94616969696983 478.46830075757595 C 346.94616969696983 481.2297245067299 344.7075934461238 483.46830075757595 341.94616969696983 483.46830075757595 C 339.1847459478159 483.46830075757595 336.94616969696983 481.2297245067299 336.94616969696983 478.46830075757595 C 336.94616969696983 475.706877008422 339.1847459478159 473.46830075757595 341.94616969696983 473.46830075757595 C 344.7075934461238 473.46830075757595 346.94616969696983 475.706877008422 346.94616969696983 478.46830075757595 Z" stroke-opacity="1" stroke-linecap="round" stroke-linejoin="round" stroke-miterlimit="10"/><g transform="scale(19,19)"><g transform="translate(18.31578947368421,26.457894736842107) scale(2.5,2.5)"><g transform="translate(0.264,-0.2520000000000001)"><path fill="rgb(77,77,255)" stroke="none" paint-order="stroke fill markers" d=" M 0.4 -0.668 L 0.41600000000000004 -0.653 Q 0.363 -0.595 0.34400000000000003 -0.584 Q 0.328 -0.5750000000000001 0.308 -0.5750000000000001 Q 0.28500000000000003 -0.5750000000000001 0.246 -0.598 Q 0.20400000000000001 -0.623 0.181 -0.623 Q 0.14 -0.623 0.10200000000000001 -0.579 L 0.099 -0.5750000000000001 L 0.083 -0.59 Q 0.136 -0.648 0.155 -0.659 Q 0.171 -0.668 0.191 -0.668 Q 0.214 -0.668 0.253 -0.645 Q 0.296 -0.62 0.318 -0.62 Q 0.359 -0.62 0.397 -0.664 L 0.4 -0.668 Z"/></g><g transform="translate(0,0)"><path fill="rgb(77,77,255)" stroke="none" paint-order="stroke fill markers" d=" M 0.179 -0.115 L 0.527 -0.6990000000000001 Q 0.537 -0.715 0.553 -0.716 Q 0.5680000000000001 -0.716 0.5700000000000001 -0.706 Q 0.5710000000000001 -0.7030000000000001 0.5720000000000001 -0.6920000000000001 L 0.633 -0.067 Q 0.636 -0.042 0.645 -0.037 L 0.646 -0.037 L 0.646 -0.037 L 0.646 -0.037 L 0.646 -0.037 L 0.646 -0.036000000000000004 Q 0.658 -0.031 0.6980000000000001 -0.031 Q 0.72 -0.031 0.721 -0.02 Q 0.721 0 0.7030000000000001 0 L 0.591 -0.003 L 0.59 -0.003 L 0.466 0 L 0.465 0 Q 0.451 0 0.451 -0.011 Q 0.459 -0.03 0.47500000000000003 -0.031 Q 0.547 -0.031 0.547 -0.064 Q 0.547 -0.063 0.531 -0.231 L 0.28 -0.231 L 0.20400000000000001 -0.10300000000000001 Q 0.19 -0.078 0.19 -0.066 Q 0.19 -0.035 0.23700000000000002 -0.031 Q 0.253 -0.031 0.253 -0.019 Q 0.253 0 0.234 0 L 0.138 -0.003 L 0.134 -0.003 L 0.05 0 L 0.048 0 Q 0.035 0 0.035 -0.011 Q 0.035 -0.029 0.05 -0.03 L 0.05 -0.031 L 0.056 -0.031 Q 0.11900000000000001 -0.035 0.159 -0.085 Q 0.169 -0.098 0.179 -0.115 M 0.299 -0.262 L 0.528 -0.262 L 0.496 -0.592 L 0.299 -0.262 Z"/></g></g></g><path fill="rgb(125,125,255)" stroke="none" paint-order="stroke fill markers" d=" M 116.51672536650028 336.3717769814116 C 116.51672536650028 339.13320073056553 114.27814911565424 341.3717769814116 111.51672536650028 341.3717769814116 C 108.75530161734632 341.3717769814116 106.51672536650028 339.13320073056553 106.51672536650028 336.3717769814116 C 106.51672536650028 333.61035323225764 108.75530161734632 331.3717769814116 111.51672536650028 331.3717769814116 C 114.27814911565424 331.3717769814116 116.51672536650028 333.61035323225764 116.51672536650028 336.3717769814116 Z" fill-opacity="1"/><path fill="none" stroke="rgb(0,0,0)" paint-order="fill stroke markers" d=" M 116.51672536650028 336.3717769814116 C 116.51672536650028 339.13320073056553 114.27814911565424 341.3717769814116 111.51672536650028 341.3717769814116 C 108.75530161734632 341.3717769814116 106.51672536650028 339.13320073056553 106.51672536650028 336.3717769814116 C 106.51672536650028 333.61035323225764 108.75530161734632 331.3717769814116 111.51672536650028 331.3717769814116 C 114.27814911565424 331.3717769814116 116.51672536650028 333.61035323225764 116.51672536650028 336.3717769814116 Z" stroke-opacity="1" stroke-linecap="round" stroke-linejoin="round" stroke-miterlimit="10"/><g transform="scale(19,19)"><g transform="translate(4.947368421052632,20.39171052631579) scale(2.5,2.5)"><g transform="translate(0,0)"><path fill="rgb(125,125,255)" stroke="none" paint-order="stroke fill markers" d=" M 0.74 -0.436 L 0.74 -0.436 Q 0.74 -0.281 0.63 -0.149 Q 0.531 -0.029 0.398 0.009000000000000001 Q 0.35100000000000003 0.022 0.305 0.022 Q 0.18 0.022 0.108 -0.066 Q 0.049 -0.138 0.049 -0.245 Q 0.049 -0.395 0.156 -0.529 Q 0.255 -0.65 0.388 -0.6900000000000001 Q 0.437 -0.705 0.485 -0.705 Q 0.612 -0.705 0.684 -0.613 Q 0.74 -0.541 0.74 -0.436 M 0.311 -0.004 L 0.311 -0.004 Q 0.405 -0.004 0.492 -0.088 Q 0.51 -0.105 0.525 -0.124 Q 0.623 -0.246 0.646 -0.41500000000000004 Q 0.651 -0.448 0.651 -0.47500000000000003 Q 0.651 -0.612 0.559 -0.661 Q 0.558 -0.661 0.557 -0.662 Q 0.521 -0.68 0.47900000000000004 -0.68 Q 0.385 -0.68 0.297 -0.599 Q 0.261 -0.5670000000000001 0.233 -0.524 Q 0.157 -0.40900000000000003 0.14400000000000002 -0.249 Q 0.14200000000000002 -0.231 0.14200000000000002 -0.217 Q 0.14200000000000002 -0.089 0.219 -0.033 Q 0.259 -0.004 0.311 -0.004 Z"/></g></g></g><path fill="rgb(68,68,68)" stroke="none" paint-order="stroke fill markers" d=" M 231.04988334366368 272.06056812746016 C 231.04988334366368 274.2697071267833 229.25902234298684 276.06056812746016 227.04988334366368 276.06056812746016 C 224.8407443443405 276.06056812746016 223.04988334366368 274.2697071267833 223.04988334366368 272.06056812746016 C 223.04988334366368 269.851429128137 224.8407443443405 268.06056812746016 227.04988334366368 268.06056812746016 C 229.25902234298684 268.06056812746016 231.04988334366368 269.851429128137 231.04988334366368 272.06056812746016 Z" fill-opacity="1"/><path fill="none" stroke="rgb(0,0,0)" paint-order="fill stroke markers" d=" M 231.04988334366368 272.06056812746016 C 231.04988334366368 274.2697071267833 229.25902234298684 276.06056812746016 227.04988334366368 276.06056812746016 C 224.8407443443405 276.06056812746016 223.04988334366368 274.2697071267833 223.04988334366368 272.06056812746016 C 223.04988334366368 269.851429128137 224.8407443443405 268.06056812746016 227.04988334366368 268.06056812746016 C 229.25902234298684 268.06056812746016 231.04988334366368 269.851429128137 231.04988334366368 272.06056812746016 Z" stroke-opacity="1" stroke-linecap="round" stroke-linejoin="round" stroke-miterlimit="10"/><g transform="scale(19,19)"><g transform="translate(10.578947368421053,12.918026315789474) scale(2.5,2.5)"><g transform="translate(0,0)"><path fill="rgb(68,68,68)" stroke="none" paint-order="stroke fill markers" d=" M 0.303 -0.316 L 0.303 -0.316 L 0.241 -0.066 L 0.23800000000000002 -0.049 Q 0.23800000000000002 -0.032 0.28400000000000003 -0.031 L 0.28400000000000003 -0.031 L 0.28400000000000003 -0.031 L 0.303 -0.031 Q 0.329 -0.031 0.331 -0.02 Q 0.331 0 0.311 0 L 0.247 -0.002 L 0.246 -0.002 L 0.184 -0.003 L 0.182 -0.003 L 0.056 0 L 0.055 0 Q 0.04 0 0.04 -0.012 Q 0.04 -0.029 0.056 -0.031 L 0.068 -0.031 Q 0.133 -0.031 0.146 -0.045 Q 0.152 -0.052000000000000005 0.158 -0.073 Q 0.158 -0.074 0.159 -0.078 L 0.293 -0.615 Q 0.297 -0.631 0.297 -0.634 Q 0.297 -0.646 0.281 -0.649 L 0.28 -0.649 L 0.28 -0.649 Q 0.278 -0.65 0.275 -0.65 Q 0.251 -0.652 0.232 -0.652 Q 0.20600000000000002 -0.652 0.20400000000000001 -0.66 Q 0.203 -0.662 0.203 -0.664 Q 0.203 -0.681 0.22 -0.683 L 0.22 -0.683 L 0.233 -0.683 L 0.557 -0.683 Q 0.678 -0.683 0.73 -0.609 Q 0.754 -0.5740000000000001 0.754 -0.532 Q 0.754 -0.451 0.671 -0.385 Q 0.583 -0.316 0.47300000000000003 -0.316 L 0.303 -0.316 M 0.375 -0.614 L 0.307 -0.342 L 0.448 -0.342 Q 0.543 -0.342 0.602 -0.395 Q 0.643 -0.433 0.658 -0.522 L 0.658 -0.523 Q 0.661 -0.542 0.661 -0.556 Q 0.661 -0.652 0.525 -0.652 L 0.429 -0.652 Q 0.393 -0.652 0.385 -0.642 L 0.385 -0.642 L 0.385 -0.641 L 0.384 -0.641 L 0.384 -0.64 Q 0.38 -0.634 0.375 -0.614 Z"/></g></g></g></g></g></svg>