<?xml version="1.0" encoding="UTF-8" standalone="no"?>
<svg
   xmlns:dc="http://purl.org/dc/elements/1.1/"
   xmlns:cc="http://creativecommons.org/ns#"
   xmlns:rdf="http://www.w3.org/1999/02/22-rdf-syntax-ns#"
   xmlns:svg="http://www.w3.org/2000/svg"
   xmlns="http://www.w3.org/2000/svg"
   version="1.1"
   width="948"
   height="623"
   id="svg79">
  <metadata
     id="metadata83">
    <rdf:RDF>
      <cc:Work
         rdf:about="">
        <dc:format>image/svg+xml</dc:format>
        <dc:type
           rdf:resource="http://purl.org/dc/dcmitype/StillImage" />
      </cc:Work>
    </rdf:RDF>
  </metadata>
  <defs
     id="defs5">
    <clipPath
       id="BJfkTIcTqLPP">
      <path
         fill="none"
         stroke="none"
         d="M 0,0 H 946 V 621 H 0 Z"
         id="path2" />
    </clipPath>
  </defs>
  <g
     clip-path="url(#BJfkTIcTqLPP)"
     id="g77"
     transform="translate(1,1)">
    <g
       id="g75">
      <rect
         fill="#ffffff"
         stroke="none"
         x="0"
         y="0"
         width="946"
         height="621"
         fill-opacity="1"
         id="rect7" />
      <path
         fill="#993300"
         stroke="none"
         paint-order="stroke fill markers"
         fill-rule="evenodd"
         d="M 165.43661,332.1613 H 537.97136 V 456.33955 H 165.43661 Z"
         fill-opacity="0.0980392"
         id="path9" />
      <path
         fill="#993300"
         stroke="none"
         paint-order="stroke fill markers"
         fill-rule="evenodd"
         d="M 579.36411,332.1613 H 703.54236 V 456.33955 H 579.36411 Z"
         fill-opacity="0.0980392"
         id="path11" />
      <path
         fill="#993300"
         stroke="none"
         paint-order="stroke fill markers"
         fill-rule="evenodd"
         d="m 578.12232,190.59809 v 124.17825 l 125.00611,-2.48356 V 190.59809 Z"
         fill-opacity="0.0980392"
         id="path13" />
      <path
         fill="none"
         stroke="#993300"
         paint-order="fill stroke markers"
         d="M 165.43661,332.1613 H 537.97136"
         stroke-opacity="0.698039"
         stroke-linecap="round"
         stroke-linejoin="round"
         stroke-miterlimit="10"
         stroke-width="2.5"
         id="path15" />
      <path
         fill="none"
         stroke="#993300"
         paint-order="fill stroke markers"
         d="M 537.97136,332.1613 V 456.33955"
         stroke-opacity="0.698039"
         stroke-linecap="round"
         stroke-linejoin="round"
         stroke-miterlimit="10"
         stroke-width="2.5"
         id="path17" />
      <path
         fill="none"
         stroke="#993300"
         paint-order="fill stroke markers"
         d="M 537.97136,456.33955 H 165.43661"
         stroke-opacity="0.698039"
         stroke-linecap="round"
         stroke-linejoin="round"
         stroke-miterlimit="10"
         stroke-width="2.5"
         id="path19" />
      <path
         fill="none"
         stroke="#993300"
         paint-order="fill stroke markers"
         d="M 165.43661,456.33955 V 332.1613"
         stroke-opacity="0.698039"
         stroke-linecap="round"
         stroke-linejoin="round"
         stroke-miterlimit="10"
         stroke-width="2.5"
         id="path21" />
      <path
         fill="none"
         stroke="#993300"
         paint-order="fill stroke markers"
         d="M 579.36411,332.1613 H 703.54236"
         stroke-opacity="0.698039"
         stroke-linecap="round"
         stroke-linejoin="round"
         stroke-miterlimit="10"
         stroke-width="2.5"
         id="path23" />
      <path
         fill="none"
         stroke="#993300"
         paint-order="fill stroke markers"
         d="M 703.54236,332.1613 V 456.33955"
         stroke-opacity="0.698039"
         stroke-linecap="round"
         stroke-linejoin="round"
         stroke-miterlimit="10"
         stroke-width="2.5"
         id="path25" />
      <path
         fill="none"
         stroke="#993300"
         paint-order="fill stroke markers"
         d="M 703.54236,456.33955 H 579.36411"
         stroke-opacity="0.698039"
         stroke-linecap="round"
         stroke-linejoin="round"
         stroke-miterlimit="10"
         stroke-width="2.5"
         id="path27" />
      <path
         fill="none"
         stroke="#993300"
         paint-order="fill stroke markers"
         d="M 579.36411,456.33955 V 332.1613"
         stroke-opacity="0.698039"
         stroke-linecap="round"
         stroke-linejoin="round"
         stroke-miterlimit="10"
         stroke-width="2.5"
         id="path29" />
      <path
         fill="none"
         stroke="#993300"
         paint-order="fill stroke markers"
         d="M 578.12232,190.59809 V 314.77634"
         stroke-opacity="0.698039"
         stroke-linecap="round"
         stroke-linejoin="round"
         stroke-miterlimit="10"
         stroke-width="2.5"
         id="path31" />
      <path
         fill="none"
         stroke="#993300"
         paint-order="fill stroke markers"
         d="m 578.12232,314.77634 125.00611,-2.48356"
         stroke-opacity="0.698039"
         stroke-linecap="round"
         stroke-linejoin="round"
         stroke-miterlimit="10"
         stroke-width="2.5"
         id="path33" />
      <path
         fill="none"
         stroke="#993300"
         paint-order="fill stroke markers"
         d="M 703.12843,312.29278 V 190.59809"
         stroke-opacity="0.698039"
         stroke-linecap="round"
         stroke-linejoin="round"
         stroke-miterlimit="10"
         stroke-width="2.5"
         id="path35" />
      <path
         fill="none"
         stroke="#993300"
         paint-order="fill stroke markers"
         d="M 703.12843,190.59809 H 578.12232"
         stroke-opacity="0.698039"
         stroke-linecap="round"
         stroke-linejoin="round"
         stroke-miterlimit="10"
         stroke-width="2.5"
         id="path37" />
      <path
         fill="none"
         stroke="#cc0000"
         paint-order="fill stroke markers"
         d="m 165.43661,332.1613 v 41.39275"
         stroke-opacity="0.698039"
         stroke-linecap="round"
         stroke-linejoin="round"
         stroke-miterlimit="10"
         stroke-width="6.5"
         id="path39" />
      <path
         fill="none"
         stroke="#cc0000"
         paint-order="fill stroke markers"
         d="M 165.43661,373.55405 H 289.61486"
         stroke-opacity="0.698039"
         stroke-linecap="round"
         stroke-linejoin="round"
         stroke-miterlimit="10"
         stroke-width="6.5"
         id="path41" />
      <path
         fill="none"
         stroke="#cc0000"
         paint-order="fill stroke markers"
         d="M 289.61486,373.55405 V 414.9468"
         stroke-opacity="0.698039"
         stroke-linecap="round"
         stroke-linejoin="round"
         stroke-miterlimit="10"
         stroke-width="6.5"
         id="path43" />
      <path
         fill="none"
         stroke="#cc0000"
         paint-order="fill stroke markers"
         d="m 289.61486,414.9468 h 165.571"
         stroke-opacity="0.698039"
         stroke-linecap="round"
         stroke-linejoin="round"
         stroke-miterlimit="10"
         stroke-width="6.5"
         id="path45" />
      <path
         fill="none"
         stroke="#cc0000"
         paint-order="fill stroke markers"
         d="m 455.18586,414.9468 v 41.39275"
         stroke-opacity="0.698039"
         stroke-linecap="round"
         stroke-linejoin="round"
         stroke-miterlimit="10"
         stroke-width="6.5"
         id="path47" />
      <path
         fill="none"
         stroke="#cc0000"
         paint-order="fill stroke markers"
         d="m 455.18586,456.33955 h 82.7855"
         stroke-opacity="0.698039"
         stroke-linecap="round"
         stroke-linejoin="round"
         stroke-miterlimit="10"
         stroke-width="6.5"
         id="path49" />
      <g
         transform="scale(19)"
         id="g57">
        <g
           transform="matrix(2.5,0,0,2.5,16.789474,21.609737)"
           id="g55">
          <g
             id="g53">
            <path
               fill="#000000"
               stroke="none"
               paint-order="stroke fill markers"
               d="M 0.474,-0.672 0.73,-0.047 H 0.827 V 0 Q 0.792,-0.003 0.664,-0.003 0.526,-0.003 0.488,0 V -0.047 H 0.583 L 0.523,-0.193 H 0.255 l -0.05,0.121 q -0.004,0.004 -0.004,0.012 0,0.013 0.089,0.013 V 0 Q 0.253,-0.003 0.158,-0.003 0.155,-0.003 0.041,0 v -0.047 h 0.021 q 0.052,0 0.066,-0.005 0.014,-0.005 0.019,-0.018 L 0.395,-0.672 Q 0.399,-0.683 0.402,-0.6875 0.405,-0.692 0.4125,-0.695 0.42,-0.698 0.434,-0.698 q 0.011,0 0.016,0.001 0.005,0.001 0.012,0.007 0.007,0.006 0.012,0.018 M 0.389,-0.518 0.275,-0.24 h 0.228 z"
               id="path51" />
          </g>
        </g>
      </g>
      <g
         transform="scale(19)"
         id="g65">
        <g
           transform="matrix(2.5,0,0,2.5,33,14.241316)"
           id="g63">
          <g
             id="g61">
            <path
               fill="#000000"
               stroke="none"
               paint-order="stroke fill markers"
               d="m 0.484,-0.397 0.253,0.35 H 0.835 V 0 Q 0.8,-0.003 0.673,-0.003 0.533,-0.003 0.492,0 V -0.047 H 0.575 L 0.401,-0.288 0.236,-0.069 Q 0.235,-0.068 0.232,-0.0635 0.229,-0.059 0.228,-0.058 0.263,-0.047 0.32,-0.047 V 0 Q 0.284,-0.003 0.168,-0.003 0.076,-0.003 0.034,0 v -0.047 h 0.029 q 0.031,0 0.061,-0.003 Q 0.147,-0.052 0.1535,-0.055 0.16,-0.058 0.167,-0.067 L 0.369,-0.332 0.147,-0.639 H 0.049 v -0.047 q 0.035,0.003 0.162,0.003 0.14,0 0.181,-0.003 v 0.047 H 0.309 l 0.143,0.197 0.132,-0.175 Q 0.585,-0.618 0.588,-0.6225 0.591,-0.627 0.592,-0.628 0.557,-0.639 0.5,-0.639 v -0.047 q 0.036,0.003 0.152,0.003 0.092,0 0.134,-0.003 v 0.047 H 0.757 q -0.034,0 -0.058,0.003 Q 0.673,-0.634 0.6665,-0.6315 0.66,-0.629 0.652,-0.618 Z"
               id="path59" />
          </g>
        </g>
      </g>
      <g
         transform="scale(19)"
         id="g73">
        <g
           transform="matrix(2.5,0,0,2.5,33.473684,21.715)"
           id="g71">
          <g
             id="g69">
            <path
               fill="#000000"
               stroke="none"
               paint-order="stroke fill markers"
               d="m 0.289,-0.639 v 0.592 H 0.403 V 0 Q 0.362,-0.003 0.218,-0.003 0.074,-0.003 0.033,0 V -0.047 H 0.147 V -0.639 H 0.033 v -0.047 q 0.041,0.003 0.185,0.003 0.144,0 0.185,-0.003 v 0.047 z"
               id="path67" />
          </g>
        </g>
      </g>
    </g>
  </g>
</svg>
