<svg version="1.1" xmlns="http://www.w3.org/2000/svg" xmlns:xlink="http://www.w3.org/1999/xlink" width="543" height="674"><defs><clipPath id="PMTqgqhhPdgg"><path fill="none" stroke="none" d=" M 0 0 L 543 0 L 543 674 L 0 674 L 0 0 Z"/></clipPath></defs><g transform="scale(1,1)" clip-path="url(#PMTqgqhhPdgg)"><g><rect fill="rgb(255,255,255)" stroke="none" x="0" y="0" width="543" height="674" fill-opacity="1"/><path fill="rgb(153,51,0)" stroke="none" paint-order="stroke fill markers" fill-rule="evenodd" d=" M 31.784984307997423 346.84618690879796 L 156.84043914737813 346.84618690879796 L 156.84043914737813 638.6422482006865 L 31.784984307997423 638.6422482006865 Z" fill-opacity="0.09803921568627451"/><path fill="rgb(153,51,0)" stroke="none" paint-order="stroke fill markers" fill-rule="evenodd" d=" M 198.52559076050503 346.84618690879796 L 490.3216520523933 346.84618690879796 L 490.3216520523933 638.6422482006865 L 198.52559076050503 638.6422482006865 Z" fill-opacity="0.09803921568627451"/><path fill="rgb(153,51,0)" stroke="none" paint-order="stroke fill markers" fill-rule="evenodd" d=" M 198.52559076050503 34.20754981034594 L 198.52559076050503 326.0036111022345 L 490.3216520523933 326.0036111022345 L 490.3216520523933 34.20754981034594 Z" fill-opacity="0.09803921568627451"/><path fill="none" stroke="rgb(153,51,0)" paint-order="fill stroke markers" d=" M 31.784984307997423 346.84618690879796 L 156.84043914737813 346.84618690879796" stroke-opacity="0.6980392156862745" stroke-linecap="round" stroke-linejoin="round" stroke-miterlimit="10" stroke-width="2.5"/><path fill="none" stroke="rgb(153,51,0)" paint-order="fill stroke markers" d=" M 156.84043914737813 346.84618690879796 L 156.84043914737813 638.6422482006865" stroke-opacity="0.6980392156862745" stroke-linecap="round" stroke-linejoin="round" stroke-miterlimit="10" stroke-width="2.5"/><path fill="none" stroke="rgb(153,51,0)" paint-order="fill stroke markers" d=" M 156.84043914737813 638.6422482006865 L 31.784984307997423 638.6422482006865" stroke-opacity="0.6980392156862745" stroke-linecap="round" stroke-linejoin="round" stroke-miterlimit="10" stroke-width="2.5"/><path fill="none" stroke="rgb(153,51,0)" paint-order="fill stroke markers" d=" M 31.784984307997423 638.6422482006865 L 31.784984307997423 346.84618690879796" stroke-opacity="0.6980392156862745" stroke-linecap="round" stroke-linejoin="round" stroke-miterlimit="10" stroke-width="2.5"/><path fill="none" stroke="rgb(153,51,0)" paint-order="fill stroke markers" d=" M 198.52559076050503 346.84618690879796 L 490.3216520523933 346.84618690879796" stroke-opacity="0.6980392156862745" stroke-linecap="round" stroke-linejoin="round" stroke-miterlimit="10" stroke-width="2.5"/><path fill="none" stroke="rgb(153,51,0)" paint-order="fill stroke markers" d=" M 490.3216520523933 346.84618690879796 L 490.3216520523933 638.6422482006865" stroke-opacity="0.6980392156862745" stroke-linecap="round" stroke-linejoin="round" stroke-miterlimit="10" stroke-width="2.5"/><path fill="none" stroke="rgb(153,51,0)" paint-order="fill stroke markers" d=" M 490.3216520523933 638.6422482006865 L 198.52559076050503 638.6422482006865" stroke-opacity="0.6980392156862745" stroke-linecap="round" stroke-linejoin="round" stroke-miterlimit="10" stroke-width="2.5"/><path fill="none" stroke="rgb(153,51,0)" paint-order="fill stroke markers" d=" M 198.52559076050503 638.6422482006865 L 198.52559076050503 346.84618690879796" stroke-opacity="0.6980392156862745" stroke-linecap="round" stroke-linejoin="round" stroke-miterlimit="10" stroke-width="2.5"/><path fill="none" stroke="rgb(153,51,0)" paint-order="fill stroke markers" d=" M 198.52559076050503 34.20754981034594 L 198.52559076050503 326.0036111022345" stroke-opacity="0.6980392156862745" stroke-linecap="round" stroke-linejoin="round" stroke-miterlimit="10" stroke-width="2.5"/><path fill="none" stroke="rgb(153,51,0)" paint-order="fill stroke markers" d=" M 198.52559076050503 326.0036111022345 L 490.3216520523933 326.0036111022345" stroke-opacity="0.6980392156862745" stroke-linecap="round" stroke-linejoin="round" stroke-miterlimit="10" stroke-width="2.5"/><path fill="none" stroke="rgb(153,51,0)" paint-order="fill stroke markers" d=" M 490.3216520523933 326.0036111022345 L 490.3216520523933 34.20754981034594" stroke-opacity="0.6980392156862745" stroke-linecap="round" stroke-linejoin="round" stroke-miterlimit="10" stroke-width="2.5"/><path fill="none" stroke="rgb(153,51,0)" paint-order="fill stroke markers" d=" M 490.3216520523933 34.20754981034594 L 198.52559076050503 34.20754981034594" stroke-opacity="0.6980392156862745" stroke-linecap="round" stroke-linejoin="round" stroke-miterlimit="10" stroke-width="2.5"/><path fill="none" stroke="rgb(204,0,0)" paint-order="fill stroke markers" d=" M 31.784984307997423 346.84618690879796 L 31.784984307997423 388.5313385219249" stroke-opacity="0.6980392156862745" stroke-linecap="round" stroke-linejoin="round" stroke-miterlimit="10" stroke-width="6.5"/><path fill="none" stroke="rgb(204,0,0)" paint-order="fill stroke markers" d=" M 31.784984307997423 388.5313385219249 L 73.47013592112432 388.5313385219249" stroke-opacity="0.6980392156862745" stroke-linecap="round" stroke-linejoin="round" stroke-miterlimit="10" stroke-width="6.5"/><path fill="none" stroke="rgb(204,0,0)" paint-order="fill stroke markers" d=" M 73.47013592112432 388.5313385219249 L 73.47013592112432 430.21649013505186" stroke-opacity="0.6980392156862745" stroke-linecap="round" stroke-linejoin="round" stroke-miterlimit="10" stroke-width="6.5"/><path fill="none" stroke="rgb(204,0,0)" paint-order="fill stroke markers" d=" M 73.47013592112432 430.21649013505186 L 73.47013592112432 430.21649013505186" stroke-opacity="0.6980392156862745" stroke-linecap="round" stroke-linejoin="round" stroke-miterlimit="10" stroke-width="6.5"/><path fill="none" stroke="rgb(204,0,0)" paint-order="fill stroke markers" d=" M 73.47013592112432 430.21649013505186 L 115.15528753425122 430.21649013505186" stroke-opacity="0.6980392156862745" stroke-linecap="round" stroke-linejoin="round" stroke-miterlimit="10" stroke-width="6.5"/><path fill="none" stroke="rgb(204,0,0)" paint-order="fill stroke markers" d=" M 115.15528753425122 430.21649013505186 L 115.15528753425122 471.9016417481788" stroke-opacity="0.6980392156862745" stroke-linecap="round" stroke-linejoin="round" stroke-miterlimit="10" stroke-width="6.5"/><path fill="none" stroke="rgb(204,0,0)" paint-order="fill stroke markers" d=" M 115.15528753425122 471.9016417481788 L 156.84043914737813 471.9443082792188" stroke-opacity="0.6980392156862745" stroke-linecap="round" stroke-linejoin="round" stroke-miterlimit="10" stroke-width="6.5"/><g transform="scale(19,19)"><g transform="translate(3.8421052631578947,26.504473684210527) scale(2.5,2.5)"><g transform="translate(0,0)"><path fill="rgb(0,0,0)" stroke="none" paint-order="stroke fill markers" d=" M 0.47400000000000003 -0.672 L 0.73 -0.047 L 0.8270000000000001 -0.047 L 0.8270000000000001 0 Q 0.792 -0.003 0.664 -0.003 Q 0.526 -0.003 0.488 0 L 0.488 -0.047 L 0.583 -0.047 L 0.523 -0.193 L 0.255 -0.193 L 0.20500000000000002 -0.07200000000000001 Q 0.201 -0.068 0.201 -0.06 Q 0.201 -0.047 0.29 -0.047 L 0.29 0 Q 0.253 -0.003 0.158 -0.003 Q 0.155 -0.003 0.041 0 L 0.041 -0.047 L 0.062 -0.047 Q 0.114 -0.047 0.128 -0.052000000000000005 Q 0.14200000000000002 -0.057 0.147 -0.07 L 0.395 -0.672 Q 0.399 -0.683 0.402 -0.6875 Q 0.405 -0.6920000000000001 0.41250000000000003 -0.6950000000000001 Q 0.42 -0.6980000000000001 0.434 -0.6980000000000001 Q 0.445 -0.6980000000000001 0.45 -0.6970000000000001 Q 0.455 -0.6960000000000001 0.462 -0.6900000000000001 Q 0.46900000000000003 -0.684 0.47400000000000003 -0.672 M 0.389 -0.518 L 0.275 -0.24 L 0.503 -0.24 L 0.389 -0.518 Z"/></g></g></g><g transform="scale(19,19)"><g transform="translate(16.57894736842105,10.03078947368421) scale(2.5,2.5)"><g transform="translate(0,0)"><path fill="rgb(0,0,0)" stroke="none" paint-order="stroke fill markers" d=" M 0.484 -0.397 L 0.737 -0.047 L 0.835 -0.047 L 0.835 0 Q 0.8 -0.003 0.673 -0.003 Q 0.533 -0.003 0.492 0 L 0.492 -0.047 L 0.5750000000000001 -0.047 L 0.401 -0.28800000000000003 L 0.23600000000000002 -0.069 Q 0.23500000000000001 -0.068 0.232 -0.0635 Q 0.229 -0.059000000000000004 0.228 -0.058 Q 0.263 -0.047 0.32 -0.047 L 0.32 0 Q 0.28400000000000003 -0.003 0.168 -0.003 Q 0.076 -0.003 0.034 0 L 0.034 -0.047 L 0.063 -0.047 Q 0.094 -0.047 0.124 -0.05 Q 0.147 -0.052000000000000005 0.1535 -0.055 Q 0.16 -0.058 0.167 -0.067 L 0.369 -0.332 L 0.147 -0.639 L 0.049 -0.639 L 0.049 -0.686 Q 0.084 -0.683 0.211 -0.683 Q 0.35100000000000003 -0.683 0.392 -0.686 L 0.392 -0.639 L 0.309 -0.639 L 0.452 -0.442 L 0.584 -0.617 Q 0.585 -0.618 0.588 -0.6225 Q 0.591 -0.627 0.592 -0.628 Q 0.557 -0.639 0.5 -0.639 L 0.5 -0.686 Q 0.536 -0.683 0.652 -0.683 Q 0.744 -0.683 0.786 -0.686 L 0.786 -0.639 L 0.757 -0.639 Q 0.723 -0.639 0.6990000000000001 -0.636 Q 0.673 -0.634 0.6665 -0.6315000000000001 Q 0.66 -0.629 0.652 -0.618 L 0.484 -0.397 Z"/></g></g></g><g transform="scale(19,19)"><g transform="translate(17.263157894736842,26.504473684210527) scale(2.5,2.5)"><g transform="translate(0,0)"><path fill="rgb(0,0,0)" stroke="none" paint-order="stroke fill markers" d=" M 0.289 -0.639 L 0.289 -0.047 L 0.403 -0.047 L 0.403 0 Q 0.362 -0.003 0.218 -0.003 Q 0.074 -0.003 0.033 0 L 0.033 -0.047 L 0.147 -0.047 L 0.147 -0.639 L 0.033 -0.639 L 0.033 -0.686 Q 0.074 -0.683 0.218 -0.683 Q 0.362 -0.683 0.403 -0.686 L 0.403 -0.639 L 0.289 -0.639 Z"/></g></g></g></g></g></svg>