<svg version="1.1" xmlns="http://www.w3.org/2000/svg" xmlns:xlink="http://www.w3.org/1999/xlink" width="870" height="572"><defs><clipPath id="qULngTvWSXPq"><path fill="none" stroke="none" d=" M 0 0 L 870 0 L 870 572 L 0 572 L 0 0 Z"/></clipPath></defs><g transform="scale(1,1)" clip-path="url(#qULngTvWSXPq)"><g><rect fill="rgb(255,255,255)" stroke="none" x="0" y="0" width="870" height="572" fill-opacity="1"/><path fill="none" stroke="rgb(192,192,192)" paint-order="fill stroke markers" d=" M 316.8455872201617 530.840793895661 C 316.8455872201617 530.840793895661 316.8455872201617 530.840793895661 316.8455872201617 530.840793895661 C 316.8455872201617 530.840793895661 316.8455872201617 530.840793895661 316.8455872201617 530.840793895661 C 316.8455872201617 530.840793895661 316.8455872201617 530.840793895661 316.8455872201617 530.840793895661 C 316.8455872201617 530.840793895661 316.8455872201617 530.840793895661 316.8455872201617 530.840793895661 Z" stroke-opacity="1" stroke-linecap="round" stroke-linejoin="round" stroke-miterlimit="10"/><path fill="none" stroke="rgb(192,192,192)" paint-order="fill stroke markers" d=" M 412.6356940033892 530.840793895661 C 412.6356940033892 583.7442090567008 369.7490023812014 626.6309006788886 316.8455872201617 626.6309006788886 C 263.9421720591219 626.6309006788886 221.0554804369342 583.7442090567008 221.0554804369342 530.840793895661 C 221.0554804369342 477.93737873462123 263.9421720591219 435.05068711243354 316.8455872201617 435.05068711243354 C 369.7490023812014 435.05068711243354 412.6356940033892 477.93737873462123 412.6356940033892 530.840793895661 Z" stroke-opacity="1" stroke-linecap="round" stroke-linejoin="round" stroke-miterlimit="10"/><path fill="none" stroke="rgb(192,192,192)" paint-order="fill stroke markers" d=" M 508.42580078661666 530.840793895661 C 508.42580078661666 636.6476242177405 422.6524175422412 722.421007462116 316.8455872201617 722.421007462116 C 211.03875689808214 722.421007462116 125.26537365370672 636.6476242177405 125.26537365370672 530.840793895661 C 125.26537365370672 425.03396357358145 211.03875689808214 339.26058032920605 316.8455872201617 339.26058032920605 C 422.6524175422412 339.26058032920605 508.42580078661666 425.03396357358145 508.42580078661666 530.840793895661 Z" stroke-opacity="1" stroke-linecap="round" stroke-linejoin="round" stroke-miterlimit="10"/><path fill="none" stroke="rgb(192,192,192)" paint-order="fill stroke markers" d=" M 604.2159075698441 530.840793895661 C 604.2159075698441 689.5510393787804 475.555832703281 818.2111142453434 316.8455872201617 818.2111142453434 C 158.13534173704238 818.2111142453434 29.47526687047923 689.5510393787804 29.47526687047923 530.840793895661 C 29.47526687047923 372.1305484125417 158.13534173704238 243.47047354597856 316.8455872201617 243.47047354597856 C 475.555832703281 243.47047354597856 604.2159075698441 372.1305484125417 604.2159075698441 530.840793895661 Z" stroke-opacity="1" stroke-linecap="round" stroke-linejoin="round" stroke-miterlimit="10"/><path fill="none" stroke="rgb(192,192,192)" paint-order="fill stroke markers" d=" M 700.0060143530716 530.840793895661 C 700.0060143530716 742.4544545398201 528.4592478643208 914.001221028571 316.8455872201617 914.001221028571 C 105.23192657600259 914.001221028571 -66.31483991274825 742.4544545398201 -66.31483991274825 530.840793895661 C -66.31483991274825 319.2271332515019 105.23192657600259 147.68036676275108 316.8455872201617 147.68036676275108 C 528.4592478643208 147.68036676275108 700.0060143530716 319.2271332515019 700.0060143530716 530.840793895661 Z" stroke-opacity="1" stroke-linecap="round" stroke-linejoin="round" stroke-miterlimit="10"/><path fill="none" stroke="rgb(192,192,192)" paint-order="fill stroke markers" d=" M 795.7961211362991 530.840793895661 C 795.7961211362991 795.3578697008597 581.3626630253605 1009.7913278117985 316.8455872201617 1009.7913278117985 C 52.32851141496283 1009.7913278117985 -162.10494669597574 795.3578697008597 -162.10494669597574 530.840793895661 C -162.10494669597574 266.3237180904622 52.32851141496283 51.89025997952359 316.8455872201617 51.89025997952359 C 581.3626630253605 51.89025997952359 795.7961211362991 266.3237180904622 795.7961211362991 530.840793895661 Z" stroke-opacity="1" stroke-linecap="round" stroke-linejoin="round" stroke-miterlimit="10"/><path fill="none" stroke="rgb(192,192,192)" paint-order="fill stroke markers" d=" M 891.5862279195267 530.840793895661 C 891.5862279195267 848.2612848618996 634.2660781864004 1105.581434595026 316.8455872201617 1105.581434595026 C -0.5749037460769273 1105.581434595026 -257.8950534792032 848.2612848618996 -257.8950534792032 530.840793895661 C -257.8950534792032 213.4203029294224 -0.5749037460769273 -43.899846803703895 316.8455872201617 -43.899846803703895 C 634.2660781864004 -43.899846803703895 891.5862279195267 213.4203029294224 891.5862279195267 530.840793895661 Z" stroke-opacity="1" stroke-linecap="round" stroke-linejoin="round" stroke-miterlimit="10"/><path fill="none" stroke="rgb(192,192,192)" paint-order="fill stroke markers" d=" M 987.3763347027541 530.840793895661 C 987.3763347027541 901.1647000229394 687.16949334744 1201.3715413782534 316.8455872201617 1201.3715413782534 C -53.47831890711677 1201.3715413782534 -353.68516026243077 901.1647000229394 -353.68516026243077 530.840793895661 C -353.68516026243077 160.51688776838256 -53.47831890711677 -139.68995358693144 316.8455872201617 -139.68995358693144 C 687.16949334744 -139.68995358693144 987.3763347027541 160.51688776838256 987.3763347027541 530.840793895661 Z" stroke-opacity="1" stroke-linecap="round" stroke-linejoin="round" stroke-miterlimit="10"/><path fill="none" stroke="rgb(192,192,192)" paint-order="fill stroke markers" d=" M 1083.1664414859815 530.840793895661 C 1083.1664414859815 954.0681151839791 740.0729085084797 1297.161648161481 316.8455872201617 1297.161648161481 C -106.3817340681565 1297.161648161481 -449.4752670456582 954.0681151839791 -449.4752670456582 530.840793895661 C -449.4752670456582 107.61347260734283 -106.3817340681565 -235.48006037015887 316.8455872201617 -235.48006037015887 C 740.0729085084797 -235.48006037015887 1083.1664414859815 107.61347260734283 1083.1664414859815 530.840793895661 Z" stroke-opacity="1" stroke-linecap="round" stroke-linejoin="round" stroke-miterlimit="10"/><path fill="none" stroke="rgb(192,192,192)" paint-order="fill stroke markers" d=" M 0 530.840793895661 L 870 530.840793895661" stroke-opacity="1" stroke-linecap="round" stroke-linejoin="round" stroke-miterlimit="10"/><path fill="none" stroke="rgb(192,192,192)" paint-order="fill stroke markers" d=" M 0 713.7716789687664 L 870 211.476944773792" stroke-opacity="1" stroke-linecap="round" stroke-linejoin="round" stroke-miterlimit="10"/><path fill="none" stroke="rgb(192,192,192)" paint-order="fill stroke markers" d=" M 0 1079.6334491149769 L 870 -427.25075346994583" stroke-opacity="1" stroke-linecap="round" stroke-linejoin="round" stroke-miterlimit="10"/><path fill="none" stroke="rgb(192,192,192)" paint-order="fill stroke markers" d=" M 316.8455872201617 0 L 316.8455872201617 572" stroke-opacity="1" stroke-linecap="round" stroke-linejoin="round" stroke-miterlimit="10"/><path fill="none" stroke="rgb(192,192,192)" paint-order="fill stroke markers" d=" M 0 -17.95186132365552 L 870 1488.9323412612687" stroke-opacity="1" stroke-linecap="round" stroke-linejoin="round" stroke-miterlimit="10"/><path fill="none" stroke="rgb(192,192,192)" paint-order="fill stroke markers" d=" M 0 347.90990882255545 L 870 850.2046430175303" stroke-opacity="1" stroke-linecap="round" stroke-linejoin="round" stroke-miterlimit="10"/><path fill="none" stroke="rgb(192,192,192)" paint-order="fill stroke markers" d=" M 0 530.8407938956608 L 870 530.8407938956614" stroke-opacity="1" stroke-linecap="round" stroke-linejoin="round" stroke-miterlimit="10"/><path fill="none" stroke="rgb(0,0,0)" paint-order="fill stroke markers" d=" M 316.5 2.5 L 316.5 572.5" stroke-opacity="1" stroke-miterlimit="10"/><path fill="none" stroke="rgb(0,0,0)" paint-order="fill stroke markers" d=" M 316.5 1.5 L 312.5 5.5" stroke-opacity="1" stroke-miterlimit="10"/><path fill="none" stroke="rgb(0,0,0)" paint-order="fill stroke markers" d=" M 316.5 1.5 L 320.5 5.5" stroke-opacity="1" stroke-miterlimit="10"/><path fill="none" stroke="rgb(0,0,0)" paint-order="fill stroke markers" d=" M 0.5 530.5 L 868.5 530.5" stroke-opacity="1" stroke-miterlimit="10"/><path fill="none" stroke="rgb(0,0,0)" paint-order="fill stroke markers" d=" M 869.5 530.5 L 865.5 526.5" stroke-opacity="1" stroke-miterlimit="10"/><path fill="none" stroke="rgb(0,0,0)" paint-order="fill stroke markers" d=" M 869.5 530.5 L 865.5 534.5" stroke-opacity="1" stroke-miterlimit="10"/><text fill="rgb(0,0,0)" stroke="none" font-family="geogebra-sans-serif, sans-serif" font-size="12px" font-style="normal" font-weight="normal" text-decoration="normal" x="18" y="546" text-anchor="start" dominant-baseline="alphabetic" fill-opacity="1">–0.6</text><text fill="rgb(0,0,0)" stroke="none" font-family="geogebra-sans-serif, sans-serif" font-size="12px" font-style="normal" font-weight="normal" text-decoration="normal" x="18" y="546" text-anchor="start" dominant-baseline="alphabetic" fill-opacity="1">–0.6</text><text fill="rgb(0,0,0)" stroke="none" font-family="geogebra-sans-serif, sans-serif" font-size="12px" font-style="normal" font-weight="normal" text-decoration="normal" x="114" y="546" text-anchor="start" dominant-baseline="alphabetic" fill-opacity="1">–0.4</text><text fill="rgb(0,0,0)" stroke="none" font-family="geogebra-sans-serif, sans-serif" font-size="12px" font-style="normal" font-weight="normal" text-decoration="normal" x="114" y="546" text-anchor="start" dominant-baseline="alphabetic" fill-opacity="1">–0.4</text><text fill="rgb(0,0,0)" stroke="none" font-family="geogebra-sans-serif, sans-serif" font-size="12px" font-style="normal" font-weight="normal" text-decoration="normal" x="210" y="546" text-anchor="start" dominant-baseline="alphabetic" fill-opacity="1">–0.2</text><text fill="rgb(0,0,0)" stroke="none" font-family="geogebra-sans-serif, sans-serif" font-size="12px" font-style="normal" font-weight="normal" text-decoration="normal" x="210" y="546" text-anchor="start" dominant-baseline="alphabetic" fill-opacity="1">–0.2</text><text fill="rgb(0,0,0)" stroke="none" font-family="geogebra-sans-serif, sans-serif" font-size="12px" font-style="normal" font-weight="normal" text-decoration="normal" x="404" y="546" text-anchor="start" dominant-baseline="alphabetic" fill-opacity="1">0.2</text><text fill="rgb(0,0,0)" stroke="none" font-family="geogebra-sans-serif, sans-serif" font-size="12px" font-style="normal" font-weight="normal" text-decoration="normal" x="404" y="546" text-anchor="start" dominant-baseline="alphabetic" fill-opacity="1">0.2</text><text fill="rgb(0,0,0)" stroke="none" font-family="geogebra-sans-serif, sans-serif" font-size="12px" font-style="normal" font-weight="normal" text-decoration="normal" x="500" y="546" text-anchor="start" dominant-baseline="alphabetic" fill-opacity="1">0.4</text><text fill="rgb(0,0,0)" stroke="none" font-family="geogebra-sans-serif, sans-serif" font-size="12px" font-style="normal" font-weight="normal" text-decoration="normal" x="500" y="546" text-anchor="start" dominant-baseline="alphabetic" fill-opacity="1">0.4</text><text fill="rgb(0,0,0)" stroke="none" font-family="geogebra-sans-serif, sans-serif" font-size="12px" font-style="normal" font-weight="normal" text-decoration="normal" x="596" y="546" text-anchor="start" dominant-baseline="alphabetic" fill-opacity="1">0.6</text><text fill="rgb(0,0,0)" stroke="none" font-family="geogebra-sans-serif, sans-serif" font-size="12px" font-style="normal" font-weight="normal" text-decoration="normal" x="596" y="546" text-anchor="start" dominant-baseline="alphabetic" fill-opacity="1">0.6</text><text fill="rgb(0,0,0)" stroke="none" font-family="geogebra-sans-serif, sans-serif" font-size="12px" font-style="normal" font-weight="normal" text-decoration="normal" x="692" y="546" text-anchor="start" dominant-baseline="alphabetic" fill-opacity="1">0.8</text><text fill="rgb(0,0,0)" stroke="none" font-family="geogebra-sans-serif, sans-serif" font-size="12px" font-style="normal" font-weight="normal" text-decoration="normal" x="692" y="546" text-anchor="start" dominant-baseline="alphabetic" fill-opacity="1">0.8</text><text fill="rgb(0,0,0)" stroke="none" font-family="geogebra-sans-serif, sans-serif" font-size="12px" font-style="normal" font-weight="normal" text-decoration="normal" x="793" y="546" text-anchor="start" dominant-baseline="alphabetic" fill-opacity="1">1</text><text fill="rgb(0,0,0)" stroke="none" font-family="geogebra-sans-serif, sans-serif" font-size="12px" font-style="normal" font-weight="normal" text-decoration="normal" x="793" y="546" text-anchor="start" dominant-baseline="alphabetic" fill-opacity="1">1</text><text fill="rgb(0,0,0)" stroke="none" font-family="geogebra-sans-serif, sans-serif" font-size="12px" font-style="normal" font-weight="normal" text-decoration="normal" x="292" y="440" text-anchor="start" dominant-baseline="alphabetic" fill-opacity="1">0.2</text><text fill="rgb(0,0,0)" stroke="none" font-family="geogebra-sans-serif, sans-serif" font-size="12px" font-style="normal" font-weight="normal" text-decoration="normal" x="292" y="440" text-anchor="start" dominant-baseline="alphabetic" fill-opacity="1">0.2</text><text fill="rgb(0,0,0)" stroke="none" font-family="geogebra-sans-serif, sans-serif" font-size="12px" font-style="normal" font-weight="normal" text-decoration="normal" x="292" y="344" text-anchor="start" dominant-baseline="alphabetic" fill-opacity="1">0.4</text><text fill="rgb(0,0,0)" stroke="none" font-family="geogebra-sans-serif, sans-serif" font-size="12px" font-style="normal" font-weight="normal" text-decoration="normal" x="292" y="344" text-anchor="start" dominant-baseline="alphabetic" fill-opacity="1">0.4</text><text fill="rgb(0,0,0)" stroke="none" font-family="geogebra-sans-serif, sans-serif" font-size="12px" font-style="normal" font-weight="normal" text-decoration="normal" x="292" y="248" text-anchor="start" dominant-baseline="alphabetic" fill-opacity="1">0.6</text><text fill="rgb(0,0,0)" stroke="none" font-family="geogebra-sans-serif, sans-serif" font-size="12px" font-style="normal" font-weight="normal" text-decoration="normal" x="292" y="248" text-anchor="start" dominant-baseline="alphabetic" fill-opacity="1">0.6</text><text fill="rgb(0,0,0)" stroke="none" font-family="geogebra-sans-serif, sans-serif" font-size="12px" font-style="normal" font-weight="normal" text-decoration="normal" x="292" y="152" text-anchor="start" dominant-baseline="alphabetic" fill-opacity="1">0.8</text><text fill="rgb(0,0,0)" stroke="none" font-family="geogebra-sans-serif, sans-serif" font-size="12px" font-style="normal" font-weight="normal" text-decoration="normal" x="292" y="152" text-anchor="start" dominant-baseline="alphabetic" fill-opacity="1">0.8</text><text fill="rgb(0,0,0)" stroke="none" font-family="geogebra-sans-serif, sans-serif" font-size="12px" font-style="normal" font-weight="normal" text-decoration="normal" x="302" y="56" text-anchor="start" dominant-baseline="alphabetic" fill-opacity="1">1</text><text fill="rgb(0,0,0)" stroke="none" font-family="geogebra-sans-serif, sans-serif" font-size="12px" font-style="normal" font-weight="normal" text-decoration="normal" x="302" y="56" text-anchor="start" dominant-baseline="alphabetic" fill-opacity="1">1</text><text fill="rgb(0,0,0)" stroke="none" font-family="geogebra-sans-serif, sans-serif" font-size="12px" font-style="normal" font-weight="normal" text-decoration="normal" x="302" y="546" text-anchor="start" dominant-baseline="alphabetic" fill-opacity="1">0</text><text fill="rgb(0,0,0)" stroke="none" font-family="geogebra-sans-serif, sans-serif" font-size="12px" font-style="normal" font-weight="normal" text-decoration="normal" x="302" y="546" text-anchor="start" dominant-baseline="alphabetic" fill-opacity="1">0</text><path fill="rgb(0,100,0)" stroke="none" paint-order="stroke fill markers" d=" M 316.8455872201617 435.840793895661 C 296.1974279780803 435.840793895661 276.1114163222966 442.5680699014969 259.628398816351 455.00417113882384 L 316.8455872201617 530.840793895661 Z" fill-opacity="0.09803921568627451"/><path fill="none" stroke="rgb(0,100,0)" paint-order="fill stroke markers" d=" M 316.8455872201617 435.840793895661 C 296.1974279780803 435.840793895661 276.1114163222966 442.5680699014969 259.628398816351 455.00417113882384 L 316.8455872201617 530.840793895661 Z" stroke-opacity="0.6980392156862745" stroke-linecap="round" stroke-linejoin="round" stroke-miterlimit="10" stroke-width="2.5"/><g transform="scale(19,19)"><g transform="translate(14.210526315789474,22.31394736842105) scale(2.5,2.5)"><g transform="translate(0,0)"><path fill="rgb(0,100,0)" stroke="none" paint-order="stroke fill markers" d=" M 0.455 -0.5 L 0.455 -0.5 Q 0.455 -0.34700000000000003 0.377 -0.19 Q 0.307 -0.05 0.222 -0.005 Q 0.191 0.011 0.162 0.011 Q 0.08 0.011 0.052000000000000005 -0.101 Q 0.042 -0.14300000000000002 0.042 -0.194 Q 0.042 -0.35100000000000003 0.122 -0.509 Q 0.192 -0.646 0.277 -0.6900000000000001 Q 0.307 -0.705 0.335 -0.705 Q 0.422 -0.705 0.447 -0.578 Q 0.455 -0.54 0.455 -0.5 M 0.148 -0.363 L 0.148 -0.363 L 0.357 -0.363 Q 0.389 -0.495 0.389 -0.562 Q 0.389 -0.675 0.342 -0.682 Q 0.338 -0.683 0.334 -0.683 Q 0.28300000000000003 -0.683 0.225 -0.578 Q 0.187 -0.511 0.149 -0.368 Q 0.149 -0.365 0.148 -0.363 M 0.34800000000000003 -0.331 L 0.14 -0.331 Q 0.108 -0.21 0.108 -0.133 Q 0.108 -0.013000000000000001 0.162 -0.011 Q 0.218 -0.011 0.278 -0.128 Q 0.317 -0.202 0.34800000000000003 -0.331 Z"/></g></g></g><path fill="rgb(0,0,255)" stroke="none" paint-order="stroke fill markers" d=" M 411.8455872201617 530.840793895661 C 411.8455872201617 510.1648392432827 405.1002110175796 490.0533389718314 392.6332615999018 473.5587861435712 L 316.8455872201617 530.840793895661 Z" fill-opacity="0.09803921568627451"/><path fill="none" stroke="rgb(0,0,255)" paint-order="fill stroke markers" d=" M 411.8455872201617 530.840793895661 C 411.8455872201617 510.1648392432827 405.1002110175796 490.0533389718314 392.6332615999018 473.5587861435712 L 316.8455872201617 530.840793895661 Z" stroke-opacity="0.6980392156862745" stroke-linecap="round" stroke-linejoin="round" stroke-miterlimit="10" stroke-width="2.5"/><g transform="scale(19,19)"><g transform="translate(22.68421052631579,27.261315789473684) scale(2.5,2.5)"><g transform="translate(0,0)"><path fill="rgb(0,0,255)" stroke="none" paint-order="stroke fill markers" d=" M 0.455 -0.5 L 0.455 -0.5 Q 0.455 -0.34700000000000003 0.377 -0.19 Q 0.307 -0.05 0.222 -0.005 Q 0.191 0.011 0.162 0.011 Q 0.08 0.011 0.052000000000000005 -0.101 Q 0.042 -0.14300000000000002 0.042 -0.194 Q 0.042 -0.35100000000000003 0.122 -0.509 Q 0.192 -0.646 0.277 -0.6900000000000001 Q 0.307 -0.705 0.335 -0.705 Q 0.422 -0.705 0.447 -0.578 Q 0.455 -0.54 0.455 -0.5 M 0.148 -0.363 L 0.148 -0.363 L 0.357 -0.363 Q 0.389 -0.495 0.389 -0.562 Q 0.389 -0.675 0.342 -0.682 Q 0.338 -0.683 0.334 -0.683 Q 0.28300000000000003 -0.683 0.225 -0.578 Q 0.187 -0.511 0.149 -0.368 Q 0.149 -0.365 0.148 -0.363 M 0.34800000000000003 -0.331 L 0.14 -0.331 Q 0.108 -0.21 0.108 -0.133 Q 0.108 -0.013000000000000001 0.162 -0.011 Q 0.218 -0.011 0.278 -0.128 Q 0.317 -0.202 0.34800000000000003 -0.331 Z"/></g></g></g><path fill="none" stroke="rgb(0,0,255)" paint-order="fill stroke markers" d=" M 316.8455872201617 530.840793895661 L 756.796121136299 530.840793895661" stroke-opacity="0.6980392156862745" stroke-linecap="round" stroke-linejoin="round" stroke-miterlimit="10" stroke-width="6.5"/><path fill="rgb(0,0,255)" stroke="none" paint-order="stroke fill markers" fill-rule="evenodd" d=" M 795.796121136299 530.840793895661 L 756.796121136299 540.590793895661 L 756.796121136299 521.090793895661 Z" fill-opacity="0.6980392156862745"/><path fill="none" stroke="rgb(0,0,255)" paint-order="fill stroke markers" d=" M 316.8455872201617 530.840793895661 L 667.8871652546324 265.51577160348927" stroke-opacity="0.6980392156862745" stroke-linecap="round" stroke-linejoin="round" stroke-miterlimit="10" stroke-width="6.5"/><path fill="rgb(0,0,255)" stroke="none" paint-order="stroke fill markers" fill-rule="evenodd" d=" M 698.9999999999993 241.99999999999977 L 673.7661081555048 273.29398028983104 L 662.00822235376 257.7375629171475 Z" fill-opacity="0.6980392156862745"/><path fill="none" stroke="rgb(0,100,0)" paint-order="fill stroke markers" d=" M 316.8455872201617 530.840793895661 L 316.8455872201617 90.89025997952365" stroke-opacity="0.6980392156862745" stroke-linecap="round" stroke-linejoin="round" stroke-miterlimit="10" stroke-width="6.5"/><path fill="rgb(0,100,0)" stroke="none" paint-order="stroke fill markers" fill-rule="evenodd" d=" M 316.8455872201617 51.89025997952365 L 326.5955872201617 90.89025997952365 L 307.0955872201617 90.89025997952365 Z" fill-opacity="0.6980392156862745"/><path fill="none" stroke="rgb(0,100,0)" paint-order="fill stroke markers" d=" M 316.8455872201617 530.840793895661 L 51.48916155524909 179.13292934228048" stroke-opacity="0.6980392156862745" stroke-linecap="round" stroke-linejoin="round" stroke-miterlimit="10" stroke-width="6.5"/><path fill="rgb(0,100,0)" stroke="none" paint-order="stroke fill markers" fill-rule="evenodd" d=" M 28.00000000000051 147.99999999999994 L 59.272393890819224 173.26063895346834 L 43.70592921967896 185.0052197310926 Z" fill-opacity="0.6980392156862745"/></g></g></svg>
